<?xml version="1.0" encoding="UTF-8" standalone="no"?>
<!-- Created with Inkscape (http://www.inkscape.org/) -->

<svg
   width="200"
   height="200"
   viewBox="0 0 52.916665 52.916668"
   version="1.1"
   id="svg5"
   sodipodi:docname="icon_link.svg"
   inkscape:version="1.1 (c68e22c387, 2021-05-23)"
   xmlns:inkscape="http://www.inkscape.org/namespaces/inkscape"
   xmlns:sodipodi="http://sodipodi.sourceforge.net/DTD/sodipodi-0.dtd"
   xmlns="http://www.w3.org/2000/svg"
   xmlns:svg="http://www.w3.org/2000/svg">
  <sodipodi:namedview
     id="namedview6"
     pagecolor="#ffffff"
     bordercolor="#666666"
     borderopacity="1.0"
     inkscape:pageshadow="2"
     inkscape:pageopacity="0.0"
     inkscape:pagecheckerboard="0"
     showgrid="false"
     inkscape:zoom="3.895"
     inkscape:cx="112.7086"
     inkscape:cy="138.25417"
     inkscape:window-width="2400"
     inkscape:window-height="1271"
     inkscape:window-x="2391"
     inkscape:window-y="-9"
     inkscape:window-maximized="1"
     inkscape:current-layer="svg5" />
  <defs
     id="defs2" />
  <g
     id="layer2"
     style="display:inline">
    <path
       style="fill:#282cd9;fill-opacity:1;stroke:#282cd9;stroke-width:0.3;stroke-miterlimit:4;stroke-dasharray:none;stroke-opacity:1"
       d="M 23.7953,47.435142 C 9.6668258,45.302942 1.5137458,30.623702 7.3882328,17.894982 c 1.130712,-2.45001 2.234354,-4.03733 4.1139642,-5.91694 2.213808,-2.2138099 6.12713,-4.7817599 6.461787,-4.2402699 0.08351,0.13512 -0.59434,0.63436 -1.506339,1.10941 -1.115947,0.58129 -2.480117,1.6902799 -4.17172,3.3913699 -4.1864592,4.20994 -6.1133962,8.69386 -6.1460212,14.3016 -0.03162,5.43464 1.844131,10.17669 5.5788812,14.10389 7.576771,7.9672 20.489656,8.32336 28.627036,0.78958 4.241929,-3.92728 6.369102,-8.70808 6.391264,-14.36431 0.01378,-3.51982 -0.550328,-6.03704 -2.045658,-9.12812 -3.188084,-6.59029 -9.350518,-10.8677299 -16.530502,-11.4740899 -1.51302,-0.12777 -1.984375,-0.26185 -1.984375,-0.56445 0,-0.51434 1.565299,-0.41838 4.577648,0.28062 7.940662,1.84258 14.19488,7.9691399 16.10323,15.7745399 0.705302,2.88479 0.577815,7.31627 -0.295101,10.25782 -2.232572,7.52331 -8.031884,13.14384 -15.29494,14.82343 -2.219214,0.51319 -5.532361,0.68882 -7.472087,0.39608 z m -0.304833,-7.7769 c -4.753216,-1.15296 -8.593124,-5.11329 -9.589238,-9.88997 -1.100051,-5.27509 1.155995,-10.5021 5.851538,-13.55737 2.154709,-1.40202 4.337083,-1.93232 7.400672,-1.79833 2.181453,0.0954 2.725655,0.22463 4.505449,1.06985 6.70609,3.18471 9.346171,10.6558 6.130899,17.34966 -2.520019,5.24641 -8.683003,8.18847 -14.29932,6.82616 z m -0.09204,-11.3983 v -4.36563 H 21.943219 20.48801 v 4.36563 4.36562 h 1.455209 1.455208 z m 4.233333,1.54219 c 0,-2.25595 0.08801,-2.9207 0.437883,-3.3073 0.536964,-0.59333 0.98248,-0.61319 1.527593,-0.0681 0.32725,0.32725 0.415774,1.03142 0.415774,3.3073 v 2.89151 h 1.455209 1.455208 l -0.0039,-3.24114 c -0.0042,-3.50992 -0.184168,-4.16154 -1.398108,-5.06289 -0.889392,-0.66036 -2.5209,-0.69145 -3.475125,-0.0662 -0.590846,0.38714 -0.677455,0.38877 -0.885721,0.0166 -0.167474,-0.29926 -0.552104,-0.38954 -1.401181,-0.32889 l -1.17035,0.0836 -0.07353,3.95713 c -0.04044,2.17642 -0.01441,4.11118 0.05784,4.29948 0.08557,0.22299 0.641651,0.34235 1.594887,0.34235 h 1.463511 z m -4.745105,-6.97546 c 0.751351,-0.40211 0.679926,-1.7204 -0.12167,-2.24562 -1.41088,-0.92445 -3.046355,0.51906 -2.145613,1.89377 0.441106,0.67321 1.391291,0.82067 2.267283,0.35185 z"
       id="path836" />
  </g>
  <circle
     style="fill:#282cd9;stroke-width:0.250817;paint-order:fill markers stroke;stop-color:#000000;fill-opacity:1"
     id="path1164"
     cx="26.390406"
     cy="27.613125"
     r="9.9515934" />
  <path
     style="fill:#ffffff;stroke-width:0.0183731"
     d="m 22.179568,34.934035 c -0.803091,-0.111289 -1.531292,-0.473388 -2.10424,-1.046336 -0.695906,-0.695905 -1.072646,-1.602928 -1.073951,-2.585592 -0.0011,-0.816609 0.25457,-1.575674 0.755658,-2.243623 0.15884,-0.211734 3.099485,-3.150794 3.294636,-3.292861 0.689194,-0.501722 1.388067,-0.733059 2.214581,-0.733059 0.845391,0 1.485003,0.216516 2.255532,0.76352 0.04307,0.03058 0.160336,0.135594 0.260582,0.233367 0.209377,0.20421 0.294436,0.352056 0.332726,0.578326 0.0653,0.385894 -0.149959,0.79618 -0.503402,0.95948 -0.359976,0.166319 -0.739983,0.104345 -1.040947,-0.169766 -0.314773,-0.286689 -0.62643,-0.446128 -1.00086,-0.512025 -0.484526,-0.08527 -1.002428,0.04217 -1.408911,0.346702 -0.19247,0.144196 -2.910693,2.875002 -3.010205,3.02414 -0.549872,0.824091 -0.369103,1.920484 0.413301,2.50673 0.276149,0.206915 0.60703,0.333461 0.937029,0.358366 0.445419,0.03362 0.848175,-0.06979 1.205623,-0.309556 0.0705,-0.04729 0.428524,-0.387025 0.898099,-0.85223 0.838373,-0.830569 0.847353,-0.837925 1.102919,-0.903542 0.140103,-0.03597 0.347912,-0.02653 0.498241,0.02264 0.0529,0.0173 0.158159,0.0734 0.233913,0.124656 0.366904,0.248263 0.49041,0.734121 0.292243,1.149652 -0.05117,0.107301 -0.139196,0.201671 -0.867064,0.92957 -0.462839,0.462859 -0.874589,0.858604 -0.960527,0.92319 -0.527813,0.396679 -1.127166,0.643997 -1.765922,0.728691 -0.250625,0.03323 -0.717611,0.03302 -0.959054,-4.43e-4 z m 4.758638,-4.520542 c -0.02526,-0.0044 -0.120344,-0.01676 -0.211291,-0.02758 -0.608767,-0.07238 -1.152693,-0.298728 -1.768644,-0.735997 -0.04307,-0.03058 -0.160337,-0.135594 -0.260583,-0.233366 -0.209377,-0.204211 -0.294436,-0.352056 -0.332726,-0.578326 -0.0653,-0.385894 0.149959,-0.79618 0.503402,-0.95948 0.359976,-0.16632 0.739984,-0.104345 1.040947,0.169766 0.314773,0.286688 0.62643,0.446127 1.00086,0.512024 0.484527,0.08527 1.002428,-0.04217 1.408911,-0.346702 0.19247,-0.144196 2.910693,-2.875001 3.010205,-3.024139 0.177935,-0.266671 0.285812,-0.572139 0.308974,-0.874907 0.02691,-0.351723 -0.02685,-0.656653 -0.16797,-0.952723 -0.281445,-0.590484 -0.854929,-0.989436 -1.491334,-1.037467 -0.445419,-0.03362 -0.848175,0.0698 -1.205623,0.309556 -0.0705,0.04729 -0.428524,0.387026 -0.898099,0.85223 -0.838373,0.830569 -0.847352,0.837926 -1.102919,0.903542 -0.140102,0.03597 -0.347912,0.02653 -0.498241,-0.02264 -0.0529,-0.0173 -0.158159,-0.0734 -0.233913,-0.124656 -0.366904,-0.248263 -0.490409,-0.734121 -0.292243,-1.149652 0.05117,-0.107301 0.139196,-0.201671 0.867064,-0.92957 0.462839,-0.462859 0.87459,-0.858604 0.960527,-0.923191 0.666204,-0.500686 1.426862,-0.756948 2.243623,-0.755863 0.982665,0.0013 1.889688,0.378046 2.585593,1.073951 0.695906,0.695906 1.072647,1.602928 1.073952,2.585593 0.0011,0.816609 -0.254571,1.575673 -0.755659,2.243623 -0.15884,0.211734 -3.099485,3.150794 -3.294636,3.29286 -0.518431,0.37741 -1.052058,0.60239 -1.654884,0.697708 -0.176059,0.02784 -0.740416,0.05176 -0.835293,0.03541 z"
     id="path4021" />
</svg>
