<?xml version="1.0" encoding="UTF-8" standalone="no"?>
<!-- Created with Inkscape (http://www.inkscape.org/) -->

<svg
   width="200"
   height="200"
   viewBox="0 0 52.916665 52.916668"
   version="1.1"
   id="svg5"
   xmlns="http://www.w3.org/2000/svg"
   xmlns:svg="http://www.w3.org/2000/svg">
  <defs
     id="defs2" />
  <g
     id="layer3">
    <path
       d="M 23.864945,47.316229 C 9.7364649,45.184029 1.5833849,30.504789 7.4578749,17.776069 c 1.13071,-2.45001 2.23435,-4.03733 4.1139601,-5.91694 2.21381,-2.21381 6.12713,-4.78176 6.46179,-4.24027 0.0835,0.13512 -0.59434,0.63436 -1.50634,1.10941 -1.11595,0.58129 -2.48012,1.69028 -4.17172,3.39137 -4.1864601,4.20994 -6.1134001,8.69386 -6.1460201,14.3016 -0.0316,5.43464 1.84413,10.17669 5.5788801,14.10389 7.57677,7.9672 20.48966,8.32336 28.62704,0.78958 4.24193,-3.92728 6.3691,-8.70808 6.39126,-14.36431 0.0138,-3.51982 -0.55033,-6.03704 -2.04566,-9.12812 -3.18808,-6.59029 -9.35052,-10.86773 -16.5305,-11.47409 -1.51302,-0.12777 -1.98437,-0.26185 -1.98437,-0.56445 0,-0.51434 1.56529,-0.41838 4.57764,0.28062 7.94067,1.84258 14.19488,7.96914 16.10323,15.77454 0.70531,2.88479 0.57782,7.31627 -0.2951,10.25782 -2.23257,7.52331 -8.03188,13.14384 -15.29494,14.82343 -2.21921,0.51319 -5.53236,0.68882 -7.47208,0.39608 z m -3.83646,-10.80873 c -0.80037,-0.25773 -1.79823,-0.64978 -2.21747,-0.87122 l -0.76227,-0.40261 1.54565,-0.15952 c 2.38844,-0.24651 5.96814,-2.30291 4.00881,-2.30291 -0.87499,0 -2.30509,-1.00626 -2.9155,-2.05142 l -0.50168,-0.859 h 0.774 c 1.19526,0 1.21333,-0.28816 0.0541,-0.86172 -1.11646,-0.55239 -2.36684,-2.30212 -2.36684,-3.31208 0,-0.49268 0.1121,-0.53812 0.99219,-0.40223 l 0.99219,0.1532 -0.56437,-0.63285 c -1.26273,-1.41599 -1.7778,-3.60147 -1.19598,-5.0747 0.16564,-0.41941 0.27611,-0.37781 0.97359,0.36666 1.82602,1.94902 5.93168,3.94289 8.11897,3.94289 0.61501,0 0.75801,-0.0943 0.63383,-0.4179 -0.26012,-0.67786 0.13238,-2.45675 0.74149,-3.36061 1.39898,-2.07594 3.91527,-2.67303 5.81938,-1.38087 1.13024,0.767 1.43393,0.79852 2.6795,0.27809 1.1346,-0.47407 1.16214,-0.1782 0.0964,1.03562 -0.88077,1.00314 -0.83356,1.06935 0.4915,0.68933 0.78636,-0.22553 0.83572,-0.20529 0.59523,0.24407 -0.14422,0.26949 -0.54401,0.71163 -0.88842,0.98254 -0.50582,0.39788 -0.66333,0.84683 -0.81943,2.33562 -0.61367,5.85273 -4.14153,10.4939 -9.16512,12.05742 -2.04898,0.63772 -5.14671,0.63955 -7.11968,0.004 z"
       style="fill:#282cd9;fill-opacity:1;stroke:#282cd9;stroke-width:0.3;stroke-miterlimit:4;stroke-dasharray:none;stroke-opacity:1"
       id="path1113" />
  </g>
</svg>
