<?xml version="1.0" encoding="UTF-8" standalone="no"?>
<!-- Created with Inkscape (http://www.inkscape.org/) -->

<svg
   width="200"
   height="200"
   viewBox="0 0 52.916665 52.916668"
   version="1.1"
   id="svg5"
   xmlns="http://www.w3.org/2000/svg"
   xmlns:svg="http://www.w3.org/2000/svg">
  <defs
     id="defs2" />
  <g
     id="layer5"
     style="display:inline">
    <path
       style="fill:#002ddc;fill-opacity:1;stroke-width:0.0997627"
       d="m 27.811699,48.174922 -1.72062,-0.0088 C 23.310507,48.151853 20.967493,47.699277 18.483863,46.69654 12.380122,44.232223 7.8041691,38.914731 6.114725,32.322971 5.5503986,30.121117 5.4197373,29.012565 5.4197373,26.426583 c 0,-2.517349 0.1245911,-3.642926 0.6405174,-5.786252 0.233145,-0.968571 0.7985915,-2.728963 1.1375742,-3.541581 l 0.6200252,-1.396682 c 0.013443,0 0.2115491,-0.34792 0.4401397,-0.77316 C 10.24642,11.229905 13.362907,8.1721039 17.016952,6.3348841 17.909,5.8863699 18.225932,5.8345352 18.45383,6.0998896 18.929447,6.6536744 18.786794,6.8805931 17.386457,7.7977762 11.952404,11.356932 8.3463692,16.346071 7.2749232,21.787605 c -0.3399465,1.726489 -0.4239627,2.615909 -0.4222316,4.469946 0.00454,4.80305 1.3728598,9.002952 4.1311494,12.679552 2.12704,2.835187 5.353532,5.272575 8.697769,6.570563 2.19496,0.851917 3.947817,1.212241 6.286506,1.29228 3.236857,0.11077 5.969674,-0.472125 8.999653,-1.919582 2.154074,-1.029026 3.603877,-2.041137 5.350844,-3.735448 3.05914,-2.966926 4.93442,-6.709465 5.600351,-11.17675 0.225786,-1.51466 0.301124,-4.033111 0.158162,-5.287436 C 45.107667,16.174539 38.880516,8.9843553 30.491959,6.6853092 28.42362,6.1184415 26.807774,6.0284711 25.771459,6.4224747 24.526554,6.89579 23.779613,8.1280895 24.066726,9.2349436 c 0.187465,0.7226871 0.284893,0.7657904 0.582624,0.2577481 0.340614,-0.5812139 1.044086,-1.2165808 1.521394,-1.3741069 0.212746,-0.070201 0.732691,-0.1322639 1.155433,-0.1378982 0.635505,-0.00844 0.817587,0.026118 1.051354,0.1997163 1.055424,0.7837462 0.842753,2.3489711 -0.460711,3.3907651 -0.857296,0.685194 -1.705144,0.878221 -2.632115,0.599245 l -0.464261,-0.139723 -0.304013,0.383847 c -0.169307,0.213769 -0.54679,0.502628 -0.851936,0.651923 -0.75419,0.368991 -1.528922,0.31047 -2.595521,-0.196058 -0.41779,-0.198407 -0.909563,-0.360741 -1.092827,-0.360741 h -0.333206 l 0.18491,0.423992 c 0.101712,0.233198 0.239339,0.767725 0.305864,1.187841 0.160214,1.011773 0.03714,1.505691 -0.658418,2.642358 -0.297385,0.48598 -0.540972,0.976167 -0.541307,1.089304 -3e-4,0.114688 0.135786,0.30654 0.307633,0.433601 l 0.308242,0.227894 0.592836,-0.266053 c 1.180126,-0.529605 2.073712,-0.767977 4.327522,-1.154404 3.813425,-0.653823 5.453016,-0.491501 6.736776,0.666958 0.536137,0.483808 0.701751,0.876574 0.707908,1.678882 0.01329,1.725942 -1.177815,2.610643 -3.968883,2.948006 -1.963274,0.237307 -6.284389,-0.468753 -8.285828,-1.353885 l -0.521313,-0.230547 -0.287335,0.367296 c -0.39794,0.508685 -1.241036,1.932919 -1.606272,2.713467 -0.281701,0.602023 -0.297371,0.692427 -0.211493,1.220088 0.214064,1.315256 0.627866,1.873869 2.344075,3.16439 2.406197,1.809366 2.622401,2.188266 3.10435,5.44043 0.439404,2.965053 0.867903,4.757495 1.292083,5.404873 0.199085,0.303845 0.698053,0.611749 1.120818,0.691643 0.759569,0.143548 2.070421,-0.869112 3.674122,-2.838323 0.662552,-0.813558 0.984388,-1.304192 1.145256,-1.745932 0.123066,-0.337919 0.518604,-1.189342 0.878984,-1.892054 l 0.655238,-1.277657 0.03918,-1.341119 0.03918,-1.341116 -0.585193,-0.0015 c -3.275857,-0.0083 -5.592556,-2.911934 -3.994716,-5.006845 0.610266,-0.800118 1.449389,-1.089589 2.367838,-0.816837 0.991463,0.294431 2.15616,1.718063 2.909222,3.555987 0.276947,0.675916 0.342817,0.76564 0.521636,0.710564 1.14546,-0.352817 2.183164,-0.934939 2.912053,-1.633581 0.437857,-0.419685 0.832967,-0.951621 0.833819,-1.12256 2e-4,-0.04115 -0.257764,-0.07508 -0.573262,-0.07538 -1.476798,-0.0015 -2.402272,-0.688075 -2.498969,-1.854069 -0.05711,-0.688653 0.160358,-1.285409 0.645043,-1.770094 0.6977,-0.697705 1.69445,-0.841594 2.606554,-0.376271 0.507695,0.259007 1.259033,1.097857 1.463916,1.634427 l 0.160826,0.421187 h 1.367737 c 1.310525,0 1.392781,0.01235 1.966318,0.292815 1.437493,0.703202 3.025506,3.090715 3.20505,4.818663 0.05196,0.500011 0.03268,0.599403 -0.147726,0.762062 -0.411296,0.370824 -1.015337,0.156306 -1.479442,-0.525388 -0.119816,-0.17599 -0.40555,-0.883244 -0.634971,-1.571666 -0.474748,-1.424598 -0.760556,-1.831789 -1.540762,-2.195114 -0.592484,-0.275903 -1.030154,-0.291073 -2.053459,-0.07118 -0.73189,0.157282 -0.76515,0.176896 -0.887802,0.523755 -0.20838,0.589301 -0.986448,1.686868 -1.696509,2.393152 -0.965262,0.960129 -1.878617,1.459107 -3.194346,1.745116 l -0.249408,0.05421 -0.0042,1.276353 c -0.0039,1.123016 -0.03756,1.376342 -0.281638,2.10873 -0.152591,0.457806 -0.262926,0.846729 -0.245196,0.864266 0.01771,0.01753 0.211803,-3.77e-4 0.43128,-0.03982 0.774796,-0.139227 1.460901,0.159506 1.704304,0.742036 0.200718,0.480388 0.178917,1.540423 -0.04373,2.126388 -0.280983,0.739484 -1.168133,2.149876 -1.57946,2.511028 -0.491828,0.431827 -0.918292,0.595653 -1.549409,0.59521 -0.576738,-3.77e-4 -1.072703,-0.230359 -1.437724,-0.666583 l -0.212426,-0.253862 -0.884968,0.892136 c -1.010628,1.018814 -1.727401,1.430827 -2.930107,1.684276 -1.424309,0.30015 -2.146613,0.04023 -3.059005,-1.100786 -1.033307,-1.292229 -1.256429,-2.049486 -1.47446,-5.004196 -0.173158,-2.346593 -0.396001,-3.346232 -0.91413,-4.100613 -0.396814,-0.577752 -0.763745,-0.83287 -2.427626,-1.687852 -1.877845,-0.964933 -2.534242,-1.789771 -2.530802,-3.180259 9.81e-4,-0.384083 0.07363,-0.967697 0.161513,-1.296916 0.08788,-0.329216 0.227939,-0.957724 0.311235,-1.396682 0.201271,-1.06066 0.789301,-2.233254 1.528389,-3.047772 0.58207,-0.641475 0.583402,-0.644374 0.432801,-0.942743 -0.08309,-0.164608 -0.168724,-0.621514 -0.190308,-1.015341 -0.04389,-0.800877 0.15368,-1.535282 0.745607,-2.771568 0.41786,-0.872731 0.491253,-1.26172 0.33669,-1.784496 -0.142476,-0.481858 -0.363708,-0.763538 -0.599717,-0.763538 -0.260328,0 -0.600506,-0.429053 -0.600506,-0.757394 0,-0.394689 0.228465,-0.698864 0.709074,-0.944053 0.621833,-0.317232 1.468576,-0.350091 2.742253,-0.106411 1.260331,0.241128 2.213676,0.272423 2.475114,0.08125 0.168081,-0.122881 0.161193,-0.156001 -0.119265,-0.57365 -0.458251,-0.682434 -0.642752,-1.3316656 -0.650453,-2.2888554 -0.0083,-1.0295822 0.192933,-1.5507912 0.883877,-2.2894646 0.563251,-0.6021636 1.384506,-1.0317593 2.40749,-1.2593507 0.994333,-0.2212202 3.270236,-0.147806 4.547286,0.1466695 6.112005,1.4093969 11.984835,6.2802642 15.007099,12.4467472 l 0.745362,1.520802 0.5581,1.401787 c -0.04085,0.03474 0.169295,1.0233 0.169295,1.0233 0.43839,1.728188 0.576997,2.965236 0.584465,5.216237 0.0081,2.42542 -0.140651,3.649384 -0.727156,5.985775 -2.040715,8.129313 -7.686381,13.512729 -15.875057,15.137632 l -1.585659,0.314646 c -1.497013,0.11077 0,0 -1.497013,0.11077 z m 3.905298,-10.470027 c 0.479062,-0.32553 0.93349,-1.032279 1.204214,-1.872843 0.191488,-0.594547 0.201687,-0.700829 0.07529,-0.784425 -0.38635,-0.255547 -1.046815,0.119879 -1.797236,1.021601 -0.466596,0.560676 -0.493866,0.625281 -0.493866,1.17021 0,0.317222 0.02994,0.606699 0.06651,0.643278 0.141981,0.141979 0.601783,0.05545 0.945083,-0.177821 z m -0.883308,-9.693971 c 0.0938,-0.0938 -0.58241,-1.376834 -0.940723,-1.784926 -0.399054,-0.454497 -0.984694,-0.756041 -1.513147,-0.779101 -0.510953,-0.02229 -0.550555,0.102505 -0.270255,0.851684 0.345674,0.923891 1.0635,1.500255 2.082919,1.672439 0.254674,0.04301 0.489229,0.08349 0.521238,0.08994 0.03201,0.0064 0.086,-0.01608 0.119967,-0.05004 z m 5.458441,-4.924839 c -0.137177,-0.106461 -0.376373,-0.222029 -0.531555,-0.256828 -0.375293,-0.08416 -0.988244,0.03561 -0.938958,0.183445 0.05474,0.16423 0.426854,0.250248 1.121345,0.259215 l 0.598576,0.0077 -0.249408,-0.193555 z M 29.417,20.705836 c 0.758847,-0.295744 1.033773,-0.599644 0.959048,-1.060113 -0.123621,-0.761788 -0.67138,-1.181282 -1.774413,-1.358921 -0.988886,-0.159251 -3.634819,0.05135 -4.993189,0.397426 -1.258476,0.320629 -2.280749,0.68085 -2.280749,0.803674 0,0.152511 2.550876,1.129963 3.641346,1.395308 0.219478,0.05342 1.184682,0.08421 2.144899,0.06845 1.512837,-0.02484 1.820222,-0.05764 2.303058,-0.245818 z m -2.648385,-10.03694 c 0.430262,-0.179776 0.602001,-0.558768 0.421183,-0.9294693 -0.06917,-0.141773 -0.179607,-0.275309 -0.245453,-0.296737 -0.134024,-0.043605 -0.93309,0.6588653 -1.240433,1.0904893 l -0.199761,0.280537 h 0.458932 c 0.252412,0 0.614899,-0.06516 0.805532,-0.144827 z"
       id="path836-3" />
  </g>
</svg>
