<?xml version="1.0" encoding="UTF-8" standalone="no"?>
<!-- Created with Inkscape (http://www.inkscape.org/) -->

<svg
   width="200"
   height="200"
   viewBox="0 0 52.916665 52.916668"
   version="1.1"
   id="svg5"
   sodipodi:docname="icon_whatsapp.svg"
   inkscape:version="1.1 (c68e22c387, 2021-05-23)"
   xmlns:inkscape="http://www.inkscape.org/namespaces/inkscape"
   xmlns:sodipodi="http://sodipodi.sourceforge.net/DTD/sodipodi-0.dtd"
   xmlns="http://www.w3.org/2000/svg"
   xmlns:svg="http://www.w3.org/2000/svg">
  <sodipodi:namedview
     id="namedview6"
     pagecolor="#ffffff"
     bordercolor="#666666"
     borderopacity="1.0"
     inkscape:pageshadow="2"
     inkscape:pageopacity="0.0"
     inkscape:pagecheckerboard="0"
     showgrid="false"
     inkscape:zoom="3.895"
     inkscape:cx="112.45186"
     inkscape:cy="138.51091"
     inkscape:window-width="2400"
     inkscape:window-height="1271"
     inkscape:window-x="2391"
     inkscape:window-y="-9"
     inkscape:window-maximized="1"
     inkscape:current-layer="svg5" />
  <defs
     id="defs2" />
  <g
     id="layer2"
     style="display:inline">
    <path
       style="fill:#282cd9;fill-opacity:1;stroke:#282cd9;stroke-width:0.3;stroke-miterlimit:4;stroke-dasharray:none;stroke-opacity:1"
       d="M 23.7953,47.435142 C 9.6668258,45.302942 1.5137458,30.623702 7.3882328,17.894982 c 1.130712,-2.45001 2.234354,-4.03733 4.1139642,-5.91694 2.213808,-2.2138099 6.12713,-4.7817599 6.461787,-4.2402699 0.08351,0.13512 -0.59434,0.63436 -1.506339,1.10941 -1.115947,0.58129 -2.480117,1.6902799 -4.17172,3.3913699 -4.1864592,4.20994 -6.1133962,8.69386 -6.1460212,14.3016 -0.03162,5.43464 1.844131,10.17669 5.5788812,14.10389 7.576771,7.9672 20.489656,8.32336 28.627036,0.78958 4.241929,-3.92728 6.369102,-8.70808 6.391264,-14.36431 0.01378,-3.51982 -0.550328,-6.03704 -2.045658,-9.12812 -3.188084,-6.59029 -9.350518,-10.8677299 -16.530502,-11.4740899 -1.51302,-0.12777 -1.984375,-0.26185 -1.984375,-0.56445 0,-0.51434 1.565299,-0.41838 4.577648,0.28062 7.940662,1.84258 14.19488,7.9691399 16.10323,15.7745399 0.705302,2.88479 0.577815,7.31627 -0.295101,10.25782 -2.232572,7.52331 -8.031884,13.14384 -15.29494,14.82343 -2.219214,0.51319 -5.532361,0.68882 -7.472087,0.39608 z m -0.304833,-7.7769 c -4.753216,-1.15296 -8.593124,-5.11329 -9.589238,-9.88997 -1.100051,-5.27509 1.155995,-10.5021 5.851538,-13.55737 2.154709,-1.40202 4.337083,-1.93232 7.400672,-1.79833 2.181453,0.0954 2.725655,0.22463 4.505449,1.06985 6.70609,3.18471 9.346171,10.6558 6.130899,17.34966 -2.520019,5.24641 -8.683003,8.18847 -14.29932,6.82616 z m -0.09204,-11.3983 v -4.36563 H 21.943219 20.48801 v 4.36563 4.36562 h 1.455209 1.455208 z m 4.233333,1.54219 c 0,-2.25595 0.08801,-2.9207 0.437883,-3.3073 0.536964,-0.59333 0.98248,-0.61319 1.527593,-0.0681 0.32725,0.32725 0.415774,1.03142 0.415774,3.3073 v 2.89151 h 1.455209 1.455208 l -0.0039,-3.24114 c -0.0042,-3.50992 -0.184168,-4.16154 -1.398108,-5.06289 -0.889392,-0.66036 -2.5209,-0.69145 -3.475125,-0.0662 -0.590846,0.38714 -0.677455,0.38877 -0.885721,0.0166 -0.167474,-0.29926 -0.552104,-0.38954 -1.401181,-0.32889 l -1.17035,0.0836 -0.07353,3.95713 c -0.04044,2.17642 -0.01441,4.11118 0.05784,4.29948 0.08557,0.22299 0.641651,0.34235 1.594887,0.34235 h 1.463511 z m -4.745105,-6.97546 c 0.751351,-0.40211 0.679926,-1.7204 -0.12167,-2.24562 -1.41088,-0.92445 -3.046355,0.51906 -2.145613,1.89377 0.441106,0.67321 1.391291,0.82067 2.267283,0.35185 z"
       id="path836" />
  </g>
  <circle
     style="fill:#282cd9;stroke-width:0.250817;paint-order:fill markers stroke;stop-color:#000000;fill-opacity:1"
     id="path1164"
     cx="26.390406"
     cy="27.613125"
     r="9.9515934" />
  <path
     style="fill:#ffffff;stroke-width:0.0601871"
     d="m 19.144134,34.080045 c 0.02129,-0.08483 0.247376,-0.915034 0.502413,-1.844901 l 0.463704,-1.690668 -0.203724,-0.40858 c -0.968298,-1.941975 -0.985903,-4.272525 -0.04709,-6.23358 0.385589,-0.805441 0.762754,-1.342569 1.381984,-1.968106 3.197747,-3.230318 8.503097,-2.717765 11.022411,1.064883 1.853187,2.782483 1.531906,6.447946 -0.778343,8.880038 -1.707933,1.79801 -4.259669,2.589838 -6.662935,2.067574 -0.539124,-0.117159 -1.316742,-0.383101 -1.706962,-0.583773 l -0.23238,-0.119501 -0.850989,0.222781 c -0.468044,0.122529 -1.318048,0.34547 -1.888896,0.495424 l -1.037905,0.272644 z m 8.025718,-1.246069 c 2.538472,-0.387052 4.473735,-2.250898 5.001946,-4.817358 0.106742,-0.518639 0.08872,-1.709245 -0.03463,-2.287111 -0.295894,-1.386225 -1.111309,-2.662422 -2.258893,-3.535368 -0.530018,-0.403175 -1.479275,-0.856319 -2.136642,-1.019964 -0.785061,-0.195431 -2.132411,-0.195165 -2.854766,5.69e-4 -2.16949,0.587849 -3.758179,2.170637 -4.351468,4.335299 -0.102654,0.374542 -0.126759,0.639487 -0.129483,1.42321 -0.0042,1.191275 0.102285,1.650435 0.631272,2.723554 l 0.363486,0.73738 -0.282226,1.02613 c -0.155225,0.564373 -0.266206,1.042152 -0.246624,1.061734 0.01958,0.01958 0.512971,-0.09109 1.096421,-0.24593 l 1.060818,-0.281532 0.610859,0.30119 c 1.185446,0.584496 2.295811,0.766373 3.529934,0.5782 z M 27.631756,30.3313 c -0.462586,-0.115871 -1.483414,-0.55011 -1.85551,-0.789296 -0.943622,-0.606567 -1.789194,-1.457991 -2.462596,-2.479641 -0.658911,-0.999668 -0.796543,-1.835116 -0.426232,-2.587322 0.104982,-0.213249 0.299028,-0.485434 0.431215,-0.604857 0.223083,-0.201541 0.267886,-0.217132 0.624012,-0.217132 0.245872,0 0.40754,0.02876 0.450126,0.08007 0.08636,0.104058 0.730719,1.65605 0.730719,1.759998 0,0.04375 -0.135421,0.25846 -0.300936,0.477135 -0.165514,0.218675 -0.300936,0.431481 -0.300936,0.472902 0,0.232876 0.713726,1.106516 1.266219,1.549921 0.442936,0.35548 1.321944,0.811808 1.460982,0.758455 0.05215,-0.02002 0.264057,-0.242584 0.470899,-0.4946 0.307645,-0.374834 0.399994,-0.45221 0.507509,-0.425226 0.07229,0.01814 0.480116,0.202591 0.906284,0.409884 0.740702,0.360285 0.77569,0.385574 0.793808,0.573757 0.01043,0.108274 -0.02321,0.341914 -0.07475,0.519199 -0.108619,0.373638 -0.423094,0.697408 -0.869733,0.895443 -0.316465,0.140316 -0.992865,0.191036 -1.351076,0.101309 z"
     id="path3560" />
</svg>
