<?xml version="1.0" encoding="UTF-8" standalone="no"?>
<!-- Created with Inkscape (http://www.inkscape.org/) -->

<svg
   width="200"
   height="200"
   viewBox="0 0 52.916665 52.916668"
   version="1.1"
   id="svg5"
   xmlns="http://www.w3.org/2000/svg"
   xmlns:svg="http://www.w3.org/2000/svg">
  <defs
     id="defs2" />
  <g
     id="layer1">
    <path
       d="M 23.864939,47.316228 C 9.7364694,45.184028 1.5833894,30.50479 7.4578694,17.77607 c 1.13072,-2.45001 2.23436,-4.03733 4.1139696,-5.91694 2.21381,-2.21381 6.12713,-4.78176 6.46179,-4.24027 0.0835,0.13512 -0.59434,0.63436 -1.50634,1.10941 -1.11595,0.58129 -2.48012,1.69028 -4.17172,3.39137 -4.1864596,4.20994 -6.1133996,8.69386 -6.1460196,14.3016 -0.0316,5.43464 1.84413,10.176688 5.5788796,14.103888 7.57677,7.9672 20.48965,8.32336 28.62703,0.78958 4.24193,-3.92728 6.36911,-8.708078 6.39127,-14.364308 0.0138,-3.51982 -0.55033,-6.03704 -2.04566,-9.12812 -3.18808,-6.59029 -9.35052,-10.86773 -16.5305,-11.47409 -1.51302,-0.12777 -1.98438,-0.26185 -1.98438,-0.56445 0,-0.51434 1.5653,-0.41838 4.57765,0.28062 7.94066,1.84258 14.19488,7.96914 16.10323,15.77454 0.7053,2.88479 0.57782,7.31627 -0.2951,10.25782 -2.23257,7.523308 -8.03188,13.143838 -15.29494,14.823428 -2.21921,0.51319 -5.53236,0.68882 -7.47209,0.39608 z m -1.95089,-8.31959 c -5.62003,-2.08693 -9.05567,-7.369728 -8.69456,-13.369148 0.39211,-6.51444 5.02112,-11.49341 11.61223,-12.49015 6.93488,-1.04873 13.76683,4.28606 14.81859,11.57123 0.89278,6.18394 -2.97066,12.368558 -8.99401,14.397678 -0.88841,0.29928 -1.67858,0.54415 -1.75593,0.54415 -0.0773,0 -0.14064,-2.08359 -0.14064,-4.630208 v -4.6302 h 1.56034 1.56034 l 0.29175,-1.67532 c 0.16046,-0.92143 0.29174,-1.8144 0.29174,-1.98438 0,-0.20625 -0.61607,-0.30905 -1.85208,-0.30905 h -1.85209 v -1.71979 c 0,-2.27245 0.45972,-2.77813 2.52563,-2.77813 h 1.4673 l -0.0782,-1.78594 -0.0782,-1.78593 -2.51354,-0.0668 c -2.19396,-0.0583 -2.6481,0.009 -3.57187,0.53025 -1.62117,0.91455 -2.24896,2.38876 -2.24896,5.28113 v 2.32519 h -1.71979 -1.7198 v 1.98437 1.98438 h 1.7198 1.71979 v 4.6302 c 0,3.535128 -0.0782,4.626948 -0.33073,4.616428 -0.1819,-0.008 -1.08957,-0.29558 -2.01704,-0.63998 z"
       style="fill:#282cd9;fill-opacity:1;stroke:#282cd9;stroke-width:0.3;stroke-miterlimit:4;stroke-dasharray:none;stroke-opacity:1"
       id="path881" />
  </g>  
</svg>
