<?xml version="1.0" encoding="UTF-8" standalone="no"?>
<!-- Created with Inkscape (http://www.inkscape.org/) -->

<svg
   width="200"
   height="200"
   viewBox="0 0 52.916665 52.916668"
   version="1.1"
   id="svg5"
   sodipodi:docname="icon_email.svg"
   inkscape:version="1.1 (c68e22c387, 2021-05-23)"
   xmlns:inkscape="http://www.inkscape.org/namespaces/inkscape"
   xmlns:sodipodi="http://sodipodi.sourceforge.net/DTD/sodipodi-0.dtd"
   xmlns="http://www.w3.org/2000/svg"
   xmlns:svg="http://www.w3.org/2000/svg">
  <sodipodi:namedview
     id="namedview6"
     pagecolor="#ffffff"
     bordercolor="#666666"
     borderopacity="1.0"
     inkscape:pageshadow="2"
     inkscape:pageopacity="0.0"
     inkscape:pagecheckerboard="0"
     showgrid="false"
     inkscape:zoom="3.895"
     inkscape:cx="99.87163"
     inkscape:cy="38.382542"
     inkscape:window-width="2400"
     inkscape:window-height="1271"
     inkscape:window-x="2391"
     inkscape:window-y="-9"
     inkscape:window-maximized="1"
     inkscape:current-layer="svg5" />
  <defs
     id="defs2" />
  <g
     id="layer2"
     style="display:inline">
    <path
       style="fill:#282cd9;fill-opacity:1;stroke:#282cd9;stroke-width:0.3;stroke-miterlimit:4;stroke-dasharray:none;stroke-opacity:1"
       d="M 23.7953,47.435142 C 9.6668258,45.302942 1.5137458,30.623702 7.3882328,17.894982 c 1.130712,-2.45001 2.234354,-4.03733 4.1139642,-5.91694 2.213808,-2.2138099 6.12713,-4.7817599 6.461787,-4.2402699 0.08351,0.13512 -0.59434,0.63436 -1.506339,1.10941 -1.115947,0.58129 -2.480117,1.6902799 -4.17172,3.3913699 -4.1864592,4.20994 -6.1133962,8.69386 -6.1460212,14.3016 -0.03162,5.43464 1.844131,10.17669 5.5788812,14.10389 7.576771,7.9672 20.489656,8.32336 28.627036,0.78958 4.241929,-3.92728 6.369102,-8.70808 6.391264,-14.36431 0.01378,-3.51982 -0.550328,-6.03704 -2.045658,-9.12812 -3.188084,-6.59029 -9.350518,-10.8677299 -16.530502,-11.4740899 -1.51302,-0.12777 -1.984375,-0.26185 -1.984375,-0.56445 0,-0.51434 1.565299,-0.41838 4.577648,0.28062 7.940662,1.84258 14.19488,7.9691399 16.10323,15.7745399 0.705302,2.88479 0.577815,7.31627 -0.295101,10.25782 -2.232572,7.52331 -8.031884,13.14384 -15.29494,14.82343 -2.219214,0.51319 -5.532361,0.68882 -7.472087,0.39608 z m -0.304833,-7.7769 c -4.753216,-1.15296 -8.593124,-5.11329 -9.589238,-9.88997 -1.100051,-5.27509 1.155995,-10.5021 5.851538,-13.55737 2.154709,-1.40202 4.337083,-1.93232 7.400672,-1.79833 2.181453,0.0954 2.725655,0.22463 4.505449,1.06985 6.70609,3.18471 9.346171,10.6558 6.130899,17.34966 -2.520019,5.24641 -8.683003,8.18847 -14.29932,6.82616 z m -0.09204,-11.3983 v -4.36563 H 21.943219 20.48801 v 4.36563 4.36562 h 1.455209 1.455208 z m 4.233333,1.54219 c 0,-2.25595 0.08801,-2.9207 0.437883,-3.3073 0.536964,-0.59333 0.98248,-0.61319 1.527593,-0.0681 0.32725,0.32725 0.415774,1.03142 0.415774,3.3073 v 2.89151 h 1.455209 1.455208 l -0.0039,-3.24114 c -0.0042,-3.50992 -0.184168,-4.16154 -1.398108,-5.06289 -0.889392,-0.66036 -2.5209,-0.69145 -3.475125,-0.0662 -0.590846,0.38714 -0.677455,0.38877 -0.885721,0.0166 -0.167474,-0.29926 -0.552104,-0.38954 -1.401181,-0.32889 l -1.17035,0.0836 -0.07353,3.95713 c -0.04044,2.17642 -0.01441,4.11118 0.05784,4.29948 0.08557,0.22299 0.641651,0.34235 1.594887,0.34235 h 1.463511 z m -4.745105,-6.97546 c 0.751351,-0.40211 0.679926,-1.7204 -0.12167,-2.24562 -1.41088,-0.92445 -3.046355,0.51906 -2.145613,1.89377 0.441106,0.67321 1.391291,0.82067 2.267283,0.35185 z"
       id="path836" />
  </g>
  <circle
     style="fill:#282cd9;stroke-width:0.250817;paint-order:fill markers stroke;stop-color:#000000;fill-opacity:1"
     id="path1164"
     cx="26.390406"
     cy="27.613125"
     r="9.9515934" />
  <g
     id="g853"
     transform="translate(-0.33964484,0.61136072)">
    <path
       id="rect957"
       style="fill:#ffffff;stroke-width:0.22;paint-order:fill markers stroke;stop-color:#000000"
       d="m 28.747741,27.292722 -0.696598,0.611849 c -0.05757,0.05055 -0.114703,0.09783 -0.171566,0.14211 -0.05686,0.04428 -0.113728,0.08549 -0.170015,0.123507 -0.05629,0.03802 -0.112103,0.07315 -0.167949,0.104903 -0.05585,0.03175 -0.111891,0.06029 -0.167431,0.08578 -0.05554,0.02549 -0.110513,0.04795 -0.165882,0.06718 -0.05537,0.01923 -0.111065,0.03509 -0.166398,0.04806 -0.05533,0.01297 -0.110449,0.02275 -0.165881,0.02946 -0.05543,0.0067 -0.111249,0.0104 -0.166915,0.01085 -0.05567,4.48e-4 -0.111397,-0.0025 -0.167432,-0.0083 -0.05603,-0.0058 -0.111926,-0.0148 -0.168465,-0.02687 -0.05654,-0.01207 -0.113355,-0.02715 -0.170532,-0.04548 -0.05718,-0.01832 -0.115165,-0.0395 -0.173116,-0.06408 -0.05795,-0.02458 -0.116323,-0.05237 -0.175183,-0.0832 -0.05886,-0.03083 -0.117864,-0.06472 -0.177767,-0.101803 -0.0599,-0.03708 -0.120302,-0.07759 -0.181384,-0.120923 -0.06108,-0.04333 -0.123123,-0.08942 -0.185519,-0.139009 -0.0897,-0.07128 -0.168772,-0.133955 -0.239262,-0.188102 -0.07049,-0.05415 -0.13225,-0.100103 -0.187585,-0.137977 -0.05534,-0.03787 -0.104077,-0.06797 -0.148312,-0.09043 -0.02212,-0.01123 -0.04294,-0.02037 -0.06305,-0.02791 -0.0201,-0.0075 -0.03928,-0.0131 -0.05788,-0.01705 -0.01859,-0.004 -0.03667,-0.0062 -0.05426,-0.0067 -0.01759,-4.83e-4 -0.0351,7.33e-4 -0.05219,0.0036 -0.0171,0.0029 -0.03405,0.0073 -0.05116,0.01344 -0.01711,0.0061 -0.03405,0.01396 -0.05168,0.02325 -0.03525,0.01859 -0.07229,0.04335 -0.112655,0.0739 -0.04037,0.03055 -0.08431,0.06687 -0.133842,0.108521 -0.118134,0.09933 -0.266715,0.231222 -0.436149,0.386023 -0.169433,0.1548 -0.359348,0.332476 -0.561206,0.523999 -0.201857,0.191522 -0.415564,0.396673 -0.630969,0.606164 -0.215405,0.209491 -0.432779,0.423297 -0.642855,0.632003 -0.210076,0.208706 -0.412542,0.412345 -0.598413,0.601514 -0.185871,0.189168 -0.354854,0.363819 -0.497644,0.514697 -0.14279,0.150878 -0.259714,0.278236 -0.340547,0.37207 -0.04042,0.04692 -0.07163,0.08558 -0.09302,0.114722 -0.02139,0.02914 -0.03307,0.04834 -0.03307,0.05736 0,0.0054 0.01126,0.01077 0.03307,0.01602 0.02181,0.0053 0.05461,0.01042 0.09715,0.0155 0.08507,0.01018 0.2101,0.02009 0.371553,0.02946 0.161453,0.0094 0.358939,0.01853 0.588078,0.02687 0.229139,0.0083 0.490115,0.01615 0.778247,0.02325 0.576263,0.0142 1.262027,0.02563 2.022099,0.03359 0.760071,0.008 1.594252,0.0124 2.468583,0.0124 0.87433,0 1.709029,-0.0046 2.4691,-0.01292 0.760071,-0.0083 1.445835,-0.02035 2.022099,-0.03514 0.288131,-0.0074 0.549107,-0.0156 0.778247,-0.02429 0.229139,-0.0087 0.426108,-0.01815 0.587561,-0.02791 0.161453,-0.0098 0.286997,-0.01989 0.37207,-0.03049 0.04254,-0.0053 0.07534,-0.01055 0.09715,-0.01602 0.02181,-0.0055 0.03256,-0.01093 0.03256,-0.01654 0,-0.01122 -0.0069,-0.02928 -0.02067,-0.05271 -0.01374,-0.02343 -0.03386,-0.05219 -0.05994,-0.0863 -0.05216,-0.06822 -0.12757,-0.156666 -0.220659,-0.258382 -0.09309,-0.101716 -0.203814,-0.217094 -0.326595,-0.340031 -0.122781,-0.122937 -0.257704,-0.253106 -0.398942,-0.38499 -0.564952,-0.527532 -1.531256,-1.433779 -2.147156,-2.01383 z" />
    <path
       id="path1059"
       style="fill:#ffffff;stroke-width:0.22;paint-order:fill markers stroke;stop-color:#000000"
       d="m 28.747741,27.292722 1.119828,1.054716 c 0.6159,0.580051 1.582204,1.486298 2.147156,2.01383 0.141238,0.131884 0.276161,0.262053 0.398942,0.38499 0.122781,0.122937 0.233506,0.238315 0.326595,0.340031 0.09309,0.101716 0.168497,0.190163 0.220659,0.258382 0.02608,0.03411 0.0462,0.06287 0.05994,0.0863 0.01374,0.02343 0.02067,0.04149 0.02067,0.05271 0,0.0056 -0.01075,0.01107 -0.03256,0.01654 -0.02181,0.0055 -0.05461,0.01072 -0.09715,0.01602 -0.08507,0.0106 -0.210617,0.02073 -0.37207,0.03049 -0.161453,0.0098 -0.358422,0.01922 -0.587561,0.02791 -0.22914,0.0087 -0.490116,0.01689 -0.778247,0.02429 -0.576264,0.01479 -1.262028,0.02685 -2.022099,0.03514 -0.760071,0.0083 -1.59477,0.01292 -2.4691,0.01292 -0.874331,0 -1.708512,-0.0044 -2.468583,-0.0124 -0.760072,-0.008 -1.445836,-0.01939 -2.022099,-0.03359 -0.288132,-0.0071 -0.549108,-0.01492 -0.778247,-0.02325 -0.229139,-0.0083 -0.426625,-0.01751 -0.588078,-0.02687 -0.161453,-0.0094 -0.28648,-0.01928 -0.371553,-0.02946 -0.04254,-0.0051 -0.07534,-0.01025 -0.09715,-0.0155 -0.02181,-0.0052 -0.03307,-0.01063 -0.03307,-0.01602 0,-0.009 0.01168,-0.02822 0.03307,-0.05736 0.02139,-0.02914 0.0526,-0.0678 0.09302,-0.114722 0.08083,-0.09383 0.197757,-0.221192 0.340547,-0.37207 0.14279,-0.150878 0.311773,-0.325529 0.497644,-0.514697 0.185871,-0.189169 0.388337,-0.392808 0.598413,-0.601514 0.210076,-0.208706 0.42745,-0.422512 0.642855,-0.632003 0.215405,-0.209491 0.429112,-0.414642 0.630969,-0.606164 0.201858,-0.191523 0.391773,-0.369199 0.561206,-0.523999 0.169434,-0.154801 0.318015,-0.286697 0.436149,-0.386023 0.04953,-0.04165 0.09348,-0.07797 0.133842,-0.108521 0.04037,-0.03055 0.0774,-0.05531 0.112655,-0.0739 0.01763,-0.0093 0.03457,-0.01711 0.05168,-0.02325 0.01711,-0.0061 0.03406,-0.01055 0.05116,-0.01344 0.0171,-0.0029 0.0346,-0.0041 0.05219,-0.0036 0.01759,4.83e-4 0.03567,0.0028 0.05426,0.0067 0.01859,0.004 0.03777,0.0095 0.05788,0.01705 0.0201,0.0075 0.04093,0.01667 0.06305,0.02791 0.04424,0.02246 0.09298,0.05256 0.148312,0.09043 0.05534,0.03787 0.117095,0.08383 0.187585,0.137977 0.07049,0.05415 0.149564,0.116818 0.239262,0.188102 0.0624,0.04959 0.124436,0.09567 0.185519,0.139009 0.06108,0.04334 0.12148,0.08384 0.181384,0.120923 0.0599,0.03708 0.118907,0.07097 0.177767,0.101803 0.05886,0.03083 0.117232,0.05862 0.175183,0.0832 0.05795,0.02458 0.115939,0.04576 0.173116,0.06408 0.05718,0.01832 0.113994,0.03341 0.170532,0.04548 0.05654,0.01207 0.112431,0.02106 0.168465,0.02687 0.05603,0.0058 0.111766,0.0087 0.167432,0.0083 0.05567,-4.48e-4 0.111483,-0.0041 0.166915,-0.01085 0.05543,-0.0067 0.110548,-0.01649 0.165881,-0.02946 0.05533,-0.01297 0.111029,-0.02883 0.166398,-0.04806 0.05537,-0.01923 0.110342,-0.04169 0.165882,-0.06718 0.05554,-0.02549 0.111585,-0.05403 0.167431,-0.08578 0.05585,-0.03175 0.111662,-0.06688 0.167949,-0.104903 0.05629,-0.03802 0.113152,-0.07922 0.170015,-0.123507 0.05686,-0.04428 0.113992,-0.09156 0.171566,-0.14211 z" />
    <path
       id="path1057"
       style="fill:#ffffff;stroke-width:0.22;paint-order:fill markers stroke;stop-color:#000000"
       d="m 19.363818,22.881105 c -0.0093,-0.0031 -0.01871,-0.0015 -0.02739,0.0052 -0.0087,0.0066 -0.01678,0.01805 -0.02481,0.03462 -0.008,0.01657 -0.01587,0.03789 -0.02325,0.0646 -0.0074,0.02671 -0.01443,0.05856 -0.02119,0.0956 -0.01351,0.07408 -0.02565,0.169186 -0.03669,0.28577 -0.01104,0.116585 -0.02079,0.254822 -0.02946,0.415479 -0.0087,0.160657 -0.01637,0.34354 -0.02274,0.549837 -0.0064,0.206297 -0.01134,0.435859 -0.0155,0.689364 -0.0083,0.50701 -0.0124,1.110145 -0.0124,1.815393 0,0.553742 0.0043,1.08235 0.0124,1.563729 0.0081,0.481378 0.02016,0.915575 0.03462,1.280542 0.0072,0.182483 0.01476,0.347871 0.02325,0.492993 0.0085,0.145121 0.01785,0.269816 0.02739,0.37207 0.0095,0.102254 0.01961,0.181765 0.02997,0.235645 0.0052,0.02694 0.01016,0.04768 0.0155,0.06149 0.0053,0.01381 0.01105,0.02067 0.01654,0.02067 0.01097,0 0.03608,-0.01341 0.07441,-0.03876 0.03833,-0.02534 0.08983,-0.06249 0.152446,-0.110588 0.125229,-0.09619 0.295803,-0.235545 0.499711,-0.40721 0.203908,-0.171665 0.441204,-0.37561 0.699182,-0.602031 0.257979,-0.22642 0.5368,-0.474898 0.824239,-0.735355 0.143719,-0.130229 0.284009,-0.259937 0.419613,-0.387057 0.135604,-0.127119 0.266544,-0.252101 0.391191,-0.373103 0.124646,-0.121002 0.243137,-0.237975 0.353983,-0.34985 0.110847,-0.111874 0.213787,-0.218589 0.307992,-0.318327 0.0942,-0.09974 0.179528,-0.192393 0.254248,-0.276985 0.07472,-0.08459 0.13881,-0.16094 0.191202,-0.227377 0.05239,-0.06644 0.09318,-0.123193 0.120406,-0.168465 0.01361,-0.02264 0.0237,-0.04213 0.03049,-0.05891 0.0068,-0.01678 0.01021,-0.03079 0.0098,-0.04134 -3.31e-4,-0.0089 -0.0044,-0.02079 -0.01189,-0.03566 -0.0075,-0.01487 -0.01834,-0.03278 -0.03256,-0.05323 -0.02844,-0.0409 -0.07024,-0.09262 -0.12299,-0.153479 -0.05276,-0.06086 -0.116559,-0.130576 -0.19017,-0.208257 -0.07361,-0.07768 -0.157042,-0.162895 -0.248047,-0.254247 -0.182009,-0.182705 -0.394976,-0.389724 -0.625801,-0.608232 -0.230826,-0.218508 -0.479265,-0.44886 -0.731222,-0.677995 -0.251957,-0.229135 -0.507521,-0.457208 -0.752925,-0.671794 -0.245405,-0.214586 -0.48078,-0.415284 -0.691948,-0.590145 -0.105584,-0.08743 -0.205305,-0.16855 -0.297139,-0.241328 -0.09183,-0.07278 -0.176007,-0.137257 -0.250631,-0.192237 -0.07462,-0.05498 -0.139317,-0.100325 -0.19327,-0.134358 -0.05395,-0.03403 -0.09679,-0.05672 -0.126607,-0.06666 z" />
    <path
       id="path1055"
       style="fill:#ffffff;stroke-width:0.22;paint-order:fill markers stroke;stop-color:#000000"
       d="m 34.066796,22.842348 c -0.0088,0 -0.02952,0.01078 -0.06149,0.03101 -0.03198,0.02022 -0.0752,0.04969 -0.12764,0.08785 -0.104886,0.07633 -0.24779,0.186526 -0.418063,0.320911 -0.170272,0.134385 -0.367655,0.292981 -0.58136,0.467155 -0.213704,0.174174 -0.443846,0.363961 -0.679028,0.559656 -0.235182,0.195694 -0.475331,0.3974 -0.710034,0.596346 -0.234704,0.198946 -0.463657,0.394847 -0.675928,0.578776 -0.212271,0.183929 -0.407793,0.355786 -0.575675,0.506429 -0.167883,0.150643 -0.308255,0.280216 -0.409795,0.379305 -0.04636,0.04525 -0.08669,0.0854 -0.117305,0.125057 -0.01531,0.01983 -0.0281,0.03982 -0.03824,0.05994 -0.01014,0.02012 -0.01755,0.04047 -0.0217,0.06201 -0.0042,0.02154 -0.0052,0.04413 -0.0026,0.06821 0.0026,0.02408 0.0089,0.04977 0.01912,0.07752 0.01027,0.02775 0.02471,0.05738 0.04341,0.08992 0.0187,0.03254 0.0418,0.068 0.06976,0.106453 0.02796,0.03846 0.06067,0.08007 0.0987,0.125574 0.03803,0.0455 0.0813,0.09464 0.130225,0.148311 0.09785,0.107337 0.218508,0.232029 0.364835,0.378789 0.146327,0.146759 0.318517,0.315894 0.519865,0.51108 0.201348,0.195185 0.431618,0.416597 0.694532,0.669209 0.293962,0.282445 0.581594,0.552406 0.84956,0.798401 0.267967,0.245996 0.516343,0.468278 0.732255,0.655257 0.107956,0.09349 0.208117,0.178193 0.298173,0.252698 0.09006,0.0745 0.170362,0.138504 0.239262,0.191203 0.0689,0.0527 0.126047,0.09388 0.170532,0.121956 0.02224,0.01404 0.04132,0.02469 0.05684,0.03204 0.01553,0.0074 0.02777,0.01157 0.03617,0.01189 0.01175,4.38e-4 0.02285,-0.0032 0.03359,-0.01034 0.01074,-0.0071 0.02124,-0.01826 0.03101,-0.03359 0.0098,-0.01533 0.01907,-0.0348 0.02791,-0.05891 0.0088,-0.02411 0.01687,-0.05281 0.0248,-0.0863 0.01587,-0.06699 0.02988,-0.153388 0.04237,-0.261482 0.01249,-0.108094 0.02366,-0.237722 0.03307,-0.391708 0.0094,-0.153985 0.01715,-0.332257 0.02377,-0.536918 0.0066,-0.204661 0.0119,-0.435444 0.01602,-0.695565 0.0082,-0.52024 0.01188,-1.156229 0.01188,-1.927014 0,-0.551501 -0.0043,-1.078098 -0.01188,-1.557527 -0.0076,-0.47943 -0.01805,-0.911885 -0.03152,-1.275375 -0.0067,-0.181744 -0.01431,-0.346392 -0.02222,-0.490926 -0.0079,-0.144534 -0.01643,-0.269197 -0.02532,-0.371037 -0.0089,-0.101839 -0.01825,-0.180949 -0.0279,-0.234611 -0.0048,-0.02683 -0.0095,-0.04722 -0.01447,-0.06098 -0.005,-0.01376 -0.01039,-0.02067 -0.0155,-0.02067 z" />
    <path
       id="path1053"
       style="fill:#ffffff;stroke-width:0.22;paint-order:fill markers stroke;stop-color:#000000"
       d="m 34.066796,22.842348 c 0.0051,0 0.01052,0.0069 0.0155,0.02067 0.005,0.01376 0.0096,0.03415 0.01447,0.06098 0.0097,0.05366 0.01902,0.132772 0.0279,0.234611 0.0089,0.10184 0.01741,0.226503 0.02532,0.371037 0.0079,0.144534 0.01548,0.309182 0.02222,0.490926 0.01348,0.36349 0.02397,0.795945 0.03152,1.275375 0.0076,0.479429 0.01188,1.006026 0.01188,1.557527 0,0.770785 -0.0036,1.406774 -0.01188,1.927014 -0.0041,0.260121 -0.0094,0.490904 -0.01602,0.695565 -0.0066,0.204661 -0.01436,0.382933 -0.02377,0.536918 -0.0094,0.153986 -0.02058,0.283614 -0.03307,0.391708 -0.01249,0.108094 -0.0265,0.194495 -0.04237,0.261482 -0.0079,0.03349 -0.01597,0.06219 -0.0248,0.0863 -0.0088,0.02411 -0.01814,0.04358 -0.02791,0.05891 -0.0098,0.01533 -0.02026,0.02644 -0.03101,0.03359 -0.01074,0.0071 -0.02184,0.01077 -0.03359,0.01034 -0.0084,-3.12e-4 -0.02065,-0.0045 -0.03617,-0.01189 -0.01553,-0.0074 -0.0346,-0.018 -0.05684,-0.03204 -0.04449,-0.02807 -0.101632,-0.06926 -0.170532,-0.121956 -0.0689,-0.0527 -0.149205,-0.116698 -0.239262,-0.191203 -0.09006,-0.07451 -0.190217,-0.159208 -0.298173,-0.252698 -0.215912,-0.186979 -0.464288,-0.409261 -0.732255,-0.655257 -0.267966,-0.245995 -0.555598,-0.515956 -0.84956,-0.798401 -0.262914,-0.252612 -0.493184,-0.474024 -0.694532,-0.669209 -0.201348,-0.195186 -0.373538,-0.364321 -0.519865,-0.51108 -0.146327,-0.14676 -0.266985,-0.271452 -0.364835,-0.378789 -0.04893,-0.05367 -0.09219,-0.102811 -0.130225,-0.148311 -0.03803,-0.0455 -0.07074,-0.08712 -0.0987,-0.125574 -0.02796,-0.03846 -0.05106,-0.07391 -0.06976,-0.106453 -0.0187,-0.03254 -0.03314,-0.06217 -0.04341,-0.08992 -0.01027,-0.02775 -0.01647,-0.05344 -0.01912,-0.07752 -0.0026,-0.02408 -0.0016,-0.04667 0.0026,-0.06821 0.0042,-0.02154 0.01156,-0.04189 0.0217,-0.06201 0.01014,-0.02012 0.02293,-0.04011 0.03824,-0.05994 0.03061,-0.03966 0.07094,-0.07981 0.117305,-0.125057 0.10154,-0.09909 0.241912,-0.228662 0.409795,-0.379305 0.167882,-0.150643 0.363404,-0.3225 0.575675,-0.506429 0.212271,-0.183929 0.441224,-0.37983 0.675928,-0.578776 0.234703,-0.198946 0.474852,-0.400652 0.710034,-0.596346 0.235182,-0.195695 0.465324,-0.385482 0.679028,-0.559656 0.213705,-0.174174 0.411088,-0.33277 0.58136,-0.467155 0.170273,-0.134385 0.313177,-0.244584 0.418063,-0.320911 0.05244,-0.03816 0.09566,-0.06763 0.12764,-0.08785 0.03198,-0.02022 0.05272,-0.03101 0.06149,-0.03101 z" />
    <path
       id="path1051"
       style="fill:#ffffff;stroke-width:0.22;paint-order:fill markers stroke;stop-color:#000000"
       d="m 26.699287,21.864113 c -0.930377,0 -1.818436,0.0045 -2.627229,0.01292 -0.808794,0.0084 -1.538087,0.0207 -2.15129,0.03566 -0.306602,0.0075 -0.584546,0.0155 -0.828374,0.02429 -0.243827,0.0088 -0.453998,0.01804 -0.625801,0.02791 -0.171803,0.0099 -0.304798,0.02029 -0.395325,0.03101 -0.04526,0.0054 -0.08014,0.01101 -0.103353,0.01654 -0.02321,0.0055 -0.03514,0.01086 -0.03514,0.01654 0,0.01135 0.01149,0.03218 0.03307,0.06098 0.02158,0.0288 0.05361,0.0659 0.09457,0.110071 0.08192,0.08835 0.200036,0.205197 0.346232,0.342614 0.146197,0.137417 0.320319,0.295189 0.513147,0.465088 0.192828,0.169899 0.404504,0.352157 0.626319,0.537952 0.42322,0.354497 0.805814,0.677133 1.1498,0.96945 0.343987,0.292317 0.649226,0.554044 0.917257,0.787032 0.268031,0.232987 0.499177,0.436891 0.694531,0.613399 0.195354,0.176508 0.355152,0.325673 0.481108,0.448551 0.08277,0.08075 0.170645,0.162821 0.261999,0.24443 0.09135,0.08161 0.186053,0.163023 0.281637,0.242362 0.09558,0.07934 0.192377,0.156537 0.287837,0.230477 0.09546,0.07394 0.189619,0.144395 0.280604,0.209807 0.09098,0.06541 0.178811,0.125563 0.260965,0.179317 0.08216,0.05375 0.158405,0.101078 0.227377,0.140043 0.06897,0.03897 0.130466,0.0699 0.181901,0.09095 0.02572,0.01052 0.04925,0.01831 0.06976,0.02377 0.02052,0.0055 0.03794,0.0083 0.05271,0.0083 0.01722,0 0.04358,-0.0077 0.07752,-0.02274 0.03393,-0.01505 0.07552,-0.03706 0.124023,-0.06563 0.0485,-0.02856 0.103926,-0.06385 0.164848,-0.104386 0.06092,-0.04054 0.127243,-0.08648 0.198437,-0.137459 0.14239,-0.101955 0.303282,-0.223127 0.473873,-0.357601 0.170591,-0.134474 0.351176,-0.282494 0.532784,-0.437183 0.659765,-0.561973 1.306678,-1.118738 1.90686,-1.640727 0.600183,-0.521989 1.153241,-1.009173 1.626258,-1.43092 0.236508,-0.210874 0.452877,-0.405295 0.644922,-0.57981 0.192045,-0.174514 0.360061,-0.328779 0.499194,-0.459403 0.139133,-0.130624 0.249854,-0.237576 0.327629,-0.316777 0.03889,-0.0396 0.0695,-0.07234 0.09147,-0.09767 0.02196,-0.02533 0.03529,-0.04311 0.03927,-0.05323 0.0011,-0.0028 -9.17e-4,-0.006 -0.0057,-0.0088 -0.0048,-0.0028 -0.01274,-0.0055 -0.02326,-0.0083 -0.02102,-0.0056 -0.05297,-0.01116 -0.09612,-0.01654 -0.08629,-0.01076 -0.216051,-0.0211 -0.383956,-0.03101 -0.167904,-0.0099 -0.374076,-0.01909 -0.614433,-0.02791 -0.240356,-0.0088 -0.514908,-0.0173 -0.818554,-0.0248 -0.607293,-0.01502 -1.331856,-0.02724 -2.137337,-0.03566 -0.805483,-0.0084 -1.691685,-0.01292 -2.622063,-0.01292 z" />
  </g>
</svg>
