<?xml version="1.0" encoding="UTF-8" standalone="no"?>
<!-- Created with Inkscape (http://www.inkscape.org/) -->

<svg
   width="200"
   height="200"
   viewBox="0 0 52.916665 52.916668"
   version="1.1"
   id="svg5"
   sodipodi:docname="icon_twitter.svg"
   inkscape:version="1.1 (c68e22c387, 2021-05-23)"
   xmlns:inkscape="http://www.inkscape.org/namespaces/inkscape"
   xmlns:sodipodi="http://sodipodi.sourceforge.net/DTD/sodipodi-0.dtd"
   xmlns="http://www.w3.org/2000/svg"
   xmlns:svg="http://www.w3.org/2000/svg">
  <sodipodi:namedview
     id="namedview6"
     pagecolor="#ffffff"
     bordercolor="#666666"
     borderopacity="1.0"
     inkscape:pageshadow="2"
     inkscape:pageopacity="0.0"
     inkscape:pagecheckerboard="0"
     showgrid="false"
     inkscape:zoom="2.7541809"
     inkscape:cx="98.758945"
     inkscape:cy="100.39282"
     inkscape:window-width="2400"
     inkscape:window-height="1271"
     inkscape:window-x="2391"
     inkscape:window-y="-9"
     inkscape:window-maximized="1"
     inkscape:current-layer="svg5" />
  <defs
     id="defs2" />
  <circle
     style="fill:#282cd9;fill-opacity:1;stroke-width:0.304177;stroke-linecap:round;paint-order:fill markers stroke;stop-color:#000000"
     id="path8891"
     cx="26.458334"
     cy="26.458334"
     r="13.30515" />
  <g
     id="layer3">
    <path
       d="M 23.864945,47.316229 C 9.7364649,45.184029 1.5833849,30.504789 7.4578749,17.776069 c 1.13071,-2.45001 2.23435,-4.03733 4.1139601,-5.91694 2.21381,-2.21381 6.12713,-4.78176 6.46179,-4.24027 0.0835,0.13512 -0.59434,0.63436 -1.50634,1.10941 -1.11595,0.58129 -2.48012,1.69028 -4.17172,3.39137 -4.1864601,4.20994 -6.1134001,8.69386 -6.1460201,14.3016 -0.0316,5.43464 1.84413,10.17669 5.5788801,14.10389 7.57677,7.9672 20.48966,8.32336 28.62704,0.78958 4.24193,-3.92728 6.3691,-8.70808 6.39126,-14.36431 0.0138,-3.51982 -0.55033,-6.03704 -2.04566,-9.12812 -3.18808,-6.59029 -9.35052,-10.86773 -16.5305,-11.47409 -1.51302,-0.12777 -1.98437,-0.26185 -1.98437,-0.56445 0,-0.51434 1.56529,-0.41838 4.57764,0.28062 7.94067,1.84258 14.19488,7.96914 16.10323,15.77454 0.70531,2.88479 0.57782,7.31627 -0.2951,10.25782 -2.23257,7.52331 -8.03188,13.14384 -15.29494,14.82343 -2.21921,0.51319 -5.53236,0.68882 -7.47208,0.39608 z"
       style="fill:#282cd9;fill-opacity:1;stroke:#282cd9;stroke-width:0.3;stroke-miterlimit:4;stroke-dasharray:none;stroke-opacity:1"
       id="path1113"
       sodipodi:nodetypes="ccsccccsssccscsssc" />
  </g>
  <path
     style="fill:#ffffff;fill-opacity:1;stroke-width:0.00758303"
     d="m 19.190399,33.891623 c 1.7e-5,-0.0032 0.01811,-0.02616 0.0402,-0.05119 0.02209,-0.02502 0.135479,-0.156401 0.251971,-0.291948 0.116489,-0.135546 0.274988,-0.319859 0.352218,-0.409584 0.07723,-0.08972 0.231343,-0.268874 0.34247,-0.398111 0.111129,-0.129235 0.322696,-0.375181 0.470149,-0.546547 0.147454,-0.171366 0.399956,-0.46483 0.561116,-0.652142 0.16116,-0.187313 0.382641,-0.444647 0.492182,-0.571852 0.109538,-0.127206 0.298933,-0.347304 0.420873,-0.489106 0.121942,-0.141804 0.289281,-0.336309 0.371866,-0.432234 0.08259,-0.09592 0.232379,-0.269957 0.332876,-0.386736 0.100503,-0.116778 0.276425,-0.321206 0.390948,-0.454283 0.114525,-0.133076 0.308393,-0.358293 0.43082,-0.50048 0.122428,-0.142189 0.31207,-0.362602 0.421428,-0.489807 0.184598,-0.214725 0.338444,-0.3934 0.65946,-0.765889 0.07008,-0.08133 0.129108,-0.151981 0.131152,-0.157006 0.0038,-0.0093 -0.06207,-0.10597 -1.102366,-1.619305 -0.916308,-1.332976 -1.67902,-2.44284 -3.490179,-5.078763 -0.560244,-0.815368 -1.033689,-1.503813 -1.0521,-1.52988 l -0.03347,-0.0474 h 2.167831 2.167832 l 0.129039,0.18768 c 0.17622,0.256298 1.744304,2.538102 2.573017,3.744131 1.010215,1.470171 1.055259,1.535565 1.057658,1.535565 0.0012,0 0.08197,-0.09281 0.179456,-0.206245 0.09749,-0.113435 0.255244,-0.296852 0.350581,-0.407589 0.09534,-0.110738 0.303977,-0.353192 0.463645,-0.538789 0.38377,-0.446092 0.644867,-0.749493 1.168095,-1.357364 0.238732,-0.277352 0.574962,-0.668068 0.747178,-0.86826 0.172217,-0.200192 0.395411,-0.459532 0.495986,-0.576311 0.187715,-0.21796 0.514133,-0.597415 0.814785,-0.947174 0.09355,-0.108826 0.241428,-0.280617 0.328626,-0.381754 l 0.158539,-0.18389 h 0.641432 0.641431 l -0.01525,0.01705 c -0.0084,0.0094 -0.09869,0.114314 -0.200669,0.233178 -0.101975,0.118865 -0.24852,0.289484 -0.325644,0.379154 -0.07713,0.08967 -0.225289,0.261993 -0.329254,0.382944 -0.103965,0.120949 -0.240506,0.279624 -0.303425,0.35261 -0.175288,0.203342 -0.79088,0.91872 -1.145497,1.331182 -0.246237,0.286403 -0.641806,0.746165 -0.818491,0.951316 -0.06286,0.07299 -0.189117,0.219719 -0.280572,0.326071 -0.09146,0.106353 -0.217723,0.253084 -0.280594,0.326071 -0.122053,0.14169 -0.56784,0.659592 -0.842071,0.978292 -0.09154,0.106397 -0.238115,0.276707 -0.325698,0.378469 -0.08759,0.101758 -0.247272,0.287382 -0.354863,0.41249 -0.107589,0.125109 -0.194162,0.231201 -0.192381,0.23576 0.0017,0.0045 0.06785,0.102129 0.146824,0.216823 0.07897,0.114692 0.455336,0.662379 0.836361,1.217079 0.381025,0.554699 0.735687,1.070708 0.788141,1.146685 0.08312,0.120395 0.781639,1.136758 0.91847,1.336389 0.0273,0.03984 0.147025,0.214026 0.266057,0.387108 0.168754,0.245376 0.916838,1.333825 1.542795,2.244733 0.0866,0.126014 0.250704,0.364783 0.850562,1.237522 0.292988,0.426273 0.532709,0.777732 0.532709,0.781021 0,0.0033 -0.973485,0.006 -2.163299,0.006 h -2.163306 l -0.342422,-0.498586 c -0.404516,-0.589 -0.943275,-1.373024 -1.173743,-1.708082 -0.172824,-0.251252 -1.753854,-2.551668 -2.192762,-3.19049 -0.141095,-0.205362 -0.259951,-0.373179 -0.264121,-0.372925 -0.0041,2.5e-4 -0.04563,0.04542 -0.09212,0.1004 -0.04649,0.05497 -0.133118,0.15624 -0.192495,0.225056 -0.05938,0.06882 -0.22826,0.265028 -0.375295,0.436025 -0.147037,0.170998 -0.333461,0.387684 -0.414278,0.481524 -0.08081,0.09384 -0.242302,0.281519 -0.358857,0.417067 -0.321475,0.373858 -0.759239,0.882657 -0.887307,1.031294 -0.06289,0.07299 -0.242117,0.281143 -0.398288,0.462567 -0.156172,0.181423 -0.348591,0.404935 -0.427601,0.49669 -0.07901,0.09176 -0.233112,0.270904 -0.342453,0.398109 -0.10934,0.127206 -0.264927,0.308062 -0.34575,0.401902 -0.08082,0.09384 -0.262813,0.305406 -0.404425,0.470148 -0.141611,0.164742 -0.303118,0.352423 -0.358902,0.417069 -0.05579,0.06465 -0.16166,0.188124 -0.235276,0.274396 l -0.13385,0.156861 -0.638871,4.85e-4 c -0.351379,2.71e-4 -0.638857,-0.0021 -0.638837,-0.0053 z M 31.977407,32.9627 c -0.0041,-0.0053 -0.118228,-0.168154 -0.253662,-0.36209 -0.135433,-0.193936 -0.440748,-0.630719 -0.67848,-0.97063 -0.237731,-0.339911 -0.567012,-0.810818 -0.731732,-1.046462 -0.460838,-0.659253 -0.912642,-1.305391 -1.41573,-2.024672 -0.252329,-0.360764 -0.593566,-0.848733 -0.758302,-1.084377 -0.297586,-0.425676 -0.681975,-0.97543 -1.357323,-1.941258 -0.193936,-0.277351 -0.486231,-0.695367 -0.649544,-0.928925 -0.163313,-0.233557 -0.479479,-0.685697 -0.702592,-1.004753 -0.223114,-0.319057 -0.529694,-0.757547 -0.68129,-0.974422 -0.151598,-0.216875 -0.457015,-0.653658 -0.678706,-0.97063 -0.221689,-0.316971 -0.562757,-0.80494 -0.757927,-1.084377 -0.195171,-0.279435 -0.368193,-0.525978 -0.384494,-0.547874 l -0.02965,-0.03981 h -0.98257 c -0.782949,0 -0.981829,0.002 -0.97892,0.0095 0.002,0.0053 0.131336,0.19204 0.287393,0.415172 0.327087,0.467671 0.890892,1.27397 1.439612,2.058798 0.209949,0.300288 0.623986,0.892335 0.920083,1.315659 0.296094,0.423323 0.625395,0.89423 0.731777,1.04646 0.106382,0.152229 0.352091,0.503704 0.546016,0.781054 0.62517,0.894107 1.051427,1.50376 1.330776,1.903344 0.150159,0.214791 0.466329,0.666929 0.702601,1.004753 0.236271,0.337826 0.565557,0.808733 0.731748,1.046461 0.327958,0.469131 0.649272,0.928644 1.516493,2.168753 0.309159,0.442092 0.630167,0.901722 0.713349,1.021402 l 0.151241,0.217595 0.988621,4.18e-4 c 0.789846,3.34e-4 0.987129,-0.0014 0.981203,-0.0091 z"
     id="path6218" />
</svg>
