<?xml version="1.0" encoding="UTF-8" standalone="no"?>
<!-- Created with Inkscape (http://www.inkscape.org/) -->

<svg
   width="200"
   height="200"
   viewBox="0 0 52.916665 52.916668"
   version="1.1"
   id="svg5"
   xmlns="http://www.w3.org/2000/svg"
   xmlns:svg="http://www.w3.org/2000/svg">
  <defs
     id="defs2" />
  <g
     id="layer2"
     style="display:inline">
    <path
       style="fill:#282cd9;fill-opacity:1;stroke:#282cd9;stroke-width:0.3;stroke-miterlimit:4;stroke-dasharray:none;stroke-opacity:1"
       d="M 23.7953,47.435142 C 9.6668258,45.302942 1.5137458,30.623702 7.3882328,17.894982 c 1.130712,-2.45001 2.234354,-4.03733 4.1139642,-5.91694 2.213808,-2.2138099 6.12713,-4.7817599 6.461787,-4.2402699 0.08351,0.13512 -0.59434,0.63436 -1.506339,1.10941 -1.115947,0.58129 -2.480117,1.6902799 -4.17172,3.3913699 -4.1864592,4.20994 -6.1133962,8.69386 -6.1460212,14.3016 -0.03162,5.43464 1.844131,10.17669 5.5788812,14.10389 7.576771,7.9672 20.489656,8.32336 28.627036,0.78958 4.241929,-3.92728 6.369102,-8.70808 6.391264,-14.36431 0.01378,-3.51982 -0.550328,-6.03704 -2.045658,-9.12812 -3.188084,-6.59029 -9.350518,-10.8677299 -16.530502,-11.4740899 -1.51302,-0.12777 -1.984375,-0.26185 -1.984375,-0.56445 0,-0.51434 1.565299,-0.41838 4.577648,0.28062 7.940662,1.84258 14.19488,7.9691399 16.10323,15.7745399 0.705302,2.88479 0.577815,7.31627 -0.295101,10.25782 -2.232572,7.52331 -8.031884,13.14384 -15.29494,14.82343 -2.219214,0.51319 -5.532361,0.68882 -7.472087,0.39608 z m -0.304833,-7.7769 c -4.753216,-1.15296 -8.593124,-5.11329 -9.589238,-9.88997 -1.100051,-5.27509 1.155995,-10.5021 5.851538,-13.55737 2.154709,-1.40202 4.337083,-1.93232 7.400672,-1.79833 2.181453,0.0954 2.725655,0.22463 4.505449,1.06985 6.70609,3.18471 9.346171,10.6558 6.130899,17.34966 -2.520019,5.24641 -8.683003,8.18847 -14.29932,6.82616 z m -0.09204,-11.3983 v -4.36563 H 21.943219 20.48801 v 4.36563 4.36562 h 1.455209 1.455208 z m 4.233333,1.54219 c 0,-2.25595 0.08801,-2.9207 0.437883,-3.3073 0.536964,-0.59333 0.98248,-0.61319 1.527593,-0.0681 0.32725,0.32725 0.415774,1.03142 0.415774,3.3073 v 2.89151 h 1.455209 1.455208 l -0.0039,-3.24114 c -0.0042,-3.50992 -0.184168,-4.16154 -1.398108,-5.06289 -0.889392,-0.66036 -2.5209,-0.69145 -3.475125,-0.0662 -0.590846,0.38714 -0.677455,0.38877 -0.885721,0.0166 -0.167474,-0.29926 -0.552104,-0.38954 -1.401181,-0.32889 l -1.17035,0.0836 -0.07353,3.95713 c -0.04044,2.17642 -0.01441,4.11118 0.05784,4.29948 0.08557,0.22299 0.641651,0.34235 1.594887,0.34235 h 1.463511 z m -4.745105,-6.97546 c 0.751351,-0.40211 0.679926,-1.7204 -0.12167,-2.24562 -1.41088,-0.92445 -3.046355,0.51906 -2.145613,1.89377 0.441106,0.67321 1.391291,0.82067 2.267283,0.35185 z"
       id="path836" />
  </g>
</svg>
