<?xml version="1.0" encoding="UTF-8" standalone="no"?>
<!-- Created with Inkscape (http://www.inkscape.org/) -->

<svg
   width="200"
   height="200"
   viewBox="0 0 52.916665 52.916668"
   version="1.1"
   id="svg5"
   xmlns="http://www.w3.org/2000/svg"
   xmlns:svg="http://www.w3.org/2000/svg">
  <defs
     id="defs2" />  
  <g id="layer4">
    <path
       d="M 23.864935,47.316229 C 9.7364745,45.184029 1.5833945,30.504789 7.4578745,17.776069 c 1.13071,-2.45001 2.23435,-4.03733 4.1139705,-5.91694 2.2138,-2.21381 6.12712,-4.78176 6.46178,-4.24027 0.0835,0.13512 -0.59433,0.63436 -1.50633,1.10941 -1.11596,0.58129 -2.48012,1.69028 -4.17172,3.39137 -4.1864605,4.20994 -6.1134105,8.69386 -6.1460305,14.3016 -0.0316,5.43464 1.84413,10.17669 5.5788905,14.10389 7.57677,7.9672 20.48965,8.32336 28.62703,0.78958 4.24192,-3.92728 6.3691,-8.70808 6.39126,-14.36431 0.0138,-3.51982 -0.55033,-6.03704 -2.04566,-9.12812 -3.18808,-6.59029 -9.35052,-10.86773 -16.53049,-11.47409 -1.51302,-0.12777 -1.98439,-0.26185 -1.98439,-0.56445 0,-0.51434 1.5653,-0.41838 4.57765,0.28062 7.94066,1.84258 14.19488,7.96914 16.10323,15.77454 0.7053,2.88479 0.57782,7.31627 -0.2951,10.25782 -2.23257,7.52331 -8.03188,13.14384 -15.29494,14.82343 -2.21921,0.51319 -5.53236,0.68882 -7.47209,0.39608 z m -3.96875,-9.49053 c -2.07276,-0.53125 -4.0181,-2.32204 -4.58772,-4.22326 -0.19486,-0.65041 -0.30707,-3.27432 -0.30707,-7.1812 0,-3.90689 0.11221,-6.5308 0.30707,-7.18121 0.39761,-1.32711 1.84082,-3.00058 3.22709,-3.74198 1.05095,-0.56206 1.3792,-0.58619 7.97522,-0.58619 h 6.87916 l 1.24781,0.73351 c 1.52112,0.89416 2.51064,2.14249 3.00783,3.79453 0.52903,1.75784 0.52903,12.20483 0,13.96267 -0.49719,1.65204 -1.48671,2.90037 -3.00783,3.79454 l -1.24781,0.7335 -6.35,0.0493 c -3.4925,0.0271 -6.70717,-0.0423 -7.14375,-0.15417 z m 10.06794,-5.9875 c 0.80276,-0.49631 1.59959,-1.29315 2.0959,-2.09592 0.70879,-1.14643 0.80075,-1.52783 0.80075,-3.32104 0,-1.79321 -0.092,-2.17462 -0.80075,-3.32105 -0.49632,-0.80278 -1.29312,-1.59959 -2.09592,-2.09592 -1.18307,-0.73144 -1.49536,-0.80074 -3.60823,-0.80074 -2.14745,0 -2.39467,0.0574 -3.45294,0.80114 -1.88546,1.32516 -2.70836,2.74317 -2.82879,4.87465 -0.12406,2.19569 0.20675,3.29834 1.41207,4.70649 1.43282,1.67392 2.77876,2.22839 5.17761,2.13293 1.68922,-0.0672 2.20921,-0.20596 3.3003,-0.88054 z m -4.46268,-0.66803 c -3.27184,-0.56174 -4.91276,-4.60574 -3.01283,-7.42505 0.96567,-1.43296 2.16293,-2.08638 3.82286,-2.08638 2.89902,0 4.60266,1.55459 4.7815,4.36318 0.0765,1.20142 -0.0213,1.92058 -0.35746,2.629 -0.87415,1.84214 -3.05737,2.89296 -5.23407,2.51925 z m 9.22344,-10.16086 c 0.79367,-0.79367 0.8285,-1.6974 0.10106,-2.62218 -1.10977,-1.41084 -3.68496,-0.56309 -3.68496,1.21309 0,1.02791 1.05972,2.05852 2.11666,2.05852 0.51551,0 1.05787,-0.24006 1.46724,-0.64943 z m -1.73182,-1.33495 c 0,-0.21828 0.11906,-0.39687 0.26458,-0.39687 0.14552,0 0.26459,0.17859 0.26459,0.39687 0,0.21828 -0.11907,0.39688 -0.26459,0.39688 -0.14552,0 -0.26458,-0.1786 -0.26458,-0.39688 z"
       style="fill:#282cd9;fill-opacity:1;stroke:#282cd9;stroke-width:0.3;stroke-miterlimit:4;stroke-dasharray:none;stroke-opacity:1"
       id="path997" />
  </g>
</svg>
