<?xml version="1.0" encoding="UTF-8" standalone="no"?>
<!-- Created with Inkscape (http://www.inkscape.org/) -->

<svg
   width="100"
   height="100"
   viewBox="0 0 26.458333 26.458334"
   version="1.1"
   id="svg127350"
   inkscape:export-filename="C:\Users\Agathe\Desktop\commerces.png"
   inkscape:export-xdpi="200"
   inkscape:export-ydpi="200"
   inkscape:version="1.1 (c68e22c387, 2021-05-23)"
   sodipodi:docname="bouteille.svg"
   xmlns:inkscape="http://www.inkscape.org/namespaces/inkscape"
   xmlns:sodipodi="http://sodipodi.sourceforge.net/DTD/sodipodi-0.dtd"
   xmlns="http://www.w3.org/2000/svg"
   xmlns:svg="http://www.w3.org/2000/svg">
  <sodipodi:namedview
     id="namedview127352"
     pagecolor="#ffffff"
     bordercolor="#666666"
     borderopacity="1.0"
     inkscape:pageshadow="2"
     inkscape:pageopacity="0"
     inkscape:pagecheckerboard="0"
     inkscape:document-units="mm"
     showgrid="false"
     units="px"
     inkscape:zoom="8.446077"
     inkscape:cx="54.936748"
     inkscape:cy="48.602446"
     inkscape:window-width="2400"
     inkscape:window-height="1271"
     inkscape:window-x="2391"
     inkscape:window-y="-9"
     inkscape:window-maximized="1"
     inkscape:current-layer="g1038" />
  <defs
     id="defs127347" />
  <g
     inkscape:label="Calque 1"
     inkscape:groupmode="layer"
     id="layer1">
    <g
       id="g1038"
       transform="matrix(0.03179729,0,0,0.03179729,2.6802779,5.3206668)">
      <path
         style="fill:#0028e5;fill-opacity:1;stroke-width:0.619729"
         d="m 280.51369,474.02126 c -3.7532,-0.26484 -8.04898,-1.0059 -10.43617,-1.80031 -8.01128,-2.66596 -14.85726,-9.62972 -17.56294,-17.86507 -1.76617,-5.37568 -2.3226,-17.98512 -2.793,-63.29205 -0.20701,-19.93979 -0.63322,-48.10647 -0.94712,-62.59264 -1.09897,-50.71658 -0.73638,-70.92604 1.52329,-84.9029 0.4684,-2.89724 1.03198,-6.80154 1.25241,-8.67621 0.56347,-4.79249 3.65933,-13.72788 6.65625,-19.21162 10.10156,-18.48378 21.9586,-30.35955 35.93777,-35.99457 l 4.97819,-2.0067 -0.39748,-5.32374 c -1.17902,-15.79106 -1.17349,-16.29609 0.22016,-19.99414 2.20068,-5.83958 7.58721,-9.80891 13.31117,-9.80891 h 2.78332 l 0.18029,-19.19521 c 0.17568,-18.70274 0.21455,-19.22944 1.51445,-20.52854 1.62132,-1.6203 4.16587,-1.72106 5.81328,-0.2302 1.16269,1.05224 1.21894,1.99927 1.21894,20.52854 v 19.42541 h 5.7965 c 3.18809,0 7.51071,-0.17917 9.60583,-0.39815 l 3.80926,-0.39811 v -3.53408 c 0,-2.63667 0.28778,-3.79447 1.13335,-4.55968 1.42424,-1.28894 3.75596,-1.31455 5.54578,-0.0609 1.13779,0.79691 1.37736,1.55419 1.37736,4.35343 0,3.06734 0.15076,3.44604 1.58966,3.9931 0.87431,0.33241 2.63226,0.60439 3.90657,0.60439 4.92037,0 10.70413,4.40389 12.20868,9.29592 0.26207,0.85216 0.49912,7.09203 0.52681,13.8664 l 0.0503,12.31703 4.33809,1.68004 c 12.99631,5.03314 21.48633,11.77749 29.28588,23.26421 3.96183,5.83491 10.94037,19.95457 12.55798,25.40891 l 1.47042,4.95784 0.35448,83.97331 c 0.19492,46.18531 0.25733,84.30243 0.13859,84.70465 -0.11873,0.40225 -0.97997,0.99774 -1.91395,1.32333 -2.29335,0.79949 -5.49373,-0.54824 -5.89016,-2.48047 -0.81139,-3.95532 -1.77211,-79.43344 -1.40659,-110.51286 0.50949,-43.31515 -0.11894,-52.42983 -4.56958,-66.28143 -2.42618,-7.5511 -5.43468,-12.41324 -11.94101,-19.29835 -9.0856,-9.61455 -20.52836,-17.71812 -26.22545,-18.57243 -4.66307,-0.69927 -4.9048,-1.50794 -4.70464,-15.73745 0.1623,-11.54036 0.10444,-12.23574 -1.23946,-14.89432 -2.54234,-5.02934 -2.60913,-5.04134 -26.81864,-4.82677 -21.36465,0.18942 -23.14329,0.37688 -24.62474,2.59555 -0.25044,0.37503 -0.4596,6.76134 -0.46479,14.19177 -0.0109,15.74742 -0.20179,16.48224 -4.67324,18.0058 -6.50988,2.21815 -16.95959,9.59635 -24.84984,17.54569 -8.53107,8.59496 -13.20446,16.98174 -17.01025,30.52638 l -1.81507,6.4597 v 101.429 c 0,98.42976 0.0357,101.56829 1.20486,106.13998 0.66267,2.59102 1.6624,5.59575 2.22161,6.67715 1.83654,3.55146 5.75551,7.18007 9.74434,9.02231 l 3.87174,1.78819 53.2546,0.16844 c 43.73726,0.13836 54.14815,0.0115 58.25456,-0.70908 13.63705,-2.3935 19.86579,-7.66999 20.65459,-17.49705 0.35651,-4.44083 1.45349,-5.82187 4.62439,-5.82187 4.02718,0 5.17239,4.06289 3.23838,11.48971 -2.73375,10.49861 -12.18101,18.97325 -23.00942,20.6407 -4.98399,0.7675 -103.14517,1.31449 -112.86061,0.62893 z M 382.64077,272.37128 c -11.2008,-1.75203 -20.87488,-4.31536 -44.31064,-11.7409 -14.38549,-4.55802 -25.60857,-7.42496 -33.85479,-8.64826 -8.499,-1.26079 -21.788,-1.25902 -27.49841,0.004 -7.88691,1.74394 -9.08521,1.80909 -10.01001,0.54435 -1.112,-1.52074 -1.06528,-5.52057 0.0756,-6.46736 1.42183,-1.18002 11.77031,-3.6222 18.61066,-4.392 14.23922,-1.60248 28.20894,1.01811 56.61712,10.62084 25.95293,8.77282 38.73886,11.71652 50.9229,11.72406 6.81513,0.004 8.38695,0.71088 9.01386,4.05244 0.28245,1.50593 0.0993,2.61928 -0.60938,3.70057 -0.97592,1.48955 -1.24703,1.54438 -7.35126,1.48657 -3.48584,-0.0331 -8.70836,-0.43087 -11.6056,-0.88406 z m -39.89522,-146.8053 c -3.20912,-1.1933 -6.33993,-4.33219 -7.59258,-7.61218 -1.74636,-4.57279 -0.92527,-8.59897 3.55367,-17.42536 4.06523,-8.011029 6.33653,-10.653011 9.15839,-10.653011 2.23089,0 3.24273,0.864377 5.84114,4.989811 4.51076,7.16155 7.23977,16.80159 6.31161,22.29526 -1.10243,6.52534 -10.29628,10.99951 -17.27223,8.40548 z m 7.74125,-9.11414 c 1.68696,-1.68696 1.35367,-4.62896 -1.12884,-9.96493 l -1.79791,-3.86442 -2.06475,3.60885 c -2.6683,4.66371 -3.16291,8.4073 -1.35017,10.22001 1.6987,1.6987 4.64322,1.69891 6.34167,0 z M 314.08962,93.249173 c -3.5722,-1.319897 -7.31046,-4.713599 -9.0085,-8.178299 -1.17385,-2.395099 -1.43772,-3.921365 -1.41943,-8.209745 0.0277,-6.438695 1.76728,-11.151717 8.51425,-23.06498 7.11997,-12.5719 8.68201,-12.209464 17.47032,4.053898 3.50082,6.47853 5.78109,12.555671 6.2691,16.707901 0.47629,4.052439 -1.08019,10.057923 -3.45621,13.335605 -3.63038,5.007914 -12.39483,7.563191 -18.36953,5.35562 z M 324.12575,83.12938 c 2.89038,-1.76253 3.70708,-4.326635 2.85355,-8.959095 -0.70228,-3.811788 -5.4491,-14.179426 -6.62134,-14.461828 -0.63026,-0.151853 -3.45262,4.228233 -6.61632,10.268051 -1.23824,2.363865 -1.75002,4.242852 -1.75002,6.425119 0,2.756392 0.25576,3.339978 2.40602,5.490241 2.06171,2.061679 2.79335,2.405677 5.11275,2.403671 1.55377,0 3.51977,-0.49806 4.61536,-1.166159 z m 20.0918,-3.169615 c -1.20531,-1.205305 -1.23946,-2.065761 -1.23946,-31.220453 0,-26.350818 0.11657,-30.077698 0.96262,-30.779888 1.44212,-1.196825 4.51595,-0.96675 5.92632,0.443616 1.19758,1.197576 1.25526,2.293213 1.596,30.315088 l 0.35355,29.072591 -1.36557,1.704246 c -1.65686,2.067737 -4.42416,2.274106 -6.23346,0.4648 z M 316.99443,38.664186 C 315.83107,37.185212 315.71,36.196305 315.71,28.173051 c 0,-9.900204 0.3333,-10.805936 3.97647,-10.805936 3.45214,0 3.86943,1.10354 4.3143,11.408781 0.35016,8.112417 0.27285,9.378954 -0.63352,10.380494 -1.57601,1.741448 -4.81242,1.491506 -6.37282,-0.492204 z"
         id="path842" />
    </g>
  </g>
</svg>
