<?xml version="1.0" encoding="UTF-8" standalone="no"?>
<!-- Created with Inkscape (http://www.inkscape.org/) -->

<svg
   width="65"
   height="100"
   viewBox="0 0 17.197917 26.458334"
   version="1.1"
   id="svg127350"
   inkscape:export-filename="C:\Users\Agathe\Desktop\commerces.png"
   inkscape:export-xdpi="200"
   inkscape:export-ydpi="200"
   inkscape:version="1.1 (c68e22c387, 2021-05-23)"
   sodipodi:docname="brumisateur.svg"
   xmlns:inkscape="http://www.inkscape.org/namespaces/inkscape"
   xmlns:sodipodi="http://sodipodi.sourceforge.net/DTD/sodipodi-0.dtd"
   xmlns="http://www.w3.org/2000/svg"
   xmlns:svg="http://www.w3.org/2000/svg">
  <sodipodi:namedview
     id="namedview127352"
     pagecolor="#ffffff"
     bordercolor="#666666"
     borderopacity="1.0"
     inkscape:pageshadow="2"
     inkscape:pageopacity="0"
     inkscape:pagecheckerboard="0"
     inkscape:document-units="mm"
     showgrid="false"
     units="px"
     inkscape:zoom="5.9722783"
     inkscape:cx="55.255295"
     inkscape:cy="55.171575"
     inkscape:window-width="2400"
     inkscape:window-height="1271"
     inkscape:window-x="2391"
     inkscape:window-y="-9"
     inkscape:window-maximized="1"
     inkscape:current-layer="g1038"
     fit-margin-top="0"
     fit-margin-left="0"
     fit-margin-right="0"
     fit-margin-bottom="0" />
  <defs
     id="defs127347" />
  <g
     inkscape:label="Calque 1"
     inkscape:groupmode="layer"
     id="layer1"
     transform="translate(-1.1664627e-7,-0.00416632)">
    <g
       id="g1038"
       transform="matrix(0.03179729,0,0,0.03179729,2.6802779,5.3206668)">
      <g
         id="g836"
         transform="matrix(0.7421091,0,0,0.7421091,-60.060083,63.973999)"
         style="stroke:#ffffff;stroke-opacity:1">
        <path
           style="color:#000000;fill:#0028e5;stroke:#ffffff;stroke-linecap:round;stroke-linejoin:round;stroke-opacity:1;-inkscape-stroke:none"
           d="M 311.28516,0.4921875 C 294.79135,0.13128778 278.4525,2.3527084 263.21875,6.828125 238.84476,13.988792 217.1908,26.929822 202.16797,44.580078 188.06766,61.146462 180.02522,82.008074 181.25391,105.51953 112.24182,101.94077 54.053394,124.27306 24.148437,152.66992 8.870068,167.17781 0.67573412,183.66924 3.6035156,199.31055 c 2.6563283,14.1911 14.5152784,26.38389 35.6289064,34.73242 -12.025539,9.90761 -21.593556,19.50358 -28.201172,28.62109 -7.6021339,10.4898 -11.63192796,20.48838 -10.95898438,29.82813 0.67294359,9.33975 6.44702828,17.41331 16.26953138,22.94726 9.07014,5.11008 21.789191,8.38586 38.158203,10.01758 -4.403548,40.32963 11.09893,70.7031 37.875,84.49609 26.11284,13.45135 61.96278,10.99741 98.67187,-10.0625 -1.93941,43.66497 21.924,81.35548 69.30665,93.38086 49.89341,12.6626 124.89202,-2.24595 224.05273,-63.68554 40.15718,7.74161 71.53025,6.20166 95.21094,-1.76563 23.99472,-8.07294 40.05472,-22.83804 48.82031,-40.55859 16.80325,-33.9695 7.28703,-77.9225 -18.79688,-108.01172 44.05765,-24.09105 60.64602,-68.30706 51.39258,-103.17773 -4.78596,-18.03543 -16.59788,-33.58258 -34.74218,-42.01368 -16.66685,-7.74456 -38.51686,-9.34877 -64.79493,-2.32617 C 575.52998,79.919641 549.94636,40.388661 514.66016,22.591797 479.17226,4.6932069 433.49056,8.0444269 408.86523,40.529297 381.61139,13.637779 346.13087,1.2546438 311.28516,0.4921875 Z m -0.27149,8.0058594 c 34.36598,0.742172 69.40136,13.2914181 95.42969,40.8398441 a 4.0004,4.0004 0 0 0 6.24609,-0.546875 c 21.25834,-32.255329 64.3911,-36.192743 98.36719,-19.056641 33.97609,17.136102 58.19811,54.495602 40.82031,106.507815 a 4.0004,4.0004 0 0 0 5.00391,5.08008 c 28.06732,-8.91022 50.07715,-7.42482 66.03906,-0.008 15.96191,7.41701 26.13183,20.79656 30.38086,36.8086 8.49806,32.02408 -7.22812,74.46616 -51.75976,96.42968 a 4.0004,4.0004 0 0 0 -1.125,6.34766 c 26.55298,27.84099 36.53088,71.11313 20.8496,102.81445 -7.84063,15.85066 -21.95242,29.03859 -44.19921,36.52344 -22.2468,7.48486 -52.70706,9.13315 -92.66993,1.22852 a 4.0004,4.0004 0 0 0 -2.89062,0.52734 c -98.7806,61.48875 -172.41286,75.3937 -219.18359,63.52362 -46.77074,-11.87008 -67.64072,-48.59381 -62.76758,-92.35547 a 4.0004,4.0004 0 0 0 -6.11914,-3.81836 C 156.15951,413.01689 120.57688,415.47986 96.039062,402.83984 71.50124,390.19982 57.09672,362.47561 62.75,322.48047 a 4.0004,4.0004 0 0 0 -3.644531,-4.54883 C 41.387689,316.52932 28.48912,313.10268 20.267578,308.4707 12.046037,303.83873 8.5240865,298.485 8.0507813,291.91602 c -0.4733053,-6.56899 2.5007417,-14.95997 9.4570307,-24.5586 6.95629,-9.59862 17.761573,-20.29029 32.09375,-31.48437 a 4.0004,4.0004 0 0 0 -1.21875,-6.95508 C 24.535122,221.11648 13.699635,209.76655 11.466797,197.83789 9.2339585,185.90923 15.537149,171.87779 29.65625,158.4707 57.894452,131.65654 116.24033,109.01489 185.20898,113.70117 l -0.1582,-0.41992 a 4.0004,4.0004 0 0 0 3.24805,-0.73242 l 0.01,-0.01 a 4.0004,4.0004 0 0 0 0.96094,-3.29687 l 0.17969,0.0645 c -2.41006,-23.247836 5.00185,-43.317242 18.81055,-59.541015 13.80869,-16.223773 34.11763,-28.476149 57.21484,-35.261719 14.43576,-4.240981 29.91816,-6.3432101 45.53906,-6.0058591 z"
           id="path6-4" />
        <path
           style="color:#000000;fill:#1b26dc;stroke-linecap:round;stroke-linejoin:round;-inkscape-stroke:none;stroke:#ffffff;stroke-opacity:1"
           d="m 627.12891,82.216797 c -6.13014,0.411751 -11.00379,6.225348 -9.78516,12.617187 a 3.010301,3.010301 0 0 0 0,0.002 c 0.80664,4.217181 4.1219,7.547796 8.36133,8.341796 7.28056,1.37423 13.80715,-5.139223 12.44336,-12.421874 -0.79243,-4.231022 -4.10649,-7.56216 -8.33008,-8.371093 -0.91289,-0.175753 -1.81372,-0.226791 -2.68945,-0.167969 z m 1.55273,6.078125 a 3.010301,3.010301 0 0 0 0.002,0.002 c 1.73522,0.331903 3.21947,1.818271 3.54688,3.566406 0.63596,3.396017 -2.01232,6.041099 -5.41016,5.398438 a 3.010301,3.010301 0 0 0 -0.006,0 c -1.74,-0.325887 -3.22459,-1.812611 -3.55859,-3.554688 v -0.002 c -0.64578,-3.394033 2.02962,-6.063997 5.42578,-5.410156 z"
           id="path8" />
        <path
           style="color:#000000;fill:#1b26dc;stroke-linecap:round;stroke-linejoin:round;-inkscape-stroke:none;stroke:#ffffff;stroke-opacity:1"
           d="M 112.57617,0.03320312 C 105.19126,0.52935635 99.315587,7.5339581 100.78516,15.240234 c 0.96881,5.094949 4.97305,9.098583 10.06836,10.066407 8.77889,1.665669 16.65626,-6.197795 15.0039,-14.978516 a 3.6303631,3.6303631 0 0 0 0,-0.0078 C 124.90116,5.2249805 120.90611,1.2196751 115.81836,0.23632813 a 3.6303631,3.6303631 0 0 0 -0.002,0 c -1.09954,-0.21171265 -2.18525,-0.27400404 -3.24024,-0.20312501 z m 1.86719,7.33203128 c 2.05034,0.3975411 3.89271,2.2501862 4.27734,4.2929686 a 3.6303631,3.6303631 0 0 0 0.002,0.01367 c 0.76763,4.079266 -2.43454,7.276281 -6.51563,6.501953 -2.06385,-0.392016 -3.899,-2.227164 -4.29101,-4.291015 a 3.6303631,3.6303631 0 0 0 0,-0.002 c -0.78049,-4.0928138 2.44367,-7.301921 6.52734,-6.5156246 z"
           id="path10-7" />
        <path
           style="color:#000000;fill:#1b26dc;stroke-linecap:round;stroke-linejoin:round;-inkscape-stroke:none;stroke:#ffffff;stroke-opacity:1"
           d="m 647.89453,472.08789 c -5.63023,0.37403 -10.11296,5.71541 -8.99023,11.5918 0.74094,3.8858 3.79928,6.92726 7.67773,7.66601 a 2.7652766,2.7652766 0 0 0 0.008,0.002 c 6.68653,1.25543 12.68371,-4.72855 11.42774,-11.41797 a 2.7652766,2.7652766 0 0 0 -0.002,-0.01 c -0.73957,-3.86855 -3.76745,-6.92886 -7.65039,-7.67383 -0.83812,-0.16216 -1.66638,-0.21163 -2.4707,-0.1582 z m 1.41992,5.58594 a 2.7652766,2.7652766 0 0 0 0.006,0.002 c 1.55268,0.29684 2.95996,1.71161 3.26172,3.2793 0.58078,3.10716 -1.85868,5.53837 -4.96875,4.95703 -1.57917,-0.30283 -2.97794,-1.69765 -3.27734,-3.26953 a 2.7652766,2.7652766 0 0 0 0,-0.002 c -0.59689,-3.12411 1.86354,-5.56949 4.97851,-4.96679 z"
           id="path12" />
        <path
           style="color:#000000;fill:#1b26dc;stroke-linecap:round;stroke-linejoin:round;-inkscape-stroke:none;stroke:#ffffff;stroke-opacity:1"
           d="m 530.01562,472.45703 c -4.85551,0.33148 -8.71424,4.93394 -7.74804,9.99805 1.2e-4,6.6e-4 -1.3e-4,10e-4 0,0.002 0.63142,3.35403 3.26786,5.98898 6.62304,6.61719 5.76829,1.08812 10.94097,-4.07143 9.86329,-9.8418 l 0.041,0.42774 a 2.3852385,2.3852385 0 0 0 -0.041,-0.43946 c -0.62751,-3.35144 -3.25399,-5.99104 -6.60547,-6.63281 -0.7232,-0.13816 -1.43908,-0.17822 -2.13282,-0.13086 z m 1.23633,4.81445 c 1.34796,0.25812 2.56127,1.47829 2.81446,2.82618 10e-5,5.5e-4 -1.1e-4,10e-4 0,0.002 a 2.3852385,2.3852385 0 0 0 0,0.008 c 0.50207,2.6883 -1.60286,4.78807 -4.29297,4.2793 a 2.3852385,2.3852385 0 0 0 -0.004,-0.002 c -1.34212,-0.2513 -2.56316,-1.47233 -2.81445,-2.81446 a 2.3852385,2.3852385 0 0 0 -0.002,-0.008 c -0.51418,-2.69155 1.60441,-4.8038 4.29883,-4.28906 z"
           id="path14" />
        <path
           style="color:#000000;fill:#1b26dc;stroke-linecap:round;stroke-linejoin:round;-inkscape-stroke:none;stroke:#ffffff;stroke-opacity:1"
           d="m 41.423828,68.703125 c -4.784612,-1.164098 -9.202807,3.252815 -8.050781,8.037109 0.571292,2.370863 2.426012,4.225583 4.796875,4.796875 a 1.880188,1.880188 0 0 0 0.0039,0.002 c 4.770859,1.138501 9.174252,-3.252036 8.035156,-8.02539 -0.56188,-2.381235 -2.417687,-4.236409 -4.783203,-4.810547 z m -2.472656,3.646484 c 0.478223,-0.124723 1.015335,-0.130725 1.583984,0.0078 a 1.880188,1.880188 0 0 0 0.002,0 c 0.931634,0.22585 1.793947,1.088196 2.013672,2.023437 a 1.880188,1.880188 0 0 0 0,0.0059 c 0.540903,2.266639 -1.234772,4.035638 -3.503906,3.49414 -0.947429,-0.23018 -1.791161,-1.073747 -2.019531,-2.021484 -0.410857,-1.706265 0.489159,-3.135595 1.923828,-3.509766 z"
           id="path16-3" />
        <path
           style="color:#000000;fill:#1b26dc;stroke-linecap:round;stroke-linejoin:round;-inkscape-stroke:none;stroke:#ffffff;stroke-opacity:1"
           d="m 138.29492,457.32422 c -5.14643,0.16214 -9.30491,5.14162 -8.01172,10.48047 0.73106,3.02044 3.09248,5.38313 6.11328,6.11328 a 2.3952395,2.3952395 0 0 0 0.004,0 c 6.08668,1.46405 11.68981,-4.1472 10.23828,-10.22461 -0.71765,-3.02127 -3.07268,-5.3863 -6.08594,-6.12891 a 2.3952395,2.3952395 0 0 0 -0.004,0 c -0.76244,-0.18637 -1.5187,-0.26339 -2.25391,-0.24023 z m -0.9043,4.88281 c 0.60963,-0.15826 1.29519,-0.16696 2.01954,0.01 7e-4,1.7e-4 0.001,-1.7e-4 0.002,0 1.20299,0.2991 2.28524,1.39118 2.56836,2.58593 a 2.3952395,2.3952395 0 0 0 0,0.004 c 0.68814,2.88119 -1.56574,5.14781 -4.45703,4.45508 -1.19835,-0.28965 -2.29629,-1.38563 -2.58594,-2.58399 a 2.3952395,2.3952395 0 0 0 0,-0.002 c -0.52655,-2.17383 0.62249,-3.99349 2.45312,-4.46875 z"
           id="path18" />
      </g>
    </g>
  </g>
</svg>
