<?xml version="1.0" encoding="UTF-8" standalone="no"?>
<!-- Created with Inkscape (http://www.inkscape.org/) -->

<svg
   width="65"
   height="100"
   viewBox="0 0 17.197917 26.458334"
   version="1.1"
   id="svg127350"
   inkscape:export-filename="C:\Users\Agathe\Desktop\brumisateur.png"
   inkscape:export-xdpi="200"
   inkscape:export-ydpi="200"
   inkscape:version="1.1 (c68e22c387, 2021-05-23)"
   sodipodi:docname="brumisateur.svg"
   xmlns:inkscape="http://www.inkscape.org/namespaces/inkscape"
   xmlns:sodipodi="http://sodipodi.sourceforge.net/DTD/sodipodi-0.dtd"
   xmlns="http://www.w3.org/2000/svg"
   xmlns:svg="http://www.w3.org/2000/svg">
  <sodipodi:namedview
     id="namedview127352"
     pagecolor="#ffffff"
     bordercolor="#666666"
     borderopacity="1.0"
     inkscape:pageshadow="2"
     inkscape:pageopacity="0"
     inkscape:pagecheckerboard="0"
     inkscape:document-units="mm"
     showgrid="false"
     units="px"
     inkscape:zoom="11.944557"
     inkscape:cx="31.897375"
     inkscape:cy="57.055278"
     inkscape:window-width="2400"
     inkscape:window-height="1271"
     inkscape:window-x="2391"
     inkscape:window-y="-9"
     inkscape:window-maximized="1"
     inkscape:current-layer="g866"
     fit-margin-top="0"
     fit-margin-left="0"
     fit-margin-right="0"
     fit-margin-bottom="0" />
  <defs
     id="defs127347" />
  <g
     inkscape:label="Calque 1"
     inkscape:groupmode="layer"
     id="layer1"
     transform="translate(-1.1664627e-7,-0.00416632)">
    <g
       id="g1038"
       transform="matrix(0.03179729,0,0,0.03179729,2.6802779,5.3206668)">
      <g
         id="g836"
         transform="matrix(0.7421091,0,0,0.7421091,-60.060083,63.973999)"
         style="stroke:#002ddc;fill:#002ddc;stroke-width:4.23781642">
        <g
           id="path10-7"
           style="fill:#002ddc;fill-opacity:1;stroke:#002ddc;stroke-opacity:1;stroke-width:0.42378169;stroke-miterlimit:4;stroke-dasharray:none" />
        <g
           id="g866"
           style="stroke-width:0.42378169">
          <g
             id="path934"
             style="stroke:none;stroke-width:0.84756326;fill:#002acd;fill-opacity:1;stroke-opacity:1;stroke-miterlimit:4;stroke-dasharray:none">
            <g
               id="path1068"
               style="fill:#002acd;fill-opacity:1;stroke:none;stroke-opacity:1;stroke-width:0.84756326;stroke-miterlimit:4;stroke-dasharray:none">
              <path
                 style="color:#000000;stroke:none;stroke-width:0.84756326;stroke-linecap:round;stroke-linejoin:round;fill:#002acd;fill-opacity:1;stroke-opacity:1;stroke-miterlimit:4;stroke-dasharray:none"
                 d="m 41.423828,68.703125 c -4.784612,-1.164098 -9.202807,3.252815 -8.050781,8.037109 0.571292,2.370863 2.426012,4.225583 4.796875,4.796875 a 1.880188,1.880188 0 0 0 0.0039,0.002 c 4.770859,1.138501 9.174252,-3.252036 8.035156,-8.02539 -0.56188,-2.381235 -2.417687,-4.236409 -4.783203,-4.810547 z m -2.472656,3.646484 c 0.478223,-0.124723 1.015335,-0.130725 1.583984,0.0078 a 1.880188,1.880188 0 0 0 0.002,0 c 0.931634,0.22585 1.793947,1.088196 2.013672,2.023437 a 1.880188,1.880188 0 0 0 0,0.0059 c 0.540903,2.266639 -1.234772,4.035638 -3.503906,3.49414 -0.947429,-0.23018 -1.791161,-1.073747 -2.019531,-2.021484 -0.410857,-1.706265 0.489159,-3.135595 1.923828,-3.509766 z"
                 id="path11308" />
              <path
                 style="color:#000000;fill:#002acd;stroke:none;stroke-linecap:round;stroke-linejoin:round;fill-opacity:1;stroke-opacity:1;stroke-width:0.84756326;stroke-miterlimit:4;stroke-dasharray:none"
                 d="m 39.601562,66.193359 c -5.42737,0.187635 -9.846869,5.473995 -8.49414,11.091797 a 2.3310322,2.3310322 0 0 0 0,0.002 c 0.775574,3.218635 3.296991,5.740051 6.515625,6.515625 a 2.3310322,2.3310322 0 0 0 0.0098,0.0039 c 6.399852,1.527238 12.367486,-4.423978 10.84375,-10.828125 -0.763181,-3.234348 -3.289606,-5.761342 -6.501953,-6.541016 -0.802594,-0.195271 -1.597708,-0.270946 -2.373047,-0.244141 z m -1.978515,17.609375 -0.519531,-0.193359 c 0.0029,0.0015 0.0069,0.0044 0.0098,0.0059 a 2.3310322,2.3310322 0 0 0 0.509766,0.1875 z m 1.916015,-9.197265 c 0.08351,-0.02178 0.219623,-0.03935 0.445313,0.01563 a 2.3310322,2.3310322 0 0 0 0.267578,0.03125 2.3310322,2.3310322 0 0 0 0,0.002 l -0.263672,-0.03125 c -0.06855,-0.01662 0.310819,0.366994 0.292969,0.291015 a 2.3310322,2.3310322 0 0 0 0.002,0.01367 c 0.105008,0.440031 -0.0027,0.536087 -0.07617,0.609375 -0.0726,0.07238 -0.181541,0.17546 -0.611328,0.07617 0.0092,-8.66e-4 -0.306827,-0.317768 -0.302734,-0.300781 -0.158852,-0.661624 -0.0159,-0.638702 0.246093,-0.707031 z"
                 id="path11310" />
            </g>
            <g
               id="path1070"
               style="fill:#002acd;fill-opacity:1;stroke:none;stroke-opacity:1;stroke-width:0.84756326;stroke-miterlimit:4;stroke-dasharray:none">
              <path
                 style="color:#000000;stroke:none;stroke-width:0.84756326;stroke-linecap:round;stroke-linejoin:round;fill:#002acd;fill-opacity:1;stroke-opacity:1;stroke-miterlimit:4;stroke-dasharray:none"
                 d="m 41.474609,68.498047 c -4.933347,-1.200286 -9.494479,3.357994 -8.30664,8.291015 0.589862,2.447931 2.505194,4.363263 4.953125,4.953125 l -0.04883,-0.01758 c 0.0014,7.44e-4 0.0044,0.0032 0.0059,0.0039 a 0.21191204,0.21191204 0 0 0 0.04687,0.01758 c 4.919123,1.173882 9.465538,-3.359443 8.291016,-8.28125 -0.58018,-2.458789 -2.496955,-4.373975 -4.939454,-4.966797 a 0.21191204,0.21191204 0 0 0 -0.002,0 z m -0.101562,0.410156 a 0.21191204,0.21191204 0 0 0 0.002,0 c 2.288529,0.555452 4.083374,2.35062 4.626953,4.654297 1.103667,4.624891 -3.156712,8.872649 -7.779297,7.769531 l 0.04492,0.01758 a 0.21191204,0.21191204 0 0 0 -0.04883,-0.01758 c -2.29379,-0.55272 -4.087905,-2.346834 -4.640625,-4.640625 -1.116211,-4.635557 3.159055,-8.911111 7.794922,-7.783203 z m -2.47461,3.236328 c -1.541234,0.401964 -2.50982,1.962754 -2.076171,3.763672 0.249505,1.035448 1.139036,1.92633 2.173828,2.177734 a 0.21191204,0.21191204 0 0 0 0.002,0.002 c 1.197377,0.285737 2.290647,-0.03896 3.003906,-0.75 0.713259,-0.711038 1.041351,-1.803656 0.755859,-3 a 0.21191204,0.21191204 0 0 0 0,-0.0059 c -0.241369,-1.027175 -1.14741,-1.931801 -2.169968,-2.179693 a 0.21191204,0.21191204 0 0 0 -0.002,0 c -0.599826,-0.14612 -1.173394,-0.141894 -1.6875,-0.0078 z m 3.859375,2.19336 0.0039,0.03125 a 0.21191204,0.21191204 0 0 0 -0.0039,-0.03125 z m -3.753906,-1.783204 c 0.44234,-0.115364 0.942999,-0.123117 1.480469,0.0078 a 0.21191204,0.21191204 0 0 0 0.002,0 c 0.840708,0.203807 1.659295,1.023876 1.857422,1.867187 a 0.21191204,0.21191204 0 0 0 0,0.0059 c 0.255411,1.070292 -0.03399,1.996816 -0.640625,2.601562 -0.606635,0.604746 -1.535667,0.892479 -2.607422,0.636719 -0.859097,-0.209898 -1.65625,-1.004099 -1.863281,-1.863281 -0.388064,-1.611608 0.443384,-2.909482 1.771484,-3.25586 z"
                 id="path11316" />
              <path
                 style="color:#000000;fill:#002acd;stroke:none;stroke-linecap:round;stroke-linejoin:round;fill-opacity:1;stroke-opacity:1;stroke-width:0.84756326;stroke-miterlimit:4;stroke-dasharray:none"
                 d="m 39.595703,65.982422 c -5.554712,0.191963 -10.077825,5.601961 -8.693359,11.351562 a 2.3310322,2.3310322 0 0 0 0,0.002 c 0.739373,3.068405 3.059208,5.455466 6.03125,6.419922 -0.0182,-0.01133 -0.03,-0.02009 -0.06055,-0.03906 0.03541,0.02002 0.04564,0.02772 0.08398,0.04883 0.0059,0.0019 0.01164,0.004 0.01758,0.0059 a 2.3310322,2.3310322 0 0 0 0.002,0.0039 c 0.02667,0.01463 0.04673,0.02657 0.0625,0.03516 0.07982,0.03995 0.166537,0.06244 0.25,0.09375 l -0.0059,0.01367 0.04883,0.01758 0.0039,-0.01367 c 0.07881,0.0278 0.153069,0.06795 0.234375,0.08789 a 2.3310322,2.3310322 0 0 0 0.01367,0.0039 c 6.550389,1.563161 12.659297,-4.529185 11.09961,-11.083985 -0.734304,-3.111963 -3.091016,-5.525104 -6.097657,-6.474609 a 2.3310322,2.3310322 0 0 0 -0.0059,-0.0098 l -0.002,0.0059 C 42.387315,66.391118 42.221417,66.28 42.025391,66.232422 a 2.3310322,2.3310322 0 0 0 -0.53711,-0.06445 c -0.008,-3.8e-5 -0.01739,-3.8e-5 -0.02539,0 a 2.3310322,2.3310322 0 0 0 -0.0078,0.0059 c -0.625536,-0.110155 -1.252104,-0.212393 -1.859375,-0.191406 z m 0.84375,8.480469 a 2.3310322,2.3310322 0 0 0 0.0059,0.002 2.3310322,2.3310322 0 0 0 0,0.002 h -0.0059 z m 0.09766,0.01172 a 2.3310322,2.3310322 0 0 0 0.01953,0.0039 2.3310322,2.3310322 0 0 0 -0.002,0.002 l -0.0293,-0.0039 z m -0.08984,0.0078 a 2.3310322,2.3310322 0 0 0 0.01367,0.125 2.3310322,2.3310322 0 0 0 -0.0039,0.0039 l -0.01563,-0.126953 z m 0.01953,0.199219 a 2.3310322,2.3310322 0 0 0 0.002,0.0039 2.3310322,2.3310322 0 0 0 0.01172,0.109375 z m -0.875,0.128906 c 0.05144,-0.01342 0.148252,-0.03152 0.341797,0.01563 a 2.3310322,2.3310322 0 0 0 0.126953,0.01563 L 39.9375,74.828125 c -0.213909,-0.05186 0.188569,0.355463 0.136719,0.134766 a 2.3310322,2.3310322 0 0 0 0.002,0.01367 c 0.09264,0.38822 0.0086,0.384109 -0.01758,0.410157 -0.0253,0.02523 -0.04324,0.104849 -0.414063,0.01953 0.108459,0.01426 -0.181082,-0.28616 -0.146484,-0.142578 -0.141778,-0.589132 -0.08769,-0.405804 0.09375,-0.453125 z m -2.132813,8.703125 c 8.29e-4,2.23e-4 0.0011,0.0017 0.002,0.002 v 0.002 c -0.0012,-4.15e-4 -0.0028,4.17e-4 -0.0039,0 z"
                 id="path11318" />
            </g>
          </g>
          <g
             id="path988"
             style="fill:#002ddb;fill-opacity:1;stroke:none;stroke-opacity:1;stroke-width:0.84756326;stroke-miterlimit:4;stroke-dasharray:none">
            <path
               style="color:#000000;stroke:none;stroke-width:0.84756326;stroke-linecap:round;stroke-linejoin:round;fill:#002ddb;fill-opacity:1;stroke-opacity:1;stroke-miterlimit:4;stroke-dasharray:none"
               d="M 311.28516,0.4921875 C 294.79135,0.13128778 278.4525,2.3527084 263.21875,6.828125 238.84476,13.988792 217.1908,26.929822 202.16797,44.580078 188.06766,61.146462 180.02522,82.008074 181.25391,105.51953 112.24182,101.94077 54.053394,124.27306 24.148437,152.66992 8.870068,167.17781 0.67573412,183.66924 3.6035156,199.31055 c 2.6563283,14.1911 14.5152784,26.38389 35.6289064,34.73242 -12.025539,9.90761 -21.593556,19.50358 -28.201172,28.62109 -7.6021339,10.4898 -11.63192796,20.48838 -10.95898438,29.82813 0.67294359,9.33975 6.44702828,17.41331 16.26953138,22.94726 9.07014,5.11008 21.789191,8.38586 38.158203,10.01758 -4.403548,40.32963 11.09893,70.7031 37.875,84.49609 26.11284,13.45135 61.96278,10.99741 98.67187,-10.0625 -1.93941,43.66497 21.924,81.35548 69.30665,93.38086 49.89341,12.6626 124.89202,-2.24595 224.05273,-63.68554 40.15718,7.74161 71.53025,6.20166 95.21094,-1.76563 23.99472,-8.07294 40.05472,-22.83804 48.82031,-40.55859 16.80325,-33.9695 7.28703,-77.9225 -18.79688,-108.01172 44.05765,-24.09105 60.64602,-68.30706 51.39258,-103.17773 -4.78596,-18.03543 -16.59788,-33.58258 -34.74218,-42.01368 -16.66685,-7.74456 -38.51686,-9.34877 -64.79493,-2.32617 C 575.52998,79.919641 549.94636,40.388661 514.66016,22.591797 479.17226,4.6932069 433.49056,8.0444269 408.86523,40.529297 381.61139,13.637779 346.13087,1.2546438 311.28516,0.4921875 Z m -0.27149,8.0058594 c 34.36598,0.742172 69.40136,13.2914181 95.42969,40.8398441 a 4.0004,4.0004 0 0 0 6.24609,-0.546875 c 21.25834,-32.255329 64.3911,-36.192743 98.36719,-19.056641 33.97609,17.136102 58.19811,54.495602 40.82031,106.507815 a 4.0004,4.0004 0 0 0 5.00391,5.08008 c 28.06732,-8.91022 50.07715,-7.42482 66.03906,-0.008 15.96191,7.41701 26.13183,20.79656 30.38086,36.8086 8.49806,32.02408 -7.22812,74.46616 -51.75976,96.42968 a 4.0004,4.0004 0 0 0 -1.125,6.34766 c 26.55298,27.84099 36.53088,71.11313 20.8496,102.81445 -7.84063,15.85066 -21.95242,29.03859 -44.19921,36.52344 -22.2468,7.48486 -52.70706,9.13315 -92.66993,1.22852 a 4.0004,4.0004 0 0 0 -2.89062,0.52734 c -98.7806,61.48875 -172.41286,75.3937 -219.18359,63.52362 -46.77074,-11.87008 -67.64072,-48.59381 -62.76758,-92.35547 a 4.0004,4.0004 0 0 0 -6.11914,-3.81836 C 156.15951,413.01689 120.57688,415.47986 96.039062,402.83984 71.50124,390.19982 57.09672,362.47561 62.75,322.48047 a 4.0004,4.0004 0 0 0 -3.644531,-4.54883 C 41.387689,316.52932 28.48912,313.10268 20.267578,308.4707 12.046037,303.83873 8.5240865,298.485 8.0507813,291.91602 c -0.4733053,-6.56899 2.5007417,-14.95997 9.4570307,-24.5586 6.95629,-9.59862 17.761573,-20.29029 32.09375,-31.48437 a 4.0004,4.0004 0 0 0 -1.21875,-6.95508 C 24.535122,221.11648 13.699635,209.76655 11.466797,197.83789 9.2339585,185.90923 15.537149,171.87779 29.65625,158.4707 57.894452,131.65654 116.24033,109.01489 185.20898,113.70117 l -0.1582,-0.41992 a 4.0004,4.0004 0 0 0 3.24805,-0.73242 l 0.01,-0.01 a 4.0004,4.0004 0 0 0 0.96094,-3.29687 l 0.17969,0.0645 c -2.41006,-23.247836 5.00185,-43.317242 18.81055,-59.541015 13.80869,-16.223773 34.11763,-28.476149 57.21484,-35.261719 14.43576,-4.240981 29.91816,-6.3432101 45.53906,-6.0058591 z"
               id="path11300" />
            <path
               style="color:#000000;fill:#002ddb;stroke:none;stroke-linecap:round;stroke-linejoin:round;fill-opacity:1;stroke-opacity:1;stroke-width:0.84756326;stroke-miterlimit:4;stroke-dasharray:none"
               d="M 311.33594,-1.8378906 C 294.59936,-2.2041023 278.02855,0.04813571 262.5625,4.5917969 237.81807,11.861293 215.76744,25.006451 200.39258,43.070312 186.46039,59.439172 178.34731,80.040109 178.91602,103.11914 110.42204,100.16233 52.736537,122.30955 22.542969,150.98047 6.9268123,165.80911 -1.8144965,183.03464 1.3125,199.74023 c 2.6826094,14.33151 14.214265,26.45252 33.609375,34.94141 -10.765926,9.12986 -19.553589,18.0274 -25.7773437,26.61523 -7.7854339,10.74273 -12.1259289,21.23936 -11.3964844,31.36329 0.7347038,10.19691 7.1224163,18.99247 17.4492191,24.81054 9.065966,5.10773 21.407503,8.2927 36.873046,10.01367 -3.634479,39.8983 12.078325,70.55028 39.238282,84.54102 26.134996,13.46276 61.388666,11.22139 97.382816,-8.31055 -0.38866,42.90686 24.1925,79.91469 71.08789,91.81641 50.72311,12.87317 126.00806,-2.27876 225.08789,-63.50391 39.99484,7.59475 71.49462,6.07652 95.49414,-1.99804 24.51087,-8.2466 41.12692,-23.46092 50.16601,-41.73438 16.92006,-34.20563 7.89418,-77.78067 -17.38672,-108.42383 43.06917,-24.83524 59.52463,-69.04853 50.14454,-104.39648 -4.94464,-18.63337 -17.22497,-34.79967 -36.01172,-43.5293 -16.44791,-7.64282 -37.64769,-9.33649 -62.6836,-3.32031 C 576.68179,77.653011 550.96967,38.293762 515.70898,20.509766 480.1316,2.5660458 434.36883,5.5395342 408.625,37.203125 381.15748,11.076413 345.92842,-1.0809752 311.33594,-1.8378906 Z m -0.10157,4.6601562 c 34.32847,0.7511386 69.2056,12.9328254 95.99415,39.3652344 a 2.3310322,2.3310322 0 0 0 3.49414,-0.25 c 23.83362,-31.440478 68.22333,-34.7473975 102.88867,-17.263672 34.45152,17.375889 59.40355,55.6152 45.63476,106.449222 a 2.3310322,2.3310322 0 0 0 2.85157,2.86132 c 25.88116,-6.91653 47.13854,-5.28083 63.21093,2.1875 17.50182,8.13256 28.84538,23.0606 33.47266,40.49805 8.95103,33.73106 -7.03939,76.90194 -50.25977,100.53516 a 2.3310322,2.3310322 0 0 0 -0.64257,3.57226 c 25.5318,29.45233 34.76265,72.51137 18.46875,105.45118 -8.49207,17.1676 -23.99609,31.48354 -47.47461,39.38281 -23.177,7.79782 -54.14623,9.37356 -94.02539,1.68554 a 2.3310322,2.3310322 0 0 0 -1.66993,0.3086 C 384.3209,488.85678 309.85848,503.43 260.92773,491.01172 214.48981,479.2261 191.47584,442.75297 193.375,399.99414 a 2.3310322,2.3310322 0 0 0 -3.48828,-2.125 c -36.2087,20.77284 -71.20713,23.01251 -96.445314,10.01172 -25.863276,-13.32279 -40.950768,-42.55263 -36.625,-82.16992 a 2.3310322,2.3310322 0 0 0 -2.085937,-2.57227 C 38.549271,321.52567 26.115728,318.26997 17.486328,313.4082 8.168144,308.15838 3.0076663,300.80678 2.3964844,292.32422 1.7800431,283.76866 5.49915,274.2681 12.917969,264.03125 19.354199,255.15023 28.79108,245.66556 40.714844,235.8418 a 2.3310322,2.3310322 0 0 0 -0.625,-3.9668 C 19.420346,223.70208 8.364458,212.07613 5.8945312,198.88086 3.1659707,184.30386 10.813355,168.54648 25.753906,154.35937 55.006537,126.58194 112.68927,104.29838 181.13281,107.84766 a 2.3310322,2.3310322 0 0 0 2.44922,-2.44922 C 182.38476,82.488115 190.18552,62.253866 203.94336,46.089844 218.61412,28.853229 239.8715,16.116277 263.875,9.0644531 278.87642,4.65729 294.98337,2.4666786 311.23437,2.8222656 Z m -0.16992,3.3457031 C 295.20136,5.8253874 279.48667,7.958278 264.81836,12.267578 241.34767,19.16287 220.64874,31.612254 206.48437,48.253906 192.39197,64.811007 184.74155,85.490905 187.11328,109.22656 a 2.3310322,2.3310322 0 0 0 -0.14453,0.38672 c 0.0663,0.4111 -0.10816,0.79471 -0.33008,1.13867 -0.34436,0.18512 -0.71845,0.32991 -1.10742,0.24805 a 2.3310322,2.3310322 0 0 0 -0.99609,0.33789 c -69.19727,-4.48831 -127.675258,18.08707 -156.484379,45.44336 -14.45675,13.72771 -21.3146056,28.45304 -18.8749997,41.48633 2.4345427,13.00624 14.1981197,24.92091 38.4824217,32.86523 1.3945,0.45607 1.664152,1.99929 0.507813,2.90235 a 2.3310322,2.3310322 0 0 0 0,0.002 c -14.45169,11.28742 -25.398247,22.0918 -32.544922,31.95312 -7.1498007,9.86565 -10.4283566,18.68481 -9.8945315,26.09375 0.5263431,7.30509 4.7537985,13.54873 13.3964845,18.41797 8.701541,4.90241 21.872047,8.33505 39.798828,9.75391 0.99268,0.0788 1.659167,0.91248 1.519531,1.89844 -5.750956,40.68617 9.090129,69.65248 34.53125,82.75781 25.462324,13.11625 61.930884,10.39278 99.710934,-13.59961 1.31556,-0.83462 2.72621,0.0453 2.55469,1.59375 -2.48455,22.31507 1.58922,43.01126 12.37695,59.66016 10.78806,16.64938 28.27208,29.15525 52.13282,35.21093 47.75648,12.12026 121.90118,-2.12546 220.98828,-63.80468 0.36027,-0.22413 0.79082,-0.30122 1.20703,-0.21875 40.2445,7.96033 71.10898,6.35028 93.86719,-1.30664 22.74868,-7.65372 37.43931,-21.31288 45.54492,-37.69922 16.22921,-32.80903 5.93221,-76.95424 -21.25195,-105.45703 -0.82241,-0.86266 -0.60004,-2.12096 0.46875,-2.64844 45.40467,-22.39411 61.7923,-65.91067 52.98046,-99.11719 -4.40294,-16.59206 -15.06017,-30.61525 -31.65039,-38.32422 -16.59659,-7.71173 -39.25312,-9.13875 -67.72656,-0.0996 v -0.002 c -1.43671,0.45567 -2.56521,-0.68948 -2.08789,-2.11914 C 571.77826,84.032722 546.90002,45.201241 512.10547,27.652344 477.29306,10.094436 432.75168,14.115723 410.74414,47.507812 c -0.62202,0.943394 -1.83093,1.049464 -2.60742,0.228516 C 381.63403,19.685835 345.96323,6.9216471 311.06445,6.1679687 Z m -0.10156,4.6601563 c 33.83311,0.730664 68.2332,13.065024 93.78711,40.111328 2.76702,2.925433 7.66822,2.496533 9.88477,-0.865234 20.50909,-31.118504 62.23334,-34.972075 95.37304,-18.257813 33.15757,16.723273 56.7234,52.610925 39.65821,103.687504 -1.59414,4.77469 3.12169,9.56284 7.91992,8.04101 a 2.3310322,2.3310322 0 0 0 0,-0.002 c 27.66115,-8.78128 49.02437,-7.23713 64.35156,-0.11524 15.33357,7.12504 25.01622,19.86099 29.11133,35.29297 8.18426,30.84158 -6.88055,72.20931 -50.53906,93.74219 -3.77201,1.86161 -4.68374,7.00039 -1.78125,10.04492 a 2.3310322,2.3310322 0 0 0 0,0.002 c 25.92174,27.17913 35.58057,69.57832 20.44726,100.17187 -7.57563,15.31495 -21.10867,28.03168 -42.85351,35.34766 -21.73535,7.31278 -51.7915,8.9993 -91.47266,1.15039 -1.57489,-0.31205 -3.21097,-0.0121 -4.57422,0.83593 a 2.3310322,2.3310322 0 0 0 -0.002,0 c -98.47318,61.29739 -171.5923,74.86201 -217.37696,63.24219 -22.90995,-5.81438 -39.24782,-17.60617 -49.36914,-33.22656 -10.12131,-15.62039 -14.04437,-35.16553 -11.65625,-56.61133 a 2.3310322,2.3310322 0 0 0 0,-0.002 c 0.56744,-5.12285 -5.33139,-8.80412 -9.68359,-6.04297 a 2.3310322,2.3310322 0 0 0 -0.002,0.002 c -36.77112,23.35248 -71.46734,25.55412 -95.080081,13.39063 -23.634474,-12.17469 -37.602467,-38.65691 -32.046875,-77.96094 0.507112,-3.58068 -2.164445,-6.91324 -5.769532,-7.19922 -17.508743,-1.38577 -30.135426,-4.80643 -37.876953,-9.16797 -7.800379,-4.39469 -10.616843,-8.85855 -11.037109,-14.6914 -0.4127846,-5.72903 2.256768,-13.69185 9.019531,-23.02344 6.765891,-9.3359 17.429943,-19.91491 31.642578,-31.01563 3.88916,-3.03873 2.761691,-9.47156 -1.929687,-11.00586 -23.41103,-7.65864 -33.31848,-18.44386 -35.349609,-29.29492 -2.026067,-10.824 3.722482,-24.1616 17.503906,-37.24804 27.55073,-26.16136 85.415791,-48.77864 153.789061,-44.13282 a 2.3310322,2.3310322 0 0 0 1.5293,-0.47851 c 1.12291,-0.12777 2.21319,-0.44742 3.13086,-1.14649 a 2.3310322,2.3310322 0 0 0 0.23633,-0.20507 l 0.01,-0.01 a 2.3310322,2.3310322 0 0 0 0.0937,-0.0996 c 0.94907,-1.06643 1.34545,-2.43049 1.43359,-3.83008 a 2.3310322,2.3310322 0 0 0 0.28321,-1.1914 c -2.34533,-22.623441 4.807,-41.976254 18.26758,-57.791019 13.45299,-15.805862 33.37202,-27.859322 56.0957,-34.535157 14.20318,-4.172653 29.45335,-6.244229 44.83203,-5.912109 z"
               id="path11302" />
          </g>
          <g
             id="path1004"
             style="fill:#002acd;fill-opacity:1;stroke:none;stroke-opacity:1;stroke-width:0.84756326;stroke-miterlimit:4;stroke-dasharray:none">
            <path
               style="color:#000000;stroke:none;stroke-width:0.84756326;stroke-linecap:round;stroke-linejoin:round;fill:#002acd;fill-opacity:1;stroke-opacity:1;stroke-miterlimit:4;stroke-dasharray:none"
               d="m 627.12891,82.216797 c -6.13014,0.411751 -11.00379,6.225348 -9.78516,12.617187 a 3.010301,3.010301 0 0 0 0,0.002 c 0.80664,4.217181 4.1219,7.547796 8.36133,8.341796 7.28056,1.37423 13.80715,-5.139223 12.44336,-12.421874 -0.79243,-4.231022 -4.10649,-7.56216 -8.33008,-8.371093 -0.91289,-0.175753 -1.81372,-0.226791 -2.68945,-0.167969 z m 1.55273,6.078125 a 3.010301,3.010301 0 0 0 0.002,0.002 c 1.73522,0.331903 3.21947,1.818271 3.54688,3.566406 0.63596,3.396017 -2.01232,6.041099 -5.41016,5.398438 a 3.010301,3.010301 0 0 0 -0.006,0 c -1.74,-0.325887 -3.22459,-1.812611 -3.55859,-3.554688 v -0.002 c -0.64578,-3.394033 2.02962,-6.063997 5.42578,-5.410156 z"
               id="path11292" />
            <path
               style="color:#000000;fill:#002acd;stroke:none;stroke-linecap:round;stroke-linejoin:round;fill-opacity:1;stroke-opacity:1;stroke-width:0.84756326;stroke-miterlimit:4;stroke-dasharray:none"
               d="m 626.97266,79.890625 c -7.51143,0.50453 -13.3994,7.608667 -11.91797,15.378906 a 2.3310322,2.3310322 0 0 0 0,0.0039 c 0.98537,5.151593 5.03709,9.224053 10.21875,10.195313 8.84905,1.67029 16.82372,-6.290416 15.16601,-15.142578 -0.96814,-5.169202 -5.02018,-9.241534 -10.18359,-10.230469 -1.10882,-0.213121 -2.21215,-0.27702 -3.2832,-0.205078 z m 0.3125,4.652344 c 0.67913,-0.04562 1.37617,-0.0069 2.09179,0.130859 a 2.3310322,2.3310322 0 0 0 0.004,0 c 3.28376,0.62893 5.85985,3.218885 6.47656,6.511719 1.06987,5.713125 -4.00865,10.779343 -9.7207,9.701173 a 2.3310322,2.3310322 0 0 0 -0.002,0 c -3.29631,-0.61736 -5.87417,-3.206136 -6.50196,-6.488283 -0.95583,-5.013426 2.9035,-9.536497 7.65235,-9.855468 z m 1.83593,1.464843 1.20118,0.634766 a 2.3310322,2.3310322 0 0 0 -1.50782,-0.623047 c -2.27831,-0.33911 -4.51464,0.323213 -6.00781,1.8125 -1.56268,1.558616 -2.29418,3.920714 -1.83984,6.308594 a 2.3310322,2.3310322 0 0 0 0,0.0059 c 0.52832,2.75563 2.65299,4.888395 5.41797,5.40625 a 2.3310322,2.3310322 0 0 0 0.002,0 c 2.38132,0.450396 4.74017,-0.270402 6.29883,-1.826172 1.55865,-1.555769 2.28181,-3.912011 1.83593,-6.292968 -0.51804,-2.76597 -2.64488,-4.898723 -5.40039,-5.425782 z m -0.88086,4.576172 a 2.3310322,2.3310322 0 0 0 0.002,0 2.3310322,2.3310322 0 0 0 0.004,0.002 c 0.71493,0.136747 1.55659,0.976735 1.69336,1.707032 0.19009,1.015057 -0.0929,1.679657 -0.54883,2.134765 -0.45595,0.455109 -1.12019,0.735232 -2.13671,0.542969 a 2.3310322,2.3310322 0 0 0 -0.01,0 c -7.7e-4,-1.45e-4 -0.001,-0.0018 -0.002,-0.002 -0.71405,-0.135205 -1.55689,-0.971826 -1.69727,-1.699219 -0.19144,-1.00615 0.0921,-1.675306 0.55469,-2.136719 0.46261,-0.461412 1.13247,-0.742921 2.14062,-0.548828 z"
               id="path11294" />
          </g>
          <g
             id="path910"
             style="stroke:none;stroke-width:0.84756326;stroke-opacity:1;fill:#002acd;fill-opacity:1;stroke-miterlimit:4;stroke-dasharray:none">
            <g
               id="path1020"
               style="stroke:none;stroke-opacity:1;fill:#002acd;fill-opacity:1;stroke-width:0.84756326;stroke-miterlimit:4;stroke-dasharray:none">
              <path
                 style="color:#000000;stroke:none;stroke-width:0.84756326;stroke-linecap:round;stroke-linejoin:round;stroke-opacity:1;fill:#002acd;fill-opacity:1;stroke-miterlimit:4;stroke-dasharray:none"
                 d="M 112.57617,0.03320312 C 105.19126,0.52935635 99.315587,7.5339581 100.78516,15.240234 c 0.96881,5.094949 4.97305,9.098583 10.06836,10.066407 8.77889,1.665669 16.65626,-6.197795 15.0039,-14.978516 a 3.6303631,3.6303631 0 0 0 0,-0.0078 C 124.90116,5.2249805 120.90611,1.2196751 115.81836,0.23632813 a 3.6303631,3.6303631 0 0 0 -0.002,0 c -1.09954,-0.21171265 -2.18525,-0.27400404 -3.24024,-0.20312501 z m 1.86719,7.33203128 c 2.05034,0.3975411 3.89271,2.2501862 4.27734,4.2929686 a 3.6303631,3.6303631 0 0 0 0.002,0.01367 c 0.76763,4.079266 -2.43454,7.276281 -6.51563,6.501953 -2.06385,-0.392016 -3.899,-2.227164 -4.29101,-4.291015 a 3.6303631,3.6303631 0 0 0 0,-0.002 c -0.78049,-4.0928138 2.44367,-7.301921 6.52734,-6.5156246 z"
                 id="path11276" />
              <path
                 style="color:#000000;fill:#002acd;stroke:none;stroke-linecap:round;stroke-linejoin:round;stroke-opacity:1;fill-opacity:1;stroke-width:0.84756326;stroke-miterlimit:4;stroke-dasharray:none"
                 d="m 112.57617,-2.296875 v 0.013672 c -0.0511,0.0029 -0.10524,-0.013192 -0.15625,-0.00977 -8.76632,0.5889631 -15.656223,8.8862077 -13.923826,17.9707028 1.147736,6.031786 5.889396,10.772135 11.921876,11.917969 a 2.3310322,2.3310322 0 0 0 0.002,0 c 10.34968,1.963704 19.67663,-7.346858 17.72852,-17.6992186 a 2.3310322,2.3310322 0 0 0 0,-0.00586 C 127.01595,3.8562433 122.2821,-0.88875302 116.25977,-2.0527344 a 2.3310322,2.3310322 0 0 0 -0.002,0 c -1.23392,-0.2375867 -2.45822,-0.2941624 -3.65429,-0.2285156 a 2.3310322,2.3310322 0 0 0 -0.0273,-0.015625 z m 0.15625,4.65625 c 0.85715,-0.057587 1.73942,-0.00789 2.64258,0.1660156 a 2.3310322,2.3310322 0 0 0 0.002,0 c 4.15171,0.8024302 7.40602,4.0664798 8.1875,8.2207034 2.8e-4,0.0015 0.002,0.0025 0.002,0.0039 a 2.3310322,2.3310322 0 0 0 0,0.0098 c 1.35648,7.208403 -5.07007,13.623891 -12.27735,12.257812 h -0.002 c -4.15663,-0.790312 -7.42251,-4.056286 -8.21289,-8.21289 a 2.3310322,2.3310322 0 0 0 0,-0.002 c -1.20675,-6.3280405 3.65472,-12.0400165 9.6582,-12.443359 z m 2.15235,2.7167969 c -2.73177,-0.5259918 -5.40643,0.301907 -7.17579,2.0664062 -1.76935,1.7644993 -2.60389,4.4391609 -2.08203,7.1757809 0.5936,3.125141 3.0194,5.550931 6.14453,6.144532 a 2.3310322,2.3310322 0 0 0 0.002,0 c 2.72741,0.517487 5.39196,-0.309446 7.15625,-2.070313 1.76428,-1.760867 2.59719,-4.425095 2.08398,-7.152344 a 2.3310322,2.3310322 0 0 0 -0.002,-0.01367 c -0.58765,-3.1210148 -3.00237,-5.544944 -6.125,-6.1503911 a 2.3310322,2.3310322 0 0 0 -0.002,0 z M 114,9.6542969 c 4.6e-4,8.9e-5 0.001,-8.95e-5 0.002,0 0.97787,0.1905701 2.24621,1.4714531 2.42774,2.4355471 a 2.3310322,2.3310322 0 0 0 0.002,0.01367 c 0.25442,1.352013 -0.12976,2.326362 -0.79492,2.990234 -0.66479,0.663503 -1.64164,1.047002 -2.99414,0.791016 -1.00257,-0.190431 -2.24708,-1.434943 -2.4375,-2.4375 a 2.3310322,2.3310322 0 0 0 0,-0.0039 c -0.25862,-1.356189 0.12836,-2.333318 0.79687,-3 C 111.6701,9.7770486 112.64926,9.3948527 114,9.6542969 Z"
                 id="path11278" />
            </g>
            <g
               id="path1022"
               style="stroke:none;stroke-opacity:1;fill:#002acd;fill-opacity:1;stroke-width:0.84756326;stroke-miterlimit:4;stroke-dasharray:none">
              <path
                 style="color:#000000;stroke:none;stroke-width:0.84756326;stroke-linecap:round;stroke-linejoin:round;stroke-opacity:1;fill:#002acd;fill-opacity:1;stroke-miterlimit:4;stroke-dasharray:none"
                 d="M 112.5625,-0.17773437 C 105.05201,0.32685566 99.082707,7.4477353 100.57617,15.279297 c 0.98502,5.180191 5.05772,9.252311 10.23828,10.236328 8.91107,1.690748 16.90815,-6.284555 15.25391,-15.195312 l -0.002,-0.03125 a 0.21191204,0.21191204 0 0 0 0,-0.0078 C 125.09413,5.1005431 121.03208,1.0271111 115.85938,0.02734375 a 0.21191204,0.21191204 0 0 0 -0.041,-0.0019531 h -0.002 c -1.09856,-0.20804726 -2.18281,-0.27275713 -3.23828,-0.203125 a 0.21191204,0.21191204 0 0 0 -0.002,0 c -0.004,2.935e-4 -0.009,-2.9814e-4 -0.0137,0 z m 0.0273,0.421875 c 1.03701,-0.0696706 2.10386,-0.007103 3.18555,0.20117187 a 0.21191204,0.21191204 0 0 0 0.002,0 c 5.00217,0.9668053 8.93024,4.9030197 9.8711,9.9121095 1.1e-4,6.18e-4 -1.2e-4,0.0013 0,0.002 a 0.21191204,0.21191204 0 0 0 0,0.0078 c 1.62547,8.637835 -6.11978,16.369041 -14.75586,14.730468 -5.01005,-0.951629 -8.94584,-4.886788 -9.89844,-9.896484 -1.445678,-7.5809749 4.33638,-14.46931594 11.5957,-14.95703137 z M 114.48438,7.15625 c -2.10456,-0.4052245 -4.01033,0.220837 -5.2793,1.4863281 -1.26898,1.2654911 -1.90026,3.1681919 -1.49805,5.2773439 a 0.21191204,0.21191204 0 0 0 0,0.002 c 0.41034,2.16033 2.30061,4.050596 4.46094,4.460937 2.10298,0.399012 4.00094,-0.228001 5.26562,-1.490234 1.26301,-1.260562 1.8904,-3.15314 1.49805,-5.251953 v -0.002 c -5.4e-4,-0.0037 -0.001,-0.008 -0.002,-0.01172 a 0.21191204,0.21191204 0 0 0 0,-0.0078 C 118.5266,9.478339 116.63219,7.5726913 114.48438,7.15625 Z m -0.082,0.4179687 c 5.5e-4,1.066e-4 0.001,-1.067e-4 0.002,0 1.95221,0.3793336 3.74135,2.178835 4.10742,4.1230473 3.1e-4,0.0021 0.002,0.0037 0.002,0.0059 a 0.21191204,0.21191204 0 0 0 0,0.0078 c 0.37205,1.97712 -0.21609,3.720306 -1.38086,4.882812 -1.16476,1.162506 -2.90862,1.74641 -4.88672,1.371094 -1.96736,-0.37369 -3.74741,-2.153726 -4.12109,-4.121094 a 0.21191204,0.21191204 0 0 0 0,-0.002 c -0.37828,-1.983658 0.21196,-3.732748 1.38086,-4.8984376 1.16848,-1.1652767 2.91823,-1.7493925 4.89648,-1.3691407 z"
                 id="path11284" />
              <path
                 style="color:#000000;fill:#002acd;stroke:none;stroke-linecap:round;stroke-linejoin:round;stroke-opacity:1;fill-opacity:1;stroke-width:0.84756326;stroke-miterlimit:4;stroke-dasharray:none"
                 d="m 112.66016,-2.5195313 c -0.005,5.173e-4 -0.0959,0.00701 -0.23047,0.015625 0.005,-3.647e-4 0.003,3.499e-4 0.008,0 a 2.3310322,2.3310322 0 0 0 -0.0254,0.00195 2.3310322,2.3310322 0 0 0 -0.006,0.00586 v -0.00586 -0.00195 c -8.89141,0.5973665 -15.875376,9.0111923 -14.119141,18.2207033 1.16401,6.117363 5.973721,10.925797 12.091801,12.08789 a 2.3310322,2.3310322 0 0 0 0.002,0 c 10.48081,1.988585 19.92437,-7.428588 17.97851,-17.9101557 l 0.0117,0.091797 a 2.3310322,2.3310322 0 0 0 -0.0137,-0.1347656 c -1.14845,-6.119737 -5.94901,-10.9328138 -12.05664,-12.1132813 a 2.3310322,2.3310322 0 0 0 -0.10547,-0.017578 c -0.0679,-0.00988 -0.13673,-0.0054 -0.20508,-0.00977 l 0.25977,0.023437 c -1.23204,-0.2333266 -2.45885,-0.2945594 -3.66211,-0.2285156 a 2.3310322,2.3310322 0 0 0 -0.0234,-0.013672 2.3310322,2.3310322 0 0 0 -0.002,0 v 0.011719 c -0.0404,0.00229 -0.0827,-0.010433 -0.12305,-0.00781 0.13538,-0.00983 0.22542,-0.016105 0.22071,-0.015625 z m -0.24805,0.017578 c 0.008,-6.054e-4 0.004,-0.00138 0.0117,-0.00195 -0.006,3.698e-4 -0.004,-3.802e-4 -0.01,0 a 2.3310322,2.3310322 0 0 0 -0.002,0.00195 z m 3.35352,0.6171875 c 0.007,-3.15e-5 0.0148,-3.15e-5 0.0215,0 l 0.39453,0.037109 a 2.3310322,2.3310322 0 0 0 -0.41601,-0.037109 z m -3.01954,4.4550781 c 0.83722,-0.056247 1.70051,-0.0068 2.58789,0.1640625 a 2.3310322,2.3310322 0 0 0 0.002,0 c 4.06664,0.7859887 7.25359,3.9808597 8.01953,8.048828 a 2.3310322,2.3310322 0 0 0 0.002,0.01563 c 1.32975,7.066327 -4.96396,13.348914 -12.02929,12.009766 h -0.002 c -4.07172,-0.774184 -7.26873,-3.971274 -8.04297,-8.042969 a 2.3310322,2.3310322 0 0 0 0,-0.002 c -1.18279,-6.2024547 3.58552,-11.7984896 9.46289,-12.1933595 z m 2.17969,2.296875 c -2.79877,-0.5388914 -5.54418,0.3069942 -7.36719,2.125 -1.82243,1.8174281 -2.67521,4.5619005 -2.14062,7.3652345 0.6087,3.204672 3.10978,5.705747 6.31445,6.314453 a 2.3310322,2.3310322 0 0 0 0.002,0 c 2.79466,0.53025 5.52892,-0.315642 7.3457,-2.128906 1.78995,-1.786482 2.61284,-4.469046 2.13672,-7.216797 l 0.043,0.34375 c 3.1e-4,-0.0169 2e-5,-0.03388 0,-0.05078 v -0.0078 c -6e-5,-0.0117 2.1e-4,-0.02346 0,-0.03516 a 2.3310322,2.3310322 0 0 0 -0.008,-0.07813 2.3310322,2.3310322 0 0 0 -0.0137,-0.195313 c 0.002,0.01255 -0.0127,-0.05604 -0.0117,-0.05469 a 2.3310322,2.3310322 0 0 0 -0.004,-0.03516 l 0.002,0.02734 c 2e-4,-8.7e-5 -0.002,-0.01462 -0.002,-0.01563 -7.5e-4,-0.004 7.5e-4,-0.0077 0,-0.01172 a 2.3310322,2.3310322 0 0 0 -0.002,-0.02539 c -0.003,-0.01596 -0.0125,-0.029 -0.0156,-0.04492 -0.008,-0.04863 0.005,-0.0067 -0.0254,-0.121094 l 0.01,0.07617 C 120.5561,7.9447873 118.09661,5.4816042 114.92773,4.8671875 a 2.3310322,2.3310322 0 0 0 -0.002,0 z m -9.50781,9.4902345 -0.041,-0.449219 c -3e-5,0.008 -3e-5,0.01739 0,0.02539 a 2.3310322,2.3310322 0 0 0 0.041,0.423828 z m 8.92773,-9.1132814 c -3e-5,8e-7 0.0773,0.00594 0.12305,0.00977 -0.12427,-0.00166 -0.25279,-0.00324 -0.26758,-0.00195 -0.0125,0.00109 0.14467,-0.00782 0.14453,-0.00781 z m 0.49805,0.041016 c 1e-5,1.2e-6 0.002,2e-7 0.002,0 v 0.00195 a 2.3310322,2.3310322 0 0 0 -0.002,-0.00195 z m -0.88477,4.5781251 c 1e-5,2e-7 0.004,-5.2e-6 0.004,0 0.85897,0.1695707 2.09909,1.4226397 2.25781,2.2656247 l -0.0156,-0.0918 c 0,3.7e-5 0.0103,0.03398 0.0117,0.03906 a 2.3310322,2.3310322 0 0 0 0.004,0.05273 2.3310322,2.3310322 0 0 0 0.002,0.01367 c 0.24344,1.2937 -0.11848,2.184133 -0.73633,2.800781 -0.61766,0.616462 -1.50805,0.978441 -2.80469,0.732422 -0.88746,-0.168568 -2.09902,-1.380129 -2.26758,-2.267578 a 2.3310322,2.3310322 0 0 0 0,-0.0039 c -0.24748,-1.297774 0.11705,-2.191019 0.73828,-2.810547 0.61972,-0.6180198 1.51554,-0.9773864 2.80664,-0.7304687 z m 0.0254,0.00195 c 0.0338,0.00283 0.22021,0.018327 0.35156,0.029297 -0.083,-0.00111 -0.17989,-0.00197 -0.17969,-0.00195 z m 13.96679,0.1835936 0.004,0.03711 c 0.01,0.125813 0.0234,0.312623 0.0234,0.3125 -3e-5,0.0013 2e-5,0.0026 0,0.0039 -2e-5,3.56e-4 5e-5,0.0068 0,0.0078 -8.9e-4,-0.01192 -0.0182,-0.240129 -0.0273,-0.361328 z m 0.44141,0.0918 v 0.01953 l 0.002,0.01172 z m -5.06641,0.01953 c -3.9e-4,0.0046 -0.007,0.122162 -0.008,0.144532 -2e-5,-2.51e-4 0,-0.0078 0,-0.0078 0,1.62e-4 0.008,-0.141766 0.008,-0.136719 z m 5.06836,0.05469 0.002,0.117187 c 5.8e-4,-0.03119 5.8e-4,-0.06256 0,-0.09375 a 2.3310322,2.3310322 0 0 0 -0.002,-0.02344 z m -7.79101,0.457031 c -0.0135,-0.02735 0.0568,0.123527 0.0566,0.123047 -2e-5,-3.4e-5 0.0103,0.03398 0.0117,0.03906 -0.0309,-0.07632 -0.061,-0.147052 -0.0684,-0.162109 z m 0.19921,0.632813 c 0.001,0.0036 0.005,0.01923 0.006,0.02148 l 0.0352,0.341797 c 2.2e-4,0.0117 -2e-5,0.02346 0,0.03516 0,-2.14e-4 -0.0229,-0.150836 -0.0449,-0.287109 -0.007,-0.03851 0.011,-0.07279 0.004,-0.111328 z m -4.20117,0.341796 a 2.3310322,2.3310322 0 0 0 0.0352,0.382813 l -0.0254,-0.25 z m -0.32226,0.658204 c 0.0345,0.123535 0.059,0.207546 0.0703,0.248046 -0.0215,-0.0531 -0.0489,-0.117384 -0.0488,-0.117187 3e-5,8.8e-5 -0.0153,-0.09242 -0.0215,-0.130859 z m -10.48438,1.527343 a 2.3310322,2.3310322 0 0 0 0.041,0.447266 l -0.041,-0.425781 c -3e-5,-0.0067 -3e-5,-0.01482 0,-0.02149 z"
                 id="path11286" />
            </g>
          </g>
          <g
             id="path1036"
             style="fill:#002acd;fill-opacity:1;stroke:none;stroke-opacity:1;stroke-width:0.84756326;stroke-miterlimit:4;stroke-dasharray:none">
            <path
               style="color:#000000;stroke:none;stroke-width:0.84756326;stroke-linecap:round;stroke-linejoin:round;fill:#002acd;fill-opacity:1;stroke-opacity:1;stroke-miterlimit:4;stroke-dasharray:none"
               d="m 647.89453,472.08789 c -5.63023,0.37403 -10.11296,5.71541 -8.99023,11.5918 0.74094,3.8858 3.79928,6.92726 7.67773,7.66601 a 2.7652766,2.7652766 0 0 0 0.008,0.002 c 6.68653,1.25543 12.68371,-4.72855 11.42774,-11.41797 a 2.7652766,2.7652766 0 0 0 -0.002,-0.01 c -0.73957,-3.86855 -3.76745,-6.92886 -7.65039,-7.67383 -0.83812,-0.16216 -1.66638,-0.21163 -2.4707,-0.1582 z m 1.41992,5.58594 a 2.7652766,2.7652766 0 0 0 0.006,0.002 c 1.55268,0.29684 2.95996,1.71161 3.26172,3.2793 0.58078,3.10716 -1.85868,5.53837 -4.96875,4.95703 -1.57917,-0.30283 -2.97794,-1.69765 -3.27734,-3.26953 a 2.7652766,2.7652766 0 0 0 0,-0.002 c -0.59689,-3.12411 1.86354,-5.56949 4.97851,-4.96679 z"
               id="path11268" />
            <path
               style="color:#000000;fill:#002acd;stroke:none;stroke-linecap:round;stroke-linejoin:round;fill-opacity:1;stroke-opacity:1;stroke-width:0.84756326;stroke-miterlimit:4;stroke-dasharray:none"
               d="m 647.74023,469.76172 c -7.01301,0.46589 -12.51119,7.10008 -11.125,14.35547 0.92006,4.82517 4.71895,8.60095 9.53125,9.51758 a 2.3310322,2.3310322 0 0 0 0.0137,0.004 c 8.25512,1.54994 15.69923,-5.87897 14.14843,-14.13867 a 2.3310322,2.3310322 0 0 0 -0.004,-0.0176 c -0.91732,-4.79831 -4.67724,-8.60011 -9.5,-9.52539 -1.03118,-0.19917 -2.06087,-0.26198 -3.06446,-0.19531 z m 0.3086,4.65234 c 0.60378,-0.0401 1.2293,-0.003 1.87304,0.1211 a 2.3310322,2.3310322 0 0 0 0.004,0 c 2.94311,0.56465 5.23896,2.88348 5.80078,5.82226 a 2.3310322,2.3310322 0 0 0 0,0.002 c 0.96114,5.11913 -3.5891,9.65819 -8.70703,8.69727 a 2.3310322,2.3310322 0 0 0 -0.002,0 c -2.94458,-0.56087 -5.2624,-2.86803 -5.82422,-5.81445 -0.85926,-4.49738 2.60804,-8.54596 6.85547,-8.82813 z m 1.43164,0.93555 a 2.3310322,2.3310322 0 0 0 -0.0664,0.0508 c -2.12641,-0.30159 -4.22162,0.31065 -5.625,1.70898 -1.4812,1.47588 -2.17245,3.71675 -1.74219,5.96875 0.50165,2.63369 2.49771,4.61885 5.12696,5.12305 a 2.3310322,2.3310322 0 0 0 0.0117,0.002 c 2.24007,0.41872 4.46667,-0.26556 5.9414,-1.73632 1.47474,-1.47076 2.16495,-3.6986 1.7461,-5.93946 a 2.3310322,2.3310322 0 0 0 -0.002,-0.0137 c -0.48678,-2.52891 -2.33949,-4.42929 -4.82226,-5.02539 l -0.0234,0.12109 a 2.3310322,2.3310322 0 0 0 -0.26367,-0.2207 c -0.001,-2.8e-4 -0.002,-0.002 -0.004,-0.002 h 0.004 a 2.3310322,2.3310322 0 0 0 -0.004,-0.002 c -0.0973,-0.0188 -0.18601,0.0283 -0.2832,0.0137 z m -0.60938,4.61328 a 2.3310322,2.3310322 0 0 0 0.0117,0.002 c 0.46555,0.089 1.30956,0.92697 1.40821,1.42969 0.1567,0.85807 -0.0798,1.39724 -0.45508,1.77149 -0.37562,0.3746 -0.92199,0.61334 -1.78516,0.45507 -0.5291,-0.10325 -1.32876,-0.90469 -1.42578,-1.41406 a 2.3310322,2.3310322 0 0 0 0,-0.004 c -0.16662,-0.8721 0.0746,-1.4158 0.45312,-1.79296 0.37854,-0.37717 0.92507,-0.6152 1.79297,-0.44727 z"
               id="path11270" />
          </g>
          <g
             id="path1052"
             style="fill:#002acd;fill-opacity:1;stroke:none;stroke-opacity:1;stroke-width:0.84756326;stroke-miterlimit:4;stroke-dasharray:none">
            <path
               style="color:#000000;stroke:none;stroke-width:0.84756326;stroke-linecap:round;stroke-linejoin:round;fill:#002acd;fill-opacity:1;stroke-opacity:1;stroke-miterlimit:4;stroke-dasharray:none"
               d="m 530.01562,472.45703 c -4.85551,0.33148 -8.71424,4.93394 -7.74804,9.99805 1.2e-4,6.6e-4 -1.3e-4,10e-4 0,0.002 0.63142,3.35403 3.26786,5.98898 6.62304,6.61719 5.76829,1.08812 10.94097,-4.07143 9.86329,-9.8418 l 0.041,0.42774 a 2.3852385,2.3852385 0 0 0 -0.041,-0.43946 c -0.62751,-3.35144 -3.25399,-5.99104 -6.60547,-6.63281 -0.7232,-0.13816 -1.43908,-0.17822 -2.13282,-0.13086 z m 1.23633,4.81445 c 1.34796,0.25812 2.56127,1.47829 2.81446,2.82618 10e-5,5.5e-4 -1.1e-4,10e-4 0,0.002 a 2.3852385,2.3852385 0 0 0 0,0.008 c 0.50207,2.6883 -1.60286,4.78807 -4.29297,4.2793 a 2.3852385,2.3852385 0 0 0 -0.004,-0.002 c -1.34212,-0.2513 -2.56316,-1.47233 -2.81445,-2.81446 a 2.3852385,2.3852385 0 0 0 -0.002,-0.008 c -0.51418,-2.69155 1.60441,-4.8038 4.29883,-4.28906 z"
               id="path11260" />
            <path
               style="color:#000000;fill:#002acd;stroke:none;stroke-linecap:round;stroke-linejoin:round;fill-opacity:1;stroke-opacity:1;stroke-width:0.84756326;stroke-miterlimit:4;stroke-dasharray:none"
               d="m 529.85742,470.13086 c -6.06372,0.41396 -10.79371,6.00778 -9.91992,12.24023 0.001,-0.0187 0.0133,-0.17651 0.0117,-0.16211 -0.002,0.0208 0.003,0.21741 0.006,0.37305 0.0168,0.1047 0.003,0.20553 0.0234,0.31055 0.80994,4.29247 4.18588,7.66777 8.48046,8.47265 7.03574,1.32721 13.33455,-4.70443 12.63672,-11.67382 a 2.3310322,2.3310322 0 0 0 0.0293,-0.0312 c -3e-5,-0.0747 -0.016,-0.14816 -0.0195,-0.22266 h 0.01 l -0.041,-0.42773 -0.01,0.002 c -0.0102,-0.0732 -0.006,-0.14798 -0.0195,-0.2207 -0.80328,-4.29024 -4.16897,-7.6707 -8.45898,-8.49219 -0.9201,-0.17578 -1.83697,-0.22883 -2.72852,-0.16797 z m -9.8789,12.76172 -0.004,-0.0215 a 2.3310322,2.3310322 0 0 0 0.002,0.0176 c 2.8e-4,0.001 0.002,0.002 0.002,0.004 z m -0.004,-0.0215 c 2e-5,9e-5 -0.01,-0.12991 -0.0195,-0.25976 9.3e-4,0.0548 0.002,0.14635 0.002,0.14648 a 2.3310322,2.3310322 0 0 0 0.0176,0.11328 z m 10.19922,-8.08789 c 0.49593,-0.0339 1.0108,-0.007 1.53711,0.0937 2.39845,0.45928 4.27215,2.34045 4.73828,4.73242 l 0.01,0.11133 c 0.3597,2.042 -0.34478,3.9543 -1.64648,5.29297 1.30206,-1.34616 1.91745,-3.33931 1.54492,-5.33398 l 0.01,0.11523 c -0.003,-0.0406 -0.008,-0.11325 -0.008,-0.11328 a 2.3310322,2.3310322 0 0 0 -0.002,-0.0137 c -0.45549,-2.42488 -2.24116,-4.22084 -4.66797,-4.68555 a 2.3310322,2.3310322 0 0 0 -0.01,0.002 c -0.89594,-0.16969 -1.77898,-0.0745 -2.61914,0.12305 0.37531,-0.10284 0.71724,-0.29718 1.11328,-0.32422 z m -1.7461,0.50782 c -0.56527,0.20119 -1.05021,0.53482 -1.52148,0.89062 0.47246,-0.3714 0.95954,-0.66821 1.52148,-0.89062 z m -2.36328,1.59375 c -0.49218,0.56296 -0.88861,1.20715 -1.13476,1.92773 0.27284,-0.71258 0.63117,-1.36628 1.13476,-1.92773 z m -1.26172,2.17773 c -0.26807,0.92591 -0.33068,1.93236 -0.13867,2.9375 0.45558,2.43324 2.24257,4.22018 4.67578,4.67578 l -0.61328,-0.20703 0.004,0.004 a 2.3310322,2.3310322 0 0 0 0.60937,0.20507 c 1.97542,0.37361 3.94155,-0.2316 5.29102,-1.5039 -1.35384,1.28569 -3.26479,1.99491 -5.30859,1.60937 a 2.3310322,2.3310322 0 0 0 -0.002,0 c -2.41343,-0.45188 -4.30747,-2.34492 -4.76172,-4.75781 a 2.3310322,2.3310322 0 0 0 -0.002,-0.008 c -0.19942,-1.04523 -0.0584,-2.03162 0.24609,-2.95508 z m 6.01172,0.5 c 2.8e-4,5e-5 0.002,-5e-5 0.002,0 0.27007,0.0538 0.9082,0.6945 0.95898,0.96484 a 2.3310322,2.3310322 0 0 0 0,0.008 c 0.12301,0.65865 -0.0552,1.01101 -0.30469,1.25976 -0.24912,0.24839 -0.60289,0.42663 -1.26172,0.30274 a 2.3310322,2.3310322 0 0 0 -0.01,-0.004 c -0.25103,-0.047 -0.90613,-0.70211 -0.95313,-0.95313 a 2.3310322,2.3310322 0 0 0 -0.004,-0.0156 c -0.1253,-0.65586 0.0511,-1.00876 0.30273,-1.25977 0.25164,-0.251 0.6101,-0.42871 1.26953,-0.30273 z m 5.56836,0.2832 c -10e-6,-1.4e-4 0.001,0.0782 0.002,0.12696 l 0.0117,0.13086 a 2.3310322,2.3310322 0 0 0 -0.0137,-0.25782 z m -4.63867,0.0547 c -0.002,0.0189 0.002,0.15304 0.004,0.2793 -0.005,-0.0635 -0.0117,-0.14848 -0.0117,-0.14844 -10e-6,1.4e-4 0.009,-0.14625 0.008,-0.13086 z m 4.64063,0.11523 c 0.002,0.12639 0.006,0.26245 0.004,0.28125 -0.001,0.0151 0.008,-0.13072 0.008,-0.13085 10e-6,-5e-5 -0.007,-0.086 -0.0117,-0.1504 z m -4.64649,0.11719 a 2.3310322,2.3310322 0 0 0 0.01,0.11133 c 6.9e-4,0.0388 0.002,0.11121 0.002,0.11133 z m -7.17773,1.90625 0.0176,0.11719 c -10e-6,-1.3e-4 0.001,0.0901 0.002,0.14258 -0.01,-0.12956 -0.0195,-0.25968 -0.0195,-0.25977 z"
               id="path11262" />
          </g>
          <g
             id="path1084"
             style="fill:#002acd;fill-opacity:1;stroke:none;stroke-opacity:1;stroke-width:0.84756326;stroke-miterlimit:4;stroke-dasharray:none">
            <path
               style="color:#000000;stroke:none;stroke-width:0.84756326;stroke-linecap:round;stroke-linejoin:round;fill:#002acd;fill-opacity:1;stroke-opacity:1;stroke-miterlimit:4;stroke-dasharray:none"
               d="m 138.29492,457.32422 c -5.14643,0.16214 -9.30491,5.14162 -8.01172,10.48047 0.73106,3.02044 3.09248,5.38313 6.11328,6.11328 a 2.3952395,2.3952395 0 0 0 0.004,0 c 6.08668,1.46405 11.68981,-4.1472 10.23828,-10.22461 -0.71765,-3.02127 -3.07268,-5.3863 -6.08594,-6.12891 a 2.3952395,2.3952395 0 0 0 -0.004,0 c -0.76244,-0.18637 -1.5187,-0.26339 -2.25391,-0.24023 z m -0.9043,4.88281 c 0.60963,-0.15826 1.29519,-0.16696 2.01954,0.01 7e-4,1.7e-4 0.001,-1.7e-4 0.002,0 1.20299,0.2991 2.28524,1.39118 2.56836,2.58593 a 2.3952395,2.3952395 0 0 0 0,0.004 c 0.68814,2.88119 -1.56574,5.14781 -4.45703,4.45508 -1.19835,-0.28965 -2.29629,-1.38563 -2.58594,-2.58399 a 2.3952395,2.3952395 0 0 0 0,-0.002 c -0.52655,-2.17383 0.62249,-3.99349 2.45312,-4.46875 z"
               id="path11252" />
            <path
               style="color:#000000;fill:#002acd;stroke:none;stroke-linecap:round;stroke-linejoin:round;fill-opacity:1;stroke-opacity:1;stroke-width:0.84756326;stroke-miterlimit:4;stroke-dasharray:none"
               d="m 138.2207,454.99414 c -6.60814,0.20819 -11.84351,6.58715 -10.20312,13.35938 0.93565,3.86572 3.96475,6.89532 7.83203,7.83007 a 2.3310322,2.3310322 0 0 0 0.006,0 c 7.71884,1.85664 14.89077,-5.31912 13.05078,-13.02929 v -0.002 c -0.91992,-3.8698 -3.93987,-6.90149 -7.79492,-7.85156 a 2.3310322,2.3310322 0 0 0 -0.5586,-0.0664 l 0.54883,0.0664 c -0.96389,-0.23561 -1.93283,-0.3365 -2.88086,-0.30664 z m 0.14844,4.66016 c 0.52178,-0.0164 1.06472,0.0371 1.625,0.17382 5.7e-4,1.5e-4 0.001,-1.4e-4 0.002,0 2.17004,0.53548 3.85925,2.233 4.375,4.4043 a 2.3310322,2.3310322 0 0 0 0,0.002 c 0.46566,1.94965 -0.16075,3.74499 -1.26172,5.14258 1.06397,-1.40538 1.5855,-3.24053 1.13868,-5.11133 -0.51694,-2.18145 -2.09888,-3.76988 -4.27344,-4.31054 a 2.3310322,2.3310322 0 0 0 -0.0117,-0.002 c -0.92116,-0.22504 -1.83689,-0.16295 -2.7168,-0.002 0.3798,-0.0895 0.72483,-0.28433 1.12305,-0.29687 z m 1.25391,0.26367 c 0.16341,0.0165 0.3182,0.0303 0.32812,0.0312 a 2.3310322,2.3310322 0 0 0 -0.14844,-0.0293 c -1.2e-4,-2e-5 -0.11534,-9e-4 -0.17968,-0.002 z m -3.3125,0.28125 c -0.32973,0.12385 -0.63592,0.28471 -0.93164,0.4668 0.30148,-0.18977 0.60122,-0.33053 0.93164,-0.4668 z m -2.08985,1.42383 c -0.24381,0.26136 -0.5005,0.50804 -0.69531,0.81054 0.20743,-0.30177 0.44004,-0.5491 0.69531,-0.81054 z m -1.11328,1.66015 c -0.53138,1.20149 -0.77034,2.55923 -0.43555,3.94141 a 2.3310322,2.3310322 0 0 0 0,0.002 c 0.52942,2.19034 2.11726,3.77207 4.30469,4.30078 a 2.3310322,2.3310322 0 0 0 0.004,0.002 c 1.90036,0.45531 3.77026,-0.0793 5.17969,-1.17774 -1.40397,1.13583 -3.23111,1.77794 -5.21485,1.30078 a 2.3310322,2.3310322 0 0 0 -0.002,0 c -2.17431,-0.52554 -3.86806,-2.22133 -4.39453,-4.39648 -0.35001,-1.44497 -0.0206,-2.77565 0.55859,-3.97266 z m 4.86914,1.17969 c 0.21694,-0.0563 0.50087,-0.0727 0.875,0.0176 0.23194,0.0597 0.8079,0.64857 0.85938,0.85742 1.1e-4,4.8e-4 0.002,0.001 0.002,0.002 a 2.3310322,2.3310322 0 0 0 0,0.008 c 0.17842,0.74702 -0.0134,1.12624 -0.26758,1.38086 -0.25351,0.25392 -0.62708,0.44523 -1.375,0.26757 -0.20926,-0.0506 -0.8173,-0.65885 -0.86719,-0.86523 a 2.3310322,2.3310322 0 0 0 0,-0.004 c -0.27385,-1.13057 0.1138,-1.49281 0.77344,-1.66406 z m 0.89844,0.0215 c 0.016,0.002 0.16885,0.0166 0.33398,0.0332 -0.0692,-0.001 -0.18762,-0.002 -0.1875,-0.002 z"
               id="path11254" />
          </g>
        </g>
      </g>
    </g>
  </g>
</svg>
