<?xml version="1.0" encoding="UTF-8" standalone="no"?>
<!-- Created with Inkscape (http://www.inkscape.org/) -->

<svg
   xmlns:dc="http://purl.org/dc/elements/1.1/"
   xmlns:cc="http://creativecommons.org/ns#"
   xmlns:rdf="http://www.w3.org/1999/02/22-rdf-syntax-ns#"
   xmlns:svg="http://www.w3.org/2000/svg"
   xmlns="http://www.w3.org/2000/svg"
   xmlns:sodipodi="http://sodipodi.sourceforge.net/DTD/sodipodi-0.dtd"
   xmlns:inkscape="http://www.inkscape.org/namespaces/inkscape"
   version="1.1"
   id="svg2"
   width="61"
   height="163"
   viewBox="0 0 61 163"
   sodipodi:docname="commerce_v4.svg"
   inkscape:version="0.92.5 (2060ec1f9f, 2020-04-08)">
  <metadata
     id="metadata8">
    <rdf:RDF>
      <cc:Work
         rdf:about="">
        <dc:format>image/svg+xml</dc:format>
        <dc:type
           rdf:resource="http://purl.org/dc/dcmitype/StillImage" />
        <dc:title></dc:title>
      </cc:Work>
    </rdf:RDF>
  </metadata>
  <defs
     id="defs6" />
  <sodipodi:namedview
     pagecolor="#ffffff"
     bordercolor="#666666"
     borderopacity="1"
     objecttolerance="10"
     gridtolerance="10"
     guidetolerance="10"
     inkscape:pageopacity="0"
     inkscape:pageshadow="2"
     inkscape:window-width="1920"
     inkscape:window-height="1134"
     id="namedview4"
     showgrid="false"
     inkscape:zoom="2.8284272"
     inkscape:cx="43.718186"
     inkscape:cy="127.66679"
     inkscape:window-x="1920"
     inkscape:window-y="0"
     inkscape:window-maximized="1"
     inkscape:current-layer="g958" />
  <g
     id="g958">
    <g
       id="g864">
      <path
         style="opacity:1;vector-effect:none;fill:#ffffff;fill-opacity:1;fill-rule:nonzero;stroke:none;stroke-width:3.4000001;stroke-linecap:round;stroke-linejoin:round;stroke-miterlimit:4;stroke-dasharray:none;stroke-dashoffset:154.69606018;stroke-opacity:1;paint-order:markers fill stroke"
         d="m 22.182094,46.153548 c -2.134122,-10e-7 -3.851399,1.800166 -3.851399,4.034934 v 8.11732 C 8.8691965,62.049519 2.3523834,70.098381 2.3523834,79.471184 c 0,0.324942 0.01349,0.646287 0.029,0.96793 -0.0011,0.07658 -0.01087,0.150869 -0.01087,0.227748 v 64.532398 c 0,7.89309 6.068254,14.24753 13.6058506,14.24753 H 44.72863 c 7.53759,0 13.60585,-6.35444 13.60585,-14.24753 V 80.666862 c 0,-0.473445 -0.0244,-0.941217 -0.0671,-1.402549 -0.0953,-9.265626 -6.55511,-17.212249 -15.91669,-20.937634 v -8.138197 c 0,-2.234768 -1.71909,-4.034934 -3.85321,-4.034934 z"
         id="rect825"
         inkscape:connector-curvature="0" />
      <path
         style="fill:none;stroke:#002ddc;stroke-width:2.9;stroke-linecap:round;stroke-linejoin:round;stroke-opacity:1;stroke-miterlimit:4;stroke-dasharray:none"
         d="m 6.9931144,82.449682 c 0,0 2.0720339,-1.554025 8.0291316,-1.554025 5.957097,0 26.677436,8.201801 37.641949,8.201801"
         id="path819"
         inkscape:connector-curvature="0" />
      <path
         style="fill:#000000;fill-opacity:1;stroke:#002ddc;stroke-width:3.0999999;stroke-linecap:round;stroke-linejoin:round;stroke-miterlimit:4;stroke-dasharray:none;stroke-opacity:1"
         d="M 25.456968,44.975953 V 32.009727"
         id="path849"
         inkscape:connector-curvature="0" />
      <path
         style="fill:#000000;fill-opacity:1;stroke:#002ddc;stroke-width:3.0999999;stroke-linecap:round;stroke-linejoin:round;stroke-miterlimit:4;stroke-dasharray:none;stroke-opacity:1"
         d="M 34.879237,21.373092 V 2.1099586"
         id="path849-6"
         inkscape:connector-curvature="0" />
      <path
         style="fill:#000000;fill-opacity:1;stroke:#002ddc;stroke-width:3.0999999;stroke-linecap:round;stroke-linejoin:round;stroke-miterlimit:4;stroke-dasharray:none;stroke-opacity:1"
         d="M 25.46875,7.285105 V 2.643391"
         id="path849-6-7"
         inkscape:connector-curvature="0" />
      <path
         style="fill:#000000;fill-opacity:1;stroke:#002ddc;stroke-width:3.09999967;stroke-linecap:round;stroke-linejoin:round;stroke-miterlimit:4;stroke-dasharray:none;stroke-opacity:1"
         d="M 35.051907,45.129479 V 42.413951"
         id="path849-6-5"
         inkscape:connector-curvature="0" />
      <path
         sodipodi:nodetypes="csssc"
         inkscape:connector-curvature="0"
         id="path866"
         d="m 34.862393,38.135461 c 0,0 3.535358,0.128559 3.535358,-3.50322 0,-3.037194 -2.789365,-6.202948 -3.275883,-6.202948 -0.486516,0 -3.522466,3.188581 -3.522466,6.206327 0,3.017747 2.322391,3.499841 3.262991,3.499841 z"
         style="fill:#ffffff;stroke:#002ddc;stroke-width:2.29999971;stroke-linecap:round;stroke-linejoin:round;stroke-miterlimit:4;stroke-dasharray:none;stroke-opacity:1;fill-opacity:1" />
      <path
         sodipodi:nodetypes="csssc"
         inkscape:connector-curvature="0"
         id="path866-6"
         d="m 25.258711,27.201042 c 0,0 5.117634,0.181738 5.117634,-4.952328 0,-4.293528 -4.037766,-8.768798 -4.74203,-8.768798 -0.70426,0 -5.098972,4.507539 -5.098972,8.773576 0,4.266038 3.361795,4.94755 4.723368,4.94755 z"
         style="fill:#ffffff;stroke:#002ddc;stroke-width:2.29999971;stroke-linecap:round;stroke-linejoin:round;stroke-miterlimit:4;stroke-dasharray:none;stroke-opacity:1;fill-opacity:1" />
      <path
         sodipodi:nodetypes="csccssccscscssssc"
         inkscape:connector-curvature="0"
         id="path853"
         d="M 58.334398,133.37517 V 80.666864 c 0,-0.473445 -0.0244,-0.941217 -0.0671,-1.402549 -0.0953,-9.265626 -6.55511,-17.212249 -15.91669,-20.937634 v -8.138197 c 0,-2.234768 -1.71909,-4.034934 -3.85321,-4.034934 H 22.182005 v 0 c -2.13412,-1e-6 -3.851397,1.800166 -3.851397,4.034934 v 8.11732 C 8.8691091,62.049521 2.3522958,70.098383 2.3522958,79.471186 c 0,0.324942 0.01349,0.646287 0.029,0.96793 -0.0012,0.07658 -0.01087,0.150869 -0.01087,0.227748 v 64.532396 c 0,7.89309 6.0682543,14.24753 13.6058512,14.24753 h 28.752271 c 6.66187,0 12.17599,-4.96369 13.36733,-11.56633"
         style="opacity:1;vector-effect:none;fill:none;fill-opacity:1;fill-rule:nonzero;stroke:#002ddc;stroke-width:3.4000001;stroke-linecap:round;stroke-linejoin:round;stroke-miterlimit:4;stroke-dasharray:none;stroke-dashoffset:154.69606018;stroke-opacity:1;paint-order:markers fill stroke" />
    </g>
  </g>
</svg>
