<?xml version="1.0" encoding="UTF-8" standalone="no"?>
<!-- Created with Inkscape (http://www.inkscape.org/) -->

<svg
   width="65"
   height="100"
   viewBox="0 0 17.197916 26.458334"
   version="1.1"
   id="svg127350"
   inkscape:export-filename="C:\Users\Agathe\Desktop\commerces.png"
   inkscape:export-xdpi="200"
   inkscape:export-ydpi="200"
   inkscape:version="1.1 (c68e22c387, 2021-05-23)"
   sodipodi:docname="eau_petillante.svg"
   xmlns:inkscape="http://www.inkscape.org/namespaces/inkscape"
   xmlns:sodipodi="http://sodipodi.sourceforge.net/DTD/sodipodi-0.dtd"
   xmlns="http://www.w3.org/2000/svg"
   xmlns:svg="http://www.w3.org/2000/svg">
  <sodipodi:namedview
     id="namedview127352"
     pagecolor="#ffffff"
     bordercolor="#666666"
     borderopacity="1.0"
     inkscape:pageshadow="2"
     inkscape:pageopacity="0"
     inkscape:pagecheckerboard="0"
     inkscape:document-units="mm"
     showgrid="false"
     units="px"
     inkscape:zoom="4.2230385"
     inkscape:cx="55.41034"
     inkscape:cy="71.867685"
     inkscape:window-width="2400"
     inkscape:window-height="1271"
     inkscape:window-x="2391"
     inkscape:window-y="-9"
     inkscape:window-maximized="1"
     inkscape:current-layer="layer1" />
  <defs
     id="defs127347" />
  <g
     inkscape:label="Calque 1"
     inkscape:groupmode="layer"
     id="layer1">
    <g
       id="g66"
       transform="matrix(0.02621559,0,0,0.02621559,-6.3686081,-2.0912649)">
      <g
         id="g8">
        <path
           style="color:#000000;fill:#1c17e2;-inkscape-stroke:none"
           d="m 712.08,434.32 c 0.51,-1.26 0.88,-2.57 0.91,-3.96 0.17,-6.71 -10.16,-6.74 -10.47,-0.13 -0.01,0.01 -0.02,0.02 -0.02,0.03 0.02,-0.13 0.05,-0.26 0.09,-0.35 -0.08,0.18 -0.24,0.5 -0.24,0.56 -0.13,0.17 -0.23,0.32 -0.25,0.38 -0.32,0.33 -0.63,0.67 -0.96,0.99 -0.05,0.05 -0.22,0.19 -0.37,0.31 -0.19,0.13 -0.64,0.44 -0.76,0.52 -4.09,2.59 -6.94,3.62 -11.58,5.12 -13.35,4.31 -27.44,6.56 -41.33,8.28 -40.75,5.04 -82.35,5.48 -123.29,2.67 -17.19,-1.18 -34.41,-2.96 -51.32,-6.34 -6.17,-1.23 -12.33,-2.67 -18.32,-4.61 -4.64,-1.5 -7.5,-2.54 -11.58,-5.12 -0.3,-0.19 -0.58,-0.39 -0.86,-0.6 -0.05,-0.04 -0.09,-0.07 -0.14,-0.12 -0.15,-0.14 -0.29,-0.3 -0.43,-0.44 0.22,-0.16 0.57,-0.4 0.67,-0.46 4.03,-2.55 6.8,-3.56 11.29,-5.03 6.09,-1.99 12.35,-3.45 18.62,-4.71 37.64,-7.52 76.9,-8.57 115.16,-7.73 5.26,0.12 10.52,0.29 15.78,0.52 3.48,0.15 5.13,-2.56 5.03,-5.26 1.76,-3.02 0.39,-8.03 -4.26,-8.24 -42.21,-1.85 -85.31,-0.92 -127.03,6.33 -12.37,2.15 -25.56,4.66 -36.75,10.64 -4.8,2.57 -9.45,6.92 -9.96,12.05 -1.11,2.61 -1.19,5.51 0.37,8.54 -0.02,0.27 -0.04,0.54 -0.02,0.84 1.28,16.98 2.55,33.95 3.83,50.93 2.04,27.06 4.07,54.12 6.11,81.17 0.46,6.15 0.93,12.3 1.39,18.45 -0.58,2.5 -0.68,5.08 -0.03,7.6 l 7.43,87.07 c -0.13,0.51 -0.2,1.06 -0.15,1.68 1.09,14.54 2.19,29.09 3.28,43.63 1.74,23.18 3.49,46.35 5.23,69.53 0.4,5.31 0.8,10.63 1.2,15.94 0.08,1.05 0.42,1.91 0.91,2.64 -0.3,0.65 -0.47,1.4 -0.45,2.28 0.24,11.39 12.57,17.66 21.66,21.44 16.35,6.81 34.35,9.68 51.85,11.59 22.73,2.48 45.8,2.69 68.58,0.74 18.52,-1.58 37.5,-4.28 55.05,-10.64 9.74,-3.53 24.54,-9.64 26.31,-21.4 0.57,-1.56 0.92,-3.22 0.96,-5.01 0.02,-0.85 -0.13,-1.59 -0.41,-2.22 0,-0.02 0,-0.04 0,-0.06 0.39,-0.67 0.65,-1.44 0.72,-2.36 0.94,-12.49 1.88,-24.99 2.82,-37.48 2.26,-29.99 4.51,-59.99 6.77,-89.99 2.72,-36.16 5.44,-72.31 8.16,-108.47 2.35,-31.25 4.7,-62.5 7.05,-93.76 0.78,-10.31 1.55,-20.61 2.33,-30.92 0.37,-4.88 0.99,-9.82 1.11,-14.72 0,-0.13 0.02,-0.26 0.03,-0.4 0.15,-0.62 0.21,-1.28 0.28,-1.94 z m -9.6,-3.88 c 0.01,0 0.01,0 0,0 0,0.39 -0.02,0.27 0,0 z m -29.1,369.18 c -0.37,4.88 -0.99,9.82 -1.11,14.72 -0.01,0.22 -0.03,0.44 -0.05,0.66 -0.06,0.86 0.06,1.61 0.31,2.25 -0.18,0.33 -0.24,0.74 -0.34,1.13 -0.13,0.23 -0.26,0.47 -0.39,0.71 -0.08,0.15 -0.19,0.31 -0.27,0.43 -0.27,0.33 -0.56,0.66 -0.85,0.97 -0.67,0.71 -1.4,1.36 -2.16,1.98 -0.16,0.11 -0.79,0.59 -0.92,0.68 -0.45,0.32 -0.92,0.62 -1.38,0.92 -1.09,0.69 -2.21,1.34 -3.36,1.94 -2.56,1.35 -5.2,2.51 -7.91,3.52 -15.37,5.76 -31.93,8.53 -48.2,10.18 -21.06,2.14 -42.37,2.32 -63.47,0.69 -17.11,-1.32 -34.39,-3.77 -50.78,-9.04 -5.99,-1.92 -11.96,-4.25 -17.19,-7.82 -1.35,-0.92 -1.08,-0.69 -2.31,-1.83 -0.39,-0.36 -0.76,-0.74 -1.13,-1.12 -0.2,-0.21 -0.64,-0.79 -0.71,-0.86 -0.18,-0.29 -0.37,-0.58 -0.55,-0.86 -0.11,-0.16 -0.19,-0.35 -0.26,-0.5 -0.11,-0.36 -0.22,-0.73 -0.32,-1.09 0,-0.09 0,-0.19 0,-0.35 -0.02,-1.05 -0.35,-1.88 -0.8,-2.6 0.27,-0.66 0.41,-1.42 0.34,-2.32 -1.09,-14.54 -2.19,-29.09 -3.28,-43.63 -1.66,-22.05 -3.32,-44.11 -4.98,-66.16 l 0.21,-0.02 -7.81,-91.58 c 10.13,5.46 22.3,7.61 33.48,9.31 30.22,4.6 61.06,5.26 91.58,5.02 3.87,-0.03 7.74,-0.08 11.61,-0.15 0.29,0.04 0.52,0.16 0.84,0.15 17.84,-0.43 35.66,-1.62 53.32,-4.18 12.11,-1.76 24.46,-4.02 35.87,-8.59 2.33,-0.93 4.88,-2.03 7.32,-3.36 -1.66,22.04 -3.32,44.09 -4.97,66.13 -2.35,31.25 -4.7,62.5 -7.05,93.76 -0.78,10.3 -1.55,20.61 -2.33,30.91 z m -203.1,18.57 c -0.03,-0.07 -0.03,-0.08 0,0 z M 454.33,593.97 c 0,-0.03 0,-0.06 -0.01,-0.1 -0.03,-0.13 -0.06,-0.26 -0.1,-0.37 -0.04,-0.12 -0.02,-0.13 -0.03,-0.2 0.02,-0.06 0.04,-0.12 0.05,-0.18 0,0 0,-0.01 0,-0.02 0,-0.01 0,-0.01 0,-0.02 0,0 0.01,0 0.01,0.01 0.07,-0.25 0.12,-0.5 0.18,-0.75 0.16,-0.15 0.31,-0.29 0.48,-0.43 0.18,-0.11 1.05,-0.76 1.26,-0.89 0.65,-0.42 1.33,-0.81 2.01,-1.19 1.84,-1.01 3.75,-1.86 5.22,-2.42 10.5,-3.99 21.61,-6.27 32.67,-8.07 32.88,-5.35 66.74,-6.15 99.97,-4.69 15.72,0.69 31.47,1.95 47.02,4.39 11.27,1.76 22.68,3.96 33.4,7.93 3.11,1.15 6.32,2.63 9.45,4.77 0.03,0.02 0.06,0.05 0.1,0.07 0.23,0.19 0.47,0.37 0.68,0.58 0.27,0.26 0.52,0.53 0.77,0.8 -0.06,-0.05 0.06,0.12 0.21,0.33 -0.44,0.42 -0.87,0.82 -1.33,1.22 -0.03,0.03 -0.04,0.04 -0.07,0.06 -0.05,0.03 -0.09,0.06 -0.17,0.11 -0.24,0.16 -0.47,0.33 -0.71,0.49 -1.58,1.01 -3.21,1.92 -4.91,2.72 -9.85,4.67 -22.82,7.15 -34.19,8.95 -14.89,2.36 -29.96,3.49 -45.03,4.06 -0.25,-0.02 -0.5,-0.07 -0.76,-0.06 -18.63,0.71 -37.33,0.63 -55.96,0.07 -15.38,-0.47 -30.78,-1.32 -46.06,-3.14 -0.97,-0.11 -1.94,-0.23 -2.9,-0.36 -0.32,-0.04 -0.64,-0.08 -0.96,-0.12 -0.03,0 -0.03,0 -0.06,-0.01 -0.03,0 -0.03,0 -0.06,-0.01 -1.86,-0.27 -3.72,-0.53 -5.58,-0.83 -3.36,-0.54 -6.72,-1.15 -10.05,-1.86 -5.55,-1.19 -10.9,-2.79 -16.23,-4.75 -0.29,-0.13 -0.58,-0.26 -0.86,-0.39 -0.55,-0.26 -1.09,-0.53 -1.63,-0.81 -1.08,-0.57 -2.1,-1.2 -3.12,-1.86 -0.1,-0.06 -0.2,-0.14 -0.3,-0.21 -0.34,-0.31 -0.71,-0.6 -1.04,-0.92 -0.28,-0.27 -0.53,-0.57 -0.8,-0.85 -0.15,-0.29 -0.34,-0.65 -0.53,-0.96 0,0.01 0,0.01 -0.01,0.02 0,-0.01 -0.01,-0.03 -0.01,-0.04 0.02,-0.03 0,-0.05 -0.01,-0.07 z m 0.01,0.22 c -0.02,0.04 -0.01,0.09 -0.04,0.13 0.02,-0.03 0.02,-0.1 0.03,-0.17 0.01,0.01 0.01,0.02 0.01,0.04 z m 231.88,-2.23 c 0.08,0.07 0.11,0.09 0,0 z m 4.7,-25.48 c -0.3,3.98 -0.6,7.96 -0.9,11.94 -0.09,-0.06 -0.18,-0.12 -0.27,-0.18 -8.97,-5.22 -19.65,-7.78 -29.71,-9.89 -15.59,-3.27 -31.5,-5.09 -47.37,-6.26 -36.84,-2.73 -74.29,-2.1 -110.91,2.98 -13.78,1.91 -27.94,4.29 -40.94,9.45 -2.76,1.1 -5.92,2.44 -8.8,4.18 -1.08,-14.3 -2.15,-28.59 -3.23,-42.89 -2.04,-27.06 -4.07,-54.11 -6.11,-81.17 -0.17,-2.2 -0.33,-4.4 -0.5,-6.6 4.62,2.01 9.63,3.34 13.77,4.47 16.12,4.41 32.91,6.59 49.51,8.26 43.59,4.37 88.09,4.35 131.67,-0.16 16.41,-1.7 33.01,-3.89 48.92,-8.37 4.13,-1.16 9.2,-2.55 13.8,-4.67 -0.73,9.64 -1.45,19.29 -2.18,28.93 -2.24,29.99 -4.49,59.98 -6.75,89.98 z M 702.5,430.3 c 0.01,-0.01 0.01,-0.01 0.01,-0.02 0,0.03 -0.02,0.04 -0.02,0.07 0,0.05 0,0.04 0,0.07 0,0 0,0 -0.01,0.01 0.01,-0.04 0.01,-0.08 0.02,-0.13 z m -260.76,1.8 c 0.38,0.28 0.28,0.23 0,0 z"
           id="path4" />
        <path
           style="color:#000000;fill:#1c17e2;-inkscape-stroke:none"
           d="m 454.38,594.06 c 0.17,-0.46 0.03,-0.85 -0.12,-0.96 0,0.01 -0.01,0.02 -0.01,0.03 0.01,0.12 0.05,0.46 0.07,0.75 0.01,0.05 0.03,0.1 0.04,0.15 0.01,0.01 0.02,0.02 0.02,0.03 z"
           id="path6" />
      </g>
      <g
         id="g64">
        <g
           id="g14">
          <g
             id="g12">
            <path
               style="color:#000000;fill:#1c17e2;-inkscape-stroke:none"
               d="m 657.2,489.6 c -1.26,2.95 -2.17,6.1 -2.04,9.35 0.15,3.58 1.53,6.97 4.64,8.94 3.52,2.24 7.86,1.33 10.91,-1.22 3.12,-2.62 3.86,-7.21 1.89,-10.72 -2.04,-3.64 -6.98,-5.97 -11.02,-4.39 -0.95,0.37 -1.74,0.84 -2.28,1.75 -0.48,0.82 -0.68,2.02 -0.38,2.94 0.3,0.92 0.87,1.81 1.75,2.28 0.85,0.45 2,0.75 2.94,0.38 0.35,-0.14 0.69,-0.23 1.06,-0.29 -0.34,0.05 -0.68,0.09 -1.01,0.14 0.47,-0.06 0.93,-0.06 1.39,0 -0.34,-0.05 -0.68,-0.09 -1.01,-0.14 0.47,0.07 0.91,0.2 1.35,0.38 -0.3,-0.13 -0.61,-0.26 -0.91,-0.38 0.34,0.15 0.67,0.31 0.98,0.51 0.29,0.19 0.55,0.53 -0.26,-0.22 0.13,0.13 0.28,0.24 0.41,0.37 0.13,0.13 0.25,0.27 0.38,0.4 0.41,0.44 -0.55,-0.81 -0.21,-0.27 0.19,0.31 0.37,0.62 0.52,0.96 -0.13,-0.3 -0.26,-0.61 -0.38,-0.91 0.15,0.39 0.26,0.78 0.32,1.2 -0.05,-0.34 -0.09,-0.68 -0.14,-1.01 0.04,0.37 0.04,0.73 0,1.1 0.05,-0.34 0.09,-0.68 0.14,-1.01 -0.06,0.41 -0.17,0.8 -0.32,1.18 0.13,-0.3 0.26,-0.61 0.38,-0.91 -0.15,0.33 -0.32,0.63 -0.51,0.94 -0.33,0.53 0.65,-0.73 0.22,-0.29 -0.13,0.13 -0.24,0.27 -0.37,0.39 -0.08,0.08 -0.38,0.26 -0.41,0.36 0.04,-0.16 0.88,-0.63 0.26,-0.23 -0.31,0.2 -0.63,0.36 -0.97,0.51 0.3,-0.13 0.61,-0.26 0.91,-0.38 -0.48,0.19 -0.97,0.33 -1.49,0.4 0.34,-0.05 0.68,-0.09 1.01,-0.14 -0.41,0.04 -0.81,0.05 -1.22,0 0.34,0.05 0.68,0.09 1.01,0.14 -0.41,-0.06 -0.8,-0.16 -1.19,-0.32 0.3,0.13 0.61,0.26 0.91,0.38 -0.32,-0.14 -0.62,-0.32 -0.92,-0.5 -0.53,-0.32 0.79,0.71 0.26,0.2 -0.12,-0.11 -0.24,-0.22 -0.36,-0.34 -0.1,-0.1 -0.18,-0.21 -0.28,-0.31 0.85,0.9 0.4,0.53 0.19,0.21 -0.17,-0.28 -0.32,-0.57 -0.45,-0.87 0.13,0.3 0.26,0.61 0.38,0.91 -0.28,-0.68 -0.45,-1.38 -0.56,-2.11 0.05,0.34 0.09,0.68 0.14,1.01 -0.14,-1.15 -0.11,-2.31 0.04,-3.46 -0.05,0.34 -0.09,0.68 -0.14,1.01 0.23,-1.66 0.69,-3.27 1.33,-4.82 -0.13,0.3 -0.26,0.61 -0.38,0.91 0.02,-0.05 0.04,-0.09 0.06,-0.14 0.42,-0.98 0.68,-1.86 0.38,-2.94 -0.24,-0.88 -0.93,-1.84 -1.75,-2.28 -0.88,-0.47 -1.96,-0.7 -2.94,-0.38 -0.85,0.26 -1.88,0.84 -2.26,1.73 z"
               id="path10" />
          </g>
        </g>
        <g
           id="g20">
          <g
             id="g18">
            <path
               style="color:#000000;fill:#1c17e2;-inkscape-stroke:none"
               d="m 587.64,544.88 c -0.54,-6.41 -3.77,-14.7 -11.39,-14.81 -4.12,-0.06 -7.57,2.98 -8.75,6.8 -1.18,3.8 0.45,8.06 3.95,10 3.59,1.98 8.69,1.65 11.47,-1.59 0.67,-0.78 1.12,-1.64 1.12,-2.69 0,-0.93 -0.42,-2.05 -1.12,-2.69 -1.43,-1.31 -4,-1.61 -5.39,0 -0.22,0.26 -0.46,0.49 -0.73,0.7 0.26,-0.2 0.51,-0.4 0.77,-0.6 -0.31,0.23 -0.63,0.41 -0.98,0.57 0.3,-0.13 0.61,-0.26 0.91,-0.38 -0.49,0.21 -0.99,0.34 -1.51,0.41 0.34,-0.05 0.68,-0.09 1.01,-0.14 -0.53,0.06 -1.06,0.05 -1.59,-0.01 0.34,0.05 0.68,0.09 1.01,0.14 -0.53,-0.08 -1.04,-0.22 -1.53,-0.42 0.3,0.13 0.61,0.26 0.91,0.38 -0.44,-0.19 -0.85,-0.43 -1.23,-0.72 0.26,0.2 0.51,0.4 0.77,0.6 -0.3,-0.24 -0.56,-0.51 -0.8,-0.8 0.2,0.26 0.4,0.51 0.6,0.77 -0.24,-0.32 -0.43,-0.65 -0.59,-1.01 0.13,0.3 0.26,0.61 0.38,0.91 -0.15,-0.38 -0.25,-0.76 -0.31,-1.17 0.05,0.34 0.09,0.68 0.14,1.01 -0.05,-0.45 -0.05,-0.9 0.01,-1.35 -0.05,0.34 -0.09,0.68 -0.14,1.01 0.08,-0.51 0.22,-0.99 0.41,-1.46 -0.13,0.3 -0.26,0.61 -0.38,0.91 0.21,-0.47 0.46,-0.91 0.77,-1.32 -0.2,0.26 -0.4,0.51 -0.6,0.77 0.32,-0.4 0.67,-0.76 1.07,-1.08 -0.26,0.2 -0.51,0.4 -0.77,0.6 0.36,-0.27 0.75,-0.5 1.17,-0.68 -0.3,0.13 -0.61,0.26 -0.91,0.38 0.38,-0.15 0.76,-0.25 1.17,-0.31 -0.34,0.05 -0.68,0.09 -1.01,0.14 0.45,-0.05 0.9,-0.04 1.35,0.01 -0.34,-0.05 -0.68,-0.09 -1.01,-0.14 0.47,0.07 0.92,0.2 1.36,0.38 -0.3,-0.13 -0.61,-0.26 -0.91,-0.38 0.48,0.21 0.91,0.48 1.32,0.79 -0.26,-0.2 -0.51,-0.4 -0.77,-0.6 0.5,0.4 0.93,0.86 1.33,1.36 -0.2,-0.26 -0.4,-0.51 -0.6,-0.77 0.64,0.84 1.14,1.76 1.55,2.73 -0.13,-0.3 -0.26,-0.61 -0.38,-0.91 0.63,1.52 1.03,3.12 1.25,4.75 -0.05,-0.34 -0.09,-0.68 -0.14,-1.01 0.04,0.31 0.07,0.63 0.1,0.94 0.09,1.03 0.37,1.94 1.12,2.69 0.66,0.66 1.75,1.16 2.69,1.12 1.94,-0.1 4.01,-1.7 3.83,-3.83 z"
               id="path16" />
          </g>
        </g>
        <g
           id="g26">
          <g
             id="g24">
            <path
               style="color:#000000;fill:#1c17e2;-inkscape-stroke:none"
               d="m 490.78,360.52 c -1.23,2.89 -2.12,5.96 -2,9.14 0.14,3.51 1.5,6.83 4.55,8.78 3.41,2.19 7.66,1.35 10.65,-1.11 3.13,-2.57 3.9,-7.05 1.99,-10.57 -1.96,-3.63 -6.9,-5.94 -10.87,-4.38 -0.95,0.37 -1.74,0.84 -2.28,1.75 -0.48,0.82 -0.68,2.02 -0.38,2.94 0.3,0.92 0.87,1.81 1.75,2.28 0.85,0.45 2,0.75 2.94,0.38 0.35,-0.14 0.69,-0.23 1.06,-0.29 -0.34,0.05 -0.68,0.09 -1.01,0.14 0.42,-0.05 0.82,-0.05 1.24,0 -0.34,-0.05 -0.68,-0.09 -1.01,-0.14 0.47,0.07 0.92,0.19 1.36,0.36 -0.3,-0.13 -0.61,-0.26 -0.91,-0.38 0.32,0.13 0.62,0.29 0.91,0.47 0.31,0.2 0.65,0.62 -0.19,-0.18 0.11,0.11 0.24,0.2 0.36,0.31 0.11,0.11 0.22,0.22 0.33,0.34 0.52,0.59 -0.24,-0.2 -0.2,-0.28 -0.02,0.04 0.5,0.87 0.53,0.95 -0.13,-0.3 -0.26,-0.61 -0.38,-0.91 0.16,0.39 0.27,0.78 0.33,1.2 -0.05,-0.34 -0.09,-0.68 -0.14,-1.01 0.04,0.37 0.04,0.73 0,1.1 0.05,-0.34 0.09,-0.68 0.14,-1.01 -0.06,0.41 -0.17,0.8 -0.33,1.18 0.13,-0.3 0.26,-0.61 0.38,-0.91 -0.14,0.31 -0.32,0.57 -0.48,0.87 -0.14,0.25 0.71,-0.84 0.16,-0.23 -0.1,0.12 -0.21,0.23 -0.33,0.33 -0.11,0.11 -0.24,0.2 -0.35,0.31 0.86,-0.8 0.54,-0.41 0.26,-0.23 -0.31,0.2 -0.63,0.36 -0.97,0.5 0.3,-0.13 0.61,-0.26 0.91,-0.38 -0.44,0.17 -0.88,0.29 -1.34,0.36 0.34,-0.05 0.68,-0.09 1.01,-0.14 -0.46,0.06 -0.91,0.06 -1.37,0 0.34,0.05 0.68,0.09 1.01,0.14 -0.36,-0.06 -0.7,-0.15 -1.04,-0.29 0.3,0.13 0.61,0.26 0.91,0.38 -0.33,-0.14 -0.62,-0.32 -0.92,-0.5 -0.51,-0.31 0.75,0.65 0.32,0.25 -0.12,-0.11 -0.24,-0.22 -0.36,-0.34 -0.24,-0.26 -0.5,-0.74 0.19,0.29 -0.08,-0.12 -0.16,-0.23 -0.24,-0.34 -0.18,-0.28 -0.32,-0.57 -0.46,-0.87 0.13,0.3 0.26,0.61 0.38,0.91 -0.28,-0.68 -0.45,-1.39 -0.55,-2.12 0.05,0.34 0.09,0.68 0.14,1.01 -0.13,-1.1 -0.09,-2.21 0.05,-3.31 -0.05,0.34 -0.09,0.68 -0.14,1.01 0.23,-1.61 0.67,-3.18 1.29,-4.68 -0.13,0.3 -0.26,0.61 -0.38,0.91 0.02,-0.05 0.04,-0.09 0.06,-0.14 0.42,-0.98 0.68,-1.86 0.38,-2.94 -0.24,-0.88 -0.93,-1.84 -1.75,-2.28 -0.88,-0.47 -1.96,-0.7 -2.94,-0.38 -0.87,0.29 -1.89,0.87 -2.27,1.75 z"
               id="path22" />
          </g>
        </g>
        <g
           id="g32">
          <g
             id="g30">
            <path
               style="color:#000000;fill:#1c17e2;-inkscape-stroke:none"
               d="m 498.38,194.6 c -1.2,2.83 -2.09,5.84 -1.94,8.95 0.16,3.42 1.49,6.59 4.43,8.5 3.35,2.17 7.54,1.32 10.47,-1.09 3.06,-2.52 3.81,-6.98 1.89,-10.41 -1.96,-3.5 -6.72,-5.74 -10.6,-4.23 -0.95,0.37 -1.74,0.84 -2.28,1.75 -0.48,0.82 -0.68,2.02 -0.38,2.94 0.3,0.92 0.87,1.81 1.75,2.28 0.85,0.45 2,0.75 2.94,0.38 0.35,-0.13 0.69,-0.23 1.06,-0.28 -0.34,0.05 -0.68,0.09 -1.01,0.14 0.42,-0.05 0.82,-0.04 1.24,0.01 -0.34,-0.05 -0.68,-0.09 -1.01,-0.14 0.47,0.07 0.91,0.2 1.35,0.38 -0.3,-0.13 -0.61,-0.26 -0.91,-0.38 0.29,0.13 0.57,0.27 0.83,0.45 0.31,0.2 0.5,0.52 -0.26,-0.22 0.11,0.11 0.24,0.2 0.35,0.31 0.11,0.11 0.22,0.23 0.33,0.34 0.42,0.43 -0.54,-0.82 -0.21,-0.28 0.17,0.27 0.32,0.53 0.45,0.81 -0.13,-0.3 -0.26,-0.61 -0.38,-0.91 0.16,0.39 0.27,0.78 0.34,1.19 -0.05,-0.34 -0.09,-0.68 -0.14,-1.01 0.04,0.37 0.04,0.72 0,1.09 0.05,-0.34 0.09,-0.68 0.14,-1.01 -0.06,0.36 -0.15,0.69 -0.28,1.03 0.13,-0.3 0.26,-0.61 0.38,-0.91 -0.12,0.28 -0.26,0.55 -0.42,0.81 -0.41,0.63 0.12,-0.28 0.23,-0.28 -0.06,0 -0.31,0.34 -0.37,0.4 -0.11,0.11 -0.24,0.2 -0.35,0.31 -0.27,0.27 0.9,-0.59 0.27,-0.23 -0.29,0.17 -0.57,0.34 -0.89,0.48 0.3,-0.13 0.61,-0.26 0.91,-0.38 -0.48,0.2 -0.97,0.34 -1.48,0.41 0.34,-0.05 0.68,-0.09 1.01,-0.14 -0.41,0.04 -0.81,0.04 -1.22,-0.01 0.34,0.05 0.68,0.09 1.01,0.14 -0.36,-0.06 -0.7,-0.15 -1.03,-0.28 0.3,0.13 0.61,0.26 0.91,0.38 -0.3,-0.13 -0.57,-0.3 -0.86,-0.46 -0.64,-0.38 0.7,0.62 0.26,0.21 -0.1,-0.1 -0.21,-0.19 -0.3,-0.29 -0.1,-0.1 -0.18,-0.21 -0.28,-0.31 0.82,0.86 0.46,0.61 0.27,0.32 -0.18,-0.27 -0.33,-0.56 -0.46,-0.86 0.13,0.3 0.26,0.61 0.38,0.91 -0.26,-0.63 -0.43,-1.29 -0.53,-1.96 0.05,0.34 0.09,0.68 0.14,1.01 -0.14,-1.1 -0.11,-2.2 0.04,-3.3 -0.05,0.34 -0.09,0.68 -0.14,1.01 0.22,-1.55 0.64,-3.06 1.24,-4.5 -0.13,0.3 -0.26,0.61 -0.38,0.91 0.02,-0.05 0.04,-0.09 0.06,-0.14 0.42,-0.98 0.68,-1.86 0.38,-2.94 -0.24,-0.88 -0.93,-1.84 -1.75,-2.28 -0.88,-0.47 -1.96,-0.7 -2.94,-0.38 -0.86,0.29 -1.88,0.88 -2.26,1.76 z"
               id="path28" />
          </g>
        </g>
        <g
           id="g38">
          <g
             id="g36">
            <path
               style="color:#000000;fill:#1c17e2;-inkscape-stroke:none"
               d="m 505.24,500.05 c -2.31,0.1 -4.3,0.95 -6.07,2.4 -1.52,1.24 -2.52,2.95 -3.21,4.76 -0.68,1.78 -0.73,3.85 -0.29,5.7 0.48,1.98 1.7,3.71 3.29,4.94 1.36,1.05 2.94,1.8 4.65,2.05 1.87,0.27 3.78,0.27 5.57,-0.44 2.03,-0.81 3.74,-2.06 4.88,-3.96 0.93,-1.56 1.41,-3.51 1.31,-5.33 -0.23,-4.39 -2.97,-8.6 -7.36,-9.79 -1.92,-0.52 -4.23,0.65 -4.69,2.66 -0.46,2.01 0.6,4.13 2.66,4.69 0.24,0.06 0.47,0.14 0.71,0.24 -0.3,-0.13 -0.61,-0.26 -0.91,-0.38 0.45,0.19 0.87,0.44 1.26,0.74 -0.26,-0.2 -0.51,-0.4 -0.77,-0.6 0.42,0.33 0.79,0.71 1.12,1.13 -0.2,-0.26 -0.4,-0.51 -0.6,-0.77 0.38,0.5 0.68,1.03 0.93,1.6 -0.13,-0.3 -0.26,-0.61 -0.38,-0.91 0.24,0.58 0.4,1.18 0.49,1.79 -0.05,-0.34 -0.09,-0.68 -0.14,-1.01 0.08,0.61 0.09,1.23 0.01,1.84 0.05,-0.34 0.09,-0.68 0.14,-1.01 -0.08,0.53 -0.21,1.03 -0.41,1.52 0.13,-0.3 0.26,-0.61 0.38,-0.91 -0.18,0.42 -0.41,0.8 -0.68,1.17 0.2,-0.26 0.4,-0.51 0.6,-0.77 -0.28,0.36 -0.6,0.67 -0.95,0.95 0.26,-0.2 0.51,-0.4 0.77,-0.6 -0.39,0.29 -0.8,0.53 -1.25,0.73 0.3,-0.13 0.61,-0.26 0.91,-0.38 -0.57,0.23 -1.15,0.39 -1.76,0.47 0.34,-0.05 0.68,-0.09 1.01,-0.14 -0.61,0.07 -1.23,0.07 -1.84,0 0.34,0.05 0.68,0.09 1.01,0.14 -0.65,-0.09 -1.28,-0.26 -1.89,-0.51 0.3,0.13 0.61,0.26 0.91,0.38 -0.52,-0.23 -1.01,-0.51 -1.46,-0.86 0.26,0.2 0.51,0.4 0.77,0.6 -0.35,-0.28 -0.66,-0.59 -0.94,-0.93 0.2,0.26 0.4,0.51 0.6,0.77 -0.28,-0.36 -0.51,-0.75 -0.7,-1.17 0.13,0.3 0.26,0.61 0.38,0.91 -0.18,-0.44 -0.31,-0.89 -0.38,-1.36 0.05,0.34 0.09,0.68 0.14,1.01 -0.07,-0.56 -0.07,-1.11 0,-1.66 -0.05,0.34 -0.09,0.68 -0.14,1.01 0.09,-0.6 0.25,-1.18 0.48,-1.75 -0.13,0.3 -0.26,0.61 -0.38,0.91 0.26,-0.6 0.59,-1.16 0.99,-1.69 -0.2,0.26 -0.4,0.51 -0.6,0.77 0.35,-0.44 0.75,-0.84 1.19,-1.19 -0.26,0.2 -0.51,0.4 -0.77,0.6 0.45,-0.34 0.92,-0.62 1.44,-0.84 -0.3,0.13 -0.61,0.26 -0.91,0.38 0.44,-0.18 0.89,-0.3 1.36,-0.36 -0.34,0.05 -0.68,0.09 -1.01,0.14 0.17,-0.02 0.35,-0.03 0.52,-0.04 1,-0.04 1.98,-0.4 2.69,-1.12 0.66,-0.66 1.16,-1.75 1.12,-2.69 -0.08,-2.01 -1.67,-3.92 -3.8,-3.83 z"
               id="path34-4" />
          </g>
        </g>
        <g
           id="g44">
          <g
             id="g42">
            <path
               style="color:#000000;fill:#1c17e2;-inkscape-stroke:none"
               d="m 669.79,309.54 c -2.32,0.1 -4.31,0.96 -6.09,2.41 -1.53,1.25 -2.54,2.96 -3.23,4.78 -0.68,1.79 -0.74,3.87 -0.29,5.72 0.48,1.98 1.7,3.72 3.3,4.96 1.36,1.05 2.95,1.81 4.67,2.06 1.88,0.27 3.8,0.27 5.59,-0.44 2.04,-0.81 3.75,-2.07 4.9,-3.98 0.94,-1.57 1.41,-3.53 1.32,-5.35 -0.23,-4.41 -2.99,-8.64 -7.39,-9.82 -1.92,-0.52 -4.23,0.65 -4.69,2.66 -0.46,2.01 0.6,4.13 2.66,4.69 0.24,0.07 0.48,0.14 0.71,0.24 -0.3,-0.13 -0.61,-0.26 -0.91,-0.38 0.45,0.2 0.87,0.44 1.27,0.74 -0.26,-0.2 -0.51,-0.4 -0.77,-0.6 0.42,0.33 0.79,0.71 1.12,1.13 -0.2,-0.26 -0.4,-0.51 -0.6,-0.77 0.38,0.5 0.69,1.04 0.93,1.61 -0.13,-0.3 -0.26,-0.61 -0.38,-0.91 0.24,0.58 0.4,1.18 0.5,1.81 -0.05,-0.34 -0.09,-0.68 -0.14,-1.01 0.08,0.62 0.09,1.23 0.01,1.85 0.05,-0.34 0.09,-0.68 0.14,-1.01 -0.08,0.53 -0.21,1.04 -0.42,1.53 0.13,-0.3 0.26,-0.61 0.38,-0.91 -0.18,0.42 -0.41,0.81 -0.69,1.17 0.2,-0.26 0.4,-0.51 0.6,-0.77 -0.28,0.36 -0.6,0.67 -0.96,0.96 0.26,-0.2 0.51,-0.4 0.77,-0.6 -0.39,0.29 -0.81,0.54 -1.26,0.73 0.3,-0.13 0.61,-0.26 0.91,-0.38 -0.57,0.24 -1.16,0.39 -1.77,0.47 0.34,-0.05 0.68,-0.09 1.01,-0.14 -0.62,0.07 -1.23,0.07 -1.85,0 0.34,0.05 0.68,0.09 1.01,0.14 -0.66,-0.09 -1.29,-0.26 -1.9,-0.51 0.3,0.13 0.61,0.26 0.91,0.38 -0.53,-0.23 -1.02,-0.51 -1.47,-0.86 0.26,0.2 0.51,0.4 0.77,0.6 -0.35,-0.28 -0.66,-0.59 -0.94,-0.94 0.2,0.26 0.4,0.51 0.6,0.77 -0.28,-0.37 -0.51,-0.75 -0.7,-1.18 0.13,0.3 0.26,0.61 0.38,0.91 -0.19,-0.44 -0.31,-0.9 -0.39,-1.37 0.05,0.34 0.09,0.68 0.14,1.01 -0.07,-0.56 -0.07,-1.11 0,-1.67 -0.05,0.34 -0.09,0.68 -0.14,1.01 0.09,-0.61 0.25,-1.19 0.49,-1.76 -0.13,0.3 -0.26,0.61 -0.38,0.91 0.26,-0.61 0.6,-1.17 1,-1.7 -0.2,0.26 -0.4,0.51 -0.6,0.77 0.36,-0.45 0.75,-0.85 1.2,-1.2 -0.26,0.2 -0.51,0.4 -0.77,0.6 0.45,-0.34 0.93,-0.63 1.45,-0.85 -0.3,0.13 -0.61,0.26 -0.91,0.38 0.44,-0.18 0.9,-0.3 1.37,-0.37 -0.34,0.05 -0.68,0.09 -1.01,0.14 0.18,-0.02 0.35,-0.03 0.53,-0.04 1.99,-0.08 3.9,-1.69 3.81,-3.81 -0.08,-1.99 -1.66,-3.89 -3.8,-3.81 z"
               id="path40" />
          </g>
        </g>
        <g
           id="g50">
          <g
             id="g48">
            <path
               style="color:#000000;fill:#1c17e2;-inkscape-stroke:none"
               d="m 623.81,252.08 c -2.25,0.09 -4.17,0.93 -5.89,2.33 -1.47,1.2 -2.43,2.85 -3.1,4.6 -0.65,1.72 -0.7,3.72 -0.27,5.5 0.46,1.92 1.64,3.59 3.19,4.78 1.3,1.01 2.83,1.74 4.47,1.98 1.81,0.26 3.65,0.27 5.38,-0.42 1.97,-0.78 3.63,-1.99 4.74,-3.85 0.9,-1.51 1.36,-3.4 1.27,-5.15 -0.23,-4.25 -2.88,-8.32 -7.12,-9.46 -1.92,-0.52 -4.23,0.65 -4.69,2.66 -0.46,2.01 0.6,4.13 2.66,4.69 0.23,0.06 0.45,0.14 0.67,0.22 -0.3,-0.13 -0.61,-0.26 -0.91,-0.38 0.43,0.18 0.82,0.42 1.19,0.7 -0.26,-0.2 -0.51,-0.4 -0.77,-0.6 0.4,0.31 0.75,0.67 1.06,1.07 -0.2,-0.26 -0.4,-0.51 -0.6,-0.77 0.36,0.47 0.65,0.98 0.88,1.52 -0.13,-0.3 -0.26,-0.61 -0.38,-0.91 0.22,0.55 0.38,1.11 0.47,1.7 -0.05,-0.34 -0.09,-0.68 -0.14,-1.01 0.08,0.58 0.08,1.16 0.01,1.74 0.05,-0.34 0.09,-0.68 0.14,-1.01 -0.07,0.5 -0.2,0.98 -0.39,1.44 0.13,-0.3 0.26,-0.61 0.38,-0.91 -0.17,0.39 -0.39,0.76 -0.65,1.1 0.2,-0.26 0.4,-0.51 0.6,-0.77 -0.27,0.34 -0.56,0.63 -0.9,0.9 0.26,-0.2 0.51,-0.4 0.77,-0.6 -0.37,0.28 -0.76,0.5 -1.18,0.69 0.3,-0.13 0.61,-0.26 0.91,-0.38 -0.54,0.22 -1.09,0.37 -1.66,0.44 0.34,-0.05 0.68,-0.09 1.01,-0.14 -0.58,0.07 -1.16,0.07 -1.74,0 0.34,0.05 0.68,0.09 1.01,0.14 -0.62,-0.08 -1.22,-0.24 -1.79,-0.48 0.3,0.13 0.61,0.26 0.91,0.38 -0.5,-0.22 -0.96,-0.48 -1.38,-0.81 0.26,0.2 0.51,0.4 0.77,0.6 -0.33,-0.26 -0.62,-0.56 -0.89,-0.88 0.2,0.26 0.4,0.51 0.6,0.77 -0.27,-0.34 -0.48,-0.71 -0.66,-1.11 0.13,0.3 0.26,0.61 0.38,0.91 -0.17,-0.42 -0.29,-0.84 -0.36,-1.29 0.05,0.34 0.09,0.68 0.14,1.01 -0.07,-0.53 -0.07,-1.05 0,-1.58 -0.05,0.34 -0.09,0.68 -0.14,1.01 0.08,-0.57 0.24,-1.12 0.46,-1.65 -0.13,0.3 -0.26,0.61 -0.38,0.91 0.25,-0.57 0.56,-1.1 0.94,-1.6 -0.2,0.26 -0.4,0.51 -0.6,0.77 0.34,-0.42 0.71,-0.8 1.13,-1.13 -0.26,0.2 -0.51,0.4 -0.77,0.6 0.42,-0.32 0.87,-0.59 1.36,-0.8 -0.3,0.13 -0.61,0.26 -0.91,0.38 0.42,-0.17 0.85,-0.28 1.29,-0.35 -0.34,0.05 -0.68,0.09 -1.01,0.14 0.16,-0.02 0.33,-0.03 0.49,-0.04 1,-0.04 1.98,-0.4 2.69,-1.12 0.66,-0.66 1.16,-1.75 1.12,-2.69 -0.09,-1.97 -1.68,-3.88 -3.81,-3.79 z"
               id="path46-6" />
          </g>
        </g>
        <g
           id="g56">
          <g
             id="g54">
            <path
               style="color:#000000;fill:#1c17e2;-inkscape-stroke:none"
               d="m 676.02,398.63 c -2.32,0.1 -4.31,0.96 -6.09,2.41 -1.53,1.25 -2.54,2.96 -3.23,4.78 -0.68,1.79 -0.74,3.87 -0.29,5.72 0.48,1.98 1.7,3.72 3.3,4.96 1.36,1.05 2.95,1.81 4.67,2.06 1.88,0.27 3.8,0.27 5.59,-0.44 2.04,-0.81 3.75,-2.07 4.9,-3.98 0.94,-1.57 1.41,-3.53 1.32,-5.35 -0.23,-4.41 -2.99,-8.64 -7.39,-9.82 -1.92,-0.52 -4.23,0.65 -4.69,2.66 -0.46,2.01 0.6,4.13 2.66,4.69 0.24,0.07 0.48,0.14 0.71,0.24 -0.3,-0.13 -0.61,-0.26 -0.91,-0.38 0.45,0.2 0.87,0.44 1.27,0.74 -0.26,-0.2 -0.51,-0.4 -0.77,-0.6 0.42,0.33 0.79,0.71 1.12,1.13 -0.2,-0.26 -0.4,-0.51 -0.6,-0.77 0.38,0.5 0.69,1.04 0.93,1.61 -0.13,-0.3 -0.26,-0.61 -0.38,-0.91 0.24,0.58 0.4,1.18 0.5,1.81 -0.05,-0.34 -0.09,-0.68 -0.14,-1.01 0.08,0.62 0.09,1.23 0.01,1.85 0.05,-0.34 0.09,-0.68 0.14,-1.01 -0.08,0.53 -0.21,1.04 -0.42,1.53 0.13,-0.3 0.26,-0.61 0.38,-0.91 -0.18,0.42 -0.41,0.81 -0.69,1.17 0.2,-0.26 0.4,-0.51 0.6,-0.77 -0.28,0.36 -0.6,0.67 -0.96,0.96 0.26,-0.2 0.51,-0.4 0.77,-0.6 -0.39,0.29 -0.81,0.54 -1.26,0.73 0.3,-0.13 0.61,-0.26 0.91,-0.38 -0.57,0.24 -1.16,0.39 -1.77,0.47 0.34,-0.05 0.68,-0.09 1.01,-0.14 -0.62,0.07 -1.23,0.07 -1.85,0 0.34,0.05 0.68,0.09 1.01,0.14 -0.66,-0.09 -1.29,-0.26 -1.9,-0.51 0.3,0.13 0.61,0.26 0.91,0.38 -0.53,-0.23 -1.02,-0.51 -1.47,-0.86 0.26,0.2 0.51,0.4 0.77,0.6 -0.35,-0.28 -0.66,-0.59 -0.94,-0.94 0.2,0.26 0.4,0.51 0.6,0.77 -0.28,-0.37 -0.51,-0.75 -0.7,-1.18 0.13,0.3 0.26,0.61 0.38,0.91 -0.19,-0.44 -0.31,-0.9 -0.39,-1.37 0.05,0.34 0.09,0.68 0.14,1.01 -0.07,-0.56 -0.07,-1.11 0,-1.67 -0.05,0.34 -0.09,0.68 -0.14,1.01 0.09,-0.61 0.25,-1.19 0.49,-1.76 -0.13,0.3 -0.26,0.61 -0.38,0.91 0.26,-0.61 0.6,-1.17 1,-1.7 -0.2,0.26 -0.4,0.51 -0.6,0.77 0.36,-0.45 0.75,-0.85 1.2,-1.2 -0.26,0.2 -0.51,0.4 -0.77,0.6 0.45,-0.34 0.93,-0.63 1.45,-0.85 -0.3,0.13 -0.61,0.26 -0.91,0.38 0.44,-0.18 0.9,-0.3 1.37,-0.37 -0.34,0.05 -0.68,0.09 -1.01,0.14 0.18,-0.02 0.35,-0.03 0.53,-0.04 1.99,-0.08 3.9,-1.69 3.81,-3.81 -0.08,-2 -1.67,-3.9 -3.8,-3.81 z"
               id="path52-0" />
          </g>
        </g>
        <g
           id="g62">
          <g
             id="g60">
            <path
               style="color:#000000;fill:#1c17e2;-inkscape-stroke:none"
               d="m 556.64,315.8 c -2.25,0.09 -4.17,0.93 -5.89,2.33 -1.47,1.2 -2.43,2.85 -3.1,4.6 -0.65,1.72 -0.7,3.72 -0.27,5.5 0.46,1.92 1.64,3.59 3.19,4.78 1.3,1.01 2.83,1.74 4.47,1.98 1.81,0.26 3.65,0.27 5.38,-0.42 1.97,-0.78 3.63,-1.99 4.74,-3.85 0.9,-1.51 1.36,-3.4 1.27,-5.15 -0.23,-4.25 -2.88,-8.32 -7.12,-9.46 -1.92,-0.52 -4.23,0.65 -4.69,2.66 -0.46,2.01 0.6,4.13 2.66,4.69 0.23,0.06 0.45,0.14 0.67,0.22 -0.3,-0.13 -0.61,-0.26 -0.91,-0.38 0.43,0.18 0.82,0.42 1.19,0.7 -0.26,-0.2 -0.51,-0.4 -0.77,-0.6 0.4,0.31 0.75,0.67 1.06,1.07 -0.2,-0.26 -0.4,-0.51 -0.6,-0.77 0.36,0.47 0.65,0.98 0.88,1.52 -0.13,-0.3 -0.26,-0.61 -0.38,-0.91 0.22,0.55 0.38,1.11 0.47,1.7 -0.05,-0.34 -0.09,-0.68 -0.14,-1.01 0.08,0.58 0.08,1.16 0.01,1.74 0.05,-0.34 0.09,-0.68 0.14,-1.01 -0.07,0.5 -0.2,0.98 -0.39,1.44 0.13,-0.3 0.26,-0.61 0.38,-0.91 -0.17,0.39 -0.39,0.76 -0.65,1.1 0.2,-0.26 0.4,-0.51 0.6,-0.77 -0.27,0.34 -0.56,0.63 -0.9,0.9 0.26,-0.2 0.51,-0.4 0.77,-0.6 -0.37,0.28 -0.76,0.5 -1.18,0.69 0.3,-0.13 0.61,-0.26 0.91,-0.38 -0.54,0.22 -1.09,0.37 -1.66,0.44 0.34,-0.05 0.68,-0.09 1.01,-0.14 -0.58,0.07 -1.16,0.07 -1.74,0 0.34,0.05 0.68,0.09 1.01,0.14 -0.62,-0.08 -1.22,-0.24 -1.79,-0.48 0.3,0.13 0.61,0.26 0.91,0.38 -0.5,-0.22 -0.96,-0.48 -1.38,-0.81 0.26,0.2 0.51,0.4 0.77,0.6 -0.33,-0.26 -0.62,-0.56 -0.89,-0.88 0.2,0.26 0.4,0.51 0.6,0.77 -0.27,-0.34 -0.48,-0.71 -0.66,-1.11 0.13,0.3 0.26,0.61 0.38,0.91 -0.17,-0.42 -0.29,-0.84 -0.36,-1.29 0.05,0.34 0.09,0.68 0.14,1.01 -0.07,-0.53 -0.07,-1.05 0,-1.58 -0.05,0.34 -0.09,0.68 -0.14,1.01 0.08,-0.57 0.24,-1.12 0.46,-1.65 -0.13,0.3 -0.26,0.61 -0.38,0.91 0.25,-0.57 0.56,-1.1 0.94,-1.6 -0.2,0.26 -0.4,0.51 -0.6,0.77 0.34,-0.42 0.71,-0.8 1.13,-1.13 -0.26,0.2 -0.51,0.4 -0.77,0.6 0.42,-0.32 0.87,-0.59 1.36,-0.8 -0.3,0.13 -0.61,0.26 -0.91,0.38 0.42,-0.17 0.85,-0.28 1.29,-0.35 -0.34,0.05 -0.68,0.09 -1.01,0.14 0.16,-0.02 0.33,-0.03 0.49,-0.04 1,-0.04 1.98,-0.4 2.69,-1.12 0.66,-0.66 1.16,-1.75 1.12,-2.69 -0.09,-1.98 -1.67,-3.88 -3.81,-3.79 z"
               id="path58" />
          </g>
        </g>
      </g>
    </g>
  </g>
</svg>
