<?xml version="1.0" encoding="UTF-8" standalone="no"?>
<svg
   version="1.1"
   width="670px"
   height="1260px"
   style="shape-rendering:geometricPrecision; text-rendering:geometricPrecision; image-rendering:optimizeQuality; fill-rule:evenodd; clip-rule:evenodd"
   id="svg374"
   sodipodi:docname="EDP_Sticker_IciJeChoisis.svg"
   inkscape:version="1.1 (c68e22c387, 2021-05-23)"
   xmlns:inkscape="http://www.inkscape.org/namespaces/inkscape"
   xmlns:sodipodi="http://sodipodi.sourceforge.net/DTD/sodipodi-0.dtd"
   xmlns="http://www.w3.org/2000/svg"
   xmlns:svg="http://www.w3.org/2000/svg">
  <defs
     id="defs378" />
  <sodipodi:namedview
     id="namedview376"
     pagecolor="#ffffff"
     bordercolor="#666666"
     borderopacity="1.0"
     inkscape:pageshadow="2"
     inkscape:pageopacity="0.0"
     inkscape:pagecheckerboard="0"
     showgrid="false"
     inkscape:zoom="0.61825397"
     inkscape:cx="334.81386"
     inkscape:cy="630"
     inkscape:window-width="2400"
     inkscape:window-height="1271"
     inkscape:window-x="2391"
     inkscape:window-y="-9"
     inkscape:window-maximized="1"
     inkscape:current-layer="svg374" />
  <g
     id="g8">
    <path
       style="opacity:1"
       fill="#0031a0"
       d="M 378.5,40.5 C 378.333,60.8361 378.5,81.1694 379,101.5C 381.178,105.065 383.844,105.399 387,102.5C 387.5,82.5028 387.667,62.5028 387.5,42.5C 473.818,59.7039 540.318,105.371 587,179.5C 611.856,221.406 625.856,266.739 629,315.5C 629.667,523.833 629.667,732.167 629,940.5C 620.402,1042.25 573.569,1120.75 488.5,1176C 412.625,1220.36 332.291,1230.69 247.5,1207C 145.97,1173.47 79.4699,1105.64 48,1003.5C 42.7321,984.16 39.3987,964.494 38,944.5C 37.3333,733.5 37.3333,522.5 38,311.5C 48.5536,207.385 98.3869,128.552 187.5,75C 215.216,59.7067 244.549,48.8733 275.5,42.5C 275.333,54.5046 275.5,66.5046 276,78.5C 278.667,81.1667 281.333,81.1667 284,78.5C 284.5,66.1712 284.667,53.8378 284.5,41.5C 315.739,36.5605 347.073,36.2272 378.5,40.5 Z"
       id="path6" />
  </g>
  <g
     id="g12">
    <path
       style="opacity:1"
       fill="#b1dde1"
       d="M 378.5,40.5 C 381.689,40.8583 384.689,41.525 387.5,42.5C 387.667,62.5028 387.5,82.5028 387,102.5C 383.844,105.399 381.178,105.065 379,101.5C 378.5,81.1694 378.333,60.8361 378.5,40.5 Z"
       id="path10" />
  </g>
  <g
     id="g16">
    <path
       style="opacity:1"
       fill="#b1dde1"
       d="M 284.5,41.5 C 284.667,53.8378 284.5,66.1712 284,78.5C 281.333,81.1667 278.667,81.1667 276,78.5C 275.5,66.5046 275.333,54.5046 275.5,42.5C 278.482,42.0371 281.482,41.7038 284.5,41.5 Z"
       id="path14" />
  </g>
  <g
     id="g20">
    <path
       style="opacity:1"
       fill="#b1dde1"
       d="M 307.5,70.5 C 314.086,79.5995 320.919,88.5995 328,97.5C 335.715,110.209 336.382,123.209 330,136.5C 316.013,150.628 301.68,150.961 287,137.5C 279.525,124.086 279.858,110.753 288,97.5C 293.333,90.8333 298.667,84.1667 304,77.5C 305.646,75.3907 306.812,73.0573 307.5,70.5 Z"
       id="path18" />
  </g>
  <g
     id="g24">
    <path
       style="opacity:1"
       fill="#b1dde1"
       d="M 383.5,117.5 C 387.313,122.431 391.146,127.431 395,132.5C 398.282,139.527 398.282,146.527 395,153.5C 388.586,159.54 381.753,160.04 374.5,155C 368.376,147.989 367.876,140.489 373,132.5C 377.012,127.792 380.512,122.792 383.5,117.5 Z"
       id="path22" />
  </g>
  <g
     id="g28">
    <path
       style="opacity:1"
       fill="#b1dde1"
       d="M 284.5,275.5 C 281.5,275.5 278.5,275.5 275.5,275.5C 275.333,235.499 275.5,195.499 276,155.5C 278.667,152.833 281.333,152.833 284,155.5C 284.5,195.499 284.667,235.499 284.5,275.5 Z"
       id="path26" />
  </g>
  <g
     id="g32">
    <path
       style="opacity:1"
       fill="#b1dde1"
       d="M 347.5,163.5 C 351.405,168.945 355.572,174.279 360,179.5C 365.062,187.508 365.728,195.841 362,204.5C 352.667,213.833 343.333,213.833 334,204.5C 330.363,195.862 331.03,187.528 336,179.5C 340.852,174.827 344.686,169.494 347.5,163.5 Z"
       id="path30" />
  </g>
  <g
     id="g36">
    <path
       style="opacity:1"
       fill="#b1dde1"
       d="M 388.5,275.5 C 385.5,275.5 382.5,275.5 379.5,275.5C 379.333,248.831 379.5,222.165 380,195.5C 383.39,192.847 386.057,193.514 388,197.5C 388.5,223.498 388.667,249.498 388.5,275.5 Z"
       id="path34" />
  </g>
  <g
     id="g40">
    <path
       style="opacity:1"
       fill="#b1dde1"
       d="M 353.5,275.5 C 350.5,275.5 347.5,275.5 344.5,275.5C 344.333,258.163 344.5,240.83 345,223.5C 348.984,221.476 351.65,222.476 353,226.5C 353.5,242.83 353.667,259.163 353.5,275.5 Z"
       id="path38" />
  </g>
  <g
     id="g44">
    <path
       style="opacity:1"
       fill="#fefffe"
       d="M 275.5,275.5 C 278.5,275.5 281.5,275.5 284.5,275.5C 304.5,275.5 324.5,275.5 344.5,275.5C 347.5,275.5 350.5,275.5 353.5,275.5C 362.167,275.5 370.833,275.5 379.5,275.5C 382.5,275.5 385.5,275.5 388.5,275.5C 402.797,274.315 412.63,280.315 418,293.5C 419.46,317.448 419.96,341.448 419.5,365.5C 471.97,388.802 510.47,426.469 535,478.5C 545.029,506.032 547.862,534.199 543.5,563C 541.231,563.758 539.064,563.591 537,562.5C 541.588,518.838 530.921,479.504 505,444.5C 485.167,418.995 461.334,398.162 433.5,382C 426.039,377.934 418.373,374.434 410.5,371.5C 410.667,347.164 410.5,322.831 410,298.5C 406.987,289.733 400.82,284.9 391.5,284C 353.5,283.333 315.5,283.333 277.5,284C 268.18,284.9 262.013,289.733 259,298.5C 258.5,322.831 258.333,347.164 258.5,371.5C 212.638,390.859 176.804,421.859 151,464.5C 134.777,495.155 128.444,527.822 132,562.5C 128.606,564.275 125.94,563.608 124,560.5C 119.238,521.227 127.238,484.894 148,451.5C 173.483,412.841 207.316,384.174 249.5,365.5C 249.04,341.448 249.54,317.448 251,293.5C 255.641,282.691 263.808,276.691 275.5,275.5 Z"
       id="path42" />
  </g>
  <g
     id="g48">
    <path
       style="opacity:1"
       fill="#b1dde1"
       d="M 249.5,424.5 C 256.868,424.317 264.201,424.65 271.5,425.5C 272.833,433.167 272.833,440.833 271.5,448.5C 262.833,449.833 254.167,449.833 245.5,448.5C 244.167,440.833 244.167,433.167 245.5,425.5C 247.099,425.768 248.432,425.434 249.5,424.5 Z"
       id="path46" />
  </g>
  <g
     id="g52">
    <path
       style="opacity:1"
       fill="#b1dde1"
       d="M 401.5,424.5 C 408.868,424.317 416.201,424.65 423.5,425.5C 424.833,433.167 424.833,440.833 423.5,448.5C 414.833,449.833 406.167,449.833 397.5,448.5C 396.167,440.833 396.167,433.167 397.5,425.5C 399.099,425.768 400.432,425.434 401.5,424.5 Z"
       id="path50" />
  </g>
  <g
     id="g56">
    <path
       style="opacity:1"
       fill="#b1dde1"
       d="M 339.5,436.5 C 352.524,435.965 365.191,437.798 377.5,442C 378.578,442.674 379.245,443.674 379.5,445C 378.325,453.69 375.659,461.857 371.5,469.5C 334.227,457.582 317.394,471.249 321,510.5C 323.119,528.287 333.119,537.287 351,537.5C 358.018,537.13 364.851,535.796 371.5,533.5C 372.442,533.608 373.275,533.941 374,534.5C 377.427,542.207 379.927,550.207 381.5,558.5C 374.36,562.365 366.693,564.532 358.5,565C 341.795,567.272 326.129,564.272 311.5,556C 299.589,547.022 292.089,535.189 289,520.5C 284.026,497.376 288.026,476.042 301,456.5C 311.5,445.168 324.333,438.501 339.5,436.5 Z"
       id="path54" />
  </g>
  <g
     id="g60">
    <path
       style="opacity:1"
       fill="#b1dde1"
       d="M 246.5,457.5 C 253.508,457.334 260.508,457.5 267.5,458C 269.37,459.366 271.37,460.533 273.5,461.5C 274.5,495.493 274.833,529.493 274.5,563.5C 263.833,564.833 253.167,564.833 242.5,563.5C 242.5,528.5 242.5,493.5 242.5,458.5C 244.099,458.768 245.432,458.434 246.5,457.5 Z"
       id="path58" />
  </g>
  <g
     id="g64">
    <path
       style="opacity:1"
       fill="#b1dde1"
       d="M 399.5,457.5 C 408.533,457.284 417.533,457.617 426.5,458.5C 426.5,493.5 426.5,528.5 426.5,563.5C 415.833,564.833 405.167,564.833 394.5,563.5C 394.5,528.5 394.5,493.5 394.5,458.5C 396.415,458.784 398.081,458.451 399.5,457.5 Z"
       id="path62" />
  </g>
  <g
     id="g68">
    <path
       style="opacity:1"
       fill="#ed759e"
       d="M 261.5,589.5 C 266.552,589.45 271.552,589.95 276.5,591C 278.286,591.196 279.619,592.029 280.5,593.5C 279.727,596.431 278.727,599.264 277.5,602C 257.227,598.272 248.727,606.772 252,627.5C 254.083,635.461 259.25,639.461 267.5,639.5C 270.967,639.466 274.3,638.8 277.5,637.5C 280.667,641.265 281.001,645.098 278.5,649C 249.19,654.356 235.69,642.189 238,612.5C 240.571,599.323 248.405,591.657 261.5,589.5 Z"
       id="path66" />
  </g>
  <g
     id="g72">
    <path
       style="opacity:1"
       fill="#ed759e"
       d="M 361.5,589.5 C 382.004,589.432 392.004,599.765 391.5,620.5C 390.206,646.297 377.206,655.463 352.5,648C 346.274,643.768 342.441,637.934 341,630.5C 339.237,621.352 339.904,612.352 343,603.5C 346.797,595.536 352.964,590.869 361.5,589.5 Z"
       id="path70" />
  </g>
  <g
     id="g76">
    <path
       style="opacity:1"
       fill="#ed759e"
       d="M 400.5,589.5 C 404.5,589.5 408.5,589.5 412.5,589.5C 412.5,593.167 412.5,596.833 412.5,600.5C 408.5,600.5 404.5,600.5 400.5,600.5C 399.167,596.833 399.167,593.167 400.5,589.5 Z"
       id="path74" />
  </g>
  <g
     id="g80">
    <path
       style="opacity:1"
       fill="#ed759e"
       d="M 437.5,589.5 C 444.533,589.337 451.199,590.67 457.5,593.5C 456.935,596.508 455.935,599.341 454.5,602C 449.294,600.749 443.96,600.415 438.5,601C 433.605,603.823 433.271,607.157 437.5,611C 444.813,613.072 451.313,616.572 457,621.5C 462.161,633.736 458.995,642.903 447.5,649C 438.149,651.313 428.982,650.813 420,647.5C 419.87,643.653 420.704,639.986 422.5,636.5C 427.924,639.047 433.59,639.88 439.5,639C 445.971,636.303 446.971,632.303 442.5,627C 436.682,624.59 431.015,621.923 425.5,619C 423.959,617.421 422.792,615.587 422,613.5C 418.947,599.899 424.114,591.899 437.5,589.5 Z"
       id="path78" />
  </g>
  <g
     id="g84">
    <path
       style="opacity:1"
       fill="#ed759e"
       d="M 467.5,589.5 C 471.5,589.5 475.5,589.5 479.5,589.5C 479.5,593.167 479.5,596.833 479.5,600.5C 475.5,600.5 471.5,600.5 467.5,600.5C 466.167,596.833 466.167,593.167 467.5,589.5 Z"
       id="path82" />
  </g>
  <g
     id="g88">
    <path
       style="opacity:1"
       fill="#ed759e"
       d="M 504.5,589.5 C 511.533,589.337 518.199,590.67 524.5,593.5C 523.727,596.431 522.727,599.264 521.5,602C 516.294,600.749 510.96,600.415 505.5,601C 500.605,603.823 500.271,607.157 504.5,611C 511.813,613.072 518.313,616.572 524,621.5C 529.161,633.736 525.995,642.903 514.5,649C 505.134,651.341 495.967,650.841 487,647.5C 486.721,643.614 487.554,639.947 489.5,636.5C 496.772,640.263 503.938,640.263 511,636.5C 513.335,632.845 512.835,629.679 509.5,627C 503.682,624.59 498.015,621.923 492.5,619C 490.959,617.421 489.792,615.587 489,613.5C 485.947,599.899 491.114,591.899 504.5,589.5 Z"
       id="path86" />
  </g>
  <g
     id="g92">
    <path
       style="opacity:1"
       fill="#ed759e"
       d="M 146.5,590.5 C 154.167,590.5 161.833,590.5 169.5,590.5C 169.667,605.837 169.5,621.17 169,636.5C 168.066,643.436 164.233,647.936 157.5,650C 152.581,650.802 147.748,650.635 143,649.5C 142.163,645.705 142.496,642.039 144,638.5C 146.737,639.61 149.571,639.777 152.5,639C 154.259,637.992 155.426,636.492 156,634.5C 156.5,623.505 156.667,612.505 156.5,601.5C 153.167,601.5 149.833,601.5 146.5,601.5C 146.5,597.833 146.5,594.167 146.5,590.5 Z"
       id="path90" />
  </g>
  <g
     id="g96">
    <path
       style="opacity:1"
       fill="#ed759e"
       d="M 179.5,590.5 C 190.833,590.5 202.167,590.5 213.5,590.5C 213.5,594.167 213.5,597.833 213.5,601.5C 206.167,601.5 198.833,601.5 191.5,601.5C 191.5,605.5 191.5,609.5 191.5,613.5C 197.206,613.171 202.872,613.505 208.5,614.5C 209.833,617.5 209.833,620.5 208.5,623.5C 202.872,624.495 197.206,624.829 191.5,624.5C 191.5,629.167 191.5,633.833 191.5,638.5C 198.833,638.5 206.167,638.5 213.5,638.5C 214.833,642.167 214.833,645.833 213.5,649.5C 202.167,649.5 190.833,649.5 179.5,649.5C 179.5,629.833 179.5,610.167 179.5,590.5 Z"
       id="path94" />
  </g>
  <g
     id="g100">
    <path
       style="opacity:1"
       fill="#ed759e"
       d="M 287.5,590.5 C 291.833,590.5 296.167,590.5 300.5,590.5C 300.5,598.167 300.5,605.833 300.5,613.5C 306.5,613.5 312.5,613.5 318.5,613.5C 318.5,605.833 318.5,598.167 318.5,590.5C 322.833,590.5 327.167,590.5 331.5,590.5C 331.833,610.178 331.5,629.845 330.5,649.5C 326.833,650.833 323.167,650.833 319.5,649.5C 318.502,641.193 318.169,632.86 318.5,624.5C 312.5,624.5 306.5,624.5 300.5,624.5C 300.831,632.86 300.498,641.193 299.5,649.5C 295.833,650.833 292.167,650.833 288.5,649.5C 287.5,629.845 287.167,610.178 287.5,590.5 Z"
       id="path98" />
  </g>
  <g
     id="g104">
    <path
       style="opacity:1"
       fill="#0031a0"
       d="M 364.5,600.5 C 372.073,600.905 376.239,604.905 377,612.5C 378.011,620 377.345,627.333 375,634.5C 369.292,640.715 363.292,641.048 357,635.5C 352.333,625.5 352.333,615.5 357,605.5C 358.913,602.72 361.413,601.053 364.5,600.5 Z"
       id="path102" />
  </g>
  <g
     id="g108">
    <path
       style="opacity:1"
       fill="#ed759e"
       d="M 399.5,604.5 C 403.833,604.5 408.167,604.5 412.5,604.5C 412.833,619.515 412.499,634.515 411.5,649.5C 407.833,650.833 404.167,650.833 400.5,649.5C 399.501,634.515 399.167,619.515 399.5,604.5 Z"
       id="path106" />
  </g>
  <g
     id="g112">
    <path
       style="opacity:1"
       fill="#ed759e"
       d="M 466.5,604.5 C 470.833,604.5 475.167,604.5 479.5,604.5C 479.833,619.515 479.499,634.515 478.5,649.5C 474.833,650.833 471.167,650.833 467.5,649.5C 466.501,634.515 466.167,619.515 466.5,604.5 Z"
       id="path110" />
  </g>
  <g
     id="g116">
    <path
       style="opacity:1"
       fill="#f2eb61"
       d="M 510.5,670.5 C 513.518,670.335 516.518,670.502 519.5,671C 520.451,674.057 520.784,677.223 520.5,680.5C 516.833,680.5 513.167,680.5 509.5,680.5C 509.253,677.061 509.586,673.728 510.5,670.5 Z"
       id="path114" />
  </g>
  <g
     id="g120">
    <path
       style="opacity:1"
       fill="#f2eb61"
       d="M 300.5,671.5 C 325.713,669.212 336.88,680.546 334,705.5C 332.548,712.926 328.382,718.093 321.5,721C 312.623,723.647 303.623,724.147 294.5,722.5C 294.5,705.833 294.5,689.167 294.5,672.5C 296.735,672.795 298.735,672.461 300.5,671.5 Z"
       id="path118" />
  </g>
  <g
     id="g124">
    <path
       style="opacity:1"
       fill="#f2eb61"
       d="M 395.5,671.5 C 402.327,671.124 408.994,671.957 415.5,674C 423.315,680.128 425.481,687.961 422,697.5C 416.955,705.246 409.788,708.246 400.5,706.5C 400.5,711.833 400.5,717.167 400.5,722.5C 396.833,722.5 393.167,722.5 389.5,722.5C 389.5,705.833 389.5,689.167 389.5,672.5C 391.735,672.795 393.735,672.461 395.5,671.5 Z"
       id="path122" />
  </g>
  <g
     id="g128">
    <path
       style="opacity:1"
       fill="#f2eb61"
       d="M 474.5,671.5 C 481.801,670.966 488.801,672.132 495.5,675C 501.055,679.578 502.888,685.412 501,692.5C 499.678,696.333 497.511,699.499 494.5,702C 497.78,708.727 501.446,715.227 505.5,721.5C 501.285,722.798 497.118,722.798 493,721.5C 488.58,714.329 484.414,706.996 480.5,699.5C 485.041,697.127 488.374,693.627 490.5,689C 489.411,682.747 485.744,680.247 479.5,681.5C 479.5,695.167 479.5,708.833 479.5,722.5C 475.833,722.5 472.167,722.5 468.5,722.5C 468.5,705.833 468.5,689.167 468.5,672.5C 470.735,672.795 472.735,672.461 474.5,671.5 Z"
       id="path126" />
  </g>
  <g
     id="g132">
    <path
       style="opacity:1"
       fill="#f2eb61"
       d="M 540.5,671.5 C 546.233,671.647 551.9,672.314 557.5,673.5C 557.658,676.545 556.991,679.379 555.5,682C 551.191,681.508 546.857,681.175 542.5,681C 537.632,683.477 537.299,686.477 541.5,690C 547.998,691.497 553.498,694.663 558,699.5C 561.647,709.569 558.814,717.069 549.5,722C 541.441,724.286 533.608,723.786 526,720.5C 525.62,717.012 526.62,714.012 529,711.5C 535.306,714.48 541.306,714.147 547,710.5C 548.041,707.364 547.207,704.864 544.5,703C 538.661,701.285 533.494,698.452 529,694.5C 524.391,682.384 528.224,674.718 540.5,671.5 Z"
       id="path130" />
  </g>
  <g
     id="g136">
    <path
       style="opacity:1"
       fill="#f2eb61"
       d="M 113.5,672.5 C 116.833,672.5 120.167,672.5 123.5,672.5C 123.5,685.833 123.5,699.167 123.5,712.5C 129.206,712.171 134.872,712.505 140.5,713.5C 141.562,716.103 141.728,718.77 141,721.5C 131.917,722.485 122.751,722.818 113.5,722.5C 113.5,705.833 113.5,689.167 113.5,672.5 Z"
       id="path134" />
  </g>
  <g
     id="g140">
    <path
       style="opacity:1"
       fill="#f2eb61"
       d="M 141.5,672.5 C 145.182,672.335 148.848,672.501 152.5,673C 150.289,679.011 148.622,685.178 147.5,691.5C 144.167,691.5 140.833,691.5 137.5,691.5C 138.418,685.079 139.752,678.745 141.5,672.5 Z"
       id="path138" />
  </g>
  <g
     id="g144">
    <path
       style="opacity:1"
       fill="#f2eb61"
       d="M 158.5,672.5 C 167.839,672.334 177.173,672.5 186.5,673C 187.833,676 187.833,679 186.5,682C 180.843,682.499 175.176,682.666 169.5,682.5C 169.5,685.5 169.5,688.5 169.5,691.5C 174.167,691.5 178.833,691.5 183.5,691.5C 183.5,694.833 183.5,698.167 183.5,701.5C 178.833,701.5 174.167,701.5 169.5,701.5C 169.5,705.5 169.5,709.5 169.5,713.5C 175.5,713.5 181.5,713.5 187.5,713.5C 187.5,716.5 187.5,719.5 187.5,722.5C 177.833,722.5 168.167,722.5 158.5,722.5C 158.5,705.833 158.5,689.167 158.5,672.5 Z"
       id="path142" />
  </g>
  <g
     id="g148">
    <path
       style="opacity:1"
       fill="#f2eb61"
       d="M 205.5,672.5 C 209.833,672.5 214.167,672.5 218.5,672.5C 223.293,688.881 228.293,705.214 233.5,721.5C 229.555,722.491 225.555,722.824 221.5,722.5C 220.833,719.167 220.167,715.833 219.5,712.5C 214.167,712.5 208.833,712.5 203.5,712.5C 203.041,715.877 202.374,719.211 201.5,722.5C 197.774,722.823 194.107,722.489 190.5,721.5C 195.968,705.292 200.968,688.959 205.5,672.5 Z"
       id="path146" />
  </g>
  <g
     id="g152">
    <path
       style="opacity:1"
       fill="#f2eb61"
       d="M 235.5,672.5 C 239.167,672.5 242.833,672.5 246.5,672.5C 246.333,684.171 246.5,695.838 247,707.5C 248.887,713.338 252.72,715.005 258.5,712.5C 259.584,711.335 260.417,710.002 261,708.5C 262.242,696.533 262.742,684.533 262.5,672.5C 266.167,672.5 269.833,672.5 273.5,672.5C 273.666,682.506 273.5,692.506 273,702.5C 272.757,718.74 264.59,725.573 248.5,723C 242.841,722.004 239.007,718.838 237,713.5C 235.573,699.893 235.073,686.226 235.5,672.5 Z"
       id="path150" />
  </g>
  <g
     id="g156">
    <path
       style="opacity:1"
       fill="#f2eb61"
       d="M 340.5,672.5 C 350.167,672.5 359.833,672.5 369.5,672.5C 369.5,675.833 369.5,679.167 369.5,682.5C 363.5,682.5 357.5,682.5 351.5,682.5C 351.5,685.5 351.5,688.5 351.5,691.5C 356.179,691.334 360.845,691.501 365.5,692C 366.833,695 366.833,698 365.5,701C 360.845,701.499 356.179,701.666 351.5,701.5C 351.5,705.5 351.5,709.5 351.5,713.5C 357.833,713.5 364.167,713.5 370.5,713.5C 370.5,716.5 370.5,719.5 370.5,722.5C 360.5,722.5 350.5,722.5 340.5,722.5C 340.5,705.833 340.5,689.167 340.5,672.5 Z"
       id="path154" />
  </g>
  <g
     id="g160">
    <path
       style="opacity:1"
       fill="#f2eb61"
       d="M 437.5,672.5 C 441.555,672.176 445.555,672.509 449.5,673.5C 454.707,689.786 459.707,706.119 464.5,722.5C 460.5,722.5 456.5,722.5 452.5,722.5C 452.308,719.399 451.642,716.399 450.5,713.5C 445.533,712.338 440.533,712.171 435.5,713C 434.273,715.736 433.273,718.569 432.5,721.5C 428.833,722.833 425.167,722.833 421.5,721.5C 426.843,705.139 432.176,688.805 437.5,672.5 Z"
       id="path158" />
  </g>
  <g
     id="g164">
    <path
       style="opacity:1"
       fill="#0031a0"
       d="M 305.5,681.5 C 316.8,680.797 322.8,686.13 323.5,697.5C 323.447,709.554 317.447,714.887 305.5,713.5C 305.5,702.833 305.5,692.167 305.5,681.5 Z"
       id="path162" />
  </g>
  <g
     id="g168">
    <path
       style="opacity:1"
       fill="#0031a0"
       d="M 400.5,681.5 C 407.237,680.195 411.237,682.862 412.5,689.5C 411.237,696.138 407.237,698.805 400.5,697.5C 400.5,692.167 400.5,686.833 400.5,681.5 Z"
       id="path166" />
  </g>
  <g
     id="g172">
    <path
       style="opacity:1"
       fill="#f2eb61"
       d="M 509.5,683.5 C 513.167,683.5 516.833,683.5 520.5,683.5C 520.5,696.5 520.5,709.5 520.5,722.5C 516.833,722.5 513.167,722.5 509.5,722.5C 509.5,709.5 509.5,696.5 509.5,683.5 Z"
       id="path170" />
  </g>
  <g
     id="g176">
    <path
       style="opacity:1"
       fill="#0031a0"
       d="M 211.5,686.5 C 213.455,691.627 215.122,696.96 216.5,702.5C 213.216,703.657 209.882,703.824 206.5,703C 208.397,697.579 210.064,692.079 211.5,686.5 Z"
       id="path174" />
  </g>
  <g
     id="g180">
    <path
       style="opacity:1"
       fill="#0031a0"
       d="M 442.5,686.5 C 444.612,691.932 446.279,697.598 447.5,703.5C 444.15,703.665 440.817,703.498 437.5,703C 439.467,697.6 441.133,692.1 442.5,686.5 Z"
       id="path178" />
  </g>
  <g
     id="g184">
    <path
       style="opacity:1"
       fill="#fefffe"
       d="M 126.5,761.5 C 128.722,761.178 130.556,761.845 132,763.5C 132.667,831.833 132.667,900.167 132,968.5C 128.61,971.153 125.943,970.486 124,966.5C 123.333,899.5 123.333,832.5 124,765.5C 124.48,763.867 125.313,762.534 126.5,761.5 Z"
       id="path182" />
  </g>
  <g
     id="g188">
    <path
       style="opacity:1"
       fill="#fefffe"
       d="M 538.5,761.5 C 541.895,760.944 544.062,762.277 545,765.5C 545.667,832.5 545.667,899.5 545,966.5C 543.057,970.486 540.39,971.153 537,968.5C 536.333,900.167 536.333,831.833 537,763.5C 537.717,762.956 538.217,762.289 538.5,761.5 Z"
       id="path186" />
  </g>
  <g
     id="g192">
    <path
       style="opacity:1"
       fill="#fefffe"
       d="M 224.5,818.5 C 230.386,817.343 235.219,819.01 239,823.5C 249.416,843.616 243.916,849.116 222.5,840C 217.847,836.212 216.347,831.378 218,825.5C 219.694,822.642 221.861,820.309 224.5,818.5 Z"
       id="path190" />
  </g>
  <g
     id="g196">
    <path
       style="opacity:1"
       fill="#fefffe"
       d="M 276.5,830.5 C 292.963,828.796 300.13,836.13 298,852.5C 294.981,856.539 292.481,860.872 290.5,865.5C 293.419,870.305 297.752,873.138 303.5,874C 309.557,875.162 315.223,874.162 320.5,871C 328.051,859.193 338.385,855.86 351.5,861C 359.16,866.448 362.493,873.948 361.5,883.5C 350.495,883.333 339.495,883.5 328.5,884C 331.956,892.395 337.956,895.395 346.5,893C 348.833,892 350.5,890.333 351.5,888C 354.482,887.502 357.482,887.335 360.5,887.5C 359.348,892.96 356.348,897.127 351.5,900C 337.162,905.07 326.662,900.904 320,887.5C 316.947,884.144 313.28,881.81 309,880.5C 306.849,880.643 305.182,881.643 304,883.5C 302.87,889.768 305.037,894.601 310.5,898C 324.141,904.972 335.308,914.805 344,927.5C 346.685,935.943 344.518,942.776 337.5,948C 329.92,949.396 322.253,949.896 314.5,949.5C 314.5,954.833 314.5,960.167 314.5,965.5C 312.167,965.5 309.833,965.5 307.5,965.5C 307.5,949.833 307.5,934.167 307.5,918.5C 312.511,918.666 317.511,918.499 322.5,918C 323.576,916.274 323.743,914.441 323,912.5C 312.388,901.408 299.555,897.575 284.5,901C 282.5,902 280.5,903 278.5,904C 275.5,908.333 272.5,912.667 269.5,917C 257.412,919.911 253.246,915.411 257,903.5C 257.903,902.299 259.069,901.465 260.5,901C 265.282,900.881 269.949,900.215 274.5,899C 280.682,892.061 279.348,887.061 270.5,884C 260.127,881.32 250.127,877.654 240.5,873C 233.49,866.99 233.823,861.824 241.5,857.5C 243.059,858.074 244.559,858.74 246,859.5C 249.151,870.834 256.651,876.501 268.5,876.5C 273.558,876.722 277.391,874.722 280,870.5C 280.667,869.5 280.667,868.5 280,867.5C 276.667,862.833 272.667,858.833 268,855.5C 263.736,844.522 266.57,836.189 276.5,830.5 Z"
       id="path194" />
  </g>
  <g
     id="g200">
    <path
       style="opacity:1"
       fill="#fefffe"
       d="M 319.5,834.5 C 330.101,834.38 333.934,839.38 331,849.5C 325.576,855.139 319.076,857.473 311.5,856.5C 310.751,849.779 311.918,843.446 315,837.5C 316.652,836.601 318.152,835.601 319.5,834.5 Z"
       id="path198" />
  </g>
  <g
     id="g204">
    <path
       style="opacity:1"
       fill="#fefffe"
       d="M 382.5,858.5 C 388.112,858.195 393.279,859.528 398,862.5C 398.483,861.552 398.649,860.552 398.5,859.5C 401.5,859.5 404.5,859.5 407.5,859.5C 407.5,873.5 407.5,887.5 407.5,901.5C 404.5,901.5 401.5,901.5 398.5,901.5C 398.719,900.325 398.386,899.325 397.5,898.5C 390.781,901.876 383.781,902.376 376.5,900C 366.355,892.949 363.188,883.449 367,871.5C 370.141,864.689 375.307,860.356 382.5,858.5 Z"
       id="path202" />
  </g>
  <g
     id="g208">
    <path
       style="opacity:1"
       fill="#fefffe"
       d="M 414.5,859.5 C 417.5,859.5 420.5,859.5 423.5,859.5C 423.334,869.172 423.5,878.839 424,888.5C 428.643,895.074 434.143,895.908 440.5,891C 441.46,889.581 442.293,888.081 443,886.5C 443.5,877.506 443.666,868.506 443.5,859.5C 446.167,859.5 448.833,859.5 451.5,859.5C 451.5,873.5 451.5,887.5 451.5,901.5C 448.833,901.5 446.167,901.5 443.5,901.5C 443.657,900.127 443.49,898.793 443,897.5C 441.786,899.049 440.286,900.215 438.5,901C 426.64,903.991 418.807,899.825 415,888.5C 414.5,878.839 414.334,869.172 414.5,859.5 Z"
       id="path206" />
  </g>
  <g
     id="g212">
    <path
       style="opacity:1"
       fill="#0031a0"
       d="M 337.5,866.5 C 344.575,865.754 349.575,868.587 352.5,875C 344.812,875.831 337.145,875.665 329.5,874.5C 331.216,870.784 333.883,868.117 337.5,866.5 Z"
       id="path210" />
  </g>
  <g
     id="g216">
    <path
       style="opacity:1"
       fill="#0031a0"
       d="M 383.5,866.5 C 393.156,866.153 398.49,870.82 399.5,880.5C 397.303,892.426 390.636,896.26 379.5,892C 374.309,886.31 373.142,879.81 376,872.5C 378.114,869.879 380.614,867.879 383.5,866.5 Z"
       id="path214" />
  </g>
  <g
     id="g220">
    <path
       style="opacity:1"
       fill="#fefffe"
       d="M 223.5,890.5 C 241.785,890.863 243.785,896.363 229.5,907C 220.333,908.5 216.5,904.667 218,895.5C 219.352,893.251 221.185,891.584 223.5,890.5 Z"
       id="path218" />
  </g>
  <g
     id="g224">
    <path
       style="opacity:1"
       fill="#fefffe"
       d="M 244.5,916.5 C 247.167,916.5 249.833,916.5 252.5,916.5C 252.5,932.833 252.5,949.167 252.5,965.5C 249.212,965.927 246.212,965.26 243.5,963.5C 234.692,968.008 226.859,966.674 220,959.5C 214.788,950.04 215.621,941.207 222.5,933C 229.613,928.593 236.78,928.426 244,932.5C 244.499,927.177 244.666,921.844 244.5,916.5 Z"
       id="path222" />
  </g>
  <g
     id="g228">
    <path
       style="opacity:1"
       fill="#fefffe"
       d="M 410.5,917.5 C 412.833,917.5 415.167,917.5 417.5,917.5C 417.5,920.5 417.5,923.5 417.5,926.5C 415.167,926.5 412.833,926.5 410.5,926.5C 410.5,923.5 410.5,920.5 410.5,917.5 Z"
       id="path226" />
  </g>
  <g
     id="g232">
    <path
       style="opacity:1"
       fill="#0031a0"
       d="M 314.5,925.5 C 320.909,925.183 327.243,925.683 333.5,927C 337.753,930.42 338.587,934.587 336,939.5C 335.097,940.701 333.931,941.535 332.5,942C 326.509,942.499 320.509,942.666 314.5,942.5C 314.5,936.833 314.5,931.167 314.5,925.5 Z"
       id="path230" />
  </g>
  <g
     id="g236">
    <path
       style="opacity:1"
       fill="#fefffe"
       d="M 266.5,929.5 C 282.669,927.342 290.669,934.342 290.5,950.5C 281.5,950.5 272.5,950.5 263.5,950.5C 265.784,958.215 270.784,960.715 278.5,958C 281.517,953.618 285.517,952.451 290.5,954.5C 283.96,966.182 274.627,969.015 262.5,963C 255.963,957.245 253.797,950.078 256,941.5C 257.936,936.068 261.436,932.068 266.5,929.5 Z"
       id="path234" />
  </g>
  <g
     id="g240">
    <path
       style="opacity:1"
       fill="#fefffe"
       d="M 356.5,929.5 C 360.514,929.334 364.514,929.501 368.5,930C 370.081,930.707 371.581,931.54 373,932.5C 373.483,931.552 373.649,930.552 373.5,929.5C 375.833,929.5 378.167,929.5 380.5,929.5C 380.5,941.5 380.5,953.5 380.5,965.5C 378.167,965.5 375.833,965.5 373.5,965.5C 373.649,964.448 373.483,963.448 373,962.5C 365.162,967.803 357.496,967.469 350,961.5C 345.245,954.398 344.245,946.731 347,938.5C 349.406,934.592 352.572,931.592 356.5,929.5 Z"
       id="path238" />
  </g>
  <g
     id="g244">
    <path
       style="opacity:1"
       fill="#fefffe"
       d="M 387.5,929.5 C 389.833,929.5 392.167,929.5 394.5,929.5C 394.343,930.873 394.51,932.207 395,933.5C 398.482,930.117 402.649,928.784 407.5,929.5C 407.5,931.833 407.5,934.167 407.5,936.5C 402.048,936.144 398.215,938.477 396,943.5C 394.609,950.746 394.109,958.079 394.5,965.5C 392.167,965.5 389.833,965.5 387.5,965.5C 387.5,953.5 387.5,941.5 387.5,929.5 Z"
       id="path242" />
  </g>
  <g
     id="g248">
    <path
       style="opacity:1"
       fill="#fefffe"
       d="M 410.5,929.5 C 412.833,929.5 415.167,929.5 417.5,929.5C 417.5,941.5 417.5,953.5 417.5,965.5C 415.167,965.5 412.833,965.5 410.5,965.5C 410.5,953.5 410.5,941.5 410.5,929.5 Z"
       id="path246" />
  </g>
  <g
     id="g252">
    <path
       style="opacity:1"
       fill="#fefffe"
       d="M 429.5,929.5 C 435.762,928.872 441.762,929.705 447.5,932C 449.782,934.397 451.116,937.231 451.5,940.5C 447.414,941.154 444.081,939.988 441.5,937C 438.2,935.121 434.866,935.121 431.5,937C 430.041,940.084 431.041,942.084 434.5,943C 440.755,943.43 446.255,945.597 451,949.5C 453.609,960.421 449.109,966.088 437.5,966.5C 428.048,966.374 422.715,961.708 421.5,952.5C 424.167,952.5 426.833,952.5 429.5,952.5C 429.448,955.952 431.115,958.119 434.5,959C 437.594,959.652 440.594,959.318 443.5,958C 445.14,955.224 444.473,953.224 441.5,952C 435.124,951.121 429.291,948.954 424,945.5C 421.035,938.444 422.868,933.111 429.5,929.5 Z"
       id="path250" />
  </g>
  <g
     id="g256">
    <path
       style="opacity:1"
       fill="#0031a0"
       d="M 230.5,936.5 C 239.127,935.118 244.127,938.785 245.5,947.5C 243.931,956.921 238.597,960.421 229.5,958C 224.789,953.86 223.289,948.694 225,942.5C 226.36,939.977 228.193,937.977 230.5,936.5 Z"
       id="path254" />
  </g>
  <g
     id="g260">
    <path
       style="opacity:1"
       fill="#0031a0"
       d="M 268.5,936.5 C 271.518,936.335 274.518,936.502 277.5,937C 280.033,938.033 281.699,939.867 282.5,942.5C 276.167,943.833 269.833,943.833 263.5,942.5C 265.19,940.481 266.856,938.481 268.5,936.5 Z"
       id="path258" />
  </g>
  <g
     id="g264">
    <path
       style="opacity:1"
       fill="#0031a0"
       d="M 358.5,936.5 C 369.936,935.103 374.769,940.103 373,951.5C 368.678,960.247 362.678,961.58 355,955.5C 351.02,948.189 352.186,941.856 358.5,936.5 Z"
       id="path262" />
  </g>
  <g
     id="g268">
    <path
       style="opacity:1"
       fill="#b1dde1"
       d="M 279.5,1018.5 C 281.262,1018.36 282.929,1018.69 284.5,1019.5C 285.498,1029.14 285.832,1038.81 285.5,1048.5C 286.833,1048.5 288.167,1048.5 289.5,1048.5C 289.5,1050.17 289.5,1051.83 289.5,1053.5C 286.813,1053.66 284.146,1053.5 281.5,1053C 280.874,1052.25 280.374,1051.42 280,1050.5C 279.5,1039.84 279.333,1029.17 279.5,1018.5 Z"
       id="path266" />
  </g>
  <g
     id="g272">
    <path
       style="opacity:1"
       fill="#b1dde1"
       d="M 501.5,1018.5 C 503.262,1018.36 504.929,1018.69 506.5,1019.5C 507.213,1029.84 507.879,1040.18 508.5,1050.5C 507.365,1054.04 505.532,1054.37 503,1051.5C 493.277,1056.21 488.111,1053.05 487.5,1042C 487.595,1032.55 492.095,1028.72 501,1030.5C 501.499,1026.51 501.666,1022.51 501.5,1018.5 Z"
       id="path270" />
  </g>
  <g
     id="g276">
    <path
       style="opacity:1"
       fill="#b1dde1"
       d="M 138.5,1020.5 C 140.144,1020.29 141.644,1020.62 143,1021.5C 143.667,1030.5 143.667,1039.5 143,1048.5C 142.215,1050.29 141.049,1051.79 139.5,1053C 135.833,1053.67 132.167,1053.67 128.5,1053C 126.342,1051.69 126.009,1050.02 127.5,1048C 129.326,1047.71 131.159,1047.88 133,1048.5C 134.711,1048.56 136.044,1047.89 137,1046.5C 137.195,1037.76 137.695,1029.09 138.5,1020.5 Z"
       id="path274" />
  </g>
  <g
     id="g280">
    <path
       style="opacity:1"
       fill="#b1dde1"
       d="M 292.5,1021.5 C 294.5,1021.5 296.5,1021.5 298.5,1021.5C 299.321,1027.16 297.154,1028.82 292,1026.5C 291.36,1024.73 291.527,1023.07 292.5,1021.5 Z"
       id="path278" />
  </g>
  <g
     id="g284">
    <path
       style="opacity:1"
       fill="#b1dde1"
       d="M 153.5,1029.5 C 164.358,1027.85 169.025,1032.52 167.5,1043.5C 162.821,1043.33 158.155,1043.5 153.5,1044C 153.933,1046.93 155.599,1048.77 158.5,1049.5C 160.811,1048.5 163.144,1048 165.5,1048C 166.38,1049.36 166.714,1050.86 166.5,1052.5C 151.447,1056.62 145.614,1050.95 149,1035.5C 149.804,1032.85 151.304,1030.85 153.5,1029.5 Z"
       id="path282" />
  </g>
  <g
     id="g288">
    <path
       style="opacity:1"
       fill="#b1dde1"
       d="M 182.5,1029.5 C 184.484,1029.38 186.15,1030.05 187.5,1031.5C 190.276,1029.87 193.276,1029.2 196.5,1029.5C 196.167,1031.5 195.833,1033.5 195.5,1035.5C 192.956,1035.1 190.789,1035.77 189,1037.5C 188.501,1042.82 188.334,1048.16 188.5,1053.5C 186.5,1053.5 184.5,1053.5 182.5,1053.5C 182.666,1047.16 182.5,1040.82 182,1034.5C 180.198,1032.73 180.365,1031.06 182.5,1029.5 Z"
       id="path286" />
  </g>
  <g
     id="g292">
    <path
       style="opacity:1"
       fill="#b1dde1"
       d="M 202.5,1029.5 C 213.478,1027.81 218.145,1032.48 216.5,1043.5C 212.167,1043.5 207.833,1043.5 203.5,1043.5C 202.833,1046.83 204.167,1048.83 207.5,1049.5C 209.5,1048.83 211.5,1048.17 213.5,1047.5C 214.845,1048.35 215.845,1049.51 216.5,1051C 210.37,1055.22 204.537,1055.05 199,1050.5C 195.244,1042.56 196.411,1035.56 202.5,1029.5 Z"
       id="path290" />
  </g>
  <g
     id="g296">
    <path
       style="opacity:1"
       fill="#b1dde1"
       d="M 220.5,1029.5 C 222.936,1029.32 225.103,1029.98 227,1031.5C 230.943,1028.63 234.61,1028.97 238,1032.5C 241.807,1029.05 245.807,1028.71 250,1031.5C 251.067,1038.34 251.9,1045.17 252.5,1052C 250.459,1053.74 248.292,1053.91 246,1052.5C 245.667,1047.17 245.333,1041.83 245,1036.5C 242.966,1034.44 240.966,1034.77 239,1037.5C 238.501,1042.82 238.334,1048.16 238.5,1053.5C 236.833,1053.5 235.167,1053.5 233.5,1053.5C 233.666,1048.16 233.499,1042.82 233,1037.5C 231.908,1034.01 230.075,1033.68 227.5,1036.5C 226.505,1042.13 226.171,1047.79 226.5,1053.5C 224.5,1053.5 222.5,1053.5 220.5,1053.5C 220.5,1045.5 220.5,1037.5 220.5,1029.5 Z"
       id="path294" />
  </g>
  <g
     id="g300">
    <path
       style="opacity:1"
       fill="#b1dde1"
       d="M 256.5,1029.5 C 261.439,1029.93 266.439,1030.1 271.5,1030C 274.886,1032.87 276.219,1036.54 275.5,1041C 276.395,1051.45 271.895,1055.28 262,1052.5C 261.667,1055.83 261.333,1059.17 261,1062.5C 259.644,1063.38 258.144,1063.71 256.5,1063.5C 256.5,1052.17 256.5,1040.83 256.5,1029.5 Z"
       id="path298" />
  </g>
  <g
     id="g304">
    <path
       style="opacity:1"
       fill="#b1dde1"
       d="M 290.5,1029.5 C 293.365,1029.05 295.865,1029.72 298,1031.5C 298.5,1038.83 298.666,1046.16 298.5,1053.5C 296.833,1053.5 295.167,1053.5 293.5,1053.5C 293.666,1047.82 293.499,1042.16 293,1036.5C 291.175,1034.52 290.341,1032.19 290.5,1029.5 Z"
       id="path302" />
  </g>
  <g
     id="g308">
    <path
       style="opacity:1"
       fill="#b1dde1"
       d="M 306.5,1029.5 C 310.881,1029.37 315.215,1029.71 319.5,1030.5C 319.063,1036.1 316.563,1037.1 312,1033.5C 310.745,1034.21 309.579,1035.04 308.5,1036C 311.245,1038.03 314.245,1039.7 317.5,1041C 321.857,1048.91 319.523,1053.41 310.5,1054.5C 307.204,1054.01 304.204,1052.85 301.5,1051C 302.155,1049.51 303.155,1048.35 304.5,1047.5C 306.432,1048.37 308.432,1049.03 310.5,1049.5C 313.396,1048.98 314.063,1047.48 312.5,1045C 302.366,1042.6 300.366,1037.44 306.5,1029.5 Z"
       id="path306" />
  </g>
  <g
     id="g312">
    <path
       style="opacity:1"
       fill="#b1dde1"
       d="M 333.5,1029.5 C 335.936,1029.32 338.103,1029.98 340,1031.5C 344.062,1028.57 347.728,1028.9 351,1032.5C 354.807,1029.05 358.807,1028.71 363,1031.5C 364.109,1038.31 364.942,1045.14 365.5,1052C 363.647,1053.67 361.647,1053.84 359.5,1052.5C 358.875,1046.85 358.208,1041.19 357.5,1035.5C 355.939,1034.65 354.439,1034.99 353,1036.5C 352.501,1042.16 352.334,1047.82 352.5,1053.5C 350.5,1053.5 348.5,1053.5 346.5,1053.5C 346.666,1047.82 346.499,1042.16 346,1036.5C 343.966,1034.44 341.966,1034.77 340,1037.5C 339.501,1042.82 339.334,1048.16 339.5,1053.5C 337.5,1053.5 335.5,1053.5 333.5,1053.5C 333.5,1045.5 333.5,1037.5 333.5,1029.5 Z"
       id="path310" />
  </g>
  <g
     id="g316">
    <path
       style="opacity:1"
       fill="#b1dde1"
       d="M 373.5,1029.5 C 377.584,1029.04 381.417,1029.71 385,1031.5C 386.239,1037.06 386.906,1042.72 387,1048.5C 388.954,1050.76 388.454,1052.43 385.5,1053.5C 383.971,1053.47 382.804,1052.8 382,1051.5C 377.618,1055.46 373.285,1055.46 369,1051.5C 366.412,1045.84 367.912,1041.68 373.5,1039C 376.167,1038.67 378.833,1038.33 381.5,1038C 380.833,1037 380.167,1036 379.5,1035C 376.083,1034.97 372.75,1034.81 369.5,1034.5C 368.674,1033.55 368.508,1032.55 369,1031.5C 370.622,1030.9 372.122,1030.23 373.5,1029.5 Z"
       id="path314" />
  </g>
  <g
     id="g320">
    <path
       style="opacity:1"
       fill="#b1dde1"
       d="M 406.5,1029.5 C 411.506,1029.74 416.34,1030.07 421,1030.5C 421.028,1040.2 420.362,1049.87 419,1059.5C 417.786,1061.05 416.286,1062.22 414.5,1063C 410.141,1063.53 405.808,1063.37 401.5,1062.5C 401.291,1060.29 402.124,1058.62 404,1057.5C 406.787,1058.52 409.62,1058.68 412.5,1058C 414.325,1056.53 414.825,1054.7 414,1052.5C 409.175,1054.49 405.175,1053.49 402,1049.5C 399.134,1041.65 400.634,1034.98 406.5,1029.5 Z"
       id="path318" />
  </g>
  <g
     id="g324">
    <path
       style="opacity:1"
       fill="#b1dde1"
       d="M 430.5,1029.5 C 439.83,1028.01 444.83,1032.01 445.5,1041.5C 444.83,1051.99 439.497,1055.83 429.5,1053C 427.622,1051.46 426.122,1049.62 425,1047.5C 424.333,1043.5 424.333,1039.5 425,1035.5C 426.36,1032.98 428.193,1030.98 430.5,1029.5 Z"
       id="path322" />
  </g>
  <g
     id="g328">
    <path
       style="opacity:1"
       fill="#b1dde1"
       d="M 448.5,1029.5 C 450.467,1029.26 452.301,1029.59 454,1030.5C 454.333,1036.17 454.667,1041.83 455,1047.5C 457.721,1048.66 460.054,1047.99 462,1045.5C 462.499,1040.18 462.666,1034.84 462.5,1029.5C 464.167,1029.5 465.833,1029.5 467.5,1029.5C 467.334,1035.51 467.501,1041.51 468,1047.5C 470.412,1050.25 469.912,1052.25 466.5,1053.5C 464.945,1053.28 463.611,1052.61 462.5,1051.5C 458.233,1054.06 454.066,1054.06 450,1051.5C 448.933,1044.66 448.1,1037.83 447.5,1031C 448.056,1030.62 448.389,1030.12 448.5,1029.5 Z"
       id="path326" />
  </g>
  <g
     id="g332">
    <path
       style="opacity:1"
       fill="#b1dde1"
       d="M 472.5,1029.5 C 474.993,1029.33 476.826,1030.33 478,1032.5C 480.709,1029.63 483.876,1028.97 487.5,1030.5C 486.691,1032.07 486.357,1033.74 486.5,1035.5C 483.956,1035.1 481.789,1035.77 480,1037.5C 479.501,1042.82 479.334,1048.16 479.5,1053.5C 477.5,1053.5 475.5,1053.5 473.5,1053.5C 473.666,1047.49 473.499,1041.49 473,1035.5C 471.204,1033.6 471.037,1031.6 472.5,1029.5 Z"
       id="path330" />
  </g>
  <g
     id="g336">
    <path
       style="opacity:1"
       fill="#b1dde1"
       d="M 517.5,1029.5 C 527.929,1028.43 532.262,1032.93 530.5,1043C 526.179,1043.5 521.846,1043.67 517.5,1043.5C 519.125,1049.39 522.625,1050.72 528,1047.5C 530.5,1048.33 531,1049.83 529.5,1052C 515.103,1056.95 509.27,1051.78 512,1036.5C 512.938,1033.4 514.772,1031.07 517.5,1029.5 Z"
       id="path334" />
  </g>
  <g
     id="g340">
    <path
       style="opacity:1"
       fill="#0031a0"
       d="M 156.5,1033.5 C 159.9,1033.73 161.9,1035.56 162.5,1039C 159.5,1039.67 156.5,1039.67 153.5,1039C 154.223,1036.98 155.223,1035.15 156.5,1033.5 Z"
       id="path338" />
  </g>
  <g
     id="g344">
    <path
       style="opacity:1"
       fill="#0031a0"
       d="M 205.5,1033.5 C 208.9,1033.73 210.9,1035.56 211.5,1039C 208.5,1039.67 205.5,1039.67 202.5,1039C 203.223,1036.98 204.223,1035.15 205.5,1033.5 Z"
       id="path342" />
  </g>
  <g
     id="g348">
    <path
       style="opacity:1"
       fill="#0031a0"
       d="M 433.5,1033.5 C 437.397,1034.59 439.397,1037.25 439.5,1041.5C 439,1043.5 438.5,1045.5 438,1047.5C 435.88,1050.08 433.713,1050.08 431.5,1047.5C 429.677,1042.34 430.344,1037.68 433.5,1033.5 Z"
       id="path346" />
  </g>
  <g
     id="g352">
    <path
       style="opacity:1"
       fill="#0031a0"
       d="M 520.5,1033.5 C 523.621,1034.29 525.288,1036.29 525.5,1039.5C 522.833,1039.5 520.167,1039.5 517.5,1039.5C 517.615,1037.05 518.615,1035.05 520.5,1033.5 Z"
       id="path350" />
  </g>
  <g
     id="g356">
    <path
       style="opacity:1"
       fill="#0031a0"
       d="M 264.5,1034.5 C 268.543,1034.85 270.543,1037.18 270.5,1041.5C 270.256,1047.1 267.59,1049.1 262.5,1047.5C 260.744,1042.66 261.411,1038.32 264.5,1034.5 Z"
       id="path354" />
  </g>
  <g
     id="g360">
    <path
       style="opacity:1"
       fill="#0031a0"
       d="M 408.5,1034.5 C 410.467,1034.26 412.301,1034.59 414,1035.5C 414.827,1039.54 414.66,1043.54 413.5,1047.5C 411.629,1048.77 409.796,1048.77 408,1047.5C 405.965,1043.06 406.132,1038.73 408.5,1034.5 Z"
       id="path358" />
  </g>
  <g
     id="g364">
    <path
       style="opacity:1"
       fill="#0031a0"
       d="M 496.5,1034.5 C 498.144,1034.29 499.644,1034.62 501,1035.5C 501.827,1039.54 501.66,1043.54 500.5,1047.5C 498.629,1048.77 496.796,1048.77 495,1047.5C 492.679,1042.77 493.179,1038.44 496.5,1034.5 Z"
       id="path362" />
  </g>
  <g
     id="g368">
    <path
       style="opacity:1"
       fill="#0031a0"
       d="M 377.5,1042.5 C 378.708,1043.23 380.041,1043.57 381.5,1043.5C 381.338,1046.67 379.672,1048.67 376.5,1049.5C 372.7,1046.73 373.033,1044.39 377.5,1042.5 Z"
       id="path366" />
  </g>
  <g
     id="g372">
    <path
       style="opacity:1"
       fill="#fefffe"
       d="M 234.5,1116.5 C 301.17,1116.17 367.837,1116.5 434.5,1117.5C 436.007,1119.97 435.673,1122.14 433.5,1124C 367.5,1124.67 301.5,1124.67 235.5,1124C 233.163,1121.81 232.83,1119.31 234.5,1116.5 Z"
       id="path370" />
  </g>
</svg>
