<?xml version="1.0" encoding="UTF-8" standalone="no"?>
<!-- Created with Inkscape (http://www.inkscape.org/) -->

<svg
   width="65"
   height="100"
   viewBox="0 0 17.197916 26.458334"
   version="1.1"
   id="svg127350"
   inkscape:export-filename="C:\Users\Agathe\Desktop\fontaine_dispo24.png"
   inkscape:export-xdpi="200"
   inkscape:export-ydpi="200"
   inkscape:version="1.1 (c68e22c387, 2021-05-23)"
   sodipodi:docname="fontaine_dispo24.svg"
   xmlns:inkscape="http://www.inkscape.org/namespaces/inkscape"
   xmlns:sodipodi="http://sodipodi.sourceforge.net/DTD/sodipodi-0.dtd"
   xmlns="http://www.w3.org/2000/svg"
   xmlns:svg="http://www.w3.org/2000/svg">
  <sodipodi:namedview
     id="namedview127352"
     pagecolor="#ffffff"
     bordercolor="#666666"
     borderopacity="1.0"
     inkscape:pageshadow="2"
     inkscape:pageopacity="0"
     inkscape:pagecheckerboard="0"
     inkscape:document-units="mm"
     showgrid="false"
     units="px"
     inkscape:zoom="11.944557"
     inkscape:cx="35.078739"
     inkscape:cy="55.464594"
     inkscape:window-width="2400"
     inkscape:window-height="1271"
     inkscape:window-x="2391"
     inkscape:window-y="-9"
     inkscape:window-maximized="1"
     inkscape:current-layer="path44" />
  <defs
     id="defs127347" />
  <g
     inkscape:label="Calque 1"
     inkscape:groupmode="layer"
     id="layer1">
    <g
       id="path44"
       transform="scale(0.26458333)">
      <path
         style="color:#000000;fill:#002ddc;stroke-width:0.566929;-inkscape-stroke:none"
         d="m 32.591797,24.226562 c -0.288353,-0.0026 -0.439284,0.20499 -0.458985,0.427735 0,0 -0.002,0.002 -0.002,0.002 -0.07472,0.08701 -0.137653,0.207665 -0.125,0.324219 0.06394,0.598891 0.129421,1.19603 0.19336,1.794922 0.06465,0.601733 0.127468,1.202954 0.191406,1.804687 L 32.5,29.591797 c -0.0028,0.06607 0.01119,0.128 0.04102,0.185547 0.0192,0.05968 0.05272,0.112203 0.09961,0.15625 0.08312,0.08312 0.22049,0.146305 0.339844,0.140625 0.119353,-0.0057 0.253168,-0.04614 0.339843,-0.140625 0.08099,-0.08809 0.154122,-0.21552 0.140626,-0.339844 -0.06394,-0.598896 -0.129421,-1.197984 -0.19336,-1.796875 -0.06394,-0.598891 -0.129421,-1.202954 -0.193359,-1.804687 l -0.08398,-0.794922 c 4.529563,0.118383 8.9761,1.542305 12.792969,3.974609 3.989057,2.541204 7.220149,6.177754 9.173828,10.492187 1.35789,2.998375 2.097557,6.290662 2.203125,9.59375 -0.06854,-0.01241 -0.139914,-0.0122 -0.210937,0.0059 -0.281599,0.0715 -0.566345,0.128676 -0.853516,0.171875 -0.03524,0.0047 -0.07213,0.01136 -0.107422,0.01563 h -0.0078 c -0.555147,0.06662 -1.116291,0.07952 -1.673828,0.03906 -0.16789,-0.0126 -0.333471,-0.02873 -0.5,-0.05078 -0.0014,-4.38e-4 -0.0025,-0.0015 -0.0039,-0.002 h -0.0059 c -0.06075,-0.01738 -0.120888,-0.0211 -0.181641,-0.0078 -0.06395,0.0028 -0.124279,0.02172 -0.179687,0.05664 -0.09948,0.05824 -0.194398,0.172741 -0.220703,0.28711 -0.02759,0.12291 -0.0214,0.262394 0.04883,0.371093 0.06323,0.09804 0.167034,0.20294 0.287109,0.220703 0.483092,0.07106 0.968259,0.113646 1.457031,0.109375 0.488777,-0.0042 0.974119,-0.05074 1.455079,-0.128906 0.238802,-0.03866 0.47467,-0.08965 0.708984,-0.148437 -0.006,1.282684 -0.104907,2.562476 -0.304687,3.824218 -0.737428,4.656862 -2.80947,8.997766 -5.976563,12.490235 -0.188933,0.208362 -0.382449,0.413168 -0.578125,0.615234 -0.769854,-0.693801 -1.540745,-1.388178 -2.310547,-2.082031 -0.223786,-0.201751 -0.450046,-0.401753 -0.673828,-0.603516 -0.09449,-0.08527 -0.207875,-0.140625 -0.337891,-0.140625 -0.117921,0 -0.258848,0.05252 -0.339843,0.140625 -0.081,0.0881 -0.146295,0.209992 -0.140625,0.337891 0.0057,0.127861 0.04614,0.254577 0.140625,0.339844 0.79923,0.720374 1.599207,1.439778 2.398437,2.160156 0.193684,0.174613 0.388206,0.348813 0.582031,0.523437 -2.825378,2.708363 -6.265693,4.778944 -10.005859,5.94336 -2.086874,0.649643 -4.245912,0.993083 -6.414062,1.052734 -0.02472,-0.143149 -0.04777,-0.287729 -0.06836,-0.43164 l -0.0078,-0.05469 c -0.0034,-0.02429 -0.0065,-0.04796 -0.0098,-0.07227 -0.122379,-0.978892 -0.147079,-1.968462 -0.07422,-2.953125 0.01975,-0.271137 0.047,-0.542663 0.08203,-0.8125 0.0024,-0.01825 0.0052,-0.03643 0.0078,-0.05469 0.01988,-0.06395 0.02199,-0.127457 0.0078,-0.191406 -0.0028,-0.06395 -0.02184,-0.12428 -0.05664,-0.179688 -0.05825,-0.09944 -0.17273,-0.194397 -0.287109,-0.220703 -0.122903,-0.02759 -0.260446,-0.02139 -0.369141,0.04883 -0.09733,0.06251 -0.203654,0.165081 -0.220703,0.285156 v 0.0039 c -0.09378,0.660699 -0.153404,1.325097 -0.164063,1.992187 -0.0099,0.629439 0.02022,1.25888 0.08984,1.884766 0.02826,0.255275 0.06358,0.509998 0.103516,0.763672 -2.200715,-0.02623 -4.399081,-0.343497 -6.529297,-0.947266 -3.811175,-1.080095 -7.360815,-3.050121 -10.244141,-5.757813 0.04198,-0.02219 0.08022,-0.05133 0.115235,-0.08594 0.485933,-0.387182 0.952998,-0.797819 1.398437,-1.230469 0.445438,-0.43265 0.870092,-0.886759 1.271484,-1.361328 0.248652,-0.293405 0.488393,-0.594196 0.720703,-0.90039 0.03481,-0.05541 0.0538,-0.11502 0.05664,-0.179688 0.01421,-0.06395 0.01015,-0.127457 -0.0098,-0.191406 -0.03054,-0.111534 -0.116982,-0.232382 -0.220704,-0.28711 -0.111537,-0.05896 -0.245527,-0.08934 -0.36914,-0.04883 l -0.115235,0.04883 c -0.07247,0.04263 -0.131202,0.09938 -0.173828,0.171875 -0.03836,0.05046 -0.07616,0.101887 -0.115234,0.152344 -0.341419,0.435585 -0.701811,0.855047 -1.080078,1.259766 -0.404234,0.43265 -0.828888,0.847364 -1.271485,1.240234 -0.251493,0.22235 -0.508625,0.438863 -0.771484,0.648438 -0.03739,0.02974 -0.06688,0.0732 -0.08984,0.123047 C 14.455823,67.09476 14.103743,66.718534 13.767578,66.328125 10.658032,62.716306 8.6638835,58.140008 8.0429688,53.419922 7.9061497,52.379847 7.8408793,51.344255 7.8378906,50.314453 c 0.9741143,0.171782 1.9599669,0.286987 2.9472654,0.341797 0.296247,0.01625 0.591713,0.02558 0.888672,0.03125 0.121482,0.0021 0.254593,-0.05536 0.339844,-0.140625 0.08525,-0.08527 0.146306,-0.220486 0.140625,-0.339844 -0.0057,-0.119357 -0.04614,-0.253179 -0.140625,-0.339843 -0.09449,-0.08666 -0.209125,-0.138471 -0.339844,-0.140626 -0.715402,-0.01361 -1.428775,-0.05732 -2.1406249,-0.134765 -0.1596965,-0.01729 -0.3193553,-0.0359 -0.4785156,-0.05664 L 8.9277344,49.517578 C 8.5691319,49.467229 8.2120024,49.40822 7.8554688,49.341797 7.9807573,46.039096 8.790502,42.826348 10.263672,39.845703 c 1.267531,-2.56458 2.900678,-4.823022 4.855469,-6.742187 0.321079,0.25852 0.634972,0.5253 0.941406,0.800781 0.421994,0.379369 0.831032,0.773144 1.224609,1.181641 0.222365,0.230887 0.439926,0.466906 0.652344,0.707031 0.07886,0.0888 0.224043,0.140625 0.339844,0.140625 0.115801,0 0.258856,-0.05253 0.339844,-0.140625 0.08099,-0.08809 0.146305,-0.211967 0.140624,-0.339844 -0.0057,-0.127877 -0.05253,-0.241092 -0.140624,-0.339844 -0.380066,-0.429091 -0.776162,-0.844879 -1.1875,-1.24414 -0.411339,-0.399261 -0.832618,-0.779903 -1.269532,-1.146485 -0.113364,-0.0952 -0.226649,-0.188548 -0.341797,-0.28125 1.054469,-0.955382 2.194057,-1.817328 3.414063,-2.582031 0.929951,-0.582551 1.898686,-1.098595 2.90039,-1.546875 0.237284,-0.105854 0.294602,-0.451469 0.173829,-0.658203 -0.142796,-0.243677 -0.42021,-0.279682 -0.658203,-0.173828 -2.501418,1.118557 -4.787099,2.67743 -6.777344,4.552734 -0.08515,0.04194 -0.165319,0.110366 -0.207032,0.189453 -0.0033,0.0062 -0.0086,0.01513 -0.01172,0.02148 -1.355147,1.307499 -2.571214,2.761874 -3.613282,4.330078 -2.647057,3.982662 -4.1326249,8.681169 -4.1660151,13.46875 -0.033373,4.938897 1.4014143,9.891397 4.0527341,14.05664 2.679737,4.20929 6.612161,7.511158 11.189453,9.488282 4.558111,1.969307 9.633374,2.667135 14.541016,1.851562 4.623468,-0.767973 8.978928,-2.902368 12.533203,-5.939453 3.642369,-3.112388 6.410646,-7.216742 7.814453,-11.804688 1.481957,-4.844413 1.48585,-10.133209 0.08203,-14.996093 C 55.709846,37.93153 52.944255,33.65982 49.148438,30.462891 45.44568,27.344108 40.885414,25.21984 36.087891,24.505859 34.929892,24.333935 33.762583,24.237219 32.591797,24.226562 Z m 17.199219,8.296876 c -0.008,-1.87e-4 -0.01544,0.0016 -0.02344,0.002 -0.127861,0.0057 -0.255296,0.04543 -0.339844,0.140625 -0.478828,0.538505 -0.995581,1.041949 -1.546875,1.505859 -0.157001,0.13214 -0.316555,0.260972 -0.478515,0.386719 -0.165922,0.12604 -0.336541,0.248067 -0.507813,0.367187 -0.104428,0.07247 -0.185893,0.161365 -0.220703,0.28711 -0.03213,0.11509 -0.01648,0.26755 0.04883,0.36914 0.06535,0.10159 0.164917,0.194949 0.28711,0.222657 0.122192,0.0277 0.263994,0.02435 0.36914,-0.04883 v -0.002 c 0.784313,-0.545609 1.522716,-1.159963 2.19336,-1.839844 0.183307,-0.185423 0.361819,-0.375655 0.535156,-0.570312 0.08527,-0.09591 0.140625,-0.209121 0.140625,-0.339844 0,-0.117932 -0.05252,-0.256903 -0.140625,-0.33789 -0.08259,-0.07593 -0.19712,-0.139782 -0.316406,-0.142578 z m -17.150391,3.40039 c -0.255753,0.01138 -0.474075,0.212458 -0.480469,0.482422 h -0.002 c -0.03625,1.633986 -0.07314,3.266406 -0.109375,4.900391 -0.03625,1.633988 -0.07243,3.280253 -0.109375,4.919921 -0.03337,1.507529 -0.177569,3.115192 0.490235,4.517579 0.502983,1.056408 1.454464,1.792772 2.365234,2.480468 0.108695,0.08239 0.218719,0.1637 0.328125,0.246094 0.0547,0.0412 0.108115,0.0838 0.162109,0.125 0.02343,0.01776 0.04687,0.03628 0.07031,0.05469 0.0044,0.0034 0.0092,0.0065 0.01367,0.0098 0.215969,0.168378 0.429629,0.340841 0.632812,0.523438 0.203184,0.182589 0.389688,0.369093 0.564453,0.572265 0.03978,0.04619 0.07882,0.093 0.117188,0.140625 0.02203,0.02986 0.04509,0.05999 0.06641,0.08984 0.07601,0.106583 0.146289,0.214437 0.210938,0.328125 0.06465,0.113688 0.12445,0.234675 0.177734,0.355469 0.04476,0.10303 0.184098,0.192281 0.287109,0.220703 0.115091,0.03213 0.267551,0.01648 0.369141,-0.04883 0.101594,-0.06535 0.194952,-0.164917 0.222656,-0.287109 0.03061,-0.134287 0.0059,-0.246067 -0.04883,-0.371094 -0.461068,-1.052856 -1.377943,-1.792244 -2.269531,-2.470703 -0.217391,-0.165544 -0.437616,-0.329852 -0.654297,-0.496094 0,0 -0.002,-0.002 -0.002,-0.002 0.01222,0.0096 -0.0039,-0.0033 -0.0098,-0.0078 -0.02371,-0.01833 -0.04917,-0.03659 -0.07227,-0.05469 -0.05328,-0.04191 -0.10492,-0.08432 -0.158204,-0.126953 -0.108695,-0.08738 -0.217123,-0.175963 -0.322265,-0.267579 -0.201052,-0.174765 -0.395723,-0.358628 -0.576172,-0.554687 -0.07823,-0.08505 -0.150196,-0.173862 -0.224609,-0.261719 -0.0043,-0.0059 -0.0094,-0.01188 -0.01367,-0.01758 -0.006,-0.007 -0.01151,-0.01452 -0.01758,-0.02148 0,0 0,-0.002 0,-0.002 -0.01705,-0.02343 -0.03443,-0.04493 -0.05078,-0.06836 -0.04049,-0.05684 -0.07953,-0.114867 -0.117187,-0.173828 -0.07247,-0.114368 -0.137591,-0.233995 -0.197266,-0.355469 -0.0192,-0.0398 -0.03888,-0.07862 -0.05664,-0.11914 -9.64e-4,-0.0021 -0.003,-0.0037 -0.0039,-0.0059 7.32e-4,0.0013 -0.0012,-0.0032 -0.0059,-0.01563 -0.03269,-0.08738 -0.06728,-0.172899 -0.0957,-0.261718 -0.054,-0.166942 -0.098,-0.337854 -0.132813,-0.509766 -0.01776,-0.08595 -0.03144,-0.172383 -0.04492,-0.259766 -0.0036,-0.02192 -0.0062,-0.04441 -0.0098,-0.06641 0.0099,0.07317 1.78e-4,-0.001 -0.002,-0.01953 -0.0036,-0.02759 -0.0069,-0.05433 -0.0098,-0.08203 -0.07815,-0.725348 -0.04954,-1.457361 -0.0332,-2.185547 0.03625,-1.633988 0.07314,-3.266403 0.109375,-4.900391 0.03625,-1.621198 0.07314,-3.242793 0.109375,-4.863281 l 0.01367,-0.607422 c 0.0057,-0.251494 -0.224716,-0.493789 -0.480469,-0.482422 z"
         id="path870" />
      <path
         style="color:#000000;fill:#002ddc;-inkscape-stroke:none"
         d="m 32.59375,23.943359 c -0.212658,-0.0019 -0.40888,0.08322 -0.537109,0.216797 -0.08228,0.08571 -0.09957,0.19575 -0.132813,0.300781 l -0.002,0.002 -0.0059,0.0078 c -0.0078,0.0091 -0.0059,0.02947 -0.01367,0.03906 -0.01033,0.04212 -0.04898,0.07669 -0.05273,0.11914 l 0.04297,-0.0918 c -0.09286,0.120778 -0.189763,0.265251 -0.167969,0.472657 0.064,0.599427 0.129478,1.196567 0.19336,1.794921 v 0.002 c 0.06459,0.601184 0.127433,1.200673 0.191406,1.802734 l 0.109375,1.013672 -0.002,-0.04297 c -0.0045,0.104865 0.02268,0.209105 0.06641,0.302734 0.03454,0.09521 0.08942,0.184698 0.162109,0.253907 0.142074,0.140226 0.32182,0.231506 0.548829,0.220703 0.173178,-0.0082 0.37749,-0.06054 0.535156,-0.232422 0.115269,-0.125382 0.239476,-0.307541 0.21289,-0.560547 v -0.002 c -0.06393,-0.598722 -0.129539,-1.197146 -0.193359,-1.794922 -0.06397,-0.599198 -0.129464,-1.203355 -0.193359,-1.804687 l -0.04492,-0.427735 c 4.359563,0.176543 8.639296,1.529268 12.320312,3.875 1.336192,0.851213 2.440004,1.984789 3.583985,3.06836 3.08e-4,2.91e-4 -3.08e-4,0.0017 0,0.002 -0.469313,0.527605 -0.975571,1.020157 -1.515625,1.474609 -0.15406,0.129664 -0.311592,0.255371 -0.470703,0.378906 -0.160898,0.122158 -0.327625,0.242204 -0.496094,0.359375 -0.136911,0.09501 -0.276048,0.241129 -0.332031,0.44336 -0.05596,0.200483 -0.03995,0.404871 0.08398,0.597656 v 0.002 c 0.09348,0.145318 0.239163,0.294972 0.462891,0.345703 0.173119,0.03925 0.393857,0.04537 0.59375,-0.09375 l 0.121093,-0.08398 v -0.01953 c 0.749695,-0.532065 1.46467,-1.115919 2.111328,-1.771485 0.186768,-0.188923 0.368303,-0.381735 0.544922,-0.580078 v -0.002 c 0.01789,-0.02013 0.01472,-0.0577 0.03125,-0.08008 1.757286,1.880994 3.280608,3.969334 4.34961,6.330078 1.30418,2.879778 2.007004,6.040085 2.142578,9.214844 -0.260373,0.06485 -0.523531,0.118259 -0.789063,0.158203 -0.03527,0.0048 -0.06212,0.01064 -0.08398,0.01367 -0.0015,2.06e-4 -0.0044,-1.88e-4 -0.0059,0 l -0.0078,0.002 h -0.0078 c -0.537008,0.06444 -1.079634,0.07626 -1.619141,0.03711 -0.156501,-0.01175 -0.309856,-0.02708 -0.462891,-0.04687 l -0.02148,-0.0059 h -0.04687 l 0.07031,0.0098 c -0.08788,-0.0241 -0.187214,-0.02631 -0.285156,-0.0098 -0.101875,0.0083 -0.203762,0.03604 -0.291015,0.08984 -0.170244,0.100341 -0.301368,0.246604 -0.351563,0.464843 l -0.002,0.002 c -0.03962,0.176478 -0.03819,0.392733 0.08789,0.587891 0.0899,0.139395 0.227878,0.309712 0.484375,0.347656 0.49399,0.07266 0.993124,0.115758 1.5,0.111328 0.505191,-0.0043 1.004888,-0.05267 1.498046,-0.132812 0.119381,-0.01933 0.234239,-0.04966 0.351563,-0.07422 -0.02108,1.148939 -0.09264,2.296241 -0.271484,3.425781 -0.728854,4.602718 -2.778302,8.894247 -5.908204,12.345704 -0.125144,0.138013 -0.253824,0.272593 -0.382812,0.408203 -0.701578,-0.632218 -1.404159,-1.264367 -2.105469,-1.896485 -0.225162,-0.202992 -0.451428,-0.402999 -0.673828,-0.603515 -0.13292,-0.119948 -0.316864,-0.212891 -0.527344,-0.212891 -0.202094,0 -0.394948,0.06504 -0.548828,0.232422 -0.117786,0.128118 -0.225131,0.308958 -0.214844,0.541016 0.0079,0.179215 0.06607,0.387183 0.234375,0.539062 0.799389,0.720517 1.599368,1.439923 2.398438,2.160156 0.109426,0.09865 0.218724,0.196638 0.328125,0.294922 -2.751087,2.573757 -6.049448,4.569597 -9.646484,5.689453 -1.981528,0.616849 -4.033792,0.922481 -6.09375,1 -0.0076,-0.04951 -0.01638,-0.09908 -0.02344,-0.148437 l -0.0078,-0.05273 v -0.002 c -0.003,-0.02192 -0.0067,-0.04337 -0.0098,-0.06641 v -0.002 c -0.119834,-0.959583 -0.143698,-1.92916 -0.07227,-2.894531 0.01937,-0.265965 0.04576,-0.532498 0.08008,-0.796875 0.002,-0.01493 0.005,-0.03272 0.0078,-0.05273 l -0.0098,0.04492 c 0.03122,-0.100421 0.0296,-0.207513 0.01172,-0.308594 -0.0083,-0.102121 -0.03644,-0.204132 -0.08984,-0.291015 -0.100319,-0.170112 -0.246536,-0.301354 -0.464843,-0.351563 l -0.002,-0.002 c -0.175281,-0.03935 -0.390613,-0.03615 -0.583984,0.08789 -0.136974,0.08798 -0.31266,0.224146 -0.349609,0.484375 v 0.0039 l -0.002,0.01563 v 0.0078 c -0.09326,0.662708 -0.153308,1.330811 -0.164063,2.003906 -0.01013,0.641472 0.02086,1.28222 0.0918,1.919922 0.01485,0.134166 0.03642,0.267051 0.05469,0.40039 -2.062761,-0.05281 -4.124021,-0.32264 -6.121093,-0.888672 -3.661803,-1.037762 -7.05724,-2.936859 -9.861328,-5.496093 0.430241,-0.351023 0.851755,-0.714752 1.25,-1.101563 0.451959,-0.438984 0.883542,-0.8991 1.291015,-1.380859 0.252329,-0.297743 0.495429,-0.602318 0.730469,-0.91211 l 0.0059,-0.0098 0.0078,-0.01172 c 0.05447,-0.0867 0.08301,-0.190996 0.0918,-0.294922 0.01823,-0.103218 0.01462,-0.208074 -0.01367,-0.302734 -0.05304,-0.191491 -0.161746,-0.35666 -0.359375,-0.460938 -0.158888,-0.08399 -0.368762,-0.140822 -0.589844,-0.06836 l -0.01172,0.0039 -0.142578,0.06055 -0.01758,0.0098 c -0.109524,0.06444 -0.205905,0.156636 -0.273437,0.271484 l 0.01758,-0.02734 c -0.04023,0.05292 -0.07711,0.103687 -0.113282,0.150391 -0.335675,0.428124 -0.690247,0.841951 -1.0625,1.240234 -0.398314,0.426315 -0.816102,0.833822 -1.251953,1.220703 -0.220045,0.194547 -0.445265,0.383871 -0.673828,0.56836 C 14.531683,66.749647 14.249257,66.452471 13.982422,66.142578 10.911026,62.575072 8.9379871,58.048573 8.3242188,53.382812 8.2031638,52.462574 8.1568289,51.547761 8.1425781,50.634766 c 0.8705332,0.141092 1.7466047,0.255814 2.6269529,0.304687 0.300616,0.01649 0.599133,0.02554 0.898438,0.03125 0.214505,0.0038 0.402356,-0.07811 0.546875,-0.222656 0.143352,-0.143377 0.233406,-0.328835 0.222656,-0.554688 -0.0082,-0.173183 -0.06052,-0.37749 -0.232422,-0.535156 -0.13675,-0.125428 -0.323286,-0.210987 -0.52539,-0.214844 h -0.002 c -0.706786,-0.0135 -1.410918,-0.0564 -2.1132809,-0.132812 -0.1575158,-0.01705 -0.314722,-0.03633 -0.4707031,-0.05664 h -0.00195 l -0.125,-0.01758 c -0.2652563,-0.03724 -0.5285808,-0.08447 -0.7929688,-0.130859 0.1545384,-3.174662 0.9256688,-6.265581 2.3437499,-9.134766 1.214329,-2.456937 2.781579,-4.611633 4.632813,-6.46875 0.243368,0.200811 0.486169,0.402438 0.720703,0.613281 0.417195,0.375055 0.820342,0.764594 1.208984,1.167969 0.219494,0.227906 0.434681,0.460043 0.644531,0.697266 0.157204,0.177035 0.352367,0.236328 0.552735,0.236328 0.201528,0 0.39328,-0.06323 0.548828,-0.232422 0.119198,-0.129657 0.22516,-0.310742 0.214844,-0.542969 -0.0084,-0.188667 -0.08547,-0.374084 -0.210938,-0.515625 l -0.002,-0.002 c -0.384059,-0.433498 -0.785178,-0.854032 -1.201172,-1.257812 -0.416137,-0.403918 -0.842958,-0.789141 -1.285156,-1.160157 -0.02202,-0.01849 -0.04437,-0.03631 -0.06641,-0.05469 0.971828,-0.855955 1.996742,-1.655386 3.107421,-2.351563 0.91872,-0.575515 1.87537,-1.086315 2.865235,-1.529297 0.214714,-0.0965 0.338732,-0.294899 0.382812,-0.486328 0.04419,-0.191904 0.02487,-0.392627 -0.08008,-0.572265 -0.108803,-0.185669 -0.288063,-0.309726 -0.474609,-0.351563 -0.186547,-0.04184 -0.375701,-0.01385 -0.542969,0.06055 v 0.002 c -2.532267,1.132352 -4.845405,2.707698 -6.857422,4.603516 l 0.07031,-0.04687 c -0.124726,0.06143 -0.234532,0.156356 -0.314453,0.294922 l 0.02344,-0.0332 c -0.01466,0.01414 -0.02443,0.0327 -0.03906,0.04687 -4.9e-4,9.18e-4 -0.0015,0.001 -0.002,0.002 -1.351317,1.310087 -2.569498,2.760278 -3.611329,4.328125 -2.6768809,4.027534 -4.1791002,8.778129 -4.2128903,13.623047 -0.033753,4.995067 1.416559,9.998913 4.0976563,14.210937 2.711137,4.258613 6.685954,7.596461 11.314453,9.595703 4.606052,1.99002 9.736563,2.696134 14.701172,1.871094 4.678826,-0.777168 9.078566,-2.935136 12.669922,-6.003906 3.682008,-3.146259 6.481871,-7.295088 7.902344,-11.9375 1.498797,-4.899463 1.501076,-10.240618 0.08203,-15.15625 -1.391642,-4.821563 -4.188258,-9.141629 -8.027344,-12.375 -3.741957,-3.1518 -8.348552,-5.299304 -13.201172,-6.021485 -1.170094,-0.173719 -2.350477,-0.270466 -3.535156,-0.28125 z m -0.0039,0.566407 c 1.15689,0.01053 2.31113,0.107216 3.457031,0.277343 4.742416,0.70578 9.25637,2.806818 12.919922,5.892578 3.752541,3.160481 6.487116,7.383851 7.847656,12.097657 1.388588,4.810126 1.383083,10.046584 -0.08203,14.835937 -1.387139,4.533471 -4.12384,8.593365 -7.726563,11.671875 -3.517187,3.005394 -7.828383,5.116224 -12.396484,5.875 C 31.75871,75.966261 26.738677,75.276715 22.228516,73.328125 17.70244,71.373123 13.812394,68.107224 11.164063,63.947266 8.5425255,59.828812 7.1232563,54.927638 7.15625,50.044922 c 0.03299,-4.730235 1.5019132,-9.376672 4.119141,-13.314453 1.030517,-1.550822 2.233681,-2.9898 3.574218,-4.283203 l 0.03516,-0.0332 0.02148,-0.04492 c -0.0073,0.01503 -0.0024,0.0056 0.0078,-0.01367 0.0033,-0.0062 0.04325,-0.04926 0.08203,-0.06836 l 0.03906,-0.01758 0.03125,-0.0293 c 1.96847,-1.854786 4.226702,-3.397193 6.697266,-4.501953 v 0.002 c 0.07072,-0.03146 0.140142,-0.03796 0.1875,-0.02734 0.04736,0.01062 0.07734,0.02598 0.111328,0.08398 0.01583,0.0271 0.02922,0.101106 0.01563,0.160156 -0.0136,0.05905 -0.03898,0.08608 -0.06055,0.0957 v 0.002 c -1.013541,0.453578 -1.994366,0.974868 -2.935547,1.564454 -1.233917,0.773422 -2.386217,1.644676 -3.453125,2.611328 l -0.246093,0.224609 0.257812,0.207031 c 0.113485,0.09136 0.225866,0.183267 0.337891,0.277344 0.431628,0.362148 0.847365,0.738209 1.253906,1.132813 0.406021,0.3941 0.79636,0.804563 1.171875,1.228515 h 0.002 v 0.002 c 0.04969,0.0557 0.06542,0.09589 0.06836,0.16211 0.001,0.02353 -0.02363,0.09019 -0.06641,0.136718 -0.0064,0.007 -0.100786,0.04883 -0.130859,0.04883 -0.03123,0 -0.126445,-0.04435 -0.126953,-0.04492 C 17.935406,35.362442 17.71547,35.12254 17.490234,34.888672 17.091723,34.475054 16.676792,34.077042 16.25,33.693359 15.939659,33.414366 15.62186,33.144478 15.296875,32.882812 l -0.197266,-0.158203 -0.179687,0.175782 c -1.977799,1.941753 -3.629063,4.228291 -4.910156,6.820312 -1.4907369,3.016187 -2.3107221,6.267403 -2.4375004,9.609375 l -0.00977,0.246094 0.2402344,0.04492 c 0.3603228,0.06713 0.7227975,0.126748 1.0859375,0.177734 l 0.1289062,0.01758 c 0.1617094,0.02108 0.3231425,0.03918 0.484375,0.05664 0.7206889,0.0784 1.4426549,0.122961 2.1660159,0.136719 h 0.002 c 0.05859,9.65e-4 0.100554,0.0189 0.152344,0.06641 0.01707,0.01566 0.04571,0.079 0.04883,0.144531 6.12e-4,0.01286 -0.03144,0.09784 -0.05859,0.125 -0.02598,0.02599 -0.104354,0.05909 -0.132812,0.05859 -0.294613,-0.0056 -0.587029,-0.01524 -0.878907,-0.03125 -0.9757752,-0.05417 -1.9508155,-0.168025 -2.9140623,-0.337891 l -0.3339843,-0.05859 0.00195,0.337891 c 0.00302,1.041227 0.068559,2.089939 0.2070312,3.142578 0.6280599,4.774402 2.6433253,9.400517 5.7910153,13.056641 0.341266,0.396333 0.698536,0.776872 1.0625,1.146484 l 0.28711,0.291016 0.171875,-0.371094 c 0.01058,-0.02297 0.01889,-0.02834 0.0078,-0.01953 v -0.002 c 0.266813,-0.212727 0.528291,-0.430877 0.783203,-0.65625 0.449343,-0.398858 0.880863,-0.820781 1.291016,-1.259766 0.383653,-0.410482 0.749044,-0.835073 1.095703,-1.277344 v -0.002 h 0.002 c 0.04198,-0.05421 0.0807,-0.106301 0.117188,-0.154297 l 0.0098,-0.01367 0.0078,-0.01367 c 0.0163,-0.02772 0.03796,-0.04726 0.06836,-0.06641 l 0.06836,-0.0293 c 0.02704,-0.0077 0.08197,-0.0038 0.144531,0.0293 0.0089,0.0047 0.07175,0.0809 0.08008,0.111328 l 0.002,0.0059 v 0.0039 c 0.0073,0.02351 0.007,0.03288 0.0039,0.04687 l -0.0039,0.02344 -0.002,0.02539 c -6.06e-4,0.0138 -0.0054,0.02168 -0.01172,0.0332 -0.226167,0.29763 -0.458117,0.590505 -0.699219,0.875 -0.39531,0.467379 -0.813037,0.915482 -1.251953,1.341797 -0.438702,0.426107 -0.898181,0.829461 -1.376953,1.210938 l -0.01367,0.0098 -0.0098,0.01172 c -0.01821,0.01799 -0.03463,0.0296 -0.04883,0.03711 l -0.351563,0.185547 0.291016,0.271485 c 2.917936,2.740194 6.505632,4.73206 10.359375,5.824218 2.154374,0.610617 4.377813,0.930508 6.603515,0.957032 l 0.335938,0.0039 -0.05273,-0.332031 c -0.0394,-0.250236 -0.07387,-0.499898 -0.101562,-0.75 -0.06831,-0.61407 -0.09764,-1.232205 -0.08789,-1.84961 0.01044,-0.653211 0.0697,-1.305959 0.16211,-1.957031 v -0.0039 c -0.0029,0.02008 0.03411,-0.04889 0.0918,-0.08594 h 0.002 c 0.02352,-0.0152 0.08239,-0.02547 0.152343,-0.0098 0.01194,0.0043 0.08962,0.05889 0.105469,0.08594 l 0.002,0.0039 0.002,0.0039 c 0.01022,0.01627 0.01297,0.02514 0.01367,0.04102 l 0.002,0.02539 0.0039,0.02344 c 0.0043,0.01945 0.0038,0.02831 -0.002,0.04687 l -0.0059,0.02148 -0.0039,0.02344 c -0.0023,0.0165 -0.0049,0.03508 -0.0078,0.05664 -0.03574,0.275296 -0.06386,0.551816 -0.08398,0.828125 -0.07424,1.003302 -0.04854,2.012199 0.07617,3.009766 v 0.002 c 0.0032,0.02419 0.0062,0.04882 0.0098,0.07422 l 0.0078,0.05664 c 0.02102,0.146929 0.04517,0.29388 0.07031,0.439453 l 0.04102,0.242188 0.246094,-0.0078 c 2.192877,-0.06033 4.377456,-0.406746 6.490234,-1.064453 3.784121,-1.1781 7.260932,-3.271803 10.117188,-6.009766 l 0.220703,-0.210937 -0.226563,-0.205078 c -0.194245,-0.175003 -0.388814,-0.349246 -0.582031,-0.523438 -0.799389,-0.720521 -1.599367,-1.439926 -2.398437,-2.160156 -0.02067,-0.01865 -0.04348,-0.06412 -0.04687,-0.140625 -0.0011,-0.02374 0.0222,-0.08668 0.06641,-0.134766 0.0081,-0.0088 0.09711,-0.04883 0.130859,-0.04883 0.04955,0 0.09238,0.01778 0.148438,0.06836 0.225164,0.203009 0.451419,0.403006 0.673828,0.603515 0.769847,0.693894 1.54073,1.388264 2.310547,2.082032 l 0.203125,0.183593 0.189453,-0.197265 c 0.197292,-0.203735 0.394394,-0.411807 0.585937,-0.623047 3.204278,-3.533474 5.298922,-7.923768 6.044922,-12.634766 0.20215,-1.276707 0.302555,-2.570808 0.308594,-3.867187 l 0.002,-0.365235 -0.353515,0.08789 c -0.228293,0.05727 -0.456498,0.107453 -0.685547,0.144531 -0.468761,0.07618 -0.939748,0.120983 -1.41211,0.125 -0.470667,0.0041 -0.941869,-0.03797 -1.414062,-0.107422 0.01635,0.0024 -0.05328,-0.03706 -0.08984,-0.09375 -0.01437,-0.02224 -0.02533,-0.08495 -0.0098,-0.154297 0.0043,-0.01199 0.05894,-0.08966 0.08594,-0.105468 l 0.0039,-0.002 0.0039,-0.002 c 0.01586,-0.01 0.02478,-0.01295 0.04102,-0.01367 l 0.02539,-0.002 0.02344,-0.0039 c 0.01183,-0.0026 0.01951,-0.0028 0.04297,0.0039 h 0.0039 l 0.02344,0.0059 0.01172,0.0039 h 0.01172 c 0.172935,0.0229 0.343603,0.03982 0.515625,0.05273 0.575566,0.04176 1.15523,0.02778 1.728516,-0.04102 h 0.0078 c 0.04682,-0.0057 0.0852,-0.01214 0.111328,-0.01563 h 0.002 0.0039 c 0.296297,-0.04457 0.590021,-0.10389 0.880859,-0.177735 0.02758,-0.007 0.05581,-0.0081 0.08984,-0.002 l 0.345703,0.0625 -0.01172,-0.351562 c -0.106726,-3.339327 -0.854416,-6.667005 -2.228515,-9.701172 -1.181904,-2.610072 -2.869249,-4.930746 -4.861328,-6.958984 -0.0287,-0.04049 -0.01513,-0.0945 -0.05469,-0.13086 -0.03236,-0.02975 -0.09583,-0.03186 -0.134766,-0.05859 -1.292251,-1.287858 -2.681428,-2.479281 -4.228515,-3.464843 -3.858724,-2.458976 -8.353439,-3.899724 -12.9375,-4.019532 l -0.324219,-0.0078 0.119141,1.115234 c 0.06398,0.602133 0.129453,1.206105 0.193359,1.804688 0.06399,0.599362 0.129469,1.198451 0.193359,1.796875 v 0.002 c -6.04e-4,-0.0056 -0.022,0.06677 -0.06836,0.117187 -0.01568,0.0171 -0.079,0.04572 -0.144531,0.04883 -0.0093,4.44e-4 -0.101513,-0.03511 -0.125,-0.05859 l -0.0039,-0.002 -0.0039,-0.0039 c -0.01406,-0.01321 -0.01885,-0.02089 -0.02344,-0.03516 l -0.0078,-0.02344 -0.0098,-0.02148 c -0.0083,-0.01602 -0.01056,-0.02451 -0.0098,-0.04297 v -0.02148 l -0.111328,-1.03125 v -0.002 c -0.06376,-0.600117 -0.126841,-1.201744 -0.191406,-1.802734 v -0.002 c -0.06393,-0.598779 -0.129547,-1.195259 -0.19336,-1.792969 v -0.002 c 4.79e-4,0.0044 0.01827,-0.05577 0.05664,-0.103516 0.0014,-0.0018 4.69e-4,-0.0022 0.002,-0.0039 l 0.06055,-0.06055 0.0098,-0.101563 c 0.0049,-0.05579 0.02653,-0.101692 0.05078,-0.126953 0.02425,-0.02526 0.04735,-0.04366 0.123047,-0.04297 z m 23.423828,25.222656 -0.0332,0.002 h 0.02539 z m -6.365235,-16.88086 c 0.08664,0.08599 0.192015,0.151025 0.277344,0.238282 -0.01085,0.02132 -0.0066,0.04091 -0.0293,0.06641 -0.169758,0.190601 -0.345877,0.377009 -0.52539,0.558594 -0.657545,0.666601 -1.383405,1.270368 -2.154297,1.80664 l -0.0039,0.002 c -0.01284,0.0074 -0.07129,0.01963 -0.140625,0.0039 -0.02066,-0.0047 -0.07411,-0.04175 -0.111329,-0.09961 -0.0068,-0.01264 -0.02185,-0.109384 -0.01367,-0.138672 0.01364,-0.04926 0.03743,-0.08094 0.109375,-0.130859 0.173323,-0.120547 0.347296,-0.243695 0.517578,-0.373047 v -0.002 h 0.002 c 0.164808,-0.127958 0.326386,-0.259916 0.486328,-0.394531 0.561827,-0.472774 1.088346,-0.986532 1.576172,-1.535156 h 0.002 c 9.18e-4,-0.001 0.0067,-8.95e-4 0.0078,-0.002 z m -17.019531,2.789063 c -0.251678,0.0112 -0.338977,0.279143 -0.476562,0.482422 h -0.271485 l -0.0059,0.277344 c -0.03624,1.633905 -0.07314,3.266326 -0.109375,4.90039 -0.03625,1.634025 -0.07244,3.28036 -0.109375,4.919922 -0.03307,1.493923 -0.193189,3.151922 0.517578,4.644531 0.540421,1.135038 1.536876,1.897048 2.449219,2.585938 0.110539,0.08379 0.22204,0.16473 0.330078,0.246094 0.05051,0.03804 0.102901,0.07936 0.160156,0.123046 v 0.002 c 0.02037,0.01544 0.0425,0.03201 0.06641,0.05078 h 0.002 v 0.002 c 0.01879,0.01457 0.02613,0.01855 0.01953,0.01367 0.211144,0.164738 0.417641,0.331796 0.611328,0.505859 0.195949,0.176087 0.373388,0.354272 0.539062,0.546875 0.03781,0.04389 0.07496,0.08767 0.111329,0.132813 0.02083,0.02806 0.04115,0.05447 0.05664,0.07617 0.07148,0.100224 0.136217,0.200764 0.195313,0.304687 0.05878,0.103372 0.114359,0.215579 0.164062,0.328125 0.106586,0.24536 0.284202,0.329402 0.470703,0.380859 0.200484,0.05596 0.404871,0.03995 0.597657,-0.08398 h 0.002 c 0.145324,-0.09348 0.294977,-0.239158 0.345703,-0.462891 0.04554,-0.199757 6.38e-4,-0.393709 -0.06641,-0.546875 -0.496899,-1.134675 -1.461382,-1.900184 -2.357422,-2.582031 -0.208879,-0.159062 -0.419702,-0.315536 -0.625,-0.472656 l -0.002,-0.002 -0.228516,0.255859 c 0.01029,-0.01713 0.03125,-0.05078 0.03125,-0.05078 0,0 0.184989,-0.21562 0.183594,-0.216797 -0.0028,-0.0024 -0.0031,-0.0033 -0.0039,-0.0039 -0.0016,-0.0013 -0.0028,-0.003 -0.0039,-0.0039 -3.53e-4,-2.84e-4 -0.0016,2.82e-4 -0.002,0 0,0 -0.002,-0.002 -0.002,-0.002 -0.0033,-0.0027 -0.0066,-0.0058 -0.01172,-0.0098 h -0.002 c -0.02865,-0.0221 -0.0523,-0.04015 -0.06836,-0.05273 -0.05021,-0.0395 -0.101125,-0.08089 -0.15625,-0.125 -0.107533,-0.08645 -0.213855,-0.172109 -0.314453,-0.259765 v -0.002 c -0.195135,-0.169621 -0.381279,-0.344962 -0.552735,-0.53125 -0.0662,-0.07198 -0.133325,-0.153227 -0.205078,-0.238282 l -0.01172,-0.01563 c -2.15e-4,-2.12e-4 -0.0045,-0.0047 -0.0039,-0.0039 l -0.0059,-0.0078 -0.0059,-0.0059 c 7.83e-4,9.13e-4 -0.0037,-0.0055 -0.0039,-0.0059 -0.02248,-0.0309 -0.03794,-0.05165 -0.04687,-0.06445 v -0.002 h -0.002 c -0.03756,-0.05272 -0.07415,-0.106952 -0.109375,-0.16211 h 0.002 c -0.06527,-0.103006 -0.125817,-0.212709 -0.181641,-0.326172 l -0.002,-0.002 c -0.01992,-0.04123 -0.03755,-0.07545 -0.05078,-0.105468 -1.69e-4,-4.36e-4 1.65e-4,-0.0015 0,-0.002 l -0.002,-0.002 v -0.002 c -2.72e-4,-7.14e-4 -0.0016,-0.0011 -0.002,-0.002 7e-6,1.7e-5 3.2e-5,-0.0019 0,-0.002 -5.65e-4,-0.0015 -0.0014,-0.0024 -0.002,-0.0039 -0.03379,-0.09014 -0.06607,-0.169853 -0.08984,-0.244141 v -0.002 c -0.05044,-0.155949 -0.09216,-0.316327 -0.125,-0.478516 -0.01597,-0.07729 -0.02959,-0.159404 -0.04297,-0.246093 v -0.002 c -4.59e-4,-0.0028 -0.0014,-0.01011 -0.002,-0.01367 -7.1e-5,-4.98e-4 7.3e-5,-0.0014 0,-0.002 -1.2e-5,-1.29e-4 -0.0018,-0.0047 -0.002,-0.0059 -3.27e-4,-0.0029 2.01e-4,-0.0043 0,-0.0059 -1.66e-4,-0.0012 1.74e-4,-0.0027 0,-0.0039 -7.2e-5,-5.76e-4 7.8e-5,-0.0013 0,-0.002 0,0 0,-0.002 0,-0.002 5.1e-5,2.79e-4 -0.0016,-0.0086 -0.0039,-0.02539 -2.41e-4,-0.0019 -0.0018,-0.0045 -0.002,-0.0059 -2.2e-4,-0.0018 6.4e-5,-0.0073 0,-0.0078 v -0.002 -0.002 c -0.0035,-0.02717 -0.0074,-0.05083 -0.0098,-0.07422 v -0.002 c -0.07518,-0.697828 -0.04766,-1.417092 -0.03125,-2.148438 0.03624,-1.633907 0.07314,-3.266323 0.109375,-4.900391 0.03624,-1.621121 0.07314,-3.24272 0.109375,-4.863281 l 0.01367,-0.607422 c 0.0097,-0.428577 -0.333591,-0.79112 -0.775391,-0.771484 z m 0.02344,0.566406 c 0.06971,-0.0031 0.187224,0.118949 0.185547,0.19336 l -0.01367,0.607421 c -0.03623,1.620412 -0.07313,3.24201 -0.109375,4.863282 -0.03623,1.633905 -0.07313,3.266325 -0.109375,4.90039 -0.01626,0.725025 -0.04595,1.46979 0.03516,2.222657 0.0032,0.03122 0.0062,0.06048 0.0098,0.08789 8.84e-4,0.0075 0.0029,0.01376 0.0039,0.02148 h -0.002 c 4.55e-4,0.0033 0.0016,0.0032 0.002,0.0059 3.99e-4,0.0025 0.0015,0.0087 0.002,0.01172 7.1e-5,4.88e-4 -7.2e-5,0.0015 0,0.002 5.9e-5,4.65e-4 -5.4e-5,0.0015 0,0.002 0,0 0,0.002 0,0.002 2.35e-4,0.0017 0.0017,0.0041 0.002,0.0059 1.34e-4,9.25e-4 -1.38e-4,0.003 0,0.0039 1.52e-4,0.001 -3.91e-4,0.0015 0,0.0039 0.0016,0.01156 0.0033,0.01919 0.0059,0.03516 0.01351,0.08751 0.02746,0.177535 0.04687,0.271485 0.03678,0.181634 0.08308,0.363081 0.140625,0.541015 0.03231,0.100678 0.06896,0.189668 0.09961,0.271485 1.7e-5,5.8e-5 -0.01172,-0.06055 -0.01172,-0.06055 0,0 0.194276,-0.01541 0.248047,-0.01953 l -0.224609,0.111329 c 3.6e-5,8.2e-5 0.003,0.0061 0.0039,0.0078 l 0.002,0.0039 c 3.64e-4,6.91e-4 0.0015,0.0012 0.002,0.002 1.51e-4,2.73e-4 0.0016,0.0032 0.002,0.0039 0.0011,0.0021 7.03e-4,0.0035 0.002,0.0059 9e-6,1.6e-5 0.0012,0.0027 0.002,0.0039 0.01808,0.03956 0.03608,0.07696 0.05078,0.107422 l 0.002,0.002 c 0.06319,0.128626 0.131739,0.257817 0.210937,0.382813 h 0.002 c 0.0396,0.062 0.08018,0.12334 0.123047,0.183594 v 0.01367 l 0.07031,0.08008 c -0.0045,-0.0051 2.1e-4,0.0015 0.01563,0.01953 -2.4e-4,-3.36e-4 3.47e-4,0.0024 0,0.002 l 0.0059,0.0078 0.0059,0.0078 c 0.07178,0.08475 0.146278,0.175874 0.232421,0.269531 0.189442,0.20583 0.392641,0.398217 0.59961,0.578125 v -0.002 c 0.109686,0.09557 0.220221,0.187074 0.330078,0.275391 0.05144,0.04116 0.103796,0.08457 0.160156,0.128906 0.02897,0.0227 0.05426,0.04085 0.07227,0.05469 5.44e-4,4.18e-4 0.0014,0.0015 0.002,0.002 h 0.002 c -0.0011,-8.77e-4 0.0015,0.002 0.0039,0.0039 l 0.002,0.002 0.0039,0.0039 h 0.002 c 0,0 0.002,0.002 0.002,0.002 2.02e-4,1.54e-4 0.003,0.0013 0.0039,0.002 0.216865,0.166305 0.434381,0.329183 0.648438,0.492188 0.887134,0.67507 1.756404,1.38834 2.18164,2.359375 0.04241,0.09689 0.04694,0.126496 0.03125,0.195312 -0.0047,0.02065 -0.04175,0.07411 -0.09961,0.111329 -0.01264,0.0068 -0.109382,0.02185 -0.138672,0.01367 -0.01952,-0.0054 -0.120588,-0.09985 -0.103516,-0.06055 v -0.002 c -0.05668,-0.128501 -0.121172,-0.257348 -0.191406,-0.380859 -0.0702,-0.123453 -0.146013,-0.238621 -0.226562,-0.351562 -0.0251,-0.03516 -0.04834,-0.06662 -0.06836,-0.09375 l -0.0039,-0.0059 -0.0039,-0.0039 c -0.04036,-0.0501 -0.08129,-0.09996 -0.123047,-0.148438 -0.183855,-0.21374 -0.379425,-0.408565 -0.589844,-0.597656 -0.210664,-0.18932 -0.429943,-0.364809 -0.648437,-0.535156 l -0.002,-0.0039 -0.0039,-0.002 c -0.01119,-0.0083 -0.0079,-0.0056 -0.0059,-0.0039 l -0.002,-0.002 c -0.02241,-0.0176 -0.04653,-0.03713 -0.07227,-0.05664 v 0.002 c -0.05073,-0.03871 -0.105159,-0.08259 -0.164062,-0.126953 -0.110774,-0.08342 -0.219321,-0.165098 -0.326172,-0.246094 h -0.002 c -0.908879,-0.686268 -1.813983,-1.397708 -2.279297,-2.375 -0.624839,-1.312161 -0.496565,-2.869493 -0.462891,-4.390625 0.03694,-1.63977 0.07313,-3.285974 0.109375,-4.919922 0.03418,-1.541432 0.06925,-3.081629 0.103516,-4.623047 h 0.002 l 0.0059,-0.277344 c 0.0029,-0.120596 0.09422,-0.199972 0.208985,-0.205078 z m 0.0039,12.84961 c 0,0 0.08178,0.0107 0.160156,0.02148 l -0.160156,0.02539 c 5.1e-5,-0.02214 0,-0.04687 0,-0.04687 z m 0.642578,1.097656 -0.162109,0.08008 c 0.03967,-0.02638 0.08594,-0.05664 0.08594,-0.05664 0,0 0.04534,-0.01421 0.07617,-0.02344 z"
         id="path872" />
    </g>
  </g>
</svg>
