<?xml version="1.0" encoding="UTF-8" standalone="no"?>
<!-- Created with Inkscape (http://www.inkscape.org/) -->

<svg
   width="65"
   height="100"
   viewBox="0 0 17.197916 26.458334"
   version="1.1"
   id="svg127350"
   inkscape:export-filename="C:\Users\Agathe\Desktop\commerces.png"
   inkscape:export-xdpi="200"
   inkscape:export-ydpi="200"
   inkscape:version="1.1 (c68e22c387, 2021-05-23)"
   sodipodi:docname="fontaine_dispo24.svg"
   xmlns:inkscape="http://www.inkscape.org/namespaces/inkscape"
   xmlns:sodipodi="http://sodipodi.sourceforge.net/DTD/sodipodi-0.dtd"
   xmlns="http://www.w3.org/2000/svg"
   xmlns:svg="http://www.w3.org/2000/svg">
  <sodipodi:namedview
     id="namedview127352"
     pagecolor="#ffffff"
     bordercolor="#666666"
     borderopacity="1.0"
     inkscape:pageshadow="2"
     inkscape:pageopacity="0"
     inkscape:pagecheckerboard="0"
     inkscape:document-units="mm"
     showgrid="false"
     units="px"
     inkscape:zoom="4.2230385"
     inkscape:cx="55.41034"
     inkscape:cy="71.867685"
     inkscape:window-width="2400"
     inkscape:window-height="1271"
     inkscape:window-x="2391"
     inkscape:window-y="-9"
     inkscape:window-maximized="1"
     inkscape:current-layer="layer1" />
  <defs
     id="defs127347" />
  <g
     inkscape:label="Calque 1"
     inkscape:groupmode="layer"
     id="layer1">
    <g
       id="g896"
       transform="matrix(0.01879676,0,0,0.01879676,1.8184686,6.4098061)">
      <path
         style="color:#000000;fill:#0028e5;stroke-linecap:round;stroke-linejoin:round;-inkscape-stroke:none"
         d="m 361.71094,7.1953125 a 6.7649999,6.7649999 0 0 0 -6.76563,6.7656255 6.7649999,6.7649999 0 0 0 6.76563,6.763671 c 190.51387,0 344.80468,154.290821 344.80468,344.804691 0,190.51387 -154.29081,344.80664 -344.80468,344.80664 -190.51387,0 -344.806643,-154.29277 -344.806643,-344.80664 0,-139.60074 82.910229,-259.7323 202.128903,-314.001956 a 6.7649999,6.7649999 0 0 0 3.35352,-8.960938 6.7649999,6.7649999 0 0 0 -8.95899,-3.353515 C 89.506655,95.623128 3.375,220.57032 3.375,365.5293 c 0,197.82574 160.51019,358.33593 358.33594,358.33593 197.82574,0 358.33398,-160.51019 358.33398,-358.33593 0,-197.82575 -160.50824,-358.3339875 -358.33398,-358.3339875 z"
         id="path6-7" />
      <path
         style="color:#000000;fill:#0028e5;stroke-linecap:round;stroke-linejoin:round;-inkscape-stroke:none"
         d="m 361.71094,7.1953125 a 6.7649999,6.7649999 0 0 0 -6.76563,6.7656255 v 62.828124 a 6.7649999,6.7649999 0 0 0 6.76563,6.765625 6.7649999,6.7649999 0 0 0 6.76367,-6.765625 V 13.960938 a 6.7649999,6.7649999 0 0 0 -6.76367,-6.7656255 z"
         id="line8" />
      <path
         style="color:#000000;fill:#0028e5;stroke-linecap:round;stroke-linejoin:round;-inkscape-stroke:none"
         d="m 361.71094,647.49414 a 6.7649999,6.7649999 0 0 0 -6.76563,6.76563 v 62.83984 a 6.7649999,6.7649999 0 0 0 6.76563,6.76562 6.7649999,6.7649999 0 0 0 6.76367,-6.76562 v -62.83984 a 6.7649999,6.7649999 0 0 0 -6.76367,-6.76563 z"
         id="line10" />
      <path
         style="color:#000000;fill:#0028e5;stroke-linecap:round;stroke-linejoin:round;-inkscape-stroke:none"
         d="m 650.43945,358.76562 a 6.7649999,6.7649999 0 0 0 -6.76367,6.76368 6.7649999,6.7649999 0 0 0 6.76367,6.76562 h 62.83985 a 6.7649999,6.7649999 0 0 0 6.76562,-6.76562 6.7649999,6.7649999 0 0 0 -6.76562,-6.76368 z"
         id="line12" />
      <path
         style="color:#000000;fill:#0028e5;stroke-linecap:round;stroke-linejoin:round;-inkscape-stroke:none"
         d="M 10.140625,358.76562 A 6.7649999,6.7649999 0 0 0 3.375,365.5293 a 6.7649999,6.7649999 0 0 0 6.765625,6.76562 h 62.839844 a 6.7649999,6.7649999 0 0 0 6.763672,-6.76562 6.7649999,6.7649999 0 0 0 -6.763672,-6.76368 z"
         id="line14" />
      <path
         style="color:#000000;fill:#0028e5;stroke-linecap:round;stroke-linejoin:round;-inkscape-stroke:none"
         d="m 361.71094,7.1953125 a 6.7649999,6.7649999 0 0 0 -6.76563,6.7656255 v 62.828124 a 6.7649999,6.7649999 0 0 0 6.76563,6.765625 6.7649999,6.7649999 0 0 0 6.76367,-6.765625 V 13.960938 a 6.7649999,6.7649999 0 0 0 -6.76367,-6.7656255 z"
         id="line16" />
      <path
         style="color:#000000;fill:#0028e5;stroke-linecap:round;stroke-linejoin:round;-inkscape-stroke:none"
         d="m 361.71094,647.49414 a 6.7649999,6.7649999 0 0 0 -6.76563,6.76563 v 62.83984 a 6.7649999,6.7649999 0 0 0 6.76563,6.76562 6.7649999,6.7649999 0 0 0 6.76367,-6.76562 v -62.83984 a 6.7649999,6.7649999 0 0 0 -6.76367,-6.76563 z"
         id="line18" />
      <path
         style="color:#000000;fill:#0028e5;stroke-linecap:round;stroke-linejoin:round;-inkscape-stroke:none"
         d="m 650.43945,358.76562 a 6.7649999,6.7649999 0 0 0 -6.76367,6.76368 6.7649999,6.7649999 0 0 0 6.76367,6.76562 h 62.83985 a 6.7649999,6.7649999 0 0 0 6.76562,-6.76562 6.7649999,6.7649999 0 0 0 -6.76562,-6.76368 z"
         id="line20" />
      <path
         style="color:#000000;fill:#0028e5;stroke-linecap:round;stroke-linejoin:round;-inkscape-stroke:none"
         d="M 10.140625,358.76562 A 6.7649999,6.7649999 0 0 0 3.375,365.5293 a 6.7649999,6.7649999 0 0 0 6.765625,6.76562 h 62.839844 a 6.7649999,6.7649999 0 0 0 6.763672,-6.76562 6.7649999,6.7649999 0 0 0 -6.763672,-6.76368 z"
         id="line22" />
      <path
         style="color:#000000;fill:#0028e5;stroke-linecap:round;stroke-linejoin:round;-inkscape-stroke:none"
         d="m 610.31055,110.16406 a 6.7649999,6.7649999 0 0 0 -4.78321,1.98242 l -44.43945,44.42969 a 6.7649999,6.7649999 0 0 0 -0.002,9.56641 6.7649999,6.7649999 0 0 0 9.5664,0.002 l 44.44141,-44.42969 a 6.7649999,6.7649999 0 0 0 0,-9.56836 6.7649999,6.7649999 0 0 0 -4.7832,-1.98242 z"
         id="line24" />
      <path
         style="color:#000000;fill:#0028e5;stroke-linecap:round;stroke-linejoin:round;-inkscape-stroke:none"
         d="m 157.53906,562.92578 a 6.7649999,6.7649999 0 0 0 -4.7832,1.98047 l -44.42969,44.42969 a 6.7649999,6.7649999 0 0 0 0,9.56836 6.7649999,6.7649999 0 0 0 9.56836,0 l 44.42969,-44.43164 a 6.7649999,6.7649999 0 0 0 0,-9.56641 6.7649999,6.7649999 0 0 0 -4.78516,-1.98047 z"
         id="line26" />
      <path
         style="color:#000000;fill:#0028e5;stroke-linecap:round;stroke-linejoin:round;-inkscape-stroke:none"
         d="m 565.86914,562.92578 a 6.7649999,6.7649999 0 0 0 -4.7832,1.98047 6.7649999,6.7649999 0 0 0 0.002,9.56836 l 44.43945,44.42969 a 6.7649999,6.7649999 0 0 0 9.56641,-0.002 6.7649999,6.7649999 0 0 0 0,-9.5664 l -44.44141,-44.42969 a 6.7649999,6.7649999 0 0 0 -4.7832,-1.98047 z"
         id="line28" />
      <path
         style="color:#000000;fill:#0028e5;stroke-linecap:round;stroke-linejoin:round;-inkscape-stroke:none"
         d="m 113.10938,110.16406 a 6.7649999,6.7649999 0 0 0 -4.78321,1.98242 6.7649999,6.7649999 0 0 0 0,9.56641 l 44.42969,44.43164 a 6.7649999,6.7649999 0 0 0 9.56836,0 6.7649999,6.7649999 0 0 0 0,-9.56836 l -44.42969,-44.42969 a 6.7649999,6.7649999 0 0 0 -4.78515,-1.98242 z"
         id="line30" />
      <path
         style="color:#000000;fill:#0028e5;stroke-linecap:round;stroke-linejoin:round;-inkscape-stroke:none"
         d="m 361.71094,166.69531 a 6.7649999,6.7649999 0 0 0 -6.76563,6.76563 v 197.88867 a 6.7656764,6.7656764 0 0 0 2.05078,4.85351 l 71.04102,69.00977 a 6.7649999,6.7649999 0 0 0 9.56445,-0.13867 6.7649999,6.7649999 0 0 0 -0.13867,-9.56641 L 368.47461,368.49023 V 173.46094 a 6.7649999,6.7649999 0 0 0 -6.76367,-6.76563 z"
         id="polyline32" />
      <path
         style="color:#000000;fill:#0028e5;stroke-width:0px;-inkscape-stroke:none"
         d="m 362.03,13.53 c 65.69,0.6 130.37,20.86 185.67,56.1 56.15,35.77 101.62,86.95 129.12,147.68 28.35,62.6 37.63,134.27 26.89,202.1 -10.38,65.55 -39.54,126.64 -84.12,175.8 -42.69,47.08 -97.82,82.92 -158.56,101.83 -63.54,19.78 -131.89,19.72 -195.82,1.6 C 200.46,680.29 141.06,643.74 97.06,592.64 53.29,541.8 25.22,477.38 16.48,410.94 7.74,344.5 18.52,278.93 47.72,219.85 76.92,160.77 119.87,113.2 173.97,79.29 c 13.09,-8.2 26.74,-15.47 40.84,-21.78 3.34,-1.49 4.13,-6.35 2.43,-9.26 -2.01,-3.43 -5.91,-3.92 -9.26,-2.43 C 147.22,72.99 95.4,118.48 58.64,173.8 21.38,229.86 0.47,296.02 0,363.41 c -0.47,69.52 19.73,139.21 57.05,197.84 37.72,59.25 93.07,105.74 157.5,133.57 64.16,27.72 135.6,37.54 204.68,26.06 65.08,-10.81 126.38,-40.85 176.41,-83.6 51.27,-43.81 90.24,-101.58 110,-166.16 20.86,-68.19 20.93,-142.64 1.17,-211.09 C 687.44,192.92 648.51,132.78 595.08,87.78 542.96,43.88 478.75,14 411.22,3.95 394.92,1.53 378.51,0.15 362.03,0 c -8.71,-0.08 -8.72,13.45 0,13.53 z"
         id="path34" />
      <path
         style="color:#000000;fill:#0028e5;stroke-width:0px;-inkscape-stroke:none"
         d="m 353.77,10.61 c 0.9,8.43 1.81,16.85 2.71,25.28 0.91,8.47 1.82,16.93 2.72,25.4 l 1.53,14.25 c -0.04,0.93 0.16,1.8 0.58,2.61 0.27,0.84 0.74,1.56 1.4,2.18 1.17,1.17 3.1,2.06 4.78,1.98 1.68,-0.08 3.56,-0.65 4.78,-1.98 1.14,-1.24 2.17,-3.03 1.98,-4.78 -0.9,-8.43 -1.81,-16.85 -2.71,-25.28 -0.9,-8.43 -1.82,-16.93 -2.72,-25.4 -0.51,-4.75 -1.02,-9.5 -1.53,-14.25 0.04,-0.93 -0.16,-1.8 -0.58,-2.61 -0.27,-0.84 -0.74,-1.56 -1.4,-2.18 -1.17,-1.17 -3.1,-2.06 -4.78,-1.98 -1.68,0.08 -3.56,0.65 -4.78,1.98 -1.14,1.24 -2.17,3.03 -1.98,4.78 z"
         id="path36" />
      <path
         style="color:#000000;fill:#0028e5;stroke-width:0px;-inkscape-stroke:none"
         d="m 570.17,162.28 c 11.04,-7.68 21.43,-16.33 30.87,-25.9 2.58,-2.61 5.08,-5.29 7.52,-8.03 1.2,-1.35 1.98,-2.94 1.98,-4.78 0,-1.66 -0.74,-3.64 -1.98,-4.78 -1.24,-1.14 -2.98,-2.06 -4.78,-1.98 -1.8,0.08 -3.59,0.64 -4.78,1.98 -6.74,7.58 -14.02,14.68 -21.78,21.21 -2.21,1.86 -4.45,3.66 -6.73,5.43 l 1.37,-1.06 c -2.78,2.15 -5.62,4.23 -8.51,6.24 -1.47,1.02 -2.62,2.27 -3.11,4.04 -0.45,1.62 -0.24,3.78 0.68,5.21 0.92,1.43 2.32,2.72 4.04,3.11 1.72,0.39 3.73,0.35 5.21,-0.68 v 0 z"
         id="path38" />
      <path
         style="color:#000000;fill:#0028e5;stroke-width:0px;-inkscape-stroke:none"
         d="m 657.04,367.93 c 6.8,1 13.62,1.6 20.5,1.54 6.88,-0.06 13.71,-0.72 20.48,-1.82 3.52,-0.57 7.01,-1.3 10.46,-2.18 1.63,-0.41 3.2,-1.67 4.04,-3.11 0.84,-1.44 1.21,-3.59 0.68,-5.21 -0.53,-1.62 -1.54,-3.22 -3.11,-4.04 -1.57,-0.82 -3.4,-1.14 -5.21,-0.68 -4.53,1.15 -9.12,2.04 -13.75,2.67 l 1.8,-0.24 c -8.36,1.12 -16.83,1.38 -25.24,0.77 -2.41,-0.18 -4.81,-0.43 -7.2,-0.75 l 1.8,0.24 c -0.55,-0.07 -1.1,-0.15 -1.65,-0.23 -0.9,-0.28 -1.8,-0.32 -2.7,-0.12 -0.9,0.04 -1.74,0.31 -2.52,0.8 -1.4,0.82 -2.74,2.43 -3.11,4.04 -0.39,1.73 -0.31,3.68 0.68,5.21 0.89,1.38 2.35,2.86 4.04,3.11 v 0 z"
         id="path40-1" />
      <path
         style="color:#000000;fill:#0028e5;stroke-width:0px;-inkscape-stroke:none"
         d="m 559.9,575.62 c 11.25,10.14 22.51,20.27 33.76,30.41 3.15,2.84 6.31,5.68 9.46,8.52 1.33,1.2 2.95,1.98 4.78,1.98 1.66,0 3.64,-0.74 4.78,-1.98 1.14,-1.24 2.06,-2.98 1.98,-4.78 -0.08,-1.8 -0.65,-3.58 -1.98,-4.78 -11.25,-10.14 -22.51,-20.27 -33.76,-30.41 -3.15,-2.84 -6.31,-5.68 -9.46,-8.52 -1.33,-1.2 -2.95,-1.98 -4.78,-1.98 -1.66,0 -3.64,0.74 -4.78,1.98 -1.14,1.24 -2.06,2.98 -1.98,4.78 0.08,1.8 0.65,3.58 1.98,4.78 z"
         id="path42-8" />
      <path
         style="color:#000000;fill:#0028e5;stroke-width:0px;-inkscape-stroke:none"
         d="m 356.7,646.64 c -1.32,9.3 -2.15,18.65 -2.3,28.04 -0.14,8.86 0.29,17.73 1.27,26.54 0.61,5.51 1.41,11 2.41,16.45 0.29,1.58 1.77,3.26 3.11,4.04 1.45,0.85 3.59,1.21 5.21,0.68 1.62,-0.53 3.22,-1.54 4.04,-3.11 l 0.68,-1.62 c 0.32,-1.2 0.32,-2.4 0,-3.6 -0.61,-3.34 -1.15,-6.7 -1.6,-10.07 l 0.24,1.8 c -1.92,-14.36 -2.36,-28.91 -1.29,-43.37 0.3,-4.12 0.73,-8.22 1.28,-12.32 l -0.24,1.8 c 0.08,-0.56 0.15,-1.12 0.23,-1.68 0.28,-0.9 0.32,-1.8 0.12,-2.7 -0.04,-0.9 -0.31,-1.74 -0.8,-2.52 -0.82,-1.4 -2.43,-2.74 -4.04,-3.11 -1.73,-0.39 -3.68,-0.31 -5.21,0.68 -1.37,0.88 -2.87,2.35 -3.11,4.04 v 0 z"
         id="path44" />
      <path
         style="color:#000000;fill:#0028e5;stroke-width:0px;-inkscape-stroke:none"
         d="m 122.65,616.39 c 6.84,-5.45 13.41,-11.23 19.68,-17.32 6.27,-6.09 12.25,-12.48 17.9,-19.16 3.5,-4.13 6.86,-8.38 10.13,-12.69 0.49,-0.78 0.76,-1.61 0.8,-2.52 0.2,-0.9 0.16,-1.8 -0.12,-2.7 -0.43,-1.57 -1.65,-3.27 -3.11,-4.04 -1.57,-0.83 -3.47,-1.25 -5.21,-0.68 l -1.62,0.68 c -1.02,0.6 -1.83,1.41 -2.43,2.43 -0.54,0.71 -1.08,1.42 -1.63,2.13 l 1.06,-1.37 c -5.12,6.62 -10.55,13 -16.27,19.12 -5.69,6.09 -11.67,11.91 -17.9,17.44 -3.54,3.13 -7.15,6.17 -10.85,9.12 -1.27,1.01 -1.98,3.24 -1.98,4.78 0,1.66 0.74,3.64 1.98,4.78 1.24,1.14 2.98,2.06 4.78,1.98 l 1.8,-0.24 c 1.15,-0.32 2.14,-0.9 2.99,-1.74 z"
         id="path46" />
      <path
         style="color:#000000;fill:#0028e5;stroke-width:0px;-inkscape-stroke:none"
         d="m 9.42,366.44 c 15.07,2.84 30.34,4.73 45.65,5.58 4.17,0.23 8.34,0.38 12.52,0.46 1.71,0.03 3.58,-0.78 4.78,-1.98 1.2,-1.2 2.06,-3.1 1.98,-4.78 -0.08,-1.68 -0.65,-3.56 -1.98,-4.78 -1.33,-1.22 -2.94,-1.95 -4.78,-1.98 -10.07,-0.19 -20.12,-0.82 -30.14,-1.91 -2.85,-0.31 -5.69,-0.65 -8.53,-1.04 l 1.8,0.24 c -5.92,-0.8 -11.82,-1.75 -17.7,-2.86 -1.81,-0.34 -3.57,-0.28 -5.21,0.68 -1.4,0.82 -2.74,2.43 -3.11,4.04 -0.39,1.73 -0.31,3.68 0.68,5.21 0.91,1.41 2.33,2.79 4.04,3.11 v 0 z"
         id="path48" />
      <path
         style="color:#000000;fill:#0028e5;stroke-width:0px;-inkscape-stroke:none"
         d="m 112.11,121.81 0.18,0.14 -1.37,-1.06 c 6.32,4.89 12.47,10 18.41,15.34 5.94,5.34 11.7,10.89 17.24,16.64 3.13,3.25 6.19,6.56 9.18,9.94 1.11,1.25 3.15,1.98 4.78,1.98 1.63,0 3.64,-0.74 4.78,-1.98 1.14,-1.24 2.06,-2.98 1.98,-4.78 -0.08,-1.8 -0.74,-3.39 -1.98,-4.78 -5.35,-6.04 -10.92,-11.88 -16.71,-17.5 -5.79,-5.62 -11.71,-10.99 -17.86,-16.15 -3.87,-3.25 -7.82,-6.38 -11.82,-9.47 -0.78,-0.49 -1.61,-0.76 -2.52,-0.8 -0.9,-0.2 -1.8,-0.16 -2.7,0.12 -1.57,0.43 -3.27,1.65 -4.04,3.11 -0.83,1.57 -1.25,3.47 -0.68,5.21 l 0.68,1.62 c 0.6,1.02 1.41,1.83 2.43,2.43 v 0 z"
         id="path50" />
      <path
         style="color:#000000;fill:#0028e5;stroke-width:0px;-inkscape-stroke:none"
         d="m 355.92,171.44 c -0.51,23 -1.03,45.99 -1.54,68.99 -0.51,23 -1.03,46.17 -1.55,69.25 -0.47,21.22 -2.48,43.84 6.92,63.58 7.08,14.87 20.46,25.25 33.28,34.93 1.53,1.16 3.07,2.31 4.61,3.47 0.77,0.58 1.53,1.16 2.29,1.74 0.33,0.25 0.67,0.51 1,0.77 0.66,0.51 -1.17,-0.91 -0.52,-0.4 0.24,0.18 0.47,0.37 0.71,0.55 3.04,2.37 6.03,4.8 8.89,7.37 2.86,2.57 5.5,5.18 7.96,8.04 0.56,0.65 1.11,1.32 1.65,1.99 0.97,1.2 -0.92,-1.25 0,0 0.31,0.42 0.62,0.83 0.92,1.25 1.07,1.5 2.07,3.04 2.98,4.64 0.91,1.6 1.75,3.28 2.5,4.98 0.63,1.45 2.59,2.71 4.04,3.11 1.62,0.45 3.78,0.24 5.21,-0.68 1.43,-0.92 2.72,-2.32 3.11,-4.04 0.43,-1.89 0.09,-3.45 -0.68,-5.21 -6.49,-14.82 -19.39,-25.25 -31.94,-34.8 -3.06,-2.33 -6.15,-4.62 -9.2,-6.96 -0.19,-0.15 -0.38,-0.29 -0.57,-0.44 -0.66,-0.51 1.17,0.91 0.52,0.4 -0.38,-0.29 -0.76,-0.59 -1.13,-0.88 -0.75,-0.59 -1.5,-1.18 -2.25,-1.78 -1.53,-1.23 -3.04,-2.48 -4.52,-3.77 -2.83,-2.46 -5.57,-5.04 -8.11,-7.8 -1.26,-1.37 -2.38,-2.84 -3.6,-4.24 0.03,0.04 1.05,1.4 0.42,0.54 -0.14,-0.19 -0.28,-0.37 -0.42,-0.56 -0.24,-0.33 -0.48,-0.65 -0.71,-0.98 -0.57,-0.8 -1.12,-1.62 -1.65,-2.45 -1.02,-1.61 -1.96,-3.27 -2.8,-4.98 -0.27,-0.56 -0.54,-1.12 -0.79,-1.69 -0.13,-0.28 -0.23,-0.58 -0.37,-0.85 0,0 0.5,1.25 0.24,0.55 -0.46,-1.23 -0.94,-2.45 -1.34,-3.7 -0.76,-2.35 -1.38,-4.74 -1.87,-7.16 -0.25,-1.21 -0.46,-2.43 -0.65,-3.66 -0.05,-0.31 -0.09,-0.61 -0.14,-0.92 -0.03,-0.19 -0.14,-1.01 0,-0.02 0.14,1.03 0,0 -0.03,-0.26 -0.05,-0.39 -0.09,-0.77 -0.13,-1.16 -1.1,-10.21 -0.68,-20.51 -0.45,-30.76 0.51,-23 1.03,-45.99 1.54,-68.99 0.51,-22.82 1.02,-45.64 1.53,-68.45 l 0.19,-8.56 c 0.08,-3.54 -3.17,-6.93 -6.77,-6.77 -3.6,0.16 -6.68,2.97 -6.77,6.77 v 0 z"
         id="path52" />
    </g>
  </g>
</svg>
