<?xml version="1.0" encoding="UTF-8" standalone="no"?>
<!-- Created with Inkscape (http://www.inkscape.org/) -->

<svg
   width="100"
   height="100"
   viewBox="0 0 26.458333 26.458334"
   version="1.1"
   id="svg127350"
   inkscape:export-filename="C:\Users\Agathe\Desktop\commerces.png"
   inkscape:export-xdpi="200"
   inkscape:export-ydpi="200"
   inkscape:version="1.1 (c68e22c387, 2021-05-23)"
   sodipodi:docname="FONTAINE_TOTEM_2EN1.svg"
   xmlns:inkscape="http://www.inkscape.org/namespaces/inkscape"
   xmlns:sodipodi="http://sodipodi.sourceforge.net/DTD/sodipodi-0.dtd"
   xmlns="http://www.w3.org/2000/svg"
   xmlns:svg="http://www.w3.org/2000/svg">
  <sodipodi:namedview
     id="namedview127352"
     pagecolor="#ffffff"
     bordercolor="#666666"
     borderopacity="1.0"
     inkscape:pageshadow="2"
     inkscape:pageopacity="0"
     inkscape:pagecheckerboard="0"
     inkscape:document-units="mm"
     showgrid="false"
     units="px"
     inkscape:zoom="5.9722783"
     inkscape:cx="54.250653"
     inkscape:cy="71.748164"
     inkscape:window-width="2400"
     inkscape:window-height="1271"
     inkscape:window-x="2391"
     inkscape:window-y="-9"
     inkscape:window-maximized="1"
     inkscape:current-layer="g995" />
  <defs
     id="defs127347" />
  <g
     inkscape:label="Calque 1"
     inkscape:groupmode="layer"
     id="layer1">
    <g
       id="g995"
       transform="matrix(0.07436815,0,0,0.07436815,2.9852775,1.3136754)"
       style="stroke-width:3.55774">
      <g
         id="g1123"
         transform="matrix(0.26123871,0,0,0.26123871,50.517837,102.12438)">
        <path
           class="d"
           d="m 314.16157,58.814115 c 0,0 -71.61752,9.178997 -71.61752,-13.448297 V -151.91145 c 0,-37.21407 30.16973,-67.34822 67.34822,-67.34822 h 66.67225 c 37.21407,0 72.18676,30.16972 72.18676,67.34822 V 46.006213 c 0,19.460896 -76.45606,12.807902 -76.45606,12.807902"
           id="path6-6"
           style="fill:none;stroke:#1131d3;stroke-width:10.6733px;stroke-linecap:round;stroke-miterlimit:10" />
        <path
           style="color:#000000;fill:#1131d3;stroke-width:12.6576;stroke-linecap:round;stroke-miterlimit:10;-inkscape-stroke:none"
           d="m 314.73192,-224.59797 c -40.06209,0 -77.52698,32.12284 -77.52698,72.68374 a 5.3366259,5.3366259 0 0 0 5.33662,5.33662 5.3366259,5.3366259 0 0 0 5.33663,-5.33662 c 0,-33.86717 32.55893,-62.01048 66.85373,-62.01048 h 66.6731 c 34.32973,0 62.01045,27.71567 62.01045,62.01048 V 46.006498 c 0,0.796011 -0.10282,1.129194 -1.216,2.084628 -1.11329,0.955398 -3.30245,2.11213 -6.23998,3.036576 -5.87505,1.848927 -14.53234,2.877686 -23.24349,3.251997 -17.42234,0.748658 -35.09109,-0.882464 -35.09109,-0.882464 a 5.3366259,5.3366259 0 0 0 -5.8022,4.822424 5.3366259,5.3366259 0 0 0 4.81546,5.809131 c 0,0 18.15004,1.700356 36.53642,0.910286 9.19323,-0.395053 18.43506,-1.354436 25.98827,-3.731476 3.77662,-1.188502 7.18206,-2.708586 9.98532,-5.114266 2.8033,-2.405716 4.94054,-6.117623 4.94054,-10.186836 V -151.91423 c 0,-40.06211 -32.5854,-72.68374 -72.6837,-72.68374 z"
           id="path8-0" />
        <path
           class="f"
           d="m 308.14898,202.58282 c -9.71266,0.71155 -19.42532,1.77887 -29.06683,3.09524 -8.14725,1.1029 -16.29449,2.34812 -24.33501,4.09141 -6.36837,1.38753 -12.87906,3.02409 -18.74935,5.97702 -7.22223,3.62891 -13.23483,11.27807 -8.82322,19.42532 2.09907,3.87795 6.0126,6.653 9.81939,8.68091 5.90587,3.13082 12.38098,5.12316 18.85608,6.68858 20.2436,4.90969 41.4478,6.26164 62.22506,6.90203 20.77726,0.6404 41.16317,0.17789 61.65582,-1.52983 17.53971,-1.49426 35.36404,-3.62891 52.26335,-8.60976 10.13959,-2.98851 24.0504,-7.64916 28.10623,-18.60703 1.99234,-5.37221 -0.60481,-11.10019 -4.87411,-14.5512 -4.87412,-3.98468 -11.06461,-6.0126 -17.14836,-7.4357 -10.9223,-2.52601 -22.34268,-3.37987 -33.54959,-3.52218 -0.67597,0 -1.38752,0 -2.0635,0 -6.86645,0.0712 -6.86645,10.74441 0,10.67326 7.79148,-0.0712 15.61853,0.53366 23.37443,1.4231 1.4231,0.17788 -1.17406,-0.17789 0.24904,0 0.28462,0.0356 0.56924,0.0712 0.85386,0.10673 0.85386,0.10673 1.67214,0.24904 2.526,0.39135 1.52983,0.24904 3.05967,0.53366 4.5895,0.88944 2.88178,0.60482 5.72798,1.38752 8.50302,2.38369 0.39136,0.14231 2.20581,0.92502 0.78271,0.28462 0.53366,0.24904 1.06732,0.46251 1.60099,0.74713 1.1029,0.53366 2.06349,1.20964 3.13082,1.81445 0.92501,0.53367 -0.85386,-0.85386 -0.10674,-0.10673 0.17789,0.17789 0.39136,0.3202 0.56924,0.49809 0.39136,0.35577 0.71155,0.7827 1.10291,1.1029 0.56924,0.49808 -0.24905,-0.3202 -0.3202,-0.42693 0.14231,0.21346 0.3202,0.42693 0.46251,0.67597 0.10673,0.17789 0.21346,0.39135 0.32019,0.56924 0.60482,0.92502 -0.21346,-1.06732 -0.0712,-0.21346 0,0.17788 0.46251,1.1029 0.3202,1.24521 -0.14231,0.21346 0.10673,-1.60099 -0.0712,-0.35578 0.28462,-1.8856 0.21347,-0.96059 0.10673,-0.60481 -0.10673,0.35577 -0.28462,0.81828 -0.32019,1.17405 -0.0712,0.71155 -0.56924,-0.81828 0.28462,-0.64039 0,0 -0.35578,0.74713 -0.39136,0.81828 -0.17788,0.35578 -0.42693,0.67597 -0.60481,0.99617 -0.67598,1.1029 0.85386,-0.88944 -0.0712,0.10673 -0.71155,0.78271 -1.4231,1.49426 -2.2058,2.17023 -1.17406,1.06733 0.74712,-0.46251 -0.42693,0.35578 -0.42693,0.28462 -0.85386,0.60481 -1.28079,0.88943 -1.03175,0.67598 -2.09908,1.28079 -3.20198,1.85003 -1.20963,0.6404 -2.45485,1.17406 -3.70006,1.7433 -0.24904,0.10673 -0.92502,0.39135 0.17789,-0.0711 -0.35578,0.14231 -0.74713,0.32019 -1.10291,0.4625 -0.7827,0.3202 -1.56541,0.60482 -2.34811,0.88944 -6.54626,2.34812 -13.34157,4.02026 -20.13687,5.40778 -4.05583,0.81829 -8.14725,1.52984 -12.23866,2.13465 -4.09141,0.60482 -7.86263,1.10291 -12.48771,1.60099 -19.10512,2.09907 -38.38812,2.91736 -57.63556,2.81062 -19.24743,-0.10673 -40.02469,-0.88943 -59.6279,-3.98468 -7.86262,-1.24521 -15.72525,-2.81062 -23.26768,-5.3722 -1.28079,-0.42693 -2.56158,-0.92501 -3.8068,-1.4231 -0.24904,-0.10673 -1.45868,-0.64039 -0.10673,-0.0356 -0.21347,-0.10673 -0.42693,-0.17788 -0.67597,-0.28462 -0.67598,-0.32019 -1.35195,-0.60481 -2.02792,-0.96059 -0.96059,-0.49809 -1.92119,-0.99617 -2.81062,-1.56541 -0.39136,-0.24904 -0.78271,-0.49809 -1.13848,-0.74713 -0.21347,-0.14231 -0.42693,-0.35577 -0.6404,-0.46251 1.17406,0.6404 0.71155,0.56924 0.28462,0.21347 -0.60482,-0.56924 -1.20963,-1.1029 -1.77887,-1.70772 -0.92502,-0.88944 0.24904,0.49808 0.0712,0.14231 -0.14231,-0.3202 -0.39135,-0.6404 -0.60482,-0.92502 -0.67597,-1.06732 0.42693,0 0.10674,0.35578 0,0 -0.21347,-0.67597 -0.24905,-0.78271 -0.24904,-1.17405 0.14231,0.0712 0,0.42693 0.0712,-0.21346 0,-0.74712 0,-0.99617 -0.10673,-0.99617 -0.4625,1.45868 -0.0712,0.53367 0.0712,-0.21347 0.17789,-0.53367 0.21346,-0.74713 0.17789,-0.99617 -0.74712,1.24521 -0.17788,0.39135 0.17788,-0.24904 0.35577,-0.56924 0.49808,-0.85386 0.60482,-1.17406 -0.7827,0.74713 -0.14231,0.17789 0.24904,-0.21347 0.46251,-0.49809 0.67597,-0.74713 0.21347,-0.24904 0.46251,-0.42693 0.71155,-0.67597 0.10674,-0.10673 0.24905,-0.21347 0.39136,-0.3202 0.7827,-0.71155 -1.10291,0.67597 -0.3202,0.24904 1.70772,-0.96059 3.27313,-2.02791 5.08758,-2.81062 -1.45868,0.6404 0.39135,-0.14231 0.74713,-0.28462 0.60482,-0.21346 1.20963,-0.42693 1.85003,-0.64039 1.45868,-0.49809 2.95293,-0.92502 4.48277,-1.35195 7.04434,-1.95676 14.26658,-3.27313 21.48881,-4.41161 10.92229,-1.7433 22.48498,-3.02409 34.43903,-4.02026 0.67597,-0.0711 1.31636,-0.10673 1.99234,-0.14231 2.88177,-0.21346 5.33662,-2.31254 5.33662,-5.33662 0,-2.73947 -2.45485,-5.5501 -5.33662,-5.33663 v 0 z"
           id="path10-3"
           style="fill:#1131d3;stroke-width:12.6576" />
        <path
           class="f"
           d="m 307.08165,527.69007 c 18.57146,1.52983 37.3208,1.49425 55.92784,0 15.44064,-1.24522 31.73514,-3.02409 46.21518,-8.8588 5.01643,-2.02792 10.24632,-4.51835 13.73292,-8.82322 3.48659,-4.30488 4.73181,-10.13959 2.06349,-15.29833 -2.41927,-4.62508 -7.29339,-7.22223 -11.95404,-9.00111 -5.44336,-2.09907 -11.34922,-2.98851 -17.11278,-3.70006 -8.5386,-1.03175 -17.21951,-1.38752 -25.82927,-1.03175 -2.88178,0.10673 -5.33662,2.38369 -5.33662,5.33663 0,2.81062 2.45484,5.44336 5.33662,5.33662 6.54626,-0.28462 13.16368,-0.0712 19.70994,0.42693 1.28079,0.10674 2.56158,0.21347 3.84237,0.35578 0.60482,0.0712 1.24521,0.14231 1.85003,0.21346 0.35578,0.0356 0.67597,0.0712 1.03175,0.14231 0.39135,0.0356 0.28462,0 -0.39135,-0.0711 0.28462,0.0356 0.53366,0.0711 0.81828,0.10673 2.59716,0.39135 5.19431,0.85386 7.72032,1.49426 1.17405,0.28462 2.31253,0.60481 3.45101,0.96059 0.53367,0.17789 1.03175,0.35577 1.52984,0.53366 0.28462,0.10673 0.53366,0.21347 0.81828,0.3202 1.13848,0.39135 -1.06732,-0.53366 0,0 0.92502,0.46251 1.85003,0.88944 2.70389,1.4231 0.39135,0.24904 0.74713,0.49808 1.13848,0.74713 0.88944,0.56924 -0.85386,-0.88944 -0.17789,-0.14231 0.17789,0.21346 0.42693,0.35577 0.60482,0.56924 0.17789,0.21346 1.13848,1.20963 0.46251,0.4625 -0.67597,-0.74712 0.14231,0.28462 0.3202,0.49809 0.0711,0.10673 0.17788,0.46251 0.28462,0.56924 0.32019,0.21346 -0.28462,-1.28079 -0.21347,-0.46251 0,0.35578 0.21347,1.77888 0.24904,0.78271 0,-1.06733 -0.0356,0.32019 -0.0356,0.60481 0.0356,1.35195 0.35577,-1.03174 0,0.10674 -0.0712,0.17788 -0.21347,1.1029 -0.35578,1.13848 -0.14231,0.0356 0.78271,-1.28079 0.24904,-0.60482 -0.14231,0.17789 -0.24904,0.46251 -0.35577,0.67597 -0.28462,0.46251 -1.24521,1.38753 -0.0712,0.21347 -0.32019,0.3202 -0.60481,0.71155 -0.92501,1.03175 -0.28462,0.28462 -0.56924,0.53366 -0.85386,0.81828 -0.24904,0.21346 -0.46251,0.39135 -0.71155,0.60482 0.53366,-0.46251 0.71155,-0.53367 0.0356,-0.0712 -1.99234,1.35195 -4.127,2.45485 -6.3328,3.45102 -0.78271,0.35577 1.20963,-0.46251 -0.0712,0 -0.24904,0.10673 -0.53366,0.21346 -0.7827,0.3202 -0.67597,0.28462 -1.38752,0.53366 -2.0635,0.7827 -1.49425,0.53366 -2.98851,0.99617 -4.48276,1.4231 -3.34429,0.96059 -6.75973,1.77888 -10.17517,2.49043 -7.8982,1.60098 -14.65793,2.49042 -22.59171,3.20197 -19.63879,1.81446 -39.49104,1.88561 -59.1654,0.28462 -2.88178,-0.24904 -5.33662,2.63274 -5.33662,5.33663 0,3.09524 2.45484,5.08758 5.33662,5.33662 v 0 z"
           id="path12-9"
           style="fill:#1131d3;stroke-width:12.6576" />
        <path
           class="f"
           d="m 315.47794,482.93356 c -7.1155,0.56924 -14.231,1.45868 -21.31092,2.49043 -10.21075,1.49425 -21.45324,2.95293 -30.70339,7.82705 -3.59333,1.88561 -7.15108,5.01643 -8.25398,9.07227 -1.35195,5.08758 1.17405,9.81939 5.052,12.95021 2.24139,1.81445 5.37221,2.2058 7.54243,0 1.88561,-1.88561 2.24139,-5.72798 0,-7.54243 -0.67597,-0.56924 -1.4231,-1.10291 -1.95676,-1.81446 -0.0712,-0.10673 -0.53366,-1.06732 -0.3202,-0.53366 -0.0712,-0.21346 -0.14231,-0.99617 -0.0356,-0.14231 0.0711,0.56924 -0.0712,0.10673 -0.0356,0.14231 l 0.0712,-0.24904 c -0.21346,0.35577 -0.21346,0.39135 0,0.0356 0.0712,-0.14231 0.49809,-0.78271 0.39136,-0.6404 0.49808,-0.60482 1.63656,-1.35194 2.526,-1.85003 0.35577,-0.17789 0.67597,-0.35577 1.03175,-0.53366 0.4625,-0.21347 1.49425,-0.6404 0.39135,-0.21347 4.16257,-1.67214 8.5386,-2.77504 12.87906,-3.73564 4.87411,-1.06732 9.81939,-1.8856 14.76466,-2.59715 0.56924,-0.0712 1.13848,-0.17789 1.70772,-0.24905 0.3202,-0.0356 0.6404,-0.10673 0.96059,-0.14231 -0.0712,0 -0.85386,0.10674 -0.21346,0 1.13848,-0.14231 2.27696,-0.28462 3.41544,-0.42693 1.95676,-0.24904 3.9491,-0.4625 5.90587,-0.67597 1.95676,-0.21346 4.12699,-0.42693 6.19048,-0.60482 2.88178,-0.24904 5.33663,-2.27696 5.33663,-5.33662 0,-2.70389 -2.45485,-5.58567 -5.33663,-5.33663 v 0 z"
           id="path14"
           style="fill:#1131d3;stroke-width:12.6576" />
        <path
           class="f"
           d="M 321.63285,486.20669 V 303.48062 c 0,-8.43186 0.28462,-16.93489 0,-25.36676 0,-0.10673 0,-0.24904 0,-0.35577 0,-6.86646 -10.67325,-6.86646 -10.67325,0 v 182.72607 c 0,8.43187 -0.28462,16.93489 0,25.36676 0,0.10673 0,0.24904 0,0.35577 0,6.86646 10.67325,6.86646 10.67325,0 z"
           id="path16"
           style="fill:#1131d3;stroke-width:12.6576" />
        <path
           class="f"
           d="M 375.46162,486.20669 V 302.91138 c 0,-8.43186 0.28462,-16.93489 0,-25.36676 0,-0.10673 0,-0.24904 0,-0.35577 0,-6.86646 -10.67325,-6.86646 -10.67325,0 v 183.29531 c 0,8.43187 -0.28462,16.93489 0,25.36676 0,0.10673 0,0.24904 0,0.35577 0,6.86646 10.67325,6.86646 10.67325,0 z"
           id="path18"
           style="fill:#1131d3;stroke-width:12.6576" />
        <path
           class="f"
           d="m 307.08165,527.69007 c 18.57146,1.52983 37.3208,1.49425 55.92784,0 15.44064,-1.24522 31.73514,-3.02409 46.21518,-8.8588 5.01643,-2.02792 10.24632,-4.51835 13.73292,-8.82322 3.48659,-4.30488 4.73181,-10.13959 2.06349,-15.29833 -2.41927,-4.62508 -7.29339,-7.22223 -11.95404,-9.00111 -5.44336,-2.09907 -11.34922,-2.98851 -17.11278,-3.70006 -8.5386,-1.03175 -17.21951,-1.38752 -25.82927,-1.03175 -2.88178,0.10673 -5.33662,2.38369 -5.33662,5.33663 0,2.81062 2.45484,5.44336 5.33662,5.33662 6.54626,-0.28462 13.16368,-0.0712 19.70994,0.42693 1.28079,0.10674 2.56158,0.21347 3.84237,0.35578 0.60482,0.0712 1.24521,0.14231 1.85003,0.21346 0.35578,0.0356 0.67597,0.0712 1.03175,0.14231 0.39135,0.0356 0.28462,0 -0.39135,-0.0711 0.28462,0.0356 0.53366,0.0711 0.81828,0.10673 2.59716,0.39135 5.19431,0.85386 7.72032,1.49426 1.17405,0.28462 2.31253,0.60481 3.45101,0.96059 0.53367,0.17789 1.03175,0.35577 1.52984,0.53366 0.28462,0.10673 0.53366,0.21347 0.81828,0.3202 1.13848,0.39135 -1.06732,-0.53366 0,0 0.92502,0.46251 1.85003,0.88944 2.70389,1.4231 0.39135,0.24904 0.74713,0.49808 1.13848,0.74713 0.88944,0.56924 -0.85386,-0.88944 -0.17789,-0.14231 0.17789,0.21346 0.42693,0.35577 0.60482,0.56924 0.17789,0.21346 1.13848,1.20963 0.46251,0.4625 -0.67597,-0.74712 0.14231,0.28462 0.3202,0.49809 0.0711,0.10673 0.17788,0.46251 0.28462,0.56924 0.32019,0.21346 -0.28462,-1.28079 -0.21347,-0.46251 0,0.35578 0.21347,1.77888 0.24904,0.78271 0,-1.06733 -0.0356,0.32019 -0.0356,0.60481 0.0356,1.35195 0.35577,-1.03174 0,0.10674 -0.0712,0.17788 -0.21347,1.1029 -0.35578,1.13848 -0.14231,0.0356 0.78271,-1.28079 0.24904,-0.60482 -0.14231,0.17789 -0.24904,0.46251 -0.35577,0.67597 -0.28462,0.46251 -1.24521,1.38753 -0.0712,0.21347 -0.32019,0.3202 -0.60481,0.71155 -0.92501,1.03175 -0.28462,0.28462 -0.56924,0.53366 -0.85386,0.81828 -0.24904,0.21346 -0.46251,0.39135 -0.71155,0.60482 0.53366,-0.46251 0.71155,-0.53367 0.0356,-0.0712 -1.99234,1.35195 -4.127,2.45485 -6.3328,3.45102 -0.78271,0.35577 1.20963,-0.46251 -0.0712,0 -0.24904,0.10673 -0.53366,0.21346 -0.7827,0.3202 -0.67597,0.28462 -1.38752,0.53366 -2.0635,0.7827 -1.49425,0.53366 -2.98851,0.99617 -4.48276,1.4231 -3.34429,0.96059 -6.75973,1.77888 -10.17517,2.49043 -7.8982,1.60098 -14.65793,2.49042 -22.59171,3.20197 -19.63879,1.81446 -39.49104,1.88561 -59.1654,0.28462 -2.88178,-0.24904 -5.33662,2.63274 -5.33662,5.33663 0,3.09524 2.45484,5.08758 5.33662,5.33662 v 0 z"
           id="path20"
           style="fill:#1131d3;stroke-width:12.6576" />
        <path
           class="f"
           d="m 267.80408,507.73109 c -0.99617,-0.78271 -1.95676,-1.60099 -2.41927,-2.56158 0.28462,0.56924 0,-0.81829 0.0712,0.10673 0.0712,0.60482 -0.0712,0.10673 -0.0356,0.14231 0.10673,-0.28462 0.0712,-0.3202 0,-0.10673 -0.10673,0.21346 -0.10673,0.17788 0.0712,-0.10674 0.64039,-1.28079 2.49042,-2.27696 4.12699,-3.09524 0.96059,-0.46251 -0.28462,0.0712 0.0711,0 0.35578,-0.14231 0.71155,-0.28462 1.06733,-0.39135 0.85386,-0.28462 1.67214,-0.56924 2.56158,-0.81829 1.92118,-0.53366 3.84237,-0.96059 5.79913,-1.35194 2.0635,-0.39135 4.09141,-0.71155 6.15491,-0.99617 0.64039,-0.10673 -0.0356,0 -0.14231,0 0.24904,0 0.49808,-0.0712 0.7827,-0.10673 0.49809,-0.0712 1.03175,-0.14231 1.52984,-0.17789 1.20963,-0.14231 2.41927,-0.28462 3.59333,-0.39135 4.12699,-0.39136 8.25398,-0.67598 12.38097,-0.88944 2.98851,-0.14231 5.97702,-0.24904 8.92995,-0.3202 0.85386,0 1.67214,0 2.526,-0.0356 1.35195,-0.0711 -0.42693,0.0356 -0.71155,-0.17788 1.13848,0.85386 3.4866,1.1029 4.83854,1.45867 3.98469,0.99617 8.0761,1.60099 12.16751,1.99234 14.30216,1.35195 28.53316,-1.35194 41.66126,-6.97319 2.66831,-1.13848 3.23755,-5.052 1.92119,-7.29339 -1.60099,-2.73946 -4.62508,-3.05966 -7.29339,-1.92118 -11.42038,4.87412 -23.94366,6.68857 -36.28906,5.51451 -0.60482,-0.0711 -1.24521,-0.14231 -1.85003,-0.17788 -1.06732,-0.10674 0.42693,0.0711 -0.56924,-0.0712 -0.99617,-0.14231 -2.09907,-0.3202 -3.1664,-0.53366 -1.63656,-0.3202 -3.23755,-0.67597 -4.83854,-1.1029 -1.70772,-0.46251 -3.48659,-1.31637 -5.26547,-1.38753 -4.87412,-0.24904 -9.92612,0.21347 -14.80024,0.49809 -9.179,0.53366 -18.46473,1.35194 -27.43026,3.41544 -4.5895,1.06732 -9.21457,2.56158 -12.98579,5.51451 -3.05966,2.38369 -5.30105,5.65682 -5.44336,9.64151 -0.14231,3.98468 2.3837,7.79147 5.47894,10.28189 2.24138,1.81446 5.3722,2.20581 7.54243,0 1.88561,-1.8856 2.24138,-5.72797 0,-7.54243 v 0 z"
           id="path22"
           style="fill:#1131d3;stroke-width:12.6576" />
        <path
           class="f"
           d="M 321.63285,491.2587 V 308.53263 c 0,-8.43187 0.28462,-16.93489 0,-25.36676 0,-0.10673 0,-0.24904 0,-0.35578 0,-6.86646 -10.67325,-6.86646 -10.67325,0 v 182.72607 c 0,8.43187 -0.28462,16.9349 0,25.36677 0,0.10673 0,0.24904 0,0.35577 0,6.86646 10.67325,6.86646 10.67325,0 z"
           id="path24"
           style="fill:#1131d3;stroke-width:12.6576" />
        <path
           class="f"
           d="m 364.78837,129.25758 v 94.67174 c 0,6.86646 10.67325,6.86646 10.67325,0 v -94.67174 c 0,-6.86646 -10.67325,-6.86646 -10.67325,0 z"
           id="path26"
           style="fill:#1131d3;stroke-width:12.6576" />
        <path
           class="f"
           d="m 364.78837,58.849693 v 45.041127 c 0,6.86645 10.67325,6.86645 10.67325,0 V 58.849693 c 0,-6.866459 -10.67325,-6.866459 -10.67325,0 z"
           id="path28-8"
           style="fill:#1131d3;stroke-width:12.6576" />
        <path
           class="f"
           d="M 321.63285,104.0687 V 58.849693 c 0,-6.866459 -10.67325,-6.866459 -10.67325,0 V 104.0687 c 0,6.86646 10.67325,6.86646 10.67325,0 z"
           id="path30-9"
           style="fill:#1131d3;stroke-width:12.6576" />
        <path
           class="f"
           d="m 321.63285,223.9649 v -95.73907 c 0,-6.86646 -10.67325,-6.86646 -10.67325,0 v 95.73907 c 0,6.86646 10.67325,6.86646 10.67325,0 z"
           id="path32"
           style="fill:#1131d3;stroke-width:12.6576" />
        <path
           class="f"
           d="m 369.91153,111.36209 c 0.99617,0.39135 1.95676,0.78271 2.95293,1.17406 -1.67214,-0.67597 0,0 0.42693,0.17789 0.60482,0.24904 1.20963,0.53366 1.81445,0.7827 1.31637,0.60482 2.59716,1.20964 3.91353,1.81445 2.88178,1.38753 5.6924,2.88178 8.43187,4.55393 1.31636,0.81828 2.59715,1.67214 3.84237,2.56158 0.24904,0.17788 0.99617,0.81828 0.0711,0.0356 0.24904,0.21347 0.49809,0.42693 0.78271,0.6404 0.53366,0.46251 1.03174,0.92501 1.49425,1.38752 0.24904,0.24904 0.46251,0.53366 0.71155,0.78271 0.81829,0.7827 -0.49808,-0.78271 -0.14231,-0.17789 0.21347,0.35577 0.46251,0.99617 0.74713,1.28079 0.46251,0.46251 -0.53366,-1.28079 -0.21346,-0.39135 0.14231,0.39135 -0.0356,0.81828 0.0356,0 0.14231,-1.31637 -0.10673,0.7827 -0.10673,0.81828 -0.17789,0.10673 0.46251,-1.56541 0,-0.46251 -0.0711,0.17789 -0.14231,0.39135 -0.17789,0.56924 -0.14231,0.99617 0.6404,-1.20963 -0.0712,0 -0.71155,1.20964 0.64039,-0.7827 0,0.0712 -0.10673,0.14231 -0.3202,0.28462 -0.42693,0.42693 -0.46251,0.67597 1.03175,-0.53367 0.28462,-0.21347 -0.35578,0.14231 -0.99617,0.49809 -1.31637,0.74713 -0.46251,0.39135 1.28079,-0.35578 0.3202,-0.14231 -0.24905,0.0356 -0.49809,0.17789 -0.74713,0.21346 -0.49809,0.14231 -1.13848,0.14231 -1.60099,0.35578 -0.64039,0.24904 1.31637,0 0.17789,0 -0.46251,0 -0.88944,0.0711 -1.35195,0.0711 -0.71155,0 -1.38752,0 -2.09907,-0.0356 -0.39135,0 -0.74713,-0.0356 -1.1029,-0.0712 0,0 -1.49426,-0.17789 -0.71155,-0.0711 0.7827,0.10673 -0.81828,-0.14231 -0.78271,-0.14231 -0.42693,-0.0712 -0.85386,-0.14231 -1.28079,-0.24905 -1.1029,-0.21346 -2.2058,-0.49808 -3.3087,-0.7827 -7.57801,-2.02792 -14.5512,-5.51451 -21.55997,-8.92995 -2.59716,-1.28079 -5.76356,-0.71155 -7.29339,1.92118 -1.38752,2.34812 -0.67597,6.0126 1.92118,7.29339 7.47128,3.66448 14.90698,7.36454 22.91192,9.67708 7.00877,2.02792 15.76083,3.59333 22.52056,-0.17789 5.55009,-3.09524 8.07609,-10.2819 5.08758,-16.04545 -2.98851,-5.76356 -10.35305,-9.89055 -16.11661,-12.95021 -4.90969,-2.59716 -10.03286,-4.9097 -15.26275,-6.90204 -2.70389,-1.031748 -5.87029,1.13848 -6.58184,3.73564 -0.81828,3.02409 1.03175,5.51451 3.73564,6.58184 v 0 z"
           id="path34"
           style="fill:#1131d3;stroke-width:12.6576" />
        <path
           class="f"
           d="m 390.08397,141.14046 c 0,1.45868 -0.0356,2.91736 -0.0356,4.41161 0,1.10291 0,2.20581 0,3.30871 0,0.78271 0.10674,1.60099 0.0356,2.34812 l 0.17789,-1.4231 c 0,0 0,0.14231 -0.0356,0.17789 l 0.53366,-1.28079 c 0,0 -0.10673,0.17788 -0.14231,0.24904 l 0.81829,-1.06733 c 0,0 -0.24905,0.24905 -0.39136,0.35578 l 1.06733,-0.81828 c -0.35578,0.24904 -0.74713,0.4625 -1.13848,0.64039 l 1.28079,-0.53366 c -1.28079,0.53366 -2.63274,0.7827 -4.02026,0.99617 l 1.4231,-0.17789 c -2.09907,0.28462 -4.23372,0.28462 -6.36837,0 l 1.4231,0.17789 c -0.78271,-0.10673 -1.52983,-0.24904 -2.27696,-0.46251 l 3.91352,5.15874 v -13.09252 c 0,-2.77505 -2.45484,-5.47894 -5.33662,-5.33663 -2.88178,0.14231 -5.33663,2.34812 -5.33663,5.33663 v 13.09252 c 0,2.34811 1.67214,4.51834 3.91353,5.15874 2.81062,0.7827 5.83471,0.99617 8.71649,0.7827 2.88177,-0.21346 5.72798,-0.74713 8.39629,-2.02792 1.28079,-0.60481 2.45485,-1.63656 3.1664,-2.88177 0.71155,-1.24522 0.85386,-2.52601 0.81828,-3.91353 -0.0356,-1.7433 0,-3.52217 0,-5.26547 0,-1.31637 0,-2.59716 0.0356,-3.91353 0.0356,-2.77504 -2.49043,-5.47893 -5.33663,-5.33662 -2.8462,0.14231 -5.30105,2.34811 -5.33663,5.33662 v 0 z"
           id="path36"
           style="fill:#1131d3;stroke-width:12.6576" />
        <path
           class="f"
           d="m 372.15291,111.36209 c 1.17406,0.42693 2.34811,0.92502 3.52217,1.38752 0.35578,0.14231 2.02792,0.85386 0.56924,0.21347 0.56924,0.24904 1.13848,0.49808 1.7433,0.74713 1.56541,0.67597 3.13082,1.38752 4.66065,2.13465 3.05967,1.45868 6.08376,3.05966 9.00111,4.87412 0.6404,0.39135 1.24521,0.7827 1.88561,1.20963 0.35577,0.24904 2.31254,1.7433 1.28079,0.92502 1.03175,0.88943 1.95676,1.81445 2.91736,2.77504 -1.06733,-1.1029 -0.0356,0 0.21346,0.42693 0.24904,0.42693 0.39135,1.20964 -0.0711,-0.28462 0.0711,0.24904 0.17788,0.49809 0.21346,0.74713 -0.28462,-1.88561 -0.17789,-0.42693 -0.14231,0.10673 0.0356,0.92502 0.42693,-1.24521 0.0356,-0.42693 -0.0712,0.17789 -0.14231,0.53366 -0.17789,0.71155 -0.21346,1.17406 0,-0.56924 0.17789,-0.35577 0,0.0356 -0.3202,0.60481 -0.35578,0.64039 -0.71155,1.03175 0.92502,-0.7827 -0.0711,0.10673 -0.17789,0.14231 -0.42693,0.35578 -0.56924,0.53367 -0.28462,0.39135 -0.67597,0 0.46251,-0.3202 -0.39136,0.10673 -1.28079,0.67597 -1.60099,0.92501 -0.46251,0.39136 1.28079,-0.35577 0.28462,-0.14231 -0.3202,0.0712 -0.60482,0.21347 -0.92502,0.28462 -0.56924,0.14231 -1.13848,0.24905 -1.70772,0.35578 1.56541,-0.28462 -0.46251,0 -0.88944,0 -1.03174,0.0356 -2.06349,0 -3.05966,-0.0712 -0.3202,0 -0.6404,-0.0711 -0.96059,-0.0711 -1.60099,-0.10673 1.06732,0.21346 -0.60482,-0.0712 -0.88944,-0.14231 -1.81445,-0.32019 -2.70389,-0.49808 -2.49043,-0.53366 -4.94527,-1.28079 -7.32897,-2.13465 -6.86646,-2.38369 -13.48387,-5.65682 -20.2436,-8.46745 -2.66831,-1.1029 -5.87029,1.20964 -6.58184,3.73564 -0.85386,3.05967 1.06733,5.44336 3.73564,6.58184 l 7.47128,3.09524 c 0.49808,0.21347 0.99617,0.39136 1.49425,0.6404 0.10673,0.0356 0.21347,0.0711 0.3202,0.14231 -1.4231,-0.67598 1.06733,0.56924 1.1029,0.56924 3.09525,1.4231 6.29722,2.77504 9.4992,3.91352 8.04051,2.8462 17.89548,5.19432 26.04273,1.52984 5.55009,-2.49043 9.35689,-9.10785 7.25781,-15.15602 -2.41927,-6.97319 -10.60209,-11.24249 -16.72143,-14.40889 -5.26547,-2.73947 -10.7444,-5.15874 -16.33007,-7.22224 -2.70389,-0.99617 -5.83471,1.10291 -6.58184,3.73564 -0.81828,2.98851 1.03175,5.55009 3.73564,6.58184 z"
           id="path38"
           style="fill:#1131d3;stroke-width:12.6576" />
        <path
           class="f"
           d="m 320.31648,119.40261 c -7.15108,0.67597 -14.33773,1.4231 -21.52439,1.06732 -0.96059,-0.0356 -1.92118,-0.10673 -2.88178,-0.21346 -0.53366,-0.0356 -1.06732,-0.10673 -1.63656,-0.17789 1.1029,0.14231 -0.53366,-0.0712 -0.60482,-0.10673 -1.77887,-0.28462 -3.55775,-0.67597 -5.26547,-1.20964 -0.60482,-0.21346 -1.20964,-0.42693 -1.81445,-0.64039 1.45867,0.53366 -0.56924,-0.28462 -0.92502,-0.49809 -0.46251,-0.24904 -0.88944,-0.56924 -1.31637,-0.81828 -0.92501,-0.49809 0.85386,0.85386 0.17789,0.14231 -0.21346,-0.21346 -0.46251,-0.42693 -0.71155,-0.6404 -0.14231,-0.14231 -0.28462,-0.35577 -0.42693,-0.4625 -0.71155,-0.56924 0.56924,1.1029 0.21347,0.28462 0,-0.0712 -0.6404,-0.99617 -0.56924,-0.99617 0.35577,-0.17789 0.42693,1.52983 0.21346,0.42693 -0.0356,-0.17789 -0.10673,-0.46251 -0.17789,-0.6404 -0.35577,-0.7827 0,1.4231 0.0712,0.53366 0,-0.21346 0,-0.4625 0,-0.67597 -0.10673,-1.52983 -0.39135,0.96059 0,-0.14231 0.0356,-0.14231 0.24904,-1.13848 0.35577,-1.13848 0.0712,0 -0.67597,1.4231 -0.10673,0.46251 0.49809,-0.81828 -0.81828,1.1029 -0.21346,0.3202 0.10673,-0.10674 0.24904,-0.28462 0.35577,-0.35578 0.67597,-0.53366 -1.20963,0.71155 0,0 0.46251,-0.24904 0.88944,-0.53366 1.35195,-0.7827 0.28462,-0.14231 0.60481,-0.28462 0.88943,-0.42693 -1.38752,0.64039 -0.28462,0.10673 0,0 1.49426,-0.49809 2.95294,-0.9606 4.48277,-1.31637 1.52983,-0.35578 3.02409,-0.6404 4.55392,-0.88944 0.71155,-0.10673 1.4231,-0.21346 2.13465,-0.3202 -1.38752,0.17789 0.0356,0 0.28462,0 0.49809,-0.0712 0.99617,-0.10673 1.45868,-0.17788 4.44719,-0.49809 8.96553,-0.78271 13.4483,-0.81829 6.86645,-0.0356 6.86645,-10.708826 0,-10.673248 -4.34046,0 -8.71649,0.320198 -13.02137,0.747128 -6.83088,0.71155 -14.90698,1.49425 -20.84842,5.30105 -5.55009,3.55775 -7.54243,10.70883 -4.09141,16.47238 3.45102,5.76356 11.20691,8.36072 17.7176,9.32131 9.53477,1.38752 18.99838,0.56924 28.49758,-0.35578 2.88178,-0.28462 5.33662,-2.24138 5.33662,-5.33662 0,-2.66831 -2.45484,-5.62125 -5.33662,-5.33663 v 0 z"
           id="path40-1"
           style="fill:#1131d3;stroke-width:12.6576" />
        <path
           class="f"
           d="m 283.06683,128.22583 c 0,-1.06733 -0.10673,-2.24138 0.0356,-3.30871 l -0.17789,1.4231 v 0 l -0.53366,1.24521 v 0 l -1.92118,1.92119 h -5.37221 l -1.92118,-1.92119 v 0 l -0.53367,-1.28079 v 0.0712 l -0.17788,-1.4231 c 0.14231,1.13848 0.14231,2.34811 0.17788,3.48659 0.0712,1.92119 0.10674,3.84238 0.14231,5.76356 0,1.31637 0.0356,2.59716 0.0712,3.91353 0.0711,4.37603 4.05584,6.58183 7.89821,7.25781 4.37603,0.7827 9.07226,0.7827 13.34156,-0.60482 2.17023,-0.71155 4.02026,-2.73947 3.91353,-5.15874 l -0.3202,-7.32896 c -0.0712,-1.42311 -0.56924,-2.77505 -1.56541,-3.77122 -0.92502,-0.92502 -2.45485,-1.63657 -3.77122,-1.56541 -2.77504,0.14231 -5.47893,2.34811 -5.33662,5.33663 l 0.32019,7.32896 3.91353,-5.15874 c -1.1029,0.35578 -2.24138,0.60482 -3.37986,0.74713 l 1.4231,-0.17789 c -2.09908,0.24905 -4.2693,0.24905 -6.36838,0 l 1.4231,0.17789 c -1.13848,-0.17789 -2.27696,-0.39135 -3.34428,-0.81828 l 1.28079,0.53366 c -0.3202,-0.14231 -0.60482,-0.28462 -0.88944,-0.49808 l 1.06733,0.81828 c 0,0 -0.21347,-0.17789 -0.3202,-0.3202 l 0.81828,1.06733 c 0,0 -0.0711,-0.10674 -0.10673,-0.17789 l 0.53366,1.28079 c 0,0 -0.0356,-0.14231 -0.0711,-0.17789 l 0.17788,1.4231 c -0.0711,-0.64039 0,-1.31637 0,-1.95676 0,-1.13848 -0.0356,-2.24138 -0.0711,-3.37986 -0.0712,-2.27697 -0.10673,-4.55393 -0.21347,-6.83089 -0.10673,-2.27696 -0.42693,-4.62507 -2.73946,-5.87028 -1.63657,-0.85386 -3.77122,-1.06733 -5.37221,0 -1.95676,1.28079 -2.63273,3.05966 -2.66831,5.22989 0,0.88944 0,1.81445 0,2.70389 0,2.77504 2.45485,5.47894 5.33663,5.33663 2.88177,-0.14231 5.33662,-2.34812 5.33662,-5.33663 v 0 z"
           id="path42-8"
           style="fill:#1131d3;stroke-width:12.6576" />
        <path
           class="f"
           d="m 309.99901,97.771484 c -4.66066,0 -9.35689,0.249043 -13.98196,0.675973 -6.9732,0.675973 -15.58295,1.387523 -21.48882,5.585673 -5.90586,4.19814 -6.65299,12.09635 -2.34811,17.64644 5.052,6.58184 14.26658,8.28956 22.02247,8.96553 8.64534,0.71155 17.46856,-0.28462 26.14947,-0.56924 6.86646,-0.21347 6.86646,-10.88672 0,-10.67325 -6.26164,0.21346 -12.52328,0.71155 -18.78492,0.81828 -2.45485,0 -4.9097,0 -7.36455,-0.24904 -2.24138,-0.17789 -3.13082,-0.28462 -5.65682,-0.88944 -0.81828,-0.17789 -1.67214,-0.42693 -2.49043,-0.67597 -0.35577,-0.10673 -2.56158,-0.99617 -1.28079,-0.39135 -0.56924,-0.24905 -1.13848,-0.53367 -1.70772,-0.81829 -0.32019,-0.17788 -0.60481,-0.35577 -0.88943,-0.53366 -0.35578,-0.21347 -1.4231,-1.17406 -0.24905,-0.10673 -0.35577,-0.3202 -0.74712,-0.67598 -1.1029,-0.99617 -0.21346,-0.17789 -0.35577,-0.42693 -0.56924,-0.6404 1.06733,1.06733 0.42693,0.6404 0.21347,0.21347 -0.10674,-0.21347 -0.24905,-0.49809 -0.39136,-0.67598 -0.28462,-0.35577 0.17789,-0.74712 0.24905,0.60482 0,-0.21346 -0.17789,-0.49808 -0.21347,-0.67597 -0.35577,-1.35195 0.14231,0.21346 0,0.24904 -0.0711,0 0,-1.13848 0,-1.20963 -0.14231,-0.88944 -0.39135,1.31636 -0.0711,0.4625 0.0711,-0.21346 0.10673,-0.49808 0.17788,-0.71155 0,-0.14231 0.14231,-0.32019 0.14231,-0.49808 0.14231,-0.96059 -0.60481,1.20963 -0.14231,0.39135 0.46251,-0.81828 -0.99617,0.78271 -0.24904,0.28462 0.24904,-0.17789 0.56924,-0.53366 0.78271,-0.74713 -0.92502,0.92502 -0.24905,0.21347 0.42693,-0.14231 0.28462,-0.17788 0.60481,-0.28462 0.88943,-0.4625 1.03175,-0.60482 -1.13848,0.35577 0,0 1.38753,-0.46251 2.73947,-0.92502 4.16257,-1.28079 1.56541,-0.39136 3.13082,-0.67598 4.69623,-0.9606 0.46251,-0.0712 0.88944,-0.14231 1.35195,-0.21346 1.49425,-0.24904 -1.13848,0.14231 0.39135,-0.0712 0.88944,-0.10673 1.77888,-0.21346 2.66831,-0.32019 4.87412,-0.49809 9.74824,-0.78271 14.65794,-0.74713 6.86645,0 6.86645,-10.637676 0,-10.673253 v 0 z"
           id="path44"
           style="fill:#1131d3;stroke-width:12.6576" />
        <path
           class="f"
           d="m 225.64474,228.91017 c -0.53366,6.75973 2.98851,14.30216 6.83088,19.56763 12.09635,16.54354 33.12266,24.12155 52.44124,28.24854 19.31859,4.12699 38.2814,5.26547 57.49325,5.30105 19.21186,0.0356 38.49487,-1.28079 57.20863,-5.51452 20.17245,-4.58949 41.48338,-13.23483 53.89993,-30.63223 3.09524,-4.30488 5.55009,-9.35688 6.65299,-14.5512 0.71155,-3.41544 1.52983,-8.36071 -1.24521,-11.10018 -2.17023,-2.17023 -5.55009,-2.02792 -7.7559,0 -5.01643,4.69623 2.526,12.23866 7.54243,7.54243 -2.02792,1.88561 -5.33662,2.02792 -7.32897,0 -0.56924,-0.56924 -1.1029,-1.67214 -1.20963,-2.02792 0.42693,1.28079 0,-1.70772 -0.0356,-0.35577 0,0.53366 0,1.1029 0,1.63656 0,0.3202 -0.0711,0.6404 -0.10673,0.92502 0.0712,-1.63657 0.14231,-1.03175 0,-0.0712 -0.35578,1.92119 -0.96059,3.77122 -1.67214,5.62125 -0.42693,1.13848 0.39135,-0.85386 0.14231,-0.3202 -0.14231,0.24904 -0.24905,0.53366 -0.35578,0.78271 -0.24904,0.56924 -0.53366,1.1029 -0.81828,1.63656 -0.6404,1.24522 -1.38752,2.45485 -2.13465,3.62891 -0.39135,0.56924 -0.78271,1.13848 -1.17406,1.70772 -0.71155,0.99617 0.0712,0.39135 0.0712,-0.0712 0,0.24905 -0.67598,0.85386 -0.88944,1.10291 -1.1029,1.31636 -2.24138,2.59715 -3.4866,3.77121 -1.35194,1.35195 -2.77504,2.59716 -4.2693,3.80679 -0.3202,0.24905 -1.70772,1.2808 -0.3202,0.28462 -0.42693,0.3202 -0.81828,0.60482 -1.24521,0.92502 -0.85386,0.6404 -1.7433,1.24521 -2.63273,1.81445 -4.19815,2.73947 -8.64534,4.98085 -13.19926,7.04435 -1.20963,0.53366 0.74713,-0.28462 -0.0356,0 -0.32019,0.14231 -0.64039,0.24904 -0.96059,0.39135 -0.64039,0.24904 -1.31637,0.53366 -1.99234,0.78271 -1.45868,0.56924 -2.91735,1.06732 -4.37603,1.56541 -3.09525,1.03174 -6.26164,1.95676 -9.42804,2.81062 -16.65027,4.30488 -32.94477,5.76356 -50.23544,6.15491 -10.35305,0.21346 -20.74169,0.0356 -31.09474,-0.60482 -8.60976,-0.56924 -16.65027,-1.38752 -24.72637,-2.77504 -6.83088,-1.17406 -13.62618,-2.66832 -20.2436,-4.69624 -2.77504,-0.85386 -5.55009,-1.81445 -8.25398,-2.8462 -0.60482,-0.24904 -1.20963,-0.49808 -1.85003,-0.74712 -0.28462,-0.10674 -1.17406,-0.49809 0,0 -0.24904,-0.10674 -0.46251,-0.21347 -0.71155,-0.28462 -1.20963,-0.53367 -2.45485,-1.10291 -3.66448,-1.70772 -3.87795,-1.92119 -7.54243,-4.16257 -11.06461,-6.68857 -1.1029,-0.81829 0.81829,0.71155 -0.21346,-0.17789 -0.3202,-0.24904 -0.6404,-0.49809 -0.92502,-0.74713 -0.67597,-0.56924 -1.35194,-1.17406 -2.02791,-1.77888 -1.17406,-1.1029 -2.31254,-2.24138 -3.34429,-3.45101 -0.46251,-0.49809 -0.85386,-1.06733 -1.31637,-1.56541 -0.35577,-0.42693 0.85386,1.20963 0.0712,0.10673 -0.21347,-0.3202 -0.46251,-0.6404 -0.71155,-0.96059 -0.71155,-1.03175 -1.38753,-2.09908 -1.99234,-3.20198 -0.24905,-0.46251 -0.49809,-0.92501 -0.74713,-1.4231 -0.10673,-0.24904 -0.21347,-0.49808 -0.35578,-0.71155 -0.0712,-0.10673 -0.10673,-0.24904 -0.14231,-0.35577 -0.39135,-0.81829 0.42693,0.14231 0.28462,0.64039 0.14231,-0.46251 -0.7827,-2.09907 -0.96059,-2.63274 -0.24904,-0.7827 -0.46251,-1.60098 -0.64039,-2.41927 -0.0712,-0.32019 -0.10674,-0.64039 -0.17789,-0.96059 -0.28462,-1.4231 0.0711,0.74713 0.0356,0.39135 -0.0356,-0.7827 -0.10674,-1.56541 -0.14231,-2.38369 0,-0.10673 0,-0.21346 0,-0.3202 0.21346,-2.88177 -2.63274,-5.33662 -5.33663,-5.33662 -3.09524,0 -5.12316,2.45485 -5.33663,5.33662 v 0 z"
           id="path46"
           style="fill:#1131d3;stroke-width:12.6576" />
        <path
           class="f"
           d="m 308.14898,202.58282 c -9.71266,0.71155 -19.42532,1.77887 -29.06683,3.09524 -8.00494,1.06733 -15.9743,2.27696 -23.8725,3.98468 -6.54626,1.4231 -13.23484,3.05967 -19.24743,6.08375 -6.72415,3.41544 -13.4483,10.49537 -8.82323,18.358 2.17023,3.66448 6.19049,6.08375 9.99728,7.75589 6.08376,2.70389 12.52329,4.44719 19.06955,5.76356 20.59937,4.23372 41.83914,5.58567 62.82987,6.40395 20.99073,0.81828 41.1276,0.74713 61.62024,-0.49808 17.32625,-1.06733 34.93711,-2.70389 51.76527,-7.18666 9.99728,-2.66831 23.80136,-6.97319 27.71488,-17.78875 1.99234,-5.47894 -0.81828,-11.17134 -5.15874,-14.62236 -4.83854,-3.84237 -10.92229,-5.87029 -16.89931,-7.25781 -10.95787,-2.526 -22.41383,-3.37986 -33.65632,-3.52217 -0.67598,0 -1.31637,0 -1.99234,0 -6.86646,0.0711 -6.86646,10.7444 0,10.67325 7.79147,-0.0712 15.61852,0.53366 23.37442,1.4231 1.38752,0.17789 -0.81828,-0.10673 0.0356,0 0.35577,0.0356 0.71155,0.10673 1.06732,0.14231 0.71155,0.10673 1.38752,0.21346 2.09907,0.3202 1.60099,0.24904 3.20198,0.56924 4.80297,0.88943 2.81062,0.60482 5.62124,1.31637 8.32513,2.31254 0.60482,0.21347 1.17406,0.42693 1.7433,0.67597 -1.45868,-0.56924 0.49809,0.24905 0.85386,0.39136 1.13848,0.56924 2.17023,1.28079 3.27313,1.92118 0.74713,0.42693 -0.24904,-0.21346 -0.35577,-0.28462 0.21346,0.17789 0.4625,0.39136 0.67597,0.56924 0.35577,0.3202 0.67597,0.67598 1.03175,0.99617 0.96059,0.88944 -0.42693,-0.88943 0.17788,0.21347 0.10674,0.21346 0.24905,0.46251 0.39136,0.67597 0.60481,0.96059 -0.0712,-0.35577 -0.0712,-0.21346 0,0.24904 0.53366,1.17405 0.35578,1.38752 -0.0712,0.0712 -0.0712,-1.52983 -0.10674,-0.6404 -0.0356,1.03175 0.49809,-1.28079 0.14231,-0.42693 -0.14231,0.28462 -0.21346,0.74713 -0.28462,1.06733 -0.21346,1.1029 0.71155,-1.17406 -0.0711,0.17789 -0.21347,0.32019 -0.39135,0.67597 -0.60482,0.99617 -0.7827,1.31636 0.56924,-0.46251 -0.10673,0.17788 -0.71155,0.67598 -1.45868,1.38753 -2.17023,2.09908 -0.56924,0.56924 0.35578,-0.24905 0.42693,-0.3202 -0.24904,0.17789 -0.46251,0.35577 -0.71155,0.53366 -0.42693,0.28462 -0.81828,0.56924 -1.28079,0.85386 -1.03175,0.6404 -2.06349,1.20964 -3.1664,1.77888 -0.56924,0.28462 -1.17405,0.56924 -1.77887,0.81828 -0.28462,0.14231 -0.56924,0.24904 -0.85386,0.35577 1.35194,-0.60481 0.14231,-0.0711 -0.10673,0.0356 -1.38753,0.53366 -2.73947,1.03175 -4.127,1.49426 -14.72908,4.90969 -29.35144,6.51068 -44.32957,7.79147 -19.1407,1.63657 -38.35255,2.02792 -57.52883,1.67214 -19.17627,-0.35577 -40.59393,-1.35194 -60.26829,-4.05583 -7.82705,-1.06733 -15.6541,-2.41927 -23.23211,-4.55392 -1.31637,-0.35578 -2.63274,-0.78271 -3.91353,-1.20964 -0.60482,-0.21346 -1.17406,-0.39135 -1.77887,-0.60482 -0.3202,-0.10673 -0.67598,-0.24904 -0.99617,-0.39135 -0.14231,-0.0711 -1.49426,-0.60482 -0.60482,-0.24904 0.81828,0.3202 -0.81828,-0.39135 -1.1029,-0.49809 -0.42693,-0.21346 -0.88944,-0.42693 -1.31637,-0.64039 -0.85386,-0.42693 -1.67214,-0.92502 -2.45485,-1.45868 -0.17789,-0.14231 -0.35577,-0.28462 -0.56924,-0.39135 -0.67597,-0.42693 0.6404,0.42693 0.56924,0.42693 -0.21346,0 -0.71155,-0.60482 -0.85386,-0.74713 -0.24904,-0.24904 -0.46251,-0.49808 -0.71155,-0.74713 -0.74713,-0.71155 0.67597,1.28079 0.10673,0.14231 -0.10673,-0.21346 -0.24904,-0.53366 -0.39135,-0.67597 -0.35577,-0.39135 0.56924,1.56541 0.21347,0.46251 -0.49809,-1.63657 -0.0712,1.38752 0,-0.21347 0.0356,-1.03174 -0.3202,1.70772 -0.0356,0.46251 0,-0.10673 0.24904,-0.60482 0.21346,-0.67597 0.39136,0.49808 -0.85386,1.49425 -0.14231,0.46251 0.0712,-0.0712 0.53367,-0.74713 0.53367,-0.78271 0.17788,0.6404 -1.06733,1.13848 -0.42693,0.56924 0.0711,-0.0711 0.14231,-0.17789 0.21346,-0.24904 0.21347,-0.21347 0.42693,-0.42693 0.6404,-0.6404 0.28462,-0.24904 0.60481,-0.49808 0.88943,-0.74712 0.49809,-0.46251 -0.39135,0.74712 -0.60481,0.4625 0,0 0.64039,-0.4625 0.67597,-0.49808 1.60099,-1.03175 3.20197,-1.92119 4.94527,-2.66831 -1.49425,0.67597 0.56924,-0.21347 0.92502,-0.3202 0.67597,-0.24904 1.35194,-0.49809 2.02792,-0.71155 1.49425,-0.49809 2.98851,-0.92502 4.51834,-1.35195 6.90203,-1.88561 13.98196,-3.1664 21.06188,-4.2693 10.88672,-1.70772 22.48499,-3.02409 34.43903,-4.02026 0.67597,-0.0712 1.31637,-0.10673 1.99234,-0.14231 2.88178,-0.21346 5.33662,-2.31253 5.33662,-5.33662 0,-2.73947 -2.45484,-5.55009 -5.33662,-5.33663 v 0 z"
           id="path48"
           style="fill:#1131d3;stroke-width:12.6576" />
        <path
           class="e"
           d="m 517.73606,-177.42052 c 0,3.34428 -2.70389,6.04817 -6.04817,6.04817 -3.34429,0 -6.04818,-2.70389 -6.04818,-6.04817 0,-3.34429 2.70389,-6.04818 6.04818,-6.04818 3.34428,0 6.04817,2.70389 6.04817,6.04818 z"
           id="path50"
           style="fill:none;stroke:#1131d3;stroke-width:4.80296px;stroke-linecap:round;stroke-linejoin:round" />
        <path
           class="e"
           d="m 219.7033,75.393233 c 0,3.344286 -2.70389,6.048176 -6.04818,6.048176 -3.34429,0 -6.04818,-2.70389 -6.04818,-6.048176 0,-3.344286 2.70389,-6.048176 6.04818,-6.048176 3.34429,0 6.04818,2.70389 6.04818,6.048176 z"
           id="path52"
           style="fill:none;stroke:#1131d3;stroke-width:4.80296px;stroke-linecap:round;stroke-linejoin:round" />
        <path
           class="b"
           d="m 190.49416,-79.333341 c 0,4.553921 -3.70006,8.253982 -8.25398,8.253982 -4.55392,0 -8.25398,-3.700061 -8.25398,-8.253982 0,-4.55392 3.70006,-8.253981 8.25398,-8.253981 4.55392,0 8.25398,3.700061 8.25398,8.253981"
           id="path54"
           style="fill:none;stroke:#1131d3;stroke-width:7.1155px;stroke-linecap:round;stroke-linejoin:round" />
        <path
           class="c"
           d="m 486.39228,39.602262 c 0,-5.301048 4.30488,-9.641504 9.6415,-9.641504 5.33663,0 9.64151,4.304878 9.64151,9.641504 0,5.336626 -4.30488,9.641504 -9.64151,9.641504 -5.33662,0 -9.6415,-4.304878 -9.6415,-9.641504"
           id="path56"
           style="fill:none;stroke:#1131d3;stroke-width:7.00877px;stroke-linecap:round;stroke-linejoin:round" />
        <path
           class="d"
           d="m 325.65311,-6.4706083 c 29.67164,1.8500304 69.73191,1.0317477 116.80095,-8.1116717"
           id="path58"
           style="fill:none;stroke:#1131d3;stroke-width:10.6733px;stroke-linecap:round;stroke-miterlimit:10" />
      </g>
    </g>
  </g>
</svg>
