<?xml version="1.0" encoding="UTF-8" standalone="no"?>
<!-- Created with Inkscape (http://www.inkscape.org/) -->

<svg
   width="100"
   height="100"
   viewBox="0 0 26.458333 26.458334"
   version="1.1"
   id="svg127350"
   inkscape:export-filename="C:\Users\Agathe\Desktop\commerces.png"
   inkscape:export-xdpi="200"
   inkscape:export-ydpi="200"
   inkscape:version="1.1 (c68e22c387, 2021-05-23)"
   sodipodi:docname="FONTAINE_TOTEM_2EN1_white.svg"
   xmlns:inkscape="http://www.inkscape.org/namespaces/inkscape"
   xmlns:sodipodi="http://sodipodi.sourceforge.net/DTD/sodipodi-0.dtd"
   xmlns="http://www.w3.org/2000/svg"
   xmlns:svg="http://www.w3.org/2000/svg">
  <sodipodi:namedview
     id="namedview127352"
     pagecolor="#ffffff"
     bordercolor="#666666"
     borderopacity="1.0"
     inkscape:pageshadow="2"
     inkscape:pageopacity="0"
     inkscape:pagecheckerboard="0"
     inkscape:document-units="mm"
     showgrid="false"
     units="px"
     inkscape:zoom="5.9722783"
     inkscape:cx="54.250653"
     inkscape:cy="71.748164"
     inkscape:window-width="2400"
     inkscape:window-height="1271"
     inkscape:window-x="2391"
     inkscape:window-y="-9"
     inkscape:window-maximized="1"
     inkscape:current-layer="g995" />
  <defs
     id="defs127347" />
  <g
     inkscape:label="Calque 1"
     inkscape:groupmode="layer"
     id="layer1">
    <g
       id="g995"
       transform="matrix(0.07436815,0,0,0.07436815,2.9852775,1.3136754)"
       style="stroke-width:3.55774">
      <path
         style="color:#000000;fill:#ffffff;stroke-linecap:round;stroke-miterlimit:10;-inkscape-stroke:none"
         d="m 131.47461,43.451172 c -10.46578,0 -18.98828,8.513042 -18.98828,18.988281 v 51.537107 c 0,1.10661 0.49635,2.13369 1.22265,2.84375 0.72631,0.71007 1.63773,1.16955 2.63868,1.51563 2.00188,0.69215 4.43373,0.93397 6.8457,1.00586 4.82394,0.14378 9.57226,-0.47071 9.57226,-0.47071 a 1.39414,1.39414 0 0 0 1.20704,-1.55859 1.39414,1.39414 0 0 0 -1.56055,-1.20703 c 0,0 -4.60604,0.58426 -9.13672,0.44922 -2.26534,-0.0675 -4.51148,-0.33278 -6.01758,-0.85352 -0.75305,-0.26037 -1.30275,-0.58477 -1.59961,-0.875 -0.29686,-0.29022 -0.38476,-0.47843 -0.38476,-0.84961 V 62.439453 c 0,-8.968254 7.24204,-16.199219 16.20117,-16.199219 h 17.41601 c 8.96825,0 17.46485,7.361047 17.46485,16.199219 v 51.703127 c 0,0.17906 -0.0158,0.25863 -0.33789,0.51758 -0.32213,0.25894 -0.95135,0.56727 -1.78321,0.8125 -1.66371,0.49044 -4.08968,0.7593 -6.52734,0.85742 -4.87531,0.19624 -9.81055,-0.23047 -9.81055,-0.23047 a 1.39414,1.39414 0 0 0 -1.50976,1.26758 1.39414,1.39414 0 0 0 1.26758,1.50976 c 0,0 5.05274,0.44402 10.16406,0.23828 2.55566,-0.10286 5.12185,-0.35326 7.20312,-0.96679 1.04064,-0.30677 1.97203,-0.69731 2.74219,-1.31641 0.77016,-0.6191 1.37891,-1.59753 1.37891,-2.68945 V 62.439453 c 0,-10.586737 -9.77672,-18.988281 -20.25196,-18.988281 z"
         id="path1384" />
      <path
         style="color:#000000;fill:#ffffff;stroke-width:3.30666;stroke-linecap:round;stroke-miterlimit:10;-inkscape-stroke:none"
         d="m 132.738,43.450696 c -10.46577,0 -20.25305,8.391729 -20.25305,18.987807 a 1.3941333,1.3941333 0 0 0 1.39413,1.394131 1.3941333,1.3941333 0 0 0 1.39414,-1.394131 c 0,-8.847416 8.50565,-16.199538 17.46478,-16.199538 h 17.41759 c 8.96826,0 16.19953,7.240406 16.19953,16.199538 v 51.704557 c 0,0.20795 -0.0269,0.29499 -0.31766,0.54458 -0.29084,0.24959 -0.86273,0.55177 -1.63013,0.79327 -1.53479,0.48302 -3.79641,0.75177 -6.0721,0.84955 -4.55139,0.19558 -9.16715,-0.23053 -9.16715,-0.23053 a 1.3941333,1.3941333 0 0 0 -1.51576,1.2598 1.3941333,1.3941333 0 0 0 1.25799,1.51757 c 0,0 4.74149,0.4442 9.54472,0.2378 2.40163,-0.1032 4.81596,-0.35383 6.78915,-0.9748 0.9866,-0.31048 1.87623,-0.70759 2.60855,-1.33605 0.73233,-0.62846 1.29066,-1.59816 1.29066,-2.66119 V 62.438503 c 0,-10.465774 -8.51257,-18.987807 -18.9878,-18.987807 z"
         id="path1386" />
      <path
         style="color:#000000;fill:#ffffff;stroke-width:3.30666;-inkscape-stroke:none"
         d="m 131.01828,155.04685 c -2.53732,0.18589 -5.07465,0.46471 -7.59338,0.8086 -2.12838,0.28812 -4.25675,0.61342 -6.35725,1.06884 -1.66366,0.36247 -3.36451,0.79001 -4.89805,1.56142 -1.88673,0.94802 -3.45745,2.94627 -2.30497,5.07465 0.54836,1.01307 1.57072,1.73802 2.5652,2.26779 1.54285,0.81789 3.23439,1.33837 4.92594,1.74732 5.28841,1.2826 10.82777,1.63578 16.2556,1.80307 5.42782,0.1673 10.75341,0.0465 16.10688,-0.39965 4.58205,-0.39036 9.23846,-0.94801 13.65321,-2.2492 2.64886,-0.78071 6.2829,-1.99826 7.34244,-4.86088 0.52047,-1.40343 -0.158,-2.8998 -1.27331,-3.80133 -1.27331,-1.04096 -2.8905,-1.57073 -4.47981,-1.9425 -2.85333,-0.65989 -5.83678,-0.88295 -8.76446,-0.92013 -0.17658,0 -0.36247,0 -0.53906,0 -1.79378,0.0186 -1.79378,2.80686 0,2.78827 2.03543,-0.0186 4.08016,0.13942 6.1063,0.37177 0.37177,0.0465 -0.30671,-0.0465 0.0651,0 0.0744,0.009 0.14871,0.0186 0.22306,0.0279 0.22307,0.0279 0.43683,0.0651 0.65989,0.10224 0.39965,0.0651 0.79931,0.13941 1.19896,0.23236 0.75283,0.158 1.49637,0.36247 2.22132,0.62271 0.10224,0.0372 0.57624,0.24165 0.20447,0.0744 0.13941,0.0651 0.27883,0.12083 0.41824,0.19518 0.28812,0.13941 0.53907,0.31601 0.81789,0.47401 0.24165,0.13941 -0.22306,-0.22307 -0.0279,-0.0279 0.0465,0.0465 0.10224,0.0837 0.14871,0.13012 0.10223,0.0929 0.18588,0.20448 0.28812,0.28812 0.14871,0.13012 -0.0651,-0.0836 -0.0837,-0.11153 0.0372,0.0558 0.0837,0.11153 0.12083,0.17659 0.0279,0.0465 0.0558,0.10224 0.0836,0.14871 0.158,0.24165 -0.0558,-0.27882 -0.0186,-0.0558 0,0.0465 0.12083,0.28812 0.0837,0.32529 -0.0372,0.0558 0.0279,-0.41824 -0.0186,-0.0929 0.0743,-0.49259 0.0558,-0.25094 0.0279,-0.158 -0.0279,0.0929 -0.0743,0.21377 -0.0836,0.30671 -0.0186,0.18588 -0.14871,-0.21377 0.0744,-0.1673 0,0 -0.0929,0.19518 -0.10224,0.21377 -0.0465,0.0929 -0.11153,0.17659 -0.158,0.26024 -0.17659,0.28812 0.22306,-0.23236 -0.0186,0.0279 -0.18588,0.20447 -0.37177,0.39036 -0.57624,0.56695 -0.30671,0.27883 0.19518,-0.12083 -0.11153,0.0929 -0.11153,0.0744 -0.22306,0.158 -0.33459,0.23235 -0.26953,0.1766 -0.54836,0.3346 -0.83648,0.4833 -0.31601,0.1673 -0.6413,0.30671 -0.9666,0.45542 -0.0651,0.0279 -0.24165,0.10224 0.0465,-0.0186 -0.0929,0.0372 -0.19518,0.0836 -0.28812,0.12082 -0.20447,0.0837 -0.40895,0.158 -0.61342,0.23236 -1.71014,0.61342 -3.48533,1.05024 -5.26053,1.41272 -1.05954,0.21377 -2.12838,0.39965 -3.19721,0.55765 -1.06884,0.158 -2.05403,0.28812 -3.26227,0.41824 -4.991,0.54836 -10.02847,0.76213 -15.05664,0.73424 -5.02818,-0.0279 -10.456,-0.23235 -15.57712,-1.04095 -2.05402,-0.3253 -4.10804,-0.73424 -6.07842,-1.40342 -0.33459,-0.11154 -0.66918,-0.24165 -0.99448,-0.37177 -0.0651,-0.0279 -0.38107,-0.1673 -0.0279,-0.009 -0.0558,-0.0279 -0.11153,-0.0465 -0.17659,-0.0744 -0.1766,-0.0836 -0.35319,-0.158 -0.52977,-0.25094 -0.25095,-0.13012 -0.50189,-0.26024 -0.73425,-0.40895 -0.10224,-0.0651 -0.20447,-0.13012 -0.29741,-0.19518 -0.0558,-0.0372 -0.11153,-0.0929 -0.1673,-0.12082 0.30671,0.1673 0.18588,0.14871 0.0743,0.0558 -0.158,-0.14871 -0.316,-0.28812 -0.46471,-0.44613 -0.24165,-0.23235 0.0651,0.13012 0.0186,0.0372 -0.0372,-0.0837 -0.10223,-0.1673 -0.158,-0.24165 -0.17659,-0.27883 0.11153,0 0.0279,0.0929 0,0 -0.0558,-0.17659 -0.0651,-0.20447 -0.065,-0.30671 0.0372,0.0186 0,0.11153 0.0186,-0.0558 0,-0.19518 0,-0.26024 -0.0279,-0.26024 -0.12082,0.38106 -0.0186,0.13942 0.0186,-0.0558 0.0465,-0.13942 0.0558,-0.19518 0.0465,-0.26024 -0.19518,0.32529 -0.0465,0.10223 0.0465,-0.0651 0.0929,-0.14871 0.13012,-0.22306 0.158,-0.30671 -0.20447,0.19518 -0.0372,0.0465 0.0651,-0.0558 0.12083,-0.13012 0.17659,-0.19518 0.0558,-0.0651 0.12083,-0.11153 0.18588,-0.17659 0.0279,-0.0279 0.0651,-0.0558 0.10224,-0.0836 0.20447,-0.18589 -0.28812,0.17658 -0.0836,0.0651 0.44613,-0.25094 0.85507,-0.52976 1.32908,-0.73424 -0.38107,0.1673 0.10223,-0.0372 0.19518,-0.0744 0.158,-0.0558 0.316,-0.11153 0.4833,-0.1673 0.38106,-0.13012 0.77142,-0.24165 1.17107,-0.35318 1.84025,-0.51118 3.72698,-0.85507 5.61371,-1.15248 2.85332,-0.45542 5.87395,-0.79001 8.99681,-1.05025 0.17659,-0.0186 0.34388,-0.0279 0.52047,-0.0372 0.75283,-0.0558 1.39413,-0.60412 1.39413,-1.39413 0,-0.71565 -0.6413,-1.4499 -1.39413,-1.39413 v 0 z"
         id="path1388" />
      <path
         style="color:#000000;fill:#ffffff;stroke-width:3.30666;-inkscape-stroke:none"
         d="m 130.73945,239.97745 c 4.85159,0.39965 9.74964,0.39036 14.61052,0 4.03369,-0.3253 8.29044,-0.79001 12.07319,-2.31426 1.31049,-0.52977 2.67674,-1.18037 3.58757,-2.30496 0.91083,-1.12461 1.23613,-2.64886 0.53907,-3.99652 -0.63201,-1.20825 -1.90532,-1.88673 -3.12286,-2.35144 -1.42202,-0.54836 -2.96486,-0.78071 -4.47052,-0.9666 -2.23062,-0.26953 -4.49841,-0.36247 -6.74761,-0.26953 -0.75283,0.0279 -1.39413,0.62271 -1.39413,1.39413 0,0.73425 0.6413,1.42202 1.39413,1.39413 1.71014,-0.0744 3.43886,-0.0186 5.149,0.11154 0.33459,0.0279 0.66919,0.0558 1.00378,0.0929 0.158,0.0186 0.32529,0.0372 0.4833,0.0558 0.0929,0.009 0.17659,0.0186 0.26953,0.0372 0.10224,0.009 0.0744,0 -0.10224,-0.0186 0.0744,0.009 0.13942,0.0186 0.21377,0.0279 0.67848,0.10223 1.35695,0.22306 2.01685,0.39036 0.3067,0.0744 0.60412,0.158 0.90153,0.25094 0.13942,0.0465 0.26954,0.0929 0.39966,0.13941 0.0743,0.0279 0.13941,0.0558 0.21376,0.0836 0.29742,0.10224 -0.27882,-0.13941 0,0 0.24165,0.12083 0.4833,0.23236 0.70636,0.37177 0.10224,0.0651 0.19518,0.13012 0.29742,0.19518 0.23236,0.14871 -0.22306,-0.23236 -0.0465,-0.0372 0.0465,0.0558 0.11153,0.0929 0.158,0.14871 0.0465,0.0558 0.29742,0.316 0.12083,0.12082 -0.17659,-0.19517 0.0372,0.0744 0.0836,0.13012 0.0186,0.0279 0.0465,0.12083 0.0744,0.14871 0.0836,0.0558 -0.0744,-0.33459 -0.0558,-0.12083 0,0.093 0.0558,0.46472 0.0651,0.20448 0,-0.27883 -0.009,0.0836 -0.009,0.158 0.009,0.35318 0.0929,-0.26953 0,0.0279 -0.0186,0.0465 -0.0558,0.28812 -0.0929,0.29742 -0.0372,0.009 0.20447,-0.33459 0.0651,-0.158 -0.0372,0.0465 -0.0651,0.12082 -0.093,0.17659 -0.0743,0.12082 -0.32529,0.36247 -0.0186,0.0558 -0.0836,0.0837 -0.158,0.18589 -0.24164,0.26954 -0.0744,0.0743 -0.14871,0.13941 -0.22307,0.21376 -0.0651,0.0558 -0.12082,0.10224 -0.18588,0.158 0.13941,-0.12082 0.18588,-0.13941 0.009,-0.0186 -0.52048,0.35319 -1.07813,0.64131 -1.65437,0.90154 -0.20448,0.0929 0.316,-0.12082 -0.0186,0 -0.0651,0.0279 -0.13941,0.0558 -0.20447,0.0837 -0.17659,0.0744 -0.36248,0.13942 -0.53907,0.20447 -0.39036,0.13942 -0.78071,0.26024 -1.17107,0.37177 -0.87366,0.25095 -1.7659,0.46472 -2.65815,0.6506 -2.06331,0.41824 -3.82922,0.65059 -5.90183,0.83648 -5.13041,0.47401 -10.31659,0.49259 -15.45629,0.0743 -0.75283,-0.0651 -1.39413,0.68778 -1.39413,1.39414 0,0.80859 0.6413,1.32907 1.39413,1.39413 v 0 z"
         id="path1390" />
      <path
         style="color:#000000;fill:#ffffff;stroke-width:3.30666;-inkscape-stroke:none"
         d="m 132.93289,228.28532 c -1.85885,0.14871 -3.71769,0.38106 -5.56724,0.6506 -2.66744,0.39035 -5.60442,0.77142 -8.02091,2.04473 -0.93872,0.49259 -1.86814,1.31048 -2.15626,2.37002 -0.35318,1.32908 0.3067,2.56521 1.31977,3.3831 0.58554,0.474 1.40343,0.57624 1.97038,0 0.49259,-0.49259 0.58554,-1.49637 0,-1.97038 -0.17659,-0.1487 -0.37177,-0.28812 -0.51118,-0.474 -0.0186,-0.0279 -0.13941,-0.27883 -0.0837,-0.13941 -0.0186,-0.0558 -0.0372,-0.26024 -0.009,-0.0372 0.0186,0.14871 -0.0186,0.0279 -0.009,0.0372 l 0.0186,-0.0651 c -0.0558,0.0929 -0.0558,0.10223 0,0.009 0.0186,-0.0372 0.13012,-0.20448 0.10224,-0.1673 0.13012,-0.158 0.42753,-0.35318 0.65989,-0.4833 0.0929,-0.0465 0.17659,-0.0929 0.26953,-0.13941 0.12082,-0.0558 0.39036,-0.1673 0.10224,-0.0558 1.08742,-0.43683 2.23061,-0.72495 3.3645,-0.97589 1.27331,-0.27883 2.56521,-0.4926 3.85711,-0.67848 0.1487,-0.0186 0.29741,-0.0465 0.44612,-0.0651 0.0837,-0.009 0.1673,-0.0279 0.25094,-0.0372 -0.0186,0 -0.22306,0.0279 -0.0558,0 0.29741,-0.0372 0.59483,-0.0743 0.89224,-0.11153 0.51118,-0.0651 1.03166,-0.12082 1.54284,-0.17659 0.51119,-0.0558 1.07813,-0.11153 1.6172,-0.158 0.75283,-0.0651 1.39413,-0.59483 1.39413,-1.39413 0,-0.70636 -0.6413,-1.4592 -1.39413,-1.39414 v 0 z"
         id="path1392" />
      <path
         style="color:#000000;fill:#ffffff;stroke-width:3.30666;-inkscape-stroke:none"
         d="m 134.54079,229.14039 v -47.73512 c 0,-2.20273 0.0744,-4.42405 0,-6.62678 0,-0.0279 0,-0.0651 0,-0.0929 0,-1.79379 -2.78827,-1.79379 -2.78827,0 v 47.73512 c 0,2.20273 -0.0744,4.42405 0,6.62678 0,0.0279 0,0.0651 0,0.0929 0,1.79378 2.78827,1.79378 2.78827,0 z"
         id="path1394" />
      <path
         style="color:#000000;fill:#ffffff;stroke-width:3.30666;-inkscape-stroke:none"
         d="m 148.60295,229.14039 v -47.88383 c 0,-2.20273 0.0744,-4.42405 0,-6.62678 0,-0.0279 0,-0.0651 0,-0.0929 0,-1.79379 -2.78827,-1.79379 -2.78827,0 v 47.88383 c 0,2.20273 -0.0744,4.42405 0,6.62678 0,0.0279 0,0.0651 0,0.0929 0,1.79378 2.78827,1.79378 2.78827,0 z"
         id="path1396" />
      <path
         style="color:#000000;fill:#ffffff;stroke-width:3.30666;-inkscape-stroke:none"
         d="m 130.73945,239.97745 c 4.85159,0.39965 9.74964,0.39036 14.61052,0 4.03369,-0.3253 8.29044,-0.79001 12.07319,-2.31426 1.31049,-0.52977 2.67674,-1.18037 3.58757,-2.30496 0.91083,-1.12461 1.23613,-2.64886 0.53907,-3.99652 -0.63201,-1.20825 -1.90532,-1.88673 -3.12286,-2.35144 -1.42202,-0.54836 -2.96486,-0.78071 -4.47052,-0.9666 -2.23062,-0.26953 -4.49841,-0.36247 -6.74761,-0.26953 -0.75283,0.0279 -1.39413,0.62271 -1.39413,1.39413 0,0.73425 0.6413,1.42202 1.39413,1.39413 1.71014,-0.0744 3.43886,-0.0186 5.149,0.11154 0.33459,0.0279 0.66919,0.0558 1.00378,0.0929 0.158,0.0186 0.32529,0.0372 0.4833,0.0558 0.0929,0.009 0.17659,0.0186 0.26953,0.0372 0.10224,0.009 0.0744,0 -0.10224,-0.0186 0.0744,0.009 0.13942,0.0186 0.21377,0.0279 0.67848,0.10223 1.35695,0.22306 2.01685,0.39036 0.3067,0.0744 0.60412,0.158 0.90153,0.25094 0.13942,0.0465 0.26954,0.0929 0.39966,0.13941 0.0743,0.0279 0.13941,0.0558 0.21376,0.0836 0.29742,0.10224 -0.27882,-0.13941 0,0 0.24165,0.12083 0.4833,0.23236 0.70636,0.37177 0.10224,0.0651 0.19518,0.13012 0.29742,0.19518 0.23236,0.14871 -0.22306,-0.23236 -0.0465,-0.0372 0.0465,0.0558 0.11153,0.0929 0.158,0.14871 0.0465,0.0558 0.29742,0.316 0.12083,0.12082 -0.17659,-0.19517 0.0372,0.0744 0.0836,0.13012 0.0186,0.0279 0.0465,0.12083 0.0744,0.14871 0.0836,0.0558 -0.0744,-0.33459 -0.0558,-0.12083 0,0.093 0.0558,0.46472 0.0651,0.20448 0,-0.27883 -0.009,0.0836 -0.009,0.158 0.009,0.35318 0.0929,-0.26953 0,0.0279 -0.0186,0.0465 -0.0558,0.28812 -0.0929,0.29742 -0.0372,0.009 0.20447,-0.33459 0.0651,-0.158 -0.0372,0.0465 -0.0651,0.12082 -0.093,0.17659 -0.0743,0.12082 -0.32529,0.36247 -0.0186,0.0558 -0.0836,0.0837 -0.158,0.18589 -0.24164,0.26954 -0.0744,0.0743 -0.14871,0.13941 -0.22307,0.21376 -0.0651,0.0558 -0.12082,0.10224 -0.18588,0.158 0.13941,-0.12082 0.18588,-0.13941 0.009,-0.0186 -0.52048,0.35319 -1.07813,0.64131 -1.65437,0.90154 -0.20448,0.0929 0.316,-0.12082 -0.0186,0 -0.0651,0.0279 -0.13941,0.0558 -0.20447,0.0837 -0.17659,0.0744 -0.36248,0.13942 -0.53907,0.20447 -0.39036,0.13942 -0.78071,0.26024 -1.17107,0.37177 -0.87366,0.25095 -1.7659,0.46472 -2.65815,0.6506 -2.06331,0.41824 -3.82922,0.65059 -5.90183,0.83648 -5.13041,0.47401 -10.31659,0.49259 -15.45629,0.0743 -0.75283,-0.0651 -1.39413,0.68778 -1.39413,1.39414 0,0.80859 0.6413,1.32907 1.39413,1.39413 v 0 z"
         id="path1398" />
      <path
         style="color:#000000;fill:#ffffff;stroke-width:3.30666;-inkscape-stroke:none"
         d="m 120.47863,234.76339 c -0.26024,-0.20447 -0.51118,-0.41824 -0.63201,-0.66918 0.0744,0.14871 0,-0.21377 0.0186,0.0279 0.0186,0.15801 -0.0186,0.0279 -0.009,0.0372 0.0279,-0.0743 0.0186,-0.0837 0,-0.0279 -0.0279,0.0558 -0.0279,0.0465 0.0186,-0.0279 0.1673,-0.33459 0.6506,-0.59483 1.07813,-0.80859 0.25095,-0.12083 -0.0744,0.0186 0.0186,0 0.0929,-0.0372 0.18588,-0.0744 0.27882,-0.10224 0.22307,-0.0743 0.43683,-0.14871 0.66919,-0.21377 0.50188,-0.13941 1.00377,-0.25094 1.51496,-0.35318 0.53906,-0.10223 1.06883,-0.18588 1.6079,-0.26024 0.16729,-0.0279 -0.009,0 -0.0372,0 0.0651,0 0.13012,-0.0186 0.20447,-0.0279 0.13012,-0.0186 0.26953,-0.0372 0.39965,-0.0465 0.31601,-0.0372 0.63201,-0.0744 0.93872,-0.10223 1.07813,-0.10224 2.15626,-0.1766 3.23439,-0.23236 0.78071,-0.0372 1.56143,-0.0651 2.33285,-0.0836 0.22306,0 0.43683,0 0.65989,-0.009 0.35318,-0.0186 -0.11153,0.009 -0.18589,-0.0465 0.29742,0.22306 0.91084,0.28812 1.26402,0.38106 1.04095,0.26024 2.10979,0.41824 3.17862,0.52048 3.73628,0.35318 7.45397,-0.35318 10.88354,-1.82167 0.69706,-0.29741 0.84577,-1.31978 0.50188,-1.90531 -0.41824,-0.71566 -1.20825,-0.79931 -1.90531,-0.50189 -2.98345,1.27331 -6.25501,1.74731 -9.48011,1.4406 -0.158,-0.0186 -0.3253,-0.0372 -0.4833,-0.0465 -0.27882,-0.0279 0.11153,0.0186 -0.14871,-0.0186 -0.26023,-0.0372 -0.54835,-0.0837 -0.82718,-0.13941 -0.42753,-0.0837 -0.84578,-0.17659 -1.26402,-0.28812 -0.44612,-0.12083 -0.91083,-0.34389 -1.37554,-0.36248 -1.27331,-0.0651 -2.59309,0.0558 -3.8664,0.13012 -2.39791,0.13942 -4.8237,0.35318 -7.16584,0.89225 -1.19896,0.27882 -2.4072,0.66918 -3.39239,1.4406 -0.7993,0.62272 -1.38484,1.47778 -1.42202,2.51874 -0.0372,1.04095 0.62272,2.03543 1.43131,2.68603 0.58554,0.474 1.40343,0.57624 1.97038,0 0.49259,-0.4926 0.58553,-1.49637 0,-1.97038 v 0 z"
         id="path1400" />
      <path
         style="color:#000000;fill:#ffffff;stroke-width:3.30666;-inkscape-stroke:none"
         d="m 134.54079,230.46017 v -47.73512 c 0,-2.20273 0.0744,-4.42405 0,-6.62678 0,-0.0279 0,-0.0651 0,-0.093 0,-1.79378 -2.78827,-1.79378 -2.78827,0 v 47.73513 c 0,2.20273 -0.0744,4.42405 0,6.62678 0,0.0279 0,0.0651 0,0.0929 0,1.79378 2.78827,1.79378 2.78827,0 z"
         id="path1402" />
      <path
         style="color:#000000;fill:#ffffff;stroke-width:3.30666;-inkscape-stroke:none"
         d="m 145.81468,135.89146 v 24.73193 c 0,1.79378 2.78827,1.79378 2.78827,0 v -24.73193 c 0,-1.79378 -2.78827,-1.79378 -2.78827,0 z"
         id="path1404" />
      <path
         style="color:#000000;fill:#ffffff;stroke-width:3.30666;-inkscape-stroke:none"
         d="m 145.81468,117.4982 v 11.76648 c 0,1.79379 2.78827,1.79379 2.78827,0 V 117.4982 c 0,-1.79379 -2.78827,-1.79379 -2.78827,0 z"
         id="path1406" />
      <path
         style="color:#000000;fill:#ffffff;stroke-width:3.30666;-inkscape-stroke:none"
         d="M 134.54079,129.31115 V 117.4982 c 0,-1.79379 -2.78827,-1.79379 -2.78827,0 v 11.81295 c 0,1.79379 2.78827,1.79379 2.78827,0 z"
         id="path1408" />
      <path
         style="color:#000000;fill:#ffffff;stroke-width:3.30666;-inkscape-stroke:none"
         d="m 134.54079,160.63268 v -25.01075 c 0,-1.79378 -2.78827,-1.79378 -2.78827,0 v 25.01075 c 0,1.79379 2.78827,1.79379 2.78827,0 z"
         id="path1410" />
      <path
         style="color:#000000;fill:#ffffff;stroke-width:3.30666;-inkscape-stroke:none"
         d="m 147.15305,131.21647 c 0.26024,0.10223 0.51118,0.20447 0.77142,0.30671 -0.43683,-0.17659 0,0 0.11153,0.0465 0.158,0.0651 0.316,0.13941 0.474,0.20447 0.34389,0.158 0.67848,0.31601 1.02237,0.47401 0.75283,0.36247 1.48707,0.75283 2.20273,1.18966 0.34388,0.21377 0.67848,0.43683 1.00377,0.66918 0.0651,0.0465 0.26024,0.21377 0.0186,0.009 0.0651,0.0558 0.13012,0.11153 0.20447,0.1673 0.13942,0.12083 0.26953,0.24165 0.39036,0.36247 0.0651,0.0651 0.12082,0.13942 0.18588,0.20448 0.21377,0.20447 -0.13011,-0.20448 -0.0372,-0.0465 0.0558,0.0929 0.12082,0.26024 0.19518,0.33459 0.12082,0.12082 -0.13942,-0.33459 -0.0558,-0.10224 0.0372,0.10224 -0.009,0.21377 0.009,0 0.0372,-0.34388 -0.0279,0.20447 -0.0279,0.21377 -0.0465,0.0279 0.12083,-0.40895 0,-0.12083 -0.0186,0.0465 -0.0372,0.10224 -0.0465,0.14871 -0.0372,0.26024 0.1673,-0.316 -0.0186,0 -0.18589,0.31601 0.16729,-0.20447 0,0.0186 -0.0279,0.0372 -0.0837,0.0744 -0.11153,0.11153 -0.12083,0.17659 0.26953,-0.13941 0.0743,-0.0558 -0.0929,0.0372 -0.26024,0.13012 -0.34389,0.19517 -0.12082,0.10224 0.3346,-0.0929 0.0837,-0.0372 -0.0651,0.009 -0.13012,0.0465 -0.19518,0.0558 -0.13012,0.0372 -0.29741,0.0372 -0.41824,0.093 -0.16729,0.065 0.34389,0 0.0465,0 -0.12082,0 -0.23235,0.0186 -0.35318,0.0186 -0.18588,0 -0.36247,0 -0.54836,-0.009 -0.10223,0 -0.19517,-0.009 -0.28812,-0.0186 0,0 -0.39035,-0.0465 -0.18588,-0.0186 0.20447,0.0279 -0.21377,-0.0372 -0.20447,-0.0372 -0.11153,-0.0186 -0.22307,-0.0372 -0.3346,-0.0651 -0.28812,-0.0558 -0.57624,-0.13012 -0.86436,-0.20447 -1.97967,-0.52978 -3.80133,-1.44061 -5.6323,-2.33285 -0.67847,-0.3346 -1.50566,-0.18589 -1.90531,0.50188 -0.36247,0.61342 -0.17659,1.57073 0.50189,1.90532 1.95178,0.9573 3.89428,1.9239 5.98548,2.52803 1.83096,0.52977 4.11734,0.93871 5.88324,-0.0465 1.4499,-0.8086 2.10979,-2.68604 1.32907,-4.1917 -0.78071,-1.50566 -2.70462,-2.58379 -4.21028,-3.38309 -1.2826,-0.67848 -2.62097,-1.28261 -3.98722,-1.80308 -0.70636,-0.26954 -1.53355,0.29741 -1.71943,0.97589 -0.21377,0.79001 0.26953,1.4406 0.97589,1.71943 v 0 z"
         id="path1412" />
      <path
         style="color:#000000;fill:#ffffff;stroke-width:3.30666;-inkscape-stroke:none"
         d="m 152.42287,138.99573 c 0,0.38107 -0.009,0.76213 -0.009,1.15249 0,0.28812 0,0.57624 0,0.86436 0,0.20447 0.0279,0.41824 0.009,0.61342 l 0.0465,-0.37177 c 0,0 0,0.0372 -0.009,0.0465 l 0.13941,-0.33459 c 0,0 -0.0279,0.0465 -0.0372,0.0651 l 0.21377,-0.27883 c 0,0 -0.0651,0.0651 -0.10224,0.0929 l 0.27883,-0.21376 c -0.093,0.0651 -0.19518,0.12082 -0.29742,0.16729 l 0.33459,-0.13941 c -0.33459,0.13941 -0.68777,0.20447 -1.05024,0.26024 l 0.37176,-0.0465 c -0.54835,0.0744 -1.10601,0.0744 -1.66366,0 l 0.37177,0.0465 c -0.20448,-0.0279 -0.39965,-0.0651 -0.59483,-0.12083 l 1.02236,1.34766 v -3.42027 c 0,-0.72495 -0.6413,-1.43131 -1.39413,-1.39413 -0.75283,0.0372 -1.39413,0.61342 -1.39413,1.39413 v 3.42027 c 0,0.61342 0.43682,1.18037 1.02236,1.34767 0.73424,0.20447 1.52425,0.26024 2.27709,0.20447 0.75283,-0.0558 1.49637,-0.19518 2.19343,-0.52977 0.33459,-0.158 0.6413,-0.42754 0.82719,-0.75283 0.18588,-0.3253 0.22306,-0.65989 0.21376,-1.02237 -0.009,-0.45542 0,-0.92013 0,-1.37554 0,-0.34389 0,-0.67848 0.009,-1.02237 0.009,-0.72495 -0.65059,-1.43131 -1.39413,-1.39413 -0.74354,0.0372 -1.38484,0.61342 -1.39413,1.39413 v 0 z"
         id="path1414" />
      <path
         style="color:#000000;fill:#ffffff;stroke-width:3.30666;-inkscape-stroke:none"
         d="m 147.73858,131.21647 c 0.30671,0.11153 0.61342,0.24165 0.92013,0.36247 0.0929,0.0372 0.52977,0.22306 0.14871,0.0558 0.14871,0.0651 0.29741,0.13012 0.45542,0.19518 0.40894,0.17659 0.81789,0.36247 1.21754,0.55765 0.7993,0.38107 1.58931,0.7993 2.35144,1.27331 0.16729,0.10224 0.32529,0.20447 0.49259,0.316 0.0929,0.0651 0.60413,0.45542 0.33459,0.24165 0.26954,0.23236 0.51118,0.47401 0.76213,0.72495 -0.27883,-0.28812 -0.009,0 0.0558,0.11153 0.0651,0.11153 0.10224,0.31601 -0.0186,-0.0744 0.0186,0.0651 0.0465,0.13012 0.0558,0.19518 -0.0744,-0.4926 -0.0465,-0.11153 -0.0372,0.0279 0.009,0.24165 0.11153,-0.3253 0.009,-0.11153 -0.0186,0.0465 -0.0372,0.13941 -0.0465,0.18588 -0.0558,0.30671 0,-0.1487 0.0465,-0.0929 0,0.009 -0.0837,0.158 -0.093,0.1673 -0.18588,0.26953 0.24165,-0.20447 -0.0186,0.0279 -0.0465,0.0372 -0.11153,0.0929 -0.14871,0.13941 -0.0743,0.10224 -0.17659,0 0.12083,-0.0836 -0.10224,0.0279 -0.33459,0.17659 -0.41824,0.24164 -0.12083,0.10224 0.33459,-0.0929 0.0743,-0.0372 -0.0836,0.0186 -0.158,0.0558 -0.24165,0.0743 -0.14871,0.0372 -0.29742,0.0651 -0.44612,0.0929 0.40894,-0.0743 -0.12083,0 -0.23236,0 -0.26953,0.009 -0.53906,0 -0.7993,-0.0186 -0.0837,0 -0.1673,-0.0186 -0.25094,-0.0186 -0.41825,-0.0279 0.27882,0.0558 -0.15801,-0.0186 -0.23235,-0.0372 -0.474,-0.0837 -0.70636,-0.13012 -0.65059,-0.13941 -1.29189,-0.33459 -1.91461,-0.55765 -1.79378,-0.62271 -3.52251,-1.47778 -5.28841,-2.21203 -0.69707,-0.28812 -1.53355,0.31601 -1.71943,0.9759 -0.22306,0.7993 0.27883,1.42201 0.97589,1.71943 l 1.95179,0.8086 c 0.13012,0.0558 0.26024,0.10223 0.39036,0.16729 0.0279,0.009 0.0558,0.0186 0.0836,0.0372 -0.37176,-0.17659 0.27883,0.14871 0.28812,0.14871 0.8086,0.37177 1.64508,0.72494 2.48156,1.02236 2.1005,0.74354 4.675,1.35696 6.80337,0.39965 1.4499,-0.65059 2.44438,-2.37932 1.89602,-3.95934 -0.632,-1.82166 -2.76967,-2.93697 -4.36828,-3.76416 -1.37555,-0.71565 -2.80685,-1.34766 -4.26605,-1.88672 -0.70636,-0.26024 -1.52425,0.28812 -1.71943,0.97589 -0.21377,0.78071 0.26953,1.4499 0.97589,1.71943 z"
         id="path1416" />
      <path
         style="color:#000000;fill:#ffffff;stroke-width:3.30666;-inkscape-stroke:none"
         d="m 134.1969,133.31696 c -1.86814,0.17659 -3.74557,0.37177 -5.623,0.27883 -0.25095,-0.009 -0.50189,-0.0279 -0.75284,-0.0558 -0.13941,-0.009 -0.27882,-0.0279 -0.42753,-0.0465 0.28812,0.0372 -0.13941,-0.0186 -0.158,-0.0279 -0.46471,-0.0743 -0.92942,-0.17659 -1.37555,-0.316 -0.158,-0.0558 -0.316,-0.11153 -0.474,-0.1673 0.38106,0.13941 -0.14871,-0.0744 -0.24165,-0.13012 -0.12083,-0.0651 -0.23236,-0.14871 -0.34389,-0.21376 -0.24165,-0.13013 0.22306,0.22306 0.0465,0.0372 -0.0558,-0.0558 -0.12082,-0.11153 -0.18588,-0.1673 -0.0372,-0.0372 -0.0743,-0.0929 -0.11153,-0.12082 -0.18589,-0.14871 0.14871,0.28812 0.0558,0.0744 0,-0.0186 -0.1673,-0.26024 -0.14871,-0.26024 0.0929,-0.0465 0.11153,0.39965 0.0558,0.11153 -0.009,-0.0465 -0.0279,-0.12083 -0.0465,-0.1673 -0.0929,-0.20447 0,0.37177 0.0186,0.13941 0,-0.0558 0,-0.12082 0,-0.17659 -0.0279,-0.39965 -0.10224,0.25095 0,-0.0372 0.009,-0.0372 0.0651,-0.29742 0.0929,-0.29742 0.0186,0 -0.17659,0.37177 -0.0279,0.12083 0.13012,-0.21377 -0.21377,0.28812 -0.0558,0.0837 0.0279,-0.0279 0.065,-0.0744 0.0929,-0.093 0.17659,-0.13941 -0.31601,0.18589 0,0 0.12082,-0.0651 0.23235,-0.13941 0.35318,-0.20447 0.0743,-0.0372 0.158,-0.0744 0.23235,-0.11153 -0.36247,0.1673 -0.0743,0.0279 0,0 0.39036,-0.13012 0.77142,-0.25095 1.17107,-0.34389 0.39966,-0.0929 0.79001,-0.16729 1.18966,-0.23235 0.18589,-0.0279 0.37177,-0.0558 0.55766,-0.0837 -0.36248,0.0465 0.009,0 0.0744,0 0.13012,-0.0186 0.26024,-0.0279 0.38107,-0.0465 1.16177,-0.13012 2.34214,-0.20447 3.51321,-0.21377 1.79378,-0.009 1.79378,-2.79756 0,-2.78826 -1.13389,0 -2.27708,0.0836 -3.40168,0.19517 -1.78449,0.18589 -3.89428,0.39036 -5.44642,1.38484 -1.4499,0.92943 -1.97037,2.79756 -1.06883,4.30323 0.90154,1.50566 2.92768,2.18414 4.62852,2.43508 2.49085,0.36248 4.96311,0.14871 7.44467,-0.0929 0.75283,-0.0743 1.39413,-0.58554 1.39413,-1.39413 0,-0.69707 -0.6413,-1.46849 -1.39413,-1.39414 v 0 z"
         id="path1418" />
      <path
         style="color:#000000;fill:#ffffff;stroke-width:3.30666;-inkscape-stroke:none"
         d="m 124.46585,135.62193 c 0,-0.27883 -0.0279,-0.58553 0.009,-0.86436 l -0.0465,0.37177 v 0 l -0.13941,0.32529 v 0 l -0.50189,0.50189 h -1.40343 l -0.50189,-0.50189 v 0 l -0.13941,-0.33459 v 0.0186 l -0.0465,-0.37177 c 0.0372,0.29742 0.0372,0.61342 0.0465,0.91083 0.0186,0.50189 0.0279,1.00378 0.0372,1.50567 0,0.34389 0.009,0.67848 0.0186,1.02237 0.0186,1.14318 1.05954,1.71942 2.06331,1.89602 1.14319,0.20447 2.37003,0.20447 3.48534,-0.15801 0.56694,-0.18588 1.05024,-0.71565 1.02236,-1.34766 l -0.0837,-1.91461 c -0.0186,-0.37177 -0.1487,-0.72495 -0.40894,-0.98519 -0.24165,-0.24165 -0.6413,-0.42753 -0.98519,-0.40894 -0.72495,0.0372 -1.43131,0.61342 -1.39413,1.39413 l 0.0836,1.91461 1.02237,-1.34766 c -0.28812,0.0929 -0.58554,0.158 -0.88295,0.19518 l 0.37177,-0.0465 c -0.54836,0.0651 -1.11531,0.0651 -1.66367,0 l 0.37177,0.0465 c -0.29742,-0.0465 -0.59483,-0.10224 -0.87366,-0.21377 l 0.33459,0.13941 c -0.0836,-0.0372 -0.158,-0.0743 -0.23235,-0.13011 l 0.27883,0.21376 c 0,0 -0.0558,-0.0465 -0.0836,-0.0837 l 0.21376,0.27883 c 0,0 -0.0186,-0.0279 -0.0279,-0.0465 l 0.13941,0.33459 c 0,0 -0.009,-0.0372 -0.0186,-0.0465 l 0.0465,0.37177 c -0.0186,-0.1673 0,-0.34389 0,-0.51118 0,-0.29742 -0.009,-0.58554 -0.0186,-0.88295 -0.0186,-0.59484 -0.0279,-1.18967 -0.0558,-1.7845 -0.0279,-0.59483 -0.11153,-1.20824 -0.71565,-1.53354 -0.42754,-0.22306 -0.98519,-0.27883 -1.40343,0 -0.51118,0.33459 -0.68777,0.7993 -0.69707,1.36625 0,0.23236 0,0.474 0,0.70636 0,0.72495 0.6413,1.43131 1.39414,1.39414 0.75283,-0.0372 1.39413,-0.61342 1.39413,-1.39414 v 0 z"
         id="path1420" />
      <path
         style="color:#000000;fill:#ffffff;stroke-width:3.30666;-inkscape-stroke:none"
         d="m 131.50158,127.66608 c -1.21755,0 -2.44438,0.0651 -3.65263,0.17659 -1.82167,0.17659 -4.07087,0.36247 -5.61371,1.45919 -1.54284,1.09672 -1.73802,3.16004 -0.61342,4.60993 1.31978,1.71944 3.72698,2.16556 5.75312,2.34215 2.2585,0.18588 4.56347,-0.0744 6.83126,-0.14871 1.79378,-0.0558 1.79378,-2.84403 0,-2.78827 -1.63579,0.0558 -3.27157,0.18589 -4.90735,0.21377 -0.6413,0 -1.28261,0 -1.92391,-0.0651 -0.58553,-0.0465 -0.81789,-0.0743 -1.47778,-0.23235 -0.21376,-0.0465 -0.43683,-0.11154 -0.65059,-0.17659 -0.093,-0.0279 -0.66919,-0.26024 -0.3346,-0.10224 -0.1487,-0.0651 -0.29741,-0.13942 -0.44612,-0.21377 -0.0837,-0.0465 -0.158,-0.0929 -0.23235,-0.13941 -0.093,-0.0558 -0.37177,-0.30671 -0.0651,-0.0279 -0.093,-0.0837 -0.19518,-0.1766 -0.28812,-0.26024 -0.0558,-0.0465 -0.093,-0.11153 -0.14871,-0.1673 0.27883,0.27883 0.11153,0.1673 0.0558,0.0558 -0.0279,-0.0558 -0.0651,-0.13012 -0.10223,-0.17659 -0.0744,-0.093 0.0465,-0.19518 0.0651,0.158 0,-0.0558 -0.0465,-0.13012 -0.0558,-0.17659 -0.0929,-0.35318 0.0372,0.0558 0,0.0651 -0.0186,0 0,-0.29742 0,-0.31601 -0.0372,-0.23235 -0.10223,0.34389 -0.0186,0.12083 0.0186,-0.0558 0.0279,-0.13012 0.0465,-0.18589 0,-0.0372 0.0372,-0.0836 0.0372,-0.13011 0.0372,-0.25095 -0.158,0.316 -0.0372,0.10223 0.12082,-0.21377 -0.26024,0.20448 -0.0651,0.0744 0.0651,-0.0465 0.1487,-0.13942 0.20447,-0.19518 -0.24165,0.24165 -0.0651,0.0558 0.11153,-0.0372 0.0744,-0.0465 0.158,-0.0744 0.23236,-0.12082 0.26953,-0.15801 -0.29742,0.0929 0,0 0.36247,-0.12083 0.71565,-0.24166 1.08742,-0.3346 0.40895,-0.10223 0.81789,-0.17659 1.22684,-0.25094 0.12082,-0.0186 0.23235,-0.0372 0.35318,-0.0558 0.39035,-0.065 -0.29742,0.0372 0.10223,-0.0186 0.23236,-0.0279 0.46472,-0.0558 0.69707,-0.0836 1.27331,-0.13012 2.54662,-0.20448 3.82922,-0.19518 1.79378,0 1.79378,-2.77897 0,-2.78827 v 0 z"
         id="path1422" />
      <path
         style="color:#000000;fill:#ffffff;stroke-width:3.30666;-inkscape-stroke:none"
         d="m 109.46498,161.92458 c -0.13941,1.7659 0.78071,3.73628 1.78449,5.11182 3.16003,4.32181 8.65292,6.30148 13.69968,7.37961 5.04676,1.07813 10.00058,1.37555 15.01946,1.38484 5.01888,0.009 10.05635,-0.33459 14.94511,-1.4406 5.26983,-1.19896 10.83707,-3.45745 14.08075,-8.00233 0.8086,-1.1246 1.4499,-2.44438 1.73802,-3.80134 0.18588,-0.89224 0.39965,-2.18414 -0.3253,-2.89979 -0.56695,-0.56695 -1.4499,-0.52977 -2.02614,0 -1.31049,1.22683 0.65989,3.19721 1.97037,1.97037 -0.52977,0.4926 -1.39413,0.52977 -1.91461,0 -0.1487,-0.14871 -0.28812,-0.43683 -0.316,-0.52977 0.11153,0.33459 0,-0.44612 -0.009,-0.0929 0,0.13941 0,0.28812 0,0.42753 0,0.0836 -0.0186,0.1673 -0.0279,0.24165 0.0186,-0.42753 0.0372,-0.26953 0,-0.0186 -0.0929,0.50189 -0.25094,0.98519 -0.43683,1.46849 -0.11153,0.29742 0.10224,-0.22306 0.0372,-0.0837 -0.0372,0.0651 -0.0651,0.13942 -0.093,0.20448 -0.065,0.14871 -0.13941,0.28812 -0.21376,0.42753 -0.1673,0.3253 -0.36248,0.6413 -0.55765,0.94801 -0.10224,0.14871 -0.20448,0.29742 -0.30671,0.44612 -0.18589,0.26024 0.0186,0.10224 0.0186,-0.0186 0,0.0651 -0.1766,0.22307 -0.23236,0.28813 -0.28812,0.34388 -0.58554,0.67847 -0.91084,0.98518 -0.35317,0.35319 -0.72494,0.67848 -1.1153,0.99448 -0.0837,0.0651 -0.44612,0.3346 -0.0837,0.0744 -0.11153,0.0837 -0.21377,0.158 -0.3253,0.24165 -0.22306,0.1673 -0.45542,0.3253 -0.68777,0.474 -1.09672,0.71566 -2.2585,1.30119 -3.44816,1.84026 -0.316,0.13941 0.19518,-0.0744 -0.009,0 -0.0836,0.0372 -0.16729,0.0651 -0.25094,0.10224 -0.16729,0.0651 -0.34389,0.13941 -0.52048,0.20447 -0.38106,0.14871 -0.76212,0.27883 -1.14318,0.40895 -0.8086,0.26953 -1.63579,0.51118 -2.46297,0.73424 -4.3497,1.1246 -8.60645,1.50566 -13.12344,1.6079 -2.70462,0.0558 -5.41854,0.009 -8.12315,-0.158 -2.24921,-0.14871 -4.3497,-0.36248 -6.45949,-0.72495 -1.78449,-0.30671 -3.55969,-0.69707 -5.28841,-1.22684 -0.72495,-0.22306 -1.4499,-0.474 -2.15626,-0.74354 -0.158,-0.0651 -0.316,-0.13012 -0.4833,-0.19517 -0.0744,-0.0279 -0.30671,-0.13012 0,0 -0.0651,-0.0279 -0.12083,-0.0558 -0.18588,-0.0744 -0.31601,-0.13941 -0.64131,-0.28812 -0.95731,-0.44612 -1.01307,-0.50189 -1.97037,-1.08743 -2.8905,-1.74731 -0.28812,-0.21377 0.21377,0.18588 -0.0558,-0.0465 -0.0837,-0.0651 -0.16729,-0.13012 -0.24165,-0.19518 -0.17659,-0.1487 -0.35318,-0.30671 -0.52977,-0.46471 -0.30671,-0.28812 -0.60412,-0.58553 -0.87365,-0.90153 -0.12083,-0.13013 -0.22307,-0.27883 -0.34389,-0.40895 -0.0929,-0.11153 0.22306,0.316 0.0186,0.0279 -0.0558,-0.0837 -0.12083,-0.1673 -0.18589,-0.25094 -0.18588,-0.26954 -0.36247,-0.54836 -0.52047,-0.83648 -0.0651,-0.12083 -0.13012,-0.24165 -0.19518,-0.37177 -0.0279,-0.0651 -0.0558,-0.13012 -0.0929,-0.18589 -0.0186,-0.0279 -0.0279,-0.0651 -0.0372,-0.0929 -0.10224,-0.21377 0.11153,0.0372 0.0743,0.1673 0.0372,-0.12083 -0.20447,-0.54836 -0.25094,-0.68778 -0.0651,-0.20447 -0.12083,-0.41823 -0.1673,-0.632 -0.0186,-0.0837 -0.0279,-0.1673 -0.0465,-0.25095 -0.0743,-0.37177 0.0186,0.19518 0.009,0.10224 -0.009,-0.20447 -0.0279,-0.40895 -0.0372,-0.62271 0,-0.0279 0,-0.0558 0,-0.0837 0.0558,-0.75283 -0.68778,-1.39413 -1.39414,-1.39413 -0.8086,0 -1.33837,0.6413 -1.39413,1.39413 v 0 z"
         id="path1424" />
      <path
         style="color:#000000;fill:#ffffff;stroke-width:3.30666;-inkscape-stroke:none"
         d="m 131.01828,155.04685 c -2.53732,0.18589 -5.07465,0.46471 -7.59338,0.8086 -2.0912,0.27883 -4.17311,0.59483 -6.23642,1.04095 -1.71014,0.37177 -3.45746,0.79931 -5.02818,1.58931 -1.75661,0.89225 -3.51321,2.7418 -2.30497,4.79582 0.56695,0.95731 1.6172,1.58932 2.61168,2.02614 1.58931,0.70636 3.27157,1.16178 4.9817,1.50567 5.38136,1.10601 10.93001,1.45919 16.4136,1.67296 5.48359,0.21376 10.74412,0.19518 16.09759,-0.13012 4.52629,-0.27883 9.12693,-0.70636 13.52309,-1.87743 2.61168,-0.69707 6.21784,-1.82167 7.2402,-4.64711 0.52048,-1.43131 -0.21376,-2.91839 -1.34766,-3.81993 -1.26401,-1.00378 -2.85332,-1.53355 -4.41475,-1.89602 -2.86262,-0.65989 -5.85536,-0.88295 -8.79234,-0.92013 -0.17659,0 -0.34388,0 -0.52047,0 -1.79379,0.0186 -1.79379,2.80686 0,2.78827 2.03543,-0.0186 4.08016,0.13941 6.1063,0.37177 0.36247,0.0465 -0.21377,-0.0279 0.009,0 0.0929,0.009 0.18588,0.0279 0.27883,0.0372 0.18588,0.0279 0.36247,0.0558 0.54835,0.0836 0.41824,0.0651 0.83648,0.14871 1.25473,0.23236 0.73424,0.158 1.46848,0.34388 2.17484,0.60412 0.158,0.0558 0.30671,0.11153 0.45542,0.17659 -0.38106,-0.14871 0.13012,0.0651 0.22306,0.10224 0.29742,0.14871 0.56695,0.33459 0.85507,0.50189 0.19518,0.11153 -0.0651,-0.0558 -0.0929,-0.0744 0.0558,0.0465 0.12082,0.10224 0.17659,0.14871 0.0929,0.0837 0.17659,0.17659 0.26953,0.26024 0.25094,0.23235 -0.11153,-0.23236 0.0465,0.0558 0.0279,0.0558 0.0651,0.12083 0.10224,0.17659 0.158,0.25095 -0.0186,-0.0929 -0.0186,-0.0558 0,0.0651 0.13941,0.30671 0.0929,0.36247 -0.0186,0.0186 -0.0186,-0.39965 -0.0279,-0.16729 -0.009,0.26953 0.13012,-0.3346 0.0372,-0.11153 -0.0372,0.0744 -0.0558,0.19517 -0.0743,0.27882 -0.0558,0.28812 0.18588,-0.30671 -0.0186,0.0465 -0.0558,0.0836 -0.10224,0.17658 -0.15801,0.26023 -0.20447,0.34389 0.14871,-0.12082 -0.0279,0.0465 -0.18588,0.17659 -0.38106,0.36248 -0.56695,0.54836 -0.1487,0.14871 0.093,-0.0651 0.11153,-0.0837 -0.0651,0.0465 -0.12082,0.093 -0.18588,0.13942 -0.11153,0.0744 -0.21377,0.14871 -0.33459,0.22306 -0.26954,0.1673 -0.53907,0.316 -0.82719,0.46471 -0.14871,0.0744 -0.30671,0.14871 -0.46471,0.21377 -0.0744,0.0372 -0.14871,0.0651 -0.22306,0.0929 0.35318,-0.158 0.0372,-0.0186 -0.0279,0.009 -0.36248,0.13941 -0.71566,0.26953 -1.07813,0.39036 -3.84781,1.2826 -7.66774,1.70084 -11.5806,2.03543 -5.0003,0.42754 -10.01917,0.52977 -15.02876,0.43683 -5.00959,-0.0929 -10.60471,-0.35318 -15.74441,-1.05954 -2.04473,-0.27883 -4.08946,-0.63201 -6.06913,-1.18966 -0.34388,-0.093 -0.68777,-0.20448 -1.02236,-0.31601 -0.15801,-0.0558 -0.30671,-0.10223 -0.46471,-0.158 -0.0837,-0.0279 -0.1766,-0.0651 -0.26024,-0.10223 -0.0372,-0.0186 -0.39036,-0.15801 -0.158,-0.0651 0.21376,0.0837 -0.21377,-0.10224 -0.28812,-0.13012 -0.11153,-0.0558 -0.23236,-0.11153 -0.34389,-0.1673 -0.22306,-0.11153 -0.43683,-0.24165 -0.6413,-0.38106 -0.0465,-0.0372 -0.0929,-0.0744 -0.14871,-0.10224 -0.17659,-0.11153 0.1673,0.11153 0.14871,0.11153 -0.0558,0 -0.18589,-0.158 -0.22306,-0.19518 -0.0651,-0.0651 -0.12083,-0.13011 -0.18589,-0.19518 -0.19518,-0.18588 0.17659,0.3346 0.0279,0.0372 -0.0279,-0.0558 -0.0651,-0.13941 -0.10223,-0.17659 -0.0929,-0.10223 0.14871,0.40895 0.0558,0.12083 -0.13012,-0.42754 -0.0186,0.36247 0,-0.0558 0.009,-0.26953 -0.0836,0.44612 -0.009,0.12083 0,-0.0279 0.0651,-0.15801 0.0558,-0.17659 0.10224,0.13011 -0.22306,0.39035 -0.0372,0.12082 0.0186,-0.0186 0.13942,-0.19518 0.13942,-0.20447 0.0465,0.16729 -0.27883,0.29741 -0.11153,0.14871 0.0186,-0.0186 0.0372,-0.0465 0.0558,-0.0651 0.0558,-0.0558 0.11153,-0.11153 0.1673,-0.1673 0.0743,-0.0651 0.158,-0.13012 0.23235,-0.19518 0.13012,-0.12082 -0.10223,0.19518 -0.158,0.12083 0,0 0.1673,-0.12083 0.17659,-0.13012 0.41824,-0.26954 0.83648,-0.50189 1.2919,-0.69707 -0.39036,0.17659 0.1487,-0.0558 0.24165,-0.0836 0.17659,-0.0651 0.35318,-0.13012 0.52977,-0.18588 0.39035,-0.13012 0.78071,-0.24165 1.18036,-0.35318 1.80308,-0.4926 3.65263,-0.82719 5.50218,-1.11531 2.84404,-0.44612 5.87395,-0.79001 8.99681,-1.05025 0.17659,-0.0186 0.34389,-0.0279 0.52048,-0.0372 0.75283,-0.0558 1.39413,-0.60413 1.39413,-1.39414 0,-0.71565 -0.6413,-1.44989 -1.39413,-1.39413 v 0 z"
         id="path1426" />
      <path
         style="color:#000000;fill:#ffffff;stroke-linecap:round;stroke-linejoin:round;-inkscape-stroke:none"
         d="m 184.19141,53.568359 c -1.21181,0 -2.20899,0.995224 -2.20899,2.207032 0,1.211806 0.99718,2.207031 2.20899,2.207031 1.2118,0 2.20703,-0.995225 2.20703,-2.207031 0,-1.211808 -0.99522,-2.207032 -2.20703,-2.207032 z m 0,1.253907 c 0.53551,0 0.95117,0.417618 0.95117,0.953125 0,0.535504 -0.41566,0.953125 -0.95117,0.953125 -0.53551,0 -0.95313,-0.417621 -0.95313,-0.953125 0,-0.535507 0.41762,-0.953125 0.95313,-0.953125 z"
         id="path1428" />
      <path
         style="color:#000000;fill:#ffffff;stroke-linecap:round;stroke-linejoin:round;-inkscape-stroke:none"
         d="m 106.33203,119.61328 c -1.2118,0 -2.20703,0.99522 -2.20703,2.20703 0,1.21181 0.99523,2.20703 2.20703,2.20703 1.21181,0 2.20899,-0.99522 2.20899,-2.20703 0,-1.21181 -0.99718,-2.20703 -2.20899,-2.20703 z m 0,1.25391 c 0.53551,0 0.95313,0.41761 0.95313,0.95312 0,0.53551 -0.41762,0.95313 -0.95313,0.95313 -0.53549,0 -0.95117,-0.41762 -0.95117,-0.95313 0,-0.53551 0.41568,-0.95312 0.95117,-0.95312 z"
         id="path1430" />
      <path
         style="color:#000000;fill:#ffffff;stroke-linecap:round;stroke-linejoin:round;-inkscape-stroke:none"
         d="m 98.126953,78.314453 c -1.693095,0 -3.085937,1.392843 -3.085937,3.085938 0,1.693094 1.392842,3.083984 3.085937,3.083984 1.437944,0 2.475137,-1.087778 2.810547,-2.427734 a 0.92941999,0.92941999 0 0 0 0.27344,-0.65625 0.92941999,0.92941999 0 0 0 -0.27539,-0.660157 c -0.33697,-1.337769 -1.372217,-2.425781 -2.808597,-2.425781 z m 0,1.857422 c 0.686223,0 1.226563,0.542294 1.226563,1.228516 0,0.686222 -0.54034,1.226562 -1.226563,1.226562 -0.686225,0 -1.228515,-0.540338 -1.228516,-1.226562 0,-0.686224 0.542291,-1.228516 1.228516,-1.228516 z"
         id="path1432" />
      <path
         style="color:#000000;fill:#ffffff;stroke-linecap:round;stroke-linejoin:round;-inkscape-stroke:none"
         d="m 180.10156,109.03516 c -1.89052,0 -3.43554,1.55508 -3.43554,3.43554 0,1.88646 1.54909,3.4336 3.43554,3.4336 1.88646,0 3.4336,-1.54714 3.4336,-3.4336 0,-1.88645 -1.54714,-3.43554 -3.4336,-3.43554 z m 0,1.83203 c 0.90182,0 1.60352,0.70171 1.60352,1.60351 0,0.90182 -0.7017,1.60352 -1.60352,1.60352 -0.9018,0 -1.60351,-0.7017 -1.60351,-1.60352 0,-0.88921 0.70578,-1.60351 1.60351,-1.60351 z"
         id="path1434" />
      <path
         style="color:#000000;fill:#ffffff;stroke-linecap:round;stroke-miterlimit:10;-inkscape-stroke:none"
         d="m 165.83789,96.947266 c -12.16616,2.363346 -22.51205,2.572563 -30.16016,2.095703 a 1.39414,1.39414 0 0 0 -1.47851,1.304691 1.39414,1.39414 0 0 0 1.30469,1.47851 c 7.85464,0.48974 18.43892,0.2713 30.86523,-2.142576 a 1.39414,1.39414 0 0 0 1.10352,-1.634766 1.39414,1.39414 0 0 0 -1.63477,-1.101562 z"
         id="path1436" />
    </g>
  </g>
</svg>
