<?xml version="1.0" encoding="UTF-8" standalone="no"?>
<!-- Created with Inkscape (http://www.inkscape.org/) -->

<svg
   width="100"
   height="100"
   viewBox="0 0 26.458333 26.458334"
   version="1.1"
   id="svg127350"
   inkscape:export-filename="C:\Users\Agathe\Desktop\commerces.png"
   inkscape:export-xdpi="200"
   inkscape:export-ydpi="200"
   inkscape:version="1.1 (c68e22c387, 2021-05-23)"
   sodipodi:docname="fontaine_borne.svg"
   xmlns:inkscape="http://www.inkscape.org/namespaces/inkscape"
   xmlns:sodipodi="http://sodipodi.sourceforge.net/DTD/sodipodi-0.dtd"
   xmlns="http://www.w3.org/2000/svg"
   xmlns:svg="http://www.w3.org/2000/svg">
  <sodipodi:namedview
     id="namedview127352"
     pagecolor="#ffffff"
     bordercolor="#666666"
     borderopacity="1.0"
     inkscape:pageshadow="2"
     inkscape:pageopacity="0"
     inkscape:pagecheckerboard="0"
     inkscape:document-units="mm"
     showgrid="false"
     units="px"
     inkscape:zoom="5.9722783"
     inkscape:cx="54.250653"
     inkscape:cy="71.748164"
     inkscape:window-width="2400"
     inkscape:window-height="1271"
     inkscape:window-x="2391"
     inkscape:window-y="-9"
     inkscape:window-maximized="1"
     inkscape:current-layer="layer1" />
  <defs
     id="defs127347" />
  <g
     inkscape:label="Calque 1"
     inkscape:groupmode="layer"
     id="layer1">
    <g
       id="g40134"
       style="fill:#002ddc;fill-opacity:1;stroke-width:3.57303"
       transform="matrix(0.27987506,0,0,0.27987506,-23.415526,-37.430699)">
      <path
         class="b"
         d="m 134.28365,169.69476 c 0.11906,2.43417 0.24077,4.86833 0.35454,7.30515 0.037,0.80433 0.0767,1.60866 0.10848,2.413 0.0185,0.47095 0.0159,0.92868 0.14288,1.38906 0.127,0.46037 0.31485,0.94985 0.51593,1.40758 0.0635,0.14023 0.12436,0.28575 0.21167,0.4154 0.13229,0.19844 0.3175,0.37041 0.48683,0.53975 l -0.10318,-0.17463 0.0688,0.26723 c 0.008,0.0265 0.0291,0.20109 0.0556,0.21167 -0.0265,-0.0132 -0.008,-0.12171 -0.005,-0.14288 0,-0.005 0.0159,-0.0767 0.0132,-0.0344 0,0.0238 -0.008,0.0106 0.008,-0.005 -0.0794,0.0794 -0.1614,0.14552 -0.22755,0.23548 -0.13229,0.17197 -0.1852,0.3757 -0.20902,0.58737 -0.0212,0.19315 0.008,0.3519 0.10848,0.51858 l 0.37042,0.60855 c 0.10848,0.17727 0.22225,0.35454 0.32808,0.53445 0.0159,0.0265 0.0291,0.0529 0.0423,0.082 0.0159,0.0318 0.0609,0.14288 0.0238,0.0503 0.0265,0.0661 0.0529,0.13229 0.0794,0.19843 0.0556,0.15346 0.10584,0.30957 0.14023,0.46832 0.008,0.037 0.0159,0.0767 0.0212,0.11377 -0.0106,-0.0661 0,0.0159 0,0.0397 0,0.0344 0,0.0661 0,0.10055 0,0 0.0106,-0.0741 0.003,-0.0291 0,0.008 -0.0185,0.0741 -0.005,0.037 0.0159,-0.045 -0.045,0.0767 -0.0185,0.037 0.0159,-0.0238 -0.0397,0.0423 -0.0529,0.0556 -0.0132,0.0132 -0.0265,0.0265 -0.0423,0.037 0.005,-0.005 0.045,-0.0317 0.005,-0.008 -0.0397,0.0238 -0.0714,0.0476 -0.11112,0.0661 -0.0318,0.0159 -0.0635,0.0318 -0.0979,0.0476 0.0609,-0.0265 -0.005,0 -0.0317,0.0106 -0.0582,0.0185 -0.11641,0.0318 -0.17462,0.0503 -0.0847,0.0238 0.0661,-0.008 0.0212,0 -0.0767,0.0106 -0.13229,0.0185 -0.20372,0.0476 -0.10584,0.045 -0.1958,0.11377 -0.27782,0.19315 -0.10848,0.10583 -0.23283,0.23548 -0.29104,0.37835 -0.0476,0.11906 -0.0503,0.28046 -0.0688,0.40746 l -0.0423,0.3175 c -0.0185,0.13229 0.0873,0.28046 0.19579,0.34396 l 0.48683,0.26987 c 0.0714,0.0397 0.15081,0.0952 0.23283,0.11642 0.10848,0.0291 0.23019,0 0.34132,-0.0106 l -0.20109,-0.0529 0.48419,0.23548 -0.14287,-0.14288 c 0.0741,0.11642 0.14023,0.24077 0.23548,0.34132 0.0952,0.10054 0.20108,0.19314 0.29897,0.28839 l -0.11641,-0.28046 0.0132,2.413 0.0185,3.84175 0.005,0.87842 0.29104,-0.38365 -2.97921,0.84932 -4.70693,1.34408 -1.0848,0.30956 c -0.48948,0.14023 -0.2831,0.90488 0.21167,0.76465 l 2.97921,-0.84931 4.70694,-1.34409 1.08479,-0.30956 c 0.16669,-0.0476 0.29104,-0.20637 0.29104,-0.38365 l -0.0159,-3.36814 -0.0132,-2.41829 c 0,-0.43921 0.0106,-0.87842 -0.008,-1.31763 -0.005,-0.16933 -0.0847,-0.27781 -0.20109,-0.38894 -0.0714,-0.0688 -0.14022,-0.15875 -0.22225,-0.21431 -0.0661,-0.0423 0.0714,0.11642 0.0238,0.0317 -0.0291,-0.0529 -0.0635,-0.10054 -0.0952,-0.15081 -0.12965,-0.19844 -0.31221,-0.26194 -0.51859,-0.36248 -0.0926,-0.045 -0.1905,-0.10319 -0.29104,-0.11642 -0.0952,-0.0132 -0.19314,0.008 -0.28839,0.0159 l 0.20108,0.0529 -0.62177,-0.34661 0.19579,0.34396 0.0741,-0.5715 -0.0529,0.20108 c 0,0 0.0265,-0.0265 0.0265,-0.037 0,-0.0318 0.0106,-0.0132 -0.0132,0.0159 0.0159,-0.0185 0.0291,-0.0344 0.0423,-0.0529 0.0317,-0.037 0.0688,-0.0714 0.10319,-0.10848 0.0714,-0.0741 0.008,0 0,-0.005 0.0344,-0.0185 0.037,-0.0212 0.005,-0.008 -0.0265,0.0132 -0.0556,0.0185 -0.0873,0.0185 0.20373,-0.003 0.42068,-0.0953 0.60325,-0.17991 0.21695,-0.10319 0.42333,-0.26459 0.54768,-0.47361 0.14288,-0.24077 0.14552,-0.50535 0.10319,-0.77258 -0.0556,-0.36248 -0.1905,-0.74613 -0.35983,-1.07156 -0.0979,-0.1905 -0.2249,-0.37042 -0.33867,-0.55563 l -0.45244,-0.73819 0.0529,0.20109 c -0.005,-0.0609 0,-0.12171 0.005,-0.18257 -0.008,0.0926 0.0132,-0.0556 0.0238,-0.0847 0.005,-0.0185 0.0397,-0.0873 0.0106,-0.0291 0.0397,-0.082 -0.0344,0.0238 0.0291,-0.045 0.20638,-0.21166 0.39952,-0.41275 0.33073,-0.73554 -0.0317,-0.15081 -0.0741,-0.30427 -0.11906,-0.44979 -0.0291,-0.0979 -0.082,-0.16933 -0.15081,-0.24077 -0.11377,-0.11906 -0.22225,-0.24606 -0.33867,-0.35983 -0.0582,-0.0582 0.0556,0.10054 0.005,0.008 -0.0159,-0.0291 -0.0317,-0.0556 -0.0476,-0.082 -0.0423,-0.0794 -0.0794,-0.15875 -0.11642,-0.24077 -0.0238,-0.0503 -0.045,-0.10054 -0.0661,-0.15081 -0.0317,-0.0688 -0.008,-0.0159 0,-0.003 -0.0132,-0.0344 -0.0291,-0.0688 -0.0423,-0.10318 -0.0503,-0.12171 -0.0953,-0.24077 -0.14023,-0.36513 -0.09,-0.24342 -0.17198,-0.48948 -0.23812,-0.74083 -0.0238,-0.0952 -0.045,-0.19315 -0.0635,-0.29104 -0.0238,-0.11907 -0.003,0.0529 -0.008,-0.0582 0,-0.0318 0,-0.0662 -0.003,-0.0979 -0.008,-0.57944 -0.0423,-1.15887 -0.0688,-1.73566 -0.0556,-1.21973 -0.11377,-2.43946 -0.17198,-3.65919 -0.0794,-1.66159 -0.16139,-3.32317 -0.24341,-4.98211 -0.0106,-0.21431 -0.17463,-0.39687 -0.39688,-0.39687 -0.20637,0 -0.40746,0.18256 -0.39687,0.39687 v 0 z"
         id="path6"
         style="fill:#002ddc;fill-opacity:1;stroke-width:0.945358" />
      <path
         class="b"
         d="m 134.96363,167.41405 c -0.0661,-1.33085 -0.13229,-2.66435 -0.19844,-3.99521 l -0.0529,0.20109 c 0.0688,-0.15346 0.14552,-0.31221 0.24077,-0.45244 0.0238,-0.0344 0.037,-0.0265 0.045,-0.0582 -0.0106,0.0397 -0.13494,0.0556 -0.0159,0.037 0.15081,-0.0238 0.31485,-0.15346 0.42069,-0.26193 0.14287,-0.14288 0.16669,-0.35455 0.15875,-0.55034 -0.0106,-0.23019 -0.21696,-0.38629 -0.36513,-0.54239 l 0.10319,0.38629 0.1614,-0.52123 -0.18257,0.23812 c 0.25136,-0.17462 0.49477,-0.32014 0.67469,-0.5715 l 0.17727,-0.24606 c 0.0265,-0.037 0.16404,-0.22489 0.0397,-0.0608 0.045,-0.0609 0.0952,-0.12171 0.14023,-0.18257 0.0238,-0.0317 0.0608,-0.0661 0.0794,-0.10318 0.0397,-0.0794 0.0265,-0.008 -0.0344,0.0106 0.17462,-0.0529 0.35719,-0.18785 0.51064,-0.28575 0.24342,-0.15875 0.45509,-0.33867 0.57415,-0.60854 0.11906,-0.26988 0.12965,-0.61913 -0.10319,-0.83873 -0.16933,-0.15875 -0.45773,-0.20108 -0.68262,-0.20638 l 0.28046,0.11642 c -0.34925,-0.30956 -0.67469,-0.65352 -1.03982,-0.94192 -0.127,-0.10054 -0.25929,-0.21166 -0.40746,-0.2831 -0.17462,-0.0847 -0.3175,-0.0714 -0.50535,-0.0423 -0.13229,0.0212 -0.27781,0.0318 -0.40746,0.0688 -0.17198,0.0503 -0.25664,0.20637 -0.35189,0.34396 l 0.44714,-0.18257 c -0.66939,-0.16404 -1.34408,-0.35454 -1.98437,-0.61383 -0.71173,-0.28575 -1.27529,-0.82814 -1.77271,-1.39964 v 0.56091 c 0.2196,-0.17727 0.25135,-0.35983 0.22754,-0.62971 -0.0238,-0.26987 -0.24077,-0.39687 -0.44715,-0.55298 l 0.14288,0.14288 c 0.0661,0.13494 -0.0291,-0.0635 -0.0185,-0.0476 v -0.0476 c -0.11113,0.127 -0.13494,0.17198 -0.0741,0.13494 0.0159,0 0.0688,-0.0397 0.082,-0.045 0.19314,-0.11113 0.381,-0.22754 0.56356,-0.35719 0.33337,-0.23283 0.55827,-0.45773 0.63764,-0.86783 0.10055,-0.52917 -0.003,-1.08479 -0.39687,-1.47638 -0.29104,-0.29104 -0.68527,-0.48948 -1.0504,-0.66939 -0.33866,-0.16669 -0.68791,-0.3175 -1.03981,-0.46038 -0.0847,-0.0344 -0.16404,-0.0741 -0.25664,-0.0741 -0.22755,0 -0.51594,0.20902 -0.7038,0.32279 -0.71966,0.43921 -1.57427,1.08215 -1.88648,1.89706 -0.17462,0.45509 -0.008,0.83079 0.381,1.09009 0.3175,0.21166 0.65088,0.43391 1.00013,0.58737 l -0.18256,-0.23812 0.13229,0.74612 0.10319,-0.38629 c -0.14552,0.17727 -0.37307,0.39952 -0.37571,0.64558 -0.005,0.44979 0.46831,0.43921 0.78052,0.39423 l -0.48948,-0.48948 c -0.0238,0.0635 0.045,-0.09 0.0159,-0.0397 -0.0212,0.0397 -0.0397,0.0847 -0.0608,0.12436 -0.0688,0.13229 -0.14552,0.25664 -0.23019,0.37835 -0.254,0.36513 -0.6006,0.66411 -0.99483,0.87048 -0.48948,0.25665 -1.05833,0.41011 -1.5875,0.57415 -0.19579,0.0609 -0.39158,0.12171 -0.59002,0.16669 l 0.50271,0.38364 v -0.15081 c 0,-0.15875 -0.12171,-0.35719 -0.29104,-0.38365 -0.28046,-0.045 -0.58209,-0.11641 -0.86784,-0.10848 -0.30956,0.008 -0.65881,0.30427 -0.84402,0.53711 -0.0688,0.0873 0.10583,-0.0609 0.0238,-0.0132 -0.045,0.0265 -0.0873,0.0608 -0.13229,0.09 l -0.38364,0.26458 c -0.20638,0.14288 -0.35455,0.29369 -0.51065,0.49213 -0.254,0.32808 -0.51329,0.85195 -0.18256,1.22237 0.24871,0.28046 0.70644,0.20638 0.97102,0.47096 0.24077,0.23812 0.29633,0.635 0.57944,0.83608 0.20637,0.14817 0.37835,0.23019 0.61383,0.30956 0.0635,0.0212 0.10848,0.0609 0.17198,0.0767 0.0529,0.0132 0.0397,0.0714 -0.008,-0.0794 -0.0476,-0.15081 -0.0185,-0.0661 -0.0926,0.005 0.008,-0.008 0.0953,-0.0582 -0.005,-0.0132 -0.0794,0.0344 -0.13759,0.0476 -0.20373,0.11113 -0.0926,0.0847 -0.13494,0.1905 -0.15346,0.3122 -0.0318,0.21961 0.0397,0.47096 0.19844,0.62707 0.15875,0.1561 0.43391,0.15346 0.65087,0.18256 l -0.38365,-0.29104 c 0.10848,0.35189 0.35719,0.60589 0.58209,0.89164 l -0.11642,-0.28045 c 0.0106,0.97102 0.0185,1.93939 0.0212,2.90777 0,1.7727 0.003,3.54277 0,5.31548 0,1.97643 -0.003,3.95287 -0.0185,5.93195 -0.005,0.59532 -0.008,1.19327 -0.0238,1.78859 0,0.0767 -0.005,0.15081 -0.008,0.22754 -0.003,0.0767 -0.0106,0.17727 0.005,0.0159 -0.0397,0.43921 -0.0847,0.87048 -0.17992,1.29382 -0.0688,0.30956 -0.16404,0.61648 -0.30956,0.89958 -0.17198,0.33073 -0.39688,0.56092 -0.65352,0.82285 -0.27517,0.27782 -0.26988,0.66146 -0.11113,0.99748 0.0556,0.11642 0.127,0.21961 0.20638,0.32015 0.0609,0.0767 0.0635,0.0741 0.0926,0.12435 0.0503,0.082 0.0741,0.12171 0.0741,0.21432 0,0.1852 -0.11907,0.34925 -0.22225,0.49741 -0.22755,0.32544 -0.45509,0.65088 -0.61384,1.016 -0.15875,0.36513 -0.23812,0.77788 -0.0635,1.15623 0.16404,0.35719 0.52652,0.63236 0.87842,0.78846 0.20108,0.09 0.42069,0.15875 0.64558,0.1614 l -0.34396,-0.1958 c 0.0317,0.0767 0.0582,0.16405 0.10055,0.23548 0.0159,0.0291 0.24341,0.23284 0.0873,0.10584 0.0423,0.0344 0.0847,0.0714 0.127,0.10583 0.0238,0.0212 0.0476,0.045 0.0714,0.0688 -0.0423,-0.0635 -0.0556,-0.14023 -0.037,-0.22754 0.005,0 -0.045,0.13494 -0.0185,0.0741 -0.0529,0.12171 -0.15081,0.19315 -0.26723,0.25136 -0.30691,0.1561 -0.64029,0.25929 -0.9472,0.41275 -0.22225,0.11112 -0.27252,0.32279 -0.3519,0.53975 l 0.18256,-0.23813 -0.31221,0.16934 c -0.1217,0.0661 -0.19579,0.20637 -0.19579,0.34395 l -0.0265,6.51934 v 0.93398 c -0.005,0.18256 0.12171,0.32808 0.2884,0.38364 1.85738,0.62442 3.71475,1.24619 5.57213,1.86796 1.51606,0.50535 3.03477,0.99748 4.55347,1.49754 0.91811,0.30163 1.83621,0.6059 2.75432,0.90752 0.48683,0.1614 0.69585,-0.60589 0.21166,-0.76464 -1.83091,-0.60325 -3.66183,-1.2118 -5.49539,-1.80711 -1.65365,-0.5371 -3.29936,-1.09537 -4.94771,-1.64835 -0.81227,-0.27252 -1.62454,-0.54504 -2.43946,-0.81756 l 0.29104,0.38364 0.0265,-6.51933 v -0.93398 l -0.19314,0.34396 c 0.11641,-0.0635 0.2487,-0.11642 0.35189,-0.19844 0.13758,-0.11112 0.18521,-0.32015 0.24606,-0.48154 l -0.18256,0.23812 c 0.508,-0.21431 1.15623,-0.381 1.48961,-0.84931 0.12435,-0.17727 0.24077,-0.44714 0.17727,-0.66675 -0.0635,-0.2196 -0.2884,-0.38629 -0.47096,-0.52387 l 0.14287,0.14287 -0.10318,-0.24342 c -0.0529,-0.12435 -0.21696,-0.19579 -0.34396,-0.19579 -0.10584,0 0.0238,0.0159 -0.0953,-0.0132 -0.14817,-0.0397 -0.28046,-0.0926 -0.41011,-0.17727 -0.31485,-0.21166 -0.38629,-0.41539 -0.24606,-0.76464 0.28575,-0.71967 1.1139,-1.31498 0.88106,-2.16959 -0.0344,-0.127 -0.0979,-0.25135 -0.17198,-0.35983 -0.0397,-0.0582 -0.0847,-0.11112 -0.127,-0.16669 -0.008,-0.008 -0.0556,-0.0714 -0.0264,-0.0318 0.0212,0.0291 -0.045,-0.0661 -0.0582,-0.0926 -0.0238,-0.0423 -0.0556,-0.0847 -0.0582,-0.12965 -0.0159,-0.17198 -0.008,-0.0212 -0.003,-0.0291 0.0238,-0.0503 0.15611,-0.13229 0.19844,-0.17463 0.51065,-0.51858 0.81756,-1.2065 0.97102,-1.91029 0.0635,-0.29369 0.10319,-0.59266 0.13494,-0.89164 0.0106,-0.0953 0.0185,-0.1905 0.0291,-0.28575 0.005,-0.0423 0.0159,-0.13759 0.003,-0.037 0,-0.0185 0.005,-0.037 0.008,-0.0556 0.0238,-0.15081 0.0264,-0.29898 0.0318,-0.44979 0.0159,-0.60854 0.0185,-1.21708 0.0238,-1.82562 0.0159,-2.02407 0.0159,-4.04548 0.0185,-6.06955 0,-1.76741 0,-3.53218 -0.003,-5.2996 0,-0.2884 0,-0.57679 0,-0.86519 0,-0.38629 -0.008,-0.77258 -0.0106,-1.15887 l -0.005,-0.61648 c 0,-0.18521 -0.0635,-0.32015 -0.17727,-0.46831 -0.11377,-0.14817 -0.24342,-0.30692 -0.36248,-0.46038 l 0.10319,0.17463 -0.0556,-0.17992 c -0.0582,-0.18521 -0.20108,-0.26723 -0.38364,-0.29104 0.15346,0.0212 -0.0423,-0.005 -0.0741,-0.0106 -0.0582,-0.008 -0.1217,-0.0106 -0.17727,-0.0317 l 0.17463,0.10319 c 0,0 0.0212,0.0767 0.0132,0.0238 -0.0106,-0.0609 -0.0132,0.0979 -0.0714,0.15082 l -0.17462,0.10318 c 0.61118,-0.17727 0.96043,-0.98425 0.32543,-1.37054 -0.10583,-0.0635 -0.22225,-0.10848 -0.33866,-0.14816 -0.0423,-0.0132 -0.16934,-0.0794 -0.21696,-0.0635 -0.0106,0.003 0.0952,0.0767 0.045,0.0132 -0.0238,-0.0291 -0.082,-0.0556 -0.11377,-0.0767 l -0.18521,-0.12436 0.14287,0.14288 c -0.13229,-0.22755 -0.26193,-0.46302 -0.41275,-0.67998 -0.19314,-0.27517 -0.48154,-0.42334 -0.78846,-0.53975 -0.0344,-0.0132 -0.30956,-0.13229 -0.34395,-0.10584 0.0714,0.15611 0.11112,0.19315 0.11906,0.11377 0.0238,-0.0741 0.0265,-0.09 0.008,-0.0503 0.0185,-0.0476 0.0529,-0.0926 0.0794,-0.13229 0.0609,-0.09 0.13229,-0.17462 0.20373,-0.25664 0.0106,-0.0132 0.0714,-0.0635 0.0714,-0.0794 -0.003,0.0344 -0.11642,0.082 -0.0423,0.0344 0.27782,-0.17727 0.58473,-0.36513 0.82021,-0.59532 0.0714,-0.0688 0.14552,-0.14552 0.2249,-0.20637 0.0265,-0.0185 0.0529,-0.037 0.0794,-0.0556 0.0714,-0.0344 0.0476,-0.0344 -0.0688,0 l 0.10584,0.005 c 0.1852,0.0159 0.37041,0.045 0.55297,0.0741 l -0.29104,-0.38364 v 0.15081 c 0,0.26723 0.254,0.44185 0.50271,0.38364 0.2249,-0.0529 0.44715,-0.1217 0.66675,-0.19314 0.60854,-0.19315 1.27,-0.37306 1.82298,-0.6985 0.6641,-0.38629 1.23031,-1.02129 1.50813,-1.74096 0.1217,-0.3175 -0.2249,-0.52652 -0.48948,-0.48948 0.1217,-0.0185 0.005,0.0106 0,0 -0.0159,0 -0.0317,0.003 -0.0476,0.003 -0.0608,0 -0.0344,0.0132 0.0767,0.0397 l 0.19579,0.34396 c 0.003,0.0979 -0.0767,0.17463 0.0106,0.0741 0.0106,-0.0132 0.0582,-0.0794 0.0503,-0.0688 0.0556,-0.0741 0.127,-0.14287 0.16404,-0.22754 0.0714,-0.16933 -0.005,-0.40746 -0.037,-0.58208 -0.0238,-0.13758 -0.0344,-0.2884 -0.0741,-0.42069 -0.0503,-0.17198 -0.17462,-0.23019 -0.31221,-0.30162 -0.19843,-0.10319 -0.39158,-0.21961 -0.58208,-0.33867 -0.0847,-0.0529 -0.16669,-0.10583 -0.25135,-0.1614 -0.0397,-0.0265 -0.0794,-0.0529 -0.11907,-0.0794 0.008,0.005 0.0476,0.0238 0.0106,0.005 -0.003,0 0.005,0.0317 0.008,0.003 0.005,-0.0741 -0.0132,0.0423 0.008,-0.037 0.003,-0.0132 0.0344,-0.10319 0.0159,-0.0582 0.037,-0.0926 0.0979,-0.18257 0.15346,-0.26459 0.12964,-0.1852 0.29104,-0.3466 0.45508,-0.5027 0.42333,-0.39688 0.91017,-0.74084 1.43669,-0.98161 l -0.30692,0.0397 c 0.381,0.14552 0.7276,0.29898 1.1086,0.49212 0.48155,0.24342 1.05569,0.508 0.98425,1.14565 -0.008,0.0661 -0.0238,0.13229 -0.0423,0.19579 -0.008,0.0291 -0.0741,0.1614 -0.0185,0.0714 -0.0185,0.0317 -0.0159,0.0291 0.008,-0.008 -0.0185,0.0185 -0.037,0.0397 -0.0582,0.0556 -0.0397,0.0344 -0.0794,0.0661 -0.12171,0.0979 -0.22489,0.16669 -0.4736,0.29369 -0.70644,0.4445 -0.31485,0.20373 -0.36248,0.56885 -0.24077,0.89958 0.082,0.2249 0.26723,0.33338 0.44979,0.47096 l -0.19579,-0.34396 0.0132,0.27252 0.11642,-0.28045 -0.12436,0.0979 c -0.17462,0.14023 -0.127,0.41275 0,0.56092 0.56357,0.65087 1.2118,1.22766 2.01084,1.55839 0.67469,0.28046 1.38641,0.48684 2.0955,0.65882 0.18256,0.045 0.34396,-0.0318 0.44714,-0.18257 l 0.11113,-0.16139 -0.23813,0.18256 c 0.10055,-0.0185 0.20373,-0.037 0.30427,-0.0529 0.0265,-0.005 0.1958,-0.0503 0.12436,-0.0212 -0.0714,0.0291 -0.12965,-0.0529 -0.0159,0.0291 0.17463,0.12171 0.33338,0.254 0.48155,0.40481 0.27252,0.26988 0.62441,0.6985 1.01335,0.75142 -0.10054,-0.0132 0.16933,0.0317 0.16933,0.0317 -0.10583,-0.18256 -0.14816,-0.23548 -0.12435,-0.1614 -0.003,0.0317 -0.0132,0.0609 -0.0317,0.0847 -0.0556,0.11377 -0.18786,0.18521 -0.29104,0.24871 -0.17198,0.10848 -0.40746,0.18256 -0.55298,0.32544 -0.25929,0.25929 -0.46567,0.61383 -0.67998,0.90752 l 0.14287,-0.14288 c -0.17462,0.12171 -0.43127,0.24077 -0.55827,0.41275 -0.127,0.17198 -0.16933,0.44979 -0.23283,0.65617 -0.0423,0.13494 0.005,0.28575 0.10319,0.38629 l 0.24871,0.26194 -0.11642,-0.28046 -0.0132,0.23813 0.11642,-0.28046 c -0.127,0.13758 -0.3228,0.13493 -0.46038,0.2831 -0.14817,0.15875 -0.254,0.36248 -0.3466,0.55563 -0.10584,0.2196 -0.09,0.38629 -0.0767,0.61912 0.0609,1.21973 0.12171,2.43946 0.18256,3.65919 0.0265,0.508 0.82021,0.51064 0.79375,0 v 0 z"
         id="path8"
         style="fill:#002ddc;fill-opacity:1;stroke-width:0.945358" />
      <path
         class="b"
         d="m 134.44505,167.7977 c 0.0899,0.0344 0.17727,0.0714 0.26723,0.10848 -0.11113,-0.045 0.0185,0.008 0.0582,0.0238 0.0529,0.0238 0.10848,0.0476 0.1614,0.0714 0.11906,0.0529 0.23548,0.10848 0.3519,0.16404 0.25929,0.127 0.51593,0.25929 0.75935,0.41275 0.11906,0.0741 0.23283,0.15081 0.3466,0.23283 0.0371,0.0265 -0.0159,-0.0106 -0.0185,-0.0132 0.0132,0.0106 0.0238,0.0185 0.037,0.0291 0.0238,0.0185 0.0476,0.037 0.0688,0.0582 0.045,0.0397 0.09,0.082 0.13229,0.127 0.0185,0.0185 0.0344,0.0397 0.0529,0.0582 0.0503,0.0476 -0.0344,-0.0608 0,-0.003 0.0106,0.0185 0.0265,0.0397 0.037,0.0582 0.0106,0.0159 0.0476,0.0952 0.0185,0.0291 -0.0317,-0.0688 0.008,0.005 0.003,0.0185 -0.0159,0.0661 0.005,-0.0529 0,-0.0291 -0.003,0.0159 0,0.0423 0,0.0582 0,0.0899 0.0132,-0.0106 0.005,-0.0185 0.0132,0.0159 -0.0238,0.0952 -0.0291,0.11642 -0.0106,0.0635 0.0212,-0.0344 0.0132,-0.0291 -0.0132,0.0106 -0.0212,0.0397 -0.0291,0.0556 -0.008,0.0159 -0.0238,0.0291 -0.0291,0.045 0.0159,-0.037 0.0609,-0.0661 0.0159,-0.0238 -0.0132,0.0106 -0.0291,0.0264 -0.0397,0.0397 -0.0291,0.0397 0.0767,-0.045 0.0106,-0.008 -0.0318,0.0159 -0.0794,0.037 -0.10583,0.0609 -0.0132,0.0106 0.0847,-0.0265 0.0132,-0.005 -0.0265,0.008 -0.0503,0.0185 -0.0767,0.0238 -0.0476,0.0132 -0.0979,0.0185 -0.14817,0.0317 0.0609,-0.0159 0.0503,-0.005 -0.003,0 -0.0344,0 -0.0688,0.005 -0.10055,0.005 -0.13758,0.005 -0.27781,-0.003 -0.41275,-0.0212 0.0688,0.0106 -0.0212,-0.005 -0.045,-0.008 -0.0397,-0.008 -0.0794,-0.0132 -0.11642,-0.0212 -0.09,-0.0185 -0.17992,-0.0397 -0.26988,-0.0635 -0.6932,-0.18256 -1.3282,-0.50006 -1.9685,-0.81491 -0.19314,-0.0953 -0.42862,-0.0529 -0.54239,0.14287 -0.10319,0.17463 -0.0503,0.44715 0.14287,0.5424 0.65088,0.32014 1.3044,0.64558 2.0029,0.84931 0.61119,0.17992 1.37054,0.32279 1.96585,0.005 0.47096,-0.25135 0.68263,-0.84667 0.43921,-1.32821 -0.13229,-0.26458 -0.37571,-0.46037 -0.60854,-0.635 -0.25135,-0.18785 -0.52388,-0.3466 -0.79904,-0.49212 -0.43656,-0.23019 -0.889,-0.43392 -1.34938,-0.61119 -0.20108,-0.0767 -0.43656,0.0847 -0.48948,0.27781 -0.0608,0.2249 0.0767,0.41011 0.27782,0.48948 v 0 z"
         id="path10"
         style="fill:#002ddc;fill-opacity:1;stroke-width:0.945358" />
      <path
         class="b"
         d="m 136.42942,170.04666 c 0,0.12964 -0.003,0.26193 -0.005,0.39158 0,0.0979 0,0.19844 0,0.29633 0,0.0688 0.0106,0.14288 0.005,0.21167 l 0.0132,-0.10583 c 0,0 0,0.0106 -0.005,0.0185 l 0.0397,-0.0952 c 0,0 -0.008,0.0159 -0.0132,0.0238 l 0.0608,-0.0794 c 0,0 -0.0212,0.0238 -0.0344,0.0317 l 0.0794,-0.0608 c -0.0317,0.0238 -0.0661,0.0397 -0.10319,0.0556 l 0.0952,-0.0397 c -0.11377,0.0476 -0.23812,0.0714 -0.35983,0.0873 l 0.10583,-0.0132 c -0.18785,0.0238 -0.37835,0.0265 -0.56885,0 l 0.10583,0.0132 c -0.0688,-0.0106 -0.13494,-0.0238 -0.20373,-0.0423 l 0.29104,0.38365 v -1.16946 c 0,-0.20637 -0.18256,-0.40746 -0.39687,-0.39687 -0.21431,0.0106 -0.39688,0.17462 -0.39688,0.39687 v 1.16946 c 0,0.17463 0.12436,0.33602 0.29105,0.38365 0.24341,0.0661 0.508,0.0873 0.75935,0.0688 0.25135,-0.0185 0.48683,-0.0609 0.70908,-0.16934 0.10055,-0.0476 0.19844,-0.12964 0.254,-0.22754 0.0556,-0.0979 0.0662,-0.20108 0.0609,-0.30956 -0.005,-0.1561 0,-0.31221 0,-0.47096 0,-0.11641 0,-0.23283 0.005,-0.34925 0.003,-0.20637 -0.18521,-0.40746 -0.39688,-0.39687 -0.21166,0.0106 -0.39422,0.17462 -0.39687,0.39687 v 0 z"
         id="path12"
         style="fill:#002ddc;fill-opacity:1;stroke-width:0.945358" />
      <path
         class="b"
         d="m 139.13875,198.06074 c 0.51065,0 0.51065,-0.79375 0,-0.79375 -0.51064,0 -0.51064,0.79375 0,0.79375 z"
         id="path14"
         style="fill:#002ddc;fill-opacity:1;stroke-width:0.945358" />
      <path
         class="b"
         d="m 125.17405,190.44074 3.20675,0.68527 0.46302,0.0979 -0.29104,-0.38365 -0.0106,2.83369 -0.0159,4.49791 v 1.03453 c -0.005,0.51064 0.78846,0.51064 0.7911,0 l 0.0106,-2.83369 0.0159,-4.49792 v -1.03452 c 0.005,-0.16669 -0.11906,-0.3466 -0.2884,-0.38365 l -3.20675,-0.68527 -0.46302,-0.0979 c -0.20902,-0.045 -0.42862,0.0608 -0.48948,0.27781 -0.0556,0.19844 0.0661,0.4445 0.27782,0.48948 z"
         id="path16"
         style="fill:#002ddc;fill-opacity:1;stroke-width:0.945358" />
      <path
         class="b"
         d="m 124.50994,162.4002 c 0.47625,0.18521 1.00277,0.26987 1.50284,0.34925 1.57956,0.24606 3.18558,0.27252 4.77837,0.18521 1.41552,-0.0767 2.82575,-0.24871 4.2254,-0.47625 0.21166,-0.0344 0.33073,-0.29634 0.27781,-0.48948 -0.0609,-0.2249 -0.27517,-0.31221 -0.48948,-0.27782 -2.14313,0.34925 -4.32594,0.55563 -6.50081,0.47625 -0.36777,-0.0132 -0.73819,-0.0344 -1.10332,-0.0688 -0.15875,-0.0132 -0.3175,-0.0291 -0.47625,-0.0476 -0.0688,-0.008 -0.13758,-0.0159 -0.20637,-0.0265 -0.0185,0 -0.0344,-0.005 -0.0529,-0.008 -0.0556,-0.008 0.082,0.0132 0.0265,0.003 -0.037,-0.005 -0.0767,-0.0106 -0.11377,-0.0159 -0.40481,-0.0582 -0.80698,-0.13229 -1.20385,-0.23548 -0.15346,-0.0397 -0.30957,-0.0794 -0.45773,-0.13758 -0.19844,-0.0767 -0.43657,0.0847 -0.48948,0.27781 -0.0609,0.2249 0.0767,0.41011 0.27781,0.48948 v 0 z"
         id="path18"
         style="fill:#002ddc;fill-opacity:1;stroke-width:0.945358" />
      <path
         class="b"
         d="m 125.02059,164.00357 c 0.55562,0.19315 1.14829,0.30427 1.72773,0.39423 1.47637,0.23284 2.97921,0.26988 4.46352,0.10054 1.1086,-0.127 2.19869,-0.35454 3.26231,-0.69585 0.20373,-0.0661 0.33602,-0.27517 0.27781,-0.48948 -0.0556,-0.20108 -0.2831,-0.34396 -0.48948,-0.27781 -1.70656,0.54769 -3.4872,0.80962 -5.27843,0.76994 -0.34396,-0.008 -0.68527,-0.0265 -1.02923,-0.0556 -0.14817,-0.0132 -0.29634,-0.0265 -0.4445,-0.045 -0.0767,-0.008 -0.15346,-0.0185 -0.23019,-0.0264 -0.12435,-0.0159 0.0794,0.0106 -0.0423,-0.005 -0.0476,-0.008 -0.0952,-0.0132 -0.14288,-0.0212 -0.44185,-0.0661 -0.88106,-0.14817 -1.31498,-0.25929 -0.18521,-0.0476 -0.37306,-0.0952 -0.55298,-0.15875 -0.20108,-0.0714 -0.43391,0.0794 -0.48948,0.27781 -0.0609,0.2196 0.0741,0.41804 0.27782,0.48948 v 0 z"
         id="path20"
         style="fill:#002ddc;fill-opacity:1;stroke-width:0.945358" />
      <path
         class="b"
         d="m 131.66428,200.4367 2.56645,-0.80963 4.08252,-1.28852 0.92869,-0.29369 c 0.20373,-0.0635 0.33602,-0.27516 0.27781,-0.48947 -0.0582,-0.21432 -0.2831,-0.34132 -0.48947,-0.27782 l -2.56646,0.80963 -4.08252,1.28852 -0.92869,0.29369 c -0.20373,0.0635 -0.33602,0.27516 -0.27781,0.48947 0.0582,0.21432 0.2831,0.34132 0.48948,0.27782 z"
         id="path22"
         style="fill:#002ddc;fill-opacity:1;stroke-width:0.945358" />
      <path
         class="b"
         d="m 133.8418,201.12197 2.52148,-0.76994 3.99785,-1.22237 0.9181,-0.28046 c 0.48684,-0.14817 0.28046,-0.91546 -0.21166,-0.76465 l -2.52148,0.76994 -3.99786,1.22237 -0.9181,0.28046 c -0.48683,0.14817 -0.28046,0.91546 0.21167,0.76465 z"
         id="path24"
         style="fill:#002ddc;fill-opacity:1;stroke-width:0.945358" />
      <path
         class="b"
         d="m 135.94259,201.85486 2.59291,-0.78845 4.13015,-1.25678 0.94985,-0.28839 c 0.48684,-0.14817 0.28046,-0.91546 -0.21166,-0.76465 l -2.59292,0.78846 -4.13014,1.25677 -0.94986,0.2884 c -0.48683,0.14816 -0.28046,0.91546 0.21167,0.76464 z"
         id="path26-1"
         style="fill:#002ddc;fill-opacity:1;stroke-width:0.945358" />
      <path
         class="b"
         d="m 123.88817,184.31564 c 0.70908,0.23018 1.44992,0.381 2.18017,0.508 1.67481,0.28839 3.39196,0.40216 5.08529,0.23018 1.13242,-0.11377 2.24896,-0.34396 3.31787,-0.74083 0.20109,-0.0741 0.33867,-0.26988 0.27782,-0.48948 -0.0529,-0.19315 -0.28575,-0.3519 -0.48948,-0.27781 -1.75948,0.65352 -3.64331,0.8546 -5.51127,0.77523 -1.34938,-0.0582 -2.60086,-0.24077 -3.92113,-0.5715 -0.24606,-0.0609 -0.48948,-0.12436 -0.73025,-0.20373 -0.20373,-0.0662 -0.43391,0.0767 -0.48948,0.27781 -0.0582,0.21431 0.0714,0.42069 0.27782,0.48948 v 0 z"
         id="path28-2"
         style="fill:#002ddc;fill-opacity:1;stroke-width:0.945358" />
      <path
         class="b"
         d="m 134.56675,169.69476 c 0.11907,2.43417 0.24078,4.86833 0.35455,7.30515 0.037,0.80433 0.0767,1.60866 0.10848,2.413 0.0185,0.47095 0.0159,0.92868 0.14287,1.38906 0.127,0.46037 0.31485,0.94985 0.51594,1.40758 0.0635,0.14023 0.12435,0.28575 0.21166,0.4154 0.1323,0.19844 0.3175,0.37041 0.48684,0.53975 l -0.10319,-0.17463 0.09,0.34132 c 0.0106,0.037 0.0132,0.0952 0.0344,0.12964 0.0132,0.0212 -0.003,0.16933 -0.0106,-0.0767 0,0.0767 0.0265,-0.16139 0.0212,-0.09 -0.0132,0.0212 -0.0106,0.0185 0.008,-0.005 -0.0212,0.0265 -0.045,0.0503 -0.0714,0.0714 -0.045,0.0423 -0.0953,0.0794 -0.13759,0.12435 -0.0873,0.0873 -0.16139,0.18786 -0.23547,0.2884 -0.0847,0.11377 -0.1614,0.23283 -0.23019,0.35454 -0.0688,0.12171 -0.0741,0.27781 0,0.39952 0.26194,0.42863 0.55827,0.84667 0.78846,1.29381 0.008,0.0159 0.0159,0.0317 0.0212,0.0476 0.005,0.0159 0.0503,0.11377 0.0265,0.0582 -0.0212,-0.0529 0.0318,0.0767 0.037,0.0952 0.0212,0.0556 0.0423,0.11377 0.0635,0.16933 0.0344,0.10054 0.0662,0.20108 0.09,0.30427 0.0132,0.0582 0.0265,0.11377 0.037,0.17198 0.0106,0.0688 0,-0.09 0,0.0238 0,0.0291 0,0.0582 0.003,0.0873 0,0.0265 -0.0132,0.0979 0.005,0.005 -0.005,0.0265 -0.0106,0.0529 -0.0185,0.0794 -0.0132,0.0476 -0.0238,0.0688 -0.0529,0.11907 -0.0238,0.037 -0.0238,0.037 -0.0794,0.0899 -0.0476,0.045 0.0714,-0.0397 -0.0185,0.0159 -0.0238,0.0132 -0.0476,0.0265 -0.0714,0.0397 -0.0503,0.0291 0.0688,-0.0529 0,0 -0.008,0.008 -0.037,0.0106 -0.0476,0.0132 0.0318,-0.0106 0.1905,-0.045 -0.0423,0.005 -0.0185,0.005 -0.0344,0.008 -0.0503,0.0132 -0.14817,0.0476 -0.27252,0.15345 -0.37835,0.26723 -0.0767,0.082 -0.15611,0.17462 -0.21432,0.26987 -0.0529,0.0873 -0.0556,0.1905 -0.0688,0.29104 l -0.0635,0.48948 c -0.0185,0.13229 0.0873,0.28046 0.19579,0.34396 l 0.62177,0.3466 c 0.26194,0.14552 0.59796,-0.037 0.59796,-0.34395 v -0.0238 l -0.59796,0.34396 c 0.29105,0.15611 0.57944,0.31486 0.87048,0.47361 l -0.19579,-0.34396 c 0.0344,0.26723 0.0423,0.51593 0.0423,0.78581 l 0.008,1.64306 0.0212,4.05606 0.005,0.9578 0.29104,-0.38365 -2.87337,0.84667 -4.572,1.34937 -1.04246,0.30692 c -0.48948,0.14552 -0.28046,0.91016 0.21167,0.76464 l 2.87337,-0.84666 4.572,-1.34938 1.04246,-0.30691 c 0.16669,-0.0503 0.29104,-0.20638 0.29104,-0.38365 l -0.0159,-3.23585 -0.0185,-3.81265 c 0,-0.25929 -0.0238,-0.60325 -0.25665,-0.74612 -0.27252,-0.16669 -0.56885,-0.30957 -0.84931,-0.46303 -0.26194,-0.14287 -0.59796,0.0344 -0.59796,0.34396 v 0.0238 l 0.59796,-0.34396 -0.62177,-0.34661 0.19579,0.34396 0.0741,-0.5715 -0.0529,0.20108 c 0,0 0.0265,-0.0291 0.0265,-0.037 0,-0.008 0.0582,-0.0688 -0.0132,0.0159 0.0159,-0.0185 0.0291,-0.0344 0.0423,-0.0529 0.0291,-0.0317 0.0582,-0.0635 0.09,-0.0952 0.008,-0.008 0.0582,-0.0635 0.0291,-0.0291 -0.0212,0.0159 -0.0159,0.0132 0.0159,-0.008 l -0.0423,0.0185 c -0.13494,-0.005 0.0317,0 0.09,-0.0159 0.0423,-0.0106 0.082,-0.0291 0.12435,-0.0476 0.12171,-0.0503 0.2249,-0.11906 0.3228,-0.20637 0.40481,-0.35719 0.4445,-0.88636 0.32014,-1.37848 -0.0741,-0.2884 -0.17992,-0.59267 -0.32014,-0.85461 -0.11113,-0.20373 -0.24342,-0.39952 -0.36513,-0.59796 l -0.41804,-0.68262 v 0.39952 c 0.10319,-0.18521 0.20637,-0.34396 0.34131,-0.48154 0.2249,-0.22754 0.46831,-0.43127 0.39423,-0.78846 -0.0291,-0.14023 -0.0714,-0.2831 -0.11112,-0.42333 -0.0688,-0.23813 -0.28311,-0.39688 -0.4445,-0.5768 -0.0106,-0.0106 -0.0661,-0.0608 -0.0714,-0.0794 0.0159,0.0476 0.0608,0.0926 0.037,0.045 -0.0106,-0.0212 -0.0265,-0.0423 -0.0397,-0.0661 -0.045,-0.0794 -0.0847,-0.16404 -0.12435,-0.24871 -0.0212,-0.0423 -0.0397,-0.0873 -0.0582,-0.13229 -0.0106,-0.0265 -0.0238,-0.0529 -0.0344,-0.0794 0.0291,0.0661 0.003,0.008 0,-0.005 -0.0503,-0.12436 -0.10054,-0.25136 -0.14816,-0.37571 -0.09,-0.24606 -0.17463,-0.49213 -0.24342,-0.74613 -0.0291,-0.10318 -0.0529,-0.20637 -0.0741,-0.31221 -0.005,-0.0238 -0.008,-0.0476 -0.0132,-0.0741 -0.0106,-0.0582 0.005,0.0979 0,0.0106 0,-0.0397 -0.005,-0.0767 -0.005,-0.11641 -0.008,-0.56886 -0.0423,-1.13771 -0.0661,-1.70656 -0.0556,-1.22238 -0.11377,-2.44475 -0.17198,-3.66978 -0.0794,-1.66952 -0.16139,-3.33904 -0.24342,-5.0112 -0.0106,-0.21432 -0.17462,-0.39688 -0.39687,-0.39688 -0.20638,0 -0.40746,0.18256 -0.39688,0.39688 v 0 z"
         id="path30-9"
         style="fill:#002ddc;fill-opacity:1;stroke-width:0.945358" />
      <path
         class="b"
         d="m 135.24673,167.41405 c -0.0661,-1.33085 -0.13229,-2.66435 -0.19843,-3.99521 l -0.0529,0.20109 c 0.0688,-0.15346 0.14552,-0.31221 0.24077,-0.45244 0.0238,-0.0344 0.037,-0.0265 0.045,-0.0582 -0.0106,0.0397 -0.13494,0.0556 -0.0159,0.037 0.15082,-0.0238 0.31486,-0.15346 0.42069,-0.26193 0.14288,-0.14288 0.16669,-0.35455 0.15875,-0.55034 -0.0106,-0.23019 -0.21696,-0.38629 -0.36512,-0.54239 l 0.10318,0.38629 c 0.0476,-0.14817 0.0979,-0.29898 0.14023,-0.44715 0.0423,-0.14816 -0.0556,0.0794 0.0132,-0.0344 0.0159,-0.0265 0.13494,-0.20638 0.12436,-0.23813 -0.008,-0.0238 -0.0873,0.10054 -0.0265,0.0317 0.0212,-0.0265 0.0423,-0.0529 0.0635,-0.0767 l 0.17992,-0.21431 c 0.0318,-0.037 0.12435,-0.11642 0.14022,-0.16669 0,-0.005 -0.11906,0.0794 -0.037,0.0291 0.0317,-0.0185 0.0609,-0.0423 0.09,-0.0609 0.32808,-0.22489 0.61648,-0.44714 0.889,-0.74083 0.22754,-0.24606 0.39158,-0.55563 0.28575,-0.89958 -0.0423,-0.13494 -0.11906,-0.254 -0.22489,-0.34661 -0.127,-0.11112 -0.26194,-0.12171 -0.41275,-0.17992 l 0.17462,0.10319 -0.005,-0.005 -0.0794,0.62442 c -0.17462,0.0344 -0.23018,0.0503 -0.16668,0.0476 0.32279,-0.005 0.55033,-0.44185 0.28045,-0.67733 -0.34395,-0.30163 -0.6641,-0.63236 -1.016,-0.9234 -0.29104,-0.24341 -0.53445,-0.42598 -0.92868,-0.33337 -0.20902,0.0503 -0.40482,0.14023 -0.60325,0.22225 h 0.21166 c -0.62441,-0.17992 -1.25148,-0.38894 -1.83885,-0.66675 -0.64294,-0.30427 -1.22238,-0.75936 -1.76477,-1.21709 l 0.11642,0.28046 c -0.005,-0.0503 0,-0.15346 -0.0238,-0.19314 -0.0423,-0.0635 -0.037,0.10848 -0.0106,0.0344 0.0132,-0.0397 0.0185,-0.0847 0.0265,-0.12435 0.0344,-0.16933 0.0423,-0.34396 -0.0106,-0.51329 -0.0212,-0.0714 -0.0635,-0.12965 -0.0952,-0.19844 -0.0238,-0.0503 0,-0.0291 -0.0291,-0.0794 l -0.0132,-0.0476 c 0.008,0.0688 -0.0291,0.127 -0.11112,0.17198 0.0344,0.0132 0.1905,-0.10848 0.22754,-0.13229 0.12964,-0.0794 0.254,-0.1614 0.37571,-0.254 0.39423,-0.29898 0.55827,-0.68263 0.55562,-1.18004 0,-0.5715 -0.29369,-1.016 -0.74877,-1.3335 -0.37306,-0.2593 -0.7911,-0.45509 -1.2065,-0.6403 -0.23283,-0.10318 -0.4789,-0.23812 -0.7276,-0.30162 -0.24871,-0.0635 -0.5768,0.16933 -0.78582,0.30427 -0.23018,0.14817 -0.45243,0.32015 -0.65881,0.50271 -0.36248,0.3175 -0.72231,0.70379 -0.92075,1.14829 -0.21431,0.4736 -0.19579,0.96837 0.254,1.29117 0.33338,0.23812 0.70379,0.47625 1.08215,0.64029 l -0.18257,-0.23813 0.1323,0.74613 0.10318,-0.38629 c -0.14552,0.17727 -0.37306,0.39952 -0.3757,0.64558 -0.005,0.44979 0.46831,0.43921 0.78052,0.39423 l -0.48948,-0.48948 c -0.0238,0.0635 0.045,-0.09 0.0159,-0.0397 -0.0212,0.0397 -0.0397,0.0847 -0.0608,0.12436 -0.0688,0.13229 -0.14552,0.25664 -0.23019,0.37835 -0.254,0.36513 -0.6006,0.6641 -0.99483,0.87048 -0.48948,0.25665 -1.05834,0.4101 -1.5875,0.57415 -0.19579,0.0608 -0.39159,0.1217 -0.59002,0.16668 l 0.5027,0.38365 v -0.15081 c 0,-0.15875 -0.1217,-0.35719 -0.29104,-0.38365 -0.28046,-0.045 -0.58208,-0.11642 -0.86783,-0.10848 -0.30956,0.008 -0.65881,0.30427 -0.84402,0.53711 -0.0688,0.0873 0.10583,-0.0609 0.0238,-0.0132 -0.045,0.0265 -0.0873,0.0609 -0.13229,0.09 l -0.38365,0.26459 c -0.20637,0.14287 -0.35454,0.29369 -0.51064,0.49212 -0.254,0.32809 -0.51329,0.85196 -0.18256,1.22238 0.2487,0.28046 0.70643,0.20637 0.97102,0.47096 0.24077,0.23812 0.29633,0.635 0.57943,0.83608 0.20638,0.14817 0.37836,0.23019 0.61384,0.30956 0.0635,0.0212 0.10848,0.0609 0.17198,0.0767 0.0529,0.0132 0.0397,0.0714 -0.008,-0.0794 -0.0476,-0.15082 -0.0185,-0.0661 -0.0926,0.005 0.008,-0.008 0.0952,-0.0582 -0.005,-0.0132 -0.0794,0.0344 -0.13758,0.0476 -0.20373,0.11112 -0.0926,0.0847 -0.13493,0.1905 -0.15345,0.31221 -0.0318,0.21961 0.0397,0.47096 0.19843,0.62706 0.15875,0.15611 0.43392,0.15346 0.65088,0.18257 l -0.38365,-0.29104 c 0.10848,0.35189 0.35719,0.60589 0.58209,0.89164 l -0.11642,-0.28046 c 0.0106,0.97102 0.0185,1.9394 0.0212,2.90777 0,1.77271 0.003,3.54277 0,5.31548 0,1.97644 -0.003,3.95288 -0.0185,5.93196 -0.005,0.59531 -0.008,1.19327 -0.0238,1.78858 0,0.0767 -0.005,0.15082 -0.008,0.22755 -0.003,0.0767 -0.0106,0.17727 0.005,0.0159 -0.0397,0.43921 -0.0847,0.87048 -0.17992,1.29381 -0.0688,0.30957 -0.16404,0.61648 -0.30956,0.89959 -0.17198,0.33073 -0.39688,0.56091 -0.65352,0.82285 -0.27517,0.27781 -0.26988,0.66146 -0.11113,0.99748 0.0556,0.11642 0.127,0.2196 0.20638,0.32015 0.0609,0.0767 0.0635,0.0741 0.0926,0.12435 0.0503,0.082 0.0741,0.12171 0.0741,0.21431 0,0.18521 -0.11906,0.34925 -0.22225,0.49742 -0.22754,0.32544 -0.45508,0.65087 -0.61383,1.016 -0.15875,0.36512 -0.23812,0.77787 -0.0635,1.15623 0.16404,0.35719 0.52652,0.63235 0.87842,0.78846 0.20108,0.09 0.42068,0.15875 0.64558,0.16139 l -0.34396,-0.19579 c 0.0317,0.0767 0.0582,0.16404 0.10054,0.23548 0.0159,0.0291 0.24342,0.23283 0.0873,0.10583 0.0423,0.0344 0.0847,0.0714 0.127,0.10584 0.0238,0.0212 0.0476,0.045 0.0714,0.0688 -0.0423,-0.0635 -0.0556,-0.14023 -0.037,-0.22754 0.005,0 -0.045,0.13493 -0.0185,0.0741 -0.0529,0.12171 -0.15081,0.19315 -0.26723,0.25135 -0.30691,0.15611 -0.64029,0.2593 -0.94721,0.41275 -0.22225,0.11113 -0.27252,0.3228 -0.35189,0.53975 l 0.18256,-0.23812 -0.31221,0.16933 c -0.12171,0.0661 -0.19579,0.20638 -0.19579,0.34396 l -0.0265,6.51933 v 0.93398 c -0.005,0.18257 0.12171,0.32809 0.2884,0.38365 1.80975,0.60854 3.62214,1.21444 5.43189,1.82033 1.48167,0.49477 2.96069,0.99484 4.43971,1.50548 0.91281,0.31486 1.82563,0.63236 2.73844,0.94721 0.48419,0.16669 0.69056,-0.59796 0.21167,-0.76465 -1.77007,-0.61383 -3.53748,-1.23295 -5.31019,-1.83356 -1.64042,-0.55562 -3.28613,-1.09537 -4.92919,-1.64571 -0.7911,-0.26458 -1.57956,-0.52916 -2.37067,-0.79639 l 0.29105,0.38364 0.0264,-6.51933 v -0.93398 l -0.19314,0.34396 c 0.11642,-0.0635 0.24871,-0.11642 0.35189,-0.19844 0.13759,-0.11112 0.18521,-0.32014 0.24607,-0.48154 l -0.18257,0.23813 c 0.508,-0.21432 1.15623,-0.381 1.48961,-0.84932 0.12435,-0.17727 0.24077,-0.44714 0.17727,-0.66675 -0.0635,-0.2196 -0.2884,-0.38629 -0.47096,-0.52387 l 0.14288,0.14287 -0.10319,-0.24341 c -0.0529,-0.12436 -0.21696,-0.1958 -0.34396,-0.1958 -0.10583,0 0.0238,0.0159 -0.0953,-0.0132 -0.14817,-0.0397 -0.28046,-0.0926 -0.4101,-0.17728 -0.31486,-0.21166 -0.3863,-0.41539 -0.24607,-0.76464 0.28575,-0.71967 1.1139,-1.31498 0.88107,-2.16958 -0.0344,-0.127 -0.0979,-0.25136 -0.17198,-0.35984 -0.0397,-0.0582 -0.0847,-0.11112 -0.127,-0.16669 -0.008,-0.008 -0.0556,-0.0714 -0.0265,-0.0318 0.0212,0.0291 -0.045,-0.0661 -0.0582,-0.0926 -0.0238,-0.0423 -0.0556,-0.0847 -0.0582,-0.12965 -0.0159,-0.17197 -0.008,-0.0212 -0.003,-0.0291 0.0238,-0.0503 0.1561,-0.13229 0.19843,-0.17462 0.51065,-0.51859 0.81757,-1.2065 0.97102,-1.9103 0.0635,-0.29368 0.10319,-0.59266 0.13494,-0.89164 0.0106,-0.0952 0.0185,-0.1905 0.0291,-0.28575 0.005,-0.0423 0.0159,-0.13759 0.003,-0.037 0,-0.0185 0.005,-0.037 0.008,-0.0556 0.0238,-0.15081 0.0265,-0.29898 0.0318,-0.44979 0.0159,-0.60854 0.0185,-1.21708 0.0238,-1.82562 0.0159,-2.02407 0.0159,-4.04548 0.0185,-6.06954 0,-1.76742 0,-3.53219 -0.003,-5.29961 0,-0.28839 0,-0.57679 0,-0.86519 0,-0.38629 -0.008,-0.77258 -0.0106,-1.15887 l -0.005,-0.61648 c 0,-0.18521 -0.0635,-0.32015 -0.17727,-0.46831 -0.11377,-0.14817 -0.24342,-0.30692 -0.36248,-0.46038 l 0.10319,0.17463 -0.0556,-0.17992 c -0.0582,-0.18521 -0.20109,-0.26723 -0.38365,-0.29104 0.15346,0.0212 -0.0423,-0.005 -0.0741,-0.0106 -0.0582,-0.008 -0.12171,-0.0106 -0.17727,-0.0317 l 0.17462,0.10318 c 0,0 0.0212,0.0767 0.0132,0.0238 -0.0106,-0.0609 -0.0132,0.0979 -0.0714,0.15081 l -0.17462,0.10319 c 0.61119,-0.17728 0.96044,-0.98425 0.32544,-1.37055 -0.10584,-0.0635 -0.22225,-0.10848 -0.33867,-0.14816 -0.0423,-0.0132 -0.16933,-0.0794 -0.21696,-0.0635 -0.0106,0.003 0.0953,0.0767 0.045,0.0132 -0.0238,-0.0291 -0.082,-0.0556 -0.11377,-0.0767 l -0.18521,-0.12436 0.14288,0.14288 c -0.1323,-0.22754 -0.26194,-0.46302 -0.41275,-0.67998 -0.19315,-0.27517 -0.48155,-0.42333 -0.78846,-0.53975 -0.0344,-0.0132 -0.30956,-0.13229 -0.34396,-0.10583 0.0714,0.1561 0.11112,0.19314 0.11906,0.11377 0.0238,-0.0741 0.0265,-0.09 0.008,-0.0503 0.0185,-0.0476 0.0529,-0.0926 0.0794,-0.1323 0.0609,-0.0899 0.1323,-0.17462 0.20373,-0.25664 0.0106,-0.0132 0.0714,-0.0635 0.0714,-0.0794 -0.003,0.0344 -0.11642,0.082 -0.0423,0.0344 0.27781,-0.17727 0.58473,-0.36513 0.82021,-0.59531 0.0714,-0.0688 0.14552,-0.14552 0.22489,-0.20638 0.0265,-0.0185 0.0529,-0.037 0.0794,-0.0556 0.0714,-0.0344 0.0476,-0.0344 -0.0688,0 l 0.10583,0.005 c 0.18521,0.0159 0.37042,0.045 0.55298,0.0741 l -0.29104,-0.38364 v 0.15081 c 0,0.26723 0.254,0.44185 0.5027,0.38365 0.2249,-0.0529 0.44715,-0.12171 0.66675,-0.19315 0.60855,-0.19315 1.27,-0.37306 1.82298,-0.6985 0.66411,-0.38629 1.23032,-1.02129 1.50813,-1.74096 0.12171,-0.3175 -0.2249,-0.52652 -0.48948,-0.48948 0.12171,-0.0185 0.005,0.0106 0,0 -0.0159,0 -0.0317,0.003 -0.0476,0.003 -0.0609,0 -0.0344,0.0132 0.0767,0.0397 l 0.1958,0.34395 c -0.0503,0.14817 -0.0556,0.18257 -0.0132,0.10848 0.0159,-0.0238 0.0344,-0.0503 0.0503,-0.0741 0.0265,-0.037 0.037,-0.0476 0.0714,-0.0926 0.10848,-0.14023 0.16405,-0.24607 0.13494,-0.43127 -0.0291,-0.18521 -0.0688,-0.38365 -0.10319,-0.5768 -0.0344,-0.19314 -0.0847,-0.32808 -0.26193,-0.42598 -0.20109,-0.11112 -0.40217,-0.21695 -0.59532,-0.33866 -0.14552,-0.09 -0.36512,-0.22754 -0.44185,-0.29369 0.0238,0.0185 0.008,0.008 0.008,0.005 -0.008,-0.0291 -0.008,-0.0238 0,0.0159 0,-0.0265 0,-0.0503 0,-0.0767 -0.0106,0.0714 0.0212,-0.0847 0.0238,-0.10054 0.0185,-0.0556 0.0318,-0.082 0.0529,-0.127 0.0609,-0.11907 0.13493,-0.23548 0.21696,-0.34132 0.39158,-0.50535 0.93133,-0.93133 1.51341,-1.19591 l -0.30691,0.0397 c 0.33337,0.127 0.61383,0.25136 0.94985,0.41275 0.4154,0.20373 1.05833,0.4445 1.14035,0.96044 0.0185,0.12171 0.0132,0.24871 -0.0132,0.36777 -0.0106,0.045 -0.0238,0.0873 -0.0344,0.13229 -0.008,0.0238 -0.0159,0.0476 -0.0238,0.0714 0.0238,-0.0503 0.0238,-0.0529 0,-0.0106 -0.1323,0.13494 -0.41805,0.29898 -0.62177,0.42333 -0.30163,0.18256 -0.39423,0.46831 -0.29898,0.80434 0.0318,0.11377 0.0847,0.23018 0.14287,0.33337 0.0529,0.0926 0.005,-0.10583 -0.008,-0.005 -0.005,0.0397 0.0185,0.0979 0.0265,0.14023 v -0.21167 c -0.045,0.21167 -0.0714,0.38365 -0.0423,0.59796 0.0344,0.26987 0.21696,0.37571 0.41539,0.53446 0.58209,0.46566 1.1774,0.90752 1.86532,1.20385 0.56091,0.24077 1.15093,0.47361 1.7436,0.62442 0.23019,0.0582 0.39158,-0.045 0.60061,-0.127 0.0767,-0.0291 0.15345,-0.0556 0.23283,-0.0741 0,0 0.10583,-0.0159 0.11377,-0.0265 -0.22225,0.24606 -0.2249,-0.10054 -0.14817,-0.0106 0.0344,0.0423 0.11377,0.0741 0.15875,0.10584 0.381,0.29368 0.71702,0.65881 1.0795,0.97631 l 0.28046,-0.67733 c -0.0873,0 -0.1561,0.0185 -0.23548,0.0608 -0.24341,0.13229 -0.23283,0.43392 -0.0794,0.62442 0.0238,0.0291 0.254,0.18256 0.3175,0.14552 -0.0423,0.0238 -0.037,-0.0714 -0.0529,-0.0556 -0.0132,0.0159 -0.0212,0.0476 -0.037,0.0661 -0.13758,0.15875 -0.35719,0.29369 -0.47361,0.46567 -0.0397,0.0582 0.10055,-0.045 0.045,-0.0344 -0.0185,0.005 -0.0608,0.0423 -0.0767,0.0529 l -0.23283,0.15875 c -0.0979,0.0661 -0.19844,0.12964 -0.28046,0.21696 -0.19579,0.20637 -0.39158,0.44185 -0.52652,0.69321 -0.13494,0.25135 -0.20108,0.50535 -0.28575,0.77258 -0.0423,0.13494 0.005,0.28575 0.10319,0.38629 l 0.24871,0.26194 -0.11642,-0.28046 -0.0132,0.23812 0.11642,-0.28045 c -0.127,0.13758 -0.32279,0.13493 -0.46038,0.2831 -0.14816,0.15875 -0.254,0.36248 -0.3466,0.55563 -0.10583,0.2196 -0.09,0.38629 -0.0767,0.61912 0.0609,1.21973 0.12171,2.43946 0.18256,3.65919 0.0265,0.508 0.82021,0.51064 0.79375,0 v 0 z"
         id="path32-96"
         style="fill:#002ddc;fill-opacity:1;stroke-width:0.945358" />
      <path
         class="b"
         d="m 134.64613,167.7977 c 0.10054,0.037 0.20108,0.0767 0.29898,0.11906 0.0212,0.008 0.0423,0.0185 0.0635,0.0265 0.0132,0.005 0.10319,0.045 0.045,0.0185 -0.0582,-0.0265 0.0265,0.0106 0.0397,0.0159 0.0318,0.0132 0.0609,0.0265 0.0926,0.0397 0.12965,0.0556 0.25929,0.11642 0.38629,0.17727 0.28046,0.13229 0.55563,0.27517 0.81756,0.43921 0.0609,0.037 0.12171,0.0767 0.17992,0.11642 0.0265,0.0185 0.0529,0.037 0.0794,0.0556 0.0238,0.0185 0.11112,0.0847 0.0423,0.0318 0.0926,0.0767 0.17462,0.1614 0.25929,0.24342 0.0476,0.045 -0.0397,-0.0688 0.003,0.005 0.0106,0.0185 0.0238,0.037 0.037,0.0556 0.0397,0.0609 0.008,0.0397 0,-0.0106 0,0.0132 0.0132,0.0556 0.0185,0.0635 0,0 0,-0.0979 -0.005,-0.0238 0,0.0185 -0.003,0.0397 0,0.0582 0.005,0.0582 0.0265,-0.0979 0.003,-0.0212 -0.005,0.0212 -0.0106,0.0423 -0.0159,0.0635 -0.003,0.0159 -0.0265,0.0979 -0.005,0.0212 0.0185,-0.0661 0.005,-0.008 -0.008,0.0106 -0.0106,0.0159 -0.0212,0.0318 -0.0291,0.0476 -0.0318,0.0662 0.0609,-0.0556 0.005,-0.005 -0.0132,0.0132 -0.0265,0.0265 -0.0397,0.0423 -0.045,0.0503 -0.0344,0.0185 0.0132,-0.005 -0.0423,0.0212 -0.082,0.0529 -0.12436,0.0767 -0.0503,0.0291 -0.0344,0.008 0.0132,-0.003 -0.0265,0.005 -0.0529,0.0185 -0.0794,0.0265 -0.0529,0.0159 -0.10848,0.0238 -0.1614,0.0397 -0.0635,0.0159 0.0767,-0.005 -0.0185,0 -0.0291,0 -0.0582,0.005 -0.09,0.005 -0.0741,0.003 -0.15081,0.003 -0.22489,0 -0.0741,-0.003 -0.15611,-0.0106 -0.23284,-0.0212 0.0714,0.0106 -0.0476,-0.008 -0.0688,-0.0132 -0.0476,-0.008 -0.0952,-0.0185 -0.14287,-0.0265 -0.20638,-0.045 -0.41011,-0.10319 -0.60854,-0.16933 -0.40746,-0.13759 -0.79111,-0.32809 -1.18798,-0.49478 l -0.69586,-0.28839 c -0.19844,-0.082 -0.43656,0.09 -0.48948,0.27781 -0.0635,0.22754 0.0794,0.40481 0.27782,0.48948 l 0.66145,0.27517 c 0.045,0.0185 0.0926,0.037 0.13759,0.0582 0.0106,0.005 0.0212,0.008 0.0318,0.0132 -0.0159,-0.008 -0.0635,-0.0318 -0.005,0.003 0.045,0.0265 0.0979,0.045 0.14552,0.0661 0.26723,0.1217 0.53975,0.23548 0.81756,0.33337 0.67469,0.23813 1.51871,0.45244 2.21192,0.1614 0.48418,-0.20373 0.85195,-0.762 0.65087,-1.29382 -0.11642,-0.30956 -0.36777,-0.52916 -0.62442,-0.72495 -0.25664,-0.1958 -0.54239,-0.35719 -0.83079,-0.508 -0.46302,-0.24077 -0.94721,-0.45244 -1.43669,-0.635 -0.20108,-0.0741 -0.43391,0.082 -0.48947,0.27781 -0.0609,0.22225 0.0767,0.41275 0.27781,0.48948 v 0 z"
         id="path34-6"
         style="fill:#002ddc;fill-opacity:1;stroke-width:0.945358" />
      <path
         class="b"
         d="m 136.71253,170.04666 c 0,0.12964 -0.003,0.26193 -0.005,0.39158 0,0.0979 0,0.19844 0,0.29633 0,0.0688 0.0106,0.14288 0.005,0.21167 l 0.0132,-0.10583 c 0,0 0,0.0106 -0.005,0.0185 l 0.0397,-0.0952 c 0,0 -0.008,0.0159 -0.0132,0.0238 l 0.0609,-0.0794 c 0,0 -0.0212,0.0238 -0.0344,0.0317 l 0.0794,-0.0608 c -0.0317,0.0238 -0.0661,0.0397 -0.10318,0.0556 l 0.0952,-0.0397 c -0.11377,0.0476 -0.23813,0.0714 -0.35984,0.0873 l 0.10584,-0.0132 c -0.18786,0.0238 -0.37836,0.0265 -0.56886,0 l 0.10584,0.0132 c -0.0688,-0.0106 -0.13494,-0.0238 -0.20373,-0.0423 l 0.29104,0.38365 v -1.16946 c 0,-0.20637 -0.18256,-0.40746 -0.39688,-0.39687 -0.21431,0.0106 -0.39687,0.17462 -0.39687,0.39687 v 1.16946 c 0,0.17463 0.12435,0.33602 0.29104,0.38365 0.24342,0.0661 0.508,0.0873 0.75935,0.0688 0.25136,-0.0185 0.48684,-0.0609 0.70909,-0.16934 0.10054,-0.0476 0.19844,-0.12964 0.254,-0.22754 0.0556,-0.0979 0.0661,-0.20108 0.0608,-0.30956 -0.005,-0.1561 0,-0.31221 0,-0.47096 0,-0.11641 0,-0.23283 0.005,-0.34925 0.003,-0.20637 -0.1852,-0.40746 -0.39687,-0.39687 -0.21167,0.0106 -0.39423,0.17462 -0.39688,0.39687 v 0 z"
         id="path36-0"
         style="fill:#002ddc;fill-opacity:1;stroke-width:0.945358" />
      <path
         class="b"
         d="m 129.33859,191.22655 1.92352,-0.33073 3.06917,-0.52916 0.70908,-0.12171 c 0.21167,-0.037 0.33073,-0.29634 0.27781,-0.48948 -0.0609,-0.22225 -0.27517,-0.31486 -0.48948,-0.27781 l -1.92352,0.33073 -3.06917,0.52916 -0.70908,0.12171 c -0.21167,0.037 -0.33073,0.29633 -0.27781,0.48948 0.0609,0.22225 0.27517,0.31485 0.48948,0.27781 z"
         id="path38-8"
         style="fill:#002ddc;fill-opacity:1;stroke-width:0.945358" />
      <path
         class="b"
         d="m 131.94738,200.4367 2.46062,-0.80698 3.92642,-1.28588 0.90752,-0.29898 c 0.20373,-0.0661 0.33602,-0.27516 0.27781,-0.48947 -0.0556,-0.19844 -0.2831,-0.34396 -0.48947,-0.27782 l -2.46063,0.80698 -3.92642,1.28588 -0.90752,0.29898 c -0.20373,0.0661 -0.33602,0.27516 -0.27781,0.48947 0.0556,0.19844 0.2831,0.34396 0.48948,0.27782 z"
         id="path40"
         style="fill:#002ddc;fill-opacity:1;stroke-width:0.945358" />
      <path
         class="b"
         d="m 124.17128,184.31564 c 0.68262,0.23547 1.40229,0.38629 2.11137,0.51329 1.6219,0.28839 3.28613,0.39423 4.92919,0.22489 1.11389,-0.11641 2.21191,-0.3466 3.25966,-0.73818 0.20109,-0.0741 0.33867,-0.26988 0.27782,-0.48948 -0.0529,-0.19315 -0.28575,-0.3519 -0.48948,-0.27782 -1.73302,0.64294 -3.58246,0.85725 -5.42396,0.77523 -1.29117,-0.0582 -2.50296,-0.24077 -3.76767,-0.57414 -0.23018,-0.0609 -0.46037,-0.12436 -0.68527,-0.20109 -0.20373,-0.0688 -0.43391,0.0794 -0.48948,0.27782 -0.0609,0.21695 0.0741,0.41804 0.27782,0.48948 z"
         id="path42"
         style="fill:#002ddc;fill-opacity:1;stroke-width:0.945358" />
    </g>
  </g>
</svg>
