<?xml version="1.0" encoding="UTF-8" standalone="no"?>
<!-- Created with Inkscape (http://www.inkscape.org/) -->

<svg
   width="100"
   height="100"
   viewBox="0 0 26.458333 26.458334"
   version="1.1"
   id="svg127350"
   inkscape:export-filename="C:\Users\Agathe\Desktop\commerces.png"
   inkscape:export-xdpi="200"
   inkscape:export-ydpi="200"
   inkscape:version="1.1 (c68e22c387, 2021-05-23)"
   sodipodi:docname="FONTAINE_ALBIEN_white.svg"
   xmlns:inkscape="http://www.inkscape.org/namespaces/inkscape"
   xmlns:sodipodi="http://sodipodi.sourceforge.net/DTD/sodipodi-0.dtd"
   xmlns="http://www.w3.org/2000/svg"
   xmlns:svg="http://www.w3.org/2000/svg">
  <sodipodi:namedview
     id="namedview127352"
     pagecolor="#ffffff"
     bordercolor="#666666"
     borderopacity="1.0"
     inkscape:pageshadow="2"
     inkscape:pageopacity="0"
     inkscape:pagecheckerboard="0"
     inkscape:document-units="mm"
     showgrid="false"
     units="px"
     inkscape:zoom="5.9722783"
     inkscape:cx="54.250653"
     inkscape:cy="31.562494"
     inkscape:window-width="2400"
     inkscape:window-height="1271"
     inkscape:window-x="2391"
     inkscape:window-y="-9"
     inkscape:window-maximized="1"
     inkscape:current-layer="layer1" />
  <defs
     id="defs127347" />
  <g
     inkscape:label="Calque 1"
     inkscape:groupmode="layer"
     id="layer1">
    <g
       id="g44"
       transform="matrix(0.08138305,0,0,0.08138305,2.3145025,-0.75456859)"
       style="stroke-width:3.25109;fill:#ffffff">
      <path
         style="color:#000000;fill:#ffffff;stroke-width:3.25109;-inkscape-stroke:none"
         d="m 178.01,225.66 v -13.64 l 0.02,-21.72 v -4.95 c 0,-0.81 -0.68,-1.5 -1.5,-1.5 h -7.36 c -0.81,0 -1.5,0.69 -1.5,1.5 v 32.14 l 1.1,-1.45 -13.64,2.55 -1.93,0.36 c -0.64,0.12 -1.1,0.83 -1.1,1.45 v 3.69 c 0,1.93 3,1.93 3,0 v -3.69 l -1.1,1.45 13.64,-2.55 1.93,-0.36 c 0.64,-0.12 1.1,-0.83 1.1,-1.45 v -32.14 l -1.5,1.5 h 7.36 l -1.5,-1.5 v 13.64 l -0.02,21.72 v 4.95 c 0,1.93 3,1.93 3,0 z"
         id="path26" />
      <path
         style="color:#000000;fill:#ffffff;stroke-width:3.25109;-inkscape-stroke:none"
         d="m 208.37,172.74 c 0.16,-2.04 -0.34,-4.2 -1.18,-6.04 -1.84,-4.06 -6.01,-5.9 -10.3,-5.94 -2.31,-0.02 -4.63,0.46 -6.66,1.59 -1.7,0.95 -3.09,2.33 -4.2,3.92 -1.79,2.57 -2.75,5.71 -3.18,8.79 -0.47,3.39 -0.25,6.87 -0.25,10.27 v 36.14 c 0,1.93 3,1.93 3,0 v -41.28 c 0,-0.95 -0.03,-1.9 0.01,-2.84 0.02,-0.35 0.04,-0.7 0.08,-1.05 0.02,-0.19 0,-0.54 0.08,-0.7 -0.13,0.25 -0.05,0.34 -0.01,0.12 0.01,-0.07 0.02,-0.15 0.03,-0.22 0.02,-0.15 0.05,-0.31 0.07,-0.46 0.24,-1.42 0.61,-2.82 1.12,-4.17 0.06,-0.16 0.13,-0.32 0.19,-0.49 -0.16,0.4 0.1,-0.22 0.15,-0.32 0.17,-0.38 0.36,-0.74 0.56,-1.1 0.19,-0.33 0.39,-0.66 0.6,-0.98 0.12,-0.18 0.26,-0.36 0.38,-0.54 0.22,-0.31 -0.21,0.24 0.04,-0.05 0.07,-0.08 0.14,-0.17 0.21,-0.26 0.27,-0.31 0.55,-0.61 0.85,-0.9 0.17,-0.16 0.34,-0.31 0.51,-0.45 0,0 0.3,-0.24 0.12,-0.1 -0.17,0.13 0.19,-0.14 0.22,-0.16 0.36,-0.25 0.73,-0.48 1.11,-0.68 0.22,-0.11 0.44,-0.22 0.66,-0.32 -0.05,0.02 -0.28,0.11 -0.01,0 0.16,-0.06 0.32,-0.12 0.48,-0.18 0.46,-0.16 0.93,-0.28 1.41,-0.38 0.23,-0.05 0.46,-0.09 0.69,-0.12 -0.33,0.05 0.15,-0.01 0.17,-0.01 0.2,-0.02 0.39,-0.03 0.59,-0.04 0.6,-0.03 1.21,-0.03 1.81,0.01 0.27,0.02 0.54,0.04 0.81,0.08 -0.28,-0.04 0.21,0.04 0.22,0.04 0.2,0.03 0.39,0.07 0.58,0.12 0.5,0.11 0.97,0.27 1.45,0.44 0.06,0.02 0.27,0.11 0,0 0.12,0.05 0.23,0.1 0.34,0.16 0.22,0.11 0.43,0.22 0.64,0.35 0.21,0.13 0.39,0.25 0.58,0.38 0.06,0.04 0.35,0.28 0.06,0.04 0.06,0.05 0.12,0.09 0.17,0.14 0.32,0.29 0.63,0.58 0.91,0.91 0.07,0.08 0.13,0.16 0.2,0.24 -0.26,-0.32 -0.04,-0.04 0,0.02 0.09,0.14 0.19,0.27 0.28,0.42 0.21,0.33 0.38,0.67 0.55,1.02 0.04,0.08 0.16,0.39 0,-0.01 0.03,0.09 0.07,0.17 0.1,0.26 0.05,0.14 0.11,0.28 0.15,0.43 0.11,0.33 0.2,0.66 0.28,1 0.07,0.28 0.12,0.57 0.17,0.86 0.01,0.07 0.02,0.15 0.03,0.22 0.03,0.19 0.04,-0.09 -0.02,-0.19 0.06,0.1 0.04,0.35 0.05,0.47 0.04,0.39 0.05,0.78 0.05,1.17 0,0.14 0,0.28 -0.01,0.42 -0.06,0.81 0.73,1.5 1.5,1.5 0.86,0 1.44,-0.69 1.5,-1.5 v 0 z"
         id="path28" />
      <path
         style="color:#000000;fill:#ffffff;stroke-width:3.25109;-inkscape-stroke:none"
         d="m 168.79,177.76 h 7.85 c 0.83,0 1.48,-0.69 1.5,-1.5 0.04,-1.54 0.08,-3.08 0.21,-4.62 0.04,-0.44 0.09,-0.89 0.14,-1.33 0.04,-0.35 -0.04,0.25 0,-0.02 0.02,-0.11 0.03,-0.22 0.05,-0.33 0.04,-0.24 0.08,-0.48 0.12,-0.71 0.17,-0.94 0.39,-1.87 0.67,-2.79 0.14,-0.47 0.31,-0.93 0.49,-1.39 0.04,-0.11 0.09,-0.22 0.13,-0.33 -0.11,0.27 -0.04,0.09 0.03,-0.07 0.11,-0.24 0.22,-0.47 0.33,-0.7 0.23,-0.45 0.48,-0.89 0.75,-1.32 0.13,-0.21 0.27,-0.41 0.41,-0.62 0.07,-0.1 0.15,-0.2 0.22,-0.3 0.02,-0.03 0.13,-0.18 0.01,-0.02 -0.14,0.18 0.05,-0.07 0.08,-0.1 0.69,-0.84 1.46,-1.61 2.31,-2.27 -0.23,0.18 0.02,-0.01 0.12,-0.08 0.11,-0.08 0.23,-0.16 0.34,-0.24 0.25,-0.17 0.51,-0.34 0.77,-0.49 0.53,-0.32 1.09,-0.6 1.65,-0.86 0.06,-0.03 0.12,-0.05 0.18,-0.08 0.21,-0.09 -0.21,0.08 0.01,0 0.15,-0.06 0.3,-0.12 0.45,-0.18 0.33,-0.13 0.67,-0.24 1,-0.35 0.7,-0.22 1.4,-0.4 2.12,-0.55 1.62,-0.34 3.05,-0.48 4.78,-0.53 0.87,-0.03 1.73,-0.03 2.6,0.02 0.86,0.05 1.28,0.1 2,0.23 0.68,0.12 1.35,0.28 2.01,0.48 0.28,0.09 0.56,0.18 0.83,0.28 0.17,0.06 0.33,0.13 0.49,0.19 0.02,0 0.22,0.09 0.06,0.02 -0.18,-0.08 0.18,0.08 0.17,0.08 0.53,0.24 1.04,0.51 1.54,0.81 0.24,0.14 0.47,0.3 0.7,0.45 0.11,0.08 0.22,0.16 0.34,0.24 0.06,0.05 0.13,0.09 0.19,0.14 0.18,0.13 -0.27,-0.23 0.02,0.01 0.83,0.7 1.59,1.44 2.27,2.28 0.1,0.12 0.18,0.24 0.03,0.04 0.07,0.1 0.15,0.2 0.22,0.3 0.15,0.21 0.3,0.43 0.45,0.65 0.28,0.43 0.54,0.88 0.79,1.34 0.22,0.41 0.42,0.84 0.61,1.26 0.03,0.06 0.05,0.12 0.08,0.18 0,0 -0.12,-0.29 -0.06,-0.13 0.04,0.1 0.09,0.21 0.13,0.31 0.09,0.22 0.17,0.44 0.25,0.67 0.53,1.5 0.89,3.04 1.13,4.61 0.06,0.4 -0.04,-0.38 0.01,0.11 0.02,0.15 0.03,0.29 0.05,0.44 0.03,0.24 0.05,0.48 0.06,0.73 0.02,0.3 0.03,0.6 0.04,0.9 0,0.04 0,0.08 0,0.12 -0.01,1.93 2.99,1.93 3,0 0.02,-2.22 -0.42,-4.53 -1.06,-6.65 -1.31,-4.33 -3.89,-8.31 -7.84,-10.65 -2.58,-1.53 -5.55,-2.26 -8.52,-2.44 -3.44,-0.21 -7.08,0.14 -10.37,1.19 -2.56,0.82 -4.97,2.13 -6.92,4.01 -1.69,1.63 -2.93,3.63 -3.82,5.8 -1.46,3.54 -1.77,7.43 -1.88,11.22 0,0.35 -0.02,0.7 -0.03,1.06 l 1.5,-1.5 h -7.85 c -1.93,0 -1.93,3 0,3 v 0 z"
         id="path30" />
      <path
         style="color:#000000;fill:#ffffff;stroke-width:3.25109;-inkscape-stroke:none"
         d="m 72.46,172.74 c 0,-0.31 0.02,-0.63 0.05,-0.94 0.01,-0.16 0.03,-0.33 0.05,-0.49 0,-0.08 0.02,-0.17 0.03,-0.25 0.05,-0.42 -0.06,0.36 0,0.02 0.07,-0.46 0.15,-0.93 0.24,-1.39 0.24,-1.16 0.57,-2.29 1,-3.39 0.06,-0.15 0.13,-0.3 0.18,-0.46 0.07,-0.2 -0.16,0.35 -0.03,0.06 0.04,-0.08 0.07,-0.17 0.11,-0.25 0.14,-0.32 0.29,-0.63 0.45,-0.94 0.33,-0.65 0.71,-1.28 1.12,-1.88 0.11,-0.16 0.21,-0.31 0.33,-0.46 0.05,-0.07 0.1,-0.14 0.15,-0.21 0.21,-0.29 -0.21,0.25 0.02,-0.03 0.25,-0.3 0.5,-0.61 0.76,-0.9 0.56,-0.61 1.16,-1.16 1.8,-1.68 0.05,-0.04 0.36,-0.27 0.06,-0.05 0.08,-0.06 0.16,-0.12 0.24,-0.18 0.18,-0.13 0.36,-0.25 0.54,-0.38 0.38,-0.25 0.76,-0.49 1.16,-0.7 0.4,-0.21 0.83,-0.44 1.26,-0.63 0.08,-0.04 0.16,-0.07 0.24,-0.11 -0.31,0.14 0.1,-0.04 0.14,-0.06 0.25,-0.1 0.51,-0.2 0.77,-0.29 2.25,-0.79 4.27,-1.09 6.56,-1.17 1.36,-0.05 2.75,0.03 4,0.26 0.6,0.11 1.2,0.26 1.78,0.44 0.58,0.18 0.92,0.32 1.34,0.52 0.51,0.25 1,0.53 1.47,0.85 0.11,0.08 0.22,0.16 0.33,0.24 0.22,0.16 -0.1,-0.09 0.17,0.14 0.22,0.19 0.43,0.38 0.64,0.58 0.37,0.36 0.72,0.75 1.05,1.16 -0.21,-0.26 0.05,0.08 0.08,0.11 0.08,0.1 0.15,0.21 0.22,0.32 0.15,0.21 0.29,0.43 0.42,0.65 0.29,0.48 0.56,0.98 0.81,1.49 0.11,0.24 0.22,0.48 0.33,0.72 0.04,0.08 0.07,0.16 0.1,0.24 -0.13,-0.31 0.08,0.2 0.1,0.25 0.41,1.03 0.76,2.09 1.1,3.15 0.5,1.58 2.95,1.34 2.95,-0.4 v -28.34 l 0.02,-24.28 V 86.25 c 0,-1.08 0.07,-2.18 0.01,-3.25 0,-0.05 0,-0.09 0,-0.14 l -1.9,1.45 6.24,2.26 14.86,5.37 18.08,6.54 15.54,5.62 5.16,1.86 c 0.81,0.29 1.62,0.64 2.44,0.88 0.04,0.01 0.07,0.03 0.1,0.04 l -1.1,-1.45 -0.06,5 -0.15,12.02 -0.19,14.55 -0.16,12.59 c -0.03,2.04 -0.13,4.1 -0.08,6.15 0,0.03 0,0.06 0,0.09 -0.02,1.93 2.98,1.93 3,0 l 0.06,-5 0.15,-12.02 0.19,-14.55 0.16,-12.59 c 0.03,-2.04 0.15,-4.11 0.08,-6.15 0,-0.03 0,-0.06 0,-0.09 0,-0.7 -0.48,-1.22 -1.1,-1.45 l -6.24,-2.26 -14.86,-5.37 -18.08,-6.54 -15.54,-5.62 -5.16,-1.86 c -0.81,-0.29 -1.62,-0.63 -2.44,-0.88 -0.04,-0.01 -0.07,-0.03 -0.1,-0.04 -0.93,-0.34 -1.9,0.53 -1.9,1.45 v 28.34 l -0.02,24.28 v 27.83 c 0,1.08 -0.07,2.18 -0.01,3.25 0,0.05 0,0.09 0,0.14 l 2.95,-0.4 c -1.31,-4.15 -3.02,-8.3 -6.74,-10.85 -4.39,-3.01 -10.52,-2.98 -15.52,-1.78 -3.86,0.93 -7.48,2.98 -10.03,6.06 -1.95,2.37 -3.31,5.16 -4.07,8.13 -0.4,1.57 -0.71,3.24 -0.71,4.86 0,1.93 3,1.93 3,0 v 0 z"
         id="path32" />
      <path
         style="color:#000000;fill:#ffffff;stroke-width:3.25109;-inkscape-stroke:none"
         d="m 146.94,220.7 -4.2,0.85 -10.08,2.05 -12.13,2.47 -10.55,2.15 c -1.69,0.34 -3.46,0.58 -5.13,1.04 -0.02,0 -0.05,0 -0.07,0.01 l 1.9,1.45 v -4.79 c 0,-0.98 -0.96,-1.7 -1.9,-1.45 l -4.83,1.29 1.9,1.45 c 0.09,-4.26 0.18,-8.52 0.27,-12.78 0.16,-7.76 0.31,-15.52 0.43,-23.29 0.04,-2.9 0.09,-5.79 0.1,-8.69 0,-1.41 -0.06,-2.82 -0.06,-4.23 0,-3.05 -0.08,-6.16 -0.98,-9.1 -1.19,-3.86 -3.87,-7.01 -7.91,-7.99 -4.56,-1.11 -9.89,-0.05 -13.21,3.39 -1.92,1.98 -3.23,4.66 -3.69,7.38 -0.05,0.27 -0.09,0.54 -0.11,0.82 -0.08,0.81 0.75,1.5 1.5,1.5 0.88,0 1.42,-0.69 1.5,-1.5 0,-0.04 0,-0.07 0.01,-0.11 -0.11,0.73 -0.03,0.19 0,0.01 0.07,-0.41 0.17,-0.82 0.28,-1.23 0.07,-0.26 0.15,-0.52 0.24,-0.77 0.05,-0.15 0.11,-0.31 0.17,-0.46 0.04,-0.11 0.28,-0.65 0.08,-0.2 0.31,-0.67 0.64,-1.33 1.04,-1.95 0.11,-0.17 0.23,-0.34 0.36,-0.51 0.01,-0.02 0.22,-0.29 0.08,-0.1 -0.14,0.19 0.07,-0.09 0.08,-0.1 0.29,-0.34 0.59,-0.67 0.91,-0.98 0.17,-0.16 0.34,-0.31 0.52,-0.46 0.06,-0.05 0.12,-0.1 0.18,-0.15 -0.28,0.23 0.03,-0.02 0.08,-0.05 0.41,-0.29 0.83,-0.55 1.28,-0.79 0.23,-0.12 0.47,-0.24 0.71,-0.34 -0.25,0.11 -0.03,0.01 0.02,0 0.13,-0.05 0.26,-0.1 0.39,-0.14 0.56,-0.19 1.13,-0.34 1.7,-0.45 0.98,-0.19 2.3,-0.25 3.52,-0.16 0.15,0.01 0.3,0.03 0.45,0.04 0.47,0.04 -0.17,-0.03 0.1,0.01 0.25,0.04 0.5,0.08 0.75,0.14 0.51,0.11 1,0.27 1.49,0.44 0.39,0.14 -0.27,-0.14 0.1,0.04 0.09,0.04 0.18,0.08 0.27,0.13 0.19,0.1 0.38,0.2 0.57,0.31 0.19,0.11 0.36,0.22 0.53,0.34 0.08,0.05 0.15,0.11 0.23,0.16 -0.32,-0.23 0.07,0.06 0.13,0.11 0.31,0.26 0.59,0.54 0.86,0.84 0.12,0.14 0.23,0.27 0.35,0.42 -0.25,-0.31 0.2,0.29 0.27,0.4 0.22,0.33 0.41,0.67 0.59,1.03 0.08,0.16 0.16,0.32 0.23,0.49 0.03,0.07 0.17,0.41 0.02,0.04 0.05,0.13 0.11,0.27 0.16,0.4 0.29,0.77 0.51,1.57 0.68,2.38 0.08,0.38 0.15,0.76 0.21,1.15 0.02,0.1 0.03,0.21 0.05,0.31 0,-0.04 -0.04,-0.36 -0.01,-0.09 0.03,0.24 0.06,0.47 0.08,0.71 0.13,1.36 0.16,2.73 0.16,4.1 0,4.01 0.04,8.02 -0.02,12.04 -0.11,7.57 -0.26,15.15 -0.41,22.72 -0.1,4.85 -0.28,9.7 -0.31,14.55 0,0.08 0,0.15 0,0.23 -0.02,0.98 0.98,1.69 1.9,1.45 l 4.83,-1.29 -1.9,-1.45 v 4.79 c 0,1.03 0.96,1.64 1.9,1.45 l 4.2,-0.85 10.08,-2.05 12.13,-2.47 10.55,-2.15 c 1.7,-0.35 3.45,-0.6 5.13,-1.04 0.02,0 0.05,0 0.07,-0.01 0.79,-0.16 1.25,-1.1 1.05,-1.85 -0.23,-0.83 -1.05,-1.21 -1.85,-1.05 v 0 z"
         id="path34" />
      <path
         style="color:#000000;fill:#ffffff;stroke-width:3.25109;-inkscape-stroke:none"
         d="m 126.66,173.08 c -0.04,-0.49 -0.02,-0.98 0.02,-1.47 0.01,-0.19 0.01,-0.91 0.03,-0.34 0,-0.26 0.09,-0.57 0.14,-0.83 0.13,-0.61 0.31,-1.2 0.52,-1.79 0.03,-0.07 0.06,-0.14 0.09,-0.21 -0.16,0.41 -0.04,0.1 0,0.01 0.07,-0.14 0.14,-0.29 0.21,-0.43 0.17,-0.32 0.35,-0.63 0.56,-0.93 0.04,-0.05 0.08,-0.11 0.12,-0.16 0.19,-0.29 -0.22,0.25 0.01,-0.02 0.11,-0.13 0.22,-0.27 0.34,-0.4 0.27,-0.29 0.56,-0.56 0.87,-0.81 -0.3,0.25 0.16,-0.11 0.24,-0.17 0.16,-0.11 0.33,-0.21 0.5,-0.31 0.19,-0.11 0.39,-0.22 0.6,-0.31 0.1,-0.05 0.19,-0.09 0.29,-0.13 -0.31,0.14 0.12,-0.04 0.19,-0.06 0.46,-0.17 0.93,-0.3 1.41,-0.4 0.25,-0.05 0.5,-0.1 0.75,-0.13 -0.22,0.03 0.04,0 0.07,0 0.22,-0.02 0.44,-0.04 0.66,-0.06 0.52,-0.03 1.04,-0.05 1.56,-0.02 0.21,0 0.41,0.03 0.62,0.05 0.41,0.03 -0.31,-0.06 0.08,0 0.12,0.02 0.23,0.04 0.35,0.06 0.38,0.07 0.75,0.17 1.11,0.29 0.18,0.06 0.35,0.13 0.52,0.19 0.35,0.12 -0.29,-0.15 0.05,0.02 0.1,0.05 0.2,0.09 0.29,0.14 0.34,0.17 0.66,0.36 0.97,0.56 0.16,0.11 0.32,0.22 0.48,0.34 -0.32,-0.24 0.17,0.15 0.27,0.23 0.26,0.23 0.52,0.48 0.75,0.74 0.12,0.13 0.24,0.26 0.35,0.39 0.07,0.08 0.47,0.61 0.23,0.27 0.44,0.6 0.84,1.22 1.2,1.88 0.18,0.33 0.34,0.66 0.5,1 0.07,0.16 0.15,0.32 0.22,0.48 0.09,0.21 -0.14,-0.35 0,-0.02 0.04,0.11 0.09,0.23 0.14,0.34 0.52,1.33 0.91,2.7 1.22,4.09 0.15,0.68 0.27,1.36 0.38,2.04 0.02,0.15 0.04,0.3 0.07,0.46 0.05,0.37 -0.05,-0.38 0.01,0.1 0.03,0.25 0.06,0.5 0.09,0.76 0.04,0.36 0.07,0.72 0.09,1.08 0.02,0.22 0,0.59 0.08,0.77 0.21,0.5 0.49,0.89 1.05,1.05 0.49,0.14 1.11,0 1.46,-0.39 0.35,-0.39 0.44,-0.83 0.44,-1.32 0,-0.37 0.11,-0.26 -0.05,0.13 l -1.45,1.1 v 0 l -1.45,-1.1 c -0.02,-0.06 -0.03,-0.57 -0.05,-0.29 0,0.08 0,0.17 0,0.26 0,0.32 0.01,0.64 0.02,0.96 0.02,1.15 0.03,2.31 0.05,3.46 0.05,3.78 0.09,7.56 0.14,11.34 0.05,4.54 0.1,9.07 0.15,13.61 0.04,3.92 0.09,7.84 0.13,11.76 0.02,1.91 -0.02,3.83 0.06,5.74 0,0.03 0,0.05 0,0.08 0.02,1.93 3.02,1.93 3,0 -0.02,-1.57 -0.03,-3.14 -0.05,-4.7 -0.04,-3.77 -0.08,-7.53 -0.12,-11.3 -0.05,-4.56 -0.1,-9.11 -0.15,-13.67 -0.05,-3.94 -0.09,-7.88 -0.14,-11.82 -0.02,-1.91 0.04,-3.84 -0.09,-5.75 -0.01,-0.15 0,-0.33 -0.06,-0.47 -0.27,-0.7 -0.72,-1.01 -1.45,-1.1 v 0 c -0.7,-0.09 -1.22,0.54 -1.45,1.1 -0.05,0.12 -0.2,1.53 -0.01,0.53 l 0.39,-0.66 v 0 l 2.51,0.66 c 0.16,0.39 0.05,0.51 0.04,0.29 0,-0.1 -0.01,-0.2 -0.02,-0.3 -0.02,-0.33 -0.05,-0.66 -0.09,-0.99 -0.13,-1.23 -0.3,-2.45 -0.55,-3.67 -0.61,-3.04 -1.63,-6.14 -3.43,-8.7 -2.2,-3.11 -5.44,-5.08 -9.3,-5.13 -4.14,-0.05 -8.28,1.56 -10.32,5.34 -1.05,1.96 -1.65,4.41 -1.47,6.65 0.06,0.81 0.64,1.5 1.5,1.5 0.76,0 1.56,-0.69 1.5,-1.5 v 0 z"
         id="path36" />
      <path
         style="color:#000000;fill:#ffffff;stroke-width:3.25109;-inkscape-stroke:none"
         d="m 155.1,224.1 v -42.55 c 0,-1.53 0,-3.05 0.05,-4.58 0.11,-3.61 -0.03,-7.28 -0.92,-10.8 -1.11,-4.36 -3.54,-8.42 -7.55,-10.67 -2.48,-1.4 -5.31,-2.02 -8.13,-2.18 -2.98,-0.16 -6.1,0.17 -8.89,1.29 -4.48,1.81 -7.65,5.32 -9.48,9.73 -1.08,2.6 -1.68,5.46 -1.79,8.28 0,0.15 -0.01,0.3 -0.01,0.45 0.01,1.93 3.01,1.93 3,0 0,-0.56 0.04,-1.13 0.1,-1.69 0.01,-0.12 0.03,-0.25 0.04,-0.37 0,-0.07 0.02,-0.14 0.03,-0.21 0.04,-0.34 -0.04,0.28 -0.01,0.08 0.05,-0.32 0.1,-0.65 0.16,-0.97 0.14,-0.76 0.31,-1.52 0.52,-2.27 0.24,-0.85 0.53,-1.68 0.87,-2.5 -0.11,0.26 -0.06,0.13 0.02,-0.05 0.05,-0.11 0.09,-0.21 0.14,-0.32 0.1,-0.21 0.2,-0.42 0.31,-0.63 0.23,-0.44 0.47,-0.88 0.73,-1.3 0.26,-0.42 0.54,-0.82 0.83,-1.22 0.2,-0.28 -0.11,0.12 0.06,-0.08 0.08,-0.1 0.16,-0.2 0.24,-0.29 0.18,-0.21 0.36,-0.41 0.55,-0.61 0.36,-0.38 0.74,-0.74 1.13,-1.09 0.1,-0.09 0.21,-0.17 0.31,-0.26 0.27,-0.22 -0.11,0.07 0.11,-0.09 0.22,-0.16 0.44,-0.32 0.67,-0.48 0.49,-0.33 1,-0.62 1.53,-0.89 0.25,-0.12 0.5,-0.24 0.75,-0.35 -0.27,0.12 0.1,-0.04 0.18,-0.07 0.17,-0.06 0.33,-0.13 0.5,-0.18 0.61,-0.21 1.24,-0.39 1.87,-0.53 0.74,-0.17 1.37,-0.26 1.91,-0.32 1.52,-0.15 3.06,-0.15 4.59,0 0.18,0.02 0.36,0.04 0.53,0.06 0.26,0.03 -0.2,-0.03 0.05,0 0.07,0.01 0.15,0.02 0.22,0.03 0.36,0.06 0.71,0.12 1.06,0.2 0.62,0.14 1.23,0.3 1.83,0.51 0.14,0.05 0.29,0.1 0.43,0.15 0.08,0.03 0.43,0.17 0.29,0.11 -0.15,-0.06 0.23,0.1 0.28,0.13 0.15,0.07 0.3,0.14 0.44,0.21 0.49,0.25 0.97,0.53 1.43,0.84 0.11,0.08 0.22,0.15 0.33,0.23 0.07,0.05 0.39,0.3 0.11,0.07 0.2,0.16 0.41,0.33 0.6,0.5 0.4,0.35 0.77,0.73 1.12,1.13 0.15,0.18 0.3,0.36 0.45,0.54 -0.24,-0.3 0,0.01 0.06,0.08 0.08,0.12 0.17,0.23 0.25,0.35 0.29,0.43 0.56,0.87 0.81,1.32 0.25,0.45 0.45,0.89 0.65,1.34 0.11,0.25 -0.1,-0.27 0.03,0.08 0.04,0.12 0.09,0.23 0.14,0.35 0.09,0.23 0.17,0.46 0.25,0.7 0.32,0.94 0.57,1.91 0.76,2.89 0.09,0.47 0.17,0.94 0.24,1.42 0.03,0.2 0.04,0.34 0,0.05 0.01,0.12 0.03,0.23 0.04,0.35 0.03,0.25 0.06,0.49 0.08,0.74 0.16,1.67 0.2,3.34 0.18,5.02 -0.03,1.56 -0.08,3.12 -0.08,4.69 v 43.59 c 0,1.93 3,1.93 3,0 v 0 z"
         id="path38" />
      <path
         style="color:#000000;fill:#ffffff;stroke-width:3.25109;stroke-linecap:round;stroke-linejoin:round;-inkscape-stroke:none"
         d="m 105.09961,165.21094 a 1.5,1.5 0 0 0 -1.5,1.5 v 48.57812 a 1.5,1.5 0 0 0 1.5,1.5 1.5,1.5 0 0 0 1.5,-1.5 v -48.57812 a 1.5,1.5 0 0 0 -1.5,-1.5 z"
         id="line40" />
      <path
         style="color:#000000;fill:#ffffff;stroke-width:3.25109;stroke-linecap:round;stroke-linejoin:round;-inkscape-stroke:none"
         d="m 176.6582,174.75977 a 1.5,1.5 0 0 0 -1.51758,1.48242 l -0.11132,9.08984 a 1.5,1.5 0 0 0 1.48242,1.51758 1.5,1.5 0 0 0 1.51758,-1.48242 l 0.11132,-9.08985 a 1.5,1.5 0 0 0 -1.48242,-1.51757 z"
         id="line42" />
    </g>
  </g>
</svg>
