<?xml version="1.0" encoding="UTF-8" standalone="no"?>
<!-- Created with Inkscape (http://www.inkscape.org/) -->

<svg
   width="100"
   height="100"
   viewBox="0 0 26.458333 26.458334"
   version="1.1"
   id="svg127350"
   inkscape:export-filename="C:\Users\Agathe\Desktop\commerces.png"
   inkscape:export-xdpi="200"
   inkscape:export-ydpi="200"
   inkscape:version="1.1 (c68e22c387, 2021-05-23)"
   sodipodi:docname="FONTAINE_TOTEM_white.svg"
   xmlns:inkscape="http://www.inkscape.org/namespaces/inkscape"
   xmlns:sodipodi="http://sodipodi.sourceforge.net/DTD/sodipodi-0.dtd"
   xmlns="http://www.w3.org/2000/svg"
   xmlns:svg="http://www.w3.org/2000/svg">
  <sodipodi:namedview
     id="namedview127352"
     pagecolor="#ffffff"
     bordercolor="#666666"
     borderopacity="1.0"
     inkscape:pageshadow="2"
     inkscape:pageopacity="0"
     inkscape:pagecheckerboard="0"
     inkscape:document-units="mm"
     showgrid="false"
     units="px"
     inkscape:zoom="5.9722783"
     inkscape:cx="54.250653"
     inkscape:cy="85.143387"
     inkscape:window-width="2400"
     inkscape:window-height="1271"
     inkscape:window-x="2391"
     inkscape:window-y="-9"
     inkscape:window-maximized="1"
     inkscape:current-layer="layer1" />
  <defs
     id="defs127347" />
  <g
     inkscape:label="Calque 1"
     inkscape:groupmode="layer"
     id="layer1">
    <g
       id="g995"
       transform="matrix(0.07436815,0,0,0.07436815,2.9852775,1.3136754)"
       style="stroke-width:3.55774;fill:#ffffff">
      <path
         style="color:#000000;fill:#ffffff;stroke-width:3.55774;-inkscape-stroke:none"
         d="m 131.08,149.13 c -2.73,0.2 -5.46,0.5 -8.17,0.87 -2.29,0.31 -4.58,0.66 -6.84,1.15 -1.79,0.39 -3.62,0.85 -5.27,1.68 -2.03,1.02 -3.72,3.17 -2.48,5.46 0.59,1.09 1.69,1.87 2.76,2.44 1.66,0.88 3.48,1.44 5.3,1.88 5.69,1.38 11.65,1.76 17.49,1.94 5.84,0.18 11.57,0.05 17.33,-0.43 4.93,-0.42 9.94,-1.02 14.69,-2.42 2.85,-0.84 6.76,-2.15 7.9,-5.23 0.56,-1.51 -0.17,-3.12 -1.37,-4.09 -1.37,-1.12 -3.11,-1.69 -4.82,-2.09 -3.07,-0.71 -6.28,-0.95 -9.43,-0.99 -0.19,0 -0.39,0 -0.58,0 -1.93,0.02 -1.93,3.02 0,3 2.19,-0.02 4.39,0.15 6.57,0.4 0.4,0.05 -0.33,-0.05 0.07,0 0.08,0.01 0.16,0.02 0.24,0.03 0.24,0.03 0.47,0.07 0.71,0.11 0.43,0.07 0.86,0.15 1.29,0.25 0.81,0.17 1.61,0.39 2.39,0.67 0.11,0.04 0.62,0.26 0.22,0.08 0.15,0.07 0.3,0.13 0.45,0.21 0.31,0.15 0.58,0.34 0.88,0.51 0.26,0.15 -0.24,-0.24 -0.03,-0.03 0.05,0.05 0.11,0.09 0.16,0.14 0.11,0.1 0.2,0.22 0.31,0.31 0.16,0.14 -0.07,-0.09 -0.09,-0.12 0.04,0.06 0.09,0.12 0.13,0.19 0.03,0.05 0.06,0.11 0.09,0.16 0.17,0.26 -0.06,-0.3 -0.02,-0.06 0,0.05 0.13,0.31 0.09,0.35 -0.04,0.06 0.03,-0.45 -0.02,-0.1 0.08,-0.53 0.06,-0.27 0.03,-0.17 -0.03,0.1 -0.08,0.23 -0.09,0.33 -0.02,0.2 -0.16,-0.23 0.08,-0.18 0,0 -0.1,0.21 -0.11,0.23 -0.05,0.1 -0.12,0.19 -0.17,0.28 -0.19,0.31 0.24,-0.25 -0.02,0.03 -0.2,0.22 -0.4,0.42 -0.62,0.61 -0.33,0.3 0.21,-0.13 -0.12,0.1 -0.12,0.08 -0.24,0.17 -0.36,0.25 -0.29,0.19 -0.59,0.36 -0.9,0.52 -0.34,0.18 -0.69,0.33 -1.04,0.49 -0.07,0.03 -0.26,0.11 0.05,-0.02 -0.1,0.04 -0.21,0.09 -0.31,0.13 -0.22,0.09 -0.44,0.17 -0.66,0.25 -1.84,0.66 -3.75,1.13 -5.66,1.52 -1.14,0.23 -2.29,0.43 -3.44,0.6 -1.15,0.17 -2.21,0.31 -3.51,0.45 -5.37,0.59 -10.79,0.82 -16.2,0.79 -5.41,-0.03 -11.25,-0.25 -16.76,-1.12 -2.21,-0.35 -4.42,-0.79 -6.54,-1.51 -0.36,-0.12 -0.72,-0.26 -1.07,-0.4 -0.07,-0.03 -0.41,-0.18 -0.03,-0.01 -0.06,-0.03 -0.12,-0.05 -0.19,-0.08 -0.19,-0.09 -0.38,-0.17 -0.57,-0.27 -0.27,-0.14 -0.54,-0.28 -0.79,-0.44 -0.11,-0.07 -0.22,-0.14 -0.32,-0.21 -0.06,-0.04 -0.12,-0.1 -0.18,-0.13 0.33,0.18 0.2,0.16 0.08,0.06 -0.17,-0.16 -0.34,-0.31 -0.5,-0.48 -0.26,-0.25 0.07,0.14 0.02,0.04 -0.04,-0.09 -0.11,-0.18 -0.17,-0.26 -0.19,-0.3 0.12,0 0.03,0.1 0,0 -0.06,-0.19 -0.07,-0.22 -0.07,-0.33 0.04,0.02 0,0.12 0.02,-0.06 0,-0.21 0,-0.28 -0.03,-0.28 -0.13,0.41 -0.02,0.15 0.02,-0.06 0.05,-0.15 0.06,-0.21 0.05,-0.28 -0.21,0.35 -0.05,0.11 0.05,-0.07 0.1,-0.16 0.14,-0.24 0.17,-0.33 -0.22,0.21 -0.04,0.05 0.07,-0.06 0.13,-0.14 0.19,-0.21 0.06,-0.07 0.13,-0.12 0.2,-0.19 0.03,-0.03 0.07,-0.06 0.11,-0.09 0.22,-0.2 -0.31,0.19 -0.09,0.07 0.48,-0.27 0.92,-0.57 1.43,-0.79 -0.41,0.18 0.11,-0.04 0.21,-0.08 0.17,-0.06 0.34,-0.12 0.52,-0.18 0.41,-0.14 0.83,-0.26 1.26,-0.38 1.98,-0.55 4.01,-0.92 6.04,-1.24 3.07,-0.49 6.32,-0.85 9.68,-1.13 0.19,-0.02 0.37,-0.03 0.56,-0.04 0.81,-0.06 1.5,-0.65 1.5,-1.5 0,-0.77 -0.69,-1.56 -1.5,-1.5 v 0 z"
         id="path6" />
      <path
         style="color:#000000;fill:#ffffff;stroke-width:3.55774;-inkscape-stroke:none"
         d="m 130.78,240.51 c 5.22,0.43 10.49,0.42 15.72,0 4.34,-0.35 8.92,-0.85 12.99,-2.49 1.41,-0.57 2.88,-1.27 3.86,-2.48 0.98,-1.21 1.33,-2.85 0.58,-4.3 -0.68,-1.3 -2.05,-2.03 -3.36,-2.53 -1.53,-0.59 -3.19,-0.84 -4.81,-1.04 -2.4,-0.29 -4.84,-0.39 -7.26,-0.29 -0.81,0.03 -1.5,0.67 -1.5,1.5 0,0.79 0.69,1.53 1.5,1.5 1.84,-0.08 3.7,-0.02 5.54,0.12 0.36,0.03 0.72,0.06 1.08,0.1 0.17,0.02 0.35,0.04 0.52,0.06 0.1,0.01 0.19,0.02 0.29,0.04 0.11,0.01 0.08,0 -0.11,-0.02 0.08,0.01 0.15,0.02 0.23,0.03 0.73,0.11 1.46,0.24 2.17,0.42 0.33,0.08 0.65,0.17 0.97,0.27 0.15,0.05 0.29,0.1 0.43,0.15 0.08,0.03 0.15,0.06 0.23,0.09 0.32,0.11 -0.3,-0.15 0,0 0.26,0.13 0.52,0.25 0.76,0.4 0.11,0.07 0.21,0.14 0.32,0.21 0.25,0.16 -0.24,-0.25 -0.05,-0.04 0.05,0.06 0.12,0.1 0.17,0.16 0.05,0.06 0.32,0.34 0.13,0.13 -0.19,-0.21 0.04,0.08 0.09,0.14 0.02,0.03 0.05,0.13 0.08,0.16 0.09,0.06 -0.08,-0.36 -0.06,-0.13 0,0.1 0.06,0.5 0.07,0.22 0,-0.3 -0.01,0.09 -0.01,0.17 0.01,0.38 0.1,-0.29 0,0.03 -0.02,0.05 -0.06,0.31 -0.1,0.32 -0.04,0.01 0.22,-0.36 0.07,-0.17 -0.04,0.05 -0.07,0.13 -0.1,0.19 -0.08,0.13 -0.35,0.39 -0.02,0.06 -0.09,0.09 -0.17,0.2 -0.26,0.29 -0.08,0.08 -0.16,0.15 -0.24,0.23 -0.07,0.06 -0.13,0.11 -0.2,0.17 0.15,-0.13 0.2,-0.15 0.01,-0.02 -0.56,0.38 -1.16,0.69 -1.78,0.97 -0.22,0.1 0.34,-0.13 -0.02,0 -0.07,0.03 -0.15,0.06 -0.22,0.09 -0.19,0.08 -0.39,0.15 -0.58,0.22 -0.42,0.15 -0.84,0.28 -1.26,0.4 -0.94,0.27 -1.9,0.5 -2.86,0.7 -2.22,0.45 -4.12,0.7 -6.35,0.9 -5.52,0.51 -11.1,0.53 -16.63,0.08 -0.81,-0.07 -1.5,0.74 -1.5,1.5 0,0.87 0.69,1.43 1.5,1.5 v 0 z"
         id="path8" />
      <path
         style="color:#000000;fill:#ffffff;stroke-width:3.55774;-inkscape-stroke:none"
         d="m 133.14,227.93 c -2,0.16 -4,0.41 -5.99,0.7 -2.87,0.42 -6.03,0.83 -8.63,2.2 -1.01,0.53 -2.01,1.41 -2.32,2.55 -0.38,1.43 0.33,2.76 1.42,3.64 0.63,0.51 1.51,0.62 2.12,0 0.53,-0.53 0.63,-1.61 0,-2.12 -0.19,-0.16 -0.4,-0.31 -0.55,-0.51 -0.02,-0.03 -0.15,-0.3 -0.09,-0.15 -0.02,-0.06 -0.04,-0.28 -0.01,-0.04 0.02,0.16 -0.02,0.03 -0.01,0.04 l 0.02,-0.07 c -0.06,0.1 -0.06,0.11 0,0.01 0.02,-0.04 0.14,-0.22 0.11,-0.18 0.14,-0.17 0.46,-0.38 0.71,-0.52 0.1,-0.05 0.19,-0.1 0.29,-0.15 0.13,-0.06 0.42,-0.18 0.11,-0.06 1.17,-0.47 2.4,-0.78 3.62,-1.05 1.37,-0.3 2.76,-0.53 4.15,-0.73 0.16,-0.02 0.32,-0.05 0.48,-0.07 0.09,-0.01 0.18,-0.03 0.27,-0.04 -0.02,0 -0.24,0.03 -0.06,0 0.32,-0.04 0.64,-0.08 0.96,-0.12 0.55,-0.07 1.11,-0.13 1.66,-0.19 0.55,-0.06 1.16,-0.12 1.74,-0.17 0.81,-0.07 1.5,-0.64 1.5,-1.5 0,-0.76 -0.69,-1.57 -1.5,-1.5 v 0 z"
         id="path10" />
      <path
         style="color:#000000;fill:#ffffff;stroke-width:3.55774;-inkscape-stroke:none"
         d="m 134.88,228.85 v -51.36 c 0,-2.37 0.08,-4.76 0,-7.13 0,-0.03 0,-0.07 0,-0.1 0,-1.93 -3,-1.93 -3,0 v 51.36 c 0,2.37 -0.08,4.76 0,7.13 0,0.03 0,0.07 0,0.1 0,1.93 3,1.93 3,0 z"
         id="path12" />
      <path
         style="color:#000000;fill:#ffffff;stroke-width:3.55774;-inkscape-stroke:none"
         d="m 150,228.85 v -51.52 c 0,-2.37 0.08,-4.76 0,-7.13 0,-0.03 0,-0.07 0,-0.1 0,-1.93 -3,-1.93 -3,0 v 51.52 c 0,2.37 -0.08,4.76 0,7.13 0,0.03 0,0.07 0,0.1 0,1.93 3,1.93 3,0 z"
         id="path14-2" />
      <path
         style="color:#000000;fill:#ffffff;stroke-width:3.55774;-inkscape-stroke:none"
         d="m 130.78,240.51 c 5.22,0.43 10.49,0.42 15.72,0 4.34,-0.35 8.92,-0.85 12.99,-2.49 1.41,-0.57 2.88,-1.27 3.86,-2.48 0.98,-1.21 1.33,-2.85 0.58,-4.3 -0.68,-1.3 -2.05,-2.03 -3.36,-2.53 -1.53,-0.59 -3.19,-0.84 -4.81,-1.04 -2.4,-0.29 -4.84,-0.39 -7.26,-0.29 -0.81,0.03 -1.5,0.67 -1.5,1.5 0,0.79 0.69,1.53 1.5,1.5 1.84,-0.08 3.7,-0.02 5.54,0.12 0.36,0.03 0.72,0.06 1.08,0.1 0.17,0.02 0.35,0.04 0.52,0.06 0.1,0.01 0.19,0.02 0.29,0.04 0.11,0.01 0.08,0 -0.11,-0.02 0.08,0.01 0.15,0.02 0.23,0.03 0.73,0.11 1.46,0.24 2.17,0.42 0.33,0.08 0.65,0.17 0.97,0.27 0.15,0.05 0.29,0.1 0.43,0.15 0.08,0.03 0.15,0.06 0.23,0.09 0.32,0.11 -0.3,-0.15 0,0 0.26,0.13 0.52,0.25 0.76,0.4 0.11,0.07 0.21,0.14 0.32,0.21 0.25,0.16 -0.24,-0.25 -0.05,-0.04 0.05,0.06 0.12,0.1 0.17,0.16 0.05,0.06 0.32,0.34 0.13,0.13 -0.19,-0.21 0.04,0.08 0.09,0.14 0.02,0.03 0.05,0.13 0.08,0.16 0.09,0.06 -0.08,-0.36 -0.06,-0.13 0,0.1 0.06,0.5 0.07,0.22 0,-0.3 -0.01,0.09 -0.01,0.17 0.01,0.38 0.1,-0.29 0,0.03 -0.02,0.05 -0.06,0.31 -0.1,0.32 -0.04,0.01 0.22,-0.36 0.07,-0.17 -0.04,0.05 -0.07,0.13 -0.1,0.19 -0.08,0.13 -0.35,0.39 -0.02,0.06 -0.09,0.09 -0.17,0.2 -0.26,0.29 -0.08,0.08 -0.16,0.15 -0.24,0.23 -0.07,0.06 -0.13,0.11 -0.2,0.17 0.15,-0.13 0.2,-0.15 0.01,-0.02 -0.56,0.38 -1.16,0.69 -1.78,0.97 -0.22,0.1 0.34,-0.13 -0.02,0 -0.07,0.03 -0.15,0.06 -0.22,0.09 -0.19,0.08 -0.39,0.15 -0.58,0.22 -0.42,0.15 -0.84,0.28 -1.26,0.4 -0.94,0.27 -1.9,0.5 -2.86,0.7 -2.22,0.45 -4.12,0.7 -6.35,0.9 -5.52,0.51 -11.1,0.53 -16.63,0.08 -0.81,-0.07 -1.5,0.74 -1.5,1.5 0,0.87 0.69,1.43 1.5,1.5 v 0 z"
         id="path16-6" />
      <path
         style="color:#000000;fill:#ffffff;stroke-width:3.55774;-inkscape-stroke:none"
         d="m 119.74,234.9 c -0.28,-0.22 -0.55,-0.45 -0.68,-0.72 0.08,0.16 0,-0.23 0.02,0.03 0.02,0.17 -0.02,0.03 -0.01,0.04 0.03,-0.08 0.02,-0.09 0,-0.03 -0.03,0.06 -0.03,0.05 0.02,-0.03 0.18,-0.36 0.7,-0.64 1.16,-0.87 0.27,-0.13 -0.08,0.02 0.02,0 0.1,-0.04 0.2,-0.08 0.3,-0.11 0.24,-0.08 0.47,-0.16 0.72,-0.23 0.54,-0.15 1.08,-0.27 1.63,-0.38 0.58,-0.11 1.15,-0.2 1.73,-0.28 0.18,-0.03 -0.01,0 -0.04,0 0.07,0 0.14,-0.02 0.22,-0.03 0.14,-0.02 0.29,-0.04 0.43,-0.05 0.34,-0.04 0.68,-0.08 1.01,-0.11 1.16,-0.11 2.32,-0.19 3.48,-0.25 0.84,-0.04 1.68,-0.07 2.51,-0.09 0.24,0 0.47,0 0.71,-0.01 0.38,-0.02 -0.12,0.01 -0.2,-0.05 0.32,0.24 0.98,0.31 1.36,0.41 1.12,0.28 2.27,0.45 3.42,0.56 4.02,0.38 8.02,-0.38 11.71,-1.96 0.75,-0.32 0.91,-1.42 0.54,-2.05 -0.45,-0.77 -1.3,-0.86 -2.05,-0.54 -3.21,1.37 -6.73,1.88 -10.2,1.55 -0.17,-0.02 -0.35,-0.04 -0.52,-0.05 -0.3,-0.03 0.12,0.02 -0.16,-0.02 -0.28,-0.04 -0.59,-0.09 -0.89,-0.15 -0.46,-0.09 -0.91,-0.19 -1.36,-0.31 -0.48,-0.13 -0.98,-0.37 -1.48,-0.39 -1.37,-0.07 -2.79,0.06 -4.16,0.14 -2.58,0.15 -5.19,0.38 -7.71,0.96 -1.29,0.3 -2.59,0.72 -3.65,1.55 -0.86,0.67 -1.49,1.59 -1.53,2.71 -0.04,1.12 0.67,2.19 1.54,2.89 0.63,0.51 1.51,0.62 2.12,0 0.53,-0.53 0.63,-1.61 0,-2.12 v 0 z"
         id="path18-6" />
      <path
         style="color:#000000;fill:#ffffff;stroke-width:3.55774;-inkscape-stroke:none"
         d="m 134.88,230.27 v -51.36 c 0,-2.37 0.08,-4.76 0,-7.13 0,-0.03 0,-0.07 0,-0.1 0,-1.93 -3,-1.93 -3,0 v 51.36 c 0,2.37 -0.08,4.76 0,7.13 0,0.03 0,0.07 0,0.1 0,1.93 3,1.93 3,0 z"
         id="path20-0" />
      <path
         style="color:#000000;fill:#ffffff;stroke-width:3.55774;-inkscape-stroke:none"
         d="m 147,103.53 v 51.61 c 0,1.93 3,1.93 3,0 v -44.05 c 0,-2.48 0.08,-4.97 0,-7.45 0,-0.04 0,-0.07 0,-0.11 0,-1.93 -3,-1.93 -3,0 z"
         id="path22-0" />
      <path
         style="color:#000000;fill:#ffffff;stroke-width:3.55774;-inkscape-stroke:none"
         d="M 134.88,95.8 V 50.99 c 0,-0.19 0,-0.37 0,-0.56 0,-0.07 0.02,-0.14 0.02,-0.2 0,-0.28 -0.09,0.49 0,0.04 0.03,-0.17 0.06,-0.34 0.1,-0.51 0.04,-0.18 0.09,-0.36 0.15,-0.54 0.03,-0.11 0.07,-0.21 0.1,-0.31 0.02,-0.07 0.18,-0.46 0.08,-0.23 -0.1,0.23 0.04,-0.1 0.08,-0.16 0.06,-0.12 0.11,-0.23 0.18,-0.34 0.13,-0.24 0.29,-0.46 0.43,-0.69 0.13,-0.22 -0.01,0.01 -0.04,0.05 0.04,-0.06 0.09,-0.11 0.14,-0.17 0.1,-0.11 0.19,-0.22 0.3,-0.32 0.11,-0.1 0.22,-0.21 0.33,-0.31 0.04,-0.04 0.09,-0.07 0.13,-0.11 0.13,-0.11 -0.22,0.13 0.02,-0.02 0.29,-0.17 0.56,-0.35 0.86,-0.5 0.05,-0.03 0.26,-0.11 0,0 0.06,-0.03 0.13,-0.05 0.19,-0.07 0.2,-0.07 0.4,-0.13 0.61,-0.19 0.19,-0.05 0.39,-0.09 0.59,-0.13 0.03,0 0.29,-0.04 0.07,-0.01 0.11,-0.01 0.22,-0.02 0.33,-0.03 0.46,-0.03 0.93,-0.03 1.39,0 0.11,0 0.22,0.02 0.33,0.03 -0.07,0 -0.23,-0.04 0.09,0.01 0.18,0.03 0.36,0.07 0.54,0.11 0.41,0.1 0.81,0.22 1.2,0.38 -0.24,-0.1 0.15,0.08 0.21,0.11 0.16,0.08 0.32,0.17 0.47,0.26 0.13,0.08 0.26,0.16 0.39,0.25 0.07,0.05 0.14,0.1 0.21,0.15 0.34,0.23 -0.2,-0.19 0.1,0.08 0.46,0.41 0.88,0.83 1.28,1.3 0.14,0.16 -0.15,-0.21 -0.03,-0.04 0.04,0.06 0.08,0.11 0.13,0.17 0.07,0.1 0.14,0.2 0.2,0.3 0.15,0.23 0.29,0.46 0.42,0.69 0.1,0.18 0.2,0.37 0.29,0.55 0.04,0.09 0.08,0.18 0.12,0.26 0.15,0.33 -0.1,-0.29 -0.02,-0.04 0.06,0.16 0.11,0.4 0.2,0.55 0.09,0.15 -0.02,-0.56 -0.04,-0.3 -0.07,0.75 0,1.55 0,2.31 V 96.4 c 0,1.93 3,1.93 3,0 V 90 c 0,-4.82 0,-9.64 0,-14.46 0,-4.82 0,-10.3 0,-15.45 v -9.16 c 0,-0.87 -0.26,-1.55 -0.64,-2.36 -1.17,-2.5 -3.27,-4.51 -5.89,-5.42 -3.14,-1.08 -7.2,-0.56 -9.45,2.05 -1.23,1.42 -2.03,3.3 -2.14,5.18 -0.12,2.02 0,4.08 0,6.1 v 39.31 c 0,1.93 3,1.93 3,0 v 0 z"
         id="path24-2" />
      <path
         style="color:#000000;fill:#ffffff;stroke-width:3.55774;-inkscape-stroke:none"
         d="m 134.88,155.14 v -44.33 c 0,-2.49 0.08,-4.99 0,-7.47 0,-0.04 0,-0.07 0,-0.11 0,-1.93 -3,-1.93 -3,0 v 51.91 c 0,1.93 3,1.93 3,0 z"
         id="path26-0" />
      <path
         style="color:#000000;fill:#ffffff;stroke-width:3.55774;-inkscape-stroke:none"
         d="m 148.44,98.49 c 0.28,0.11 0.55,0.22 0.83,0.33 -0.47,-0.19 0,0 0.12,0.05 0.17,0.07 0.34,0.15 0.51,0.22 0.37,0.17 0.73,0.34 1.1,0.51 0.81,0.39 1.6,0.81 2.37,1.28 0.37,0.23 0.73,0.47 1.08,0.72 0.07,0.05 0.28,0.23 0.02,0.01 0.07,0.06 0.14,0.12 0.22,0.18 0.15,0.13 0.29,0.26 0.42,0.39 0.07,0.07 0.13,0.15 0.2,0.22 0.23,0.22 -0.14,-0.22 -0.04,-0.05 0.06,0.1 0.13,0.28 0.21,0.36 0.13,0.13 -0.15,-0.36 -0.06,-0.11 0.04,0.11 -0.01,0.23 0.01,0 0.04,-0.37 -0.03,0.22 -0.03,0.23 -0.05,0.03 0.13,-0.44 0,-0.13 -0.02,0.05 -0.04,0.11 -0.05,0.16 -0.04,0.28 0.18,-0.34 -0.02,0 -0.2,0.34 0.18,-0.22 0,0.02 -0.03,0.04 -0.09,0.08 -0.12,0.12 -0.13,0.19 0.29,-0.15 0.08,-0.06 -0.1,0.04 -0.28,0.14 -0.37,0.21 -0.13,0.11 0.36,-0.1 0.09,-0.04 -0.07,0.01 -0.14,0.05 -0.21,0.06 -0.14,0.04 -0.32,0.04 -0.45,0.1 -0.18,0.07 0.37,0 0.05,0 -0.13,0 -0.25,0.02 -0.38,0.02 -0.2,0 -0.39,0 -0.59,-0.01 -0.11,0 -0.21,-0.01 -0.31,-0.02 0,0 -0.42,-0.05 -0.2,-0.02 0.22,0.03 -0.23,-0.04 -0.22,-0.04 -0.12,-0.02 -0.24,-0.04 -0.36,-0.07 -0.31,-0.06 -0.62,-0.14 -0.93,-0.22 -2.13,-0.57 -4.09,-1.55 -6.06,-2.51 -0.73,-0.36 -1.62,-0.2 -2.05,0.54 -0.39,0.66 -0.19,1.69 0.54,2.05 2.1,1.03 4.19,2.07 6.44,2.72 1.97,0.57 4.43,1.01 6.33,-0.05 1.56,-0.87 2.27,-2.89 1.43,-4.51 -0.84,-1.62 -2.91,-2.78 -4.53,-3.64 -1.38,-0.73 -2.82,-1.38 -4.29,-1.94 -0.76,-0.29 -1.65,0.32 -1.85,1.05 -0.23,0.85 0.29,1.55 1.05,1.85 v 0 z"
         id="path28" />
      <path
         style="color:#000000;fill:#ffffff;stroke-width:3.55774;-inkscape-stroke:none"
         d="m 154.11,106.86 c 0,0.41 -0.01,0.82 -0.01,1.24 0,0.31 0,0.62 0,0.93 0,0.22 0.03,0.45 0.01,0.66 l 0.05,-0.4 c 0,0 0,0.04 -0.01,0.05 l 0.15,-0.36 c 0,0 -0.03,0.05 -0.04,0.07 l 0.23,-0.3 c 0,0 -0.07,0.07 -0.11,0.1 l 0.3,-0.23 c -0.1,0.07 -0.21,0.13 -0.32,0.18 l 0.36,-0.15 c -0.36,0.15 -0.74,0.22 -1.13,0.28 l 0.4,-0.05 c -0.59,0.08 -1.19,0.08 -1.79,0 l 0.4,0.05 c -0.22,-0.03 -0.43,-0.07 -0.64,-0.13 l 1.1,1.45 v -3.68 c 0,-0.78 -0.69,-1.54 -1.5,-1.5 -0.81,0.04 -1.5,0.66 -1.5,1.5 v 3.68 c 0,0.66 0.47,1.27 1.1,1.45 0.79,0.22 1.64,0.28 2.45,0.22 0.81,-0.06 1.61,-0.21 2.36,-0.57 0.36,-0.17 0.69,-0.46 0.89,-0.81 0.2,-0.35 0.24,-0.71 0.23,-1.1 -0.01,-0.49 0,-0.99 0,-1.48 0,-0.37 0,-0.73 0.01,-1.1 0.01,-0.78 -0.7,-1.54 -1.5,-1.5 -0.8,0.04 -1.49,0.66 -1.5,1.5 v 0 z"
         id="path30" />
      <path
         style="color:#000000;fill:#ffffff;stroke-width:3.55774;-inkscape-stroke:none"
         d="m 149.07,98.49 c 0.33,0.12 0.66,0.26 0.99,0.39 0.1,0.04 0.57,0.24 0.16,0.06 0.16,0.07 0.32,0.14 0.49,0.21 0.44,0.19 0.88,0.39 1.31,0.6 0.86,0.41 1.71,0.86 2.53,1.37 0.18,0.11 0.35,0.22 0.53,0.34 0.1,0.07 0.65,0.49 0.36,0.26 0.29,0.25 0.55,0.51 0.82,0.78 -0.3,-0.31 -0.01,0 0.06,0.12 0.07,0.12 0.11,0.34 -0.02,-0.08 0.02,0.07 0.05,0.14 0.06,0.21 -0.08,-0.53 -0.05,-0.12 -0.04,0.03 0.01,0.26 0.12,-0.35 0.01,-0.12 -0.02,0.05 -0.04,0.15 -0.05,0.2 -0.06,0.33 0,-0.16 0.05,-0.1 0,0.01 -0.09,0.17 -0.1,0.18 -0.2,0.29 0.26,-0.22 -0.02,0.03 -0.05,0.04 -0.12,0.1 -0.16,0.15 -0.08,0.11 -0.19,0 0.13,-0.09 -0.11,0.03 -0.36,0.19 -0.45,0.26 -0.13,0.11 0.36,-0.1 0.08,-0.04 -0.09,0.02 -0.17,0.06 -0.26,0.08 -0.16,0.04 -0.32,0.07 -0.48,0.1 0.44,-0.08 -0.13,0 -0.25,0 -0.29,0.01 -0.58,0 -0.86,-0.02 -0.09,0 -0.18,-0.02 -0.27,-0.02 -0.45,-0.03 0.3,0.06 -0.17,-0.02 -0.25,-0.04 -0.51,-0.09 -0.76,-0.14 -0.7,-0.15 -1.39,-0.36 -2.06,-0.6 -1.93,-0.67 -3.79,-1.59 -5.69,-2.38 -0.75,-0.31 -1.65,0.34 -1.85,1.05 -0.24,0.86 0.3,1.53 1.05,1.85 l 2.1,0.87 c 0.14,0.06 0.28,0.11 0.42,0.18 0.03,0.01 0.06,0.02 0.09,0.04 -0.4,-0.19 0.3,0.16 0.31,0.16 0.87,0.4 1.77,0.78 2.67,1.1 2.26,0.8 5.03,1.46 7.32,0.43 1.56,-0.7 2.63,-2.56 2.04,-4.26 -0.68,-1.96 -2.98,-3.16 -4.7,-4.05 -1.48,-0.77 -3.02,-1.45 -4.59,-2.03 -0.76,-0.28 -1.64,0.31 -1.85,1.05 -0.23,0.84 0.29,1.56 1.05,1.85 z"
         id="path32-9" />
      <path
         style="color:#000000;fill:#ffffff;stroke-width:3.55774;-inkscape-stroke:none"
         d="m 132.19,94.89 c -1.22,0 -2.45,0.09 -3.66,0.21 -1.92,0.2 -4.19,0.42 -5.86,1.49 -1.56,1 -2.12,3.01 -1.15,4.63 0.97,1.62 3.15,2.35 4.98,2.62 2.68,0.39 5.34,0.16 8.01,-0.1 0.81,-0.08 1.5,-0.63 1.5,-1.5 0,-0.75 -0.69,-1.58 -1.5,-1.5 -2.01,0.19 -4.03,0.4 -6.05,0.3 -0.27,-0.01 -0.54,-0.03 -0.81,-0.06 -0.15,-0.01 -0.3,-0.03 -0.46,-0.05 0.31,0.04 -0.15,-0.02 -0.17,-0.03 -0.5,-0.08 -1,-0.19 -1.48,-0.34 -0.17,-0.06 -0.34,-0.12 -0.51,-0.18 0.41,0.15 -0.16,-0.08 -0.26,-0.14 -0.13,-0.07 -0.25,-0.16 -0.37,-0.23 -0.26,-0.14 0.24,0.24 0.05,0.04 -0.06,-0.06 -0.13,-0.12 -0.2,-0.18 -0.04,-0.04 -0.08,-0.1 -0.12,-0.13 -0.2,-0.16 0.16,0.31 0.06,0.08 0,-0.02 -0.18,-0.28 -0.16,-0.28 0.1,-0.05 0.12,0.43 0.06,0.12 -0.01,-0.05 -0.03,-0.13 -0.05,-0.18 -0.1,-0.22 0,0.4 0.02,0.15 0,-0.06 0,-0.13 0,-0.19 -0.03,-0.43 -0.11,0.27 0,-0.04 0.01,-0.04 0.07,-0.32 0.1,-0.32 0.02,0 -0.19,0.4 -0.03,0.13 0.14,-0.23 -0.23,0.31 -0.06,0.09 0.03,-0.03 0.07,-0.08 0.1,-0.1 0.19,-0.15 -0.34,0.2 0,0 0.13,-0.07 0.25,-0.15 0.38,-0.22 0.08,-0.04 0.17,-0.08 0.25,-0.12 -0.39,0.18 -0.08,0.03 0,0 0.42,-0.14 0.83,-0.27 1.26,-0.37 0.43,-0.1 0.85,-0.18 1.28,-0.25 0.2,-0.03 0.4,-0.06 0.6,-0.09 -0.39,0.05 0.01,0 0.08,0 0.14,-0.02 0.28,-0.03 0.41,-0.05 1.25,-0.14 2.52,-0.22 3.78,-0.23 1.93,-0.01 1.93,-3.01 0,-3 v 0 z"
         id="path34-5" />
      <path
         style="color:#000000;fill:#ffffff;stroke-width:3.55774;-inkscape-stroke:none"
         d="m 124.03,103.23 c 0,-0.3 -0.03,-0.63 0.01,-0.93 l -0.05,0.4 v 0 l -0.15,0.35 v 0 l -0.54,0.54 h -1.51 l -0.54,-0.54 v 0 l -0.15,-0.36 v 0.02 l -0.05,-0.4 c 0.04,0.32 0.04,0.66 0.05,0.98 0.02,0.54 0.03,1.08 0.04,1.62 0,0.37 0.01,0.73 0.02,1.1 0.02,1.23 1.14,1.85 2.22,2.04 1.23,0.22 2.55,0.22 3.75,-0.17 0.61,-0.2 1.13,-0.77 1.1,-1.45 l -0.09,-2.06 c -0.02,-0.4 -0.16,-0.78 -0.44,-1.06 -0.26,-0.26 -0.69,-0.46 -1.06,-0.44 -0.78,0.04 -1.54,0.66 -1.5,1.5 l 0.09,2.06 1.1,-1.45 c -0.31,0.1 -0.63,0.17 -0.95,0.21 l 0.4,-0.05 c -0.59,0.07 -1.2,0.07 -1.79,0 l 0.4,0.05 c -0.32,-0.05 -0.64,-0.11 -0.94,-0.23 l 0.36,0.15 c -0.09,-0.04 -0.17,-0.08 -0.25,-0.14 l 0.3,0.23 c 0,0 -0.06,-0.05 -0.09,-0.09 l 0.23,0.3 c 0,0 -0.02,-0.03 -0.03,-0.05 l 0.15,0.36 c 0,0 -0.01,-0.04 -0.02,-0.05 l 0.05,0.4 c -0.02,-0.18 0,-0.37 0,-0.55 0,-0.32 -0.01,-0.63 -0.02,-0.95 -0.02,-0.64 -0.03,-1.28 -0.06,-1.92 -0.03,-0.64 -0.12,-1.3 -0.77,-1.65 -0.46,-0.24 -1.06,-0.3 -1.51,0 -0.55,0.36 -0.74,0.86 -0.75,1.47 0,0.25 0,0.51 0,0.76 0,0.78 0.69,1.54 1.5,1.5 0.81,-0.04 1.5,-0.66 1.5,-1.5 v 0 z"
         id="path36-4" />
      <path
         style="color:#000000;fill:#ffffff;stroke-width:3.55774;-inkscape-stroke:none"
         d="m 131.6,94.67 c -1.31,0 -2.63,0.07 -3.93,0.19 -1.96,0.19 -4.38,0.39 -6.04,1.57 -1.66,1.18 -1.87,3.4 -0.66,4.96 1.42,1.85 4.01,2.33 6.19,2.52 2.43,0.2 4.91,-0.08 7.35,-0.16 1.93,-0.06 1.93,-3.06 0,-3 -1.76,0.06 -3.52,0.2 -5.28,0.23 -0.69,0 -1.38,0 -2.07,-0.07 -0.63,-0.05 -0.88,-0.08 -1.59,-0.25 -0.23,-0.05 -0.47,-0.12 -0.7,-0.19 -0.1,-0.03 -0.72,-0.28 -0.36,-0.11 -0.16,-0.07 -0.32,-0.15 -0.48,-0.23 -0.09,-0.05 -0.17,-0.1 -0.25,-0.15 -0.1,-0.06 -0.4,-0.33 -0.07,-0.03 -0.1,-0.09 -0.21,-0.19 -0.31,-0.28 -0.06,-0.05 -0.1,-0.12 -0.16,-0.18 0.3,0.3 0.12,0.18 0.06,0.06 -0.03,-0.06 -0.07,-0.14 -0.11,-0.19 -0.08,-0.1 0.05,-0.21 0.07,0.17 0,-0.06 -0.05,-0.14 -0.06,-0.19 -0.1,-0.38 0.04,0.06 0,0.07 -0.02,0 0,-0.32 0,-0.34 -0.04,-0.25 -0.11,0.37 -0.02,0.13 0.02,-0.06 0.03,-0.14 0.05,-0.2 0,-0.04 0.04,-0.09 0.04,-0.14 0.04,-0.27 -0.17,0.34 -0.04,0.11 0.13,-0.23 -0.28,0.22 -0.07,0.08 0.07,-0.05 0.16,-0.15 0.22,-0.21 -0.26,0.26 -0.07,0.06 0.12,-0.04 0.08,-0.05 0.17,-0.08 0.25,-0.13 0.29,-0.17 -0.32,0.1 0,0 0.39,-0.13 0.77,-0.26 1.17,-0.36 0.44,-0.11 0.88,-0.19 1.32,-0.27 0.13,-0.02 0.25,-0.04 0.38,-0.06 0.42,-0.07 -0.32,0.04 0.11,-0.02 0.25,-0.03 0.5,-0.06 0.75,-0.09 1.37,-0.14 2.74,-0.22 4.12,-0.21 1.93,0 1.93,-2.99 0,-3 v 0 z"
         id="path38-7" />
      <path
         style="color:#000000;fill:#ffffff;stroke-width:3.55774;-inkscape-stroke:none"
         d="m 107.89,156.53 c -0.15,1.9 0.84,4.02 1.92,5.5 3.4,4.65 9.31,6.78 14.74,7.94 5.43,1.16 10.76,1.48 16.16,1.49 5.4,0.01 10.82,-0.36 16.08,-1.55 5.67,-1.29 11.66,-3.72 15.15,-8.61 0.87,-1.21 1.56,-2.63 1.87,-4.09 0.2,-0.96 0.43,-2.35 -0.35,-3.12 -0.61,-0.61 -1.56,-0.57 -2.18,0 -1.41,1.32 0.71,3.44 2.12,2.12 -0.57,0.53 -1.5,0.57 -2.06,0 -0.16,-0.16 -0.31,-0.47 -0.34,-0.57 0.12,0.36 0,-0.48 -0.01,-0.1 0,0.15 0,0.31 0,0.46 0,0.09 -0.02,0.18 -0.03,0.26 0.02,-0.46 0.04,-0.29 0,-0.02 -0.1,0.54 -0.27,1.06 -0.47,1.58 -0.12,0.32 0.11,-0.24 0.04,-0.09 -0.04,0.07 -0.07,0.15 -0.1,0.22 -0.07,0.16 -0.15,0.31 -0.23,0.46 -0.18,0.35 -0.39,0.69 -0.6,1.02 -0.11,0.16 -0.22,0.32 -0.33,0.48 -0.2,0.28 0.02,0.11 0.02,-0.02 0,0.07 -0.19,0.24 -0.25,0.31 -0.31,0.37 -0.63,0.73 -0.98,1.06 -0.38,0.38 -0.78,0.73 -1.2,1.07 -0.09,0.07 -0.48,0.36 -0.09,0.08 -0.12,0.09 -0.23,0.17 -0.35,0.26 -0.24,0.18 -0.49,0.35 -0.74,0.51 -1.18,0.77 -2.43,1.4 -3.71,1.98 -0.34,0.15 0.21,-0.08 -0.01,0 -0.09,0.04 -0.18,0.07 -0.27,0.11 -0.18,0.07 -0.37,0.15 -0.56,0.22 -0.41,0.16 -0.82,0.3 -1.23,0.44 -0.87,0.29 -1.76,0.55 -2.65,0.79 -4.68,1.21 -9.26,1.62 -14.12,1.73 -2.91,0.06 -5.83,0.01 -8.74,-0.17 -2.42,-0.16 -4.68,-0.39 -6.95,-0.78 -1.92,-0.33 -3.83,-0.75 -5.69,-1.32 -0.78,-0.24 -1.56,-0.51 -2.32,-0.8 -0.17,-0.07 -0.34,-0.14 -0.52,-0.21 -0.08,-0.03 -0.33,-0.14 0,0 -0.07,-0.03 -0.13,-0.06 -0.2,-0.08 -0.34,-0.15 -0.69,-0.31 -1.03,-0.48 -1.09,-0.54 -2.12,-1.17 -3.11,-1.88 -0.31,-0.23 0.23,0.2 -0.06,-0.05 -0.09,-0.07 -0.18,-0.14 -0.26,-0.21 -0.19,-0.16 -0.38,-0.33 -0.57,-0.5 -0.33,-0.31 -0.65,-0.63 -0.94,-0.97 -0.13,-0.14 -0.24,-0.3 -0.37,-0.44 -0.1,-0.12 0.24,0.34 0.02,0.03 -0.06,-0.09 -0.13,-0.18 -0.2,-0.27 -0.2,-0.29 -0.39,-0.59 -0.56,-0.9 -0.07,-0.13 -0.14,-0.26 -0.21,-0.4 -0.03,-0.07 -0.06,-0.14 -0.1,-0.2 -0.02,-0.03 -0.03,-0.07 -0.04,-0.1 -0.11,-0.23 0.12,0.04 0.08,0.18 0.04,-0.13 -0.22,-0.59 -0.27,-0.74 -0.07,-0.22 -0.13,-0.45 -0.18,-0.68 -0.02,-0.09 -0.03,-0.18 -0.05,-0.27 -0.08,-0.4 0.02,0.21 0.01,0.11 -0.01,-0.22 -0.03,-0.44 -0.04,-0.67 0,-0.03 0,-0.06 0,-0.09 0.06,-0.81 -0.74,-1.5 -1.5,-1.5 -0.87,0 -1.44,0.69 -1.5,1.5 v 0 z"
         id="path40" />
      <path
         style="color:#000000;fill:#ffffff;stroke-width:3.55774;-inkscape-stroke:none"
         d="m 131.08,149.13 c -2.73,0.2 -5.46,0.5 -8.17,0.87 -2.25,0.3 -4.49,0.64 -6.71,1.12 -1.84,0.4 -3.72,0.86 -5.41,1.71 -1.89,0.96 -3.78,2.95 -2.48,5.16 0.61,1.03 1.74,1.71 2.81,2.18 1.71,0.76 3.52,1.25 5.36,1.62 5.79,1.19 11.76,1.57 17.66,1.8 5.9,0.23 11.56,0.21 17.32,-0.14 4.87,-0.3 9.82,-0.76 14.55,-2.02 2.81,-0.75 6.69,-1.96 7.79,-5 0.56,-1.54 -0.23,-3.14 -1.45,-4.11 -1.36,-1.08 -3.07,-1.65 -4.75,-2.04 -3.08,-0.71 -6.3,-0.95 -9.46,-0.99 -0.19,0 -0.37,0 -0.56,0 -1.93,0.02 -1.93,3.02 0,3 2.19,-0.02 4.39,0.15 6.57,0.4 0.39,0.05 -0.23,-0.03 0.01,0 0.1,0.01 0.2,0.03 0.3,0.04 0.2,0.03 0.39,0.06 0.59,0.09 0.45,0.07 0.9,0.16 1.35,0.25 0.79,0.17 1.58,0.37 2.34,0.65 0.17,0.06 0.33,0.12 0.49,0.19 -0.41,-0.16 0.14,0.07 0.24,0.11 0.32,0.16 0.61,0.36 0.92,0.54 0.21,0.12 -0.07,-0.06 -0.1,-0.08 0.06,0.05 0.13,0.11 0.19,0.16 0.1,0.09 0.19,0.19 0.29,0.28 0.27,0.25 -0.12,-0.25 0.05,0.06 0.03,0.06 0.07,0.13 0.11,0.19 0.17,0.27 -0.02,-0.1 -0.02,-0.06 0,0.07 0.15,0.33 0.1,0.39 -0.02,0.02 -0.02,-0.43 -0.03,-0.18 -0.01,0.29 0.14,-0.36 0.04,-0.12 -0.04,0.08 -0.06,0.21 -0.08,0.3 -0.06,0.31 0.2,-0.33 -0.02,0.05 -0.06,0.09 -0.11,0.19 -0.17,0.28 -0.22,0.37 0.16,-0.13 -0.03,0.05 -0.2,0.19 -0.41,0.39 -0.61,0.59 -0.16,0.16 0.1,-0.07 0.12,-0.09 -0.07,0.05 -0.13,0.1 -0.2,0.15 -0.12,0.08 -0.23,0.16 -0.36,0.24 -0.29,0.18 -0.58,0.34 -0.89,0.5 -0.16,0.08 -0.33,0.16 -0.5,0.23 -0.08,0.04 -0.16,0.07 -0.24,0.1 0.38,-0.17 0.04,-0.02 -0.03,0.01 -0.39,0.15 -0.77,0.29 -1.16,0.42 -4.14,1.38 -8.25,1.83 -12.46,2.19 -5.38,0.46 -10.78,0.57 -16.17,0.47 -5.39,-0.1 -11.41,-0.38 -16.94,-1.14 -2.2,-0.3 -4.4,-0.68 -6.53,-1.28 -0.37,-0.1 -0.74,-0.22 -1.1,-0.34 -0.17,-0.06 -0.33,-0.11 -0.5,-0.17 -0.09,-0.03 -0.19,-0.07 -0.28,-0.11 -0.04,-0.02 -0.42,-0.17 -0.17,-0.07 0.23,0.09 -0.23,-0.11 -0.31,-0.14 -0.12,-0.06 -0.25,-0.12 -0.37,-0.18 -0.24,-0.12 -0.47,-0.26 -0.69,-0.41 -0.05,-0.04 -0.1,-0.08 -0.16,-0.11 -0.19,-0.12 0.18,0.12 0.16,0.12 -0.06,0 -0.2,-0.17 -0.24,-0.21 -0.07,-0.07 -0.13,-0.14 -0.2,-0.21 -0.21,-0.2 0.19,0.36 0.03,0.04 -0.03,-0.06 -0.07,-0.15 -0.11,-0.19 -0.1,-0.11 0.16,0.44 0.06,0.13 -0.14,-0.46 -0.02,0.39 0,-0.06 0.01,-0.29 -0.09,0.48 -0.01,0.13 0,-0.03 0.07,-0.17 0.06,-0.19 0.11,0.14 -0.24,0.42 -0.04,0.13 0.02,-0.02 0.15,-0.21 0.15,-0.22 0.05,0.18 -0.3,0.32 -0.12,0.16 0.02,-0.02 0.04,-0.05 0.06,-0.07 0.06,-0.06 0.12,-0.12 0.18,-0.18 0.08,-0.07 0.17,-0.14 0.25,-0.21 0.14,-0.13 -0.11,0.21 -0.17,0.13 0,0 0.18,-0.13 0.19,-0.14 0.45,-0.29 0.9,-0.54 1.39,-0.75 -0.42,0.19 0.16,-0.06 0.26,-0.09 0.19,-0.07 0.38,-0.14 0.57,-0.2 0.42,-0.14 0.84,-0.26 1.27,-0.38 1.94,-0.53 3.93,-0.89 5.92,-1.2 3.06,-0.48 6.32,-0.85 9.68,-1.13 0.19,-0.02 0.37,-0.03 0.56,-0.04 0.81,-0.06 1.5,-0.65 1.5,-1.5 0,-0.77 -0.69,-1.56 -1.5,-1.5 v 0 z"
         id="path42" />
    </g>
  </g>
</svg>
