<?xml version="1.0" encoding="UTF-8" standalone="no"?>
<!-- Created with Inkscape (http://www.inkscape.org/) -->

<svg
   width="100"
   height="100"
   viewBox="0 0 26.458333 26.458334"
   version="1.1"
   id="svg127350"
   inkscape:export-filename="C:\Users\Agathe\Desktop\commerces.png"
   inkscape:export-xdpi="200"
   inkscape:export-ydpi="200"
   inkscape:version="1.1 (c68e22c387, 2021-05-23)"
   sodipodi:docname="FONTAINE_ARCEAU.svg"
   xmlns:inkscape="http://www.inkscape.org/namespaces/inkscape"
   xmlns:sodipodi="http://sodipodi.sourceforge.net/DTD/sodipodi-0.dtd"
   xmlns="http://www.w3.org/2000/svg"
   xmlns:svg="http://www.w3.org/2000/svg">
  <sodipodi:namedview
     id="namedview127352"
     pagecolor="#ffffff"
     bordercolor="#666666"
     borderopacity="1.0"
     inkscape:pageshadow="2"
     inkscape:pageopacity="0"
     inkscape:pagecheckerboard="0"
     inkscape:document-units="mm"
     showgrid="false"
     units="px"
     inkscape:zoom="5.9722783"
     inkscape:cx="54.250653"
     inkscape:cy="58.35294"
     inkscape:window-width="2400"
     inkscape:window-height="1271"
     inkscape:window-x="2391"
     inkscape:window-y="-9"
     inkscape:window-maximized="1"
     inkscape:current-layer="layer1" />
  <defs
     id="defs127347" />
  <g
     inkscape:label="Calque 1"
     inkscape:groupmode="layer"
     id="layer1">
    <g
       id="g986"
       transform="matrix(0.07288679,0,0,0.07288679,3.1995549,0.01653372)"
       style="stroke-width:3.63005">
      <path
         style="color:#000000;fill:#002ddc;stroke-width:3.63005;-inkscape-stroke:none"
         d="m 121.45,137.35 c 0.25,5.62 0.7,11.23 1.09,16.83 0.52,7.3 1.05,14.59 1.65,21.88 0.49,5.92 1.12,11.82 1.66,17.74 0.32,3.53 0.64,7.06 0.96,10.59 0.09,1.02 0.18,2.04 0.27,3.05 0.01,0.16 -0.01,0.44 0.05,0.59 0.04,0.1 0.1,-0.46 0.05,-0.34 -0.03,0.08 -0.05,0.18 -0.07,0.26 l -3.77,14.62 -0.11,0.42 1.45,-1.1 c -3.64,0.02 -7.58,1.39 -10.26,3.87 -1.27,1.18 -2.18,2.63 -2.82,4.24 -0.3,0.75 0.33,1.65 1.05,1.85 0.85,0.23 1.54,-0.29 1.85,-1.05 0.06,-0.15 0.17,-0.38 0.31,-0.66 0.17,-0.32 0.35,-0.62 0.55,-0.92 0.08,-0.12 0.17,-0.24 0.26,-0.36 -0.13,0.17 0.09,-0.11 0.13,-0.15 0.2,-0.24 0.41,-0.46 0.64,-0.68 0.2,-0.19 0.41,-0.38 0.63,-0.56 0.05,-0.04 0.11,-0.09 0.16,-0.13 -0.02,0.02 -0.17,0.13 -0.03,0.03 0.13,-0.09 0.26,-0.19 0.39,-0.27 0.47,-0.32 0.97,-0.6 1.49,-0.85 0.12,-0.06 0.23,-0.11 0.35,-0.16 0.1,-0.05 0.35,-0.15 0.11,-0.05 0.25,-0.1 0.49,-0.19 0.75,-0.28 0.47,-0.16 0.95,-0.3 1.43,-0.42 0.41,-0.1 0.82,-0.19 1.23,-0.26 0.19,-0.03 0.38,-0.06 0.56,-0.09 0.11,-0.02 -0.38,0.04 -0.09,0.01 0.08,0 0.17,-0.02 0.25,-0.03 0.35,-0.04 0.71,-0.07 1.07,-0.07 0.65,0 1.28,-0.46 1.45,-1.1 l 3.63,-14.05 c 0.14,-0.53 0.38,-1.14 0.38,-1.7 0,-0.56 -0.1,-1.17 -0.15,-1.74 -0.28,-3.17 -0.57,-6.33 -0.86,-9.5 -0.57,-6.23 -1.22,-12.46 -1.76,-18.69 -0.61,-7.01 -1.11,-14.03 -1.62,-21.05 -0.45,-6.22 -0.91,-12.44 -1.25,-18.67 -0.02,-0.35 -0.04,-0.7 -0.05,-1.05 -0.04,-0.81 -0.66,-1.5 -1.5,-1.5 -0.78,0 -1.54,0.69 -1.5,1.5 v 0 z"
         id="path6-5" />
      <path
         style="color:#000000;fill:#002ddc;stroke-width:3.63005;-inkscape-stroke:none"
         d="m 112.46,241.6 c 3.61,5.83 10.81,8.96 17.25,10.4 7.7,1.73 15.79,1.02 23.31,-1.27 3.42,-1.04 6.81,-2.45 9.76,-4.49 2.43,-1.68 4.68,-3.82 5.86,-6.57 0.62,-1.44 0.91,-2.85 0.75,-4.42 -0.15,-1.42 -0.45,-2.79 -0.99,-4.1 -1.01,-2.42 -2.67,-4.39 -4.79,-5.92 -2.63,-1.89 -6.01,-3.08 -9.24,-3.34 l 1.5,1.5 -0.73,-8.58 -0.43,-5.03 c -0.03,-0.37 -0.09,-0.74 -0.07,-1.11 0.08,-1.24 0.32,-2.5 0.48,-3.73 l 1.02,-7.9 2.92,-22.59 2.92,-22.65 c 0.51,-3.93 1.13,-7.87 1.53,-11.82 0,-0.06 0.01,-0.12 0.02,-0.17 l -0.2,0.76 c 1.52,-3.45 3.01,-6.91 4.48,-10.38 2.51,-5.91 5.02,-11.83 7.19,-17.86 0.41,-1.15 0.82,-2.3 1.16,-3.47 0.23,-0.78 0.48,-1.63 0.48,-2.45 0.01,-1.09 -1.3,-1.93 -2.26,-1.3 -0.43,0.29 -0.88,0.53 -1.34,0.78 -0.54,0.29 -1.1,0.57 -1.65,0.83 -0.35,0.17 -0.71,0.33 -1.07,0.48 -0.1,0.04 -0.19,0.08 -0.29,0.13 0.37,-0.16 0.02,0 -0.05,0.02 -0.21,0.09 -0.43,0.17 -0.64,0.26 -4.88,1.93 -10.08,3.12 -15.29,3.67 -7.8,0.82 -15.66,0.22 -23.39,-0.91 -4.73,-0.69 -9.55,-1.57 -14.04,-3.29 -0.19,-0.07 -0.37,-0.15 -0.56,-0.22 -0.1,-0.04 -0.38,-0.16 0.06,0.03 -0.08,-0.04 -0.17,-0.07 -0.25,-0.11 -0.28,-0.13 -0.56,-0.25 -0.84,-0.39 -0.4,-0.2 -0.8,-0.41 -1.19,-0.65 -0.12,-0.08 -0.24,-0.16 -0.36,-0.24 -0.39,-0.26 0.16,0.15 0.03,0.03 -0.06,-0.05 -0.12,-0.1 -0.18,-0.16 -0.97,-1.02 -3.1,0.03 -2.51,1.46 2.21,5.37 4.33,10.78 6.32,16.23 0.84,2.3 1.66,4.61 2.41,6.95 0.59,1.83 3.49,1.05 2.89,-0.8 -2.35,-7.23 -5.14,-14.33 -7.99,-21.38 -0.24,-0.6 -0.49,-1.2 -0.74,-1.8 l -2.51,1.46 c 0.85,0.89 2.16,1.45 3.25,1.93 4.09,1.78 8.52,2.72 12.91,3.46 13.69,2.31 28.12,2.95 41.38,-1.84 2.43,-0.88 4.98,-1.87 7.15,-3.32 l -2.26,-1.3 c 0,0.09 -0.02,0.18 -0.02,0.26 0,0.17 0.09,-0.44 0.03,-0.19 -0.02,0.07 -0.03,0.15 -0.04,0.23 -0.06,0.31 -0.14,0.61 -0.22,0.91 -0.23,0.86 -0.51,1.7 -0.8,2.54 -0.82,2.39 -1.73,4.74 -2.66,7.09 -1.09,2.76 -2.23,5.51 -3.37,8.25 -0.28,0.67 -0.56,1.33 -0.84,2 -0.1,0.23 0.08,-0.18 -0.02,0.05 l -0.09,0.2 c -0.08,0.18 -0.15,0.36 -0.23,0.53 -0.14,0.33 -0.28,0.66 -0.42,0.98 -0.51,1.2 -1.02,2.39 -1.54,3.59 -0.73,1.7 -1.47,3.39 -2.21,5.09 -0.29,0.66 -0.62,1.29 -0.71,2 -0.28,2.11 -0.54,4.22 -0.82,6.33 l -1.7,13.18 -2.13,16.51 -2.09,16.16 -1.57,12.16 -0.44,3.44 c -0.05,0.37 -0.13,0.76 -0.14,1.13 0,0.63 0.11,1.29 0.16,1.92 l 0.31,3.62 0.65,7.62 0.12,1.39 c 0.07,0.86 0.63,1.43 1.5,1.5 0.05,0 0.11,0 0.16,0.02 0.5,0.06 -0.35,-0.06 0.1,0.01 0.52,0.08 1.03,0.18 1.54,0.3 0.72,0.17 1.44,0.38 2.14,0.63 0.21,0.07 0.41,0.15 0.62,0.23 0.11,0.04 0.21,0.08 0.32,0.13 -0.32,-0.13 -0.07,-0.03 0.01,0 0.46,0.21 0.91,0.42 1.35,0.67 0.4,0.22 0.8,0.46 1.18,0.72 0.18,0.12 0.35,0.25 0.53,0.37 0.35,0.26 -0.23,-0.19 0.11,0.09 0.14,0.11 0.27,0.22 0.41,0.34 0.37,0.33 0.73,0.68 1.06,1.05 0.44,0.49 0.49,0.56 0.88,1.15 0.29,0.46 0.55,0.93 0.78,1.43 0.05,0.11 0.15,0.35 0.26,0.65 0.12,0.33 0.22,0.67 0.31,1.01 0.16,0.61 0.27,1.23 0.32,1.75 0.08,0.81 0.1,1.07 -0.08,1.78 -0.56,2.25 -2.09,4.09 -4.02,5.67 -2.34,1.91 -5.27,3.3 -8.14,4.32 -6.67,2.37 -14.16,3.5 -21.19,2.38 -3.73,-0.59 -7.42,-1.69 -10.77,-3.43 -2.8,-1.46 -5.54,-3.45 -7.15,-6.06 -1.01,-1.64 -3.61,-0.13 -2.59,1.51 v 0 z"
         id="path8-0" />
      <path
         style="color:#000000;fill:#002ddc;stroke-width:3.63005;-inkscape-stroke:none"
         d="m 176.44,105.66 c -1.27,-2.35 -3.71,-4.26 -5.91,-5.65 -5.48,-3.47 -11.97,-4.49 -18.31,-5.1 -6.73,-0.64 -13.52,-0.76 -20.27,-0.5 -2.89,0.11 -5.79,0.29 -8.67,0.62 -2.48,0.28 -5.1,0.55 -7.41,1.56 -3.84,1.68 -5.65,5.79 -5.11,9.82 0.02,0.14 0.03,0.28 0.06,0.41 0.15,0.8 1.11,1.25 1.85,1.05 0.83,-0.23 1.2,-1.05 1.05,-1.85 -0.06,-0.29 0.05,-0.08 0.02,0.15 0.03,-0.19 -0.05,-0.43 -0.06,-0.62 -0.02,-0.3 -0.02,-0.6 0,-0.9 0,-0.16 0.02,-0.33 0.03,-0.49 0,-0.1 0.03,-0.2 0.03,-0.3 0,-0.02 -0.05,0.31 0,0 0.08,-0.42 0.17,-0.83 0.3,-1.24 0.03,-0.1 0.07,-0.2 0.1,-0.29 0.06,-0.15 0.12,-0.26 0,-0.03 0.11,-0.23 0.22,-0.46 0.35,-0.68 0.11,-0.2 0.25,-0.38 0.37,-0.57 0.15,-0.23 -0.14,0.14 0.06,-0.07 0.11,-0.12 0.21,-0.24 0.33,-0.36 0.18,-0.18 0.36,-0.35 0.56,-0.52 0.21,-0.18 -0.12,0.06 0.12,-0.09 0.16,-0.1 0.31,-0.21 0.47,-0.3 0.65,-0.39 0.95,-0.51 1.63,-0.72 0.54,-0.17 1.1,-0.29 1.66,-0.4 0.49,-0.09 0.97,-0.18 1.46,-0.25 0.25,-0.04 0.49,-0.07 0.74,-0.11 0.11,-0.02 0.38,-0.05 0.11,-0.02 0.15,-0.02 0.31,-0.04 0.46,-0.06 2.68,-0.34 5.38,-0.53 8.08,-0.65 6.46,-0.3 12.95,-0.24 19.39,0.25 5.95,0.45 12.19,1.15 17.49,3.96 1.02,0.54 2,1.16 2.93,1.85 0.06,0.05 0.13,0.09 0.19,0.14 0,0 -0.21,-0.16 -0.08,-0.06 0.09,0.07 0.18,0.14 0.26,0.21 0.18,0.15 0.36,0.29 0.53,0.44 0.31,0.27 0.61,0.55 0.91,0.85 0.25,0.25 0.48,0.5 0.71,0.76 0.1,0.11 0.19,0.22 0.29,0.34 0.04,0.05 0.08,0.1 0.12,0.15 0.18,0.22 -0.06,0 -0.07,-0.1 0.02,0.2 0.43,0.61 0.56,0.81 0.02,0.04 0.04,0.07 0.07,0.11 0.92,1.7 3.51,0.19 2.59,-1.51 v 0 z"
         id="path10-7" />
      <path
         style="color:#000000;fill:#002ddc;stroke-width:3.63005;-inkscape-stroke:none"
         d="m 182.97,96.58 c -6.02,-1.66 -11.95,-3.71 -17.79,-5.91 -8.72,-3.29 -17.08,-7.42 -25.7,-10.96 -3.89,-1.59 -7.83,-3.09 -11.87,-4.27 -3.43,-1.01 -7.01,-1.85 -10.6,-1.93 -2.79,-0.06 -5.73,0.43 -7.88,2.33 -2,1.76 -3.62,4.37 -3.42,7.13 0.22,2.92 2.08,5.33 4.28,7.13 3.33,2.72 7.34,4.5 11.36,5.94 1.21,0.43 2.44,0.83 3.68,1.2 1.85,0.56 2.64,-2.34 0.8,-2.89 -4.18,-1.26 -8.37,-2.79 -12.05,-5.18 -0.34,-0.22 -0.67,-0.45 -1,-0.68 -0.45,-0.33 -0.4,-0.28 -0.82,-0.63 -0.56,-0.47 -1.09,-0.97 -1.57,-1.51 -0.1,-0.12 -0.21,-0.24 -0.31,-0.36 -0.05,-0.06 -0.1,-0.12 -0.14,-0.18 0.03,0.04 0.18,0.25 0.03,0.03 -0.18,-0.27 -0.37,-0.53 -0.54,-0.82 -0.14,-0.24 -0.25,-0.49 -0.38,-0.73 0.15,0.29 0.02,0.05 -0.03,-0.1 -0.05,-0.14 -0.09,-0.27 -0.13,-0.41 -0.07,-0.26 -0.12,-0.52 -0.17,-0.78 0.06,0.32 0.02,0.13 0,-0.06 0,-0.14 -0.01,-0.28 -0.01,-0.42 0,-0.12 0.01,-0.25 0.02,-0.37 0,-0.06 0.02,-0.13 0.02,-0.18 -0.02,-0.19 -0.07,0.31 -0.02,0.12 0.08,-0.27 0.11,-0.56 0.19,-0.83 0.04,-0.12 0.09,-0.24 0.13,-0.37 0.11,-0.35 -0.12,0.23 0.04,-0.1 0.14,-0.28 0.28,-0.56 0.45,-0.82 0.08,-0.12 0.16,-0.24 0.24,-0.36 0.03,-0.04 0.3,-0.41 0.18,-0.26 -0.12,0.15 0.18,-0.21 0.21,-0.25 0.12,-0.14 0.24,-0.27 0.36,-0.4 0.23,-0.25 0.48,-0.49 0.73,-0.72 0.04,-0.03 0.38,-0.3 0.18,-0.15 -0.18,0.13 0.18,-0.12 0.24,-0.16 0.23,-0.15 0.48,-0.28 0.72,-0.4 0.06,-0.03 0.12,-0.05 0.18,-0.08 0.18,-0.09 -0.27,0.11 -0.08,0.03 0.14,-0.05 0.29,-0.11 0.43,-0.16 0.58,-0.2 1.18,-0.32 1.78,-0.42 0.27,-0.05 -0.01,0 -0.06,0 0.08,0 0.15,-0.02 0.23,-0.03 0.16,-0.02 0.31,-0.03 0.47,-0.04 0.37,-0.03 0.73,-0.04 1.1,-0.04 0.74,0 1.49,0.03 2.23,0.1 0.37,0.03 0.74,0.08 1.11,0.12 -0.27,-0.04 0.22,0.03 0.32,0.05 0.24,0.04 0.49,0.08 0.73,0.12 1.77,0.31 3.53,0.73 5.26,1.22 3.88,1.09 7.66,2.5 11.39,4 8.14,3.27 16.09,7.23 24.31,10.45 6.56,2.57 13.26,4.89 20.04,6.81 0.11,0.03 0.23,0.06 0.34,0.09 1.86,0.51 2.66,-2.38 0.8,-2.89 v 0 z"
         id="path12-9" />
      <path
         style="color:#000000;fill:#002ddc;stroke-width:3.63005;-inkscape-stroke:none"
         d="m 181.73,101.78 c -4.72,-1.22 -9.41,-2.55 -14.07,-3.96 -3.92,-1.18 -7.83,-2.42 -11.7,-3.8 -1.8,-0.64 -3.59,-1.31 -5.35,-2.03 -0.2,-0.08 -0.39,-0.16 -0.59,-0.24 0.25,0.1 -0.26,-0.11 -0.34,-0.15 -0.38,-0.17 -0.77,-0.34 -1.15,-0.51 -1.19,-0.55 -2.39,-1.09 -3.6,-1.59 -4.66,-1.96 -9.5,-3.59 -14.45,-4.6 -2.05,-0.42 -4.14,-0.75 -6.23,-0.79 -1.56,-0.03 -3.19,0.09 -4.62,0.74 -1.09,0.5 -1.98,1.46 -1.69,2.74 0.21,0.94 0.98,1.58 1.72,2.12 1.97,1.41 4.4,2.28 6.66,3.14 4.38,1.67 8.88,3.07 13.4,4.34 0.09,0.02 0.17,0.05 0.26,0.07 1.86,0.52 2.66,-2.38 0.8,-2.89 -3.74,-1.04 -7.46,-2.2 -11.12,-3.48 -1.33,-0.47 -2.65,-0.95 -3.95,-1.48 -0.15,-0.06 -0.3,-0.12 -0.45,-0.19 -0.13,-0.06 -0.44,-0.19 -0.13,-0.06 -0.31,-0.14 -0.63,-0.27 -0.94,-0.41 -0.51,-0.23 -1.01,-0.47 -1.51,-0.73 -0.41,-0.22 -0.82,-0.45 -1.21,-0.71 -0.08,-0.06 -0.17,-0.11 -0.25,-0.17 -0.32,-0.22 -0.05,0.04 0.03,0.03 -0.08,0 -0.31,-0.27 -0.37,-0.33 -0.02,-0.02 -0.13,-0.17 -0.16,-0.18 0.07,0 0.25,0.38 0.11,0.13 -0.04,-0.07 -0.15,-0.29 -0.01,0.01 0.16,0.36 0,-0.22 0.05,0.19 0.04,0.32 0.02,0.18 0.02,0.11 0,-0.14 0.07,-0.12 -0.05,0.31 0.06,-0.24 -0.08,0.17 -0.11,0.21 0.16,-0.3 -0.33,0.29 0.02,0 -0.22,0.18 -0.24,0.16 -0.01,0.04 0.1,-0.05 0.24,-0.1 0.33,-0.17 0.14,-0.11 -0.36,0.12 -0.08,0.03 0.06,-0.02 0.11,-0.04 0.17,-0.06 0.15,-0.05 0.3,-0.09 0.46,-0.13 0.13,-0.03 0.26,-0.06 0.4,-0.09 0.09,-0.02 0.17,-0.03 0.26,-0.05 0.23,-0.04 -0.39,0.04 -0.02,0 0.37,-0.04 0.71,-0.06 1.07,-0.08 1.88,-0.06 3.53,0.16 5.23,0.47 4.76,0.85 9.42,2.35 13.9,4.13 3.74,1.49 7.35,3.25 11.13,4.65 3.71,1.37 7.48,2.59 11.26,3.76 5.24,1.61 10.51,3.12 15.81,4.5 0.09,0.02 0.18,0.05 0.26,0.07 1.87,0.48 2.67,-2.41 0.8,-2.89 v 0 z"
         id="path14" />
      <path
         style="color:#000000;fill:#002ddc;stroke-width:3.63005;-inkscape-stroke:none"
         d="m 125.27,127.01 c -1.39,0.47 -2.75,1.03 -4.09,1.61 -2.04,0.89 -4.24,1.89 -5.86,3.45 -0.72,0.69 -1.31,1.6 -1.29,2.64 0.02,0.95 0.37,1.89 1.03,2.58 1.62,1.67 4.29,1.5 6.38,1.09 3.06,-0.6 5.88,-2.04 8.66,-3.4 0.73,-0.36 0.93,-1.39 0.54,-2.05 -0.43,-0.74 -1.32,-0.9 -2.05,-0.54 -2.07,1.01 -4.12,2.04 -6.33,2.7 -0.63,0.19 -1.26,0.34 -1.91,0.46 -0.14,0.02 -0.29,0.05 -0.43,0.07 0.34,-0.04 -0.1,0 -0.14,0 -0.29,0.03 -0.58,0.04 -0.87,0.04 -0.22,0 -0.44,-0.02 -0.66,-0.04 -0.35,-0.02 0.33,0.09 0,0 -0.06,-0.02 -0.13,-0.02 -0.19,-0.04 -0.18,-0.04 -0.34,-0.1 -0.51,-0.15 -0.28,-0.08 0.28,0.19 0.06,0.02 -0.07,-0.06 -0.19,-0.11 -0.27,-0.15 -0.13,-0.07 -0.21,-0.24 0.06,0.06 -0.05,-0.05 -0.11,-0.09 -0.16,-0.14 -0.31,-0.33 0.08,0.23 -0.07,-0.07 -0.03,-0.05 -0.06,-0.13 -0.1,-0.18 -0.15,-0.19 0.08,0.35 0.04,0.11 0,-0.06 -0.04,-0.14 -0.06,-0.2 -0.12,-0.35 -0.05,0.02 0,0.05 -0.02,-0.01 -0.02,-0.36 -0.01,-0.36 0.05,0 -0.1,0.45 -0.01,0.14 0.05,-0.17 0.14,-0.17 -0.05,0.1 0.09,-0.12 0.16,-0.27 0.24,-0.39 -0.21,0.35 -0.11,0.13 -0.02,0.04 0.09,-0.09 0.17,-0.18 0.26,-0.27 0.15,-0.14 0.3,-0.27 0.46,-0.4 0.27,-0.24 -0.27,0.18 0.04,-0.03 0.09,-0.06 0.18,-0.13 0.28,-0.2 0.4,-0.28 0.82,-0.53 1.24,-0.77 0.94,-0.53 1.91,-1 2.9,-1.44 0.26,-0.12 0.53,-0.23 0.8,-0.35 -0.33,0.14 0.28,-0.11 0.39,-0.16 0.43,-0.18 0.86,-0.35 1.3,-0.51 0.41,-0.15 0.81,-0.31 1.23,-0.45 0.77,-0.26 1.27,-1.03 1.05,-1.85 -0.2,-0.75 -1.08,-1.31 -1.85,-1.05 v 0 z"
         id="path16" />
      <path
         style="color:#000000;fill:#002ddc;stroke-width:3.63005;-inkscape-stroke:none"
         d="m 114.97,138.56 c 0.01,0.91 0.03,1.82 0.01,2.73 0,0.3 -0.02,0.58 0.05,0.89 0.13,0.51 0.53,0.91 0.96,1.18 0.72,0.44 1.6,0.57 2.42,0.66 0.99,0.11 2.03,0.05 2.99,-0.21 0.64,-0.17 1.1,-0.79 1.1,-1.45 v -4.12 c 0,-0.78 -0.69,-1.54 -1.5,-1.5 -0.81,0.04 -1.5,0.66 -1.5,1.5 v 4.12 l 1.1,-1.45 c -0.24,0.06 -0.47,0.11 -0.72,0.15 l 0.4,-0.05 c -0.67,0.09 -1.34,0.08 -2,0 l 0.4,0.05 c -0.43,-0.06 -0.86,-0.15 -1.27,-0.31 l 0.36,0.15 c -0.13,-0.05 -0.25,-0.12 -0.36,-0.2 l 0.3,0.23 c 0,0 -0.09,-0.07 -0.12,-0.12 l 0.23,0.3 c 0,0 -0.03,-0.05 -0.05,-0.08 l 0.15,0.36 c 0,0 -0.01,-0.04 -0.02,-0.06 l 0.05,0.4 c -0.02,-0.24 0.01,-0.49 0.02,-0.72 0,-0.36 0,-0.71 0,-1.07 0,-0.46 0,-0.92 -0.02,-1.39 -0.01,-0.78 -0.68,-1.54 -1.5,-1.5 -0.82,0.04 -1.51,0.66 -1.5,1.5 v 0 z"
         id="path18" />
      <path
         style="color:#000000;fill:#002ddc;stroke-width:3.63005;-inkscape-stroke:none"
         d="m 123.38,224.16 c 0.45,0.78 1.18,1.44 1.88,1.99 1.98,1.56 4.36,2.54 6.8,3.14 6.6,1.61 14.12,1.18 20.06,-2.32 1.17,-0.69 2.39,-1.5 3.31,-2.51 0.55,-0.6 0.59,-1.53 0,-2.12 -0.55,-0.55 -1.57,-0.6 -2.12,0 -0.17,0.19 -0.37,0.36 -0.56,0.53 -0.1,0.08 -0.19,0.17 -0.29,0.25 -0.05,0.04 -0.1,0.08 -0.16,0.13 -0.26,0.21 0.03,-0.02 0.02,0 -0.34,0.23 -0.66,0.48 -1,0.71 -0.89,0.58 -1.84,1.07 -2.81,1.51 -0.05,0.02 -0.26,0.11 -0.02,0 -0.06,0.03 -0.13,0.05 -0.19,0.08 -0.15,0.06 -0.31,0.12 -0.46,0.18 -0.32,0.12 -0.65,0.24 -0.98,0.34 -0.72,0.23 -1.45,0.43 -2.18,0.59 -3.33,0.72 -7.03,0.67 -10.44,0.04 -1.44,-0.27 -2.83,-0.66 -4.19,-1.19 -0.27,-0.11 0.14,0.07 -0.12,-0.05 -0.13,-0.06 -0.26,-0.12 -0.39,-0.18 -0.24,-0.12 -0.48,-0.24 -0.72,-0.36 -0.41,-0.22 -0.81,-0.46 -1.2,-0.73 -0.1,-0.07 -0.19,-0.14 -0.29,-0.2 -0.17,-0.12 -0.18,-0.16 0,0.01 -0.15,-0.13 -0.31,-0.25 -0.45,-0.38 -0.22,-0.2 -0.44,-0.41 -0.64,-0.63 -0.07,-0.08 -0.14,-0.16 -0.21,-0.24 -0.15,-0.16 0.27,0.38 0.07,0.08 -0.04,-0.05 -0.08,-0.11 -0.11,-0.17 -0.97,-1.67 -3.56,-0.16 -2.59,1.51 v 0 z"
         id="path20" />
      <path
         style="color:#000000;fill:#002ddc;stroke-width:3.63005;-inkscape-stroke:none"
         d="m 127.53,104.45 c -0.25,0.63 -0.12,0.29 -0.03,0.1 0.1,-0.22 0.22,-0.42 0.34,-0.63 0.18,-0.31 0.38,-0.62 0.59,-0.91 0.07,-0.1 0.14,-0.19 0.21,-0.28 0.13,-0.18 -0.24,0.29 0,0 0.17,-0.21 0.34,-0.42 0.52,-0.62 0.38,-0.42 0.79,-0.82 1.21,-1.2 0.11,-0.1 0.23,-0.2 0.35,-0.29 0.06,-0.05 0.42,-0.34 0.26,-0.21 -0.16,0.13 0.22,-0.16 0.28,-0.2 0.15,-0.11 0.31,-0.21 0.46,-0.32 0.64,-0.42 1.31,-0.79 2.01,-1.12 0.08,-0.04 0.16,-0.07 0.24,-0.11 0.38,-0.18 -0.17,0.07 0.07,-0.03 0.19,-0.08 0.38,-0.15 0.57,-0.22 0.42,-0.16 0.85,-0.29 1.28,-0.42 2.05,-0.59 3.83,-0.75 6,-0.71 2.35,0.05 4.69,0.38 6.96,0.99 1.95,0.52 3.36,1.06 5.05,2.02 0.65,0.37 1.28,0.78 1.89,1.23 0.01,0 0.31,0.23 0.11,0.08 -0.2,-0.15 0.09,0.07 0.11,0.08 0.11,0.09 0.22,0.18 0.33,0.27 0.25,0.21 0.5,0.43 0.74,0.66 0.43,0.41 0.83,0.84 1.21,1.3 0.09,0.1 0.33,0.46 0.03,0.03 0.06,0.09 0.13,0.18 0.2,0.27 0.13,0.17 0.25,0.35 0.36,0.53 0.15,0.24 0.3,0.48 0.42,0.73 0.14,0.27 0.19,0.43 0,-0.05 l 1.05,-1.85 c -1.85,0.73 -3.88,1.12 -5.84,1.44 -0.49,0.08 -0.97,0.15 -1.46,0.22 0.27,-0.04 0.02,0 -0.1,0.01 -0.12,0.01 -0.26,0.03 -0.38,0.05 -0.29,0.03 -0.57,0.07 -0.86,0.09 -1.25,0.13 -2.5,0.21 -3.75,0.25 -3.02,0.1 -6.04,-0.04 -9.03,-0.38 -4.21,-0.48 -8.36,-1.43 -12.41,-2.67 -1.85,-0.57 -2.64,2.33 -0.8,2.89 6.82,2.1 13.97,3.28 21.11,3.19 4.14,-0.05 8.35,-0.51 12.36,-1.59 0.66,-0.18 1.33,-0.36 1.96,-0.61 0.68,-0.27 1.38,-1.03 1.05,-1.85 -0.55,-1.33 -1.44,-2.51 -2.42,-3.56 -2.33,-2.47 -5.39,-4.16 -8.59,-5.23 -4.63,-1.55 -9.89,-2.06 -14.69,-1.09 -3.3,0.67 -6.45,2.24 -8.85,4.62 -1.23,1.22 -2.32,2.66 -2.98,4.27 -0.3,0.75 0.33,1.65 1.05,1.85 0.86,0.24 1.54,-0.29 1.85,-1.05 z"
         id="path22" />
      <path
         style="color:#000000;fill:#002ddc;stroke-width:3.63005;-inkscape-stroke:none"
         d="m 122.42,136.53 c 0.25,5.62 0.7,11.23 1.09,16.83 0.52,7.3 1.05,14.59 1.65,21.88 0.49,5.92 1.12,11.82 1.66,17.74 0.32,3.53 0.64,7.06 0.96,10.59 0.09,1.02 0.18,2.04 0.27,3.05 0.01,0.16 -0.01,0.44 0.05,0.59 0.04,0.1 0.1,-0.46 0.05,-0.34 -0.03,0.08 -0.05,0.18 -0.07,0.26 l -3.77,14.62 -0.11,0.42 1.45,-1.1 c -3.95,0.39 -8.12,1.93 -11.05,4.65 -1.31,1.22 -2.27,2.7 -2.93,4.35 -0.3,0.75 0.33,1.65 1.05,1.85 0.85,0.23 1.54,-0.29 1.85,-1.05 0,0 0.1,-0.23 0.04,-0.1 -0.06,0.14 0.07,-0.14 0.08,-0.17 0.07,-0.13 0.13,-0.27 0.2,-0.4 0.16,-0.3 0.34,-0.6 0.53,-0.88 0.09,-0.14 0.19,-0.28 0.3,-0.41 -0.14,0.18 0.08,-0.09 0.13,-0.14 0.23,-0.27 0.47,-0.53 0.73,-0.77 0.22,-0.21 0.45,-0.41 0.68,-0.61 0.06,-0.05 0.32,-0.25 0.13,-0.11 0.15,-0.11 0.3,-0.22 0.45,-0.32 0.5,-0.35 1.03,-0.66 1.56,-0.94 0.25,-0.13 0.51,-0.26 0.77,-0.38 0.14,-0.06 0.27,-0.12 0.41,-0.18 0.16,-0.07 -0.05,0.02 -0.07,0.03 0.08,-0.03 0.15,-0.06 0.23,-0.09 0.52,-0.21 1.04,-0.39 1.57,-0.55 0.82,-0.25 1.65,-0.46 2.49,-0.62 0.29,-0.05 0.58,-0.09 0.88,-0.15 0.18,-0.03 -0.47,0.06 -0.21,0.03 0.04,0 0.07,0 0.11,-0.01 0.03,0 0.06,0 0.09,0 0.66,-0.06 1.27,-0.42 1.45,-1.1 l 3.63,-14.05 c 0.14,-0.53 0.38,-1.14 0.38,-1.7 0,-0.56 -0.1,-1.17 -0.15,-1.74 -0.28,-3.17 -0.57,-6.33 -0.86,-9.5 -0.57,-6.23 -1.22,-12.46 -1.76,-18.69 -0.61,-7.01 -1.11,-14.03 -1.62,-21.05 -0.45,-6.22 -0.91,-12.44 -1.25,-18.67 -0.02,-0.35 -0.04,-0.7 -0.05,-1.05 -0.04,-0.81 -0.66,-1.5 -1.5,-1.5 -0.78,0 -1.54,0.69 -1.5,1.5 v 0 z"
         id="path24" />
      <path
         style="color:#000000;fill:#002ddc;stroke-width:3.63005;-inkscape-stroke:none"
         d="m 112.54,241.68 c 3.5,5.65 10.75,8.28 16.94,9.55 7.72,1.57 15.71,1.13 23.29,-0.96 3.54,-0.98 7.07,-2.34 10.18,-4.31 2.57,-1.63 5.05,-3.77 6.41,-6.55 0.64,-1.3 1.14,-2.78 1.06,-4.24 -0.08,-1.46 -0.35,-3.06 -0.91,-4.48 -0.97,-2.49 -2.59,-4.53 -4.73,-6.12 -1.66,-1.23 -3.59,-2.11 -5.56,-2.71 -0.7,-0.21 -1.41,-0.39 -2.12,-0.53 -0.49,-0.09 -1.09,-0.26 -1.59,-0.24 -0.06,0 -0.12,-0.01 -0.17,-0.02 l 1.45,1.1 -1.34,-8.61 -0.71,-4.55 c -0.02,-0.14 -0.04,-0.29 -0.07,-0.43 -0.05,-0.28 0.04,0.3 0.04,0.29 0.04,-0.04 0.02,-0.2 0.03,-0.25 0.23,-1.35 0.35,-2.72 0.53,-4.08 l 1.03,-7.99 2.91,-22.53 2.89,-22.37 c 0.5,-3.86 1.11,-7.72 1.5,-11.59 0,-0.06 0.01,-0.12 0.02,-0.17 l -0.2,0.76 c 1.62,-3.54 3.21,-7.1 4.78,-10.67 2.67,-6.06 5.34,-12.14 7.68,-18.34 0.44,-1.18 0.87,-2.36 1.24,-3.56 0.24,-0.79 0.51,-1.65 0.52,-2.49 0.01,-1.09 -1.3,-1.93 -2.26,-1.3 -0.43,0.29 -0.88,0.53 -1.34,0.78 -0.54,0.29 -1.1,0.57 -1.65,0.83 -0.35,0.17 -0.71,0.33 -1.07,0.48 -0.1,0.04 -0.19,0.08 -0.29,0.13 0.37,-0.16 0.02,0 -0.05,0.02 -0.21,0.09 -0.43,0.17 -0.64,0.26 -4.88,1.93 -10.08,3.12 -15.29,3.67 -7.8,0.82 -15.66,0.22 -23.39,-0.91 -4.73,-0.69 -9.55,-1.57 -14.04,-3.29 -0.19,-0.07 -0.37,-0.15 -0.56,-0.22 -0.1,-0.04 -0.38,-0.16 0.06,0.03 -0.08,-0.04 -0.17,-0.07 -0.25,-0.11 -0.28,-0.13 -0.56,-0.25 -0.84,-0.39 -0.4,-0.2 -0.8,-0.41 -1.19,-0.65 -0.12,-0.08 -0.24,-0.16 -0.36,-0.24 -0.39,-0.26 0.16,0.15 0.03,0.03 -0.06,-0.05 -0.12,-0.1 -0.18,-0.16 -0.97,-1.02 -3.1,0.03 -2.51,1.46 2.21,5.37 4.33,10.78 6.32,16.23 0.84,2.3 1.66,4.61 2.41,6.95 0.59,1.83 3.49,1.05 2.89,-0.8 -2.35,-7.23 -5.14,-14.33 -7.99,-21.38 -0.24,-0.6 -0.49,-1.2 -0.74,-1.8 l -2.51,1.46 c 0.85,0.89 2.16,1.45 3.25,1.93 4.09,1.78 8.52,2.72 12.91,3.46 13.69,2.31 28.12,2.95 41.38,-1.84 2.43,-0.88 4.98,-1.87 7.15,-3.32 l -2.26,-1.3 c 0,0.08 -0.02,0.17 -0.02,0.25 0,0.14 0.09,-0.46 0.02,-0.18 -0.02,0.06 -0.02,0.13 -0.04,0.2 -0.06,0.31 -0.14,0.61 -0.23,0.91 -0.23,0.83 -0.52,1.65 -0.81,2.47 -0.83,2.33 -1.75,4.62 -2.69,6.9 -1.14,2.79 -2.16,5.16 -3.38,7.99 -1.11,2.57 -2.24,5.13 -3.38,7.68 -0.83,1.86 -1.66,3.72 -2.5,5.57 -0.36,0.79 -0.89,1.66 -1,2.52 -0.24,1.83 -0.47,3.67 -0.71,5.5 l -1.65,12.82 -2.12,16.45 -2.12,16.39 -1.63,12.63 -0.49,3.77 c -0.06,0.46 -0.18,0.95 -0.18,1.42 0,0.51 0.16,1.08 0.24,1.58 l 0.53,3.42 1.19,7.65 0.23,1.44 c 0.11,0.68 0.84,1.05 1.45,1.1 0.05,0 0.11,0 0.16,0.02 0.53,0.06 -0.36,-0.06 0.1,0.01 0.54,0.09 1.09,0.19 1.62,0.32 0.76,0.18 1.52,0.41 2.26,0.68 0.17,0.06 0.35,0.13 0.52,0.2 0.06,0.02 0.42,0.18 0.06,0.02 0.11,0.05 0.21,0.09 0.32,0.14 0.44,0.2 0.87,0.42 1.29,0.65 0.42,0.23 0.87,0.52 1.29,0.81 0.07,0.05 0.56,0.42 0.32,0.23 0.24,0.19 0.48,0.39 0.71,0.6 0.93,0.85 1.38,1.4 1.96,2.39 0.64,1.08 0.97,1.96 1.25,3.29 0.14,0.65 0.19,1.06 0.22,1.73 0.01,0.19 0.03,0.39 0.02,0.57 0.01,-0.3 -0.04,0.18 -0.04,0.2 -0.06,0.3 -0.13,0.59 -0.22,0.88 -0.28,0.93 -0.94,2.13 -1.56,2.91 -0.84,1.04 -1.87,2 -2.92,2.77 -2.6,1.9 -5.58,3.24 -8.63,4.24 -6.8,2.22 -14.21,3.06 -21.3,2.02 -3.64,-0.53 -7.3,-1.46 -10.64,-3.03 -1.44,-0.68 -2.98,-1.56 -4.16,-2.49 -1.17,-0.93 -2.13,-1.93 -2.85,-3.08 -1.02,-1.64 -3.61,-0.13 -2.59,1.51 v 0 z"
         id="path26" />
      <path
         style="color:#000000;fill:#002ddc;stroke-width:3.63005;-inkscape-stroke:none"
         d="m 177.42,104.84 c -1.27,-2.35 -3.71,-4.26 -5.91,-5.65 -5.48,-3.47 -11.97,-4.49 -18.31,-5.1 -6.73,-0.64 -13.52,-0.76 -20.27,-0.5 -2.89,0.11 -5.79,0.29 -8.67,0.62 -2.48,0.28 -5.1,0.55 -7.41,1.56 -3.84,1.68 -5.65,5.79 -5.11,9.82 0.02,0.14 0.03,0.28 0.06,0.41 0.15,0.8 1.11,1.25 1.85,1.05 0.83,-0.23 1.2,-1.05 1.05,-1.85 -0.06,-0.29 0.05,-0.08 0.02,0.15 0.03,-0.19 -0.05,-0.43 -0.06,-0.62 -0.02,-0.3 -0.02,-0.6 0,-0.9 0,-0.16 0.02,-0.33 0.03,-0.49 0,-0.1 0.03,-0.2 0.03,-0.3 0,-0.02 -0.05,0.31 0,0 0.08,-0.42 0.17,-0.83 0.3,-1.24 0.03,-0.1 0.07,-0.2 0.1,-0.29 0.06,-0.15 0.12,-0.26 0,-0.03 0.11,-0.23 0.22,-0.46 0.35,-0.68 0.11,-0.2 0.25,-0.38 0.37,-0.57 0.15,-0.23 -0.14,0.14 0.06,-0.07 0.11,-0.12 0.21,-0.24 0.33,-0.36 0.18,-0.18 0.36,-0.35 0.56,-0.52 0.21,-0.18 -0.12,0.06 0.12,-0.09 0.16,-0.1 0.31,-0.21 0.47,-0.3 0.65,-0.39 0.95,-0.51 1.63,-0.72 0.54,-0.17 1.1,-0.29 1.66,-0.4 0.49,-0.09 0.97,-0.18 1.46,-0.25 0.25,-0.04 0.49,-0.07 0.74,-0.11 0.11,-0.02 0.38,-0.05 0.11,-0.02 0.15,-0.02 0.31,-0.04 0.46,-0.06 2.68,-0.34 5.38,-0.53 8.08,-0.65 6.46,-0.3 12.95,-0.24 19.39,0.25 5.95,0.45 12.19,1.15 17.49,3.96 1.02,0.54 2,1.16 2.93,1.85 0.06,0.05 0.13,0.09 0.19,0.14 0,0 -0.21,-0.16 -0.08,-0.06 0.09,0.07 0.18,0.14 0.26,0.21 0.18,0.15 0.36,0.29 0.53,0.44 0.31,0.27 0.61,0.55 0.91,0.85 0.25,0.25 0.48,0.5 0.71,0.76 0.1,0.11 0.19,0.22 0.29,0.34 0.04,0.05 0.08,0.1 0.12,0.15 0.18,0.22 -0.06,0 -0.07,-0.1 0.02,0.2 0.43,0.61 0.56,0.81 0.02,0.04 0.04,0.07 0.07,0.11 0.92,1.7 3.51,0.19 2.59,-1.51 v 0 z"
         id="path28-4" />
      <path
         style="color:#000000;fill:#002ddc;stroke-width:3.63005;-inkscape-stroke:none"
         d="m 182.8,96.91 c -5.91,-1.76 -11.73,-3.86 -17.48,-6.08 -4.66,-1.8 -9.25,-3.76 -13.78,-5.85 -3.84,-1.77 -7.67,-3.58 -11.54,-5.29 -3.87,-1.71 -7.8,-3.35 -11.83,-4.68 -3.35,-1.1 -6.84,-2.05 -10.38,-2.2 -2.77,-0.12 -5.69,0.38 -7.8,2.31 -1.97,1.8 -3.54,4.37 -3.31,7.12 0.25,2.9 2.13,5.3 4.32,7.08 3.32,2.7 7.3,4.46 11.31,5.9 1.21,0.43 2.44,0.83 3.68,1.2 1.85,0.56 2.64,-2.34 0.8,-2.89 -4.16,-1.25 -8.32,-2.78 -11.99,-5.14 -0.34,-0.22 -0.68,-0.45 -1.01,-0.68 -0.16,-0.11 -0.31,-0.23 -0.47,-0.35 -0.19,-0.15 0.15,0.12 -0.03,-0.03 -0.09,-0.07 -0.18,-0.14 -0.27,-0.22 -0.56,-0.46 -1.1,-0.96 -1.59,-1.51 -0.11,-0.12 -0.21,-0.24 -0.31,-0.36 -0.07,-0.08 -0.32,-0.42 -0.12,-0.15 -0.19,-0.27 -0.38,-0.53 -0.55,-0.82 -0.14,-0.24 -0.26,-0.49 -0.39,-0.73 -0.09,-0.18 0.08,0.25 -0.04,-0.1 -0.06,-0.15 -0.11,-0.3 -0.16,-0.46 -0.07,-0.24 -0.11,-0.49 -0.17,-0.74 -0.06,-0.25 0.02,0.35 0,-0.06 0,-0.14 -0.02,-0.28 -0.02,-0.42 0,-0.14 0,-0.28 0.01,-0.42 0.01,-0.14 0.1,-0.49 0,-0.06 0.06,-0.26 0.1,-0.52 0.17,-0.78 0.04,-0.12 0.08,-0.24 0.12,-0.37 0.02,-0.06 0.05,-0.12 0.07,-0.18 0.06,-0.19 -0.12,0.27 -0.04,0.08 0.13,-0.26 0.25,-0.52 0.4,-0.78 0.16,-0.27 0.34,-0.52 0.52,-0.77 0.12,-0.17 -0.16,0.2 -0.02,0.03 0.05,-0.06 0.1,-0.12 0.15,-0.18 0.12,-0.14 0.23,-0.27 0.36,-0.4 0.23,-0.25 0.46,-0.49 0.71,-0.71 0.09,-0.09 0.19,-0.17 0.29,-0.25 0.19,-0.17 -0.05,0.04 -0.08,0.06 0.08,-0.05 0.16,-0.11 0.24,-0.17 0.22,-0.14 0.44,-0.27 0.67,-0.39 0.12,-0.06 0.24,-0.11 0.36,-0.17 -0.4,0.18 0.1,-0.03 0.21,-0.07 0.26,-0.09 0.53,-0.16 0.8,-0.23 0.14,-0.03 0.28,-0.06 0.42,-0.09 0.08,-0.02 0.54,-0.09 0.35,-0.06 -0.22,0.03 0.25,-0.03 0.31,-0.03 0.17,-0.02 0.35,-0.03 0.52,-0.04 0.34,-0.02 0.68,-0.02 1.03,-0.02 0.71,0 1.42,0.06 2.13,0.14 0.09,0.01 0.18,0.02 0.27,0.03 -0.29,-0.04 -0.05,0 0.01,0 0.21,0.03 0.42,0.06 0.62,0.1 0.4,0.07 0.81,0.14 1.21,0.22 1.75,0.36 3.48,0.84 5.18,1.38 3.75,1.19 7.42,2.69 10.98,4.24 8.17,3.57 16.14,7.55 24.43,10.85 6.44,2.57 12.99,4.93 19.63,6.95 0.1,0.03 0.21,0.06 0.31,0.09 1.85,0.55 2.65,-2.34 0.8,-2.89 v 0 z"
         id="path30-2" />
      <path
         style="color:#000000;fill:#002ddc;stroke-width:3.63005;-inkscape-stroke:none"
         d="m 181.81,101.85 c -5.08,-1.57 -10.13,-3.24 -15.15,-4.99 -4.11,-1.43 -8.21,-2.91 -12.26,-4.53 -1.84,-0.74 -3.17,-1.29 -4.99,-2.13 -1.42,-0.66 -2.97,-1.11 -4.45,-1.61 -1.35,-0.46 -2.71,-0.91 -4.07,-1.34 -4.25,-1.34 -8.57,-2.56 -12.99,-3.14 -2.63,-0.34 -5.52,-0.49 -7.98,0.66 -0.98,0.46 -1.91,1.18 -1.95,2.35 -0.03,1.06 0.83,1.84 1.63,2.39 0.9,0.63 1.95,1.06 2.96,1.48 1.27,0.53 2.57,0.99 3.88,1.42 4.67,1.55 9.46,2.8 14.25,3.92 0.09,0.02 0.18,0.04 0.27,0.06 0.79,0.18 1.62,-0.24 1.85,-1.05 0.21,-0.76 -0.25,-1.66 -1.05,-1.85 -4,-0.92 -7.98,-1.97 -11.91,-3.16 -1.39,-0.42 -2.77,-0.86 -4.14,-1.34 -0.61,-0.22 -1.23,-0.44 -1.83,-0.69 -0.12,-0.05 -0.24,-0.1 -0.36,-0.14 -0.4,-0.16 0.23,0.1 -0.15,-0.06 -0.26,-0.12 -0.52,-0.23 -0.78,-0.36 -0.42,-0.2 -0.83,-0.41 -1.22,-0.66 -0.1,-0.06 -0.34,-0.3 -0.44,-0.3 0.19,0 0.3,0.27 0.08,0.05 -0.06,-0.06 -0.12,-0.12 -0.18,-0.18 -0.24,-0.21 0.2,0.37 0.01,0 -0.05,-0.1 0.16,0.46 0.09,0.18 -0.01,-0.05 0.04,0.47 0.04,0.31 0,-0.16 0.05,-0.11 -0.05,0.28 0.06,-0.25 -0.13,0.26 -0.1,0.2 0.07,-0.12 0.22,-0.29 -0.13,0.16 0.04,-0.05 0.09,-0.09 0.14,-0.13 -0.24,0.21 -0.22,0.16 0,0.03 0.17,-0.11 0.34,-0.2 0.52,-0.29 0.38,-0.19 -0.12,0.03 0.03,-0.02 0.11,-0.04 0.23,-0.08 0.34,-0.12 0.22,-0.07 0.44,-0.13 0.67,-0.18 0.13,-0.03 0.27,-0.06 0.4,-0.08 0.13,-0.02 0.6,-0.07 0.11,-0.02 1.31,-0.12 2.6,-0.12 3.91,0 0.2,0.02 0.4,0.04 0.61,0.06 0.08,0 0.17,0.02 0.25,0.03 0,0 0.41,0.05 0.18,0.02 -0.23,-0.03 0.19,0.03 0.19,0.03 0.09,0.01 0.18,0.03 0.26,0.04 0.22,0.03 0.45,0.07 0.67,0.11 0.93,0.16 1.85,0.34 2.76,0.55 2.23,0.5 4.44,1.11 6.63,1.77 2.67,0.81 5.31,1.69 7.93,2.61 1.94,0.68 3.82,1.57 5.75,2.37 3.83,1.58 7.73,3.02 11.64,4.4 5.64,1.99 11.32,3.88 17.04,5.66 0.1,0.03 0.2,0.06 0.3,0.09 1.85,0.57 2.64,-2.32 0.8,-2.89 v 0 z"
         id="path32" />
      <path
         style="color:#000000;fill:#002ddc;stroke-width:3.63005;-inkscape-stroke:none"
         d="m 125.35,127.09 c -1.12,0.31 -2.23,0.69 -3.32,1.1 -1.92,0.72 -3.89,1.54 -5.48,2.85 -1.42,1.17 -1.99,2.93 -1.1,4.62 0.89,1.69 2.73,2.17 4.43,2.18 3.22,0.02 6.42,-1.37 9.25,-2.73 l -0.76,0.2 c 0.3,-0.01 0.6,0 0.9,-0.04 0.36,-0.05 -0.44,-0.17 -0.19,-0.03 0.22,0.12 0.51,0.19 0.75,0.27 1.17,0.4 2.37,0.73 3.57,1.02 4.52,1.09 9.23,1.58 13.88,1.41 3.48,-0.13 6.95,-0.64 10.31,-1.53 1.86,-0.5 1.07,-3.39 -0.8,-2.89 -8.62,2.3 -17.97,1.95 -26.32,-0.95 -0.86,-0.3 -1.77,-0.44 -2.67,-0.12 -0.67,0.24 -1.3,0.61 -1.96,0.89 -0.66,0.28 -1.39,0.55 -2.09,0.77 -0.53,0.17 -1.06,0.32 -1.6,0.45 -0.23,0.05 -0.46,0.1 -0.69,0.15 -0.14,0.03 -0.29,0.05 -0.43,0.07 -0.33,0.05 0.2,0 -0.15,0.02 -0.41,0.03 -0.82,0.06 -1.23,0.05 -0.16,0 -0.32,-0.03 -0.48,-0.04 -0.22,0 0.36,0.09 0.05,0 -0.09,-0.03 -0.19,-0.04 -0.28,-0.06 -0.14,-0.04 -0.28,-0.09 -0.42,-0.13 -0.27,-0.07 0.21,0.15 0.09,0.04 -0.04,-0.04 -0.13,-0.06 -0.18,-0.09 -0.14,-0.09 -0.37,-0.35 -0.07,-0.02 -0.05,-0.06 -0.21,-0.25 -0.28,-0.27 0.08,0.02 0.17,0.28 0.02,0 0,-0.02 -0.1,-0.17 -0.09,-0.18 0.03,-0.03 0.11,0.41 0.07,0.17 -0.01,-0.09 -0.06,-0.25 -0.09,-0.33 -0.09,-0.24 0,0.32 0.02,0.15 0,-0.07 0,-0.19 -0.01,-0.26 -0.04,-0.17 -0.11,0.39 0,0.01 0.05,-0.17 0.12,-0.1 -0.05,0.11 0,0 0.07,-0.12 0.08,-0.14 0,-0.06 0.11,-0.15 0.14,-0.21 -0.15,0.3 -0.16,0.18 -0.07,0.1 0.14,-0.13 0.26,-0.28 0.41,-0.4 0.05,-0.04 0.11,-0.09 0.16,-0.13 0.21,-0.19 -0.24,0.15 0.08,-0.06 0.18,-0.12 0.35,-0.24 0.53,-0.35 0.4,-0.25 0.82,-0.48 1.25,-0.69 0.43,-0.21 0.9,-0.43 1.36,-0.62 -0.27,0.11 -0.05,0.02 0,0 0.14,-0.06 0.28,-0.11 0.42,-0.17 0.21,-0.08 0.43,-0.17 0.64,-0.25 1.05,-0.39 2.12,-0.76 3.21,-1.06 1.86,-0.52 1.07,-3.41 -0.8,-2.89 v 0 z"
         id="path34" />
      <path
         style="color:#000000;fill:#002ddc;stroke-width:3.63005;-inkscape-stroke:none"
         d="m 115.95,137.74 c 0.01,0.91 0.03,1.82 0.01,2.73 0,0.3 -0.02,0.58 0.05,0.89 0.13,0.51 0.53,0.91 0.96,1.18 0.72,0.44 1.6,0.57 2.42,0.66 0.99,0.11 2.03,0.05 2.99,-0.21 0.64,-0.17 1.1,-0.79 1.1,-1.45 v -4.12 c 0,-0.78 -0.69,-1.54 -1.5,-1.5 -0.81,0.04 -1.5,0.66 -1.5,1.5 v 4.12 l 1.1,-1.45 c -0.24,0.06 -0.47,0.11 -0.72,0.15 l 0.4,-0.05 c -0.67,0.09 -1.34,0.08 -2,0 l 0.4,0.05 c -0.43,-0.06 -0.86,-0.15 -1.27,-0.31 l 0.36,0.15 c -0.13,-0.05 -0.25,-0.12 -0.36,-0.2 l 0.3,0.23 c 0,0 -0.09,-0.07 -0.12,-0.12 l 0.23,0.3 c 0,0 -0.03,-0.05 -0.05,-0.08 l 0.15,0.36 c 0,0 -0.01,-0.04 -0.02,-0.06 l 0.05,0.4 c -0.02,-0.24 0.01,-0.49 0.02,-0.72 0,-0.36 0,-0.71 0,-1.07 0,-0.46 0,-0.92 -0.02,-1.39 -0.01,-0.78 -0.68,-1.54 -1.5,-1.5 -0.8,0.04 -1.51,0.66 -1.5,1.5 v 0 z"
         id="path36" />
      <path
         style="color:#000000;fill:#002ddc;stroke-width:3.63005;-inkscape-stroke:none"
         d="m 124.36,223.34 c 0.45,0.78 1.18,1.44 1.88,1.99 1.98,1.56 4.36,2.54 6.8,3.14 6.6,1.61 14.12,1.18 20.06,-2.32 1.17,-0.69 2.39,-1.5 3.31,-2.51 0.55,-0.6 0.59,-1.53 0,-2.12 -0.55,-0.55 -1.57,-0.6 -2.12,0 -0.17,0.19 -0.37,0.36 -0.56,0.53 -0.1,0.08 -0.19,0.17 -0.29,0.25 -0.05,0.04 -0.1,0.08 -0.16,0.13 -0.26,0.21 0.03,-0.02 0.02,0 -0.34,0.23 -0.66,0.48 -1,0.71 -0.89,0.58 -1.84,1.07 -2.81,1.51 -0.05,0.02 -0.26,0.11 -0.02,0 -0.06,0.03 -0.13,0.05 -0.19,0.08 -0.15,0.06 -0.31,0.12 -0.46,0.18 -0.32,0.12 -0.65,0.24 -0.98,0.34 -0.72,0.23 -1.45,0.43 -2.18,0.59 -3.33,0.72 -7.03,0.67 -10.44,0.04 -1.44,-0.27 -2.83,-0.66 -4.19,-1.19 -0.27,-0.11 0.14,0.07 -0.12,-0.05 -0.13,-0.06 -0.26,-0.12 -0.39,-0.18 -0.24,-0.12 -0.48,-0.24 -0.72,-0.36 -0.41,-0.22 -0.81,-0.46 -1.2,-0.73 -0.1,-0.07 -0.19,-0.14 -0.29,-0.2 -0.17,-0.12 -0.18,-0.16 0,0.01 -0.15,-0.13 -0.31,-0.25 -0.45,-0.38 -0.22,-0.2 -0.44,-0.41 -0.64,-0.63 -0.07,-0.08 -0.14,-0.16 -0.21,-0.24 -0.15,-0.16 0.27,0.38 0.07,0.08 -0.04,-0.05 -0.08,-0.11 -0.11,-0.17 -0.97,-1.67 -3.56,-0.16 -2.59,1.51 v 0 z"
         id="path38" />
      <path
         style="color:#000000;fill:#002ddc;stroke-width:3.63005;-inkscape-stroke:none"
         d="m 128.5,103.62 c -0.25,0.63 -0.12,0.29 -0.03,0.1 0.1,-0.22 0.22,-0.42 0.34,-0.63 0.18,-0.31 0.38,-0.62 0.59,-0.91 0.07,-0.1 0.14,-0.19 0.21,-0.28 0.13,-0.18 -0.24,0.29 0,0 0.17,-0.21 0.34,-0.42 0.52,-0.62 0.38,-0.42 0.79,-0.82 1.21,-1.2 0.11,-0.1 0.23,-0.2 0.35,-0.29 0.06,-0.05 0.42,-0.34 0.26,-0.21 -0.16,0.13 0.22,-0.16 0.28,-0.2 0.15,-0.11 0.31,-0.21 0.46,-0.32 0.64,-0.42 1.31,-0.79 2.01,-1.12 0.08,-0.04 0.16,-0.07 0.24,-0.11 0.38,-0.18 -0.17,0.07 0.07,-0.03 0.19,-0.08 0.38,-0.15 0.57,-0.22 0.42,-0.16 0.85,-0.29 1.28,-0.42 4.03,-1.15 8.67,-0.89 12.85,0.28 1.8,0.51 3.06,1 4.66,2.02 0.29,0.19 0.58,0.39 0.86,0.59 0.28,0.2 -0.15,-0.14 0.17,0.13 0.13,0.11 0.27,0.22 0.4,0.34 0.44,0.39 0.86,0.81 1.24,1.27 0.08,0.1 0.35,0.48 0.08,0.08 0.07,0.11 0.16,0.21 0.23,0.31 0.15,0.21 0.3,0.43 0.43,0.66 0.2,0.33 0.33,0.77 0.55,1.08 -0.11,-0.15 -0.14,-0.37 -0.05,-0.11 0.02,0.06 0.05,0.12 0.07,0.19 0.04,0.1 0.07,0.21 0.1,0.32 0.03,0.09 0.05,0.19 0.07,0.28 l 0.69,-1.69 c -0.21,0.09 0.37,-0.15 0.26,-0.11 -0.09,0.03 -0.17,0.07 -0.26,0.1 -0.34,0.13 -0.68,0.25 -1.02,0.36 -1.28,0.41 -2.6,0.71 -3.92,0.95 -0.45,0.08 -0.9,0.15 -1.35,0.22 -0.11,0.02 -0.23,0.03 -0.35,0.05 -0.17,0.02 0.09,-0.01 0.1,-0.01 -0.06,0 -0.12,0.02 -0.18,0.02 -0.27,0.03 -0.53,0.06 -0.8,0.09 -1.17,0.13 -2.34,0.21 -3.51,0.24 -2.88,0.1 -5.76,-0.05 -8.62,-0.4 -4.07,-0.49 -8.15,-1.45 -12.09,-2.66 -1.85,-0.57 -2.64,2.33 -0.8,2.89 6.65,2.05 13.62,3.3 20.6,3.19 3.81,-0.06 7.71,-0.49 11.37,-1.59 0.7,-0.21 1.4,-0.45 2.07,-0.75 0.63,-0.28 0.8,-1.09 0.69,-1.69 -0.22,-1.18 -0.91,-2.36 -1.62,-3.32 -1.95,-2.64 -4.76,-4.38 -7.83,-5.47 -2.35,-0.84 -4.83,-1.25 -7.31,-1.46 -2.48,-0.21 -4.83,-0.1 -7.2,0.38 -3.3,0.67 -6.45,2.24 -8.85,4.62 -1.23,1.22 -2.32,2.66 -2.98,4.27 -0.3,0.75 0.33,1.65 1.05,1.85 0.86,0.24 1.54,-0.29 1.85,-1.05 z"
         id="path40-5" />
    </g>
  </g>
</svg>
