<?xml version="1.0" encoding="UTF-8" standalone="no"?>
<!-- Created with Inkscape (http://www.inkscape.org/) -->

<svg
   width="100"
   height="100"
   viewBox="0 0 26.458333 26.458334"
   version="1.1"
   id="svg127350"
   inkscape:export-filename="C:\Users\Agathe\Desktop\commerces.png"
   inkscape:export-xdpi="200"
   inkscape:export-ydpi="200"
   inkscape:version="1.1 (c68e22c387, 2021-05-23)"
   sodipodi:docname="FTNE_PETILLANTE.svg"
   xmlns:inkscape="http://www.inkscape.org/namespaces/inkscape"
   xmlns:sodipodi="http://sodipodi.sourceforge.net/DTD/sodipodi-0.dtd"
   xmlns="http://www.w3.org/2000/svg"
   xmlns:svg="http://www.w3.org/2000/svg">
  <sodipodi:namedview
     id="namedview127352"
     pagecolor="#ffffff"
     bordercolor="#666666"
     borderopacity="1.0"
     inkscape:pageshadow="2"
     inkscape:pageopacity="0"
     inkscape:pagecheckerboard="0"
     inkscape:document-units="mm"
     showgrid="false"
     units="px"
     inkscape:zoom="5.9722783"
     inkscape:cx="54.250653"
     inkscape:cy="31.562494"
     inkscape:window-width="2400"
     inkscape:window-height="1271"
     inkscape:window-x="2391"
     inkscape:window-y="-9"
     inkscape:window-maximized="1"
     inkscape:current-layer="layer1" />
  <defs
     id="defs127347" />
  <g
     inkscape:label="Calque 1"
     inkscape:groupmode="layer"
     id="layer1">
    <g
       id="g976"
       transform="matrix(0.0741362,0,0,0.0741362,2.8326817,1.1199958)"
       style="stroke-width:3.56888">
      <path
         style="color:#000000;fill:#1131d3;stroke-width:3.56888;-inkscape-stroke:none"
         d="m 205.11,208.9 v -81.27 c 0,-1.09 0.09,-2.23 0,-3.31 0,-0.05 0,-0.1 0,-0.15 l -1.1,1.45 9.23,-1.97 c 1.42,-0.3 2.87,-0.55 4.28,-0.91 1.18,-0.31 2.33,-0.95 3.45,-1.42 l 2.6,-1.1 c 0.75,-0.32 1.16,-0.71 1.41,-1.55 0.27,-0.91 0.72,-1.82 0.13,-2.7 -0.52,-0.77 -1.13,-1.49 -1.69,-2.23 -0.38,-0.5 -0.69,-0.96 -1.31,-1.2 -0.12,-0.05 -0.25,-0.09 -0.37,-0.14 -0.65,-0.24 -1.29,-0.48 -1.94,-0.71 -6.46,-2.35 -12.95,-4.6 -19.48,-6.77 -9.54,-3.16 -19.14,-6.15 -28.86,-8.71 -4.64,-1.23 -9.31,-2.36 -14.03,-3.28 -3.92,-0.76 -7.89,-1.41 -11.88,-1.61 -3.47,-0.17 -6.91,0.16 -10.34,0.66 -4.37,0.64 -8.7,1.56 -12.99,2.59 -9.84,2.35 -19.55,5.25 -29.19,8.31 -7.67,2.44 -15.3,5.02 -22.89,7.71 -1.7,0.6 -3.39,1.21 -5.09,1.83 -0.11,0.04 -0.22,0.08 -0.33,0.12 -0.66,0.26 -0.92,0.71 -1.34,1.24 -0.52,0.68 -1.05,1.35 -1.57,2.03 -0.77,0.99 -0.27,1.99 0.1,3.04 0.3,0.86 0.71,1.1 1.46,1.41 l 2.66,1.12 c 1.1,0.46 2.23,1.1 3.4,1.38 3.47,0.83 7,1.5 10.49,2.24 l 2.92,0.62 -1.1,-1.45 v 75.7 c 0,2.61 -0.06,5.23 0,7.84 0.03,1.21 0.99,1.87 1.88,2.53 2.07,1.51 4.53,2.51 6.92,3.37 5.06,1.81 10.39,2.87 15.69,3.68 9.42,1.43 18.95,2.03 28.46,2.26 3.1,0.08 6.19,0.11 9.29,0.11 1.93,0 1.93,-3 0,-3 -14.45,0 -29.17,-0.46 -43.28,-3.39 -3.53,-0.73 -7.04,-1.64 -10.41,-2.94 -0.29,-0.11 -0.59,-0.23 -0.88,-0.35 -0.35,-0.14 0.32,0.14 -0.12,-0.05 -0.14,-0.06 -0.28,-0.12 -0.42,-0.18 -0.47,-0.21 -0.94,-0.43 -1.39,-0.67 -0.68,-0.35 -1.35,-0.73 -1.99,-1.17 -0.13,-0.09 -0.26,-0.19 -0.39,-0.28 -0.37,-0.26 0.31,0.26 -0.02,-0.02 -0.16,-0.13 -0.32,-0.26 -0.46,-0.4 -0.17,-0.16 -0.54,-0.66 -0.09,-0.04 l 0.2,0.76 v -73.44 c 0,-3.38 0.13,-6.79 0,-10.16 0,-0.05 0,-0.1 0,-0.15 0,-0.63 -0.46,-1.31 -1.1,-1.45 l -8.32,-1.78 -4.58,-0.98 c -0.22,-0.05 -1.24,-0.35 -0.43,-0.02 -0.5,-0.21 -1,-0.42 -1.5,-0.63 l -4.62,-1.95 0.69,0.9 -0.58,-1.77 -0.39,1.46 2.25,-2.9 -0.66,0.39 c 1.95,-0.72 3.91,-1.42 5.87,-2.11 4.92,-1.74 9.86,-3.43 14.81,-5.07 6.48,-2.15 12.99,-4.21 19.53,-6.13 6.63,-1.95 13.3,-3.78 20.04,-5.3 2.94,-0.66 5.89,-1.26 8.86,-1.74 0.67,-0.11 1.35,-0.21 2.03,-0.3 0.07,0 0.14,-0.02 0.21,-0.03 -0.27,0.04 -0.03,0 0.02,0 0.16,-0.02 0.32,-0.04 0.48,-0.06 0.32,-0.04 0.63,-0.08 0.95,-0.11 1.17,-0.13 2.33,-0.23 3.51,-0.28 5.2,-0.21 9.81,0.55 14.82,1.52 6.61,1.28 13.14,2.98 19.61,4.8 6.72,1.89 13.4,3.96 20.04,6.12 5.43,1.77 10.85,3.61 16.24,5.51 2.82,0.99 5.64,2 8.45,3.04 0.12,0.05 0.25,0.09 0.37,0.14 l -0.9,-0.69 2.2,2.9 -0.15,-1.16 -0.53,1.77 0.69,-0.9 -4,1.69 -1.95,0.82 c -0.37,0.16 0.21,-0.06 0.16,-0.08 -0.1,-0.02 -0.3,0.06 -0.4,0.09 l -9.94,2.12 -3.32,0.71 c -0.64,0.14 -1.1,0.82 -1.1,1.45 v 74.29 c 0,3.42 -0.12,6.87 0,10.29 0,0.05 0,0.1 0,0.15 0,1.93 3,1.93 3,0 v 0 z"
         id="path6" />
      <path
         style="color:#000000;fill:#1131d3;stroke-width:3.56888;-inkscape-stroke:none"
         d="m 81.49,124.18 v 74.6 c 0,2.33 -0.1,4.68 0,7.01 0.05,1.08 1.04,1.92 1.81,2.57 2.21,1.86 4.81,3.15 7.46,4.25 5.03,2.09 10.4,3.36 15.75,4.31 9.3,1.66 18.77,2.35 28.2,2.62 3.01,0.09 6.01,0.12 9.02,0.12 1.93,0 1.93,-3 0,-3 -8.72,0 -17.46,-0.31 -26.14,-1.21 -3.34,-0.35 -6.1,-0.71 -9.41,-1.27 -2.6,-0.44 -5.19,-0.97 -7.75,-1.61 -2.01,-0.5 -4,-1.07 -5.95,-1.75 -0.81,-0.28 -1.61,-0.58 -2.41,-0.9 -0.17,-0.07 -0.34,-0.14 -0.51,-0.21 -0.34,-0.14 0.25,0.11 0.03,0.01 -0.1,-0.04 -0.19,-0.08 -0.29,-0.12 -0.33,-0.14 -0.65,-0.29 -0.98,-0.44 -1.06,-0.49 -2.09,-1.04 -3.08,-1.65 -0.38,-0.24 -0.76,-0.48 -1.12,-0.74 -0.16,-0.11 -0.31,-0.23 -0.47,-0.34 0.48,0.33 0.05,0.04 -0.13,-0.11 -0.38,-0.31 -0.74,-0.64 -1.07,-1 -0.09,-0.1 -0.17,-0.22 -0.27,-0.32 0.31,0.3 0.19,0.35 0.11,0.13 0,0 0,-0.01 -0.01,-0.02 l 0.2,0.76 v -71.64 c 0,-3.3 0.09,-6.62 0,-9.92 0,-0.04 0,-0.09 0,-0.13 0,-1.93 -3,-1.93 -3,0 v 0 z"
         id="path8" />
      <path
         style="color:#000000;fill:#1131d3;stroke-width:3.56888;-inkscape-stroke:none"
         d="m 204.86,208.9 v -83.25 c 0,-1.11 0.09,-2.27 0,-3.38 0,-0.05 0,-0.1 0,-0.15 l -1.1,1.45 7.71,-1.65 4.78,-1.02 c 0.73,-0.16 1.35,-0.32 2.04,-0.61 l 4.63,-1.96 c 0.56,-0.24 1.22,-0.4 1.55,-0.97 0.33,-0.57 0.53,-1.44 0.67,-2.09 0.21,-0.94 -0.35,-1.47 -0.86,-2.14 -0.48,-0.63 -0.96,-1.26 -1.44,-1.89 -0.4,-0.53 -0.83,-0.71 -1.4,-0.91 -4.24,-1.49 -8.5,-2.92 -12.77,-4.32 -7.84,-2.57 -15.72,-5.03 -23.65,-7.3 -8.49,-2.44 -17.04,-4.72 -25.71,-6.43 -6.52,-1.29 -13.19,-2.37 -19.85,-1.82 -7.79,0.64 -15.51,2.42 -23.08,4.3 -8.7,2.16 -17.32,4.64 -25.9,7.26 -6.73,2.06 -13.44,4.22 -20.11,6.46 -1.7,0.57 -3.4,1.15 -5.09,1.73 -0.27,0.09 -0.55,0.18 -0.82,0.28 -0.62,0.24 -0.86,0.63 -1.24,1.12 -0.51,0.66 -1.02,1.32 -1.53,1.98 -0.82,1.06 -0.78,2.66 -0.95,3.96 -0.11,0.8 0.77,1.5 1.5,1.5 0.9,0 1.39,-0.69 1.5,-1.5 l 0.36,-2.71 -0.44,1.06 2.25,-2.9 -0.66,0.39 c 1.95,-0.68 3.91,-1.35 5.87,-2 4.92,-1.65 9.85,-3.26 14.81,-4.81 6.48,-2.04 12.99,-3.99 19.53,-5.82 6.63,-1.85 13.3,-3.59 20.04,-5.03 2.94,-0.63 5.89,-1.2 8.86,-1.65 0.34,-0.05 0.69,-0.1 1.04,-0.15 0.15,-0.02 0.29,-0.04 0.44,-0.06 0.3,-0.04 0.1,-0.01 0.03,0 0.1,-0.01 0.19,-0.03 0.29,-0.04 0.64,-0.08 1.29,-0.16 1.94,-0.23 1.16,-0.12 2.31,-0.21 3.47,-0.26 2.26,-0.09 4.52,0.02 6.76,0.24 1.44,0.14 2.45,0.28 3.72,0.47 1.45,0.22 2.89,0.46 4.33,0.73 6.6,1.22 13.12,2.82 19.6,4.55 6.72,1.8 13.39,3.76 20.03,5.81 5.45,1.69 10.89,3.44 16.3,5.25 2.81,0.94 5.61,1.89 8.41,2.88 0.13,0.04 0.25,0.09 0.38,0.13 l -0.9,-0.69 2.2,2.9 -0.15,-1.16 -0.53,1.77 0.69,-0.9 -4,1.69 -1.95,0.82 c -0.37,0.16 0.21,-0.06 0.16,-0.08 -0.1,-0.02 -0.3,0.06 -0.4,0.09 l -9.94,2.12 -3.32,0.71 c -0.64,0.14 -1.1,0.82 -1.1,1.45 v 76.09 c 0,3.51 -0.11,7.04 0,10.54 0,0.05 0,0.1 0,0.15 0,1.93 3,1.93 3,0 z"
         id="path10" />
      <path
         style="color:#000000;fill:#1131d3;stroke-width:3.56888;-inkscape-stroke:none"
         d="m 142.86,219.67 c 10.09,0 20.2,-0.3 30.25,-1.27 2.4,-0.23 4.8,-0.51 7.19,-0.84 0.8,-0.11 1.24,-1.14 1.05,-1.85 -0.24,-0.87 -1.04,-1.16 -1.85,-1.05 0.19,-0.03 -0.09,0.01 -0.1,0.01 -0.11,0.01 -0.23,0.03 -0.34,0.04 -0.23,0.03 -0.46,0.06 -0.69,0.09 -0.53,0.07 -1.06,0.13 -1.59,0.19 -1.03,0.12 -2.06,0.23 -3.09,0.33 -2.31,0.23 -4.63,0.42 -6.95,0.58 -4.95,0.34 -9.92,0.54 -14.88,0.65 -3,0.06 -6,0.09 -9,0.09 -1.93,0 -1.93,3 0,3 v 0 z"
         id="path12" />
      <g
         id="g20"
         style="stroke-width:3.56888">
        <path
           style="color:#000000;fill:#002ddc;stroke-width:3.56888;-inkscape-stroke:none"
           d="m 169.56,183.79 c -0.83,1.21 -1.98,2.4 -3.07,3.51 -1.09,1.11 -2.28,2.3 -3.65,3.19 -1.5,0.98 -3.11,1.75 -4.71,2.53 -1.62,0.78 -3.27,1.34 -5.04,1.67 -1.76,0.33 -3.55,0.43 -5.33,0.47 -1.69,0.04 -3.39,0.06 -5.07,-0.1 -2.62,-0.24 -5.66,-1 -8.17,-2.04 -5.07,-2.12 -9.55,-5.85 -12.55,-10.39 -3,-4.54 -4.76,-10.22 -4.69,-15.86 0.01,-0.9 0.07,-1.8 0.17,-2.7 0.02,-0.22 0.05,-0.43 0.08,-0.65 -0.04,0.31 0,0.05 0.01,-0.1 0.02,-0.13 0.04,-0.26 0.06,-0.39 0.08,-0.49 0.16,-0.98 0.26,-1.47 0.41,-2.11 0.96,-4.2 1.6,-6.25 0.7,-2.22 1.5,-4.4 2.38,-6.55 0.11,-0.28 0.23,-0.56 0.35,-0.84 0.11,-0.26 -0.04,0.1 0.07,-0.16 0.06,-0.15 0.13,-0.3 0.19,-0.45 0.24,-0.56 0.49,-1.12 0.74,-1.68 0.51,-1.13 1.04,-2.25 1.59,-3.36 2.16,-4.38 4.58,-8.63 7.28,-12.69 0.63,-0.95 1.28,-1.89 1.95,-2.82 0.31,-0.43 0.62,-0.86 0.94,-1.29 0.16,-0.22 0.32,-0.43 0.49,-0.65 0.07,-0.1 0.15,-0.2 0.23,-0.29 0.1,-0.14 -0.04,0.05 -0.05,0.06 0.05,-0.06 0.1,-0.13 0.15,-0.19 1.21,-1.55 2.48,-3.05 3.84,-4.46 0.59,-0.62 1.21,-1.22 1.85,-1.79 0.29,-0.26 0.59,-0.52 0.89,-0.77 0.13,-0.11 0.27,-0.22 0.41,-0.32 -0.34,0.28 0.1,-0.07 0.23,-0.17 0.53,-0.39 1.08,-0.75 1.66,-1.06 0.12,-0.06 0.24,-0.13 0.37,-0.19 0.06,-0.03 0.12,-0.06 0.18,-0.09 0.32,-0.15 0.01,0.06 -0.06,0.02 0.07,0.04 0.65,-0.24 0.75,-0.26 0.11,-0.03 0.22,-0.06 0.33,-0.08 0.05,-0.01 0.11,-0.02 0.16,-0.03 0.29,-0.06 -0.01,0.07 -0.13,0.01 0.13,0.06 0.52,-0.03 0.67,-0.03 0.05,0 0.1,0 0.15,0.01 0.25,0 -0.17,0.01 -0.2,-0.03 0.04,0.04 0.27,0.05 0.33,0.07 0.09,0.02 0.18,0.06 0.27,0.09 0.24,0.06 -0.36,-0.2 -0.03,0 0.09,0.05 0.18,0.11 0.27,0.16 0.32,0.18 -0.24,-0.24 0,0 0.16,0.15 0.31,0.36 0.48,0.5 0.03,0.03 -0.23,-0.34 -0.08,-0.1 0.03,0.05 0.07,0.1 0.1,0.15 0.07,0.11 0.14,0.22 0.2,0.34 0.07,0.12 0.13,0.25 0.19,0.38 0.19,0.39 -0.09,-0.25 0.05,0.12 0.55,1.52 1.03,3.07 1.6,4.58 0.28,0.76 1.01,1.28 1.85,1.05 0.73,-0.2 1.33,-1.08 1.05,-1.85 -0.58,-1.55 -1.03,-3.15 -1.63,-4.68 -0.3,-0.75 -0.64,-1.41 -1.14,-2.04 -0.81,-1 -1.93,-1.58 -3.2,-1.71 -2.74,-0.29 -5.41,1.74 -7.36,3.4 -3.08,2.63 -5.65,5.86 -8.02,9.12 -2.91,4 -5.5,8.23 -7.84,12.59 -2.43,4.55 -4.6,9.27 -6.35,14.12 -1.52,4.22 -2.75,8.59 -3.2,13.07 -0.57,5.66 0.6,11.46 3.12,16.54 2.68,5.42 7.02,10.02 12.25,13.06 2.65,1.54 5.55,2.7 8.54,3.39 3.36,0.77 6.78,0.89 10.22,0.76 1.97,-0.07 3.94,-0.26 5.87,-0.66 1.95,-0.41 3.74,-1.14 5.52,-2.01 1.66,-0.8 3.32,-1.62 4.85,-2.67 1.53,-1.05 2.77,-2.28 4.04,-3.59 1.19,-1.23 2.37,-2.5 3.34,-3.91 0.46,-0.67 0.12,-1.66 -0.54,-2.05 -0.74,-0.43 -1.59,-0.13 -2.05,0.54 v 0 z"
           id="path14" />
        <path
           style="color:#000000;fill:#002ddc;stroke-width:3.56888;-inkscape-stroke:none"
           d="m 154.95,131.77 c 2.7,5.06 5.92,9.78 9.26,14.44 2.66,3.72 5.44,7.46 7.32,11.66 1.3,2.9 1.97,6.03 1.98,9.2 0,1.93 3.01,1.93 3,0 -0.01,-3.01 -0.54,-6 -1.6,-8.82 -0.89,-2.35 -2.06,-4.57 -3.39,-6.7 -2.67,-4.27 -5.79,-8.23 -8.6,-12.41 -1.93,-2.88 -3.74,-5.83 -5.37,-8.89 -0.38,-0.71 -1.37,-0.94 -2.05,-0.54 -0.72,0.42 -0.92,1.33 -0.54,2.05 v 0 z"
           id="path16" />
        <path
           style="color:#000000;fill:#002ddc;stroke-width:3.56888;-inkscape-stroke:none"
           d="m 162.91,165.94 c -0.03,7.96 -5.09,15.36 -12.53,18.09 -2.29,0.84 -4.41,1.21 -6.78,1.22 -1.93,0 -1.93,3.01 0,3 4.57,-0.02 9.13,-1.42 12.86,-4.09 3.7,-2.65 6.51,-6.31 8.1,-10.57 0.91,-2.44 1.34,-5.05 1.35,-7.65 0,-1.93 -2.99,-1.93 -3,0 z"
           id="path18" />
      </g>
      <path
         style="color:#000000;fill:#002ddc;stroke-width:3.56888;-inkscape-stroke:none"
         d="m 176.79,167.7 c -0.72,-6.63 -3.47,-12.73 -6.94,-18.36 -3.15,-5.11 -6.91,-9.81 -10.08,-14.91 -3.16,-5.09 -4.99,-10.86 -7.45,-16.3 -0.66,-1.46 -1.39,-3.14 -2.66,-4.18 -2.68,-2.19 -6.92,-1.1 -9.45,0.77 -1.63,1.2 -2.91,2.72 -4.11,4.33 -1.2,1.61 -2.31,3.23 -3.39,4.89 -2.18,3.36 -4.17,6.84 -6.05,10.38 -1.88,3.54 -3.69,7.21 -5.46,10.85 -1.76,3.62 -3.52,7.26 -4.85,11.06 -1.3,3.7 -2.16,7.6 -2.17,11.53 0,3.58 0.64,7.19 1.88,10.55 2.52,6.82 7.3,12.58 13.61,16.21 6.25,3.6 13.59,5 20.73,3.97 6.8,-0.99 13.28,-4.27 18.17,-9.07 1.22,-1.2 2.33,-2.51 3.35,-3.88 0.48,-0.65 0.11,-1.67 -0.54,-2.05 -0.76,-0.45 -1.57,-0.11 -2.05,0.54 -3.74,5.03 -9.21,8.75 -15.19,10.57 -6.28,1.91 -12.99,1.6 -19.13,-0.8 -6.12,-2.39 -11.27,-6.91 -14.41,-12.68 -3.24,-5.96 -4.19,-12.89 -2.69,-19.49 0.83,-3.67 2.24,-7.17 3.81,-10.58 1.57,-3.41 3.32,-6.94 5.04,-10.37 3.47,-6.89 7.2,-13.71 11.8,-19.93 1.82,-2.46 4.42,-5.31 7.8,-4.95 0.43,0.05 0.9,0.18 1.3,0.39 0.34,0.18 -0.19,-0.2 0.02,0 0.1,0.1 0.2,0.19 0.3,0.29 0.05,0.05 0.09,0.11 0.14,0.16 0.19,0.2 -0.1,-0.15 -0.05,-0.07 0.09,0.15 0.2,0.28 0.3,0.43 0.21,0.33 0.4,0.66 0.58,1.01 1.17,2.21 1.86,4.12 2.8,6.39 1.25,3.02 2.42,6.12 3.96,9 2.58,4.84 6.06,9.17 9.13,13.71 3.43,5.07 6.59,10.39 8.15,16.31 0.37,1.41 0.67,2.91 0.82,4.29 0.09,0.81 0.63,1.5 1.5,1.5 0.74,0 1.59,-0.69 1.5,-1.5 v 0 z"
         id="path22" />
      <path
         style="color:#000000;fill:#002ddc;stroke-width:3.56888;-inkscape-stroke:none"
         d="m 163.17,165.46 c -1.49,7.52 -4.18,16.55 -12.31,19.23 -2.26,0.74 -4.62,0.96 -6.99,0.94 -1.93,-0.02 -1.93,2.98 0,3 4.66,0.05 9.28,-0.92 13,-3.85 3.46,-2.72 5.71,-6.66 7.17,-10.76 0.9,-2.52 1.49,-5.14 2.01,-7.76 0.16,-0.79 -0.23,-1.62 -1.05,-1.85 -0.74,-0.2 -1.69,0.25 -1.85,1.05 v 0 z"
         id="path24" />
      <path
         style="color:#000000;fill:#1131d3;stroke-width:3.56888;stroke-linecap:round;stroke-linejoin:round;-inkscape-stroke:none"
         d="m 96.300781,80.820312 c -2.316704,0 -4.230468,1.902853 -4.230469,4.230469 0,2.322855 1.907614,4.228516 4.230469,4.228516 2.327617,0 4.228519,-1.911811 4.228519,-4.228516 0,-2.327616 -1.911814,-4.230469 -4.228519,-4.230469 z m 0,2.400391 c 1.023293,0 1.830078,0.797698 1.830078,1.830078 0,1.023293 -0.797698,1.830078 -1.830078,1.830078 -1.037142,0 -1.830078,-0.792936 -1.830078,-1.830078 0,-1.03238 0.806786,-1.830078 1.830078,-1.830078 z"
         id="path26" />
      <path
         style="color:#000000;fill:#1131d3;stroke-width:3.56888;stroke-linecap:round;stroke-linejoin:round;-inkscape-stroke:none"
         d="m 179.90039,64.994141 c -1.91835,0 -3.50586,1.576604 -3.50586,3.505859 0,1.924482 1.58138,3.505859 3.50586,3.505859 1.92448,0 3.50391,-1.581377 3.50391,-3.505859 0,-1.929255 -1.58555,-3.505859 -3.50391,-3.505859 z m 0,1.990234 c 0.84164,0 1.51367,0.664882 1.51367,1.515625 0,0.855515 -0.65815,1.515625 -1.51367,1.515625 -0.85551,0 -1.51562,-0.66011 -1.51562,-1.515625 0,-0.850743 0.67398,-1.515625 1.51562,-1.515625 z"
         id="path28" />
      <path
         style="color:#000000;fill:#1131d3;stroke-width:3.56888;stroke-linecap:round;stroke-linejoin:round;-inkscape-stroke:none"
         d="m 226.30078,144.33984 c -1.15771,0 -2.11133,0.95167 -2.11133,2.10938 0,1.15771 0.95362,2.11133 2.11133,2.11133 1.15289,0 2.10938,-0.94752 2.10938,-2.11133 0,-1.15771 -0.95167,-2.10938 -2.10938,-2.10938 z m 0,1.19922 c 0.50229,0 0.91016,0.40787 0.91016,0.91016 0,0.51619 -0.40305,0.91015 -0.91016,0.91015 -0.50229,0 -0.91016,-0.40786 -0.91016,-0.91015 0,-0.50229 0.40787,-0.91016 0.91016,-0.91016 z"
         id="path30" />
      <path
         style="color:#000000;fill:#1131d3;stroke-width:3.56888;stroke-linecap:round;stroke-linejoin:round;-inkscape-stroke:none"
         d="m 60.726562,162.76953 c -0.618821,0.0271 -1.126453,0.36278 -1.605468,0.8418 a 0.89008899,0.89008899 0 0 0 -0.002,0 c -0.881563,0.88441 -1.317872,1.79337 -1.201172,2.67773 0.116699,0.88436 0.778697,1.4878 1.445312,1.78125 0.666615,0.29345 1.392918,0.37268 2.087891,0.1875 0.347486,-0.0926 0.698431,-0.26111 0.982422,-0.5625 0.28399,-0.30139 0.466797,-0.74847 0.466797,-1.19531 0,-1.07106 -0.113887,-2.12335 -0.705079,-2.95703 -0.295595,-0.41684 -0.849928,-0.80054 -1.46875,-0.77344 z m 0.01953,1.82422 c 0.14529,0.21656 0.365452,1.04826 0.36914,1.89062 -0.01,0.007 -0.03236,0.0291 -0.121093,0.0527 -0.211589,0.0564 -0.629429,0.0296 -0.914063,-0.0957 -0.284634,-0.1253 -0.381074,-0.25319 -0.398437,-0.38477 -0.01736,-0.13158 0.03578,-0.52192 0.699218,-1.1875 0.26199,-0.26124 0.356475,-0.26822 0.365235,-0.27539 z"
         id="path32" />
      <path
         style="color:#000000;fill:#1131d3;stroke-width:3.56888;stroke-linecap:round;stroke-linejoin:round;-inkscape-stroke:none"
         d="m 218.7793,191.14062 a 1.20012,1.20012 0 0 0 -1.09375,0.70899 c -0.55004,1.22677 -0.57777,2.44671 -0.14453,3.4043 0.43323,0.95758 1.24422,1.57977 2.08593,1.89453 0.84172,0.31476 1.74606,0.37351 2.59766,0.0469 0.8516,-0.32664 1.625,-1.268 1.625,-2.3457 0,-0.93587 -0.41292,-1.7717 -0.9668,-2.31055 -0.55387,-0.53885 -1.20147,-0.83426 -1.79687,-1.02734 -1.1908,-0.38616 -2.30664,-0.3711 -2.30664,-0.3711 z m 1.00586,2.5625 c 0.24479,0.0379 0.29421,0.005 0.56054,0.0918 0.3721,0.12067 0.69154,0.29776 0.86328,0.46485 0.17175,0.16708 0.24024,0.27071 0.24024,0.58984 0,0.1773 0.0682,0.0471 -0.084,0.10547 -0.15214,0.0584 -0.5482,0.0755 -0.89648,-0.0547 -0.34828,-0.13024 -0.61668,-0.35735 -0.74219,-0.63477 -0.0492,-0.10871 0.0688,-0.40219 0.0586,-0.5625 z"
         id="path34" />
    </g>
  </g>
</svg>
