<?xml version="1.0" encoding="UTF-8" standalone="no"?>
<!-- Created with Inkscape (http://www.inkscape.org/) -->

<svg
   width="100"
   height="100"
   viewBox="0 0 26.458333 26.458334"
   version="1.1"
   id="svg127350"
   inkscape:export-filename="C:\Users\Agathe\Desktop\commerces.png"
   inkscape:export-xdpi="200"
   inkscape:export-ydpi="200"
   inkscape:version="1.1 (c68e22c387, 2021-05-23)"
   sodipodi:docname="FTNE_PETILLANTE_white.svg"
   xmlns:inkscape="http://www.inkscape.org/namespaces/inkscape"
   xmlns:sodipodi="http://sodipodi.sourceforge.net/DTD/sodipodi-0.dtd"
   xmlns="http://www.w3.org/2000/svg"
   xmlns:svg="http://www.w3.org/2000/svg">
  <sodipodi:namedview
     id="namedview127352"
     pagecolor="#ffffff"
     bordercolor="#666666"
     borderopacity="1.0"
     inkscape:pageshadow="2"
     inkscape:pageopacity="0"
     inkscape:pagecheckerboard="0"
     inkscape:document-units="mm"
     showgrid="false"
     units="px"
     inkscape:zoom="5.9722783"
     inkscape:cx="54.418094"
     inkscape:cy="48.306524"
     inkscape:window-width="2400"
     inkscape:window-height="1271"
     inkscape:window-x="2391"
     inkscape:window-y="-9"
     inkscape:window-maximized="1"
     inkscape:current-layer="layer1" />
  <defs
     id="defs127347" />
  <g
     inkscape:label="Calque 1"
     inkscape:groupmode="layer"
     id="layer1">
    <g
       id="path6"
       transform="scale(0.26458333)"
       style="fill:#ffffff">
      <path
         style="color:#000000;fill:#ffffff;stroke-width:0.113386;-inkscape-stroke:none"
         d="m 51.125,29.808594 c -0.848996,-0.0123 -1.692254,0.07468 -2.533203,0.197265 -1.224473,0.179328 -2.436616,0.437957 -3.638672,0.726563 -2.757165,0.65847 -5.478563,1.470713 -8.179687,2.328125 -2.149133,0.683687 -4.287347,1.406419 -6.414063,2.160156 -0.47634,0.168121 -0.949442,0.337996 -1.425781,0.511719 -0.0308,0.01123 -0.06293,0.02393 -0.09375,0.03516 -0.184933,0.07285 -0.257317,0.197198 -0.375,0.345703 -0.145705,0.190538 -0.293749,0.379777 -0.439453,0.570313 -0.215755,0.277398 -0.07632,0.557352 0.02734,0.851562 0.08406,0.240972 0.200008,0.30767 0.410157,0.394532 l 0.74414,0.314453 c 0.308221,0.128882 0.625291,0.308263 0.953125,0.386718 0.972294,0.232555 1.961556,0.419605 2.939453,0.626953 l 0.439453,0.0918 v 20.582032 c 0,0.652864 -0.02801,1.310026 0,1.96289 0.0039,0.08373 0.02909,0.162596 0.06641,0.236328 0.0012,0.100944 0.0016,0.201883 0.0039,0.302735 0.0084,0.339023 0.277967,0.524056 0.527344,0.708984 0.580014,0.423103 1.269775,0.702388 1.939453,0.94336 1.417811,0.507163 2.911425,0.804285 4.396484,1.03125 2.639482,0.400682 5.30991,0.568363 7.97461,0.632812 0.13238,0.0034 0.264214,0.005 0.396484,0.0078 0.290642,0.007 0.580682,0.01396 0.871094,0.01758 0.340502,0.004 0.680665,0.0031 1.021484,0.0039 v 0.0059 c 2.827215,0 5.658601,-0.08564 8.47461,-0.357422 0.67248,-0.06444 1.345945,-0.141927 2.015624,-0.234375 0.224164,-0.03099 0.346223,-0.31862 0.292969,-0.517578 -0.06724,-0.243779 -0.29061,-0.325763 -0.517578,-0.294922 -0.01173,0.0016 -0.02632,0.002 -0.02734,0.002 -0.03099,0.0028 -0.06486,0.0087 -0.0957,0.01172 -0.06444,0.0083 -0.128918,0.0167 -0.193359,0.02539 -0.148498,0.01965 -0.296826,0.03576 -0.445313,0.05273 -0.288604,0.03364 -0.576625,0.06574 -0.865234,0.09375 -0.647259,0.06444 -1.299155,0.117284 -1.949219,0.16211 -1.386992,0.09528 -2.778176,0.150799 -4.167969,0.18164 -0.8406,0.01663 -1.680883,0.02539 -2.521484,0.02539 -0.0213,0 -0.04288,0.0014 -0.0625,0.0039 -0.243251,-5.09e-4 -0.486781,-0.0022 -0.730469,-0.0039 -2.099175,-0.02242 -4.200485,-0.117403 -6.289062,-0.333985 -0.935864,-0.09808 -1.709257,-0.19858 -2.636719,-0.355468 -0.728519,-0.123288 -1.454562,-0.271837 -2.171875,-0.451172 -0.563199,-0.140107 -1.119626,-0.299712 -1.666015,-0.490234 -0.226961,-0.07846 -0.451622,-0.162303 -0.675782,-0.251954 -0.04113,-0.01697 -0.08191,-0.03385 -0.123047,-0.05078 -0.0023,-8.82e-4 -0.0075,-0.0041 -0.01172,-0.0059 -0.0026,-0.001 -0.0053,-9.17e-4 -0.0078,-0.002 -0.0066,-0.0027 -0.0036,-0.0022 -0.0078,-0.0039 -0.02192,-0.0091 -0.04182,-0.01819 -0.06445,-0.02734 -0.09247,-0.03923 -0.182928,-0.08102 -0.27539,-0.123047 -0.297011,-0.13731 -0.585884,-0.291966 -0.863281,-0.462891 -0.106477,-0.06724 -0.211625,-0.1342 -0.3125,-0.207031 -0.02792,-0.0193 -0.05493,-0.04056 -0.08203,-0.06055 -0.01961,-0.01401 -0.06266,-0.04524 -0.08789,-0.06641 -0.0777,-0.06338 -0.150062,-0.130723 -0.220703,-0.201172 V 41.917969 c 0,-0.947074 0.03643,-1.903383 0,-2.847657 v -0.04297 c 0,-0.176542 -0.129267,-0.36703 -0.308594,-0.40625 l -2.330078,-0.498047 -1.283203,-0.275391 c -0.06164,-0.01398 -0.348059,-0.09631 -0.121094,-0.0039 -0.1401,-0.05884 -0.279821,-0.118891 -0.419922,-0.177734 l -1.166016,-0.492188 -0.03711,-0.109375 0.414062,-0.533203 c 0.500639,-0.183849 1.003071,-0.364013 1.50586,-0.541016 1.378583,-0.487547 2.763401,-0.960394 4.15039,-1.419922 1.815695,-0.602429 3.640149,-1.178813 5.472657,-1.716796 1.857724,-0.54639 3.726687,-1.060425 5.615234,-1.486328 0.82379,-0.184933 1.650231,-0.351834 2.482422,-0.486329 0.187729,-0.03084 0.377822,-0.05877 0.568359,-0.08398 0.01965,0 0.03898,-0.007 0.05859,-0.0098 0.0016,-1.2e-4 0.0048,0 0.0059,0 0.04483,-0.0056 0.0899,-0.01003 0.134765,-0.01563 0.08965,-0.01122 0.175975,-0.02282 0.265625,-0.03125 0.327836,-0.03643 0.653738,-0.06411 0.984375,-0.07813 1.457038,-0.05884 2.748544,0.153988 4.152344,0.425782 1.852123,0.358654 3.681249,0.833786 5.494141,1.34375 1.882941,0.529577 3.754705,1.109612 5.615234,1.714843 1.521483,0.495954 3.040501,1.012543 4.550781,1.544922 0.775825,0.272365 1.551048,0.550117 2.324219,0.835938 l 0.412109,0.541015 -0.0332,0.107422 -0.986328,0.417969 -0.515625,0.216797 c 0.0089,-0.0048 0.01669,-0.0085 0.01367,-0.0098 -0.02797,-0.0057 -0.08332,0.0167 -0.111328,0.02539 l -2.785157,0.59375 -0.929687,0.199219 c -0.179339,0.03923 -0.308594,0.229715 -0.308594,0.40625 v 20.816406 c 0,0.958284 -0.03364,1.924528 0,2.882812 v 0.04297 c 0,0.540786 0.839844,0.540786 0.839844,0 h 0.0059 V 39.994141 c 0,-0.207254 0.01214,-0.42034 0.01172,-0.63086 l 2.265625,-0.484375 c 0.397882,-0.08406 0.804137,-0.153068 1.199219,-0.253906 0.330633,-0.08685 0.652971,-0.266747 0.966797,-0.398438 l 0.728515,-0.308593 c 0.210142,-0.08965 0.326443,-0.198227 0.396485,-0.433594 0.07567,-0.254982 0.200624,-0.509283 0.03516,-0.755859 -0.145701,-0.215755 -0.31573,-0.417652 -0.472656,-0.625 -0.10647,-0.1401 -0.193443,-0.268689 -0.367188,-0.335938 -0.03364,-0.01402 -0.06988,-0.027 -0.103515,-0.04102 -0.181985,-0.06726 -0.360849,-0.13282 -0.542969,-0.197265 C 70.484834,34.870826 68.665645,34.238893 66.835938,33.630859 64.162833,32.745428 61.473539,31.908718 58.75,31.191406 57.449873,30.846761 56.140903,30.529268 54.818359,30.271484 53.719976,30.058533 52.60823,29.876352 51.490234,29.820312 c -0.121536,-0.006 -0.243949,-0.01 -0.365234,-0.01172 z"
         id="path870" />
      <path
         style="color:#000000;fill:#ffffff;-inkscape-stroke:none"
         d="m 51.125,29.751953 c -0.853409,-0.01236 -1.698502,0.07445 -2.541016,0.197266 -1.226896,0.179683 -2.44154,0.439685 -3.644531,0.728515 -2.759209,0.658959 -5.481847,1.470516 -8.183594,2.328125 -2.149778,0.683893 -4.288779,1.408188 -6.416015,2.16211 -0.476533,0.168189 -0.949267,0.337932 -1.425782,0.511718 -0.03182,0.0116 -0.06395,0.0243 -0.09375,0.03516 h -0.002 c -0.200706,0.07907 -0.283294,0.21798 -0.398437,0.363281 -0.145452,0.190206 -0.293496,0.379445 -0.439453,0.570312 -0.117186,0.150667 -0.139546,0.311201 -0.117188,0.462891 0.02236,0.15169 0.08566,0.298453 0.136719,0.443359 0.04416,0.126604 0.09998,0.212604 0.173828,0.277344 0.07385,0.06474 0.161171,0.106409 0.267578,0.150391 l 0.744141,0.314453 c 0.303714,0.126997 0.622127,0.30759 0.960937,0.388672 0.974066,0.232979 1.964332,0.419779 2.941407,0.626953 l 0.394531,0.08398 v 20.535157 c 0,0.651242 -0.02815,1.308736 0,1.964843 0.004,0.08572 0.03156,0.164565 0.06641,0.238282 0.0011,0.09938 0.0016,0.200517 0.0039,0.300781 0.0046,0.184269 0.08196,0.32886 0.1875,0.447265 0.105546,0.118406 0.239177,0.212657 0.363282,0.304688 0.587705,0.428714 1.281986,0.709674 1.953125,0.951172 1.423087,0.50905 2.921453,0.807933 4.408203,1.035156 2.642768,0.401181 5.31431,0.568328 7.980468,0.632813 0.13288,0.0034 0.264541,0.005 0.396485,0.0078 0.290641,0.007 0.582198,0.01395 0.873047,0.01758 0.32214,0.0038 0.643137,0.0033 0.964843,0.0039 v 0.0059 h 0.05664 c 2.828357,0 5.661979,-0.0854 8.480469,-0.357422 0.673197,-0.06451 1.34705,-0.14181 2.017578,-0.234375 0.134268,-0.01856 0.234906,-0.113913 0.292969,-0.226563 0.05806,-0.112649 0.07806,-0.24676 0.04687,-0.363281 -0.03746,-0.135831 -0.123043,-0.231504 -0.228516,-0.285156 -0.105472,-0.05365 -0.228978,-0.06744 -0.351562,-0.05078 -0.0069,9.14e-4 -0.01851,0.002 -0.01953,0.002 h -0.002 -0.0039 c -0.03441,0.0031 -0.06797,0.009 -0.0957,0.01172 h -0.002 c -0.06448,0.0083 -0.128739,0.01667 -0.19336,0.02539 -0.147625,0.01954 -0.294662,0.03574 -0.443359,0.05273 -0.288416,0.03362 -0.577162,0.0658 -0.865234,0.09375 -0.646565,0.06437 -1.297658,0.117314 -1.947266,0.162109 -1.385907,0.09521 -2.776894,0.150815 -4.166016,0.181641 -0.840245,0.01662 -1.679325,0.02539 -2.519531,0.02539 -0.02115,0 -0.0425,0.0016 -0.0625,0.0039 -0.243064,-5.08e-4 -0.486776,-0.0022 -0.730469,-0.0039 -2.097867,-0.0224 -4.196817,-0.117629 -6.283203,-0.333984 -0.93509,-0.098 -1.706536,-0.198781 -2.632812,-0.355469 -0.727242,-0.123072 -1.452243,-0.27028 -2.167969,-0.449219 -0.561899,-0.139783 -1.115772,-0.298458 -1.660156,-0.488281 h -0.002 C 36.971173,63.17379 36.748739,63.089326 36.525391,63 c -0.04109,-0.01696 -0.08185,-0.03382 -0.123047,-0.05078 0,0 -0.002,0 -0.002,0 -0.0024,-0.0013 -0.0044,-0.0037 -0.0098,-0.0059 -0.0042,-0.0017 -0.0052,-0.0013 -0.0078,-0.002 6.33e-4,2.59e-4 -0.0045,-0.0016 -0.0059,-0.002 0,0 -0.002,0 -0.002,0 -3.32e-4,-1.53e-4 2.82e-4,-0.0018 0,-0.002 -0.0207,-0.0086 -0.0404,-0.01761 -0.06445,-0.02734 -0.09138,-0.03877 -0.18077,-0.07897 -0.273438,-0.121094 -0.295002,-0.136381 -0.581987,-0.291221 -0.857422,-0.460937 -0.106356,-0.06716 -0.209506,-0.133538 -0.308593,-0.205078 -0.02597,-0.01795 -0.05395,-0.03789 -0.08203,-0.05859 v -0.002 c -0.01912,-0.01366 -0.06205,-0.0441 -0.08398,-0.0625 h -0.002 c -0.06976,-0.05691 -0.13486,-0.120135 -0.199219,-0.183594 V 41.917969 c 0,-0.944971 0.03642,-1.901091 0,-2.847657 v -0.002 -0.04102 c 0,-0.204216 -0.142314,-0.414747 -0.353515,-0.460938 l -2.330079,-0.498047 -1.283203,-0.27539 c -0.02589,-0.0059 -0.113094,-0.03136 -0.167968,-0.04297 -0.01372,-0.0029 -0.0248,-0.0048 -0.03711,-0.0059 -0.0031,-2.53e-4 -0.0075,-1.08e-4 -0.01172,0 -0.0016,4e-5 -0.0039,-1.97e-4 -0.0059,0 -5.51e-4,-2.34e-4 -0.0014,2.33e-4 -0.002,0 -0.102227,-0.04333 -0.203995,-0.08775 -0.306641,-0.13086 l -1.142578,-0.482422 -0.01758,-0.05664 0.384766,-0.496094 c 0.495187,-0.181757 0.992894,-0.360071 1.490234,-0.535156 1.378193,-0.487409 2.761777,-0.95855 4.148438,-1.417969 1.815178,-0.602257 3.638939,-1.179032 5.470703,-1.716797 1.857081,-0.546201 3.724502,-1.060813 5.611328,-1.486328 0.822995,-0.184755 1.649735,-0.350116 2.480469,-0.484375 0.187089,-0.03074 0.376404,-0.05884 0.566406,-0.08398 h -0.0078 c 0.03115,0 0.05034,-0.0075 0.0625,-0.0098 0,0 0.002,0 0.002,0 h 0.002 0.002 0.0039 c 0.04385,-0.0055 0.08893,-0.0099 0.134766,-0.01563 0.08998,-0.01127 0.175469,-0.02296 0.263671,-0.03125 0.32687,-0.03633 0.651414,-0.06418 0.980469,-0.07813 1.45018,-0.05857 2.735822,0.152218 4.138672,0.423828 1.849786,0.358202 3.678077,0.833993 5.490234,1.34375 1.88198,0.529307 3.753259,1.109777 5.613282,1.714844 1.521024,0.495804 3.038946,1.01073 4.548828,1.542969 0.770355,0.270445 1.540972,0.546426 2.308594,0.830078 l 0.384765,0.505859 -0.01758,0.05469 -0.960937,0.40625 -0.494141,0.207031 c -0.02015,6.63e-4 -0.04025,0.0012 -0.05664,0.0059 -0.02373,0.0068 -0.04764,0.01418 -0.05859,0.01758 h 0.0059 l -2.785156,0.59375 -0.929688,0.199219 c -0.211209,0.0462 -0.353515,0.25673 -0.353515,0.460938 v 20.816406 c 0,0.956956 -0.03373,1.923823 0,2.884765 v 0.04102 c 0,0.149871 0.05984,0.269918 0.15039,0.347656 0.09055,0.07774 0.209023,0.115235 0.326172,0.115235 0.117149,0 0.235626,-0.0375 0.326172,-0.115235 0.07571,-0.065 0.109119,-0.174257 0.125,-0.291015 h 0.03125 V 39.994141 c 0,-0.190446 0.01056,-0.388299 0.01172,-0.585938 l 2.220703,-0.474609 c 0.396386,-0.08374 0.803072,-0.152298 1.201172,-0.253907 0.34048,-0.08944 0.664998,-0.270468 0.974609,-0.40039 l 0.728516,-0.308594 c 0.218393,-0.09317 0.356111,-0.223461 0.429687,-0.470703 0.03687,-0.124259 0.08799,-0.253758 0.109375,-0.388672 0.02138,-0.134914 0.0094,-0.277803 -0.08203,-0.414062 -0.147969,-0.219114 -0.318888,-0.423151 -0.474609,-0.628907 -0.105069,-0.138255 -0.201173,-0.279612 -0.390625,-0.353515 h -0.002 c -0.03496,-0.01451 -0.07032,-0.028 -0.101562,-0.04102 h -0.002 c -0.182079,-0.06729 -0.360455,-0.132681 -0.542969,-0.197266 -1.810603,-0.658658 -3.630749,-1.292196 -5.460937,-1.90039 -2.673757,-0.885647 -5.364696,-1.721718 -8.089844,-2.439453 -1.3009,-0.34485 -2.609366,-0.66181 -3.933594,-0.919922 -1.099468,-0.213161 -2.215637,-0.396872 -3.337891,-0.453125 -0.122152,-0.006 -0.245206,-0.01 -0.367187,-0.01172 z m 0,0.113281 c 0.120588,0.0017 0.242362,0.0058 0.363281,0.01172 1.113736,0.05583 2.221064,0.236479 3.31836,0.449219 1.320857,0.257455 2.630336,0.575482 3.929687,0.919922 2.721925,0.716887 5.409583,1.554239 8.082031,2.439453 1.829222,0.607873 3.647463,1.238202 5.457032,1.896484 0.181148,0.0641 0.359723,0.130265 0.541015,0.197266 0.03552,0.0148 0.07176,0.02778 0.103516,0.04102 h 0.002 c 0.156997,0.06077 0.234215,0.176796 0.341797,0.31836 0.158131,0.20894 0.32727,0.408698 0.470703,0.621094 0.07403,0.110316 0.0831,0.216359 0.06445,0.333984 -0.01864,0.117625 -0.06863,0.244277 -0.107422,0.375 -0.06651,0.223491 -0.161391,0.310354 -0.363281,0.396484 l -0.728516,0.308594 c -0.31804,0.133459 -0.638199,0.312218 -0.958984,0.396484 -0.392064,0.100068 -0.797888,0.169535 -1.197266,0.253907 l -2.310547,0.49414 v 0.04492 c 4.13e-4,0.208265 -0.01172,0.421393 -0.01172,0.63086 v 22.716796 h -0.0059 v 0.05664 c 0,0.120522 -0.0444,0.204261 -0.111328,0.261719 -0.06692,0.05746 -0.159141,0.08789 -0.251953,0.08789 -0.09281,0 -0.185029,-0.03043 -0.251953,-0.08789 -0.06692,-0.05746 -0.111328,-0.141197 -0.111328,-0.261719 v -0.04492 c -0.03355,-0.955623 0,-1.921249 0,-2.880859 V 39.025391 c 0,-0.148862 0.116203,-0.319304 0.263672,-0.351563 l 0.929687,-0.199219 2.78711,-0.59375 h 0.0039 c 0.01705,-0.0053 0.03674,-0.01244 0.05469,-0.01758 0.01794,-0.0051 0.03472,-0.0063 0.02734,-0.0078 l -0.0098,-0.002 c 1.89e-4,7.6e-5 -0.01573,-0.0099 -0.01563,-0.0098 1.07e-4,9.6e-5 -0.01761,-0.02941 -0.01758,-0.0293 3e-5,1.15e-4 0.002,-0.03138 0.002,-0.03125 -4.3e-5,1.33e-4 0.0079,-0.01577 0.0078,-0.01563 -1.11e-4,1.5e-4 0.006,-0.006 0.0059,-0.0059 l 0.04687,0.101562 0.0059,-0.002 0.002,-0.002 0.507812,-0.212891 1.011719,-0.429687 0.04883,-0.160156 -0.439453,-0.576172 -0.01563,-0.0059 C 71.822177,36.188657 71.047538,35.911117 70.271484,35.638672 68.76081,35.106154 67.240689,34.5879 65.71875,34.091797 63.857719,33.486403 61.985461,32.9068 60.101562,32.376953 58.28794,31.866784 56.457972,31.392309 54.603516,31.033203 53.198769,30.761226 51.901394,30.546349 50.4375,30.605469 c -0.332218,0.01408 -0.659479,0.04158 -0.988281,0.07813 -0.0911,0.0086 -0.178252,0.02006 -0.267578,0.03125 -0.04389,0.0055 -0.08896,0.0099 -0.134766,0.01563 -0.0014,5.4e-5 -4.5e-5,-1.39e-4 -0.002,0 h -0.002 -0.002 c -0.02749,0.0039 -0.04453,0.0098 -0.05078,0.0098 h -0.0039 -0.0039 c -0.191072,0.02529 -0.381945,0.05304 -0.570313,0.08398 -0.833646,0.13473 -1.659792,0.30317 -2.484375,0.488281 -1.890264,0.42629 -3.760777,0.93975 -5.61914,1.486328 -1.833249,0.538201 -3.658401,1.114198 -5.47461,1.716797 -1.387314,0.459636 -2.773373,0.934191 -4.152343,1.421875 -0.502996,0.177076 -1.00495,0.357067 -1.50586,0.541016 l -0.01563,0.0059 -0.443359,0.570312 0.05664,0.16211 1.189454,0.501953 c 0.139812,0.05872 0.279533,0.11877 0.419921,0.177734 l 0.0098,-0.02344 c 0.04432,0.01103 0.09533,0.02345 0.121094,0.0293 l 1.283203,0.27539 2.330078,0.498047 c 0.147452,0.03225 0.263672,0.202695 0.263672,0.351563 v 0.04492 c 0.03632,0.941344 0,1.897176 0,2.845703 v 19.947265 l 0.01758,0.01758 c 0.07122,0.07102 0.14351,0.138485 0.222656,0.203125 0.02852,0.02393 0.0717,0.05595 0.0918,0.07031 v -0.002 c 0.02612,0.01926 0.05216,0.04185 0.08203,0.0625 0.102663,0.07412 0.209809,0.14167 0.316407,0.208984 0.279359,0.172134 0.570121,0.326605 0.86914,0.464844 0.09226,0.04193 0.183792,0.08531 0.277344,0.125 0.02121,0.0086 0.04131,0.01778 0.06445,0.02734 0.0029,0.0015 0.0054,0.0029 0.0078,0.0039 4.8e-4,1.96e-4 0.0046,9.81e-4 0.0078,0.002 0.001,3.1e-4 0.0013,0.0018 0.002,0.002 0.0029,8.74e-4 0.0068,1.62e-4 0.0059,0 0.0021,0.001 0.0027,0.0034 0.0039,0.0039 0.04107,0.01691 0.08188,0.03379 0.123047,0.05078 0.224403,0.08975 0.450493,0.173362 0.677734,0.251953 0.548393,0.191221 1.107378,0.351757 1.671875,0.492187 0.718899,0.179732 1.445986,0.329621 2.175781,0.453125 0.928646,0.157089 1.70399,0.25731 2.640625,0.355469 2.090764,0.216809 4.194444,0.311554 6.294922,0.333984 0.243683,0.0017 0.487031,0.0034 0.730469,0.0039 h 0.0039 0.0039 c 0.01708,-0.0022 0.03587,-0.0039 0.05469,-0.0039 0.840994,0 1.682485,-0.0088 2.523438,-0.02539 1.390461,-0.03086 2.781847,-0.08628 4.169921,-0.181641 0.650519,-0.04486 1.30322,-0.0976 1.951172,-0.162109 0.289146,-0.02806 0.576443,-0.06009 0.865235,-0.09375 0.148277,-0.01695 0.297895,-0.03297 0.447265,-0.05273 0.06362,-0.0086 0.127642,-0.01716 0.191407,-0.02539 0.0319,-0.0031 0.06325,-0.009 0.08984,-0.01172 0.001,0 0.01856,2.55e-4 0.03516,-0.002 0.104383,-0.01418 0.205391,-0.0015 0.285156,0.03906 0.07977,0.04058 0.140148,0.106897 0.169922,0.214844 0.02206,0.08244 0.0066,0.190645 -0.03906,0.279297 -0.04569,0.08865 -0.117135,0.153587 -0.207031,0.166016 -0.668829,0.09233 -1.34191,0.170003 -2.013672,0.234375 -2.794711,0.26973 -5.604891,0.354327 -8.412109,0.355468 v -0.0039 h -0.05664 c -0.341018,-8.48e-4 -0.681532,9.5e-5 -1.021484,-0.0039 -0.289975,-0.0036 -0.578499,-0.01059 -0.869141,-0.01758 -0.132596,-0.0028 -0.264604,-0.0044 -0.396484,-0.0078 -2.663237,-0.06441 -5.33256,-0.23263 -7.96875,-0.632812 -1.483365,-0.226706 -2.972234,-0.522069 -4.384766,-1.027344 -0.668216,-0.240446 -1.35346,-0.518056 -1.925781,-0.935547 -0.125273,-0.0929 -0.252019,-0.183964 -0.345703,-0.289062 -0.09368,-0.105099 -0.154373,-0.2222 -0.158203,-0.376953 -0.0023,-0.100139 -0.0027,-0.199554 -0.0039,-0.300782 v -0.01367 l -0.0059,-0.01172 c -0.03461,-0.06838 -0.05712,-0.138853 -0.06055,-0.212891 -0.02787,-0.649619 0,-1.306453 0,-1.960937 V 39.302734 l -0.484375,-0.09961 c -0.978718,-0.207522 -1.966979,-0.394822 -2.9375,-0.626953 -0.316857,-0.07583 -0.632585,-0.254 -0.945312,-0.384766 l -0.744141,-0.314453 c -0.103742,-0.04288 -0.178649,-0.07834 -0.236328,-0.128906 -0.05768,-0.05057 -0.102682,-0.118054 -0.142578,-0.232422 -0.0526,-0.149304 -0.111523,-0.288733 -0.13086,-0.419922 -0.01934,-0.131189 -0.0029,-0.250222 0.0957,-0.376953 0.145451,-0.190205 0.293495,-0.379443 0.439454,-0.570313 0.119865,-0.151258 0.181585,-0.261427 0.349609,-0.328125 0.03185,-0.0116 0.06396,-0.0243 0.09375,-0.03516 0.476163,-0.173659 0.949634,-0.343666 1.425781,-0.511719 2.126192,-0.753551 4.263626,-1.474722 6.41211,-2.158203 2.700496,-0.857212 5.420666,-1.670144 8.175781,-2.328125 1.201118,-0.28838 2.410766,-0.545636 3.632812,-0.724609 0.839383,-0.122359 1.68081,-0.209499 2.525391,-0.197266 z"
         id="path872" />
    </g>
    <g
       id="g20"
       style="stroke:#002ddc;stroke-width:0.40466062;fill:#ffffff"
       transform="matrix(0.0741362,0,0,0.0741362,2.8326817,1.1199958)">
      <g
         id="path14"
         style="fill:#ffffff">
        <path
           style="color:#000000;stroke:none;stroke-width:0.404661;-inkscape-stroke:none;fill:#ffffff"
           d="m 169.56,183.79 c -0.83,1.21 -1.98,2.4 -3.07,3.51 -1.09,1.11 -2.28,2.3 -3.65,3.19 -1.5,0.98 -3.11,1.75 -4.71,2.53 -1.62,0.78 -3.27,1.34 -5.04,1.67 -1.76,0.33 -3.55,0.43 -5.33,0.47 -1.69,0.04 -3.39,0.06 -5.07,-0.1 -2.62,-0.24 -5.66,-1 -8.17,-2.04 -5.07,-2.12 -9.55,-5.85 -12.55,-10.39 -3,-4.54 -4.76,-10.22 -4.69,-15.86 0.01,-0.9 0.07,-1.8 0.17,-2.7 0.02,-0.22 0.05,-0.43 0.08,-0.65 -0.04,0.31 0,0.05 0.01,-0.1 0.02,-0.13 0.04,-0.26 0.06,-0.39 0.08,-0.49 0.16,-0.98 0.26,-1.47 0.41,-2.11 0.96,-4.2 1.6,-6.25 0.7,-2.22 1.5,-4.4 2.38,-6.55 0.11,-0.28 0.23,-0.56 0.35,-0.84 0.11,-0.26 -0.04,0.1 0.07,-0.16 0.06,-0.15 0.13,-0.3 0.19,-0.45 0.24,-0.56 0.49,-1.12 0.74,-1.68 0.51,-1.13 1.04,-2.25 1.59,-3.36 2.16,-4.38 4.58,-8.63 7.28,-12.69 0.63,-0.95 1.28,-1.89 1.95,-2.82 0.31,-0.43 0.62,-0.86 0.94,-1.29 0.16,-0.22 0.32,-0.43 0.49,-0.65 0.07,-0.1 0.15,-0.2 0.23,-0.29 0.1,-0.14 -0.04,0.05 -0.05,0.06 0.05,-0.06 0.1,-0.13 0.15,-0.19 1.21,-1.55 2.48,-3.05 3.84,-4.46 0.59,-0.62 1.21,-1.22 1.85,-1.79 0.29,-0.26 0.59,-0.52 0.89,-0.77 0.13,-0.11 0.27,-0.22 0.41,-0.32 -0.34,0.28 0.1,-0.07 0.23,-0.17 0.53,-0.39 1.08,-0.75 1.66,-1.06 0.12,-0.06 0.24,-0.13 0.37,-0.19 0.06,-0.03 0.12,-0.06 0.18,-0.09 0.32,-0.15 0.01,0.06 -0.06,0.02 0.07,0.04 0.65,-0.24 0.75,-0.26 0.11,-0.03 0.22,-0.06 0.33,-0.08 0.05,-0.01 0.11,-0.02 0.16,-0.03 0.29,-0.06 -0.01,0.07 -0.13,0.01 0.13,0.06 0.52,-0.03 0.67,-0.03 0.05,0 0.1,0 0.15,0.01 0.25,0 -0.17,0.01 -0.2,-0.03 0.04,0.04 0.27,0.05 0.33,0.07 0.09,0.02 0.18,0.06 0.27,0.09 0.24,0.06 -0.36,-0.2 -0.03,0 0.09,0.05 0.18,0.11 0.27,0.16 0.32,0.18 -0.24,-0.24 0,0 0.16,0.15 0.31,0.36 0.48,0.5 0.03,0.03 -0.23,-0.34 -0.08,-0.1 0.03,0.05 0.07,0.1 0.1,0.15 0.07,0.11 0.14,0.22 0.2,0.34 0.07,0.12 0.13,0.25 0.19,0.38 0.19,0.39 -0.09,-0.25 0.05,0.12 0.55,1.52 1.03,3.07 1.6,4.58 0.28,0.76 1.01,1.28 1.85,1.05 0.73,-0.2 1.33,-1.08 1.05,-1.85 -0.58,-1.55 -1.03,-3.15 -1.63,-4.68 -0.3,-0.75 -0.64,-1.41 -1.14,-2.04 -0.81,-1 -1.93,-1.58 -3.2,-1.71 -2.74,-0.29 -5.41,1.74 -7.36,3.4 -3.08,2.63 -5.65,5.86 -8.02,9.12 -2.91,4 -5.5,8.23 -7.84,12.59 -2.43,4.55 -4.6,9.27 -6.35,14.12 -1.52,4.22 -2.75,8.59 -3.2,13.07 -0.57,5.66 0.6,11.46 3.12,16.54 2.68,5.42 7.02,10.02 12.25,13.06 2.65,1.54 5.55,2.7 8.54,3.39 3.36,0.77 6.78,0.89 10.22,0.76 1.97,-0.07 3.94,-0.26 5.87,-0.66 1.95,-0.41 3.74,-1.14 5.52,-2.01 1.66,-0.8 3.32,-1.62 4.85,-2.67 1.53,-1.05 2.77,-2.28 4.04,-3.59 1.19,-1.23 2.37,-2.5 3.34,-3.91 0.46,-0.67 0.12,-1.66 -0.54,-2.05 -0.74,-0.43 -1.59,-0.13 -2.05,0.54 v 0 z"
           id="path878" />
        <path
           style="color:#000000;stroke:none;-inkscape-stroke:none;fill:#ffffff"
           d="m 147.20117,111.91797 c -2.85195,-0.30185 -5.5543,1.78095 -7.51172,3.44726 -3.09994,2.64703 -5.6792,5.8914 -8.05273,9.15625 -2.91632,4.00869 -5.51184,8.24652 -7.85547,12.61329 -2.43381,4.55713 -4.60743,9.28568 -6.36133,14.14648 -1.5233,4.22915 -2.75858,8.61568 -3.21094,13.11914 -0.57414,5.70117 0.60447,11.53781 3.14063,16.65039 2.6984,5.45598 7.06428,10.08486 12.32812,13.14453 2.66728,1.55004 5.58718,2.71739 8.59766,3.41211 3.38467,0.77566 6.82174,0.896 10.27148,0.76563 1.9782,-0.0703 3.95998,-0.2611 5.9043,-0.66407 v -0.002 c 1.97231,-0.41469 3.77899,-1.15185 5.56641,-2.02539 1.66118,-0.80057 3.33118,-1.62472 4.87695,-2.68555 1.54873,-1.06285 2.79856,-2.30342 4.07031,-3.61523 1.19192,-1.23198 2.38006,-2.50916 3.36133,-3.93555 0.26949,-0.39251 0.30141,-0.87355 0.17774,-1.30078 -0.12368,-0.42723 -0.3998,-0.81366 -0.78125,-1.03906 h -0.002 c -0.72311,-0.42019 -1.50295,-0.14728 -2.04297,0.39844 l -0.0547,-0.16407 -0.23047,0.33594 c -0.81569,1.18914 -1.95768,2.37324 -3.04688,3.48242 -1.08907,1.10906 -2.26944,2.28784 -3.61523,3.16211 h -0.002 c -1.48513,0.97029 -3.0866,1.73714 -4.6875,2.51758 -1.60518,0.7727 -3.23718,1.32587 -4.98829,1.65234 -1.74285,0.32679 -3.5214,0.4269 -5.29687,0.4668 -1.68839,0.04 -3.38129,0.061 -5.04688,-0.0977 -2.59551,-0.23775 -5.6225,-0.99416 -8.11132,-2.02539 -5.03121,-2.10377 -9.48197,-5.81118 -12.45899,-10.3164 -2.97727,-4.5056 -4.7257,-10.14792 -4.65625,-15.74414 v -0.002 c 0.01,-0.8925 0.0686,-1.78557 0.16797,-2.67968 v -0.002 l 0.002,-0.002 c 0.0146,-0.16069 0.0366,-0.32042 0.0586,-0.48242 7.3e-4,-0.004 -5e-4,-0.003 0,-0.006 0.001,-0.008 0.003,-0.0155 0.004,-0.0234 2e-4,-0.002 0.002,-0.004 0.002,-0.006 0.003,-0.0194 0.006,-0.0608 0.01,-0.0918 0.001,-0.0106 0.003,-0.0199 0.004,-0.0312 8e-5,-7e-4 -8e-5,-0.001 0,-0.002 0.004,-0.0339 0.007,-0.0592 0.01,-0.0937 v -0.002 c 4.4e-4,-0.006 0.002,-0.01 0.002,-0.0156 l 0.0586,-0.37304 -0.002,0.002 c 0.08,-0.49 0.16082,-0.97807 0.25976,-1.46289 v -0.002 c 0.40819,-2.10068 0.95583,-4.18301 1.59375,-6.22657 v -0.002 c 0.698,-2.21346 1.49711,-4.38836 2.375,-6.5332 v -0.002 c 0.10848,-0.27611 0.22766,-0.55398 0.34766,-0.83398 l 0.002,-0.002 c 0.01,-0.0229 0.007,-0.0187 0.0137,-0.0332 0,0 -2e-4,-0.002 0,-0.002 0.002,-0.004 0.004,-0.006 0.006,-0.01 1.6e-4,-3e-4 0.005,-0.01 0.006,-0.0117 8.4e-4,-0.002 0.003,-0.01 0.004,-0.0117 0.007,-0.0163 0.0164,-0.0337 0.041,-0.0918 v -0.002 -0.002 c 0.0566,-0.14152 0.12701,-0.28964 0.18945,-0.44531 l 0.002,-0.004 c 0.23868,-0.55681 0.48693,-1.11321 0.73633,-1.67188 0.509,-1.12778 1.03702,-2.2457 1.58594,-3.35351 2.15644,-4.3728 4.57276,-8.61577 7.26758,-12.66797 0.62825,-0.94737 1.27716,-1.88504 1.94531,-2.8125 v -0.002 c 0.30969,-0.42957 0.62097,-0.85915 0.93945,-1.28711 v -0.002 c 0.15829,-0.21764 0.31686,-0.42522 0.48633,-0.64453 l 0.004,-0.004 0.002,-0.004 c 0.0516,-0.0737 0.1104,-0.14672 0.16992,-0.2168 0.005,-0.006 0.009,-0.01 0.0137,-0.0156 0.006,-0.007 0.0109,-0.0146 0.0176,-0.0234 0.005,-0.005 0.009,-0.0106 0.0137,-0.0156 l 0.008,-0.008 0.006,-0.01 c 0.0127,-0.0178 0.0228,-0.0298 0.0293,-0.0391 0.0202,-0.0262 0.0447,-0.0568 0.0625,-0.0781 l 0.002,-0.002 0.002,-0.004 c 1.2067,-1.54578 2.47225,-3.03967 3.82617,-4.44336 v -0.002 c 0.58614,-0.61595 1.20209,-1.21109 1.83789,-1.77735 h 0.002 c 0.28828,-0.25845 0.58681,-0.51732 0.88477,-0.76562 v -0.002 c 0.0747,-0.0632 0.15501,-0.12249 0.23437,-0.18359 0.009,-0.004 0.022,-0.01 0.0254,-0.0117 0.005,-0.003 0.007,-0.004 0.01,-0.006 0.009,-0.006 0.0128,-0.0106 0.0195,-0.0156 0.0135,-0.0101 0.0314,-0.0225 0.0527,-0.0391 0.0843,-0.0654 0.22396,-0.17597 0.2871,-0.2246 l 0.004,-0.002 c 0.52296,-0.38462 1.06462,-0.73928 1.63281,-1.04297 0.12583,-0.0632 0.2425,-0.12965 0.35938,-0.18359 l 0.002,-0.002 0.0977,-0.0488 c 0.007,-9.3e-4 0.0113,-0.003 0.0176,-0.004 0.003,-5.3e-4 0.005,-0.001 0.008,-0.002 0.0201,-0.004 0.0393,-0.008 0.0586,-0.0137 0.002,-5.4e-4 0.002,-0.001 0.004,-0.002 0.0135,-0.004 0.0271,-0.005 0.041,-0.01 0.0759,-0.0242 0.16104,-0.0573 0.2461,-0.0918 0.085,-0.0345 0.16871,-0.072 0.23633,-0.0996 0.0676,-0.0277 0.14042,-0.0484 0.11328,-0.043 l 0.006,-0.002 0.008,-0.002 c 0.11,-0.03 0.21418,-0.0583 0.3125,-0.0762 h 0.002 0.002 c 0.0148,-0.003 0.0354,-0.007 0.0527,-0.01 0.001,1e-5 0.003,0 0.004,0 0.023,0.001 0.0493,0.0137 0.0723,0.0137 0.0705,0 0.14109,-0.006 0.21094,-0.0137 0.13204,-0.0149 0.25892,-0.0312 0.30273,-0.0332 0.0331,0.007 0.0644,0.0131 0.0957,0.0176 0.0753,0.0108 0.17265,0.0309 0.13867,0.0195 l 0.01,0.004 0.01,0.002 c 0.0418,0.009 0.10709,0.0345 0.16797,0.0566 0.005,0.003 0.007,0.005 0.0117,0.008 l 0.002,0.002 0.004,0.002 c 0.0724,0.0402 0.15536,0.0937 0.24414,0.14454 0.11375,0.1098 0.24802,0.27385 0.40234,0.41992 0.0168,0.024 0.0392,0.0563 0.0488,0.0723 v 0.004 l 0.002,0.002 c 0.07,0.11 0.13549,0.21433 0.18946,0.32227 l 0.004,0.006 0.002,0.004 c 0.0633,0.10853 0.12165,0.23329 0.18165,0.36329 l 0.002,0.002 v 0.002 c 0.009,0.018 0.0125,0.0249 0.0195,0.0391 0.007,0.0195 0.0122,0.0347 0.0234,0.0645 0.54723,1.51274 1.02722,3.06374 1.59961,4.58008 0.30953,0.83816 1.15059,1.43207 2.09375,1.17382 0.42431,-0.11625 0.79183,-0.41953 1.02343,-0.80273 0.23161,-0.3832 0.32644,-0.86062 0.16211,-1.3125 v -0.002 c -0.57602,-1.53937 -1.02591,-3.13902 -1.63086,-4.68164 v -0.002 h -0.002 c -0.30437,-0.76094 -0.65296,-1.44093 -1.16797,-2.08984 l -0.002,-0.002 c -0.84333,-1.04116 -2.01728,-1.65018 -3.33594,-1.78516 z m -0.043,0.40234 h 0.002 c 1.22134,0.12502 2.28583,0.67787 3.0625,1.63672 0.48406,0.61044 0.81409,1.25009 1.10937,1.98828 0.59442,1.51611 1.04362,3.11453 1.62695,4.67383 0.11568,0.31811 0.052,0.66555 -0.1289,0.96484 -0.1809,0.2993 -0.47752,0.53735 -0.78321,0.6211 -0.73628,0.2016 -1.3565,-0.24474 -1.60742,-0.92578 -0.55648,-1.47419 -1.03109,-2.99397 -1.57031,-4.49219 4.1e-4,-0.004 0.002,-0.0117 0.002,-0.0117 0,-1.6e-4 -0.002,-0.0232 -0.002,-0.0234 -1.2e-4,-8.7e-4 -0.006,-0.0287 -0.008,-0.0351 -0.004,-0.013 -0.007,-0.021 -0.01,-0.0293 -0.006,-0.0166 -0.0153,-0.0344 -0.0234,-0.0527 -0.008,-0.0183 -0.0151,-0.0359 -0.0234,-0.0527 -0.004,-0.008 -0.008,-0.0151 -0.0137,-0.0254 -0.003,-0.005 -0.007,-0.0117 -0.0137,-0.0215 -0.003,-0.005 -0.0153,-0.0192 -0.0156,-0.0195 -5e-5,-6e-5 -0.003,-0.003 -0.006,-0.006 -0.0525,-0.11328 -0.10575,-0.22845 -0.17188,-0.3418 -0.0611,-0.12021 -0.12877,-0.22662 -0.19336,-0.32813 -2.8e-4,-4.4e-4 2.9e-4,-0.001 0,-0.002 -5e-5,-2.5e-4 -0.009,-0.0284 -0.0117,-0.0352 -0.003,-0.007 -0.006,-0.0121 -0.008,-0.0156 -0.004,-0.007 -0.006,-0.01 -0.008,-0.0137 -0.009,-0.0154 -0.0155,-0.0281 -0.0254,-0.043 -0.0198,-0.0297 -0.0453,-0.0658 -0.0684,-0.0977 -0.0115,-0.0159 -0.023,-0.0299 -0.0332,-0.043 -0.005,-0.007 -0.01,-0.013 -0.0176,-0.0215 -0.004,-0.004 -0.008,-0.009 -0.0176,-0.0176 -0.005,-0.004 -0.0212,-0.0174 -0.0215,-0.0176 -1.5e-4,-10e-5 -0.0253,-0.0156 -0.0254,-0.0156 -1.1e-4,-5e-5 -0.0413,-0.0145 -0.0508,-0.0176 -0.0304,-0.0341 -0.0615,-0.0618 -0.0937,-0.0977 -0.004,-0.0202 -0.008,-0.0484 -0.008,-0.0488 -2.3e-4,-6.5e-4 -0.0127,-0.0267 -0.0176,-0.0352 -0.005,-0.008 -0.008,-0.0142 -0.0117,-0.0195 -0.008,-0.0106 -0.0139,-0.0173 -0.0195,-0.0234 -0.0113,-0.0123 -0.0215,-0.0226 -0.0312,-0.0312 -0.0194,-0.0174 -0.0393,-0.0329 -0.0605,-0.0488 -0.0212,-0.0159 -0.0423,-0.031 -0.0645,-0.0449 -0.0221,-0.0139 -0.0196,-0.0277 -0.10351,-0.0449 -5e-4,-1e-4 -0.001,1e-4 -0.002,0 -7.5e-4,-0.001 -0.001,-0.003 -0.002,-0.004 -0.008,-0.0109 -0.0155,-0.0175 -0.0215,-0.0234 -0.0119,-0.0119 -0.0198,-0.0179 -0.0273,-0.0234 -0.06,-0.0443 -0.0945,-0.0544 -0.14257,-0.0742 -0.024,-0.01 -0.0464,-0.0196 -0.0723,-0.0273 -0.0129,-0.004 -0.0251,-0.007 -0.0469,-0.01 -0.0109,-0.002 -0.0243,-0.003 -0.0469,-0.002 -0.0103,5.7e-4 -0.0359,0.005 -0.041,0.006 -0.0105,-0.003 -0.0164,-0.007 -0.0274,-0.01 -0.002,-5.7e-4 -0.002,5.5e-4 -0.004,0 -0.028,-0.009 -0.0409,-0.008 -0.0625,-0.0117 -0.002,-0.006 -0.01,-0.0332 -0.01,-0.0332 -1.2e-4,-3e-5 -0.0201,-0.004 -0.0234,-0.004 -0.003,-2.5e-4 -0.006,8e-5 -0.008,0 -0.007,-3.2e-4 -0.0124,1.1e-4 -0.0195,0 -4.2e-4,0 -0.002,10e-6 -0.002,0 -0.002,-2e-5 -0.006,3e-5 -0.008,0 -0.014,-1.7e-4 -0.0294,-0.002 -0.0566,-0.002 l 0.0117,0.002 c -0.0354,-0.001 -0.08,-0.004 -0.10937,-0.008 -6e-4,-1e-5 -0.001,1e-5 -0.002,0 -0.0131,-0.002 -0.0245,-0.004 -0.0234,-0.004 4e-5,1e-5 0.004,0.002 0.004,0.002 -0.009,-2e-5 -0.023,-0.002 -0.0312,-0.002 -0.10062,0 -0.20947,0.019 -0.31836,0.0332 -0.007,-0.005 -0.0174,-0.01 -0.0176,-0.01 -4.8e-4,-2.2e-4 -0.0237,-0.009 -0.0332,-0.0117 -0.0758,-0.0198 -0.0831,-0.007 -0.11133,-0.004 -0.0282,0.003 -0.0597,0.009 -0.0996,0.0176 -0.0449,0.009 -0.10507,0.0183 -0.16015,0.0293 -0.11543,0.0212 -0.22521,0.0515 -0.33008,0.0801 -0.002,4.8e-4 -0.004,0.001 -0.006,0.002 -0.002,6.8e-4 -0.005,0.001 -0.008,0.002 -0.0667,0.0151 -0.10558,0.0354 -0.17188,0.0625 -0.0714,0.0292 -0.15513,0.0647 -0.23633,0.0977 -0.0213,0.009 -0.036,0.0134 -0.0566,0.0215 -0.001,-3e-4 -0.006,-0.002 -0.006,-0.002 -5.3e-4,-6e-5 -0.0262,-0.002 -0.0351,-0.002 -0.009,3.4e-4 -0.0153,0.001 -0.0215,0.002 -0.0491,0.007 -0.0618,0.0143 -0.0898,0.0254 -0.028,0.0111 -0.0629,0.0269 -0.10547,0.0469 h -0.002 l -0.18164,0.0918 c -0.13841,0.0644 -0.26099,0.13439 -0.3711,0.18945 l -0.002,0.002 h -0.002 c -0.59054,0.31563 -1.1496,0.6818 -1.68555,1.07617 v 0.002 h -0.002 c -0.0512,0.0394 -0.14278,0.11088 -0.22071,0.17187 l -0.004,-0.006 c -0.004,0.003 -0.008,0.007 -0.0117,0.01 -0.141,0.10128 -0.282,0.21022 -0.41211,0.32031 -0.30166,0.25141 -0.60317,0.51222 -0.89453,0.77344 -0.64383,0.57346 -1.26779,1.17902 -1.86133,1.80273 -1.36536,1.41573 -2.63883,2.92112 -3.85156,4.47461 -0.0162,0.0196 -0.0279,0.0354 -0.043,0.0547 -0.002,0.002 -0.004,0.004 -0.006,0.006 -0.005,0.005 -0.0101,0.0118 -0.0117,0.0137 -0.005,0.005 -0.007,0.007 -0.01,0.01 -0.002,0.003 -0.004,0.007 -0.006,0.01 -0.001,0.002 -0.002,0.004 -0.004,0.006 -0.002,0.002 -0.004,0.003 -0.006,0.006 -0.0123,0.0162 -0.0285,0.0363 -0.041,0.0527 -0.006,0.008 -0.012,0.0149 -0.0156,0.0195 -0.003,0.003 0.003,-7.9e-4 0.006,-0.004 -0.003,0.003 -0.007,0.008 -0.01,0.0117 -0.0659,0.0778 -0.1326,0.15818 -0.1914,0.24219 -0.16829,0.21785 -0.32654,0.42872 -0.48633,0.64843 -0.32087,0.43119 -0.63171,0.85949 -0.94141,1.28907 -0.67151,0.9321 -1.32362,1.87593 -1.95508,2.82812 -2.7048,4.06736 -5.12966,8.32425 -7.29296,12.71094 h 0.002 c -0.55108,1.11218 -1.08275,2.23497 -1.59375,3.36719 -0.25,0.56 -0.50139,1.12172 -0.74219,1.68359 v 0.002 l -0.002,0.002 c -0.0571,0.1428 -0.12658,0.29202 -0.18945,0.44921 -0.009,0.0209 -0.006,0.0177 -0.0117,0.0312 -0.001,0.003 -0.003,0.003 -0.004,0.006 -0.002,0.003 -0.004,0.006 -0.004,0.006 -1.5e-4,2.9e-4 -0.005,0.01 -0.006,0.0117 -8.7e-4,0.002 -0.003,0.01 -0.004,0.0117 -6.4e-4,0.002 -0.003,0.007 -0.006,0.0137 -8.9e-4,0.002 -0.003,0.007 -0.004,0.01 -0.007,0.016 -0.0111,0.0235 -0.0293,0.0664 -0.12,0.28 -0.24004,0.56182 -0.35157,0.84571 -0.8816,2.15403 -1.68308,4.33715 -2.38476,6.5625 v 0.002 c -0.64183,2.05586 -1.19378,4.15279 -1.60547,6.27148 -0.10087,0.49454 -0.18182,0.98524 -0.26172,1.47461 v 0.002 l -0.0625,0.39843 v 0.01 c -0.002,0.0267 -0.004,0.0534 -0.008,0.0859 -0.002,0.0178 -0.004,0.0305 -0.006,0.0469 -4.1e-4,0.003 -0.002,0.006 -0.002,0.01 -0.003,0.0274 -0.006,0.0606 -0.008,0.0742 -2.3e-4,0.002 -0.002,0.01 -0.002,0.0117 -5.8e-4,0.006 -0.001,0.007 -0.002,0.0215 -0.0222,0.16326 -0.047,0.32398 -0.0625,0.49414 -0.1004,0.90459 -0.15986,1.8106 -0.16992,2.7168 -0.0705,5.68376 1.69993,11.40022 4.72265,15.97461 3.02297,4.57476 7.53184,8.32862 12.64063,10.46484 h 0.002 c 2.53059,1.04853 5.5825,1.81226 8.22656,2.05469 1.69441,0.16137 3.40409,0.13965 5.0957,0.0996 1.7839,-0.0401 3.58483,-0.13956 5.36133,-0.47266 1.78827,-0.3334 3.45752,-0.89867 5.0918,-1.68555 v -0.002 c 1.59909,-0.77955 3.21755,-1.5513 4.73242,-2.54101 1.39421,-0.90573 2.59267,-2.10781 3.6836,-3.21875 1.00339,-1.02181 2.02318,-2.12717 2.84375,-3.25391 l 0.0273,0.082 0.23047,-0.33594 c 0.41012,-0.59735 1.13479,-0.85416 1.78125,-0.47851 0.27854,0.16459 0.50133,0.46801 0.59765,0.80078 0.0963,0.33277 0.0694,0.6815 -0.12109,0.95898 -0.95873,1.39362 -2.13223,2.65675 -3.32031,3.88477 -1.26824,1.30819 -2.49655,2.52731 -4.00781,3.56445 -1.51423,1.03918 -3.16541,1.85487 -4.82422,2.6543 -1.77204,0.86611 -3.54559,1.58896 -5.47266,1.99414 -1.91567,0.39703 -3.87414,0.58654 -5.83594,0.65625 -3.43024,0.12963 -6.83265,0.008 -10.16797,-0.75586 -2.96951,-0.68527 -5.85165,-1.83723 -8.48437,-3.36719 -5.19537,-3.01987 -9.50823,-7.59164 -12.16992,-12.97461 v -0.002 c -2.50383,-5.04741 -3.66546,-10.81087 -3.09961,-16.42969 0.44764,-4.45653 1.67275,-8.81064 3.18945,-13.02148 1.7461,-4.83919 3.91171,-9.54894 6.33789,-14.0918 2.33637,-4.35323 4.92055,-8.5751 7.82422,-12.5664 2.36647,-3.25514 4.92823,-6.47297 7.98828,-9.08594 1.94258,-1.65368 4.579,-3.63167 7.20703,-3.35352 z m -1.98047,2.95899 c 0.0136,-0.001 0.0245,-0.006 0.0625,0.0156 l -0.0859,0.14844 c -0.007,-0.0209 -0.0137,-0.0451 -0.0137,-0.0449 10e-6,3.2e-4 0.0138,-0.0766 0.0137,-0.0762 -1.6e-4,3.9e-4 0.0139,-0.0288 0.0195,-0.0371 0.002,-0.003 0.002,-0.004 0.004,-0.006 z m -9.66992,9.12109 0.13477,0.12305 c -0.0614,-0.0353 -0.125,-0.0723 -0.125,-0.0723 0,0 -0.006,-0.0313 -0.01,-0.0508 z m -13.47656,23.30859 c 0.0128,0.003 0.0853,0.0233 0.13672,0.0371 -0.006,0.003 -0.007,0.003 -0.0137,0.006 -0.051,-0.006 -0.0983,-0.0113 -0.11914,-0.0137 -0.002,-0.0132 -0.004,-0.0281 -0.004,-0.0293 z m 0.26563,0.0176 c 0.051,0.006 0.0966,0.0113 0.11718,0.0137 0.002,0.0146 0.006,0.0312 0.006,0.0312 -0.0106,-0.003 -0.0866,-0.0231 -0.13867,-0.0371 0.007,-0.003 0.008,-0.005 0.0156,-0.008 z m -4.80665,15.63672 c 0,0 0.084,0.0408 0.14063,0.0684 l -0.21875,-0.0293 c 0.0363,-0.018 0.0781,-0.0391 0.0781,-0.0391 z"
           id="path880" />
      </g>
      <g
         id="path16"
         style="fill:#ffffff">
        <path
           style="color:#000000;stroke:none;stroke-width:0.404661;-inkscape-stroke:none;fill:#ffffff"
           d="m 154.95,131.77 c 2.7,5.06 5.92,9.78 9.26,14.44 2.66,3.72 5.44,7.46 7.32,11.66 1.3,2.9 1.97,6.03 1.98,9.2 0,1.93 3.01,1.93 3,0 -0.01,-3.01 -0.54,-6 -1.6,-8.82 -0.89,-2.35 -2.06,-4.57 -3.39,-6.7 -2.67,-4.27 -5.79,-8.23 -8.6,-12.41 -1.93,-2.88 -3.74,-5.83 -5.37,-8.89 -0.38,-0.71 -1.37,-0.94 -2.05,-0.54 -0.72,0.42 -0.92,1.33 -0.54,2.05 v 0 z"
           id="path886" />
        <path
           style="color:#000000;stroke:none;-inkscape-stroke:none;fill:#ffffff"
           d="m 156.69141,129.36328 c -0.42916,-0.10929 -0.90172,-0.0576 -1.29297,0.17188 -0.7587,0.44257 -0.95049,1.3611 -0.63867,2.13867 l -0.0586,0.0586 0.0703,0.13281 c 2.70685,5.07284 5.93163,9.80037 9.27344,14.46289 2.66147,3.72206 5.43287,7.45202 7.30078,11.625 1.28839,2.87409 1.95298,5.97528 1.96289,9.11719 0,0.53509 0.21681,0.96096 0.54102,1.23828 0.32421,0.27733 0.74512,0.41211 1.16406,0.41211 0.41894,0 0.84097,-0.1345 1.16406,-0.41211 0.3231,-0.2776 0.53793,-0.70514 0.53516,-1.24023 -0.0101,-3.0333 -0.54452,-6.04538 -1.61328,-8.88867 v -0.002 c -0.89585,-2.36545 -2.07299,-4.59602 -3.4082,-6.73437 -2.67775,-4.28239 -5.7992,-8.24447 -8.60352,-12.41602 -1.92699,-2.87551 -3.73323,-5.82028 -5.35937,-8.87304 -0.22021,-0.41144 -0.60732,-0.68156 -1.03711,-0.79102 z m -0.10743,0.40039 c 0.33021,0.083 0.62732,0.28347 0.78711,0.58203 1.63385,3.06723 3.44786,6.02177 5.38086,8.90625 2.81568,4.18844 5.93346,8.14865 8.59571,12.40625 1.32439,2.12119 2.4891,4.33007 3.37304,6.66407 1.0508,2.79618 1.57797,5.76198 1.58789,8.74804 0.002,0.42991 -0.15606,0.72675 -0.39453,0.93164 -0.23847,0.2049 -0.56808,0.3125 -0.90039,0.3125 -0.33231,0 -0.66249,-0.10732 -0.90234,-0.3125 -0.23986,-0.20517 -0.39844,-0.50173 -0.39844,-0.93164 -0.0101,-3.19808 -0.68643,-6.35729 -1.99805,-9.2832 -1.89208,-4.227 -4.68132,-7.97738 -7.33984,-11.69531 -3.30932,-4.61719 -6.49115,-9.29322 -9.16992,-14.29102 l 0.004,-0.004 -0.0703,-0.13085 c -0.33347,-0.63185 -0.16132,-1.41713 0.46289,-1.78125 h 0.002 c 0.2884,-0.16965 0.65026,-0.20414 0.98046,-0.1211 z"
           id="path888" />
      </g>
      <g
         id="path18"
         style="fill:#ffffff">
        <path
           style="color:#000000;stroke:none;stroke-width:0.404661;-inkscape-stroke:none;fill:#ffffff"
           d="m 162.91,165.94 c -0.03,7.96 -5.09,15.36 -12.53,18.09 -2.29,0.84 -4.41,1.21 -6.78,1.22 -1.93,0 -1.93,3.01 0,3 4.57,-0.02 9.13,-1.42 12.86,-4.09 3.7,-2.65 6.51,-6.31 8.1,-10.57 0.91,-2.44 1.34,-5.05 1.35,-7.65 0,-1.93 -2.99,-1.93 -3,0 z"
           id="path894" />
        <path
           style="color:#000000;stroke:none;-inkscape-stroke:none;fill:#ffffff"
           d="m 164.41406,164.29102 c -0.41783,0 -0.83838,0.13292 -1.16211,0.41015 -0.32373,0.27723 -0.54215,0.70354 -0.54492,1.23828 -0.0297,7.87473 -5.03964,15.20091 -12.39648,17.90039 -2.27013,0.83271 -4.36149,1.19712 -6.71094,1.20703 -0.53509,0 -0.96096,0.21681 -1.23828,0.54102 -0.27733,0.32421 -0.41211,0.74708 -0.41211,1.16602 0,0.41894 0.1345,0.84097 0.41211,1.16406 0.2776,0.32309 0.70514,0.53793 1.24023,0.53515 4.61073,-0.0202 9.21032,-1.43296 12.97656,-4.1289 3.73227,-2.67311 6.56785,-6.36647 8.17188,-10.66406 0.91921,-2.46471 1.3532,-5.09697 1.36328,-7.71875 v -0.002 c 0,-0.53474 -0.21644,-0.96077 -0.53906,-1.23828 -0.32262,-0.2775 -0.74232,-0.41015 -1.16016,-0.41015 z m 0,0.40429 c 0.33092,0 0.65817,0.10751 0.89649,0.3125 0.23832,0.205 0.39648,0.50139 0.39648,0.93164 -0.01,2.57821 -0.43515,5.16479 -1.33594,7.58008 -1.57596,4.2224 -4.36157,7.84968 -8.02929,10.47656 -3.69376,2.64406 -8.21293,4.03096 -12.74219,4.05078 -0.42991,0.002 -0.72675,-0.1541 -0.93164,-0.39257 -0.2049,-0.23847 -0.3125,-0.56809 -0.3125,-0.90039 0,-0.33231 0.10733,-0.66249 0.3125,-0.90235 0.20517,-0.23985 0.50173,-0.39843 0.93164,-0.39844 h 0.002 c 2.39055,-0.0101 4.53779,-0.38513 6.84766,-1.23242 7.52314,-2.76051 12.63374,-10.23403 12.66406,-18.27929 0.002,-0.43026 0.16069,-0.72833 0.40039,-0.9336 0.23971,-0.20527 0.56948,-0.3125 0.90039,-0.3125 z"
           id="path896" />
      </g>
    </g>
    <g
       id="path24"
       style="fill:#ffffff">
      <path
         style="color:#000000;fill:#ffffff;stroke-width:0.03;-inkscape-stroke:none"
         d="m 14.929485,13.386571 c -0.110462,0.557505 -0.309889,1.226955 -0.912616,1.42564 -0.167548,0.05486 -0.342509,0.07117 -0.518212,0.06969 -0.143083,-0.0015 -0.143083,0.220925 0,0.222408 0.345474,0.0037 0.687984,-0.06821 0.96377,-0.285424 0.256512,-0.201651 0.423318,-0.493747 0.531557,-0.797706 0.06672,-0.186823 0.110463,-0.38106 0.149014,-0.575297 0.01186,-0.05857 -0.01705,-0.1201 -0.07784,-0.137152 -0.05486,-0.01483 -0.12529,0.01853 -0.137152,0.07784 v 0 z"
         id="path902" />
      <path
         style="color:#000000;fill:#ffffff;-inkscape-stroke:none"
         d="m 15.068359,13.294922 c -0.03173,-0.0086 -0.06655,-0.0039 -0.0957,0.01172 -0.02915,0.01562 -0.05165,0.04145 -0.05859,0.07617 -0.05512,0.278186 -0.131718,0.584109 -0.269532,0.84375 -0.137813,0.25964 -0.335739,0.474337 -0.632812,0.572265 -0.165449,0.05417 -0.338981,0.06983 -0.513672,0.06836 -0.03966,-4.16e-4 -0.07119,0.01525 -0.0918,0.03906 -0.02061,0.02381 -0.0293,0.05492 -0.0293,0.08594 0,0.03102 0.0088,0.06179 0.0293,0.08594 0.02053,0.02414 0.05214,0.0406 0.0918,0.04102 0.347661,0.0037 0.695345,-0.06911 0.974609,-0.289063 0.259561,-0.204048 0.426303,-0.499002 0.535157,-0.804687 0.06713,-0.187969 0.111789,-0.381683 0.15039,-0.576172 0.01321,-0.06522 -0.02121,-0.135045 -0.08984,-0.154297 z m -0.0078,0.02734 c 0.05295,0.01485 0.07887,0.06917 0.06836,0.121093 -0.0385,0.193985 -0.08213,0.386589 -0.148437,0.572266 -0.107624,0.302232 -0.273881,0.591762 -0.527344,0.791016 -0.272307,0.214474 -0.611792,0.286879 -0.955078,0.283203 -0.03188,-3.31e-4 -0.05311,-0.01332 -0.06836,-0.03125 -0.01525,-0.01793 -0.02344,-0.04182 -0.02344,-0.06641 0,-0.02459 0.0083,-0.04889 0.02344,-0.06641 0.01516,-0.01752 0.03647,-0.02963 0.06836,-0.0293 0.176715,0.0015 0.35379,-0.01476 0.523437,-0.07031 0.305654,-0.100757 0.510194,-0.321806 0.650391,-0.585938 0.140197,-0.264131 0.216141,-0.572245 0.271484,-0.851562 0.0049,-0.02459 0.02218,-0.04251 0.04492,-0.05469 0.02274,-0.01218 0.04913,-0.01797 0.07227,-0.01172 z"
         id="path904" />
    </g>
    <g
       id="path26"
       style="fill:#ffffff">
      <path
         style="color:#000000;fill:#ffffff;stroke-width:0.03;stroke-linecap:round;stroke-linejoin:round;-inkscape-stroke:none"
         d="m 9.9720557,7.1117066 c -0.1717517,0 -0.3136309,0.1410703 -0.3136309,0.3136309 0,0.1722077 0.1414232,0.3134861 0.3136309,0.3134861 0.1725603,0 0.3134863,-0.1417344 0.3134863,-0.3134861 0,-0.1725606 -0.141735,-0.3136309 -0.3134863,-0.3136309 z m 0,0.1779559 c 0.075863,0 0.1356753,0.059138 0.1356753,0.135675 0,0.075863 -0.05914,0.135675 -0.1356753,0.135675 -0.07689,0 -0.1356751,-0.058785 -0.1356751,-0.135675 0,-0.076537 0.059812,-0.135675 0.1356751,-0.135675 z"
         id="path910" />
      <path
         style="color:#000000;fill:#ffffff;stroke-linecap:round;stroke-linejoin:round;-inkscape-stroke:none"
         d="m 9.9726563,7.0976562 c -0.1799652,0 -0.3300782,0.1473426 -0.3300782,0.328125 0,0.1804199 0.1496667,0.3281251 0.3300782,0.328125 0.1807737,10e-8 0.3281247,-0.1481682 0.3281247,-0.328125 0,-0.180774 -0.14816,-0.328125 -0.3281247,-0.328125 z m 0,0.029297 c 0.1635377,0 0.2988277,0.1344814 0.2988277,0.2988281 0,0.1635464 -0.134481,0.2988282 -0.2988277,0.2988282 -0.1640036,0 -0.2988282,-0.134833 -0.2988282,-0.2988282 0,-0.1643384 0.1352902,-0.2988281 0.2988282,-0.2988281 z m 0,0.1484375 c -0.083658,0 -0.1503907,0.066039 -0.1503907,0.1503906 0,0.084535 0.065855,0.1503907 0.1503907,0.1503907 0.08435,0 0.1503907,-0.066732 0.1503907,-0.1503907 0,-0.084352 -0.06673,-0.1503906 -0.1503907,-0.1503906 z m 0,0.029297 c 0.068068,0 0.1191407,0.052372 0.1191407,0.1210937 0,0.068067 -0.05042,0.1210938 -0.1191407,0.1210938 -0.069245,0 -0.1210938,-0.051849 -0.1210938,-0.1210938 0,-0.068722 0.053026,-0.1210937 0.1210938,-0.1210937 z"
         id="path912" />
    </g>
    <g
       id="path28"
       style="fill:#ffffff">
      <path
         style="color:#000000;fill:#ffffff;stroke-width:0.03;stroke-linecap:round;stroke-linejoin:round;-inkscape-stroke:none"
         d="m 16.169813,5.9384144 c -0.142219,0 -0.259911,0.1168835 -0.259911,0.2599111 0,0.1426738 0.117237,0.2599111 0.259911,0.2599111 0.142674,0 0.259767,-0.1172373 0.259767,-0.2599111 0,-0.1430276 -0.117547,-0.2599111 -0.259767,-0.2599111 z m 0,0.1475484 c 0.0624,0 0.112218,0.049292 0.112218,0.1123627 0,0.063425 -0.04879,0.1123627 -0.112218,0.1123627 -0.06342,0 -0.112362,-0.048938 -0.112362,-0.1123627 0,-0.063071 0.04997,-0.1123627 0.112362,-0.1123627 z"
         id="path918" />
      <path
         style="color:#000000;fill:#ffffff;stroke-linecap:round;stroke-linejoin:round;-inkscape-stroke:none"
         d="m 16.169922,5.9238281 c -0.150438,0 -0.275391,0.1241346 -0.275391,0.2753906 0,0.1508908 0.1245,0.2734375 0.275391,0.2734375 0.150891,0 0.27539,-0.1225568 0.27539,-0.2734375 0,-0.1512459 -0.124952,-0.2753906 -0.27539,-0.2753906 z m 0,0.029297 c 0.134001,0 0.24414,0.1112848 0.24414,0.2460937 0,0.1344667 -0.109683,0.2441407 -0.24414,0.2441407 -0.134457,0 -0.244141,-0.1096841 -0.244141,-0.2441407 0,-0.1347988 0.110141,-0.2460937 0.244141,-0.2460937 z m 0,0.1171875 c -0.07029,0 -0.126953,0.057912 -0.126953,0.1289062 0,0.071141 0.05582,0.1269532 0.126953,0.1269532 0.07114,0 0.126953,-0.055836 0.126953,-0.1269532 0,-0.070969 -0.05665,-0.1289062 -0.126953,-0.1289062 z m 0,0.03125 c 0.0545,0 0.09766,0.042484 0.09766,0.097656 0,0.055732 -0.04194,0.095703 -0.09766,0.095703 -0.0557,0 -0.09766,-0.039995 -0.09766,-0.095703 0,-0.055148 0.04316,-0.097656 0.09766,-0.097656 z"
         id="path920" />
    </g>
    <g
       id="path30"
       style="fill:#ffffff">
      <path
         style="color:#000000;fill:#ffffff;stroke-width:0.03;stroke-linecap:round;stroke-linejoin:round;-inkscape-stroke:none"
         d="m 19.609762,11.820803 c -0.08583,0 -0.156526,0.07055 -0.156526,0.156381 0,0.08583 0.0707,0.156526 0.156526,0.156526 0.08547,0 0.156381,-0.07024 0.156381,-0.156526 0,-0.08583 -0.07055,-0.156381 -0.156381,-0.156381 z m 0,0.08891 c 0.03724,0 0.06748,0.03024 0.06748,0.06747 0,0.03827 -0.02988,0.06748 -0.06748,0.06748 -0.03724,0 -0.06748,-0.03024 -0.06748,-0.06748 0,-0.03724 0.03024,-0.06747 0.06748,-0.06747 z"
         id="path926" />
      <path
         style="color:#000000;fill:#ffffff;stroke-linecap:round;stroke-linejoin:round;-inkscape-stroke:none"
         d="m 19.609375,11.806641 c -0.09405,0 -0.171875,0.07585 -0.171875,0.169922 0,0.09407 0.07781,0.171875 0.171875,0.171875 0.09369,0 0.171875,-0.07737 0.171875,-0.171875 0,-0.09405 -0.07782,-0.169922 -0.171875,-0.169922 z m 0,0.0293 c 0.07761,0 0.142578,0.06301 0.142578,0.140625 0,0.07807 -0.06533,0.142578 -0.142578,0.142578 -0.07759,0 -0.140625,-0.06499 -0.140625,-0.142578 0,-0.0776 0.06302,-0.140626 0.140625,-0.140625 z m 0,0.05859 c -0.04536,0 -0.08203,0.03667 -0.08203,0.08203 0,0.04536 0.03667,0.08398 0.08203,0.08398 0.04537,0 0.08203,-0.03791 0.08203,-0.08398 0,-0.04535 -0.03667,-0.08203 -0.08203,-0.08203 z m 0,0.0293 c 0.02912,0 0.05273,0.02363 0.05273,0.05274 0,0.03046 -0.0229,0.05273 -0.05273,0.05273 -0.02912,0 -0.05273,-0.02361 -0.05273,-0.05273 0,-0.02912 0.02361,-0.05274 0.05273,-0.05274 z"
         id="path928" />
    </g>
    <g
       id="path32"
       style="fill:#ffffff">
      <path
         style="color:#000000;fill:#ffffff;stroke-width:0.03;stroke-linecap:round;stroke-linejoin:round;-inkscape-stroke:none"
         d="m 7.3347182,13.18711 c -0.045877,0.002 -0.083511,0.02689 -0.1190233,0.06241 a 0.06598782,0.06598782 0 0 0 -1.482e-4,0 c -0.065356,0.06557 -0.097702,0.132954 -0.08905,0.198517 0.00865,0.06556 0.05773,0.1103 0.10715,0.132055 0.04942,0.02176 0.1032656,0.02763 0.1547883,0.0139 0.025761,-0.0069 0.051779,-0.01936 0.072833,-0.0417 0.021054,-0.02234 0.034607,-0.05549 0.034607,-0.08862 0,-0.0794 -0.00844,-0.157417 -0.052272,-0.219223 -0.021914,-0.0309 -0.06301,-0.05935 -0.1088875,-0.05734 z m 0.00145,0.135241 c 0.010771,0.01606 0.027093,0.07771 0.027367,0.140163 -7.414e-4,5.19e-4 -0.0024,0.0022 -0.00898,0.0039 -0.015686,0.0042 -0.046663,0.0022 -0.067765,-0.0071 -0.021102,-0.0093 -0.028251,-0.01877 -0.029539,-0.02853 -0.00129,-0.0098 0.00265,-0.03869 0.051837,-0.08804 0.019423,-0.01937 0.026428,-0.01988 0.027077,-0.02042 z"
         id="path934" />
      <path
         style="color:#000000;fill:#ffffff;stroke-linecap:round;stroke-linejoin:round;-inkscape-stroke:none"
         d="m 7.3339844,13.171875 c -0.047253,0.0021 -0.084389,0.02965 -0.1191407,0.0625 a 0.0150015,0.0150015 0 0 0 -0.00977,0.0039 c -0.067236,0.06746 -0.1032108,0.139246 -0.09375,0.210938 0.0095,0.07198 0.064179,0.121196 0.1171875,0.144531 0.052187,0.02298 0.1089993,0.0303 0.1640625,0.01563 0.027682,-0.0074 0.056703,-0.02207 0.080078,-0.04687 0.02393,-0.02539 0.039063,-0.06239 0.039063,-0.09961 0,-0.08046 -0.00989,-0.16064 -0.056641,-0.226563 -0.02452,-0.03457 -0.068642,-0.06675 -0.1210937,-0.06445 z m 0.00195,0.0293 c 0.039303,-0.0017 0.076395,0.02551 0.095703,0.05273 0.040912,0.05769 0.048828,0.130648 0.048828,0.208985 0,0.02904 -0.011119,0.06079 -0.029297,0.08008 -0.018733,0.01988 -0.042567,0.03072 -0.066406,0.03711 -0.047982,0.01279 -0.097878,0.0069 -0.1445312,-0.01367 -0.045831,-0.02018 -0.091806,-0.06195 -0.099609,-0.121093 -0.00784,-0.05943 0.022462,-0.121864 0.085937,-0.185547 0.034243,-0.03425 0.068551,-0.05681 0.109375,-0.05859 z m 0.00586,0.107422 a 0.0150015,0.0150015 0 0 0 -0.013672,0.002 0.0150015,0.0150015 0 0 0 -0.00195,0 c -0.00136,6.55e-4 -0.00219,8.98e-4 -0.00391,0.002 -0.00559,0.0034 -0.013134,0.0093 -0.023437,0.01953 -0.050971,0.05114 -0.058944,0.08406 -0.056641,0.101563 0.00103,0.0078 0.00522,0.01475 0.011719,0.02148 0.0065,0.0067 0.015645,0.01242 0.027344,0.01758 0.025333,0.01117 0.056524,0.0136 0.078125,0.0078 0.0067,-0.0021 0.013012,-0.0054 0.013672,-0.0059 a 0.0150015,0.0150015 0 0 0 0.00195,-0.002 0.0150015,0.0150015 0 0 0 0.00391,-0.0059 0.0150015,0.0150015 0 0 0 0,-0.0039 c -1.426e-4,-0.03251 -0.0041,-0.06562 -0.00977,-0.0918 -0.0055,-0.02539 -0.013508,-0.04218 -0.021484,-0.05469 a 0.0150015,0.0150015 0 0 0 -0.00586,-0.0078 z m -0.011719,0.03711 c 0.00341,0.0087 0.00622,0.01682 0.00977,0.0332 0.00452,0.02087 0.00485,0.04658 0.00586,0.07227 -0.01231,0.0016 -0.037534,8.4e-4 -0.052734,-0.0059 -0.0094,-0.0041 -0.014909,-0.007 -0.017578,-0.0098 -0.00267,-0.0028 -0.00365,-0.0039 -0.00391,-0.0059 -2.765e-4,-0.0021 0.00142,-0.02861 0.048828,-0.07617 0.00484,-0.0048 0.00673,-0.0054 0.00977,-0.0078 z"
         id="path936" />
    </g>
    <g
       id="path34"
       style="fill:#ffffff">
      <path
         style="color:#000000;fill:#ffffff;stroke-width:0.03;stroke-linecap:round;stroke-linejoin:round;-inkscape-stroke:none"
         d="m 19.052148,15.290435 a 0.08897234,0.08897234 0 0 0 -0.08109,0.05256 c -0.04078,0.09095 -0.04283,0.18139 -0.01071,0.252382 0.03212,0.07099 0.09224,0.117118 0.154643,0.140453 0.0624,0.02333 0.129446,0.02769 0.192581,0.0035 0.06313,-0.02422 0.120471,-0.09401 0.120471,-0.173901 0,-0.06938 -0.03061,-0.131347 -0.07167,-0.171296 -0.04106,-0.03995 -0.08907,-0.06185 -0.133213,-0.07616 -0.08828,-0.02863 -0.171005,-0.02751 -0.171005,-0.02751 z m 0.07457,0.189974 c 0.01815,0.0028 0.02181,3.71e-4 0.04156,0.0068 0.02759,0.0089 0.05127,0.02207 0.064,0.03446 0.01273,0.01239 0.01781,0.02007 0.01781,0.04373 0,0.01314 0.0051,0.0035 -0.0062,0.0078 -0.01128,0.0043 -0.04064,0.0056 -0.06646,-0.0041 -0.02582,-0.0097 -0.04572,-0.02649 -0.05502,-0.04706 -0.0036,-0.0081 0.0051,-0.02982 0.0043,-0.0417 z"
         id="path942" />
      <path
         style="color:#000000;fill:#ffffff;stroke-linecap:round;stroke-linejoin:round;-inkscape-stroke:none"
         d="m 19.052734,15.275391 c -0.04088,4.1e-5 -0.07897,0.02324 -0.0957,0.06055 -0.04222,0.09417 -0.04396,0.190055 -0.0098,0.265625 0.03401,0.07517 0.09659,0.123938 0.162109,0.148437 0.06513,0.02435 0.136115,0.02958 0.203125,0.0039 0.06929,-0.02658 0.130859,-0.102385 0.130859,-0.189453 0,-0.07379 -0.03223,-0.138883 -0.07617,-0.18164 -0.04328,-0.04212 -0.09329,-0.06537 -0.138671,-0.08008 -0.091,-0.02951 -0.175782,-0.02734 -0.175782,-0.02734 z m 0,0.0293 c 0,0 0.08046,-4.03e-4 0.166016,0.02734 0.04291,0.01391 0.08812,0.03448 0.126953,0.07227 0.03817,0.03714 0.06641,0.09519 0.06641,0.160156 0,0.07271 -0.05241,0.1383 -0.109375,0.160156 -0.05926,0.02271 -0.121967,0.02036 -0.18164,-0.002 -0.05929,-0.02217 -0.116256,-0.066 -0.146485,-0.132812 -0.03005,-0.06641 -0.02957,-0.152501 0.0098,-0.240235 0.01193,-0.0266 0.03921,-0.04489 0.06836,-0.04492 z m 0.07227,0.160156 a 0.0150015,0.0150015 0 0 0 -0.01367,0.01563 c 1.1e-5,1.67e-4 1.7e-5,0.0017 0,0.002 -1.49e-4,0.0026 -4.33e-4,0.01017 -0.002,0.01758 -8.43e-4,0.0041 -0.0016,0.0072 -0.002,0.01172 -1.99e-4,0.0022 -1.98e-4,0.0053 0,0.0078 9.9e-5,0.0013 -3.15e-4,0.0025 0,0.0039 3.15e-4,0.0014 0.0017,0.0034 0.002,0.0039 0.01135,0.0251 0.03372,0.04583 0.0625,0.05664 0.01487,0.0056 0.02958,0.0074 0.04297,0.0078 0.01266,3.7e-4 0.02431,-8.38e-4 0.0332,-0.0039 5.55e-4,4.6e-5 -0.0042,-0.0021 -0.0039,-0.002 0,0 -0.002,-0.002 -0.002,-0.002 0,0 -0.002,-0.002 -0.002,-0.002 z m 0.01563,0.0332 c 0.0011,8.1e-5 0.0029,-9.4e-5 0.0039,0 0.0049,4.73e-4 0.01045,9.48e-4 0.01953,0.0039 0.02586,0.0083 0.04872,0.02164 0.05859,0.03125 0.0097,0.0095 0.0091,0.01346 0.0098,0.02539 -0.0041,7.91e-4 -0.0079,0.0022 -0.01563,0.002 -0.01056,-3.09e-4 -0.02225,-0.0017 -0.0332,-0.0059 -0.02286,-0.0086 -0.03962,-0.02302 -0.04687,-0.03906 1.97e-4,-0.0022 0.0012,-0.006 0.002,-0.0098 4.53e-4,-0.0022 0.0014,-0.0054 0.002,-0.0078 z"
         id="path944" />
    </g>
  </g>
</svg>
