<?xml version="1.0" encoding="UTF-8" standalone="no"?>
<!-- Created with Inkscape (http://www.inkscape.org/) -->

<svg
   width="100"
   height="100"
   viewBox="0 0 26.458333 26.458334"
   version="1.1"
   id="svg127350"
   inkscape:export-filename="C:\Users\Agathe\Desktop\commerces.png"
   inkscape:export-xdpi="200"
   inkscape:export-ydpi="200"
   inkscape:version="1.1 (c68e22c387, 2021-05-23)"
   sodipodi:docname="FTNE_MAT_SOURCE_2EN1_white.svg"
   xmlns:inkscape="http://www.inkscape.org/namespaces/inkscape"
   xmlns:sodipodi="http://sodipodi.sourceforge.net/DTD/sodipodi-0.dtd"
   xmlns="http://www.w3.org/2000/svg"
   xmlns:svg="http://www.w3.org/2000/svg">
  <sodipodi:namedview
     id="namedview127352"
     pagecolor="#ffffff"
     bordercolor="#666666"
     borderopacity="1.0"
     inkscape:pageshadow="2"
     inkscape:pageopacity="0"
     inkscape:pagecheckerboard="0"
     inkscape:document-units="mm"
     showgrid="false"
     units="px"
     inkscape:zoom="5.9722783"
     inkscape:cx="54.250653"
     inkscape:cy="71.748164"
     inkscape:window-width="2400"
     inkscape:window-height="1271"
     inkscape:window-x="2391"
     inkscape:window-y="-9"
     inkscape:window-maximized="1"
     inkscape:current-layer="layer1" />
  <defs
     id="defs127347" />
  <g
     inkscape:label="Calque 1"
     inkscape:groupmode="layer"
     id="layer1">
    <g
       id="g1802"
       transform="matrix(0.07438094,0,0,0.07438094,2.9835723,1.1198087)"
       style="fill:#ffffff">
      <g
         id="b"
         style="fill:#ffffff">
        <path
           style="color:#000000;fill:#ffffff;stroke-linecap:round;stroke-linejoin:round;-inkscape-stroke:none"
           d="m 137.5293,57.789062 c -0.26474,0 -0.47852,0.215728 -0.47852,0.480469 0,0.264741 0.21378,0.480469 0.47852,0.480469 0.26474,0 0.48047,-0.215728 0.48047,-0.480469 0,-0.264741 -0.21573,-0.480469 -0.48047,-0.480469 z m 0,0.06055 c 0.23231,0 0.41992,0.187608 0.41992,0.419922 0,0.232315 -0.18761,0.419922 -0.41992,0.419922 -0.23232,0 -0.41993,-0.187607 -0.41993,-0.419922 0,-0.232314 0.18761,-0.419922 0.41993,-0.419922 z"
           id="circle6" />
        <path
           style="color:#000000;fill:#ffffff;stroke-linecap:round;stroke-linejoin:round;-inkscape-stroke:none"
           d="m 137.5293,56.320312 c -1.05919,0 -1.94922,0.890032 -1.94922,1.949219 0,1.059187 0.89003,1.951172 1.94922,1.951172 1.05918,0 1.95117,-0.891985 1.95117,-1.951172 0,-1.059187 -0.89199,-1.949218 -1.95117,-1.949219 z m 0,0.900391 c 0.56213,0 1.05078,0.486697 1.05078,1.048828 0,0.562132 -0.48865,1.050781 -1.05078,1.050781 -0.56213,0 -1.04883,-0.488649 -1.04883,-1.050781 0,-0.562131 0.4867,-1.048828 1.04883,-1.048828 z"
           id="circle8" />
      </g>
      <g
         id="c"
         style="fill:#ffffff">
        <path
           style="color:#000000;fill:#ffffff;stroke-linecap:round;stroke-linejoin:round;-inkscape-stroke:none"
           d="m 137.5293,61.779297 c -0.26474,0 -0.47852,0.215728 -0.47852,0.480469 0,0.264741 0.21378,0.480468 0.47852,0.480468 0.26474,0 0.48047,-0.215727 0.48047,-0.480468 0,-0.264741 -0.21573,-0.480469 -0.48047,-0.480469 z m 0,0.06055 c 0.23231,0 0.41992,0.187607 0.41992,0.419922 0,0.232314 -0.18761,0.419921 -0.41992,0.419921 -0.23232,0 -0.41993,-0.187607 -0.41993,-0.419921 0,-0.232315 0.18761,-0.419922 0.41993,-0.419922 z"
           id="circle11" />
        <path
           style="color:#000000;fill:#ffffff;stroke-linecap:round;stroke-linejoin:round;-inkscape-stroke:none"
           d="m 137.5293,60.310547 c -1.05919,0 -1.94922,0.890031 -1.94922,1.949219 0,1.059187 0.89003,1.951171 1.94922,1.951171 1.05918,0 1.95117,-0.891984 1.95117,-1.951171 0,-1.059188 -0.89199,-1.949219 -1.95117,-1.949219 z m 0,0.90039 c 0.56213,0 1.05078,0.486697 1.05078,1.048829 0,0.562131 -0.48865,1.050781 -1.05078,1.050781 -0.56213,0 -1.04883,-0.48865 -1.04883,-1.050781 0,-0.562132 0.4867,-1.048828 1.04883,-1.048829 z"
           id="circle13" />
      </g>
      <g
         id="d"
         style="fill:#ffffff">
        <path
           style="color:#000000;fill:#ffffff;stroke-linecap:round;stroke-linejoin:round;-inkscape-stroke:none"
           d="m 137.5293,65.769531 c -0.26474,0 -0.47852,0.215728 -0.47852,0.480469 0,0.264741 0.21378,0.480469 0.47852,0.480469 0.26474,0 0.48047,-0.215728 0.48047,-0.480469 0,-0.264741 -0.21573,-0.480469 -0.48047,-0.480469 z m 0,0.06055 c 0.23231,0 0.41992,0.187607 0.41992,0.419922 0,0.232315 -0.18761,0.419922 -0.41992,0.419922 -0.23232,0 -0.41993,-0.187607 -0.41993,-0.419922 0,-0.232315 0.18761,-0.419922 0.41993,-0.419922 z"
           id="circle16" />
        <path
           style="color:#000000;fill:#ffffff;stroke-linecap:round;stroke-linejoin:round;-inkscape-stroke:none"
           d="m 137.5293,64.300781 c -1.05919,0 -1.94922,0.890032 -1.94922,1.949219 0,1.059187 0.89003,1.949219 1.94922,1.949219 1.05918,0 1.95117,-0.890032 1.95117,-1.949219 0,-1.059187 -0.89199,-1.949219 -1.95117,-1.949219 z m 0,0.898438 c 0.56213,0 1.05078,0.48865 1.05078,1.050781 0,0.562131 -0.48865,1.050781 -1.05078,1.050781 -0.56213,0 -1.04883,-0.48865 -1.04883,-1.050781 0,-0.562131 0.4867,-1.050781 1.04883,-1.050781 z"
           id="circle18" />
      </g>
      <g
         id="e"
         style="fill:#ffffff">
        <path
           style="color:#000000;fill:#ffffff;stroke-linecap:round;stroke-linejoin:round;-inkscape-stroke:none"
           d="m 137.5293,69.759766 c -0.26474,0 -0.47852,0.215727 -0.47852,0.480468 0,0.264741 0.21378,0.480469 0.47852,0.480469 0.26474,0 0.48047,-0.215728 0.48047,-0.480469 0,-0.264741 -0.21573,-0.480468 -0.48047,-0.480468 z m 0,0.06055 c 0.23231,0 0.41992,0.187608 0.41992,0.419922 0,0.232315 -0.18761,0.419922 -0.41992,0.419922 -0.23232,0 -0.41993,-0.187607 -0.41993,-0.419922 0,-0.232314 0.18761,-0.419922 0.41993,-0.419922 z"
           id="circle21" />
        <path
           style="color:#000000;fill:#ffffff;stroke-linecap:round;stroke-linejoin:round;-inkscape-stroke:none"
           d="m 137.5293,68.289062 c -1.05919,0 -1.94922,0.891985 -1.94922,1.951172 0,1.059188 0.89003,1.949219 1.94922,1.949219 1.05918,0 1.95117,-0.890031 1.95117,-1.949219 0,-1.059187 -0.89199,-1.951172 -1.95117,-1.951172 z m 0,0.900391 c 0.56213,0 1.05078,0.48865 1.05078,1.050781 0,0.562132 -0.48865,1.048828 -1.05078,1.048828 -0.56213,10e-7 -1.04883,-0.486696 -1.04883,-1.048828 0,-0.562131 0.4867,-1.050781 1.04883,-1.050781 z"
           id="circle23" />
      </g>
      <g
         id="f"
         style="fill:#ffffff">
        <path
           style="color:#000000;fill:#ffffff;stroke-linecap:round;stroke-linejoin:round;-inkscape-stroke:none"
           d="m 125.96094,225.81055 a 0.030003,0.030003 0 0 0 -0.0312,0.0293 v 0.40039 a 0.030003,0.030003 0 0 0 0.0312,0.0293 h 23.13867 a 0.030003,0.030003 0 0 0 0.0312,-0.0293 v -0.40039 a 0.030003,0.030003 0 0 0 -0.0312,-0.0293 z m 0.0293,0.0586 h 23.08008 v 0.3418 h -23.08008 z"
           id="rect26" />
        <path
           style="color:#000000;fill:#ffffff;stroke-linecap:round;stroke-linejoin:round;-inkscape-stroke:none"
           d="m 125.96094,224.33984 a 1.50015,1.50015 0 0 0 -1.5,1.5 v 0.40039 a 1.50015,1.50015 0 0 0 1.5,1.5 h 23.13867 a 1.50015,1.50015 0 0 0 1.5,-1.5 v -0.40039 a 1.50015,1.50015 0 0 0 -1.5,-1.5 z"
           id="rect28" />
      </g>
      <g
         id="g"
         style="fill:#ffffff">
        <path
           style="color:#000000;fill:#ffffff;stroke-linecap:round;stroke-linejoin:round;-inkscape-stroke:none"
           d="m 125.96094,225.81055 a 0.030003,0.030003 0 0 0 -0.0312,0.0293 v 0.40039 a 0.030003,0.030003 0 0 0 0.0312,0.0293 h 23.13867 a 0.030003,0.030003 0 0 0 0.0312,-0.0293 v -0.40039 a 0.030003,0.030003 0 0 0 -0.0312,-0.0293 z m 0.0293,0.0586 h 23.08008 v 0.3418 h -23.08008 z"
           id="rect31" />
        <path
           style="color:#000000;fill:#ffffff;stroke-linecap:round;stroke-linejoin:round;-inkscape-stroke:none"
           d="m 125.96094,224.33984 a 1.50015,1.50015 0 0 0 -1.5,1.5 v 0.40039 a 1.50015,1.50015 0 0 0 1.5,1.5 h 23.13867 a 1.50015,1.50015 0 0 0 1.5,-1.5 v -0.40039 a 1.50015,1.50015 0 0 0 -1.5,-1.5 z"
           id="rect33" />
      </g>
      <g
         id="h"
         style="fill:#ffffff">
        <g
           id="g40"
           style="fill:#ffffff">
          <path
             style="color:#000000;fill:#ffffff;stroke-linecap:round;stroke-linejoin:round;-inkscape-stroke:none"
             d="m 146.26953,43.080078 a 0.03,0.03 0 0 0 -0.0293,0.0293 V 164.08008 a 0.03,0.03 0 0 0 0.0293,0.0293 0.03,0.03 0 0 0 0.0312,-0.0293 V 43.109375 a 0.03,0.03 0 0 0 -0.0312,-0.0293 z"
             id="line36" />
          <path
             style="color:#000000;fill:#ffffff;stroke-linecap:round;stroke-linejoin:round;-inkscape-stroke:none"
             d="m 146.26953,171.31055 a 0.03,0.03 0 0 0 -0.0293,0.0293 v 54.90039 a 0.03,0.03 0 0 0 0.0293,0.0293 0.03,0.03 0 0 0 0.0312,-0.0293 v -54.90039 a 0.03,0.03 0 0 0 -0.0312,-0.0293 z"
             id="line38" />
        </g>
        <g
           id="g46"
           style="fill:#ffffff">
          <path
             style="color:#000000;fill:#ffffff;stroke-linecap:round;stroke-linejoin:round;-inkscape-stroke:none"
             d="m 146.26953,41.609375 a 1.5,1.5 0 0 0 -1.5,1.5 V 164.08008 a 1.5,1.5 0 0 0 1.5,1.5 1.5,1.5 0 0 0 1.5,-1.5 V 43.109375 a 1.5,1.5 0 0 0 -1.5,-1.5 z"
             id="line42" />
          <path
             style="color:#000000;fill:#ffffff;stroke-linecap:round;stroke-linejoin:round;-inkscape-stroke:none"
             d="m 146.26953,169.83984 a 1.5,1.5 0 0 0 -1.5,1.5 v 54.90039 a 1.5,1.5 0 0 0 1.5,1.5 1.5,1.5 0 0 0 1.5,-1.5 v -54.90039 a 1.5,1.5 0 0 0 -1.5,-1.5 z"
             id="line44" />
        </g>
      </g>
      <g
         id="i"
         style="fill:#ffffff">
        <g
           id="g53"
           style="fill:#ffffff">
          <path
             style="color:#000000;fill:#ffffff;stroke-linecap:round;stroke-linejoin:round;-inkscape-stroke:none"
             d="m 128.78906,45.470703 a 0.03,0.03 0 0 0 -0.0293,0.0293 v 89.509767 a 0.03,0.03 0 0 0 0.0293,0.0293 0.03,0.03 0 0 0 0.0312,-0.0293 V 45.5 a 0.03,0.03 0 0 0 -0.0312,-0.0293 z"
             id="line49" />
          <path
             style="color:#000000;fill:#ffffff;stroke-linecap:round;stroke-linejoin:round;-inkscape-stroke:none"
             d="m 128.78906,142.21094 a 0.03,0.03 0 0 0 -0.0293,0.0293 v 84 a 0.03,0.03 0 0 0 0.0293,0.0293 0.03,0.03 0 0 0 0.0312,-0.0293 v -84 a 0.03,0.03 0 0 0 -0.0312,-0.0293 z"
             id="line51" />
        </g>
        <g
           id="g59"
           style="fill:#ffffff">
          <path
             style="color:#000000;fill:#ffffff;stroke-linecap:round;stroke-linejoin:round;-inkscape-stroke:none"
             d="m 128.78906,44 a 1.5,1.5 0 0 0 -1.5,1.5 v 89.50977 a 1.5,1.5 0 0 0 1.5,1.5 1.5,1.5 0 0 0 1.5,-1.5 V 45.5 a 1.5,1.5 0 0 0 -1.5,-1.5 z"
             id="line55" />
          <path
             style="color:#000000;fill:#ffffff;stroke-linecap:round;stroke-linejoin:round;-inkscape-stroke:none"
             d="m 128.78906,140.74023 a 1.5,1.5 0 0 0 -1.5,1.5 v 84 a 1.5,1.5 0 0 0 1.5,1.5 1.5,1.5 0 0 0 1.5,-1.5 v -84 a 1.5,1.5 0 0 0 -1.5,-1.5 z"
             id="line57" />
        </g>
      </g>
      <g
         id="j"
         style="fill:#ffffff">
        <path
           style="color:#000000;fill:#ffffff;stroke-linecap:round;stroke-linejoin:round;-inkscape-stroke:none"
           d="m 137.5293,173.15039 c -4.42619,0 -8.00977,3.58358 -8.00977,8.00977 a 0.03,0.03 0 0 0 0.0312,0.0293 0.03,0.03 0 0 0 0.0293,-0.0293 c 0,-4.39381 3.55541,-7.94922 7.94922,-7.94922 4.3938,0 7.95117,3.55541 7.95117,7.94922 a 0.03,0.03 0 0 0 0.0293,0.0293 0.03,0.03 0 0 0 0.0293,-0.0293 c 0,-4.42619 -3.58358,-8.00977 -8.00976,-8.00977 z"
           id="path62-3" />
        <path
           style="color:#000000;fill:#ffffff;stroke-linecap:round;stroke-linejoin:round;-inkscape-stroke:none"
           d="m 137.5293,171.67969 c -5.21952,0 -9.47852,4.26095 -9.47852,9.48047 a 1.5,1.5 0 0 0 1.5,1.5 1.5,1.5 0 0 0 1.5,-1.5 c 0,-3.60048 2.87804,-6.48047 6.47852,-6.48047 3.60047,0 6.48047,2.87999 6.48047,6.48047 a 1.5,1.5 0 0 0 1.5,1.5 1.5,1.5 0 0 0 1.5,-1.5 c 0,-5.21952 -4.26095,-9.48047 -9.48047,-9.48047 z"
           id="path64-7" />
      </g>
      <g
         id="k"
         style="fill:#ffffff">
        <path
           style="color:#000000;fill:#ffffff;stroke-linecap:round;stroke-linejoin:round;-inkscape-stroke:none"
           d="m 129.55078,213.05078 a 0.03,0.03 0 0 0 -0.0312,0.0293 c 0,4.42618 3.58358,8.00976 8.00977,8.00976 4.42618,0 8.00976,-3.58358 8.00976,-8.00976 a 0.03,0.03 0 0 0 -0.0293,-0.0293 0.03,0.03 0 0 0 -0.0293,0.0293 c 0,4.3938 -3.55737,7.94922 -7.95117,7.94922 -4.39381,0 -7.94922,-3.55542 -7.94922,-7.94922 a 0.03,0.03 0 0 0 -0.0293,-0.0293 z"
           id="path67" />
        <path
           style="color:#000000;fill:#ffffff;stroke-linecap:round;stroke-linejoin:round;-inkscape-stroke:none"
           d="m 129.55078,211.58008 a 1.5,1.5 0 0 0 -1.5,1.5 c 0,5.21952 4.259,9.48047 9.47852,9.48047 5.21952,0 9.48047,-4.26095 9.48047,-9.48047 a 1.5,1.5 0 0 0 -1.5,-1.5 1.5,1.5 0 0 0 -1.5,1.5 c 0,3.60047 -2.88,6.48047 -6.48047,6.48047 -3.60048,0 -6.47852,-2.88 -6.47852,-6.48047 a 1.5,1.5 0 0 0 -1.5,-1.5 z"
           id="path69" />
      </g>
      <g
         id="l"
         style="fill:#ffffff">
        <path
           style="color:#000000;fill:#ffffff;stroke-linecap:round;stroke-linejoin:round;-inkscape-stroke:none"
           d="m 129.55078,181.13086 a 0.03,0.03 0 0 0 -0.0312,0.0293 v 31.91992 a 0.03,0.03 0 0 0 0.0312,0.0293 0.03,0.03 0 0 0 0.0293,-0.0293 v -31.91992 a 0.03,0.03 0 0 0 -0.0293,-0.0293 z"
           id="line72" />
        <path
           style="color:#000000;fill:#ffffff;stroke-linecap:round;stroke-linejoin:round;-inkscape-stroke:none"
           d="m 129.55078,179.66016 a 1.5,1.5 0 0 0 -1.5,1.5 v 31.91992 a 1.5,1.5 0 0 0 1.5,1.5 1.5,1.5 0 0 0 1.5,-1.5 v -31.91992 a 1.5,1.5 0 0 0 -1.5,-1.5 z"
           id="line74" />
      </g>
      <g
         id="m"
         style="fill:#ffffff">
        <path
           style="color:#000000;fill:#ffffff;stroke-linecap:round;stroke-linejoin:round;-inkscape-stroke:none"
           d="m 145.50977,181.13086 a 0.03,0.03 0 0 0 -0.0293,0.0293 v 31.91992 a 0.03,0.03 0 0 0 0.0293,0.0293 0.03,0.03 0 0 0 0.0293,-0.0293 v -31.91992 a 0.03,0.03 0 0 0 -0.0293,-0.0293 z"
           id="line77" />
        <path
           style="color:#000000;fill:#ffffff;stroke-linecap:round;stroke-linejoin:round;-inkscape-stroke:none"
           d="m 145.50977,179.66016 a 1.5,1.5 0 0 0 -1.5,1.5 v 31.91992 a 1.5,1.5 0 0 0 1.5,1.5 1.5,1.5 0 0 0 1.5,-1.5 v -31.91992 a 1.5,1.5 0 0 0 -1.5,-1.5 z"
           id="line79" />
      </g>
      <g
         id="n"
         style="fill:#ffffff">
        <path
           style="color:#000000;fill:#ffffff;stroke-linecap:round;stroke-linejoin:round;-inkscape-stroke:none"
           d="m 137.5293,193.89062 c -2.44613,10e-6 -4.41993,1.9738 -4.41993,4.41993 a 0.03,0.03 0 0 0 0.0312,0.0293 0.03,0.03 0 0 0 0.0293,-0.0293 c 0,-2.41387 1.94551,-4.36133 4.35938,-4.36133 2.41378,0 4.36132,1.95753 4.36132,4.36133 a 0.03,0.03 0 0 0 0.0293,0.0293 0.03,0.03 0 0 0 0.0293,-0.0293 c 0,-2.4362 -1.97371,-4.41993 -4.41992,-4.41993 z"
           id="path82-4" />
        <path
           style="color:#000000;fill:#ffffff;stroke-linecap:round;stroke-linejoin:round;-inkscape-stroke:none"
           d="m 137.5293,192.41992 c -3.23658,0 -5.88868,2.65405 -5.88868,5.89063 a 1.5,1.5 0 0 0 1.5,1.5 1.5,1.5 0 0 0 1.5,-1.5 c 0,-1.62342 1.26526,-2.89063 2.88868,-2.89063 1.6193,0 2.89062,1.28055 2.89062,2.89063 a 1.5,1.5 0 0 0 1.5,1.5 1.5,1.5 0 0 0 1.5,-1.5 c 0,-3.22992 -2.64993,-5.89063 -5.89062,-5.89063 z"
           id="path84-8" />
      </g>
      <g
         id="o"
         style="fill:#ffffff">
        <path
           style="color:#000000;fill:#ffffff;stroke-linecap:round;stroke-linejoin:round;-inkscape-stroke:none"
           d="m 133.14062,198.2793 a 0.03,0.03 0 0 0 -0.0312,0.0312 v 15.55859 a 0.030003,0.030003 0 0 0 0.0312,0.0312 h 8.7793 a 0.03,0.03 0 0 0 0.0293,-0.0312 0.03,0.03 0 0 0 -0.0293,-0.0293 h -8.75 V 198.3105 a 0.03,0.03 0 0 0 -0.0293,-0.0312 z"
           id="polyline87" />
        <path
           style="color:#000000;fill:#ffffff;stroke-linecap:round;stroke-linejoin:round;-inkscape-stroke:none"
           d="m 133.14062,196.81055 a 1.5,1.5 0 0 0 -1.5,1.5 v 15.55859 a 1.50015,1.50015 0 0 0 1.5,1.5 h 8.7793 a 1.5,1.5 0 0 0 1.5,-1.5 1.5,1.5 0 0 0 -1.5,-1.5 h -7.2793 v -14.05859 a 1.5,1.5 0 0 0 -1.5,-1.5 z"
           id="polyline89" />
      </g>
      <g
         id="p"
         style="fill:#ffffff">
        <path
           style="color:#000000;fill:#ffffff;stroke-linecap:round;stroke-linejoin:round;-inkscape-stroke:none"
           d="m 141.91992,198.2793 a 0.03,0.03 0 0 0 -0.0293,0.0312 v 15.55859 a 0.03,0.03 0 0 0 0.0293,0.0312 0.03,0.03 0 0 0 0.0293,-0.0312 V 198.3105 a 0.03,0.03 0 0 0 -0.0293,-0.0312 z"
           id="line92" />
        <path
           style="color:#000000;fill:#ffffff;stroke-linecap:round;stroke-linejoin:round;-inkscape-stroke:none"
           d="m 141.91992,196.81055 a 1.5,1.5 0 0 0 -1.5,1.5 v 15.55859 a 1.5,1.5 0 0 0 1.5,1.5 1.5,1.5 0 0 0 1.5,-1.5 v -15.55859 a 1.5,1.5 0 0 0 -1.5,-1.5 z"
           id="line94" />
      </g>
      <g
         id="q"
         style="fill:#ffffff">
        <path
           style="color:#000000;fill:#ffffff;stroke-linecap:round;stroke-linejoin:round;-inkscape-stroke:none"
           d="m 137.5293,188.69922 c -0.89987,0 -1.62891,0.73099 -1.62891,1.63086 0,0.89987 0.72904,1.63086 1.62891,1.63086 0.89986,0 1.63086,-0.73099 1.63086,-1.63086 0,-0.89987 -0.731,-1.63086 -1.63086,-1.63086 z m 0,0.0606 c 0.86744,0 1.57031,0.70287 1.57031,1.57031 0,0.86744 -0.70287,1.57031 -1.57031,1.57031 -0.86744,0 -1.56836,-0.70287 -1.56836,-1.57031 0,-0.86744 0.70092,-1.57031 1.56836,-1.57031 z"
           id="circle97" />
        <path
           style="color:#000000;fill:#ffffff;stroke-linecap:round;stroke-linejoin:round;-inkscape-stroke:none"
           d="m 137.5293,187.23047 c -1.69432,0 -3.09961,1.40529 -3.09961,3.09961 0,1.69431 1.40529,3.09961 3.09961,3.09961 1.69431,0 3.10156,-1.4053 3.10156,-3.09961 0,-1.69432 -1.40725,-3.09961 -3.10156,-3.09961 z m 0,3 c 0.073,0 0.10156,0.0266 0.10156,0.0996 0,0.073 -0.0286,0.0996 -0.10156,0.0996 -0.073,0 -0.0996,-0.0266 -0.0996,-0.0996 0,-0.073 0.0266,-0.0996 0.0996,-0.0996 z"
           id="circle99" />
      </g>
      <g
         id="r"
         style="fill:#ffffff">
        <path
           style="color:#000000;fill:#ffffff;stroke-linecap:round;stroke-linejoin:round;-inkscape-stroke:none"
           d="m 137.5293,177.32031 c -0.45804,0 -0.83008,0.37204 -0.83008,0.83008 0,0.45804 0.37204,0.83008 0.83008,0.83008 0.45804,0 0.83007,-0.37204 0.83007,-0.83008 0,-0.45804 -0.37203,-0.83008 -0.83007,-0.83008 z m 0,0.0606 c 0.42561,0 0.77148,0.34392 0.77148,0.76953 0,0.42561 -0.34587,0.76953 -0.77148,0.76953 -0.42562,0 -0.76953,-0.34392 -0.76953,-0.76953 0,-0.42561 0.34391,-0.76953 0.76953,-0.76953 z"
           id="circle102" />
        <path
           style="color:#000000;fill:#ffffff;stroke-linecap:round;stroke-linejoin:round;-inkscape-stroke:none"
           d="m 137.5293,175.84961 c -1.25249,0 -2.29883,1.04829 -2.29883,2.30078 0,1.25249 1.04634,2.29883 2.29883,2.29883 1.25248,0 2.30078,-1.04634 2.30078,-2.29883 0,-1.25249 -1.0483,-2.30078 -2.30078,-2.30078 z m 0,1.59961 c 0.36883,0 0.70117,0.33234 0.70117,0.70117 0,0.36883 -0.33234,0.69922 -0.70117,0.69922 -0.36884,0 -0.69922,-0.33039 -0.69922,-0.69922 0,-0.36883 0.33038,-0.70117 0.69922,-0.70117 z"
           id="circle104" />
      </g>
      <g
         id="s"
         style="fill:#ffffff">
        <path
           style="color:#000000;fill:#ffffff;stroke-linecap:round;stroke-linejoin:round;-inkscape-stroke:none"
           d="m 173.40039,164.00977 -27.13086,0.40039 a 0.03,0.03 0 0 0 -0.0293,0.0312 0.03,0.03 0 0 0 0.0293,0.0293 l 27.13086,-0.40039 c 0.20364,0 0.36914,0.16551 0.36914,0.36914 v 4.80078 c 0,0.19381 -0.15788,0.35992 -0.35156,0.36914 l -27.15039,1.58008 a 0.03,0.03 0 0 0 -0.0274,0.0332 0.03,0.03 0 0 0 0.0312,0.0273 l 27.15039,-1.58008 c 0.22632,-0.0108 0.40821,-0.2035 0.40821,-0.42969 v -4.80078 c 0,-0.23636 -0.19333,-0.42968 -0.42969,-0.42968 z"
           id="path107" />
        <path
           style="color:#000000;fill:#ffffff;stroke-linecap:round;stroke-linejoin:round;-inkscape-stroke:none"
           d="m 173.40039,162.53906 a 1.50015,1.50015 0 0 0 -0.0234,0.002 l -27.1289,0.39843 a 1.5,1.5 0 0 0 -1.47852,1.52344 1.5,1.5 0 0 0 1.52344,1.47656 l 26.00781,-0.38476 v 2.64843 l -26.11719,1.51954 a 1.5,1.5 0 0 0 -1.41015,1.58398 1.5,1.5 0 0 0 1.58398,1.41016 l 27.13672,-1.58008 c 1.02444,-0.0502 1.80664,-0.87789 1.80664,-1.89649 v -4.80078 c 0,-1.03818 -0.86221,-1.90039 -1.90039,-1.90039 z"
           id="path109" />
      </g>
      <g
         id="t"
         style="fill:#ffffff">
        <path
           style="color:#000000;fill:#ffffff;stroke-linecap:round;stroke-linejoin:round;-inkscape-stroke:none"
           d="m 173.80078,165.25 a 0.030003,0.030003 0 0 0 -0.0312,0.0293 v 3.1914 a 0.030003,0.030003 0 0 0 0.0312,0.0293 h 0.39844 a 0.030003,0.030003 0 0 0 0.0312,-0.0293 v -3.1914 a 0.030003,0.030003 0 0 0 -0.0312,-0.0293 z m 0.0293,0.0606 h 0.33984 v 3.1289 h -0.33984 z"
           id="rect112" />
        <path
           style="color:#000000;fill:#ffffff;stroke-linecap:round;stroke-linejoin:round;-inkscape-stroke:none"
           d="m 173.80078,163.7793 a 1.50015,1.50015 0 0 0 -1.5,1.5 v 3.1914 a 1.50015,1.50015 0 0 0 1.5,1.5 h 0.39844 a 1.50015,1.50015 0 0 0 1.5,-1.5 v -3.1914 a 1.50015,1.50015 0 0 0 -1.5,-1.5 z"
           id="rect114" />
      </g>
      <g
         id="u"
         style="fill:#ffffff">
        <path
           style="color:#000000;fill:#ffffff;stroke-linecap:round;stroke-linejoin:round;-inkscape-stroke:none"
           d="m 174.19922,165.65039 a 0.030003,0.030003 0 0 0 -0.0293,0.0293 v 2.39062 a 0.030003,0.030003 0 0 0 0.0293,0.0293 H 175 a 0.030003,0.030003 0 0 0 0.0293,-0.0293 v -2.39062 A 0.030003,0.030003 0 0 0 175,165.65039 Z m 0.0312,0.0606 h 0.74023 v 2.32812 h -0.74023 z"
           id="rect117" />
        <path
           style="color:#000000;fill:#ffffff;stroke-linecap:round;stroke-linejoin:round;-inkscape-stroke:none"
           d="m 174.19922,164.17969 a 1.50015,1.50015 0 0 0 -1.5,1.5 v 2.39062 a 1.50015,1.50015 0 0 0 1.5,1.5 H 175 a 1.50015,1.50015 0 0 0 1.5,-1.5 v -2.39062 a 1.50015,1.50015 0 0 0 -1.5,-1.5 z"
           id="rect119" />
      </g>
      <g
         id="v"
         style="fill:#ffffff">
        <path
           style="color:#000000;fill:#ffffff;stroke-linecap:round;stroke-linejoin:round;-inkscape-stroke:none"
           d="m 100.85938,135.65039 a 0.030003,0.030003 0 0 0 -0.0293,0.0293 v 3.18945 a 0.030003,0.030003 0 0 0 0.0293,0.0312 h 0.40039 a 0.030003,0.030003 0 0 0 0.0293,-0.0312 v -3.18945 a 0.030003,0.030003 0 0 0 -0.0293,-0.0293 z m 0.0312,0.0606 h 0.33984 v 3.1289 h -0.33984 z"
           id="rect122" />
        <path
           style="color:#000000;fill:#ffffff;stroke-linecap:round;stroke-linejoin:round;-inkscape-stroke:none"
           d="m 100.85938,134.17969 a 1.50015,1.50015 0 0 0 -1.500005,1.5 v 3.18945 a 1.50015,1.50015 0 0 0 1.500005,1.5 h 0.40039 a 1.50015,1.50015 0 0 0 1.5,-1.5 v -3.18945 a 1.50015,1.50015 0 0 0 -1.5,-1.5 z"
           id="rect124" />
      </g>
      <g
         id="w"
         style="fill:#ffffff">
        <path
           style="color:#000000;fill:#ffffff;stroke-linecap:round;stroke-linejoin:round;-inkscape-stroke:none"
           d="m 100.06055,136.05078 a 0.030003,0.030003 0 0 0 -0.0312,0.0293 v 2.39062 a 0.030003,0.030003 0 0 0 0.0312,0.0293 h 0.79883 a 0.030003,0.030003 0 0 0 0.0312,-0.0293 v -2.39062 a 0.030003,0.030003 0 0 0 -0.0312,-0.0293 z m 0.0293,0.0586 h 0.74024 v 2.33008 h -0.74024 z"
           id="rect127" />
        <path
           style="color:#000000;fill:#ffffff;stroke-linecap:round;stroke-linejoin:round;-inkscape-stroke:none"
           d="m 100.06055,134.58008 a 1.50015,1.50015 0 0 0 -1.500003,1.5 v 2.39062 a 1.50015,1.50015 0 0 0 1.500003,1.5 h 0.79883 a 1.50015,1.50015 0 0 0 1.5,-1.5 v -2.39062 a 1.50015,1.50015 0 0 0 -1.5,-1.5 z"
           id="rect129" />
      </g>
      <g
         id="x"
         style="fill:#ffffff">
        <path
           style="color:#000000;fill:#ffffff;stroke-linecap:round;stroke-linejoin:round;-inkscape-stroke:none"
           d="m 137.5293,142.03906 c -2.66615,0 -4.81836,2.15417 -4.81836,4.82031 a 0.03,0.03 0 0 0 0.0293,0.0312 0.03,0.03 0 0 0 0.0293,-0.0312 c 0,-2.63384 2.12592,-4.75976 4.75977,-4.75976 2.63377,0 4.75976,2.13598 4.75976,4.75976 a 0.03,0.03 0 0 0 0.0312,0.0312 0.03,0.03 0 0 0 0.0293,-0.0312 c 0,-2.6562 -2.15409,-4.82031 -4.82031,-4.82031 z"
           id="path132-4" />
        <path
           style="color:#000000;fill:#ffffff;stroke-linecap:round;stroke-linejoin:round;-inkscape-stroke:none"
           d="m 137.5293,140.57031 c -3.45755,0 -6.28907,2.83152 -6.28907,6.28906 a 1.5,1.5 0 0 0 1.5,1.5 1.5,1.5 0 0 0 1.5,-1.5 c 0,-1.84245 1.44662,-3.28906 3.28907,-3.28906 1.83867,0 3.29101,1.45967 3.29101,3.28906 a 1.5,1.5 0 0 0 1.5,1.5 1.5,1.5 0 0 0 1.5,-1.5 c 0,-3.4506 -2.8297,-6.28906 -6.29101,-6.28906 z"
           id="path134-2" />
      </g>
      <g
         id="y"
         style="fill:#ffffff">
        <path
           style="color:#000000;fill:#ffffff;stroke-linecap:round;stroke-linejoin:round;-inkscape-stroke:none"
           d="m 132.74023,159.18945 a 0.03,0.03 0 0 0 -0.0293,0.0312 c 0,2.65621 2.15213,4.81836 4.81836,4.81836 2.66615,0 4.82031,-2.15221 4.82031,-4.81836 a 0.03,0.03 0 0 0 -0.0293,-0.0312 0.03,0.03 0 0 0 -0.0312,0.0312 c 0,2.63385 -2.12592,4.75977 -4.75976,4.75977 -2.63377,0 -4.75977,-2.13598 -4.75977,-4.75977 a 0.03,0.03 0 0 0 -0.0293,-0.0312 z"
           id="path137" />
        <path
           style="color:#000000;fill:#ffffff;stroke-linecap:round;stroke-linejoin:round;-inkscape-stroke:none"
           d="m 132.74023,157.7207 a 1.5,1.5 0 0 0 -1.5,1.5 c 0,3.45061 2.82775,6.28907 6.28907,6.28907 3.45754,0 6.29101,-2.83152 6.29101,-6.28907 a 1.5,1.5 0 0 0 -1.5,-1.5 1.5,1.5 0 0 0 -1.5,1.5 c 0,1.84245 -1.44856,3.28907 -3.29101,3.28907 -1.83868,0 -3.28907,-1.45967 -3.28907,-3.28907 a 1.5,1.5 0 0 0 -1.5,-1.5 z"
           id="path139" />
      </g>
      <g
         id="a`"
         style="fill:#ffffff">
        <path
           style="color:#000000;fill:#ffffff;stroke-linecap:round;stroke-linejoin:round;-inkscape-stroke:none"
           d="m 132.74023,146.83008 a 0.03,0.03 0 0 0 -0.0293,0.0293 v 12.36133 a 0.03,0.03 0 0 0 0.0293,0.0293 0.03,0.03 0 0 0 0.0293,-0.0293 v -12.36133 a 0.03,0.03 0 0 0 -0.0293,-0.0293 z"
           id="line142" />
        <path
           style="color:#000000;fill:#ffffff;stroke-linecap:round;stroke-linejoin:round;-inkscape-stroke:none"
           d="m 132.74023,145.35937 a 1.5,1.5 0 0 0 -1.5,1.5 v 12.36133 a 1.5,1.5 0 0 0 1.5,1.5 1.5,1.5 0 0 0 1.5,-1.5 v -12.36133 a 1.5,1.5 0 0 0 -1.5,-1.5 z"
           id="line144" />
      </g>
      <g
         id="aa"
         style="fill:#ffffff">
        <path
           style="color:#000000;fill:#ffffff;stroke-linecap:round;stroke-linejoin:round;-inkscape-stroke:none"
           d="m 142.32031,146.83008 a 0.03,0.03 0 0 0 -0.0312,0.0293 v 12.36133 a 0.03,0.03 0 0 0 0.0312,0.0293 0.03,0.03 0 0 0 0.0293,-0.0293 v -12.36133 a 0.03,0.03 0 0 0 -0.0293,-0.0293 z"
           id="line147" />
        <path
           style="color:#000000;fill:#ffffff;stroke-linecap:round;stroke-linejoin:round;-inkscape-stroke:none"
           d="m 142.32031,145.35937 a 1.5,1.5 0 0 0 -1.5,1.5 v 12.36133 a 1.5,1.5 0 0 0 1.5,1.5 1.5,1.5 0 0 0 1.5,-1.5 v -12.36133 a 1.5,1.5 0 0 0 -1.5,-1.5 z"
           id="line149" />
      </g>
      <g
         id="ab"
         style="fill:#ffffff">
        <path
           style="color:#000000;fill:#ffffff;stroke-linecap:round;stroke-linejoin:round;-inkscape-stroke:none"
           d="m 101.66016,134.43945 c -0.23637,0 -0.42969,0.19333 -0.42969,0.42969 v 4.80078 c 0,0.22619 0.18189,0.41891 0.4082,0.42969 l 27.15039,1.58008 a 0.03,0.03 0 0 0 0.0312,-0.0273 0.03,0.03 0 0 0 -0.0293,-0.0332 l -27.14844,-1.57812 a 0.030003,0.030003 0 0 0 -0.002,-0.002 c -0.19369,-0.009 -0.35157,-0.17533 -0.35157,-0.36914 v -4.80078 c 0,-0.20364 0.16746,-0.36914 0.3711,-0.36914 l 26.80859,0.40039 a 0.03,0.03 0 0 0 0.0312,-0.0293 0.03,0.03 0 0 0 -0.0293,-0.0312 z"
           id="path152-1" />
        <path
           style="color:#000000;fill:#ffffff;stroke-linecap:round;stroke-linejoin:round;-inkscape-stroke:none"
           d="m 101.66016,132.9707 c -1.03818,0 -1.900394,0.86026 -1.900394,1.89844 v 4.80078 c 0,1.01952 0.782774,1.84959 1.808594,1.89844 l 27.13476,1.58008 a 1.5,1.5 0 0 0 1.58399,-1.41211 1.5,1.5 0 0 0 -1.41016,-1.58399 l -26.11718,-1.51953 v -2.64453 l 25.6875,0.38086 a 1.5,1.5 0 0 0 1.52343,-1.47656 1.5,1.5 0 0 0 -1.47851,-1.52149 l -26.81055,-0.40039 a 1.50015,1.50015 0 0 0 -0.0215,0 z"
           id="path154-9" />
      </g>
      <g
         id="ac"
         style="fill:#ffffff">
        <path
           style="color:#000000;fill:#ffffff;stroke-linecap:round;stroke-linejoin:round;-inkscape-stroke:none"
           d="m 137.5293,52.650391 c -2.88617,0 -5.21875,2.332585 -5.21875,5.21875 a 0.03,0.03 0 0 0 0.0293,0.03125 0.03,0.03 0 0 0 0.0293,-0.03125 c 0,-2.85383 2.30633,-5.158204 5.16016,-5.158204 2.85376,0 5.16015,2.31443 5.16015,5.158204 a 0.03,0.03 0 0 0 0.0312,0.03125 0.03,0.03 0 0 0 0.0293,-0.03125 c 0,-2.876221 -2.33447,-5.21875 -5.2207,-5.21875 z"
           id="path157" />
        <path
           style="color:#000000;fill:#ffffff;stroke-linecap:round;stroke-linejoin:round;-inkscape-stroke:none"
           d="m 137.5293,51.179687 c -3.67836,0 -6.68946,3.011095 -6.68946,6.689454 a 1.5,1.5 0 0 0 1.5,1.5 1.5,1.5 0 0 0 1.5,-1.5 c 0,-2.061636 1.62782,-3.689453 3.68946,-3.689454 2.05815,0 3.6914,1.640644 3.6914,3.689454 a 1.5,1.5 0 0 0 1.5,1.5 1.5,1.5 0 0 0 1.5,-1.5 c 0,-3.671186 -3.00956,-6.689453 -6.6914,-6.689454 z"
           id="path159" />
      </g>
      <g
         id="ad"
         style="fill:#ffffff">
        <path
           style="color:#000000;fill:#ffffff;stroke-linecap:round;stroke-linejoin:round;-inkscape-stroke:none"
           d="m 132.33984,111.30078 a 0.03,0.03 0 0 0 -0.0293,0.0293 c 0,2.87622 2.33251,5.2207 5.21875,5.2207 2.88616,0 5.2207,-2.33454 5.2207,-5.2207 a 0.03,0.03 0 0 0 -0.0293,-0.0293 0.03,0.03 0 0 0 -0.0312,0.0293 c 0,2.85383 -2.30632,5.16015 -5.16015,5.16015 -2.85376,0 -5.16016,-2.31638 -5.16016,-5.16015 a 0.03,0.03 0 0 0 -0.0293,-0.0293 z"
           id="path162-7" />
        <path
           style="color:#000000;fill:#ffffff;stroke-linecap:round;stroke-linejoin:round;-inkscape-stroke:none"
           d="m 132.33984,109.83008 a 1.5,1.5 0 0 0 -1.5,1.5 c 0,3.67118 3.00761,6.68945 6.68946,6.68945 3.67836,0 6.6914,-3.01109 6.6914,-6.68945 a 1.5,1.5 0 0 0 -1.5,-1.5 1.5,1.5 0 0 0 -1.5,1.5 c 0,2.06163 -1.62977,3.68945 -3.6914,3.68945 -2.05815,0 -3.68946,-1.64064 -3.68946,-3.68945 a 1.5,1.5 0 0 0 -1.5,-1.5 z"
           id="path164-2" />
      </g>
      <g
         id="ae"
         style="fill:#ffffff">
        <path
           style="color:#000000;fill:#ffffff;stroke-linecap:round;stroke-linejoin:round;-inkscape-stroke:none"
           d="m 132.33984,57.839844 a 0.03,0.03 0 0 0 -0.0293,0.0293 v 53.460936 a 0.03,0.03 0 0 0 0.0293,0.0293 0.03,0.03 0 0 0 0.0293,-0.0293 V 57.869141 a 0.03,0.03 0 0 0 -0.0293,-0.0293 z"
           id="line167" />
        <path
           style="color:#000000;fill:#ffffff;stroke-linecap:round;stroke-linejoin:round;-inkscape-stroke:none"
           d="m 132.33984,56.369141 a 1.5,1.5 0 0 0 -1.5,1.5 v 53.460939 a 1.5,1.5 0 0 0 1.5,1.5 1.5,1.5 0 0 0 1.5,-1.5 V 57.869141 a 1.5,1.5 0 0 0 -1.5,-1.5 z"
           id="line169" />
      </g>
      <g
         id="af"
         style="fill:#ffffff">
        <path
           style="color:#000000;fill:#ffffff;stroke-linecap:round;stroke-linejoin:round;-inkscape-stroke:none"
           d="m 142.7207,57.839844 a 0.03,0.03 0 0 0 -0.0312,0.0293 v 53.460936 a 0.03,0.03 0 0 0 0.0312,0.0293 0.03,0.03 0 0 0 0.0293,-0.0293 V 57.869141 a 0.03,0.03 0 0 0 -0.0293,-0.0293 z"
           id="line172" />
        <path
           style="color:#000000;fill:#ffffff;stroke-linecap:round;stroke-linejoin:round;-inkscape-stroke:none"
           d="m 142.7207,56.369141 a 1.5,1.5 0 0 0 -1.5,1.5 v 53.460939 a 1.5,1.5 0 0 0 1.5,1.5 1.5,1.5 0 0 0 1.5,-1.5 V 57.869141 a 1.5,1.5 0 0 0 -1.5,-1.5 z"
           id="line174" />
      </g>
      <g
         id="ag"
         style="fill:#ffffff">
        <path
           style="color:#000000;fill:#ffffff;stroke-linecap:round;stroke-linejoin:round;-inkscape-stroke:none"
           d="m 137.5293,108.43945 c -0.89987,0 -1.62891,0.73099 -1.62891,1.63086 0,0.89987 0.72904,1.62891 1.62891,1.62891 0.89986,0 1.63086,-0.72904 1.63086,-1.62891 0,-0.89987 -0.731,-1.63086 -1.63086,-1.63086 z m 0,0.0606 c 0.86744,0 1.57031,0.70287 1.57031,1.57031 0,0.86744 -0.70287,1.57032 -1.57031,1.57032 -0.86744,0 -1.56836,-0.70288 -1.56836,-1.57032 0,-0.86744 0.70092,-1.57031 1.56836,-1.57031 z"
           id="circle177" />
        <path
           style="color:#000000;fill:#ffffff;stroke-linecap:round;stroke-linejoin:round;-inkscape-stroke:none"
           d="m 137.5293,106.9707 c -1.69432,0 -3.09961,1.4053 -3.09961,3.09961 0,1.69432 1.40529,3.09961 3.09961,3.09961 1.69431,0 3.10156,-1.40529 3.10156,-3.09961 0,-1.69431 -1.40725,-3.09961 -3.10156,-3.09961 z m 0,3 c 0.073,0 0.10156,0.0266 0.10156,0.0996 0,0.073 -0.0286,0.0996 -0.10156,0.0996 -0.073,0 -0.0996,-0.0266 -0.0996,-0.0996 0,-0.073 0.0266,-0.0996 0.0996,-0.0996 z"
           id="circle179" />
      </g>
      <g
         id="ah"
         style="fill:#ffffff">
        <path
           style="color:#000000;fill:#ffffff;stroke-linecap:round;stroke-linejoin:round;-inkscape-stroke:none"
           d="m 137.5293,53.849609 c -0.45804,0 -0.83008,0.372038 -0.83008,0.830078 0,0.458041 0.37204,0.830079 0.83008,0.830079 0.45804,0 0.83007,-0.372038 0.83007,-0.830079 0,-0.45804 -0.37203,-0.830078 -0.83007,-0.830078 z m 0,0.06055 c 0.42561,0 0.77148,0.343917 0.77148,0.769531 0,0.425615 -0.34587,0.769532 -0.77148,0.769532 -0.42562,0 -0.76953,-0.343917 -0.76953,-0.769532 0,-0.425614 0.34391,-0.769531 0.76953,-0.769531 z"
           id="circle182" />
        <path
           style="color:#000000;fill:#ffffff;stroke-linecap:round;stroke-linejoin:round;-inkscape-stroke:none"
           d="m 137.5293,52.380859 c -1.25249,0 -2.29883,1.046342 -2.29883,2.298828 0,1.252487 1.04634,2.300782 2.29883,2.300782 1.25248,0 2.30078,-1.048295 2.30078,-2.300782 0,-1.252486 -1.0483,-2.298828 -2.30078,-2.298828 z m 0,1.59961 c 0.36883,0 0.70117,0.330387 0.70117,0.699218 0,0.368832 -0.33234,0.701172 -0.70117,0.701172 -0.36884,0 -0.69922,-0.33234 -0.69922,-0.701172 0,-0.368831 0.33038,-0.699218 0.69922,-0.699218 z"
           id="circle184" />
      </g>
      <g
         id="ai"
         style="fill:#ffffff">
        <path
           style="color:#000000;fill:#ffffff;stroke-linecap:round;stroke-linejoin:round;-inkscape-stroke:none"
           d="m 146.26562,43.080078 -17.48046,2.390625 a 0.03,0.03 0 0 0 -0.0254,0.0332 0.03,0.03 0 0 0 0.0351,0.02539 l 17.47852,-2.388672 a 0.03,0.03 0 0 0 0.0254,-0.03516 0.03,0.03 0 0 0 -0.0332,-0.02539 z"
           id="line187" />
        <path
           style="color:#000000;fill:#ffffff;stroke-linecap:round;stroke-linejoin:round;-inkscape-stroke:none"
           d="m 146.06641,41.623047 -17.48047,2.390625 a 1.5,1.5 0 0 0 -1.28125,1.689453 1.5,1.5 0 0 0 1.68945,1.283203 l 17.47852,-2.390625 a 1.5,1.5 0 0 0 1.2832,-1.689453 1.5,1.5 0 0 0 -1.68945,-1.283203 z"
           id="line189" />
      </g>
      <g
         id="aj"
         style="fill:#ffffff">
        <g
           id="g198"
           style="fill:#ffffff">
          <g
             id="ak"
             style="fill:#ffffff">
            <path
               style="color:#000000;fill:#ffffff;stroke-linecap:round;stroke-linejoin:round;-inkscape-stroke:none"
               d="m 133.14062,198.67969 a 0.03,0.03 0 0 0 -0.0312,0.0312 v 3.25976 a 0.03,0.03 0 0 0 0.0312,0.0293 0.03,0.03 0 0 0 0.0293,-0.0293 v -3.25976 a 0.03,0.03 0 0 0 -0.0293,-0.0312 z"
               id="line192" />
          </g>
          <g
             id="al"
             style="fill:#ffffff">
            <path
               style="color:#000000;fill:#ffffff;stroke-linecap:round;stroke-linejoin:round;-inkscape-stroke:none"
               d="m 141.91992,198.67969 a 0.03,0.03 0 0 0 -0.0293,0.0312 v 3.25976 a 0.03,0.03 0 0 0 0.0293,0.0293 0.03,0.03 0 0 0 0.0293,-0.0293 v -3.25976 a 0.03,0.03 0 0 0 -0.0293,-0.0312 z"
               id="line195" />
          </g>
        </g>
        <g
           id="g206"
           style="fill:#ffffff">
          <g
             id="am"
             style="fill:#ffffff">
            <path
               style="color:#000000;fill:#ffffff;stroke-linecap:round;stroke-linejoin:round;-inkscape-stroke:none"
               d="m 133.14062,197.21094 a 1.5,1.5 0 0 0 -1.5,1.5 v 3.25976 a 1.5,1.5 0 0 0 1.5,1.5 1.5,1.5 0 0 0 1.5,-1.5 v -3.25976 a 1.5,1.5 0 0 0 -1.5,-1.5 z"
               id="line200" />
          </g>
          <g
             id="an"
             style="fill:#ffffff">
            <path
               style="color:#000000;fill:#ffffff;stroke-linecap:round;stroke-linejoin:round;-inkscape-stroke:none"
               d="m 141.91992,197.21094 a 1.5,1.5 0 0 0 -1.5,1.5 v 3.25976 a 1.5,1.5 0 0 0 1.5,1.5 1.5,1.5 0 0 0 1.5,-1.5 v -3.25976 a 1.5,1.5 0 0 0 -1.5,-1.5 z"
               id="line203" />
          </g>
        </g>
      </g>
      <g
         id="ao"
         style="fill:#ffffff">
        <g
           id="g215"
           style="fill:#ffffff">
          <g
             id="ap"
             style="fill:#ffffff">
            <path
               style="color:#000000;fill:#ffffff;stroke-linecap:round;stroke-linejoin:round;-inkscape-stroke:none"
               d="m 129.55078,181.5293 a 0.03,0.03 0 0 0 -0.0312,0.0312 v 3.45898 a 0.03,0.03 0 0 0 0.0312,0.0312 0.03,0.03 0 0 0 0.0293,-0.0312 v -3.45898 a 0.03,0.03 0 0 0 -0.0293,-0.0312 z"
               id="line209" />
          </g>
          <g
             id="aq"
             style="fill:#ffffff">
            <path
               style="color:#000000;fill:#ffffff;stroke-linecap:round;stroke-linejoin:round;-inkscape-stroke:none"
               d="m 145.50977,181.5293 a 0.03,0.03 0 0 0 -0.0293,0.0312 v 3.45898 a 0.03,0.03 0 0 0 0.0293,0.0312 0.03,0.03 0 0 0 0.0293,-0.0312 v -3.45898 a 0.03,0.03 0 0 0 -0.0293,-0.0312 z"
               id="line212" />
          </g>
        </g>
        <g
           id="g223"
           style="fill:#ffffff">
          <g
             id="ar"
             style="fill:#ffffff">
            <path
               style="color:#000000;fill:#ffffff;stroke-linecap:round;stroke-linejoin:round;-inkscape-stroke:none"
               d="m 129.55078,180.06055 a 1.5,1.5 0 0 0 -1.5,1.5 v 3.45898 a 1.5,1.5 0 0 0 1.5,1.5 1.5,1.5 0 0 0 1.5,-1.5 v -3.45898 a 1.5,1.5 0 0 0 -1.5,-1.5 z"
               id="line217" />
          </g>
          <g
             id="as"
             style="fill:#ffffff">
            <path
               style="color:#000000;fill:#ffffff;stroke-linecap:round;stroke-linejoin:round;-inkscape-stroke:none"
               d="m 145.50977,180.06055 a 1.5,1.5 0 0 0 -1.5,1.5 v 3.45898 a 1.5,1.5 0 0 0 1.5,1.5 1.5,1.5 0 0 0 1.5,-1.5 v -3.45898 a 1.5,1.5 0 0 0 -1.5,-1.5 z"
               id="line220" />
          </g>
        </g>
      </g>
      <g
         id="at"
         style="fill:#ffffff">
        <g
           id="g232"
           style="fill:#ffffff">
          <g
             id="au"
             style="fill:#ffffff">
            <path
               style="color:#000000;fill:#ffffff;stroke-linecap:round;stroke-linejoin:round;-inkscape-stroke:none"
               d="m 132.74023,149.74023 a 0.03,0.03 0 0 0 -0.0293,0.0293 v 2.87109 a 0.03,0.03 0 0 0 0.0293,0.0293 0.03,0.03 0 0 0 0.0293,-0.0293 v -2.87109 a 0.03,0.03 0 0 0 -0.0293,-0.0293 z"
               id="line226" />
          </g>
          <g
             id="av"
             style="fill:#ffffff">
            <path
               style="color:#000000;fill:#ffffff;stroke-linecap:round;stroke-linejoin:round;-inkscape-stroke:none"
               d="m 142.32031,149.74023 a 0.03,0.03 0 0 0 -0.0312,0.0293 v 2.87109 a 0.03,0.03 0 0 0 0.0312,0.0293 0.03,0.03 0 0 0 0.0293,-0.0293 v -2.87109 a 0.03,0.03 0 0 0 -0.0293,-0.0293 z"
               id="line229" />
          </g>
        </g>
        <g
           id="g240"
           style="fill:#ffffff">
          <g
             id="aw"
             style="fill:#ffffff">
            <path
               style="color:#000000;fill:#ffffff;stroke-linecap:round;stroke-linejoin:round;-inkscape-stroke:none"
               d="m 132.74023,148.26953 a 1.5,1.5 0 0 0 -1.5,1.5 v 2.87109 a 1.5,1.5 0 0 0 1.5,1.5 1.5,1.5 0 0 0 1.5,-1.5 v -2.87109 a 1.5,1.5 0 0 0 -1.5,-1.5 z"
               id="line234" />
          </g>
          <g
             id="ax"
             style="fill:#ffffff">
            <path
               style="color:#000000;fill:#ffffff;stroke-linecap:round;stroke-linejoin:round;-inkscape-stroke:none"
               d="m 142.32031,148.26953 a 1.5,1.5 0 0 0 -1.5,1.5 v 2.87109 a 1.5,1.5 0 0 0 1.5,1.5 1.5,1.5 0 0 0 1.5,-1.5 v -2.87109 a 1.5,1.5 0 0 0 -1.5,-1.5 z"
               id="line237" />
          </g>
        </g>
      </g>
      <g
         id="ay"
         style="fill:#ffffff">
        <g
           id="b`"
           style="fill:#ffffff">
          <path
             style="color:#000000;fill:#ffffff;stroke-linecap:round;stroke-linejoin:round;-inkscape-stroke:none"
             d="m 128.78906,128.2793 a 0.03,0.03 0 0 0 -0.0293,0.0312 v 6.16992 a 0.03,0.03 0 0 0 0.0293,0.0293 0.03,0.03 0 0 0 0.0312,-0.0293 v -6.16992 a 0.03,0.03 0 0 0 -0.0312,-0.0312 z"
             id="line243" />
        </g>
        <g
           id="ba"
           style="fill:#ffffff">
          <path
             style="color:#000000;fill:#ffffff;stroke-linecap:round;stroke-linejoin:round;-inkscape-stroke:none"
             d="m 128.78906,126.81055 a 1.5,1.5 0 0 0 -1.5,1.5 v 6.16992 a 1.5,1.5 0 0 0 1.5,1.5 1.5,1.5 0 0 0 1.5,-1.5 v -6.16992 a 1.5,1.5 0 0 0 -1.5,-1.5 z"
             id="line246" />
        </g>
      </g>
      <g
         id="bb"
         style="fill:#ffffff">
        <g
           id="g256"
           style="fill:#ffffff">
          <g
             id="bc"
             style="fill:#ffffff">
            <path
               style="color:#000000;fill:#ffffff;stroke-linecap:round;stroke-linejoin:round;-inkscape-stroke:none"
               d="m 142.7207,79.509766 a 0.03,0.03 0 0 0 -0.0312,0.0293 v 4.660157 a 0.03,0.03 0 0 0 0.0312,0.03125 0.03,0.03 0 0 0 0.0293,-0.03125 v -4.660157 a 0.03,0.03 0 0 0 -0.0293,-0.0293 z"
               id="line250" />
          </g>
          <g
             id="bd"
             style="fill:#ffffff">
            <path
               style="color:#000000;fill:#ffffff;stroke-linecap:round;stroke-linejoin:round;-inkscape-stroke:none"
               d="m 132.33984,79.509766 a 0.03,0.03 0 0 0 -0.0293,0.0293 v 4.660157 a 0.03,0.03 0 0 0 0.0293,0.03125 0.03,0.03 0 0 0 0.0293,-0.03125 v -4.660157 a 0.03,0.03 0 0 0 -0.0293,-0.0293 z"
               id="line253" />
          </g>
        </g>
        <g
           id="g264"
           style="fill:#ffffff">
          <g
             id="be"
             style="fill:#ffffff">
            <path
               style="color:#000000;fill:#ffffff;stroke-linecap:round;stroke-linejoin:round;-inkscape-stroke:none"
               d="m 142.7207,78.039062 a 1.5,1.5 0 0 0 -1.5,1.5 v 4.660157 a 1.5,1.5 0 0 0 1.5,1.5 1.5,1.5 0 0 0 1.5,-1.5 v -4.660157 a 1.5,1.5 0 0 0 -1.5,-1.5 z"
               id="line258" />
          </g>
          <g
             id="bf"
             style="fill:#ffffff">
            <path
               style="color:#000000;fill:#ffffff;stroke-linecap:round;stroke-linejoin:round;-inkscape-stroke:none"
               d="m 132.33984,78.039062 a 1.5,1.5 0 0 0 -1.5,1.5 v 4.660157 a 1.5,1.5 0 0 0 1.5,1.5 1.5,1.5 0 0 0 1.5,-1.5 v -4.660157 a 1.5,1.5 0 0 0 -1.5,-1.5 z"
               id="line261" />
          </g>
        </g>
      </g>
      <path
         style="color:#000000;fill:#ffffff;stroke-linecap:round;stroke-linejoin:round;-inkscape-stroke:none"
         d="m 116.00977,223.92578 c -6.15788,0.87317 -11.36962,2.18724 -15.16797,3.87305 -1.899181,0.8429 -3.452308,1.77224 -4.609378,2.875 -1.15707,1.10275 -1.953125,2.47186 -1.953125,3.99609 0,2.16496 1.515323,3.91815 3.61914,5.29883 2.103823,1.38068 4.961753,2.52785 8.443363,3.49414 6.96322,1.93259 16.42167,3.09766 26.86914,3.09766 10.44747,0 19.90396,-1.16507 26.86718,-3.09766 3.48162,-0.96629 6.33955,-2.11346 8.44336,-3.49414 2.10382,-1.38068 3.61915,-3.13387 3.61914,-5.29883 0,-1.36111 -0.64394,-2.61172 -1.5996,-3.63476 -0.95566,-1.02305 -2.2384,-1.89071 -3.80274,-2.6836 a 1.5,1.5 0 0 0 -2.01562,0.66016 1.5,1.5 0 0 0 0.66015,2.01562 c 1.35566,0.68712 2.36246,1.40969 2.9668,2.05664 0.60434,0.64696 0.79101,1.14705 0.79101,1.58594 0,0.70504 -0.581,1.68545 -2.26562,2.79102 -1.68462,1.10557 -4.30748,2.19762 -7.59961,3.11133 -6.58426,1.82741 -15.84194,2.98828 -26.06445,2.98828 -10.22251,0 -19.48214,-1.16087 -26.06641,-2.98828 -3.29213,-0.91371 -5.91499,-2.00576 -7.599608,-3.11133 -1.684616,-1.10557 -2.265625,-2.08598 -2.265625,-2.79102 0,-0.49576 0.243321,-1.08072 1.023437,-1.82422 0.780116,-0.74349 2.063246,-1.55259 3.757816,-2.30468 3.38913,-1.50419 8.39703,-2.79966 14.36914,-3.64649 a 1.5,1.5 0 0 0 1.27539,-1.69531 1.5,1.5 0 0 0 -1.69531,-1.27344 z"
         id="path267" />
      <path
         style="color:#000000;fill:#ffffff;stroke-linecap:round;stroke-linejoin:round;-inkscape-stroke:none"
         d="m 116.00977,223.92578 c -6.11867,0.86761 -11.29597,1.9259 -15.08594,3.34961 -1.894986,0.71186 -3.4525,1.50658 -4.632814,2.51953 -1.180315,1.01295 -2.011719,2.3703 -2.011719,3.89453 0,2.16497 1.515323,3.91815 3.61914,5.29883 2.103823,1.38068 4.961753,2.52785 8.443363,3.49414 6.96322,1.93259 16.42167,3.09766 26.86914,3.09766 10.44747,0 19.90396,-1.16507 26.86718,-3.09766 3.48162,-0.96629 6.33955,-2.11346 8.44336,-3.49414 2.10382,-1.38068 3.61915,-3.13386 3.61914,-5.29883 0,-1.36356 -0.80453,-2.5757 -1.79101,-3.32031 -0.98648,-0.74461 -2.16729,-1.28567 -3.61133,-2.01758 a 1.5,1.5 0 0 0 -2.01562,0.66016 1.5,1.5 0 0 0 0.66015,2.01562 c 1.47596,0.74809 2.58469,1.30344 3.15821,1.73633 0.57351,0.43289 0.5996,0.47935 0.5996,0.92578 0,0.70504 -0.581,1.68545 -2.26562,2.79102 -1.68462,1.10557 -4.30748,2.19762 -7.59961,3.11133 -6.58426,1.82741 -15.84194,2.98828 -26.06445,2.98828 -10.22251,0 -19.48214,-1.16087 -26.06641,-2.98828 -3.29213,-0.91371 -5.91499,-2.00576 -7.599608,-3.11133 -1.684616,-1.10557 -2.265625,-2.08598 -2.265625,-2.79102 0,-0.49576 0.207972,-0.96764 0.964844,-1.61718 0.756871,-0.64955 2.035609,-1.35014 3.734379,-1.98829 3.39752,-1.27628 8.43985,-2.33706 14.45117,-3.18945 a 1.5,1.5 0 0 0 1.27539,-1.69531 1.5,1.5 0 0 0 -1.69531,-1.27344 z"
         id="path269" />
    </g>
  </g>
</svg>
