<?xml version="1.0" encoding="UTF-8" standalone="no"?>
<!-- Created with Inkscape (http://www.inkscape.org/) -->

<svg
   width="100"
   height="100"
   viewBox="0 0 26.458333 26.458334"
   version="1.1"
   id="svg127350"
   inkscape:export-filename="C:\Users\Agathe\Desktop\commerces.png"
   inkscape:export-xdpi="200"
   inkscape:export-ydpi="200"
   inkscape:version="1.1 (c68e22c387, 2021-05-23)"
   sodipodi:docname="FTNE_MILLENAIRE.svg"
   xmlns:inkscape="http://www.inkscape.org/namespaces/inkscape"
   xmlns:sodipodi="http://sodipodi.sourceforge.net/DTD/sodipodi-0.dtd"
   xmlns="http://www.w3.org/2000/svg"
   xmlns:svg="http://www.w3.org/2000/svg">
  <sodipodi:namedview
     id="namedview127352"
     pagecolor="#ffffff"
     bordercolor="#666666"
     borderopacity="1.0"
     inkscape:pageshadow="2"
     inkscape:pageopacity="0"
     inkscape:pagecheckerboard="0"
     inkscape:document-units="mm"
     showgrid="false"
     units="px"
     inkscape:zoom="5.9722783"
     inkscape:cx="54.250653"
     inkscape:cy="31.562494"
     inkscape:window-width="2400"
     inkscape:window-height="1271"
     inkscape:window-x="2391"
     inkscape:window-y="-9"
     inkscape:window-maximized="1"
     inkscape:current-layer="layer1" />
  <defs
     id="defs127347" />
  <g
     inkscape:label="Calque 1"
     inkscape:groupmode="layer"
     id="layer1">
    <g
       id="g3305"
       transform="matrix(0.273852,0,0,0.273852,5.7074205,7.4122507)"
       style="stroke-width:3.65161">
      <path
         style="color:#000000;fill:#002ddc;stroke-width:0.966153;stroke-linecap:round;stroke-linejoin:round;-inkscape-stroke:none"
         d="m 25.731461,-7.7759497 c -0.361577,0.00871 -0.838557,0.092162 -1.298628,0.1865521 -0.241747,0.049598 -0.468471,0.1003657 -0.644406,0.1431436 -0.08797,0.021389 -0.162841,0.040659 -0.223242,0.057361 -0.0604,0.0167 -0.0702,0.00922 -0.172083,0.058911 a 0.39691468,0.39691468 0 0 0 -0.0072,0.00362 c -0.141565,0.072508 -0.160657,0.1079904 -0.252182,0.1850016 -0.09153,0.077011 -0.198562,0.1726655 -0.304374,0.2744018 -0.105812,0.1017365 -0.209312,0.2073092 -0.296622,0.313676 -0.04366,0.053184 -0.0835,0.1060511 -0.120406,0.1689819 -0.03691,0.062931 -0.0863,0.1274175 -0.0863,0.2868041 0,0.2528345 0.116452,0.3867775 0.206706,0.4847252 -0.0011,0.00633 -0.0442,0.2375333 -0.08785,0.4924763 -0.02212,0.1292029 -0.0443,0.2629932 -0.06098,0.3762044 -0.01667,0.1132113 -0.03424,0.155702 -0.02842,0.298173 a 0.39691468,0.39691468 0 0 0 5.29e-4,0.00723 c 0.0094,0.1572689 0.04191,0.1684679 0.07855,0.2485636 -0.02141,0.050681 -0.02922,0.0683 -0.05994,0.1436606 -0.02896,0.07104 -0.05878,0.1456674 -0.08372,0.21239 -0.02492,0.066723 -0.04328,0.091839 -0.06253,0.2041218 0.014,-0.081646 0.0098,-0.035141 -0.0072,0 -0.01704,0.035141 -0.0437,0.085155 -0.07131,0.138493 -0.02761,0.053338 -0.0563,0.1092705 -0.08268,0.1700154 -0.02638,0.060745 -0.08125,0.077424 -0.05943,0.2955891 a 0.39691468,0.39691468 0 0 0 5.29e-4,0.00156 c 0.0213,0.205807 0.143023,0.2920736 0.209807,0.3379639 0.0096,0.0066 0.01476,0.00628 0.02376,0.011885 0.0011,0.049421 0.0021,0.099811 0.0041,0.144694 0.0013,0.027572 0.0028,0.053043 0.0052,0.079582 0.0024,0.026539 -0.0073,0.030741 0.02376,0.1240235 -0.01625,-0.048753 -0.0056,-0.020405 -0.0011,0.00465 0.0046,0.025056 0.01069,0.061537 0.02066,0.1043864 0.01,0.042849 0.02096,0.090815 0.05271,0.1581298 0.01603,0.033971 0.03883,0.084634 0.08372,0.1338421 2.7e-5,0.015346 -1.77e-4,0.014036 0,0.030489 0.0011,0.1001165 -0.0084,0.1827694 0.02739,0.3338298 0.04464,0.1884752 0.156421,0.2627178 0.23151,0.3110921 0.07509,0.048374 0.141888,0.074259 0.207222,0.096118 0.130664,0.043717 0.237238,0.067179 0.373621,0.067179 0.114662,0 0.310507,-0.012763 0.527616,-0.025321 l -0.01085,1.18855965 -0.264065,0.41444333 c -0.0038,0.005503 -0.381024,0.54469502 -0.802018,1.12499512 -0.211569,0.2916264 -0.432919,0.5924153 -0.619601,0.8350911 -0.186685,0.2426785 -0.367067,0.447675 -0.381889,0.4609544 a 0.39691468,0.39691468 0 0 0 -0.0011,0.00106 c -0.26875,0.242951 -0.321431,0.612341 -0.272333,0.8485266 0.0491,0.2361856 0.165685,0.4425183 0.150895,0.4030769 a 0.39691468,0.39691468 0 0 0 0.0011,0.00265 c 0.04274,0.1116118 0.07551,0.1533843 0.126606,0.2382282 0.05109,0.084847 0.112056,0.1811708 0.17105,0.2733701 0.08209,0.1283044 0.118801,0.1837346 0.159163,0.244946 l -0.03669,1.2795091 c -0.08393,0.038806 -0.109489,0.049787 -0.226861,0.1059365 -0.116988,0.055965 -0.237826,0.1148556 -0.341064,0.1684629 -0.103235,0.05361 -0.156025,0.065966 -0.274402,0.1674336 0.064,-0.054856 -0.0089,0.00238 -0.08268,0.035139 -0.07383,0.032861 -0.172572,0.072223 -0.272852,0.1085215 -0.10028,0.036296 -0.203187,0.069921 -0.283702,0.092501 -0.08051,0.022569 -0.164568,0.027903 -0.108006,0.027903 -0.09934,0 -0.241932,0.00365 -0.388606,0.020161 -0.07334,0.00826 -0.147138,0.019553 -0.224274,0.039272 -0.07714,0.019712 -0.157721,0.03302 -0.272336,0.1312598 l 0.0041,-0.00362 c -0.02376,0.019791 -0.134527,0.1034706 -0.232029,0.1731142 -0.04875,0.034822 -0.09653,0.068194 -0.133323,0.093017 -0.03679,0.024818 -0.08233,0.049175 -0.04496,0.030491 -0.09274,0.046368 -0.09312,0.060225 -0.118853,0.082166 -0.02574,0.021934 -0.05097,0.045389 -0.07803,0.070794 -0.05413,0.050813 -0.115115,0.1104662 -0.173633,0.1689841 -0.117006,0.1169379 -0.224247,0.2288302 -0.224247,0.2288302 a 0.39691468,0.39691468 0 0 0 -0.08113,0.1229889 l -0.04444,0.1064551 c -0.104667,0.039005 -0.249857,0.09362 -0.520383,0.1891348 -2.35e-4,8.2e-5 -2.64e-4,5.291e-4 -5.29e-4,5.291e-4 -0.16914,0.058669 -0.324723,0.1896798 -0.397391,0.3426169 -0.07277,0.1531488 -0.0714,0.2986114 -0.05581,0.409276 0.03119,0.2213319 0.129707,0.3731049 0.129707,0.3731049 a 0.39691468,0.39691468 0 0 0 0.382405,0.1948206 c 0,0 0.308652,-0.029456 0.526584,-0.029456 -0.06527,0 0.133498,0.021325 0.326078,0.066146 0.19258,0.044828 0.434747,0.106635 0.676444,0.1700159 0.483394,0.1267591 0.921263,0.2509631 1.096058,0.2888691 0.02159,0.0047 0.452644,0.13552 0.803568,0.250632 0.201542,0.06611 0.260007,0.08649 0.387573,0.129191 -0.0131,0.220869 -0.03783,0.643329 -0.07751,1.305346 -0.04894,0.816385 -0.104273,1.702953 -0.107487,1.740979 -0.008,0.09478 -0.01969,0.335214 -0.03979,0.727604 -0.02011,0.392393 -0.04533,0.900951 -0.07079,1.413352 -0.05094,1.0248 -0.101749,2.067218 -0.109556,2.222087 -0.0079,0.157649 -0.03237,0.636256 -0.04444,1.135329 -0.01206,0.499076 -0.02334,0.980988 0.03359,1.307415 2.65e-4,0.0024 0.01021,0.139552 0.0078,0.293521 -0.0024,0.153969 -0.01085,0.342522 -0.0217,0.529685 -0.02172,0.374325 -0.05717,0.766366 -0.0677,0.844391 -0.02477,0.18374 -0.115279,1.080069 -0.211873,2.024166 -0.09659,0.944097 -0.19472,1.906371 -0.202054,1.971455 -0.02585,0.229328 0.01543,0.399841 0.04444,0.596347 0.02901,0.196507 0.06046,0.366903 0.06046,0.366903 a 0.39691468,0.39691468 0 0 0 0.06666,0.158131 c 0,0 0.120386,0.230669 0.120923,0.233577 -0.01167,-0.06315 -0.0029,-0.03252 -0.0057,0.0021 -0.0028,0.03459 -0.0089,0.08813 -0.01807,0.150894 -0.01836,0.125527 -0.04771,0.289497 -0.07958,0.457338 -0.06375,0.335679 -0.136546,0.677124 -0.16433,0.833025 -0.03181,0.178509 -0.02357,0.327623 -0.02585,0.593243 -0.0024,0.265621 -7.94e-4,0.590587 0.0021,0.906923 0.006,0.632669 0.0181,1.230932 0.0181,1.230932 a 0.39691468,0.39691468 0 0 0 0.06046,0.203088 l 0.188103,0.299207 a 0.39691468,0.39691468 0 0 0 0.118856,0.120923 c 0,0 0.215771,0.14147 0.480074,0.28422 0.264302,0.142751 0.521112,0.314709 0.898654,0.314709 0.09973,0 0.407694,0.04215 0.695047,0.08888 0.12845,0.0209 0.227058,0.02649 0.342099,0.04444 -0.06838,0.05248 -0.179253,0.138962 -0.163814,0.130225 0.07081,-0.04008 -0.04338,0.01405 -0.15193,0.04496 -0.108547,0.03092 -0.250081,0.06795 -0.394292,0.104902 -0.28842,0.07391 -0.548405,0.130424 -0.731737,0.199473 -0.174323,0.06565 -0.282054,0.208073 -0.335897,0.329178 -0.05385,0.121105 -0.07098,0.235617 -0.07545,0.34675 -0.0089,0.222263 0.01873,0.428112 0.153995,0.638204 a 0.39691468,0.39691468 0 0 0 0.210841,0.162264 c 0,0 4.196377,1.367925 9.379789,0.680577 a 0.396875,0.396875 0 0 0 0.34158,-0.445966 0.396875,0.396875 0 0 0 -0.445966,-0.341066 c -4.651261,0.616783 -8.335425,-0.442244 -8.836155,-0.594794 -0.0058,-0.0279 -0.0096,-0.03358 -0.0098,-0.05995 0.09409,-0.02669 0.300419,-0.08325 0.546222,-0.146243 0.146169,-0.03746 0.291129,-0.07509 0.413927,-0.110072 0.122799,-0.03498 0.184643,-0.03805 0.325562,-0.117822 0.170561,-0.09654 0.29078,-0.211526 0.441833,-0.338481 0.151054,-0.126953 0.283705,-0.242877 0.283705,-0.242877 a 0.39691468,0.39691468 0 0 0 0.134874,-0.298175 c 0,0 0.0057,-0.14796 -0.07131,-0.311092 -0.07699,-0.163131 -0.318963,-0.368969 -0.592728,-0.368969 -0.04062,0 -0.347588,-0.0417 -0.637688,-0.08888 -0.290099,-0.04719 -0.578458,-0.09922 -0.822687,-0.09922 0.03358,0 -0.290949,-0.09463 -0.521417,-0.219107 -0.193551,-0.104539 -0.307015,-0.179228 -0.355534,-0.210322 l -0.07751,-0.124024 c -0.0019,-0.09263 -0.01061,-0.541681 -0.01601,-1.113112 -0.003,-0.313704 -0.0043,-0.635955 -0.0021,-0.892969 0.0021,-0.257014 0.02196,-0.505849 0.01394,-0.460952 0.01984,-0.111329 0.09637,-0.476779 0.162263,-0.823722 0.03295,-0.173474 0.06393,-0.344927 0.08527,-0.490926 0.01066,-0.073 0.01873,-0.138997 0.02376,-0.201023 0.0051,-0.06203 0.01495,-0.104695 -0.0047,-0.210838 -0.04738,-0.256667 -0.135093,-0.339286 -0.191719,-0.413412 -0.0034,-0.01855 -0.02734,-0.14845 -0.05219,-0.316777 -0.02655,-0.179864 -0.03564,-0.433179 -0.04031,-0.391708 0.01384,-0.122767 0.106018,-1.036021 0.202573,-1.979724 0.09655,-0.943702 0.201795,-1.947105 0.208772,-1.998845 0.02122,-0.157453 0.05079,-0.515339 0.07338,-0.904338 0.0113,-0.194497 0.02,-0.39112 0.02273,-0.562755 0.0028,-0.171633 0.0056,-0.300958 -0.01913,-0.442868 -0.02244,-0.128656 -0.03345,-0.66603 -0.0217,-1.151866 0.01175,-0.485838 0.03548,-0.957458 0.04341,-1.11466 0.0081,-0.159989 0.05863,-1.198211 0.109553,-2.222603 0.02545,-0.512199 0.05073,-1.020718 0.0708,-1.41232 0.02008,-0.391599 0.03831,-0.702098 0.03824,-0.701249 0.01267,-0.149828 0.05956,-0.943343 0.108519,-1.760098 0.04896,-0.816756 0.0956,-1.610238 0.0956,-1.610238 A 0.39691468,0.39691468 0 0 0 22.312531,9.9015883 c 0,0 -0.326761,-0.109945 -0.681612,-0.2263431 C 21.276071,9.558847 20.946828,9.4458541 20.748804,9.4029096 20.703994,9.3931994 20.176092,9.2503535 19.685819,9.1217898 19.440683,9.0575093 19.19362,8.994549 18.987671,8.9466065 18.883946,8.9224501 18.810376,8.9185025 18.732906,8.902683 18.752246,8.895463 18.85693,8.857722 18.85693,8.857722 a 0.39691468,0.39691468 0 0 0 0.226859,-0.2191068 l 0.08217,-0.196887 c 0.03386,-0.034941 0.07856,-0.081658 0.162264,-0.1653646 0.05525,-0.055253 0.112437,-0.111461 0.155546,-0.151929 0.02156,-0.020241 0.04004,-0.036804 0.04961,-0.044958 0.0096,-0.00815 0.03604,-0.014658 -0.04082,0.02376 0.06912,-0.03456 0.08828,-0.051427 0.133842,-0.082164 0.04556,-0.030739 0.09778,-0.067482 0.150894,-0.1054206 0.09025,-0.064466 0.16886,-0.1237509 0.236678,-0.1777683 0.02204,-0.00558 0.06565,-0.013547 0.115239,-0.019129 0.10005,-0.011271 0.224439,-0.015505 0.299723,-0.015505 0.143878,0 0.215456,-0.027353 0.322461,-0.057359 0.107008,-0.030009 0.223642,-0.068834 0.338997,-0.1105878 0.115356,-0.041754 0.228262,-0.08617 0.326081,-0.1297094 0.09782,-0.043537 0.156392,-0.055134 0.27595,-0.1576123 -0.06282,0.05384 0.03428,-0.019023 0.124023,-0.06563 0.08974,-0.046601 0.205274,-0.1032589 0.317812,-0.1570963 0.225073,-0.1076722 0.437698,-0.2041208 0.437698,-0.2041208 a 0.39691468,0.39691468 0 0 0 0.233061,-0.3498506 l 0.04756,-1.6485181 a 0.39691468,0.39691468 0 0 0 -0.06615,-0.2309945 c 0,0 -0.108686,-0.1631289 -0.222208,-0.3405479 C 22.50746,4.162514 22.449708,4.0700919 22.405055,3.9959424 22.360405,3.9217904 22.320495,3.8343667 22.339425,3.8838041 22.277955,3.7208763 22.237286,3.6661208 22.22367,3.6006153 22.20994,3.5345143 22.18908,3.5584593 22.25106,3.5024313 l -0.0016,0.00106 C 22.400005,3.368604 22.536004,3.1879704 22.730568,2.9350499 22.925132,2.6821294 23.150043,2.3774749 23.36412,2.0823877 23.79228,1.4922161 24.178026,0.94034026 24.178026,0.94034026 a 0.39691468,0.39691468 0 0 0 0.0093,-0.0139435 l 0.330729,-0.51882939 a 0.39691468,0.39691468 0 0 0 0.06201,-0.20929071 l 0.01601,-1.72806016 a 0.39691468,0.39691468 0 0 0 -0.421162,-0.3994587 c 0,0 -0.202493,0.012295 -0.419097,0.024805 -0.216601,0.012509 -0.484158,0.024289 -0.48524,0.024289 0.0074,0 -0.02947,-0.00714 -0.04548,-0.00982 -2.65e-4,-0.00752 -5.29e-4,-0.00639 -5.29e-4,-0.013436 -7.94e-4,-0.083769 0.0011,-0.1570963 0.0011,-0.1570963 a 0.39691468,0.39691468 0 0 0 -0.01085,-0.1012859 c 0,0 -0.014,-0.065197 -0.05064,-0.1384928 -0.0195,-0.038983 -0.0524,-0.095489 -0.106968,-0.1498615 -7.94e-4,-0.00497 -0.0016,-0.00769 -0.0026,-0.01292 -0.0048,-0.026537 -0.0027,-0.041122 -0.02687,-0.1136883 0.02713,0.081376 0.01458,0.061518 0.01394,0.054777 -5.3e-4,-0.00674 -0.0021,-0.023892 -0.0031,-0.044442 -0.0019,-0.0411 -0.0032,-0.098443 -0.0041,-0.1545127 -0.0019,-0.1121391 -0.0021,-0.2201415 -0.0021,-0.2201415 a 0.39691468,0.39691468 0 0 0 -0.167431,-0.206189 c 0.02283,-0.043889 0.04736,-0.089142 0.07028,-0.1364258 0.02638,-0.054403 0.05352,-0.083925 0.07545,-0.2118733 -0.0113,0.065981 0.0036,-0.00638 0.02376,-0.060462 0.02021,-0.054076 0.04767,-0.1238121 0.07493,-0.190686 0.05452,-0.1337482 0.108005,-0.2573486 0.108005,-0.2573486 a 0.39691468,0.39691468 0 0 0 -0.01654,-0.3467489 c 0,0 -0.05111,-0.1547553 -0.05168,-0.1322917 0.003,0.063329 0.0056,-0.04654 0.02016,-0.1457274 0.01508,-0.1023414 0.03634,-0.2318121 0.05788,-0.3576011 0.04184,-0.2443808 0.08182,-0.4614076 0.08423,-0.4743897 l 0.04547,-0.1844847 a 0.39691468,0.39691468 0 0 0 -0.152445,-0.4165121 c 0,0 -0.01717,-0.01642 -0.02479,-0.022738 0.05394,-0.062154 0.121,-0.134874 0.19947,-0.2103231 0.09163,-0.088102 0.188719,-0.1745557 0.265618,-0.2392619 0.07417,-0.062411 0.170513,-0.1183955 0.09973,-0.082682 -0.04386,0.0215 -0.01109,0.0052 0.03204,-0.00672 0.04792,-0.01325 0.117073,-0.031125 0.19947,-0.05116 0.164798,-0.04007 0.384312,-0.089823 0.6165,-0.1374593 0.464376,-0.095273 1.010126,-0.1793173 1.205095,-0.1793173 a 0.39691468,0.39691468 0 0 0 0.08682,-0.00982 c 0,0 0.319606,-0.1044864 0.758611,0.2764689 0.439007,0.3809553 1,1.3502553 1.056783,3.7248372 a 0.39691468,0.39691468 0 0 0 0,0.00362 c 0.112516,3.29435403 0.08717,16.112144 0.05013,25.469763 a 0.396875,0.396875 0 0 0 0.395324,0.398426 0.396875,0.396875 0 0 0 0.398426,-0.395325 c 0.03704,-9.358987 0.06438,-22.1318851 -0.05064,-25.4997359 -0.06026,-2.4905636 -0.648563,-3.7100155 -1.329635,-4.3010293 -0.666543,-0.5784054 -1.399235,-0.4572564 -1.431954,-0.4516522 z"
         id="path6" />
      <path
         style="color:#000000;fill:#002ddc;stroke-width:0.966153;stroke-linecap:round;stroke-linejoin:round;-inkscape-stroke:none"
         d="m 30.908923,-7.7826675 c -7.94e-4,-3.55e-5 -0.850969,-0.036593 -1.700155,0.3849894 -0.849598,0.4217863 -1.69954,1.3852334 -1.619541,3.0995524 a 0.396875,0.396875 0 0 0 0.414962,0.3777546 0.396875,0.396875 0 0 0 0.377756,-0.4149616 c -0.06816,-1.4606778 0.537123,-2.0322315 1.179772,-2.3512777 0.642652,-0.3190462 1.320335,-0.3028238 1.320335,-0.3028238 a 0.39691468,0.39691468 0 0 0 0.01241,5.291e-4 l 1.350815,0.00516 c 0.139459,0.00371 0.238159,0.059512 0.324011,0.1317749 0.04293,0.036132 0.07923,0.075069 0.108003,0.1090372 0.01439,0.016984 0.02625,0.032354 0.03927,0.048576 0.01302,0.016222 0.0047,0.019611 0.07441,0.080615 -0.03237,-0.028322 0.0059,0.00649 0.03256,0.03669 0.02666,0.030199 0.0608,0.071251 0.09198,0.1126548 0.06237,0.082808 0.08958,0.2211229 0.07958,0.097152 0.0076,0.094261 0.02289,0.1346771 0.03669,0.1870686 -0.01275,0.017981 -0.03908,0.035235 -0.05168,0.05426 -0.02676,0.040416 -0.05113,0.080709 -0.07441,0.1400429 -0.02328,0.059335 -0.104873,0.1401026 0.0088,0.3674194 0.0016,0.00324 0.08307,0.18098 0.117305,0.2687175 -0.03469,-0.088899 -0.004,-0.00375 0.0036,0.066146 0.0076,0.069893 0.01521,0.163191 0.02222,0.2568318 0.007,0.093641 0.01357,0.1880889 0.02016,0.2682007 0.0066,0.080112 -0.0064,0.094182 0.03152,0.2289268 -0.03438,-0.1222428 -0.003,-0.114151 -0.01497,-0.076998 -0.01196,0.037001 -0.04782,0.078019 -0.05943,0.236678 -2.6e-5,3.969e-4 3e-5,1.259e-4 0,5.292e-4 -2.1e-5,3.175e-4 2.4e-5,1.889e-4 0,5.291e-4 -0.01283,0.1780527 0.02596,0.188368 0.04289,0.2284098 0.01701,0.040217 0.03461,0.073581 0.05374,0.1090372 0.03826,0.070912 0.08321,0.1461241 0.129191,0.2201415 0.08834,0.1422199 0.174024,0.2698417 0.194304,0.3002402 0.0033,0.00546 0.02188,0.042648 0.03566,0.067696 a 0.39691468,0.39691468 0 0 0 -0.115785,0.2087483 c 0,0 -0.0099,0.088823 -0.0186,0.1870686 -0.0043,0.049123 -0.0086,0.1005808 -0.01138,0.1483114 -0.0028,0.047731 -0.01175,0.061281 0.0016,0.1632977 0.0034,0.036697 0.0071,0.076099 0.0093,0.1126545 -0.01688,0.025575 -0.02668,0.038659 -0.04599,0.069763 -0.02172,0.034999 -0.04284,0.070743 -0.06408,0.1116211 -0.01064,0.020439 -0.02127,0.041692 -0.03307,0.07183 -0.0118,0.030138 -0.03359,0.05672 -0.03359,0.1674317 0,-0.055563 -0.0011,0.00874 -0.0057,0.048576 -0.0024,0.019537 -0.0068,0.043715 -0.01035,0.066663 -0.08255,-1.342e-4 -0.171976,-8.74e-5 -0.2682,-0.00103 -0.234349,-0.0023 -0.41588,-0.00924 -0.545703,-0.00259 -0.344551,0.017669 -0.545703,0.3158074 -0.545703,0.5947955 0,-0.031309 -0.0044,0.1121314 -0.01034,0.2619996 -0.0059,0.1498682 -0.01299,0.3437131 -0.01654,0.54363597 -0.0035,0.19992313 -0.004,0.40542976 0.0036,0.5844606 0.0077,0.17903031 -0.01434,0.28472077 0.08268,0.49867608 0.05142,0.11434233 0.117372,0.21933164 0.212905,0.37465529 0.09595,0.15599304 0.213598,0.34066686 0.331764,0.52399936 0.236331,0.3666622 0.470217,0.7201879 0.544669,0.8288893 0.190042,0.2774606 0.750554,0.9461738 0.942062,1.1518688 a 0.39691468,0.39691468 0 0 0 0.0047,0.00516 c -0.0155,-0.01606 0.07509,0.1203378 0.116272,0.2433955 0.04119,0.1230577 0.02521,0.2709942 0.04858,0.1927542 0.0053,-0.017939 -0.122179,0.2616491 -0.24288,0.472321 -0.06035,0.1053359 -0.12179,0.2078249 -0.17105,0.2852552 -0.04926,0.077428 -0.122756,0.1589299 -0.06615,0.1023196 -0.157459,0.1574589 -0.116866,0.2092299 -0.124539,0.257347 -0.0077,0.04812 -0.0094,0.08749 -0.01085,0.1302253 -0.003,0.085471 -0.0011,0.1819619 0.0036,0.2940394 0.0094,0.2241523 0.02988,0.5051822 0.05323,0.7896145 0.02334,0.2844324 0.04966,0.5711376 0.06976,0.7989173 0.02011,0.2277798 0.03307,0.4370811 0.03307,0.4180629 0,0.09095 -0.0058,1.037156 -0.0052,2.0122805 5.29e-4,0.9751243 7.94e-4,1.9359373 0.03617,2.2944343 0.02641,0.267981 0.145304,1.483598 0.270785,2.701642 0.125479,1.218047 0.245634,2.381462 0.313158,2.745052 0.0158,0.08509 0.05619,0.453409 0.09508,0.904338 0.0389,0.450929 0.08205,1.008052 0.123507,1.562695 0.08291,1.10929 0.155321,2.173677 0.187587,2.460832 a 0.39691468,0.39691468 0 0 0 0,0.0021 c 0.03326,0.28194 0.169849,1.075222 0.313158,1.908927 0.143309,0.833705 0.291566,1.687621 0.334346,1.963187 0.03078,0.198226 0.07502,1.134925 0.111104,1.998329 0.01805,0.4317 0.03665,0.857142 0.05736,1.201476 0.01035,0.172167 0.02143,0.32394 0.03359,0.449069 0.01217,0.125127 0.01741,0.207378 0.04961,0.318841 0.003,0.0105 0.02498,0.156861 0.02946,0.322461 0.0045,0.165603 5.29e-4,0.364699 -0.0098,0.555522 -0.0104,0.190826 -0.0275,0.375095 -0.04651,0.506431 -0.0016,0.01148 -0.003,0.01469 -0.0047,0.02532 -0.0841,0.01495 -0.189675,0.03008 -0.309026,0.04444 -0.268261,0.03228 -0.532929,0.04749 -0.757057,0.108003 -0.230857,0.06233 -0.405082,0.179903 -0.573093,0.285255 -0.16801,0.105352 -0.345577,0.208695 -0.337963,0.205671 0.02609,-0.01035 -0.04981,0.01275 -0.134876,0.02585 -0.08507,0.0131 -0.19276,0.02556 -0.300758,0.03617 -0.21599,0.02125 -0.443687,0.03529 -0.500226,0.03721 -0.131482,0.0045 -0.20614,0.0279 -0.326081,0.06666 -0.119938,0.03876 -0.252161,0.08932 -0.387056,0.192239 -0.06744,0.05146 -0.139322,0.118417 -0.194818,0.224792 -0.0555,0.106373 -0.08063,0.262634 -0.04393,0.397391 0.07341,0.269513 0.26715,0.394139 0.500745,0.514181 0.376558,0.194191 0.670542,0.35129 0.902269,0.466638 0.231889,0.115427 0.362617,0.203202 0.606682,0.221691 0.0079,5.29e-4 0.190174,0.03571 0.338481,0.0739 0.05005,0.01289 0.07408,0.0195 0.116271,0.031 0.0011,0.01193 0.0029,0.01797 0.0036,0.02998 7.94e-4,0.01336 -7.94e-4,0.01987 -5.29e-4,0.03307 a 0.396875,0.396875 0 0 0 -0.287322,0.376719 0.396875,0.396875 0 0 0 0.418582,0.373621 c 0,0 0.171177,0.01058 0.387572,-0.09612 0.169249,-0.08295 0.203872,-0.194503 0.228409,-0.261483 0.02461,-0.06719 0.03292,-0.119118 0.03928,-0.170532 0.0127,-0.102827 0.01204,-0.201948 0.0062,-0.301791 -0.0058,-0.09984 -0.01722,-0.195231 -0.03876,-0.289388 -0.01077,-0.04708 -0.02201,-0.09255 -0.05013,-0.153477 -0.02812,-0.06093 -0.05326,-0.19607 -0.298172,-0.253214 0.0044,0.0011 -0.167182,-0.04615 -0.327112,-0.08733 -0.159933,-0.04118 -0.309684,-0.084 -0.476457,-0.09664 0.06944,0.0053 -0.09937,-0.0344 -0.312642,-0.14056 -0.167875,-0.08356 -0.4303,-0.221964 -0.702799,-0.363802 0.112053,-0.0054 0.273079,-0.01471 0.475422,-0.03462 0.117231,-0.01154 0.236336,-0.02527 0.344164,-0.04186 0.107831,-0.01659 0.190924,-0.02679 0.306959,-0.07286 0.187532,-0.07446 0.311857,-0.173731 0.466638,-0.270786 0.154781,-0.09705 0.324392,-0.182096 0.358119,-0.191201 0.04045,-0.01093 0.364027,-0.05244 0.645438,-0.0863 0.140705,-0.01693 0.279056,-0.03488 0.403076,-0.05891 0.06201,-0.01201 0.120047,-0.02498 0.181383,-0.04496 0.06134,-0.01998 0.125672,-0.02697 0.233061,-0.134361 0.151881,-0.151878 0.124745,-0.205599 0.143145,-0.276984 0.01839,-0.07138 0.03133,-0.145518 0.04341,-0.228928 0.02416,-0.166815 0.04232,-0.36735 0.05374,-0.576707 0.01143,-0.209357 0.01561,-0.425908 0.01035,-0.620636 -0.0053,-0.194728 -0.01138,-0.353324 -0.05994,-0.521414 0.0064,0.02217 -0.0122,-0.06661 -0.02273,-0.175183 -0.01056,-0.108572 -0.02098,-0.252947 -0.03101,-0.419614 -0.02006,-0.333327 -0.03832,-0.756684 -0.05633,-1.187524 -0.03601,-0.861679 -0.06071,-1.705483 -0.119891,-2.086694 -0.04718,-0.303869 -0.19331,-1.143082 -0.336412,-1.975589 -0.143103,-0.832508 -0.284658,-1.678569 -0.306959,-1.867588 -0.02074,-0.185253 -0.101444,-1.318363 -0.184484,-2.429308 -0.04155,-0.555943 -0.08514,-1.114724 -0.124539,-1.57148 -0.0394,-0.456755 -0.06963,-0.788093 -0.105421,-0.980818 -0.03566,-0.192035 -0.178644,-1.466551 -0.303858,-2.682007 -0.125214,-1.215459 -0.244268,-2.428904 -0.270785,-2.698028 -0.0176,-0.178604 -0.03138,-1.245373 -0.03204,-2.216917 -7.94e-4,-0.9715447 0.0052,-1.8910485 0.0052,-2.0117646 0,-0.124849 -0.01593,-0.2583709 -0.03617,-0.4878255 -0.02024,-0.229452 -0.04629,-0.5144744 -0.06925,-0.794266 -0.02297,-0.2797915 -0.04268,-0.5549238 -0.05116,-0.7575761 -0.004,-0.095052 -0.0048,-0.170135 -0.0036,-0.2191094 0.02008,-0.031218 0.05207,-0.064609 0.07803,-0.105418 0.05831,-0.091657 0.124513,-0.2021787 0.190169,-0.3167776 0.131315,-0.229198 0.248502,-0.4180999 0.314711,-0.6397546 0.08422,-0.2819717 0.01095,-0.4712547 -0.05633,-0.6723089 C 34.700862,3.0673241 34.631517,2.8931675 34.4705,2.7262948 34.370665,2.6180696 33.681666,1.7798564 33.607503,1.6715783 33.549665,1.5871339 33.307363,1.2222338 33.07472,0.86129184 32.958396,0.68081955 32.843254,0.49919104 32.752259,0.35124397 32.661261,0.20329956 32.586455,0.0666846 32.586376,0.06650733 a 0.39691468,0.39691468 0 0 0 -0.0011,-0.0015875 c 0.04543,0.10018713 -0.0054,-0.05428456 -0.01188,-0.20515447 -0.0065,-0.15087097 -0.0065,-0.34488596 -0.0031,-0.53588443 0.0034,-0.19099848 0.0097,-0.38013853 0.0155,-0.52709973 0.0019,-0.046913 0.0021,-0.059871 0.0036,-0.093534 0.09967,4.498e-4 0.155988,6.615e-4 0.297657,0.00206 0.118303,0.00116 0.23745,0.00177 0.336415,0.00156 0.09896,-2.138e-4 0.148145,0.00372 0.242361,-0.00723 0.141718,-0.016478 0.239487,-0.096801 0.291973,-0.1565796 0.05248,-0.059778 0.07687,-0.1099122 0.09715,-0.1555462 0.04056,-0.091268 0.05881,-0.1694225 0.07441,-0.2449462 0.01561,-0.075524 0.02577,-0.1457732 0.03256,-0.2030883 0.0019,-0.016671 0.0016,-0.030115 0.0031,-0.041341 0.0064,-0.011136 0.01034,-0.018934 0.01913,-0.033073 0.03128,-0.050387 0.07043,-0.1075264 0.0832,-0.1260906 0.103592,-0.1506818 0.07804,-0.201952 0.08165,-0.2537312 0.0036,-0.051779 0.0024,-0.093752 5.29e-4,-0.1338419 -0.0038,-0.08018 -0.01254,-0.1567833 -0.01394,-0.173116 a 0.39691468,0.39691468 0 0 0 -0.0021,-0.017052 c 0.0093,0.07159 0.0021,0.018891 0.0041,-0.014986 0.0019,-0.033877 0.0054,-0.07955 0.0093,-0.1240235 2.59e-4,-0.00294 2.57e-4,-0.00276 5.29e-4,-0.00568 0.0076,-0.00592 0.0085,-0.00709 0.01603,-0.01292 0.108593,-0.081444 0.157583,-0.2053728 0.170532,-0.2862877 0.01294,-0.080915 0.0047,-0.1357611 -0.0036,-0.181901 -0.01667,-0.09228 -0.04266,-0.1544399 -0.06873,-0.2139402 -0.05215,-0.1190011 -0.107714,-0.2110251 -0.129706,-0.2470134 a 0.39691468,0.39691468 0 0 0 -0.0088,-0.013436 c -0.01683,-0.025223 -0.105433,-0.1583708 -0.188102,-0.2914552 -0.0332,-0.053444 -0.06083,-0.1008308 -0.08475,-0.1431438 0.02426,-0.071126 0.0798,-0.1700017 0.02326,-0.3710366 0.02598,0.092412 0.0013,-0.00746 -0.0047,-0.079065 -0.0059,-0.07161 -0.01241,-0.1659882 -0.01963,-0.2625164 -0.0072,-0.096528 -0.01527,-0.1954046 -0.02479,-0.2831867 -0.0095,-0.087782 0.0026,-0.1260959 -0.05323,-0.2692344 -0.02468,-0.063257 -0.04679,-0.106049 -0.07235,-0.1638142 0.0656,-0.087043 0.140745,-0.1817417 0.145727,-0.250114 0.0072,-0.098455 -0.0085,-0.15504 -0.01913,-0.2025716 -0.02117,-0.095063 -0.03762,-0.155129 -0.03927,-0.1756998 -0.02323,-0.2880127 -0.143608,-0.3875132 -0.236678,-0.51108 -0.04653,-0.061783 -0.092,-0.1163127 -0.130741,-0.160197 -0.03874,-0.043884 -0.05189,-0.062194 -0.105421,-0.1090372 0.05914,0.051744 0.03328,0.033935 0.02223,0.020153 -0.01106,-0.013782 -0.02931,-0.036972 -0.05271,-0.064596 -0.0468,-0.055246 -0.113866,-0.1289423 -0.20257,-0.2036051 -0.177409,-0.1493252 -0.455946,-0.3088065 -0.813904,-0.3183268 a 0.39691468,0.39691468 0 0 0 -0.0093,0 l -1.347721,-0.00517 z m 2.766239,2.0205485 c -0.0075,0.038661 -0.02715,0.056837 -0.03101,0.066663 -0.0079,0.020143 -0.0069,0.014298 -0.0026,0.00775 0.0087,-0.013094 0.04835,-0.041531 -0.0016,-0.00827 l -0.0052,0.00362 c 0.02609,-0.016777 0.01921,-0.047581 0.04031,-0.069763 z"
         id="path8" />
      <path
         style="color:#000000;fill:#002ddc;stroke-width:0.966153;stroke-linecap:round;stroke-linejoin:round;-inkscape-stroke:none"
         d="m 21.21184,30.818594 c -2.491835,0.352732 -4.596632,0.885965 -6.112288,1.55856 -0.757828,0.336298 -1.370112,0.705657 -1.813843,1.128614 -0.443731,0.422958 -0.728121,0.923925 -0.728121,1.470711 0,0.776594 0.549871,1.434719 1.375626,1.976622 0.825756,0.541907 1.97157,1.004435 3.373956,1.393714 2.804768,0.77856 6.635911,1.252122 10.868586,1.25212 4.232674,0 8.064335,-0.47356 10.869104,-1.25212 1.402384,-0.389279 2.548199,-0.851807 3.373953,-1.393714 0.825757,-0.541903 1.375627,-1.200028 1.375627,-1.976622 0,-0.489117 -0.228806,-0.945222 -0.592211,-1.334802 -0.363405,-0.389581 -0.864891,-0.731634 -1.485181,-1.045932 a 0.396875,0.396875 0 0 0 -0.533818,0.174667 0.396875,0.396875 0 0 0 0.174668,0.533302 c 0.565041,0.286303 0.993732,0.589796 1.264004,0.879531 0.270272,0.289737 0.378788,0.546811 0.378788,0.793234 0,0.390218 -0.302646,0.843965 -1.017508,1.313098 -0.714862,0.469132 -1.797939,0.917064 -3.150195,1.292428 -2.704513,0.750729 -6.484101,1.22318 -10.657231,1.22318 -4.17313,0 -7.952203,-0.472451 -10.656713,-1.22318 -1.352257,-0.375364 -2.435851,-0.823296 -3.150713,-1.292428 -0.714863,-0.469133 -1.016992,-0.92288 -1.016992,-1.313098 0,-0.274746 0.138159,-0.56819 0.482141,-0.89607 0.343982,-0.327877 0.884354,-0.665456 1.588017,-0.977718 1.407326,-0.624522 3.459326,-1.152331 5.901964,-1.498099 a 0.396875,0.396875 0 0 0 0.337447,-0.448551 0.396875,0.396875 0 0 0 -0.449067,-0.337447 z"
         id="path10" />
      <path
         style="color:#000000;fill:#002ddc;stroke-width:0.966153;stroke-linecap:round;stroke-linejoin:round;-inkscape-stroke:none"
         d="m 21.21184,30.816009 c -2.481437,0.351261 -4.577156,0.781611 -6.090584,1.349788 -0.756715,0.284091 -1.370146,0.600453 -1.820044,0.986504 -0.449899,0.386053 -0.743624,0.87535 -0.743624,1.422135 0,0.776595 0.549871,1.434719 1.375626,1.976623 0.825756,0.541906 1.97157,1.004435 3.373956,1.393714 2.804768,0.77856 6.635911,1.251603 10.868586,1.251603 4.232674,0 8.064335,-0.473043 10.869104,-1.251603 1.402384,-0.389279 2.548199,-0.851808 3.373953,-1.393714 0.825757,-0.541904 1.375627,-1.200028 1.375627,-1.976623 0,-0.488233 -0.272039,-0.898109 -0.643371,-1.17874 -0.371332,-0.28063 -0.845381,-0.501689 -1.434021,-0.799951 a 0.396875,0.396875 0 0 0 -0.533818,0.174667 0.396875,0.396875 0 0 0 0.174668,0.533302 c 0.596691,0.302339 1.052303,0.527272 1.314648,0.725535 0.262345,0.198266 0.328144,0.300524 0.328144,0.545187 0,0.390218 -0.302646,0.84345 -1.017508,1.312582 -0.714862,0.469133 -1.797939,0.917578 -3.150195,1.292945 -2.704513,0.750729 -6.484101,1.222663 -10.657231,1.222663 -4.17313,0 -7.952203,-0.471934 -10.656713,-1.222663 -1.352257,-0.375367 -2.435851,-0.823812 -3.150713,-1.292945 -0.714863,-0.469132 -1.016992,-0.922364 -1.016992,-1.312582 0,-0.274746 0.128823,-0.529714 0.466638,-0.819589 0.337815,-0.289872 0.877556,-0.581353 1.582332,-0.845942 1.409554,-0.52918 3.470115,-0.959657 5.923152,-1.306896 a 0.396875,0.396875 0 0 0 0.337447,-0.448553 0.396875,0.396875 0 0 0 -0.449067,-0.337447 z"
         id="path12" />
    </g>
  </g>
</svg>
