<?xml version="1.0" encoding="UTF-8" standalone="no"?>
<!-- Created with Inkscape (http://www.inkscape.org/) -->

<svg
   width="100"
   height="100"
   viewBox="0 0 26.458333 26.458334"
   version="1.1"
   id="svg127350"
   inkscape:export-filename="C:\Users\Agathe\Desktop\commerces.png"
   inkscape:export-xdpi="200"
   inkscape:export-ydpi="200"
   inkscape:version="1.1 (c68e22c387, 2021-05-23)"
   sodipodi:docname="FTNE_PETILLANTE.svg"
   xmlns:inkscape="http://www.inkscape.org/namespaces/inkscape"
   xmlns:sodipodi="http://sodipodi.sourceforge.net/DTD/sodipodi-0.dtd"
   xmlns="http://www.w3.org/2000/svg"
   xmlns:svg="http://www.w3.org/2000/svg">
  <sodipodi:namedview
     id="namedview127352"
     pagecolor="#ffffff"
     bordercolor="#666666"
     borderopacity="1.0"
     inkscape:pageshadow="2"
     inkscape:pageopacity="0"
     inkscape:pagecheckerboard="0"
     inkscape:document-units="mm"
     showgrid="false"
     units="px"
     inkscape:zoom="23.889113"
     inkscape:cx="54.334374"
     inkscape:cy="48.285593"
     inkscape:window-width="2400"
     inkscape:window-height="1271"
     inkscape:window-x="2391"
     inkscape:window-y="-9"
     inkscape:window-maximized="1"
     inkscape:current-layer="layer1" />
  <defs
     id="defs127347" />
  <g
     inkscape:label="Calque 1"
     inkscape:groupmode="layer"
     id="layer1">
    <path
       id="path6"
       style="color:#000000;fill:#002ddc;stroke:#002ddc;stroke-width:0.11338583;stroke-opacity:1;fill-opacity:1;stroke-miterlimit:4;stroke-dasharray:none"
       d="M 51.125 29.808594 C 50.276004 29.796297 49.432746 29.883272 48.591797 30.005859 C 47.367324 30.185187 46.155181 30.443816 44.953125 30.732422 C 42.19596 31.390892 39.474562 32.203135 36.773438 33.060547 C 34.624305 33.744234 32.486091 34.466966 30.359375 35.220703 C 29.883035 35.388824 29.409933 35.558699 28.933594 35.732422 C 28.902791 35.743647 28.870666 35.756353 28.839844 35.767578 C 28.654911 35.840432 28.582527 35.964776 28.464844 36.113281 C 28.319139 36.303819 28.171095 36.493058 28.025391 36.683594 C 27.809636 36.960992 27.949073 37.240946 28.052734 37.535156 C 28.136795 37.776128 28.252742 37.842826 28.462891 37.929688 L 29.207031 38.244141 C 29.515252 38.373023 29.832322 38.552404 30.160156 38.630859 C 31.13245 38.863414 32.121712 39.050464 33.099609 39.257812 L 33.539062 39.349609 L 33.539062 59.931641 C 33.539062 60.584505 33.511056 61.241667 33.539062 61.894531 C 33.542942 61.978266 33.568148 62.057127 33.605469 62.130859 C 33.606641 62.231803 33.607056 62.332742 33.609375 62.433594 C 33.617766 62.772617 33.887342 62.95765 34.136719 63.142578 C 34.716733 63.565681 35.406494 63.844966 36.076172 64.085938 C 37.493983 64.593101 38.987597 64.890223 40.472656 65.117188 C 43.112138 65.51787 45.782566 65.685551 48.447266 65.75 C 48.579646 65.753398 48.71148 65.755029 48.84375 65.757812 C 49.134392 65.764799 49.424432 65.771773 49.714844 65.775391 C 50.055346 65.779398 50.395509 65.778449 50.736328 65.779297 L 50.736328 65.785156 C 53.563543 65.785156 56.394929 65.69952 59.210938 65.427734 C 59.883418 65.363293 60.556883 65.285807 61.226562 65.193359 C 61.450726 65.162367 61.572785 64.874739 61.519531 64.675781 C 61.452293 64.432002 61.228921 64.350018 61.001953 64.380859 C 60.990222 64.38242 60.975634 64.382812 60.974609 64.382812 C 60.943617 64.385613 60.909747 64.391508 60.878906 64.394531 C 60.814465 64.402846 60.749988 64.411229 60.685547 64.419922 C 60.537049 64.439575 60.388721 64.455686 60.240234 64.472656 C 59.95163 64.506294 59.663609 64.5384 59.375 64.566406 C 58.727741 64.630847 58.075845 64.68369 57.425781 64.728516 C 56.038789 64.823798 54.647605 64.879315 53.257812 64.910156 C 52.417212 64.926786 51.576929 64.935547 50.736328 64.935547 C 50.715025 64.935547 50.693453 64.936947 50.673828 64.939453 C 50.430577 64.938944 50.187047 64.937231 49.943359 64.935547 C 47.844184 64.91313 45.742874 64.818144 43.654297 64.601562 C 42.718433 64.503484 41.94504 64.402982 41.017578 64.246094 C 40.289059 64.122806 39.563016 63.974257 38.845703 63.794922 C 38.282504 63.654815 37.726077 63.49521 37.179688 63.304688 C 36.952727 63.226225 36.728066 63.142385 36.503906 63.052734 C 36.462773 63.035763 36.421993 63.018885 36.380859 63.001953 C 36.378512 63.001071 36.37338 62.997822 36.369141 62.996094 C 36.366567 62.995052 36.363859 62.995177 36.361328 62.994141 C 36.354758 62.991435 36.357767 62.991967 36.353516 62.990234 C 36.331593 62.981172 36.311693 62.972048 36.289062 62.962891 C 36.196596 62.923659 36.106134 62.881872 36.013672 62.839844 C 35.716661 62.702534 35.427788 62.547878 35.150391 62.376953 C 35.043914 62.309715 34.938766 62.242753 34.837891 62.169922 C 34.80997 62.150621 34.78296 62.129358 34.755859 62.109375 C 34.736246 62.095362 34.693197 62.064134 34.667969 62.042969 C 34.590269 61.979589 34.517907 61.912246 34.447266 61.841797 L 34.447266 41.917969 C 34.447266 40.970895 34.4837 40.014586 34.447266 39.070312 L 34.447266 39.027344 C 34.447266 38.850802 34.317999 38.660314 34.138672 38.621094 L 31.808594 38.123047 L 30.525391 37.847656 C 30.463747 37.833672 30.177332 37.751348 30.404297 37.84375 C 30.264197 37.784907 30.124476 37.724859 29.984375 37.666016 L 28.818359 37.173828 L 28.78125 37.064453 L 29.195312 36.53125 C 29.695951 36.347401 30.198383 36.167237 30.701172 35.990234 C 32.079755 35.502687 33.464573 35.02984 34.851562 34.570312 C 36.667257 33.967883 38.491711 33.391499 40.324219 32.853516 C 42.181943 32.307126 44.050906 31.793091 45.939453 31.367188 C 46.763243 31.182255 47.589684 31.015354 48.421875 30.880859 C 48.609604 30.850018 48.799697 30.822092 48.990234 30.796875 C 49.009888 30.796875 49.029212 30.789906 49.048828 30.787109 C 49.050477 30.786989 49.053596 30.787109 49.054688 30.787109 C 49.099513 30.781516 49.14459 30.777078 49.189453 30.771484 C 49.279104 30.760259 49.365428 30.748663 49.455078 30.740234 C 49.782914 30.7038 50.108816 30.67612 50.439453 30.662109 C 51.896491 30.603266 53.187997 30.816097 54.591797 31.087891 C 56.44392 31.446545 58.273046 31.921677 60.085938 32.431641 C 61.968879 32.961218 63.840643 33.541253 65.701172 34.146484 C 67.222655 34.642438 68.741673 35.159027 70.251953 35.691406 C 71.027778 35.963771 71.803001 36.241523 72.576172 36.527344 L 72.988281 37.068359 L 72.955078 37.175781 L 71.96875 37.59375 L 71.453125 37.810547 C 71.462031 37.805781 71.469812 37.802 71.466797 37.800781 C 71.438828 37.795112 71.383475 37.817479 71.355469 37.826172 L 68.570312 38.419922 L 67.640625 38.619141 C 67.461286 38.658372 67.332031 38.848856 67.332031 39.025391 L 67.332031 59.841797 C 67.332031 60.800081 67.298393 61.766325 67.332031 62.724609 L 67.332031 62.767578 C 67.332031 63.308364 68.171875 63.308364 68.171875 62.767578 L 68.177734 62.767578 L 68.177734 39.994141 C 68.177734 39.786887 68.18987 39.573801 68.189453 39.363281 L 70.455078 38.878906 C 70.85296 38.79485 71.259215 38.725838 71.654297 38.625 C 71.98493 38.538146 72.307268 38.358253 72.621094 38.226562 L 73.349609 37.917969 C 73.559751 37.828318 73.676052 37.719742 73.746094 37.484375 C 73.82176 37.229393 73.946718 36.975092 73.78125 36.728516 C 73.635549 36.512761 73.46552 36.310864 73.308594 36.103516 C 73.202124 35.963416 73.115151 35.834827 72.941406 35.767578 C 72.907768 35.753556 72.871528 35.740581 72.837891 35.726562 C 72.655906 35.659302 72.477042 35.593742 72.294922 35.529297 C 70.484834 34.870826 68.665645 34.238893 66.835938 33.630859 C 64.162833 32.745428 61.473539 31.908718 58.75 31.191406 C 57.449873 30.846761 56.140903 30.529268 54.818359 30.271484 C 53.719976 30.058533 52.60823 29.876352 51.490234 29.820312 C 51.368698 29.814358 51.246285 29.81035 51.125 29.808594 z "
       transform="scale(0.26458333)" />
    <g
       id="g20"
       style="stroke:#002ddc;stroke-width:0.40466062;stroke-opacity:1;fill:#002ddc;fill-opacity:1;stroke-miterlimit:4;stroke-dasharray:none"
       transform="matrix(0.0741362,0,0,0.0741362,2.8326817,1.1199958)">
      <path
         style="color:#000000;fill:#002ddc;stroke:#002ddc;stroke-width:0.40466062;stroke-opacity:1;fill-opacity:1;stroke-miterlimit:4;stroke-dasharray:none"
         d="m 169.56,183.79 c -0.83,1.21 -1.98,2.4 -3.07,3.51 -1.09,1.11 -2.28,2.3 -3.65,3.19 -1.5,0.98 -3.11,1.75 -4.71,2.53 -1.62,0.78 -3.27,1.34 -5.04,1.67 -1.76,0.33 -3.55,0.43 -5.33,0.47 -1.69,0.04 -3.39,0.06 -5.07,-0.1 -2.62,-0.24 -5.66,-1 -8.17,-2.04 -5.07,-2.12 -9.55,-5.85 -12.55,-10.39 -3,-4.54 -4.76,-10.22 -4.69,-15.86 0.01,-0.9 0.07,-1.8 0.17,-2.7 0.02,-0.22 0.05,-0.43 0.08,-0.65 -0.04,0.31 0,0.05 0.01,-0.1 0.02,-0.13 0.04,-0.26 0.06,-0.39 0.08,-0.49 0.16,-0.98 0.26,-1.47 0.41,-2.11 0.96,-4.2 1.6,-6.25 0.7,-2.22 1.5,-4.4 2.38,-6.55 0.11,-0.28 0.23,-0.56 0.35,-0.84 0.11,-0.26 -0.04,0.1 0.07,-0.16 0.06,-0.15 0.13,-0.3 0.19,-0.45 0.24,-0.56 0.49,-1.12 0.74,-1.68 0.51,-1.13 1.04,-2.25 1.59,-3.36 2.16,-4.38 4.58,-8.63 7.28,-12.69 0.63,-0.95 1.28,-1.89 1.95,-2.82 0.31,-0.43 0.62,-0.86 0.94,-1.29 0.16,-0.22 0.32,-0.43 0.49,-0.65 0.07,-0.1 0.15,-0.2 0.23,-0.29 0.1,-0.14 -0.04,0.05 -0.05,0.06 0.05,-0.06 0.1,-0.13 0.15,-0.19 1.21,-1.55 2.48,-3.05 3.84,-4.46 0.59,-0.62 1.21,-1.22 1.85,-1.79 0.29,-0.26 0.59,-0.52 0.89,-0.77 0.13,-0.11 0.27,-0.22 0.41,-0.32 -0.34,0.28 0.1,-0.07 0.23,-0.17 0.53,-0.39 1.08,-0.75 1.66,-1.06 0.12,-0.06 0.24,-0.13 0.37,-0.19 0.06,-0.03 0.12,-0.06 0.18,-0.09 0.32,-0.15 0.01,0.06 -0.06,0.02 0.07,0.04 0.65,-0.24 0.75,-0.26 0.11,-0.03 0.22,-0.06 0.33,-0.08 0.05,-0.01 0.11,-0.02 0.16,-0.03 0.29,-0.06 -0.01,0.07 -0.13,0.01 0.13,0.06 0.52,-0.03 0.67,-0.03 0.05,0 0.1,0 0.15,0.01 0.25,0 -0.17,0.01 -0.2,-0.03 0.04,0.04 0.27,0.05 0.33,0.07 0.09,0.02 0.18,0.06 0.27,0.09 0.24,0.06 -0.36,-0.2 -0.03,0 0.09,0.05 0.18,0.11 0.27,0.16 0.32,0.18 -0.24,-0.24 0,0 0.16,0.15 0.31,0.36 0.48,0.5 0.03,0.03 -0.23,-0.34 -0.08,-0.1 0.03,0.05 0.07,0.1 0.1,0.15 0.07,0.11 0.14,0.22 0.2,0.34 0.07,0.12 0.13,0.25 0.19,0.38 0.19,0.39 -0.09,-0.25 0.05,0.12 0.55,1.52 1.03,3.07 1.6,4.58 0.28,0.76 1.01,1.28 1.85,1.05 0.73,-0.2 1.33,-1.08 1.05,-1.85 -0.58,-1.55 -1.03,-3.15 -1.63,-4.68 -0.3,-0.75 -0.64,-1.41 -1.14,-2.04 -0.81,-1 -1.93,-1.58 -3.2,-1.71 -2.74,-0.29 -5.41,1.74 -7.36,3.4 -3.08,2.63 -5.65,5.86 -8.02,9.12 -2.91,4 -5.5,8.23 -7.84,12.59 -2.43,4.55 -4.6,9.27 -6.35,14.12 -1.52,4.22 -2.75,8.59 -3.2,13.07 -0.57,5.66 0.6,11.46 3.12,16.54 2.68,5.42 7.02,10.02 12.25,13.06 2.65,1.54 5.55,2.7 8.54,3.39 3.36,0.77 6.78,0.89 10.22,0.76 1.97,-0.07 3.94,-0.26 5.87,-0.66 1.95,-0.41 3.74,-1.14 5.52,-2.01 1.66,-0.8 3.32,-1.62 4.85,-2.67 1.53,-1.05 2.77,-2.28 4.04,-3.59 1.19,-1.23 2.37,-2.5 3.34,-3.91 0.46,-0.67 0.12,-1.66 -0.54,-2.05 -0.74,-0.43 -1.59,-0.13 -2.05,0.54 v 0 z"
         id="path14" />
      <path
         style="color:#000000;fill:#002ddc;stroke:#002ddc;stroke-width:0.40466062;stroke-opacity:1;fill-opacity:1;stroke-miterlimit:4;stroke-dasharray:none"
         d="m 154.95,131.77 c 2.7,5.06 5.92,9.78 9.26,14.44 2.66,3.72 5.44,7.46 7.32,11.66 1.3,2.9 1.97,6.03 1.98,9.2 0,1.93 3.01,1.93 3,0 -0.01,-3.01 -0.54,-6 -1.6,-8.82 -0.89,-2.35 -2.06,-4.57 -3.39,-6.7 -2.67,-4.27 -5.79,-8.23 -8.6,-12.41 -1.93,-2.88 -3.74,-5.83 -5.37,-8.89 -0.38,-0.71 -1.37,-0.94 -2.05,-0.54 -0.72,0.42 -0.92,1.33 -0.54,2.05 v 0 z"
         id="path16" />
      <path
         style="color:#000000;fill:#002ddc;stroke:#002ddc;stroke-width:0.40466062;stroke-opacity:1;fill-opacity:1;stroke-miterlimit:4;stroke-dasharray:none"
         d="m 162.91,165.94 c -0.03,7.96 -5.09,15.36 -12.53,18.09 -2.29,0.84 -4.41,1.21 -6.78,1.22 -1.93,0 -1.93,3.01 0,3 4.57,-0.02 9.13,-1.42 12.86,-4.09 3.7,-2.65 6.51,-6.31 8.1,-10.57 0.91,-2.44 1.34,-5.05 1.35,-7.65 0,-1.93 -2.99,-1.93 -3,0 z"
         id="path18" />
    </g>
    <path
       style="color:#000000;fill:#002ddc;stroke:#002ddc;stroke-width:0.03;stroke-opacity:1;fill-opacity:1;stroke-miterlimit:4;stroke-dasharray:none"
       d="m 14.929485,13.386571 c -0.110462,0.557505 -0.309889,1.226955 -0.912616,1.42564 -0.167548,0.05486 -0.342509,0.07117 -0.518212,0.06969 -0.143083,-0.0015 -0.143083,0.220925 0,0.222408 0.345474,0.0037 0.687984,-0.06821 0.96377,-0.285424 0.256512,-0.201651 0.423318,-0.493747 0.531557,-0.797706 0.06672,-0.186823 0.110463,-0.38106 0.149014,-0.575297 0.01186,-0.05857 -0.01705,-0.1201 -0.07784,-0.137152 -0.05486,-0.01483 -0.12529,0.01853 -0.137152,0.07784 v 0 z"
       id="path24" />
    <path
       style="color:#000000;fill:#002ddc;stroke:#002ddc;stroke-width:0.03;stroke-linecap:round;stroke-linejoin:round;stroke-opacity:1;fill-opacity:1;stroke-miterlimit:4;stroke-dasharray:none"
       d="m 9.9720557,7.1117066 c -0.1717517,0 -0.3136309,0.1410703 -0.3136309,0.3136309 0,0.1722077 0.1414232,0.3134861 0.3136309,0.3134861 0.1725603,0 0.3134863,-0.1417344 0.3134863,-0.3134861 0,-0.1725606 -0.141735,-0.3136309 -0.3134863,-0.3136309 z m 0,0.1779559 c 0.075863,0 0.1356753,0.059138 0.1356753,0.135675 0,0.075863 -0.05914,0.135675 -0.1356753,0.135675 -0.07689,0 -0.1356751,-0.058785 -0.1356751,-0.135675 0,-0.076537 0.059812,-0.135675 0.1356751,-0.135675 z"
       id="path26" />
    <path
       style="color:#000000;fill:#002ddc;stroke:#002ddc;stroke-width:0.03;stroke-linecap:round;stroke-linejoin:round;stroke-opacity:1;fill-opacity:1;stroke-miterlimit:4;stroke-dasharray:none"
       d="m 16.169813,5.9384144 c -0.142219,0 -0.259911,0.1168835 -0.259911,0.2599111 0,0.1426738 0.117237,0.2599111 0.259911,0.2599111 0.142674,0 0.259767,-0.1172373 0.259767,-0.2599111 0,-0.1430276 -0.117547,-0.2599111 -0.259767,-0.2599111 z m 0,0.1475484 c 0.0624,0 0.112218,0.049292 0.112218,0.1123627 0,0.063425 -0.04879,0.1123627 -0.112218,0.1123627 -0.06342,0 -0.112362,-0.048938 -0.112362,-0.1123627 0,-0.063071 0.04997,-0.1123627 0.112362,-0.1123627 z"
       id="path28" />
    <path
       style="color:#000000;fill:#002ddc;stroke:#002ddc;stroke-width:0.03;stroke-linecap:round;stroke-linejoin:round;stroke-opacity:1;fill-opacity:1;stroke-miterlimit:4;stroke-dasharray:none"
       d="m 19.609762,11.820803 c -0.08583,0 -0.156526,0.07055 -0.156526,0.156381 0,0.08583 0.0707,0.156526 0.156526,0.156526 0.08547,0 0.156381,-0.07024 0.156381,-0.156526 0,-0.08583 -0.07055,-0.156381 -0.156381,-0.156381 z m 0,0.08891 c 0.03724,0 0.06748,0.03024 0.06748,0.06747 0,0.03827 -0.02988,0.06748 -0.06748,0.06748 -0.03724,0 -0.06748,-0.03024 -0.06748,-0.06748 0,-0.03724 0.03024,-0.06747 0.06748,-0.06747 z"
       id="path30" />
    <path
       style="color:#000000;fill:#002ddc;stroke:#002ddc;stroke-width:0.03;stroke-linecap:round;stroke-linejoin:round;stroke-opacity:1;fill-opacity:1;stroke-miterlimit:4;stroke-dasharray:none"
       d="m 7.3347182,13.18711 c -0.045877,0.002 -0.083511,0.02689 -0.1190233,0.06241 a 0.06598782,0.06598782 0 0 0 -1.482e-4,0 c -0.065356,0.06557 -0.097702,0.132954 -0.08905,0.198517 0.00865,0.06556 0.05773,0.1103 0.10715,0.132055 0.04942,0.02176 0.1032656,0.02763 0.1547883,0.0139 0.025761,-0.0069 0.051779,-0.01936 0.072833,-0.0417 0.021054,-0.02234 0.034607,-0.05549 0.034607,-0.08862 0,-0.0794 -0.00844,-0.157417 -0.052272,-0.219223 -0.021914,-0.0309 -0.06301,-0.05935 -0.1088875,-0.05734 z m 0.00145,0.135241 c 0.010771,0.01606 0.027093,0.07771 0.027367,0.140163 -7.414e-4,5.19e-4 -0.0024,0.0022 -0.00898,0.0039 -0.015686,0.0042 -0.046663,0.0022 -0.067765,-0.0071 -0.021102,-0.0093 -0.028251,-0.01877 -0.029539,-0.02853 -0.00129,-0.0098 0.00265,-0.03869 0.051837,-0.08804 0.019423,-0.01937 0.026428,-0.01988 0.027077,-0.02042 z"
       id="path32" />
    <path
       style="color:#000000;fill:#002ddc;stroke:#002ddc;stroke-width:0.03;stroke-linecap:round;stroke-linejoin:round;stroke-opacity:1;fill-opacity:1;stroke-miterlimit:4;stroke-dasharray:none"
       d="m 19.052148,15.290435 a 0.08897234,0.08897234 0 0 0 -0.08109,0.05256 c -0.04078,0.09095 -0.04283,0.18139 -0.01071,0.252382 0.03212,0.07099 0.09224,0.117118 0.154643,0.140453 0.0624,0.02333 0.129446,0.02769 0.192581,0.0035 0.06313,-0.02422 0.120471,-0.09401 0.120471,-0.173901 0,-0.06938 -0.03061,-0.131347 -0.07167,-0.171296 -0.04106,-0.03995 -0.08907,-0.06185 -0.133213,-0.07616 -0.08828,-0.02863 -0.171005,-0.02751 -0.171005,-0.02751 z m 0.07457,0.189974 c 0.01815,0.0028 0.02181,3.71e-4 0.04156,0.0068 0.02759,0.0089 0.05127,0.02207 0.064,0.03446 0.01273,0.01239 0.01781,0.02007 0.01781,0.04373 0,0.01314 0.0051,0.0035 -0.0062,0.0078 -0.01128,0.0043 -0.04064,0.0056 -0.06646,-0.0041 -0.02582,-0.0097 -0.04572,-0.02649 -0.05502,-0.04706 -0.0036,-0.0081 0.0051,-0.02982 0.0043,-0.0417 z"
       id="path34" />
  </g>
</svg>
