<?xml version="1.0" encoding="UTF-8" standalone="no"?>
<!-- Created with Inkscape (http://www.inkscape.org/) -->

<svg
   width="100"
   height="100"
   viewBox="0 0 26.458333 26.458334"
   version="1.1"
   id="svg127350"
   inkscape:export-filename="C:\Users\Agathe\Desktop\commerces.png"
   inkscape:export-xdpi="200"
   inkscape:export-ydpi="200"
   inkscape:version="1.1 (c68e22c387, 2021-05-23)"
   sodipodi:docname="FTNE_POING_EAU_white.svg"
   xmlns:inkscape="http://www.inkscape.org/namespaces/inkscape"
   xmlns:sodipodi="http://sodipodi.sourceforge.net/DTD/sodipodi-0.dtd"
   xmlns="http://www.w3.org/2000/svg"
   xmlns:svg="http://www.w3.org/2000/svg">
  <sodipodi:namedview
     id="namedview127352"
     pagecolor="#ffffff"
     bordercolor="#666666"
     borderopacity="1.0"
     inkscape:pageshadow="2"
     inkscape:pageopacity="0"
     inkscape:pagecheckerboard="0"
     inkscape:document-units="mm"
     showgrid="false"
     units="px"
     inkscape:zoom="5.9722783"
     inkscape:cx="54.250653"
     inkscape:cy="31.562494"
     inkscape:window-width="2400"
     inkscape:window-height="1271"
     inkscape:window-x="2391"
     inkscape:window-y="-9"
     inkscape:window-maximized="1"
     inkscape:current-layer="layer1" />
  <defs
     id="defs127347" />
  <g
     inkscape:label="Calque 1"
     inkscape:groupmode="layer"
     id="layer1">
    <g
       id="g4118"
       transform="matrix(0.26578596,0,0,0.26578596,8.9584118,12.643169)"
       style="stroke-width:3.76243;fill:#ffffff">
      <path
         style="color:#000000;fill:#ffffff;stroke-width:0.995474;stroke-linecap:round;stroke-linejoin:round;-inkscape-stroke:none"
         d="m 15.155202,-29.233635 c -1.026549,0.100945 -1.742969,0.996179 -2.247408,1.791106 -0.36753,0.579179 -0.57146,1.036715 -0.682646,1.300695 a 0.39691468,0.39691468 0 0 0 -0.401524,0.272852 l -0.280088,1.18184 -2.2964983,0.103353 a 0.39691468,0.39691468 0 0 0 -0.3751712,0.343648 l -0.1162738,0.861446 c -0.279998,0.05112 -0.9916107,0.188619 -1.429885,0.188619 -0.1106541,0 -0.2123255,0.0039 -0.3410665,0.06666 -0.1287409,0.06281 -0.2820511,0.277604 -0.269232,0.455786 0.012806,0.178182 0.090749,0.265037 0.1545113,0.335897 0.063765,0.07086 0.1318366,0.125176 0.2077403,0.176733 0.3036146,0.206229 0.7373382,0.377755 1.2164615,0.377755 0.4114165,0 0.7482285,-0.04266 0.8319902,-0.02791 0.00378,0.01219 0.028139,0.07891 0.013441,0.257349 a 0.39691468,0.39691468 0 0 0 -5.292e-4,5.29e-4 c -0.014578,0.178685 -0.046815,0.400791 -0.041857,0.636654 0.00392,0.186081 0.061346,0.402219 0.1963711,0.593245 -0.00132,0.0106 -0.00159,0.02115 -0.01188,0.05891 -0.028207,0.104064 -0.095247,0.269489 -0.172085,0.429948 -0.15367,0.320918 -0.3400292,0.628902 -0.3400292,0.628902 a 0.39691468,0.39691468 0 0 0 0.1772523,0.568429 l 0.2284095,0.101803 0.1286748,0.23306 a 0.39691468,0.39691468 0 0 0 0.045474,0.06563 l 0.2330609,0.272852 -0.036171,-0.04961 c 0,0 0.091869,0.150731 0.22996,0.306442 0.1380887,0.155711 0.3095863,0.384989 0.6898793,0.384989 0.02323,0 0.224052,0.04065 0.363284,0.118856 0.139234,0.0782 0.206872,0.171302 0.214458,0.213423 0.01479,0.08213 -0.01156,0.160196 -0.07597,0.267684 -0.0322,0.05374 -0.0712,0.107636 -0.11317,0.170016 -0.04197,0.06238 -0.126608,0.09506 -0.126608,0.343648 0,0.10137 0.0085,0.249144 0.08165,0.432532 -0.204668,0.174357 -0.4074,0.410122 -0.429948,0.784448 -0.02077,0.344864 -0.05905,1.295107 -0.178284,2.368847 -0.119232,1.07374 -0.3289642,2.2684 -0.6428553,3.0024019 -0.7178622,1.6724895 -1.3912691,4.0942207 -1.5616607,4.6054036 -0.140933,0.4214998 -0.1664388,0.8318844 0.00878,1.1828727 0.1078945,0.2161223 0.3189129,0.3494326 0.5565564,0.4330488 -0.030136,0.058047 -0.034552,0.06817 -0.070281,0.137459 -0.2220833,0.4306755 -0.522814,1.0888954 -0.4780068,1.8815394 0.037798,0.66863117 0.2129366,4.2220382 0.3875722,7.7101223 0.087318,1.7440433 0.1746382,3.4732938 0.244946,4.8229623 0.07031,1.349669 0.1214358,2.296089 0.1436608,2.554367 0.032049,0.372422 0.036893,1.8654 0.04186,3.22771 0.00238,0.681154 0.00606,1.34021 0.016536,1.842781 0.00524,0.251285 0.012409,0.462359 0.022225,0.623734 0.0032,0.0526 0.0077,0.09323 0.01188,0.136427 -0.094499,0.06585 -0.2403978,0.153826 -0.4103106,0.240811 -0.181909,0.09313 -0.3831828,0.184012 -0.5565537,0.251147 -0.1733735,0.06714 -0.3362774,0.107112 -0.3570843,0.109038 -0.3640217,0.03391 -0.6941396,0.1925 -0.9673828,0.45062 -0.068313,0.06453 -0.1337998,0.137964 -0.1850019,0.244427 -0.051202,0.106466 -0.083751,0.267462 -0.031007,0.422198 0.052745,0.154736 0.171159,0.261189 0.2831862,0.323493 0.1120273,0.0623 0.2283302,0.09533 0.3627702,0.119891 0.012912,0.0024 0.010213,0.0037 0.021193,0.0062 -0.021855,0.05512 -0.047572,0.06747 -0.046508,0.184999 0.00106,0.111316 0.053409,0.262988 0.1462458,0.359669 0.092834,0.09668 0.1975935,0.142823 0.3007572,0.174149 0.26398,0.08016 0.5353023,0.07418 0.943094,0.08217 0.4077917,0.008 0.898988,0.0046 1.3828607,-0.0026 0.4838726,-0.0071 0.9604026,-0.01791 1.3332506,-0.02429 0.186426,-0.0032 0.347054,-0.0051 0.467672,-0.0052 0.04197,-3.5e-5 0.0366,1.19e-4 0.06976,0.0011 0.0021,0.0076 2.65e-4,0.0026 0.0026,0.01085 0.02604,0.09358 0.07435,0.238344 0.197403,0.367419 0.12306,0.129074 0.307835,0.214122 0.507463,0.242361 0.391549,0.05539 0.73011,-0.06383 1.046964,-0.172599 0.316857,-0.10877 0.62208,-0.218913 0.947745,-0.251147 0.186288,-0.01844 0.300869,-0.02307 0.356569,-0.02016 0.0557,0.0029 0.04099,0.0024 0.05581,0.0098 0.02964,0.01487 0.205018,0.157634 0.588595,0.327629 0.731813,0.324326 1.25168,0.382397 2.059821,0.219109 0.418518,-0.08456 0.68463,-0.308173 0.802536,-0.562239 0.286356,0.03981 0.920422,0.128823 1.950268,0.261998 1.237766,0.160065 2.579939,0.325773 3.159498,0.347781 a 0.39691468,0.39691468 0 0 0 5.29e-4,0 c 0.638424,0.02418 1.13406,-0.235513 1.418519,-0.561205 0.09396,-0.107584 0.128465,-0.239926 0.175699,-0.366903 0.176763,0.01453 0.365091,0.02561 0.571024,-0.02635 0.106042,-0.02676 0.22742,-0.07049 0.337965,-0.185002 0.110435,-0.114401 0.171334,-0.311076 0.151929,-0.467672 -0.04623,-0.37305 -0.27315,-0.569312 -0.517797,-0.799949 -0.24465,-0.230638 -0.542785,-0.458706 -0.83561,-0.669727 -0.292822,-0.211024 -0.580038,-0.403564 -0.788583,-0.547254 -0.07705,-0.05309 -0.127177,-0.08991 -0.176733,-0.126089 0.0016,-0.07103 0.0013,-0.07956 0.0047,-0.209291 0.0061,-0.238641 0.01572,-0.575424 0.02791,-0.980302 0.02434,-0.809755 0.06053,-1.893303 0.109037,-3.016354 0.04851,-1.123047 0.109241,-2.285674 0.181385,-3.250964 0.07213,-0.965047 0.16814,-1.762755 0.240811,-2.027783 v -5.29e-4 c 0.135773,-0.4943976 0.198758,-1.2616469 0.242879,-2.1957319 0.04413,-0.9343019 0.05965,-2.015863 0.06098,-3.0447747 0.0026,-2.0578259 -0.05168,-3.9062236 -0.05168,-3.9062236 a 0.39691468,0.39691468 0 0 0 -0.0026,-0.0356553 c 0,0 -0.116932,-0.9719495 -0.194818,-2.0220992 -0.03894,-0.5250736 -0.06797,-1.0696787 -0.06821,-1.51257 -2.39e-4,-0.4428913 0.07237,-0.8303683 0.06873,-0.8226875 a 0.39691468,0.39691468 0 0 0 5.29e-4,-0.00106 c 0.06819,-0.1451134 0.113882,-0.2242952 0.14056,-0.2650993 0.07247,-0.01352 0.179451,-0.042524 0.284221,-0.104386 0.226176,-0.1335511 0.287531,-0.3455485 0.316778,-0.5079789 0.02924,-0.1624329 0.02614,-0.3165104 0.01601,-0.4594039 -0.02024,-0.2857897 -0.07906,-0.5353685 -0.07906,-0.5353685 A 0.39691468,0.39691468 0 0 0 24.768599,-5.6362 L 24.52727,-5.7819272 c -0.03289,-0.2501662 -0.309838,-2.3482723 -0.364318,-3.1631122 a 0.39691468,0.39691468 0 0 0 0,-5.292e-4 c -0.03336,-0.4844547 -0.186211,-0.8829542 -0.206706,-1.1384304 -0.01024,-0.127738 0.0026,-0.205872 0.03824,-0.274918 0.03559,-0.06892 0.104634,-0.151612 0.286287,-0.250116 l 5.29e-4,-5.29e-4 c 0.513889,-0.277495 0.95822,-0.651867 1.270725,-1.086239 0.312631,-0.434552 0.500345,-0.944108 0.422195,-1.464511 -0.07782,-0.51824 -0.39208,-0.952675 -0.773596,-1.318781 -0.351595,-0.337397 -0.775827,-0.60605 -1.189591,-0.826824 -0.260453,-0.430012 -0.611206,-0.858613 -0.935344,-1.276924 -0.346173,-0.446747 -0.639316,-0.888028 -0.722953,-1.187008 a 0.39691468,0.39691468 0 0 0 -5.29e-4,-5.29e-4 c -0.0428,-0.151858 -0.117967,-0.43283 -0.108006,-0.674377 0.0099,-0.240956 0.04134,-0.37356 0.284737,-0.475424 0.524206,-0.215284 0.862481,-0.132808 0.862481,-0.132808 a 0.39691468,0.39691468 0 0 0 0.177765,-0.0021 c 0.207259,-0.05027 0.370806,-0.113172 0.509014,-0.208772 0.138207,-0.0956 0.244276,-0.237681 0.291973,-0.370521 0.04901,-0.136496 0.02461,-0.122684 0.02739,-0.183451 0.118253,-0.01771 0.156829,0.0039 0.314711,-0.0739 a 0.39691468,0.39691468 0 0 0 0.177766,-0.1757 c 0.131355,-0.25674 0.05199,-0.393192 0.03617,-0.486792 -0.0016,-0.0095 -0.0011,0.0013 -0.0021,-0.0072 0.02595,-0.02413 0.07603,-0.04025 0.09767,-0.06408 0.04227,-0.04655 0.07655,-0.09197 0.106453,-0.140043 0.02991,-0.04807 0.05907,-0.07783 0.08165,-0.196371 a 0.39691468,0.39691468 0 0 0 0.0011,-0.0078 c 0.03701,-0.216772 -0.02524,-0.272174 -0.05839,-0.347266 -0.02373,-0.05375 -0.05026,-0.09871 -0.07648,-0.144694 0.07114,-0.01728 0.143352,-0.03187 0.232543,-0.08888 0.1134,-0.07249 0.262834,-0.260815 0.251666,-0.470256 -0.01386,-0.260174 -0.116607,-0.401196 -0.206706,-0.556555 -0.08995,-0.155106 -0.187764,-0.299218 -0.230478,-0.370003 0.05603,0.09338 0.01397,0.02791 0.0041,-0.03824 -0.0098,-0.06615 -0.01863,-0.157476 -0.02479,-0.24598 -0.01238,-0.177006 -0.01551,-0.342098 -0.01551,-0.342098 a 0.39691468,0.39691468 0 0 0 -0.02739,-0.137459 c 0,0 -0.112951,-0.287465 -0.286806,-0.629936 -0.173852,-0.34247 -0.394255,-0.742805 -0.706416,-1.028361 -0.485611,-0.444224 -1.83193,-1.617847 -3.492809,-1.256254 -0.805715,0.17412 -1.312072,0.590602 -1.639176,0.938961 -0.163605,0.174234 -0.287981,0.330196 -0.380339,0.42478 -0.09236,0.09459 -0.134863,0.106561 -0.127643,0.10542 a 0.396875,0.396875 0 0 0 -0.241326,0.147795 c -0.0375,-0.146108 -0.27391,-1.051063 -0.715719,-2.036568 -0.239279,-0.533736 -0.529402,-1.06967 -0.894003,-1.489832 -0.364599,-0.420162 -0.847059,-0.755011 -1.420069,-0.698665 z m 0.07803,0.789616 c 0.220736,-0.02171 0.464251,0.108161 0.74259,0.428915 0.278336,0.320753 0.548365,0.801834 0.769461,1.295011 0.442193,0.986354 0.699183,2.007113 0.699183,2.007113 a 0.396875,0.396875 0 0 0 0.481623,0.288871 0.396875,0.396875 0 0 0 0.256315,-0.215491 0.396875,0.396875 0 0 0 0.367935,0.267167 c 0.258575,-0.04083 0.434044,-0.194051 0.571543,-0.334863 0.137498,-0.140812 0.254492,-0.290051 0.391191,-0.435632 0.273397,-0.291162 0.600462,-0.571394 1.228347,-0.706934 a 0.39691468,0.39691468 0 0 0 0.0011,-5.29e-4 c 1.207201,-0.262823 2.342224,0.658868 2.787944,1.066602 0.153506,0.140423 0.379299,0.495599 0.53485,0.802018 0.141256,0.278255 0.215659,0.46858 0.232029,0.509529 0.0013,0.05665 0.0026,0.139992 0.01344,0.296106 0.007,0.100674 0.01656,0.206941 0.03152,0.307475 0.01495,0.100534 0.0045,0.170688 0.100253,0.330212 a 0.39691468,0.39691468 0 0 0 5.3e-4,5.3e-4 c 0.0657,0.108959 0.152709,0.236624 0.223242,0.358117 a 0.39691468,0.39691468 0 0 0 -0.341583,0.230477 l -0.116271,0.288355 a 0.39691468,0.39691468 0 0 0 0.04496,0.378788 c 0,0 0.05783,0.08207 0.111104,0.171049 0.0037,0.0062 0.0052,0.0098 0.0088,0.01602 a 0.39691468,0.39691468 0 0 0 -0.219109,0.20774 c -0.05591,0.159349 -0.02387,0.238713 -0.0078,0.328145 -0.04708,0.0081 -0.115756,0.02377 -0.115756,0.02377 a 0.39691468,0.39691468 0 0 0 -0.343648,0.248047 c -0.105535,0.262329 -0.06992,0.378042 -0.06201,0.371554 -0.02003,0.01371 -0.09986,0.04676 -0.211874,0.07803 -0.170709,-0.02207 -0.59713,-0.05879 -1.186489,0.183451 a 0.39691468,0.39691468 0 0 0 -0.0016,5.3e-4 c -0.543419,0.22612 -0.756957,0.760214 -0.774112,1.176155 -0.01717,0.415941 0.09823,0.78324 0.137459,0.922424 0.146658,0.523614 0.499925,0.994938 0.859377,1.458826 0.359603,0.46408 0.734367,0.915912 0.937411,1.27124 a 0.39691468,0.39691468 0 0 0 0.164333,0.15658 c 0.388789,0.198086 0.794824,0.468202 1.101224,0.762228 0.306401,0.294026 0.499875,0.607041 0.538467,0.864031 0.03827,0.254826 -0.0532,0.565626 -0.281636,0.88315 -0.228438,0.317524 -0.586904,0.626449 -1.004072,0.851628 a 0.39691468,0.39691468 0 0 0 0,5.29e-4 c -0.281908,0.152601 -0.493329,0.349464 -0.614434,0.583943 -0.121102,0.234479 -0.142073,0.483748 -0.124539,0.702284 0.03506,0.4370702 0.18398,0.8071217 0.206187,1.1296462 0.06408,0.9575958 0.391707,3.401343 0.391707,3.401343 a 0.39691468,0.39691468 0 0 0 0.188103,0.2873217 l 0.248563,0.14986 c 0.01474,0.078166 0.02845,0.1280371 0.03772,0.2589 0.007,0.098716 0.0038,0.1915584 -0.0047,0.2475283 -0.02955,0.00212 -0.08035,2.646e-4 -0.180867,0.045992 -0.11921,0.054139 -0.213939,0.1522519 -0.283705,0.2537328 -0.06976,0.1014809 -0.13264,0.2212049 -0.214455,0.3953246 -0.159218,0.3367616 -0.144952,0.6855618 -0.144695,1.1616848 2.59e-4,0.4766178 0.03051,1.0347299 0.07028,1.5709635 0.07856,1.05926733 0.192992,2.00911619 0.195853,2.03295251 2.64e-4,0.009737 0.05379,1.83382439 0.05116,3.87159759 -0.0013,1.0216065 -0.01677,2.0939442 -0.05994,3.0080849 -0.04318,0.9141407 -0.123788,1.6898911 -0.21549,2.0236497 -0.120467,0.4389654 -0.193958,1.1991184 -0.267168,2.1786774 -0.07321,0.979562 -0.133696,2.148396 -0.182417,3.276285 -0.04872,1.127892 -0.08564,2.214385 -0.110072,3.026691 -0.01222,0.406151 -0.02127,0.74354 -0.02739,0.9834 -0.0061,0.239864 -0.0093,0.335487 -0.0093,0.405662 0,0.163365 0.05574,0.211185 0.08217,0.247528 0.02643,0.03635 0.04586,0.05527 0.06408,0.07287 0.03644,0.03518 0.06846,0.06048 0.105421,0.08888 0.07393,0.05681 0.165086,0.120568 0.272851,0.194821 0.215532,0.148508 0.495623,0.33637 0.774631,0.537435 0.279006,0.201065 0.556898,0.416343 0.755507,0.60358 0.06863,0.0647 0.05247,0.05485 0.09457,0.110588 -0.01887,-0.0011 -0.02498,0.0021 -0.04393,5.3e-4 -0.141202,-0.01188 -0.281601,-0.03483 -0.37362,-0.04961 -0.02302,-0.0037 -0.04302,-0.007 -0.06356,-0.0098 -0.02056,-0.0029 0.0181,-0.02069 -0.128675,-0.0031 -0.01834,0.0021 -0.04208,0.0047 -0.08372,0.01913 -0.02082,0.0072 -0.07897,0.03715 -0.07906,0.03721 -9.6e-5,5.8e-5 -0.111051,0.102246 -0.111104,0.102317 -5.3e-5,7.2e-5 -0.07596,0.199906 -0.07597,0.199988 -5e-6,8.5e-5 0.02735,0.184391 0.02739,0.184486 3.7e-5,9.5e-5 0.05676,0.09808 0.05684,0.09818 5e-5,6.1e-5 0.01431,0.01543 0.02585,0.02791 -0.0097,0.01506 -0.0032,0.01143 -0.01757,0.02791 -0.121674,0.139313 -0.381323,0.305927 -0.79065,0.290422 -0.465544,-0.01767 -1.855403,-0.182163 -3.088182,-0.341582 -1.232781,-0.15942 -2.335776,-0.313677 -2.335776,-0.313677 a 0.39691468,0.39691468 0 0 0 -0.41031,0.569476 c 0,0 -0.01373,-0.01315 -0.0072,-0.03566 0.0065,-0.02252 0.04574,0.02744 -0.258385,0.08888 -0.737023,0.148918 -0.915595,0.127884 -1.580782,-0.166915 -0.31492,-0.139568 -0.352475,-0.209539 -0.555003,-0.311092 -0.101264,-0.05078 -0.23694,-0.08602 -0.370004,-0.09302 -0.133062,-0.007 -0.274611,0.0028 -0.47594,0.02273 -0.449562,0.0445 -0.823471,0.186206 -1.127062,0.290423 -0.303591,0.104216 -0.527148,0.159316 -0.677995,0.137975 -0.07157,-0.01013 -0.0564,-0.01664 -0.04496,-0.0047 0.01143,0.01199 0.0063,0.0141 -0.0067,-0.03256 -0.01299,-0.04665 -0.02021,-0.131188 -0.08526,-0.262517 -0.06506,-0.131329 -0.261191,-0.296108 -0.450619,-0.320395 -0.100775,-0.01291 -0.172646,-0.0099 -0.30179,-0.0098 -0.129143,1.01e-4 -0.292899,0.0019 -0.481107,0.0052 -0.376418,0.0064 -0.851313,0.0172 -1.3311851,0.02429 -0.4798722,0.0071 -0.9650518,0.01074 -1.3554737,0.0031 -0.2928937,-0.0057 -0.4345834,-0.02537 -0.546219,-0.03669 0.024024,-0.124176 0.033089,-0.278836 -0.07338,-0.433564 -0.083267,-0.12101 -0.1906137,-0.188489 -0.3105758,-0.237197 0.061645,-0.02506 0.1406155,-0.07512 0.1607132,-0.077 0.193503,-0.01791 0.3655245,-0.07979 0.5705078,-0.159163 0.2049833,-0.07938 0.4257807,-0.179427 0.6314863,-0.284739 0.2057056,-0.10531 0.3931709,-0.212794 0.5436368,-0.321942 0.075232,-0.05458 0.1408191,-0.10432 0.209288,-0.188103 0.034237,-0.04189 0.073843,-0.09238 0.1012852,-0.188103 0.027445,-0.09573 0.016933,-0.267724 -0.068212,-0.381889 0.072602,0.09735 0.056166,0.111056 0.057878,0.11834 0.00159,0.0073 -1.984e-4,-0.0013 -0.00212,-0.01551 -0.00373,-0.02862 -0.00863,-0.08395 -0.012912,-0.154511 -0.00857,-0.141118 -0.015531,-0.346247 -0.020664,-0.592212 -0.010266,-0.49195 -0.01405,-1.148723 -0.016537,-1.828848 C 9.620849,15.57852 9.6255321,14.165169 9.580836,13.645948 9.5646965,13.458401 9.5094964,12.467036 9.4392443,11.118452 9.3689921,9.7698709 9.2816055,8.0403478 9.1942983,6.2965241 9.0196839,2.8088792 8.8456542,-0.73008684 8.8067234,-1.4187655 8.7748041,-1.983434 8.9948263,-2.4987047 9.1973992,-2.8915448 c 0.1012852,-0.1964187 0.1949027,-0.3420718 0.259932,-0.5239993 0.032515,-0.090964 0.1040183,-0.2249144 -0.013441,-0.442349 -0.058727,-0.1087173 -0.1780779,-0.1906825 -0.2697507,-0.2185908 -0.091675,-0.027911 -0.1604274,-0.025135 -0.2206598,-0.019632 a 0.39691468,0.39691468 0 0 0 -0.00106,5.292e-4 c -0.1914234,0.018071 -0.1978051,-0.00791 -0.2361591,-0.084749 -0.038357,-0.076832 -0.063455,-0.2871761 0.033589,-0.5772256 a 0.39691468,0.39691468 0 0 0 0,-5.291e-4 c 0.2052955,-0.6158839 0.859364,-2.9615289 1.5384064,-4.5433906 a 0.39691468,0.39691468 0 0 0 5.29e-4,-5.291e-4 c 0.381963,-0.8931859 0.578387,-2.1207699 0.701249,-3.2271939 0.122859,-1.106424 0.162989,-2.094175 0.181901,-2.408123 0.0092,-0.153209 0.115885,-0.24989 0.254765,-0.333313 0.06944,-0.04171 0.132307,-0.06833 0.179832,-0.08837 0.01188,-0.005 0.02111,-0.0087 0.04289,-0.01912 0.0109,-0.0052 0.02167,-0.0079 0.06046,-0.03462 0.0097,-0.0067 0.02164,-0.01532 0.03772,-0.02946 0.01609,-0.01413 0.06344,-0.07063 0.06356,-0.0708 5.8e-5,-8.3e-5 0.04131,-0.07589 0.04134,-0.07596 3.2e-5,-7.7e-5 0.02997,-0.126538 0.02997,-0.126607 5e-6,-7e-5 -0.02426,-0.163753 -0.02429,-0.163815 -2.3e-5,-6.2e-5 -0.08057,-0.13172 -0.08062,-0.131775 -5e-5,-5.5e-5 -0.0857,-0.06972 -0.08578,-0.06976 -7.9e-5,-4.8e-5 -0.06501,-0.032 -0.06511,-0.03204 -2.14e-4,-8.1e-5 -0.06011,-0.01819 -0.07855,-0.02119 -0.0073,-0.0012 -0.0075,-3.18e-4 -0.01344,-0.001 0.02971,-0.04295 0.06798,-0.09596 0.114204,-0.173116 0.10957,-0.182891 0.238154,-0.472636 0.176218,-0.816488 -0.06914,-0.383856 -0.349557,-0.620102 -0.6072,-0.764811 -0.257641,-0.144708 -0.502605,-0.220141 -0.75189,-0.220141 0.107772,0 -0.0113,-0.02218 -0.09612,-0.117823 -0.08482,-0.09564 -0.147796,-0.19637 -0.147796,-0.19637 a 0.39691468,0.39691468 0 0 0 -0.03617,-0.04961 L 9.979235,-18.715391 9.8056022,-19.029584 A 0.39691468,0.39691468 0 0 0 9.6541918,-19.16911 c 0.069088,-0.124106 0.091324,-0.150282 0.1710478,-0.316777 0.087868,-0.183499 0.1710611,-0.374207 0.2227264,-0.564823 0.02582,-0.09531 0.04574,-0.189556 0.04341,-0.304891 -0.0024,-0.115335 -0.033,-0.287658 -0.1850016,-0.415479 0.019659,0.01654 -0.013044,-0.01423 -0.016007,-0.156062 -0.00299,-0.14183 0.022622,-0.34527 0.039791,-0.555522 0.02241,-0.272178 0.00889,-0.501482 -0.1018037,-0.712618 -0.1107017,-0.211136 -0.3381931,-0.34651 -0.5271003,-0.38654 -0.1659334,-0.03516 -0.2959258,-0.004 -0.4423489,0.0047 0.11684,-0.02231 0.3281442,-0.05943 0.3281442,-0.05943 a 0.39691468,0.39691468 0 0 0 0.3152272,-0.336414 l 0.1116198,-0.833024 2.2644633,-0.101286 a 0.39691468,0.39691468 0 0 0 0.368453,-0.304891 l 0.2651,-1.120345 -0.08682,-0.0124 a 0.39691468,0.39691468 0 0 0 0.427881,-0.251147 c 0,0 0.270346,-0.704598 0.725022,-1.421102 0.454674,-0.716505 1.094248,-1.371626 1.655197,-1.426786 z m -3.936196,13.04985 c 0.06506,0.01326 0.118938,0.05568 0.182935,0.04806 -0.01135,9.7e-5 -0.0254,0.0013 -0.05891,-0.0041 -0.01778,-0.0029 -0.07669,-0.02075 -0.07648,-0.02067 7.9e-5,3e-5 -0.02908,-0.01423 -0.04754,-0.02325 z M 8.9364619,-3.3225563 c 0.031319,-2.487e-4 0.057933,0.020002 0.0894,0.017066 -0.00238,2.143e-4 -0.025506,0.00603 -0.082682,-0.011377 -0.00185,-5.292e-4 -0.00468,-0.00497 -0.00672,-0.00569 z M 24.641446,21.541559 c 0.0097,0.0013 0.0028,-0.01365 0.06408,0.04186 0.01233,0.01117 0.04452,0.04765 0.04444,0.04754 -5e-6,-3e-6 0.0019,0.0034 0.0021,0.0036 -0.04016,-0.02992 -0.06632,-0.07512 -0.110588,-0.09302 z"
         id="path6" />
      <path
         style="color:#000000;fill:#ffffff;stroke-width:0.995474;stroke-linecap:round;stroke-linejoin:round;-inkscape-stroke:none"
         d="m 13.146022,-15.184363 c -0.282337,3.17e-4 -0.558069,0.09089 -0.777213,0.243913 a 0.396875,0.396875 0 0 0 -0.09818,0.552937 0.396875,0.396875 0 0 0 0.55242,0.09819 c 0.175546,-0.122582 0.43261,-0.155919 0.62787,0.0093 a 0.396875,0.396875 0 0 0 0.559139,-0.04651 0.396875,0.396875 0 0 0 -0.04651,-0.559656 c -0.24633,-0.208431 -0.535183,-0.298481 -0.817523,-0.298173 z"
         id="path8" />
      <path
         style="color:#000000;fill:#ffffff;stroke-width:0.995474;stroke-linecap:round;stroke-linejoin:round;-inkscape-stroke:none"
         d="m 15.299897,-15.132687 c -0.480525,-0.101163 -0.841623,0.133656 -1.045413,0.20929 a 0.396875,0.396875 0 0 0 -0.234096,0.510047 0.396875,0.396875 0 0 0 0.510048,0.234093 c 0.309256,-0.114776 0.482423,-0.202372 0.605129,-0.176734 0.256373,0.05445 0.700473,0.202674 0.763778,0.227378 a 0.396875,0.396875 0 0 0 0.51418,-0.225309 0.396875,0.396875 0 0 0 -0.225824,-0.514181 c -0.153654,-0.05996 -0.545698,-0.192034 -0.887286,-0.264584 a 0.39691468,0.39691468 0 0 0 -5.29e-4,0 z"
         id="path10" />
      <path
         style="color:#000000;fill:#ffffff;stroke-width:0.995474;stroke-linecap:round;stroke-linejoin:round;-inkscape-stroke:none"
         d="m 13.972845,-14.423168 a 0.396875,0.396875 0 0 0 -0.425812,0.365868 l -0.137459,1.823143 a 0.396875,0.396875 0 0 0 0.365868,0.425299 0.396875,0.396875 0 0 0 0.425297,-0.365871 l 0.137977,-1.822627 a 0.396875,0.396875 0 0 0 -0.365871,-0.425812 z"
         id="line12" />
      <path
         style="color:#000000;fill:#ffffff;stroke-width:0.995474;stroke-linecap:round;stroke-linejoin:round;-inkscape-stroke:none"
         d="m 13.423525,-12.107548 a 0.396875,0.396875 0 0 0 -0.431498,0.358634 0.396875,0.396875 0 0 0 0.358635,0.432015 c 0.221498,0.02037 0.552778,0.05847 0.86248,0.07958 0.154851,0.01056 0.304213,0.01691 0.441833,0.01344 0.137621,-0.0035 0.249973,0.0026 0.418579,-0.07441 a 0.396875,0.396875 0 0 0 0.195853,-0.526066 0.396875,0.396875 0 0 0 -0.525547,-0.195852 c 0.06145,-0.02807 -0.01273,7.93e-4 -0.108522,0.0031 -0.09579,0.0024 -0.227301,-0.0024 -0.368453,-0.01188 -0.282303,-0.01923 -0.604483,-0.05658 -0.84336,-0.07855 z"
         id="path14" />
      <path
         style="color:#000000;fill:#ffffff;stroke-width:0.995474;stroke-linecap:round;stroke-linejoin:round;-inkscape-stroke:none"
         d="m 14.498911,-19.400126 c -0.242424,0.03213 -0.484407,0.09378 -0.715201,0.160713 -0.230793,0.06693 -0.444383,0.14388 -0.621667,0.221175 -0.177284,0.0773 -0.295034,0.112187 -0.447519,0.271302 -0.156488,0.163292 -0.181385,0.274856 -0.257347,0.447001 -0.07596,0.172144 -0.155321,0.373288 -0.22841,0.567407 -0.107595,0.28576 -0.155014,0.428603 -0.197405,0.551904 -0.09189,0.02969 -0.203893,0.06959 -0.610299,0.176217 -0.195347,0.05125 -0.384037,0.152224 -0.493508,0.341064 -0.109474,0.188841 -0.08992,0.413641 -0.02791,0.566374 0.124034,0.305467 0.354671,0.483037 0.623218,0.601514 a 0.39691468,0.39691468 0 0 0 0.0016,5.29e-4 c 0.222591,0.09728 0.44047,0.12236 0.627866,0.135909 -0.01603,0.449772 -0.01786,0.966323 0.03101,1.603519 0.03112,0.405871 0.07201,0.802077 0.120922,1.128099 0.02445,0.16301 0.05063,0.308192 0.08113,0.434081 0.03051,0.125888 0.0488,0.221548 0.135393,0.353983 0.09356,0.143087 0.300802,0.507831 0.491961,0.834575 0.09558,0.163372 0.188185,0.31935 0.270266,0.446485 0.04104,0.06357 0.07878,0.119774 0.117822,0.171047 0.03904,0.05127 0.04269,0.09204 0.183452,0.174152 -0.153051,-0.08928 -0.08734,-0.08448 -0.0677,-0.04031 0.01117,0.02508 0.02564,0.07087 0.03927,0.110072 -0.0816,0.01881 -0.08882,0.01855 -0.179316,0.04134 -0.150051,0.03777 -0.300543,0.07823 -0.429432,0.1224726 -0.06444,0.022119 -0.121888,0.043209 -0.187068,0.077515 -0.03259,0.017145 -0.06757,0.035602 -0.116272,0.079065 -0.0487,0.043461 -0.145727,0.1300163 -0.145729,0.317291 0,-0.1608164 0.01992,-0.1173559 0.01757,-0.1116198 -0.0024,0.00574 -0.01109,0.0263 -0.02376,0.05271 -0.02535,0.05284 -0.06587,0.1325775 -0.114204,0.2278936 -0.09668,0.190627 -0.225682,0.4454075 -0.348816,0.7167509 -0.123138,0.2713461 -0.241205,0.5579772 -0.316778,0.8319903 -0.07557,0.2740157 -0.153527,0.536821 0.0026,0.8490452 a 0.396875,0.396875 0 0 0 0.532267,0.1772497 0.396875,0.396875 0 0 0 0.177766,-0.5322676 c 0.03308,0.066162 -0.0034,-0.079629 0.05271,-0.2831862 0.05614,-0.2035598 0.159888,-0.4634785 0.273886,-0.7146845 0.113996,-0.2512087 0.237797,-0.4953767 0.334346,-0.6857471 0.04827,-0.095187 0.08967,-0.1766173 0.121957,-0.2439141 0.0016,-0.00328 0.0026,-0.00609 0.0041,-0.00929 0.08811,-0.029901 0.222377,-0.067506 0.358635,-0.1018037 0.278013,-0.06998 0.561205,-0.1286748 0.561205,-0.1286748 a 0.39691468,0.39691468 0 0 0 0.307475,-0.47439 c 0,0 -0.03762,-0.1695925 -0.09405,-0.3550155 -0.02821,-0.09271 -0.06047,-0.190026 -0.102836,-0.285255 -0.04236,-0.09523 -0.04131,-0.196654 -0.257865,-0.322977 0.109016,0.06359 0.06642,0.05392 0.04858,0.03049 -0.01783,-0.02342 -0.04803,-0.06673 -0.08268,-0.120404 -0.06931,-0.107352 -0.159432,-0.257093 -0.252698,-0.416512 -0.186534,-0.318839 -0.381291,-0.667295 -0.51263,-0.868164 0.03037,0.04645 -0.0061,-0.01717 -0.02791,-0.106971 -0.02175,-0.0898 -0.04548,-0.216755 -0.0677,-0.364837 -0.04443,-0.296161 -0.08414,-0.678556 -0.114205,-1.070734 -0.06013,-0.784358 -0.07235,-1.65712 -0.04341,-1.880507 a 0.39691468,0.39691468 0 0 0 -0.429532,-0.445993 c 0,0 -0.451511,0.01095 -0.659392,-0.07958 h -5.29e-4 c -0.03028,-0.01358 -0.03812,-0.03233 -0.06873,-0.05788 0.372803,-0.103294 0.690914,-0.199988 0.690914,-0.199988 a 0.39691468,0.39691468 0 0 0 0.248563,-0.249081 c 0,0 0.118669,-0.351548 0.2589,-0.723986 0.07012,-0.18622 0.145685,-0.377239 0.211357,-0.526066 0.06567,-0.148828 0.169593,-0.286634 0.104387,-0.218592 -0.0612,0.06386 0.0525,-0.03232 0.191719,-0.09302 0.139224,-0.0607 0.326393,-0.128796 0.52555,-0.186551 0.398309,-0.11551 0.867989,-0.169618 1.043863,-0.131259 0.299014,0.06522 0.677021,0.176142 0.985986,0.304375 0.308967,0.128232 0.541128,0.323915 0.535368,0.314192 0.01289,0.02176 0.07971,0.318441 0.0925,0.586011 0.0064,0.133785 0.0085,0.264588 0.01241,0.376721 0.0019,0.05607 0.0044,0.107267 0.0093,0.158647 0.0049,0.05138 -0.01101,0.08239 0.05478,0.21394 0.07022,0.140429 0.138208,0.16815 0.188619,0.199988 0.05041,0.03184 0.09468,0.05252 0.14056,0.07286 0.09177,0.04069 0.189458,0.07611 0.288872,0.112138 0.03651,0.01323 0.04497,0.01944 0.08165,0.03359 -0.08112,0.01256 -0.05471,0.02365 -0.159679,0.02584 a 0.39691468,0.39691468 0 0 0 -0.0011,0 c -0.173268,0.0039 -0.35578,0.07726 -0.477491,0.193786 -0.121708,0.116525 -0.185645,0.255432 -0.225309,0.38809 -0.07932,0.265317 -0.07688,0.536064 -0.06304,0.81132 0.01384,0.275254 0.04647,0.551585 0.0677,0.781347 0.02122,0.229761 0.01643,0.434454 0.0155,0.438732 -0.02471,0.112493 -0.253428,0.629597 -0.466637,1.092441 -0.106604,0.231423 -0.210254,0.461626 -0.288872,0.66921 -0.07856,0.207418 -0.159245,0.351288 -0.127122,0.619599 0.02254,0.188854 0.0608,0.441365 0.100251,0.657325 0.01974,0.107979 0.0394,0.205447 0.05994,0.287838 0.01026,0.0412 0.0199,0.0772 0.03617,0.121438 0.0081,0.02212 0.01617,0.04555 0.03927,0.08527 0.02313,0.03971 0.03299,0.1387315 0.255281,0.1943019 -0.07869,-0.019659 -0.01087,-0.00302 0.01757,0.00722 0.02844,0.010239 0.06907,0.025665 0.117822,0.043924 0.09752,0.036528 0.227642,0.086066 0.363802,0.140044 0.272322,0.1079553 0.594548,0.2505207 0.660426,0.289388 0.0031,0.00185 0.08569,0.09448 0.133324,0.1984375 0.04622,0.1008644 0.06691,0.1800595 0.06822,0.1850019 0.96775,4.5894651 1.334325,7.5823392 1.336868,7.6031539 -1.3e-5,0.012621 -2.65e-4,0.029935 -5.29e-4,0.053226 -5.3e-4,0.051557 -0.0019,0.1260422 -0.0036,0.2196253 -0.0034,0.18716358 -0.0085,0.45040812 -0.01551,0.76429391 -0.01405,0.62777158 -0.03437,1.45827219 -0.05684,2.29288179 -0.02246,0.8346122 -0.04718,1.6737727 -0.06976,2.3171732 -0.0113,0.3216989 -0.02188,0.5947224 -0.03153,0.7921995 -0.0048,0.098737 -0.0095,0.1786784 -0.01344,0.2340928 -0.004,0.055414 -0.02101,0.1262485 -0.0016,0.047543 -0.02246,0.090877 -0.01701,0.1162923 -0.0186,0.1663991 -0.0016,0.050107 -0.0019,0.106553 -0.0011,0.1725983 0.0019,0.1320932 0.0075,0.3007043 0.01601,0.4955778 0.01712,0.3897445 0.04564,0.8840867 0.077,1.3745924 0.03136,0.4905058 0.06591,0.9765665 0.09457,1.3487559 0.01434,0.186092 0.02709,0.3431858 0.03772,0.4599199 0.0019,0.021378 0.0034,0.034584 0.0052,0.053226 -0.02763,0.02241 -0.04768,0.041534 -0.08475,0.066146 -0.06323,0.041979 -0.133898,0.080743 -0.179834,0.1007692 -0.04594,0.020029 -0.09846,-0.017727 0.06408,0.018097 l 0.03204,0.033073 c -0.08367,-0.023178 -0.171415,-0.047562 -0.171566,-0.047543 -2.59e-4,3.44e-5 -0.188561,0.071501 -0.22841,0.1105879 -0.0797,0.078176 -0.08237,0.1145567 -0.0925,0.140044 -0.0405,0.1019439 -0.0274,0.1001342 -0.03152,0.1291907 -0.0082,0.058113 -0.01453,0.1262461 -0.02222,0.2196251 -0.01537,0.186756 -0.03347,0.462399 -0.05375,0.802535 -0.04056,0.68027 -0.0894,1.616241 -0.135908,2.57607 -0.04651,0.959829 -0.09082,1.942836 -0.122989,2.71508 -0.03217,0.772242 -0.05403,1.280062 -0.04961,1.470194 0.0041,0.218459 -0.04212,0.929283 -0.08578,1.575613 -0.02185,0.323482 -0.04279,0.637198 -0.0553,0.887801 -0.0062,0.125304 -0.01027,0.234442 -0.01138,0.325046 -0.0011,0.0906 -0.01204,0.131088 0.01601,0.25735 -0.01691,-0.07607 -0.0026,-0.0016 -0.0186,0.0832 -0.01606,0.0847 -0.04465,0.198403 -0.07493,0.315743 -0.03028,0.11734 -0.06244,0.238432 -0.08682,0.353468 -0.02437,0.115032 -0.06008,0.196159 -0.02635,0.38292 a 0.396875,0.396875 0 0 0 0.460954,0.319879 0.396875,0.396875 0 0 0 0.320395,-0.460954 c 0.01651,0.09151 0.0037,0.0076 0.0217,-0.07752 0.01805,-0.08514 0.04764,-0.199568 0.07855,-0.31936 0.03091,-0.119793 0.06326,-0.244962 0.0863,-0.366387 0.02305,-0.121426 0.05467,-0.220367 0.01394,-0.403593 0.01614,0.07268 0.0016,-0.0024 0.0026,-0.07545 7.94e-4,-0.07296 0.0044,-0.175223 0.01035,-0.295074 0.01196,-0.239702 0.03246,-0.551085 0.05426,-0.873847 0.04361,-0.645526 0.09427,-1.310103 0.08785,-1.645378 a 0.39691468,0.39691468 0 0 0 0,-0.0016 c -7.93e-4,-0.03741 0.01651,-0.649172 0.04858,-1.419035 0.03207,-0.769863 0.07656,-1.751846 0.122989,-2.709913 0.04643,-0.958069 0.09517,-1.892644 0.135393,-2.567286 0.01889,-0.316878 0.03573,-0.562343 0.04961,-0.736904 0.09706,-0.04409 0.191193,-0.09619 0.280604,-0.155546 0.09618,-0.06386 0.185039,-0.1311649 0.265618,-0.2113575 0.04029,-0.040095 0.0793,-0.081508 0.119372,-0.1483122 0.04007,-0.066802 0.110924,-0.181737 0.05323,-0.3725862 0.03128,0.1034785 0.0089,0.036978 0.0057,0.00826 -0.0032,-0.02871 -0.0074,-0.073022 -0.01241,-0.1281589 -0.01005,-0.1102704 -0.02305,-0.2652421 -0.03721,-0.4490667 -0.02831,-0.3676544 -0.06239,-0.8512916 -0.09353,-1.3384212 -0.03115,-0.4871297 -0.05926,-0.9785668 -0.07596,-1.3590879 -0.0084,-0.1902618 -0.01394,-0.3530414 -0.01551,-0.4707731 -7.93e-4,-0.058867 -5.29e-4,-0.1069155 5.3e-4,-0.137459 0.0011,-0.030546 0.01106,-0.06196 -0.0041,-5.291e-4 0.02673,-0.1081379 0.01802,-0.1154589 0.02273,-0.1813825 0.0047,-0.065926 0.0095,-0.150069 0.01447,-0.2521823 0.01,-0.2042239 0.02066,-0.4798907 0.03204,-0.8035687 0.02273,-0.6473507 0.04726,-1.4874716 0.06976,-2.3233723 0.02252,-0.8358982 0.04277,-1.66725338 0.05685,-2.29649868 0.007,-0.31462398 0.01262,-0.57867549 0.01601,-0.76791342 0.0016,-0.094618 0.003,-0.1702858 0.0036,-0.2253086 2.65e-4,-0.027511 5.3e-4,-0.049649 5.3e-4,-0.067696 -1.6e-5,-0.018045 0.0049,0.00212 -0.0026,-0.069247 a 0.39691468,0.39691468 0 0 0 -0.0011,-0.00619 c 0,0 -0.373012,-3.0541594 -1.352372,-7.6961708 a 0.39691468,0.39691468 0 0 0 -0.0036,-0.016536 c 0,0 -0.03846,-0.1513338 -0.117822,-0.3245274 -0.07936,-0.1731936 -0.190166,-0.3971104 -0.451654,-0.5513855 -0.198705,-0.117237 -0.487709,-0.231339 -0.771012,-0.343649 -0.139705,-0.05538 -0.270891,-0.105537 -0.372586,-0.143661 -0.0097,-0.04559 -0.01831,-0.08282 -0.02894,-0.141076 -0.03595,-0.196789 -0.07272,-0.443063 -0.0925,-0.608748 a 0.39691468,0.39691468 0 0 0 0,-5.29e-4 c 0.01117,0.09278 0.01606,-0.07207 0.08113,-0.243911 0.06508,-0.171847 0.162769,-0.391414 0.267168,-0.618051 0.208801,-0.453274 0.43979,-0.88514 0.520898,-1.254186 0.05198,-0.236493 0.0226,-0.437626 0,-0.68213 -0.02259,-0.244504 -0.05366,-0.510239 -0.06563,-0.748274 -0.01196,-0.238036 0.0028,-0.451621 0.03049,-0.544153 0.0065,-0.02176 0.0032,-0.01286 0.0067,-0.01964 0.458327,-0.0117 0.793956,-0.04963 1.070218,-0.289388 0.143399,-0.124451 0.248851,-0.391752 0.186036,-0.601513 -0.06282,-0.209762 -0.199726,-0.328294 -0.349334,-0.430465 -0.208299,-0.142022 -0.426265,-0.203069 -0.621668,-0.273885 -0.06576,-0.02383 -0.110807,-0.04222 -0.159679,-0.0615 -0.0031,-0.09744 -0.0051,-0.223146 -0.01188,-0.364319 -0.01434,-0.299961 -0.01225,-0.630202 -0.203089,-0.952397 -0.209489,-0.35368 -0.545272,-0.489967 -0.913641,-0.642854 -0.368366,-0.152887 -0.777454,-0.272254 -1.121378,-0.347266 -0.233532,-0.05093 -0.476393,-0.04815 -0.71882,-0.01602 z m 3.744992,29.436446 a 0.39691468,0.39691468 0 0 0 0.252698,0.260447 c -0.05251,-0.01452 -0.111718,-0.03108 -0.111622,-0.031 2.54e-4,1.98e-4 -0.08345,-0.08821 -0.09922,-0.116274 -0.01577,-0.02806 -0.02278,-0.0469 -0.0279,-0.0615 -0.01024,-0.02919 -0.01214,-0.04205 -0.01394,-0.05167 z"
         id="path16" />
      <path
         style="color:#000000;fill:#ffffff;stroke-width:0.995474;stroke-linecap:round;stroke-linejoin:round;-inkscape-stroke:none"
         d="m 11.363704,3.5777981 a 0.396875,0.396875 0 0 0 -0.484727,0.2826702 c -0.122888,0.4672859 -0.295235,1.5183512 -0.423746,2.610694 -0.06425,0.5461714 -0.115999,1.0957031 -0.138493,1.5735485 -0.02249,0.4778428 -0.02532,0.8671216 0.04548,1.1797718 0.105463,0.4718738 0.141288,0.662604 0.338482,0.8645474 0.04935,0.05054 0.121808,0.105696 0.223758,0.131257 0.05495,0.01378 0.105034,-0.0089 0.160713,-0.01704 l -0.0083,0.0052 0.152445,-0.0031 c -0.009,0.271549 -0.02974,0.676632 -0.0083,1.498615 0.02752,1.053275 0.104651,2.279055 0.396875,3.115056 a 0.39691468,0.39691468 0 0 0 5.29e-4,0 c 0.242049,0.691214 0.526891,1.889303 0.716751,2.978629 0.09493,0.544664 0.166852,1.065123 0.201538,1.481564 0.03469,0.416441 0.0088,0.760978 -0.0026,0.797885 -0.08546,0.277479 -0.295439,0.65005 -0.488858,0.978233 -0.09671,0.164092 -0.188296,0.317762 -0.261482,0.462505 -0.07319,0.144743 -0.166598,0.245343 -0.131776,0.515216 a 0.396875,0.396875 0 0 0 0.444418,0.34313 0.396875,0.396875 0 0 0 0.342614,-0.444418 c 0.01894,0.146841 -2.64e-4,0.04915 0.05271,-0.05581 0.05307,-0.104957 0.140282,-0.252232 0.237709,-0.417547 0.194858,-0.330626 0.434422,-0.729358 0.563274,-1.147733 0.09579,-0.31102 0.0728,-0.645472 0.03514,-1.097608 -0.03766,-0.452136 -0.112954,-0.990219 -0.210839,-1.551842 -0.195741,-1.123074 -0.478623,-2.329612 -0.749826,-3.104203 v -5.29e-4 c -0.220978,-0.632537 -0.326229,-1.850364 -0.352949,-2.873208 -0.02673,-1.023044 0.0098,-1.8650034 0.0098,-1.8650034 A 0.39691468,0.39691468 0 0 0 11.619993,9.4043172 l -0.38499,0.00722 c -0.0032,-0.024633 -0.02698,-0.042651 -0.09819,-0.3612171 a 0.39691468,0.39691468 0 0 0 -5.29e-4,-0.00106 C 11.10523,8.9121261 11.088771,8.5314013 11.109935,8.0818821 11.131101,7.632363 11.180515,7.0969548 11.243261,6.5636289 11.36875,5.4969744 11.554913,4.410119 11.646338,4.0624883 A 0.396875,0.396875 0 0 0 11.363667,3.5777637 Z M 10.979746,9.4652958 A 0.39691468,0.39691468 0 0 0 10.718782,9.626009 c 0,0 0.02922,-0.08804 0.153996,-0.1493467 0.02724,-0.013388 0.06974,-0.00542 0.106968,-0.011377 z"
         id="path18" />
      <path
         style="color:#000000;fill:#ffffff;stroke-width:0.995474;stroke-linecap:round;stroke-linejoin:round;-inkscape-stroke:none"
         d="m 15.19086,12.228951 c -0.219776,-0.0082 -0.324292,0.09987 -0.397391,0.174664 -0.0731,0.0748 -0.124783,0.152906 -0.175183,0.240814 -0.201602,0.351639 -0.370338,0.87984 -0.414962,1.46296 -0.03806,0.497356 -0.168349,1.651691 -0.278538,2.768822 -0.05509,0.558567 -0.105198,1.10943 -0.136943,1.574581 -0.03174,0.465153 -0.04942,0.825743 -0.02273,1.087273 0.03827,0.375095 0.07158,0.904454 0.08681,1.355474 0.0076,0.225507 0.01093,0.432146 0.0083,0.58756 -0.0027,0.155411 -0.04229,0.316296 -0.0072,0.213939 -0.0392,0.114462 -0.06569,0.200224 -0.077,0.223243 -0.0113,0.02302 0.03737,-0.03812 0.08062,-0.04961 a 0.396875,0.396875 0 0 0 -0.281635,0.485243 0.396875,0.396875 0 0 0 0.485756,0.282152 c 0.212585,-0.05647 0.363128,-0.235656 0.427882,-0.367419 0.06476,-0.131762 0.08829,-0.237575 0.115239,-0.316259 0.06813,-0.19893 0.04657,-0.28012 0.04961,-0.457338 0.003,-0.177217 -2.64e-4,-0.39385 -0.0083,-0.628385 -0.01585,-0.469069 -0.04933,-1.006435 -0.09043,-1.409216 -0.01299,-0.127407 -0.006,-0.501594 0.02479,-0.952397 0.03077,-0.450799 0.08068,-0.996658 0.135393,-1.551326 0.109418,-1.109334 0.238257,-2.246066 0.279569,-2.785877 0.0024,-0.03014 0.01728,-0.04469 0.02066,-0.07493 0.02069,0.154699 0.01849,0.194556 0.04341,0.375171 0.10324,0.748303 0.23967,1.673053 0.377237,2.581238 0.137568,0.908185 0.27622,1.79941 0.38344,2.480469 0.103153,0.655225 0.16678,1.052817 0.189134,1.17874 -0.04307,0.03712 -0.136583,0.108077 -0.265615,0.261482 a 0.39691468,0.39691468 0 0 0 -5.29e-4,5.29e-4 c -0.37578,0.447559 -0.414401,1.050669 -0.451133,1.460376 a 0.396875,0.396875 0 0 0 0.359667,0.430982 0.396875,0.396875 0 0 0 0.430982,-0.359669 c 0.03206,-0.357582 0.173022,-0.907767 0.2682,-1.021125 0.08923,-0.106087 0.155205,-0.143621 0.267166,-0.258381 0.111964,-0.114763 0.218228,-0.399487 0.179319,-0.611333 -0.0044,-0.02384 -0.08626,-0.525368 -0.193271,-1.205095 -0.10701,-0.679726 -0.245139,-1.569622 -0.382405,-2.475818 -0.137268,-0.906195 -0.273298,-1.828776 -0.375687,-2.570903 -0.102391,-0.742127 -0.170156,-1.345986 -0.172085,-1.459341 -0.0021,-0.122788 -0.0093,-0.22569 -0.05529,-0.34675 -0.02297,-0.06053 -0.0569,-0.129831 -0.127641,-0.197403 -0.07074,-0.06757 -0.18932,-0.123047 -0.299206,-0.127124 z"
         id="path20" />
      <path
         style="color:#000000;fill:#ffffff;stroke-width:0.995474;stroke-linecap:round;stroke-linejoin:round;-inkscape-stroke:none"
         d="m 8.6419065,-1.088584 a 0.396875,0.396875 0 0 0 -0.2785374,0.48730955 c 0.117213,0.4306861 0.5249756,1.86725985 0.6314863,2.81843155 0.023627,0.2111137 0.091697,1.1904848 0.1731169,2.4866706 0.08142,1.2961884 0.1794854,2.9353959 0.2738834,4.5578606 0.094401,1.6224677 0.1854729,3.2287687 0.2526983,4.4591607 0.033613,0.615196 0.061344,1.136189 0.080616,1.518253 0.019262,0.382064 0.029456,0.654775 0.029456,0.668176 0,0.179946 0.028136,0.501859 0.06046,0.962731 0.032324,0.460876 0.069778,1.030664 0.091985,1.590085 0.022199,0.559422 0.028411,1.110594 5.292e-4,1.518254 -0.013944,0.203829 -0.038005,0.372877 -0.063561,0.472839 -0.00781,0.03052 -0.013917,0.03391 -0.021696,0.04548 -0.1994456,0.09719 -0.6715892,0.266774 -1.1492839,0.439248 -0.2536772,0.09159 -0.5045551,0.185415 -0.7219209,0.281636 -0.2173631,0.09622 -0.3929777,0.169658 -0.5586227,0.341066 a 0.396875,0.396875 0 0 0 0.00931,0.561205 0.396875,0.396875 0 0 0 0.5612051,-0.0098 c -0.01352,0.01397 0.1251532,-0.08477 0.309544,-0.166396 0.1843881,-0.08163 0.422865,-0.171652 0.6702425,-0.260967 0.4947523,-0.178633 1.0011886,-0.337812 1.3291187,-0.515731 0.260231,-0.14119 0.294852,-0.338066 0.341064,-0.518832 0.04621,-0.180763 0.07048,-0.384305 0.0863,-0.615466 0.03164,-0.462322 0.02381,-1.03038 0.0011,-1.604036 -0.02278,-0.573657 -0.06104,-1.150507 -0.09354,-1.613855 -0.0325,-0.463349 -0.05839,-0.843968 -0.05839,-0.907439 0,-0.108305 -0.01111,-0.323959 -0.03049,-0.707967 -0.01937,-0.384008 -0.04748,-0.90601 -0.08113,-1.52187 -0.0673,-1.23172 -0.157734,-2.838437 -0.25218,-4.4617429 C 10.140181,7.5923924 10.041775,5.9524361 9.9602274,4.654221 9.8786801,3.3560058 9.8172545,2.4256832 9.7840096,2.1287942 9.6629812,1.0479687 9.2396003,-0.4046467 9.129269,-0.81004393 A 0.396875,0.396875 0 0 0 8.6419621,-1.0885814 Z"
         id="path22" />
      <path
         style="color:#000000;fill:#ffffff;stroke-width:0.995474;stroke-linecap:round;stroke-linejoin:round;-inkscape-stroke:none"
         d="m 18.438208,-21.472868 c -0.240557,0 -0.663433,-0.01837 -1.10226,0.256315 a 0.39691468,0.39691468 0 0 0 -0.0016,5.29e-4 c -0.187672,0.118412 -0.220308,0.294366 -0.230995,0.403593 -0.01069,0.109227 2.44e-4,0.20067 0.0155,0.295589 0.03052,0.18984 0.08835,0.389552 0.151929,0.583944 0.03181,0.09728 0.03803,0.099 0.07028,0.187585 l -0.546698,-0.01035 a 0.396875,0.396875 0 0 0 -0.404111,0.38964 0.396875,0.396875 0 0 0 0.389125,0.40411 l 1.130163,0.02119 a 0.39691468,0.39691468 0 0 0 0.372586,-0.551388 c 0,0 -0.143211,-0.339879 -0.256831,-0.687297 -0.052,-0.158999 -0.09156,-0.311704 -0.112654,-0.424263 0.165031,-0.06446 0.309059,-0.07545 0.52555,-0.07545 a 0.396875,0.396875 0 0 0 0.396875,-0.396875 0.396875,0.396875 0 0 0 -0.396875,-0.396875 z"
         id="path24" />
      <path
         style="color:#000000;fill:#ffffff;stroke-width:0.995474;stroke-linecap:round;stroke-linejoin:round;-inkscape-stroke:none"
         d="m 18.476964,-22.162232 a 0.396875,0.396875 0 0 0 -0.31781,0.463021 c 0.234606,1.265456 -0.32472,2.622718 -0.715719,3.079915 a 0.396875,0.396875 0 0 0 0.04341,0.559656 0.396875,0.396875 0 0 0 0.559657,-0.04392 c 0.609126,-0.712259 1.182235,-2.180048 0.892969,-3.74034 a 0.396875,0.396875 0 0 0 -0.462505,-0.318327 z"
         id="path26" />
      <path
         style="color:#000000;fill:#ffffff;stroke-width:0.995474;stroke-linecap:round;stroke-linejoin:round;-inkscape-stroke:none"
         d="m 12.933117,-21.577255 a 0.396875,0.396875 0 0 0 -0.449585,0.336414 0.396875,0.396875 0 0 0 0.336413,0.449068 c 0.338989,0.04864 0.621916,0.04264 0.831474,0.02791 0.04219,-0.003 0.02687,-0.0035 0.06459,-0.0057 -0.0016,0.02936 0.0031,0.04247 -0.0011,0.07441 -0.02911,0.224471 -0.131831,0.479567 -0.273884,0.603581 -0.238185,0.20794 -0.403275,0.32659 -0.501261,0.390157 -0.09799,0.06357 -0.09922,0.06046 -0.09922,0.06046 a 0.396875,0.396875 0 0 0 -0.225312,0.513663 0.396875,0.396875 0 0 0 0.514181,0.225309 c 0,0 0.106855,-0.04542 0.242364,-0.133325 0.135506,-0.08791 0.3293,-0.229747 0.591177,-0.45837 0.35801,-0.312548 0.49321,-0.742724 0.539504,-1.099674 0.02315,-0.178475 0.02392,-0.339814 0,-0.488859 -0.01196,-0.07452 -0.02751,-0.145372 -0.06977,-0.230477 -0.04225,-0.08511 -0.13331,-0.23412 -0.350364,-0.264584 -0.21464,-0.03012 -0.310721,0.0093 -0.486793,0.0217 -0.176072,0.01238 -0.392941,0.01697 -0.66249,-0.0217 z"
         id="path28" />
      <path
         style="color:#000000;fill:#ffffff;stroke-width:0.995474;stroke-linecap:round;stroke-linejoin:round;-inkscape-stroke:none"
         d="m 16.424892,-23.472229 c -1.547947,-0.0096 -3.117291,-0.01209 -4.364074,0.0031 -0.62339,0.0076 -1.166088,0.01948 -1.588016,0.03721 -0.421928,0.01772 -0.6879749,0.02838 -0.9048538,0.08113 a 0.396875,0.396875 0 0 0 -0.291973,0.479557 0.396875,0.396875 0 0 0 0.4795573,0.291972 c 0.027861,-0.0068 0.3426485,-0.04228 0.7508585,-0.05943 0.408212,-0.01715 0.945377,-0.02915 1.564246,-0.03669 1.237734,-0.01508 2.803731,-0.01268 4.349088,-0.0031 1.545357,0.0096 3.070241,0.0262 4.22765,0.04082 1.157409,0.01463 1.910702,0.02739 2.029333,0.02739 a 0.396875,0.396875 0 0 0 0.396875,-0.396875 0.396875,0.396875 0 0 0 -0.396875,-0.396875 c -0.0335,0 -0.861078,-0.01223 -2.019514,-0.02687 -1.158439,-0.01464 -2.684352,-0.03174 -4.232302,-0.04134 z"
         id="path30" />
      <path
         style="color:#000000;fill:#ffffff;stroke-width:0.995474;stroke-linecap:round;stroke-linejoin:round;-inkscape-stroke:none"
         d="m 20.178668,-14.212846 a 0.396875,0.396875 0 0 0 -0.438732,0.349848 c -0.117467,1.035725 -0.0569,3.114207 0.101801,5.0689431 0.07935,0.9773681 0.184116,1.9152208 0.31006,2.6618511 0.06297,0.3733165 0.130908,0.6986032 0.207222,0.9648005 0.07631,0.2661973 0.130458,0.465709 0.310576,0.6583574 0.285086,0.3049191 0.523227,0.6256417 0.685747,0.8743659 0.06289,0.096253 0.103087,0.1679469 0.141076,0.2356432 -0.0708,0.074208 -0.159504,0.1624145 -0.265618,0.2521823 -0.240184,0.2031868 -0.576948,0.3584311 -0.593244,0.3591507 a 0.396875,0.396875 0 0 0 -0.378788,0.4139274 0.396875,0.396875 0 0 0 0.413928,0.3793067 c 0.4626,-0.020452 0.778446,-0.2989554 1.070734,-0.5462217 0.146145,-0.1236319 0.273682,-0.2473934 0.371554,-0.3534648 0.04894,-0.053038 0.08997,-0.1006952 0.126609,-0.1498627 0.01831,-0.02458 0.03525,-0.048345 0.05478,-0.083198 0.01953,-0.034856 0.05994,-0.057309 0.05994,-0.2191094 0,-0.1592395 -0.02904,-0.1660525 -0.04806,-0.211873 -0.01902,-0.045821 -0.04121,-0.09139 -0.06821,-0.1426263 -0.05401,-0.1024732 -0.127439,-0.2260627 -0.220141,-0.3679375 -0.185407,-0.2837471 -0.447042,-0.6364129 -0.770496,-0.9823688 0.02798,0.02993 -0.0646,-0.1154589 -0.127643,-0.3353806 -0.06304,-0.2199216 -0.127172,-0.5223907 -0.187068,-0.8774641 -0.119787,-0.710147 -0.223713,-1.6324633 -0.301789,-2.5941576 -0.156154,-1.9233918 -0.203877,-4.0382508 -0.104386,-4.9154608 a 0.396875,0.396875 0 0 0 -0.349852,-0.439251 z"
         id="path32" />
    </g>
  </g>
</svg>
