<?xml version="1.0" encoding="UTF-8" standalone="no"?>
<!-- Created with Inkscape (http://www.inkscape.org/) -->

<svg
   xmlns:dc="http://purl.org/dc/elements/1.1/"
   xmlns:cc="http://creativecommons.org/ns#"
   xmlns:rdf="http://www.w3.org/1999/02/22-rdf-syntax-ns#"
   xmlns:svg="http://www.w3.org/2000/svg"
   xmlns="http://www.w3.org/2000/svg"
   xmlns:sodipodi="http://sodipodi.sourceforge.net/DTD/sodipodi-0.dtd"
   xmlns:inkscape="http://www.inkscape.org/namespaces/inkscape"
   version="1.1"
   id="svg2"
   width="818"
   height="50"
   viewBox="0 0 818 50"
   sodipodi:docname="legende_gel_vf.svg"
   inkscape:version="0.92.5 (2060ec1f9f, 2020-04-08)"
   inkscape:export-filename="/home/eric/Bureau/Cloud_agaricids/demos.agaricids.com/mviewer/edp_fontaine/apps/edp_fontaine/img/legende_gel_vf.png"
   inkscape:export-xdpi="95"
   inkscape:export-ydpi="95">
  <metadata
     id="metadata8">
    <rdf:RDF>
      <cc:Work
         rdf:about="">
        <dc:format>image/svg+xml</dc:format>
        <dc:type
           rdf:resource="http://purl.org/dc/dcmitype/StillImage" />
        <dc:title></dc:title>
      </cc:Work>
    </rdf:RDF>
  </metadata>
  <defs
     id="defs6" />
  <sodipodi:namedview
     pagecolor="#ffffff"
     bordercolor="#666666"
     borderopacity="1"
     objecttolerance="10"
     gridtolerance="10"
     guidetolerance="10"
     inkscape:pageopacity="0"
     inkscape:pageshadow="2"
     inkscape:window-width="1920"
     inkscape:window-height="1134"
     id="namedview4"
     showgrid="false"
     inkscape:zoom="3.3774597"
     inkscape:cx="155.39745"
     inkscape:cy="-0.76665085"
     inkscape:window-x="1920"
     inkscape:window-y="0"
     inkscape:window-maximized="1"
     inkscape:current-layer="svg2" />
  <text
     xml:space="preserve"
     style="font-style:normal;font-weight:normal;font-size:21.40476227px;line-height:1.25;font-family:sans-serif;letter-spacing:0px;word-spacing:0px;fill:#000000;fill-opacity:1;stroke:none;stroke-width:1.00000012"
     x="43.27631"
     y="32.456501"
     id="text841"><tspan
       sodipodi:role="line"
       id="tspan839"
       x="43.27631"
       y="32.456501"
       style="stroke-width:1.00000012">Réseau « Ici, je choisis l’eau de Paris » : Commerces et lieux partenaires</tspan></text>
  <g
     transform="translate(-98.587076,-110.78407)"
     id="g864">
    <g
       id="g858"
       transform="translate(15.689354)">
      <path
         inkscape:connector-curvature="0"
         id="rect825-3"
         d="m 89.175607,126.57356 c -0.51621,0 -0.9316,0.4802 -0.9316,1.07633 v 2.16531 c -2.28861,0.99865 -3.86495,3.1457 -3.86495,5.64592 0,0.0867 0.004,0.1724 0.007,0.25819 -2.7e-4,0.0205 -0.003,0.0403 -0.003,0.0607 v 17.21416 c 0,2.1055 1.46783,3.80055 3.29108,3.80055 h 6.9548 c 1.82325,0 3.29108,-1.69505 3.29108,-3.80055 v -17.21416 c 0,-0.12629 -0.006,-0.25107 -0.0162,-0.37413 -0.023,-2.47163 -1.5856,-4.59141 -3.85004,-5.58516 v -2.17089 c 0,-0.59612 -0.41584,-1.07632 -0.93205,-1.07632 z"
         style="opacity:1;vector-effect:none;fill:#ffffff;fill-opacity:1;fill-rule:nonzero;stroke:none;stroke-width:3.4000001;stroke-linecap:round;stroke-linejoin:round;stroke-miterlimit:4;stroke-dasharray:none;stroke-dashoffset:154.69606018;stroke-opacity:1;paint-order:markers fill stroke" />
      <path
         inkscape:connector-curvature="0"
         id="path819-6"
         d="m 85.501597,136.25564 c 0,0 0.50119,-0.41454 1.94214,-0.41454 1.44095,0 6.45292,2.18785 9.1051,2.18785"
         style="fill:none;stroke:#002ddc;stroke-width:0.99999994;stroke-linecap:round;stroke-linejoin:round;stroke-miterlimit:4;stroke-dasharray:none;stroke-opacity:1" />
      <path
         inkscape:connector-curvature="0"
         id="path849-7"
         d="m 89.967767,126.25944 v -3.45877"
         style="fill:#000000;fill-opacity:1;stroke:#002ddc;stroke-width:0.99999994;stroke-linecap:round;stroke-linejoin:round;stroke-miterlimit:4;stroke-dasharray:none;stroke-opacity:1" />
      <path
         inkscape:connector-curvature="0"
         id="path849-6-53"
         d="m 92.246887,119.96333 v -5.13849"
         style="fill:#000000;fill-opacity:1;stroke:#002ddc;stroke-width:0.99999994;stroke-linecap:round;stroke-linejoin:round;stroke-miterlimit:4;stroke-dasharray:none;stroke-opacity:1" />
      <path
         inkscape:connector-curvature="0"
         id="path849-6-7-5"
         d="m 89.970617,116.20533 v -1.23819"
         style="fill:#000000;fill-opacity:1;stroke:#002ddc;stroke-width:0.99999994;stroke-linecap:round;stroke-linejoin:round;stroke-miterlimit:4;stroke-dasharray:none;stroke-opacity:1" />
      <path
         inkscape:connector-curvature="0"
         id="path849-6-5-6"
         d="m 92.288657,126.3004 v -0.72438"
         style="fill:#000000;fill-opacity:1;stroke:#002ddc;stroke-width:0.99999994;stroke-linecap:round;stroke-linejoin:round;stroke-miterlimit:4;stroke-dasharray:none;stroke-opacity:1" />
      <path
         style="fill:#ffffff;fill-opacity:1;stroke:#002ddc;stroke-width:0.99999994;stroke-linecap:round;stroke-linejoin:round;stroke-miterlimit:4;stroke-dasharray:none;stroke-opacity:1"
         d="m 92.242817,124.43473 c 0,0 0.85515,0.0343 0.85515,-0.93449 0,-0.81019 -0.67471,-1.65465 -0.79239,-1.65465 -0.11768,0 -0.85204,0.85055 -0.85204,1.65554 0,0.80499 0.56176,0.9336 0.78928,0.9336 z"
         id="path866-2"
         inkscape:connector-curvature="0"
         sodipodi:nodetypes="csssc" />
      <path
         style="fill:#ffffff;fill-opacity:1;stroke:#002ddc;stroke-width:0.99999994;stroke-linecap:round;stroke-linejoin:round;stroke-miterlimit:4;stroke-dasharray:none;stroke-opacity:1"
         d="m 89.919807,121.51795 c 0,0 1.23789,0.0484 1.23789,-1.32105 0,-1.14531 -0.97668,-2.3391 -1.14703,-2.3391 -0.17036,0 -1.23338,1.2024 -1.23338,2.34037 0,1.13798 0.81317,1.31978 1.14252,1.31978 z"
         id="path866-6-9"
         inkscape:connector-curvature="0"
         sodipodi:nodetypes="csssc" />
      <path
         style="opacity:1;vector-effect:none;fill:none;fill-opacity:1;fill-rule:nonzero;stroke:#002ddc;stroke-width:0.99999994;stroke-linecap:round;stroke-linejoin:round;stroke-miterlimit:4;stroke-dasharray:none;stroke-dashoffset:154.69606018;stroke-opacity:1;paint-order:markers fill stroke"
         d="m 97.920387,149.84012 v -14.06005 c 0,-0.12629 -0.006,-0.25108 -0.0162,-0.37414 -0.023,-2.47163 -1.5856,-4.5914 -3.85004,-5.58515 v -2.17089 c 0,-0.59613 -0.41583,-1.07633 -0.93204,-1.07633 h -3.94649 v 0 c -0.51622,0 -0.9316,0.4802 -0.9316,1.07633 v 2.16531 c -2.28862,0.99865 -3.86495,3.1457 -3.86495,5.64592 0,0.0867 0.004,0.1724 0.007,0.25819 -2.9e-4,0.0205 -0.003,0.0403 -0.003,0.0607 v 17.21416 c 0,2.1055 1.46783,3.80055 3.29109,3.80055 h 6.95471 c 1.61142,0 2.94522,-1.32407 3.23339,-3.08534"
         id="path853"
         inkscape:connector-curvature="0"
         sodipodi:nodetypes="csccssccscscssssc" />
    </g>
  </g>
</svg>
