<?xml version="1.0" encoding="UTF-8" standalone="no"?>
<!-- Created with Inkscape (http://www.inkscape.org/) -->

<svg
   width="65"
   height="100"
   viewBox="0 0 17.197916 26.458334"
   version="1.1"
   id="svg127350"
   inkscape:export-filename="C:\Users\Agathe\Desktop\robinet.png"
   inkscape:export-xdpi="200"
   inkscape:export-ydpi="200"
   inkscape:version="1.1 (c68e22c387, 2021-05-23)"
   sodipodi:docname="robinet.svg"
   xmlns:inkscape="http://www.inkscape.org/namespaces/inkscape"
   xmlns:sodipodi="http://sodipodi.sourceforge.net/DTD/sodipodi-0.dtd"
   xmlns="http://www.w3.org/2000/svg"
   xmlns:svg="http://www.w3.org/2000/svg">
  <sodipodi:namedview
     id="namedview127352"
     pagecolor="#ffffff"
     bordercolor="#666666"
     borderopacity="1.0"
     inkscape:pageshadow="2"
     inkscape:pageopacity="0"
     inkscape:pagecheckerboard="0"
     inkscape:document-units="mm"
     showgrid="false"
     units="px"
     inkscape:zoom="11.944557"
     inkscape:cx="54.920413"
     inkscape:cy="55.297153"
     inkscape:window-width="2400"
     inkscape:window-height="1271"
     inkscape:window-x="2391"
     inkscape:window-y="-9"
     inkscape:window-maximized="1"
     inkscape:current-layer="g1038" />
  <defs
     id="defs127347" />
  <g
     inkscape:label="Calque 1"
     inkscape:groupmode="layer"
     id="layer1">
    <g
       id="g1038"
       transform="matrix(0.03179729,0,0,0.03179729,2.6802779,5.3206668)">
      <path
         id="path4"
         style="color:#000000;fill:#002ddc;stroke:#ffffff;stroke-width:0.37795276;stroke-linecap:round;stroke-miterlimit:4;stroke-dasharray:none;stroke-opacity:1;fill-opacity:1"
         d="M 20.214844 30.755859 C 18.631693 30.697945 17.03888 30.92038 15.541016 31.441406 C 13.727431 32.072618 11.804655 33.367511 12.25 35.570312 C 12.666821 37.633254 14.834167 38.851217 16.748047 39.164062 C 17.450937 39.278714 18.13363 39.294072 18.806641 39.263672 C 19.350645 39.319477 19.909434 39.355469 20.488281 39.355469 C 22.867214 39.355469 24.886196 38.346075 26.296875 37.398438 C 26.32116 38.800658 26.462642 40.201427 26.728516 41.589844 C 26.709636 41.58992 26.690755 41.589767 26.671875 41.589844 C 22.008633 41.609167 17.345915 41.629114 12.683594 41.648438 C 12.116512 41.651782 11.857447 42.10644 11.878906 42.546875 A 0.84948197 0.84948197 0 0 0 11.802734 42.730469 A 0.84948197 0.84948197 0 0 0 12.652344 43.580078 L 44.597656 43.580078 C 44.870187 43.580078 45.049154 43.649205 45.298828 43.666016 C 45.937435 43.829348 46.564539 44.034991 47.150391 44.353516 C 50.241123 46.035522 50.375323 49.557898 50.603516 52.683594 C 50.916025 56.946729 51.052866 61.218251 51.037109 65.492188 C 49.898414 66.206476 48.641596 66.743686 47.320312 67.091797 C 46.477061 67.183623 45.565406 67.244141 44.597656 67.244141 C 42.522806 67.244141 40.643684 67.004687 39.349609 66.646484 C 38.985545 66.545711 38.807653 66.434993 38.550781 66.324219 C 38.26206 66.175089 37.980503 66.011461 37.705078 65.833984 L 37.705078 60.005859 L 37.705078 59.845703 A 0.84948197 0.84948197 0 0 0 37.693359 59.798828 C 37.687942 59.672066 37.658516 59.558171 37.601562 59.458984 A 0.84948197 0.84948197 0 0 0 37.583984 59.412109 A 0.84948197 0.84948197 0 0 0 37.582031 59.408203 C 37.522621 59.319934 37.445807 59.245331 37.357422 59.185547 A 0.84948197 0.84948197 0 0 0 37.074219 59.054688 A 0.84948197 0.84948197 0 0 0 36.855469 58.996094 A 0.84948197 0.84948197 0 0 0 36.787109 59.023438 C 36.598928 59.029479 36.42269 59.102916 36.279297 59.234375 A 0.84948197 0.84948197 0 0 0 36.25 59.255859 C 36.158288 59.348904 36.080237 59.46287 36.037109 59.619141 C 35.802476 60.468425 35.953463 61.530637 35.958984 62.396484 C 35.965426 63.566895 35.98171 64.735839 36.001953 65.90625 C 36.002202 65.918708 36.00558 65.927168 36.005859 65.939453 L 36.005859 65.949219 C 36.005859 65.950813 36.007808 65.951533 36.007812 65.953125 C 36.018314 66.386934 36.050937 66.719938 36.429688 67.033203 C 36.526 67.112414 36.634042 67.180171 36.736328 67.253906 C 36.828325 67.329856 36.90088 67.430556 36.998047 67.494141 C 37.073691 67.543641 37.198262 67.565521 37.279297 67.611328 C 37.881874 67.966725 38.536451 68.255765 39.171875 68.488281 C 41.098637 69.194025 43.321971 69.362552 45.355469 69.191406 C 46.16699 69.123486 46.962169 68.964497 47.746094 68.763672 C 48.691518 68.651332 49.555537 68.488965 50.298828 68.283203 C 51.052867 68.074467 51.686869 67.828149 52.197266 67.494141 C 52.707662 67.160131 53.189453 66.659765 53.189453 65.949219 L 53.189453 52.826172 C 53.189453 51.883277 53.337926 49.201987 52.339844 46.705078 C 51.376601 44.295323 49.129997 42.064476 45.03125 41.910156 C 43.05121 41.527334 40.952946 41.530939 38.966797 41.539062 C 35.499373 41.553076 32.031674 41.567816 28.564453 41.582031 L 28.564453 37.244141 C 29.227717 37.64637 29.922511 37.987327 30.644531 38.263672 C 31.8676 38.867116 33.314643 39.357422 34.943359 39.357422 C 37.044046 39.357422 38.949568 38.977046 40.40625 38.308594 C 41.134591 37.974368 41.756306 37.566733 42.226562 37.056641 C 42.696818 36.546548 43.019531 35.899394 43.019531 35.191406 C 43.019531 34.483525 42.696825 33.834152 42.226562 33.324219 C 41.756301 32.814286 41.134573 32.408373 40.40625 32.074219 C 39.821916 31.806127 39.150148 31.599132 38.4375 31.429688 C 38.434185 31.428821 38.431049 31.428597 38.427734 31.427734 C 37.366365 31.176266 36.197509 31.025391 34.943359 31.025391 C 32.246219 31.025391 29.961503 32.327101 28.564453 33.359375 L 28.564453 31.875 A 0.84948197 0.84948197 0 0 0 28.552734 31.863281 C 28.69318 30.861126 27.15381 30.456262 26.914062 31.492188 C 26.82136 31.891688 26.740103 32.293148 26.667969 32.695312 C 24.729722 31.515837 22.486727 30.838969 20.214844 30.755859 z M 20.488281 32.724609 C 22.802198 32.724609 24.870529 34.017554 26.056641 34.921875 C 25.784233 35.075981 25.499484 35.238275 25.230469 35.386719 C 23.340606 36.429431 21.293727 37.336559 19.121094 37.527344 C 17.806609 37.398238 16.592385 37.15638 15.732422 36.761719 C 15.15298 36.495797 14.716232 36.187629 14.455078 35.904297 C 14.193926 35.620966 14.111328 35.397072 14.111328 35.189453 C 14.111328 34.982192 14.193931 34.759795 14.455078 34.476562 C 14.716224 34.19333 15.152962 33.883066 15.732422 33.617188 C 16.891342 33.085429 18.597864 32.724609 20.488281 32.724609 z M 36.408203 32.861328 C 36.568445 32.878211 36.735361 32.884394 36.890625 32.90625 C 37.228026 32.934962 37.565644 32.986122 37.902344 33.066406 C 38.211501 33.13616 38.460801 33.236191 38.736328 33.324219 C 39.083348 33.472696 39.417463 33.646769 39.703125 33.888672 C 40.405188 34.483078 40.85057 35.411297 40.085938 36.146484 C 39.336949 36.86695 38.101505 37.126989 37.113281 37.302734 C 36.005439 37.498723 34.839926 37.50592 33.726562 37.347656 C 32.915257 37.233587 32.132239 37.002523 31.369141 36.71875 C 30.376081 36.221573 29.551203 35.628344 29.015625 35.195312 C 29.276949 35.050591 29.541914 34.894645 29.802734 34.755859 C 31.8375 33.673596 34.067271 32.79901 36.408203 32.861328 z "
         transform="matrix(8.3209397,0,0,8.3209397,-84.292652,-167.33083)" />
    </g>
  </g>
</svg>
