<?xml version="1.0" encoding="UTF-8" standalone="no"?>
<!-- Created with Inkscape (http://www.inkscape.org/) -->

<svg
   width="65"
   height="100"
   viewBox="0 0 17.197916 26.458334"
   version="1.1"
   id="svg127350"
   inkscape:export-filename="C:\Users\Agathe\Desktop\commerces.png"
   inkscape:export-xdpi="200"
   inkscape:export-ydpi="200"
   inkscape:version="1.1 (c68e22c387, 2021-05-23)"
   sodipodi:docname="robinet.svg"
   xmlns:inkscape="http://www.inkscape.org/namespaces/inkscape"
   xmlns:sodipodi="http://sodipodi.sourceforge.net/DTD/sodipodi-0.dtd"
   xmlns="http://www.w3.org/2000/svg"
   xmlns:svg="http://www.w3.org/2000/svg">
  <sodipodi:namedview
     id="namedview127352"
     pagecolor="#ffffff"
     bordercolor="#666666"
     borderopacity="1.0"
     inkscape:pageshadow="2"
     inkscape:pageopacity="0"
     inkscape:pagecheckerboard="0"
     inkscape:document-units="mm"
     showgrid="false"
     units="px"
     inkscape:zoom="5.9722783"
     inkscape:cx="55.087855"
     inkscape:cy="55.171575"
     inkscape:window-width="2400"
     inkscape:window-height="1271"
     inkscape:window-x="2391"
     inkscape:window-y="-9"
     inkscape:window-maximized="1"
     inkscape:current-layer="g1038" />
  <defs
     id="defs127347" />
  <g
     inkscape:label="Calque 1"
     inkscape:groupmode="layer"
     id="layer1">
    <g
       id="g1038"
       transform="matrix(0.03179729,0,0,0.03179729,2.6802779,5.3206668)">
      <g
         id="g878"
         transform="matrix(0.76563836,0,0,0.76563836,-239.37573,-159.19693)">
        <path
           style="color:#000000;fill:#072ed9;stroke-linecap:round;stroke-miterlimit:10;-inkscape-stroke:none"
           d="m 340.05078,444.53711 a 9.2321501,9.2321501 0 0 0 -9.23242,9.23242 9.2321501,9.2321501 0 0 0 9.23242,9.23242 H 687.25 c 41.64097,0 58.10573,18.58703 66.99609,40.82813 8.89036,22.2411 7.91211,47.9673 7.91211,59.66992 v 142.61914 c 0,-1.29219 0.53278,-0.60266 -2.43554,1.33984 -2.96833,1.94251 -8.40809,4.28402 -15.43946,6.23047 -14.06273,3.89291 -34.48893,6.48828 -57.0332,6.48828 -22.54942,0 -42.97899,-2.59534 -57.04297,-6.48828 -7.03199,-1.94646 -12.47101,-4.28796 -15.43945,-6.23047 -2.96844,-1.9425 -2.43555,-2.63203 -2.43555,-1.33984 v -66.34961 a 9.2321501,9.2321501 0 0 0 -9.23242,-9.23242 9.2321501,9.2321501 0 0 0 -9.23242,9.23242 v 66.34961 c 0,7.72219 5.24188,13.16103 10.78906,16.79102 5.54718,3.62999 12.42951,6.30569 20.625,8.57421 16.39099,4.53706 38.03822,7.15821 61.96875,7.15821 23.92568,0 45.56925,-2.62112 61.95898,-7.15821 8.19487,-2.26854 15.07803,-4.94422 20.625,-8.57421 5.54698,-3.63 10.78907,-9.06883 10.78907,-16.79102 V 563.5 c 0,-10.24735 1.6147,-39.38709 -9.23243,-66.52344 C 760.5435,469.84021 734.93894,444.53711 687.25,444.53711 Z"
           id="path4" />
        <path
           style="color:#000000;fill:#072ed9;stroke-linecap:round;stroke-linejoin:round;stroke-miterlimit:10;-inkscape-stroke:none"
           d="m 425.23047,326.55859 c -22.83495,0 -43.55882,4.13313 -59.38867,11.39649 -7.91493,3.63167 -14.6576,8.04379 -19.76758,13.58594 -5.10998,5.54214 -8.61719,12.58682 -8.61719,20.27929 0,7.69361 3.50532,14.73933 8.61524,20.28321 5.10991,5.54387 11.8544,9.95737 19.76953,13.58984 15.83025,7.26493 36.55372,11.39844 59.38867,11.39844 29.30342,0 54.11689,-14.14391 69.29687,-25.36524 v 62.05274 a 9.2321501,9.2321501 0 0 0 9.23243,9.23242 9.2321501,9.2321501 0 0 0 9.23242,-9.23242 v -62.04688 c 15.18318,11.22178 40.0056,25.36914 69.31836,25.36914 22.83021,0 43.55163,-4.13372 59.38281,-11.39844 7.91559,-3.63235 14.66075,-8.04617 19.77148,-13.58984 5.11073,-5.54367 8.61719,-12.58882 8.61719,-20.2832 0,-7.69325 -3.50834,-14.73736 -8.61914,-20.2793 -5.1108,-5.54194 -11.85414,-9.95437 -19.76953,-13.58594 -15.83078,-7.26314 -36.5526,-11.39648 -59.38281,-11.39648 -29.31246,0 -54.13525,14.1426 -69.31836,25.36133 v -16.14063 a 9.2321501,9.2321501 0 0 0 -9.23242,-9.23047 9.2321501,9.2321501 0 0 0 -9.23243,9.23047 v 16.12696 c -15.1787,-11.21827 -39.98997,-25.35743 -69.29687,-25.35743 z m 0,18.46289 c 27.57595,0 52.54511,17.15238 64.46289,26.79883 -11.92009,9.64912 -36.89481,26.80664 -64.46289,26.80664 -20.54501,0 -39.09278,-3.93478 -51.6875,-9.71484 -6.29736,-2.89003 -11.05437,-6.24302 -13.89258,-9.32227 -2.8382,-3.07924 -3.72852,-5.51314 -3.72852,-7.76953 0,-2.25252 0.88843,-4.68551 3.72657,-7.76367 2.83813,-3.07816 7.59697,-6.43075 13.89453,-9.32031 12.59512,-5.77914 31.14249,-9.71485 51.6875,-9.71485 z m 157.08008,0.01 c 20.53974,0 39.08689,3.93745 51.68359,9.7168 6.29835,2.88967 11.05761,6.24195 13.89648,9.32031 2.83888,3.07836 3.72657,5.50997 3.72657,7.76172 0,2.25561 -0.88957,4.69009 -3.72852,7.76953 -2.83895,3.07944 -7.59638,6.43213 -13.89453,9.32226 -12.5963,5.78028 -31.14385,9.7168 -51.68359,9.7168 -27.57418,0 -52.55588,-17.15685 -64.48047,-26.80664 11.92435,-9.64709 36.90496,-26.80078 64.48047,-26.80078 z"
           id="path6" />
        <path
           style="color:#000000;fill:#072ed9;-inkscape-stroke:none"
           d="m 502.42,351.17 c -36.92,-27.18 -87.55,-35.19 -130.96,-20.09 -19.71,6.86 -40.62,20.93 -35.78,44.87 4.53,22.42 28.09,35.65 48.89,39.05 53.03,8.65 97.66,-24.37 141.88,-47.9 22.58,-12.01 47.35,-21.82 73.38,-20.68 11.85,0.52 24.94,3.41 34.21,11.26 7.63,6.46 12.47,16.54 4.16,24.53 -8.14,7.83 -21.55,10.66 -32.29,12.57 -12.04,2.13 -24.72,2.22 -36.82,0.5 -24.68,-3.47 -47.99,-14.39 -66.11,-31.5 -8.64,-8.16 -21.73,4.87 -13.06,13.05 32.6,30.77 79.22,44.03 123.18,35.32 19.51,-3.87 44.97,-13.02 47.86,-35.82 3,-23.67 -20.52,-40.13 -40.67,-45.38 -52.41,-13.7 -100,18.99 -143.53,43.01 -22.42,12.37 -46.79,23.47 -72.85,24.03 -11.6,0.25 -24.19,-1.31 -34.39,-7.21 -7.98,-4.63 -18.06,-13.97 -15.83,-24.29 2.52,-11.72 18.54,-16.52 28.44,-19.44 12.38,-3.66 25.14,-5.27 38.04,-4.99 26.39,0.58 51.73,9.43 72.95,25.05 9.56,7.06 18.78,-8.96 9.3,-15.94"
           id="path8" />
        <path
           style="color:#000000;fill:#072ed9;-inkscape-stroke:none"
           d="m 495.05,331.64 c -8.53,36.76 -9.04,74.68 -1.67,111.69 2.31,11.63 20.13,6.71 17.8,-4.91 -6.7,-33.65 -6.07,-68.45 1.67,-101.86 2.68,-11.58 -15.12,-16.5 -17.8,-4.92"
           id="path10" />
        <path
           style="color:#000000;fill:#072ed9;-inkscape-stroke:none"
           d="m 340.4,460.48 c 84.97,-0.36 169.96,-0.7 254.93,-1.05 21.25,-0.1 42.54,-0.64 63.78,-0.05 19.1,0.54 38.82,2.76 55.87,12.03 33.59,18.28 35.05,56.55 37.53,90.52 3.46,47.2 5,94.51 4.76,141.83 -0.06,11.89 18.4,11.9 18.46,0 0.22,-44.29 -1.12,-88.59 -4.12,-132.8 -2.42,-35.65 -2.39,-78.7 -31.46,-104.36 -31.3,-27.65 -74.99,-25.94 -114.11,-25.78 -44.54,0.18 -89.07,0.37 -133.61,0.55 -50.68,0.21 -101.36,0.42 -152.03,0.63 -11.87,0.07 -11.9,18.53 0,18.48"
           id="path12" />
        <path
           style="color:#000000;fill:#072ed9;-inkscape-stroke:none"
           d="m 763.06,697.69 c -44.46,31.07 -109.94,36.72 -155.26,4.24 1.53,2.66 3.05,5.32 4.58,7.98 -0.22,-10.99 -0.38,-21.98 -0.49,-32.98 -0.07,-7.93 -0.15,-15.85 -0.09,-23.78 0.02,-2.88 0.02,-5.76 0.15,-8.64 0.06,-1.75 0.92,-5.44 0.05,-2.28 3.16,-11.47 -14.64,-16.36 -17.8,-4.91 -2.55,9.23 -0.91,20.77 -0.85,30.18 0.07,12.72 0.26,25.43 0.48,38.15 0.1,5 0.37,8.7 4.65,12.24 8.56,7.04 19.47,12.04 29.8,15.82 20.94,7.67 45.1,9.49 67.2,7.63 27.6,-2.31 54.19,-11.83 76.9,-27.7 9.68,-6.77 0.46,-22.78 -9.32,-15.95"
           id="path14" />
      </g>
    </g>
  </g>
</svg>
