<?xml version="1.0" encoding="UTF-8" standalone="no"?>
<!-- Created with Inkscape (http://www.inkscape.org/) -->

<svg
   width="271.01917"
   height="147.54967"
   viewBox="0 0 71.707153 39.039186"
   version="1.1"
   id="svg8"
   inkscape:version="1.1 (c68e22c387, 2021-05-23)"
   sodipodi:docname="label_none_legend.svg"
   inkscape:export-filename="C:\xampp\htdocs\gitJdev\mviewer\apps\edp_arret_eau\img\legende_new.png"
   inkscape:export-xdpi="300"
   inkscape:export-ydpi="300"
   xmlns:inkscape="http://www.inkscape.org/namespaces/inkscape"
   xmlns:sodipodi="http://sodipodi.sourceforge.net/DTD/sodipodi-0.dtd"
   xmlns="http://www.w3.org/2000/svg"
   xmlns:svg="http://www.w3.org/2000/svg"
   xmlns:rdf="http://www.w3.org/1999/02/22-rdf-syntax-ns#"
   xmlns:cc="http://creativecommons.org/ns#"
   xmlns:dc="http://purl.org/dc/elements/1.1/">
  <defs
     id="defs2">
    <clipPath
       clipPathUnits="userSpaceOnUse"
       id="clipPath12304">
      <rect
         style="fill:#aabffe;fill-opacity:1;stroke-width:0.933352;stroke-linecap:round;paint-order:fill markers stroke;stop-color:#000000"
         id="rect12306"
         width="57.462948"
         height="31.003262"
         x="1.6036171"
         y="199.58226"
         ry="3.7417641"
         rx="3.7417641" />
    </clipPath>
    <filter
       style="color-interpolation-filters:sRGB"
       inkscape:label="Drop Shadow"
       id="filter29758"
       x="-0.084188596"
       y="-0.15126168"
       width="1.1683772"
       height="1.3025234">
      <feFlood
         flood-opacity="0.0980392"
         flood-color="rgb(0,0,0)"
         result="flood"
         id="feFlood29748" />
      <feComposite
         in="flood"
         in2="SourceGraphic"
         operator="in"
         result="composite1"
         id="feComposite29750" />
      <feGaussianBlur
         in="composite1"
         stdDeviation="0.7"
         result="blur"
         id="feGaussianBlur29752" />
      <feOffset
         dx="0"
         dy="1.38778e-16"
         result="offset"
         id="feOffset29754" />
      <feComposite
         in="SourceGraphic"
         in2="offset"
         operator="over"
         result="composite2"
         id="feComposite29756" />
    </filter>
    <filter
       style="color-interpolation-filters:sRGB"
       inkscape:label="Drop Shadow"
       id="filter29770"
       x="-0.099224002"
       y="-0.15126168"
       width="1.198448"
       height="1.3025234">
      <feFlood
         flood-opacity="0.0980392"
         flood-color="rgb(0,0,0)"
         result="flood"
         id="feFlood29760" />
      <feComposite
         in="flood"
         in2="SourceGraphic"
         operator="in"
         result="composite1"
         id="feComposite29762" />
      <feGaussianBlur
         in="composite1"
         stdDeviation="0.7"
         result="blur"
         id="feGaussianBlur29764" />
      <feOffset
         dx="0"
         dy="1.38778e-16"
         result="offset"
         id="feOffset29766" />
      <feComposite
         in="SourceGraphic"
         in2="offset"
         operator="over"
         result="composite2"
         id="feComposite29768" />
    </filter>
    <filter
       style="color-interpolation-filters:sRGB"
       inkscape:label="Drop Shadow"
       id="filter29782"
       x="-0.094477562"
       y="-0.15126168"
       width="1.1889551"
       height="1.3025234">
      <feFlood
         flood-opacity="0.0980392"
         flood-color="rgb(0,0,0)"
         result="flood"
         id="feFlood29772" />
      <feComposite
         in="flood"
         in2="SourceGraphic"
         operator="in"
         result="composite1"
         id="feComposite29774" />
      <feGaussianBlur
         in="composite1"
         stdDeviation="0.7"
         result="blur"
         id="feGaussianBlur29776" />
      <feOffset
         dx="0"
         dy="1.38778e-16"
         result="offset"
         id="feOffset29778" />
      <feComposite
         in="SourceGraphic"
         in2="offset"
         operator="over"
         result="composite2"
         id="feComposite29780" />
    </filter>
  </defs>
  <sodipodi:namedview
     id="base"
     pagecolor="#ffffff"
     bordercolor="#666666"
     borderopacity="1.0"
     inkscape:pageopacity="0.0"
     inkscape:pageshadow="2"
     inkscape:zoom="2.8"
     inkscape:cx="110.71429"
     inkscape:cy="100.53571"
     inkscape:document-units="mm"
     inkscape:current-layer="layer1"
     showgrid="false"
     units="px"
     inkscape:window-width="2400"
     inkscape:window-height="1271"
     inkscape:window-x="-9"
     inkscape:window-y="-9"
     inkscape:window-maximized="1"
     inkscape:pagecheckerboard="0"
     fit-margin-top="0"
     fit-margin-left="0"
     fit-margin-right="0"
     fit-margin-bottom="0" />
  <metadata
     id="metadata5">
    <rdf:RDF>
      <cc:Work
         rdf:about="">
        <dc:format>image/svg+xml</dc:format>
        <dc:type
           rdf:resource="http://purl.org/dc/dcmitype/StillImage" />
      </cc:Work>
    </rdf:RDF>
  </metadata>
  <g
     inkscape:label="Calque 1"
     inkscape:groupmode="layer"
     id="layer1"
     transform="translate(-4.5575779,-256.97723)">
    <path
       style="fill:none;fill-opacity:1;stroke:#282cd9;stroke-width:0.365;stroke-linecap:round;stroke-linejoin:miter;stroke-miterlimit:4;stroke-dasharray:none;stroke-opacity:1"
       d="m 61.843549,289.86247 h -8.68626 l -8.132726,-9.19787"
       id="path909-0"
       inkscape:connector-curvature="0"
       sodipodi:nodetypes="ccc" />
    <rect
       style="fill:#ffffff;fill-opacity:1;stroke-width:0.908759;stroke-linecap:round;paint-order:fill markers stroke;filter:url(#filter29758);stop-color:#000000"
       id="rect10653-5"
       width="19.955196"
       height="11.10658"
       x="55.68787"
       y="283.22983"
       ry="3.7417734"
       rx="3.7417734" />
    <g
       aria-label="Nombre de travaux"
       id="text845-8-4"
       style="font-size:2.9774px;line-height:0.95;letter-spacing:0px;word-spacing:0px;fill:#282cd9;stroke-width:0.294416"
       transform="translate(1.0583333)">
      <path
         d="m 62.115402,286.20582 q 0,-0.0298 0.02977,-0.0298 h 0.226282 q 0.02977,0 0.02977,0.0298 v 2.02463 q 0,0.0298 -0.02977,0.0298 h -0.21735 q -0.02084,0 -0.03573,-0.0208 L 61.186448,286.718 q -0.003,-0.009 -0.0089,-0.006 -0.006,0 -0.006,0.009 l 0.003,1.50954 q 0,0.0298 -0.02977,0.0298 h -0.226282 q -0.02977,0 -0.02977,-0.0298 v -2.02463 q 0,-0.0298 0.02977,-0.0298 h 0.220327 q 0.02084,0 0.03573,0.0208 l 0.928949,1.52145 q 0.003,0.009 0.0089,0.009 0.006,-0.003 0.006,-0.0119 z"
         style="font-weight:500;font-family:Barlow;-inkscape-font-specification:'Barlow Medium';text-align:end;text-anchor:end"
         id="path5829" />
      <path
         d="m 63.476069,288.28404 q -0.220328,0 -0.384085,-0.11016 -0.163757,-0.11314 -0.22926,-0.31263 -0.05359,-0.16078 -0.05359,-0.36324 0,-0.2114 0.05062,-0.35729 0.0655,-0.19651 0.22926,-0.30667 0.163757,-0.11314 0.390039,-0.11314 0.214373,0 0.372175,0.11314 0.16078,0.11016 0.22926,0.30369 0.05359,0.15185 0.05359,0.35729 0,0.20842 -0.05359,0.36622 -0.0655,0.19949 -0.226282,0.31263 -0.16078,0.11016 -0.37813,0.11016 z m 0,-0.24712 q 0.119096,0 0.208418,-0.0655 0.08932,-0.0685 0.128028,-0.19056 0.03275,-0.11314 0.03275,-0.27987 0,-0.16674 -0.02977,-0.2769 -0.03871,-0.12208 -0.128028,-0.18758 -0.08932,-0.0685 -0.21735,-0.0685 -0.122073,0 -0.211395,0.0685 -0.08932,0.0655 -0.128029,0.18758 -0.03275,0.10421 -0.03275,0.2769 0,0.17269 0.03275,0.27987 0.03573,0.12208 0.125051,0.19056 0.0923,0.0655 0.220328,0.0655 z"
         style="font-weight:500;font-family:Barlow;-inkscape-font-specification:'Barlow Medium';text-align:end;text-anchor:end"
         id="path5831" />
      <path
         d="m 66.084266,286.72388 q 0.226283,0 0.357288,0.13697 0.131006,0.13398 0.131006,0.37515 v 0.99445 q 0,0.0298 -0.02977,0.0298 h -0.223305 q -0.02977,0 -0.02977,-0.0298 v -0.9349 q 0,-0.14887 -0.08337,-0.23522 -0.08039,-0.0893 -0.21735,-0.0893 -0.136961,0 -0.223305,0.0863 -0.08635,0.0864 -0.08635,0.23224 v 0.94086 q 0,0.0298 -0.02977,0.0298 h -0.223305 q -0.02977,0 -0.02977,-0.0298 v -0.9349 q 0,-0.14887 -0.08337,-0.23522 -0.08039,-0.0893 -0.21735,-0.0893 -0.136961,0 -0.220328,0.0863 -0.08039,0.0864 -0.08039,0.23224 v 0.94086 q 0,0.0298 -0.02977,0.0298 h -0.226282 q -0.02977,0 -0.02977,-0.0298 v -1.45595 q 0,-0.0298 0.02977,-0.0298 h 0.226282 q 0.02977,0 0.02977,0.0298 v 0.10123 q 0,0.006 0.003,0.009 0.006,0.003 0.01191,-0.003 0.131006,-0.15781 0.381107,-0.15781 0.151848,0 0.259034,0.0596 0.107187,0.0566 0.166735,0.16971 0.0089,0.0119 0.01786,0 0.07146,-0.11611 0.187576,-0.17268 0.119096,-0.0566 0.262011,-0.0566 z"
         style="font-weight:500;font-family:Barlow;-inkscape-font-specification:'Barlow Medium';text-align:end;text-anchor:end"
         id="path5833" />
      <path
         d="m 68.189279,287.13774 q 0.04764,0.15185 0.04764,0.36027 0,0.2233 -0.05657,0.38111 -0.0655,0.19353 -0.208418,0.30071 -0.139938,0.10421 -0.35431,0.10421 -0.104209,0 -0.193531,-0.0417 -0.08932,-0.0417 -0.154825,-0.11612 -0.006,-0.006 -0.01191,-0.003 -0.003,0.003 -0.003,0.009 v 0.0983 q 0,0.0298 -0.02977,0.0298 h -0.226283 q -0.02977,0 -0.02977,-0.0298 v -2.02463 q 0,-0.0298 0.02977,-0.0298 h 0.226283 q 0.02977,0 0.02977,0.0298 v 0.66396 q 0,0.006 0.003,0.009 0.006,0.003 0.01191,-0.003 0.0655,-0.0744 0.154825,-0.11314 0.0923,-0.0417 0.193531,-0.0417 0.223305,0 0.36622,0.11016 0.142915,0.11017 0.20544,0.30667 z m -0.315604,0.73542 q 0.07443,-0.13994 0.07443,-0.3692 0,-0.24414 -0.09528,-0.39301 -0.08634,-0.14292 -0.264988,-0.14292 -0.166735,0 -0.253079,0.15185 -0.07741,0.13696 -0.07741,0.38111 0,0.24414 0.07146,0.37515 0.08932,0.16078 0.262011,0.16078 0.196508,0 0.282853,-0.16376 z"
         style="font-weight:500;font-family:Barlow;-inkscape-font-specification:'Barlow Medium';text-align:end;text-anchor:end"
         id="path5835" />
      <path
         d="m 69.276029,286.72984 q 0.09528,0 0.172689,0.0387 0.02084,0.009 0.01489,0.0357 l -0.04764,0.22331 q -0.003,0.0268 -0.03573,0.0179 -0.05062,-0.0208 -0.119096,-0.0208 l -0.04168,0.003 q -0.139938,0.006 -0.232237,0.0983 -0.08932,0.0893 -0.08932,0.23522 v 0.8694 q 0,0.0298 -0.02977,0.0298 h -0.226282 q -0.02977,0 -0.02977,-0.0298 v -1.45595 q 0,-0.0298 0.02977,-0.0298 h 0.226282 q 0.02977,0 0.02977,0.0298 v 0.1578 q 0,0.009 0.003,0.0119 0.006,0 0.0089,-0.006 0.133983,-0.20842 0.36622,-0.20842 z"
         style="font-weight:500;font-family:Barlow;-inkscape-font-specification:'Barlow Medium';text-align:end;text-anchor:end"
         id="path5837" />
      <path
         d="m 70.919545,287.31341 q 0.01191,0.12207 0.0089,0.27392 0,0.0298 -0.02977,0.0298 h -0.94979 q -0.01191,0 -0.01191,0.0119 0,0.10124 0.01787,0.15483 0.03275,0.1191 0.131005,0.18758 0.101232,0.0655 0.253079,0.0655 0.220328,0 0.339424,-0.18162 0.01489,-0.0298 0.03871,-0.009 l 0.169712,0.11315 q 0.02084,0.0179 0.0089,0.0387 -0.08337,0.13399 -0.238192,0.2114 -0.151847,0.0774 -0.345378,0.0774 -0.217351,0 -0.366221,-0.0953 -0.14887,-0.0953 -0.223305,-0.27094 -0.07146,-0.17567 -0.07146,-0.42577 0,-0.21735 0.03275,-0.33049 0.05359,-0.20544 0.214373,-0.32454 0.16078,-0.11909 0.390039,-0.11909 0.300718,0 0.449588,0.15184 0.14887,0.14887 0.181621,0.44066 z m -0.631209,-0.34538 q -0.128028,0 -0.211395,0.0655 -0.08337,0.0625 -0.113141,0.16972 -0.02084,0.0655 -0.0268,0.16673 0,0.0119 0.01191,0.0119 h 0.681824 q 0.01191,0 0.01191,-0.0119 -0.006,-0.0983 -0.01786,-0.14589 -0.02977,-0.11612 -0.119096,-0.1846 -0.08634,-0.0715 -0.217351,-0.0715 z"
         style="font-weight:500;font-family:Barlow;-inkscape-font-specification:'Barlow Medium';text-align:end;text-anchor:end"
         id="path5839" />
      <path
         d="m 58.64972,289.17132 q 0,-0.0298 0.02977,-0.0298 h 0.226282 q 0.02977,0 0.02977,0.0298 v 2.02463 q 0,0.0298 -0.02977,0.0298 H 58.67949 q -0.02977,0 -0.02977,-0.0298 v -0.0983 q 0,-0.006 -0.006,-0.009 -0.003,-0.003 -0.0089,0.003 -0.0655,0.0744 -0.154825,0.11612 -0.08932,0.0417 -0.193531,0.0417 -0.214373,0 -0.357288,-0.10421 -0.139938,-0.10718 -0.20544,-0.30071 -0.05657,-0.15781 -0.05657,-0.38111 0,-0.20842 0.04764,-0.36027 0.06253,-0.19651 0.205441,-0.30667 0.142915,-0.11016 0.36622,-0.11016 0.101232,0 0.190554,0.0417 0.0923,0.0387 0.157802,0.11314 0.006,0.006 0.0089,0.003 0.006,-0.003 0.006,-0.009 z m -0.07444,1.67032 q 0.06848,-0.12505 0.06848,-0.37515 0,-0.25011 -0.07444,-0.38111 -0.08634,-0.15185 -0.253079,-0.15185 -0.178644,0 -0.264988,0.14292 -0.09528,0.14887 -0.09528,0.39301 0,0.22926 0.07443,0.3692 0.08634,0.16376 0.282853,0.16376 0.172689,0 0.262011,-0.16078 z"
         style="font-weight:500;font-family:Barlow;-inkscape-font-specification:'Barlow Medium';text-align:end;text-anchor:end"
         id="path5841" />
      <path
         d="m 60.582051,290.27891 q 0.01191,0.12207 0.0089,0.27392 0,0.0298 -0.02977,0.0298 h -0.94979 q -0.01191,0 -0.01191,0.0119 0,0.10124 0.01786,0.15483 0.03275,0.11909 0.131006,0.18757 0.101232,0.0655 0.253079,0.0655 0.220328,0 0.339424,-0.18162 0.01489,-0.0298 0.03871,-0.009 l 0.169712,0.11315 q 0.02084,0.0179 0.0089,0.0387 -0.08337,0.13398 -0.238192,0.2114 -0.151848,0.0774 -0.345379,0.0774 -0.21735,0 -0.36622,-0.0953 -0.14887,-0.0953 -0.223305,-0.27094 -0.07146,-0.17567 -0.07146,-0.42577 0,-0.21735 0.03275,-0.33049 0.05359,-0.20544 0.214373,-0.32454 0.160779,-0.11909 0.390039,-0.11909 0.300718,0 0.449588,0.15184 0.14887,0.14887 0.181621,0.44066 z m -0.631209,-0.34538 q -0.128028,0 -0.211395,0.0655 -0.08337,0.0625 -0.113141,0.16972 -0.02084,0.0655 -0.0268,0.16673 0,0.0119 0.01191,0.0119 h 0.681824 q 0.01191,0 0.01191,-0.0119 -0.006,-0.0983 -0.01787,-0.14589 -0.02977,-0.11612 -0.119096,-0.1846 -0.08634,-0.0715 -0.21735,-0.0715 z"
         style="font-weight:500;font-family:Barlow;-inkscape-font-specification:'Barlow Medium';text-align:end;text-anchor:end"
         id="path5843" />
      <path
         d="m 62.294051,289.91567 q 0,0.0298 -0.02977,0.0298 h -0.32156 q -0.01191,0 -0.01191,0.0119 v 0.78901 q 0,0.12505 0.05657,0.18162 0.05657,0.0536 0.175667,0.0536 h 0.08635 q 0.02977,0 0.02977,0.0298 v 0.1846 q 0,0.0298 -0.02977,0.0298 -0.09528,0.006 -0.136961,0.006 -0.226282,0 -0.342401,-0.0804 -0.113141,-0.0834 -0.113141,-0.3037 v -0.89024 q 0,-0.0119 -0.01191,-0.0119 h -0.181621 q -0.02977,0 -0.02977,-0.0298 V 289.74 q 0,-0.0298 0.02977,-0.0298 h 0.181621 q 0.01191,0 0.01191,-0.0119 v -0.35134 q 0,-0.0298 0.02977,-0.0298 h 0.214373 q 0.02977,0 0.02977,0.0298 v 0.35134 q 0,0.0119 0.01191,0.0119 h 0.32156 q 0.02977,0 0.02977,0.0298 z"
         style="font-weight:500;font-family:Barlow;-inkscape-font-specification:'Barlow Medium';text-align:end;text-anchor:end"
         id="path5845" />
      <path
         d="m 63.309342,289.69534 q 0.09528,0 0.17269,0.0387 0.02084,0.009 0.01489,0.0357 l -0.04764,0.22331 q -0.003,0.0268 -0.03573,0.0179 -0.05062,-0.0208 -0.119096,-0.0208 l -0.04168,0.003 q -0.139938,0.006 -0.232237,0.0983 -0.08932,0.0893 -0.08932,0.23522 v 0.8694 q 0,0.0298 -0.02977,0.0298 h -0.226283 q -0.02977,0 -0.02977,-0.0298 V 289.74 q 0,-0.0298 0.02977,-0.0298 h 0.226283 q 0.02977,0 0.02977,0.0298 v 0.1578 q 0,0.009 0.003,0.0119 0.006,0 0.0089,-0.006 0.133983,-0.20842 0.36622,-0.20842 z"
         style="font-weight:500;font-family:Barlow;-inkscape-font-specification:'Barlow Medium';text-align:end;text-anchor:end"
         id="path5847" />
      <path
         d="m 64.291875,289.68641 q 0.181621,0 0.315604,0.0655 0.136961,0.0625 0.208418,0.17864 0.07443,0.11314 0.07443,0.25904 v 1.00636 q 0,0.0298 -0.02977,0.0298 h -0.226282 q -0.02977,0 -0.02977,-0.0298 v -0.10719 q 0,-0.0149 -0.01489,-0.006 -0.07741,0.0804 -0.190554,0.12505 -0.110164,0.0417 -0.247124,0.0417 -0.220328,0 -0.36622,-0.11016 -0.142915,-0.11314 -0.142915,-0.33943 0,-0.23223 0.160779,-0.36324 0.163757,-0.13398 0.455542,-0.13398 h 0.333469 q 0.01191,0 0.01191,-0.0119 v -0.0804 q 0,-0.13101 -0.07741,-0.20246 -0.07444,-0.0744 -0.229259,-0.0744 -0.125051,0 -0.205441,0.0506 -0.07741,0.0476 -0.09528,0.131 -0.0089,0.0298 -0.03573,0.0268 l -0.241169,-0.0328 q -0.02977,-0.006 -0.0268,-0.0238 0.02382,-0.17567 0.187577,-0.28583 0.163757,-0.11314 0.410881,-0.11314 z m -0.07741,1.32196 q 0.157803,0 0.273921,-0.0834 0.116119,-0.0834 0.116119,-0.2114 v -0.17567 q 0,-0.0119 -0.01191,-0.0119 H 64.31272 q -0.175667,0 -0.279876,0.0685 -0.104209,0.0685 -0.104209,0.19056 0,0.11016 0.07741,0.16673 0.08039,0.0566 0.208418,0.0566 z"
         style="font-weight:500;font-family:Barlow;-inkscape-font-specification:'Barlow Medium';text-align:end;text-anchor:end"
         id="path5849" />
      <path
         d="m 65.649562,291.22572 q -0.0268,0 -0.03573,-0.0238 l -0.485316,-1.45892 -0.003,-0.0119 q 0,-0.0208 0.0268,-0.0208 h 0.250102 q 0.0268,0 0.03573,0.0238 l 0.327514,1.07781 q 0.003,0.006 0.0089,0.006 0.006,0 0.0089,-0.006 l 0.324537,-1.07781 q 0.0089,-0.0238 0.03573,-0.0238 l 0.250101,0.003 q 0.03275,0 0.02382,0.0328 l -0.482338,1.45595 q -0.0089,0.0238 -0.03573,0.0238 z"
         style="font-weight:500;font-family:Barlow;-inkscape-font-specification:'Barlow Medium';text-align:end;text-anchor:end"
         id="path5851" />
      <path
         d="m 67.215671,289.68641 q 0.181622,0 0.315605,0.0655 0.13696,0.0625 0.208418,0.17864 0.07443,0.11314 0.07443,0.25904 v 1.00636 q 0,0.0298 -0.02977,0.0298 h -0.226283 q -0.02977,0 -0.02977,-0.0298 v -0.10719 q 0,-0.0149 -0.01489,-0.006 -0.07741,0.0804 -0.190553,0.12505 -0.110164,0.0417 -0.247124,0.0417 -0.220328,0 -0.366221,-0.11016 -0.142915,-0.11314 -0.142915,-0.33943 0,-0.23223 0.16078,-0.36324 0.163757,-0.13398 0.455542,-0.13398 h 0.333469 q 0.01191,0 0.01191,-0.0119 v -0.0804 q 0,-0.13101 -0.07741,-0.20246 -0.07443,-0.0744 -0.22926,-0.0744 -0.125051,0 -0.20544,0.0506 -0.07741,0.0476 -0.09528,0.131 -0.0089,0.0298 -0.03573,0.0268 l -0.241169,-0.0328 q -0.02977,-0.006 -0.0268,-0.0238 0.02382,-0.17567 0.187576,-0.28583 0.163757,-0.11314 0.410881,-0.11314 z m -0.07741,1.32196 q 0.157802,0 0.273921,-0.0834 0.116118,-0.0834 0.116118,-0.2114 v -0.17567 q 0,-0.0119 -0.01191,-0.0119 h -0.279876 q -0.175666,0 -0.279875,0.0685 -0.104209,0.0685 -0.104209,0.19056 0,0.11016 0.07741,0.16673 0.08039,0.0566 0.208418,0.0566 z"
         style="font-weight:500;font-family:Barlow;-inkscape-font-specification:'Barlow Medium';text-align:end;text-anchor:end"
         id="path5853" />
      <path
         d="m 69.103338,289.74 q 0,-0.0298 0.02977,-0.0298 h 0.223305 q 0.02977,0 0.02977,0.0298 v 1.45595 q 0,0.0298 -0.02977,0.0298 h -0.223305 q -0.02977,0 -0.02977,-0.0298 v -0.11017 q 0,-0.006 -0.006,-0.006 -0.003,-0.003 -0.0089,0.003 -0.119096,0.16375 -0.366221,0.16375 -0.145892,0 -0.270943,-0.0566 -0.122073,-0.0566 -0.196508,-0.16673 -0.07443,-0.11016 -0.07443,-0.26797 V 289.74 q 0,-0.0298 0.02977,-0.0298 h 0.223305 q 0.02977,0 0.02977,0.0298 v 0.92597 q 0,0.15483 0.08039,0.24415 0.08337,0.0893 0.232238,0.0893 0.14887,0 0.238192,-0.0893 0.08932,-0.0923 0.08932,-0.24415 z"
         style="font-weight:500;font-family:Barlow;-inkscape-font-specification:'Barlow Medium';text-align:end;text-anchor:end"
         id="path5855" />
      <path
         d="m 69.695835,291.22572 q -0.01786,0 -0.02382,-0.009 -0.006,-0.0119 0.003,-0.0268 l 0.494249,-0.71159 q 0.006,-0.009 0,-0.0179 l -0.494249,-0.71458 -0.006,-0.0149 q 0,-0.0208 0.0268,-0.0208 h 0.24117 q 0.02382,0 0.03573,0.0179 l 0.348356,0.50914 q 0.003,0.003 0.0089,0.003 0.006,0 0.0089,-0.003 l 0.345378,-0.50914 q 0.01191,-0.0179 0.03573,-0.0179 h 0.259034 q 0.01786,0 0.02382,0.0119 0.006,0.009 -0.003,0.0238 l -0.494248,0.71458 q -0.003,0.009 0,0.0179 l 0.494248,0.71159 0.006,0.0149 q 0,0.0208 -0.0268,0.0208 h -0.244147 q -0.02382,0 -0.03573,-0.0179 l -0.345378,-0.50914 q -0.003,-0.006 -0.0089,-0.006 -0.006,0 -0.0089,0.006 l -0.348356,0.50914 q -0.01191,0.0179 -0.03573,0.0179 z"
         style="font-weight:500;font-family:Barlow;-inkscape-font-specification:'Barlow Medium';text-align:end;text-anchor:end"
         id="path5857" />
    </g>
  </g>
</svg>
