<?xml version="1.0" encoding="UTF-8" standalone="no"?>
<!-- Created with Inkscape (http://www.inkscape.org/) -->

<svg
   xmlns:dc="http://purl.org/dc/elements/1.1/"
   xmlns:cc="http://creativecommons.org/ns#"
   xmlns:rdf="http://www.w3.org/1999/02/22-rdf-syntax-ns#"
   xmlns:svg="http://www.w3.org/2000/svg"
   xmlns="http://www.w3.org/2000/svg"
   xmlns:sodipodi="http://sodipodi.sourceforge.net/DTD/sodipodi-0.dtd"
   xmlns:inkscape="http://www.inkscape.org/namespaces/inkscape"
   width="1200"
   height="1200"
   viewBox="0 0 317.49999 317.50001"
   version="1.1"
   id="svg1263"
   inkscape:version="0.92.5 (2060ec1f9f, 2020-04-08)"
   sodipodi:docname="drop_travaux_encours_1.svg">
  <defs
     id="defs1257" />
  <sodipodi:namedview
     id="base"
     pagecolor="#ffffff"
     bordercolor="#666666"
     borderopacity="1.0"
     inkscape:pageopacity="0.0"
     inkscape:pageshadow="2"
     inkscape:zoom="0.35"
     inkscape:cx="-208.57143"
     inkscape:cy="560"
     inkscape:document-units="mm"
     inkscape:current-layer="layer1"
     showgrid="false"
     units="px"
     inkscape:window-width="1920"
     inkscape:window-height="1134"
     inkscape:window-x="1920"
     inkscape:window-y="0"
     inkscape:window-maximized="1" />
  <metadata
     id="metadata1260">
    <rdf:RDF>
      <cc:Work
         rdf:about="">
        <dc:format>image/svg+xml</dc:format>
        <dc:type
           rdf:resource="http://purl.org/dc/dcmitype/StillImage" />
        <dc:title></dc:title>
      </cc:Work>
    </rdf:RDF>
  </metadata>
  <g
     inkscape:label="Calque 1"
     inkscape:groupmode="layer"
     id="layer1"
     transform="translate(0,20.500017)">
    <g
       id="g2021"
       transform="translate(-198.05952,188.23215)">
      <path
         inkscape:export-ydpi="300"
         inkscape:export-xdpi="300"
         sodipodi:nodetypes="cccc"
         inkscape:connector-curvature="0"
         id="path815-4-1-7"
         d="M 207.13863,83.410723 H 506.48042 L 356.72754,-183.37587 Z"
         style="fill:#f76963;fill-opacity:1;stroke:#143441;stroke-width:15.7650032;stroke-linecap:round;stroke-linejoin:round;stroke-miterlimit:4;stroke-dasharray:none;stroke-opacity:1" />
      <path
         inkscape:export-ydpi="300"
         inkscape:export-xdpi="300"
         id="path1048-8"
         d="m 294.72232,-52.355487 -10.6016,41.4135 -10.60197,-3.1473 -5.79805,10.9332099 34.95311,7.95159 -2.48494,2.48441 V 24.176613 l -10.43604,10.4365 16.2341,16.234 16.23409,-16.234 v -16.0685 l 21.61806,21.6179 0.24852,32.55082 h 21.70065 v -37.76922 l -19.05015,-19.0501 54.83145,13.0865 2.82798,-10.554 -22.70666,-5.18299 v -43.89841 l -32.96525,-21.7006 z m 16.73117,21.8662 h 21.20395 l -21.70101,26.3389999 -11.09867,-3.1471 z m 48.61391,16.4 V 7.7756129 l -17.30506,-4.63689 z"
         style="fill:#143441;fill-opacity:1;stroke:none;stroke-width:2.26500058;stroke-linecap:round;stroke-linejoin:round;stroke-miterlimit:4;stroke-dasharray:none;stroke-opacity:1"
         inkscape:connector-curvature="0" />
      <path
         inkscape:export-ydpi="300"
         inkscape:export-xdpi="300"
         inkscape:connector-curvature="0"
         id="path1056-5"
         d="m 409.18948,7.2920829 -5.46632,27.6520501 h -10.43659 l -5.79758,21.20337 -0.55655,16.56592 11.82098,-0.0992 h 90.2917 L 461.05503,23.402253 426.32177,7.2921029 Z"
         style="fill:#143441;fill-opacity:1;stroke:none;stroke-width:0.26458332px;stroke-linecap:butt;stroke-linejoin:miter;stroke-opacity:1" />
      <g
         inkscape:export-ydpi="300"
         inkscape:export-xdpi="300"
         style="stroke-width:0.9580698"
         id="g947-9-7"
         transform="matrix(1.0437653,0,0,1.0437653,214.41644,-782.00183)">
        <path
           style="fill:#143441;fill-opacity:1;stroke:none;stroke-width:0.25348929px;stroke-linecap:butt;stroke-linejoin:miter;stroke-opacity:1"
           d="m 156.43034,660.3234 c 0,0 -16.45139,20.73089 -16.45139,29.40121 0,8.67031 7.11412,16.67372 16.45139,16.67372 9.33727,0 16.45138,-8.00341 16.45138,-16.67372 0,-8.67032 -16.45138,-29.40121 -16.45138,-29.40121 z"
           id="path826-8-6-4"
           inkscape:connector-curvature="0" />
        <path
           style="fill:#000000;fill-opacity:0;stroke:#f76963;stroke-width:3.12809777;stroke-linecap:round;stroke-linejoin:round;stroke-miterlimit:4;stroke-dasharray:none;stroke-opacity:1"
           d="m 167.34212,688.66337 c 0,0 0.0556,12.61643 -12.28294,12.1718"
           id="path844-10-2-1"
           inkscape:connector-curvature="0" />
      </g>
    </g>
  </g>
</svg>
