<svg xmlns="http://www.w3.org/2000/svg" xmlns:xlink="http://www.w3.org/1999/xlink" width="126" height="82" viewBox="0 0 126 82">
  <defs>
    <clipPath id="clip-path">
      <rect id="Rectangle_36" data-name="Rectangle 36" width="126" height="82" transform="translate(0 12.826)" fill="#fff" stroke="#707070" stroke-width="1"/>
    </clipPath>
    <linearGradient id="linear-gradient" x1="6.802" y1="45.704" x2="6.907" y2="44.991" gradientUnits="objectBoundingBox">
      <stop offset="0.29" stop-color="#2659a5"/>
      <stop offset="0.57" stop-color="#2397d4"/>
    </linearGradient>
  </defs>
  <g id="Groupe_de_masques_2" data-name="Groupe de masques 2" transform="translate(0 -12.826)" clip-path="url(#clip-path)">
    <g id="Groupe_32" data-name="Groupe 32">
      <g id="Page-1" transform="translate(3.191 91.652) rotate(-90)">
        <g id="Dribbble-Light-Preview">
          <g id="icons">
            <path id="drop-_74_" data-name="drop-[#74]" d="M259.652,7790.738a45.826,45.826,0,1,1-91.652,0c0-25.308,34.369-68.738,45.826-68.738s45.826,43.431,45.826,68.738" transform="translate(-168 -7722)" fill="#fff" fill-rule="evenodd"/>
          </g>
        </g>
      </g>
      <g id="Calque_2" data-name="Calque 2" transform="translate(12 -2.174)">
        <g id="logos" transform="translate(16.577 23.62)">
          <path id="Tracé_23" data-name="Tracé 23" d="M54.073,58.106a3.349,3.349,0,0,0-1.8-1.116,14.792,14.792,0,0,0-2.872-.18H46.916a.153.153,0,0,0-.153.162V69.233a.2.2,0,0,0,.054.117.189.189,0,0,0,.117,0h1.224a.153.153,0,0,0,.153-.162v-5.5h.711a15.836,15.836,0,0,0,3.16-.207,3.322,3.322,0,0,0,1.891-1.152,3.6,3.6,0,0,0,0-4.249Zm-.9,2.125a1.882,1.882,0,0,1-.306,1.062,1.674,1.674,0,0,1-.837.675,5.041,5.041,0,0,1-1.8.225H48.32V58.331H50.3a5.4,5.4,0,0,1,1.737.207,1.711,1.711,0,0,1,.81.666,1.8,1.8,0,0,1,.324,1.026Zm18.005-.162a.135.135,0,0,1,.072.1.153.153,0,0,1,0,.126l-.612.981a.162.162,0,0,1-.2.063,1.638,1.638,0,0,0-.558-.144,1.548,1.548,0,0,0-1.017.441,2.881,2.881,0,0,0-.774,1.413,14.909,14.909,0,0,0-.207,3.088v3.07a.153.153,0,0,1-.153.162h-1.26a.162.162,0,0,1-.108,0,.144.144,0,0,1-.054-.117V60.14a.18.18,0,0,1,0-.117.171.171,0,0,1,.117,0h1.188a.171.171,0,0,1,.117,0,.189.189,0,0,1,.045.117v.837a3.934,3.934,0,0,1,.9-.819,2.161,2.161,0,0,1,2.449-.09Zm3.007-.054a.18.18,0,0,1,.054.117V69.2a.162.162,0,0,1-.153.162H72.87a.171.171,0,0,1-.117,0,.144.144,0,0,1-.054-.117V60.131a.153.153,0,0,1,.153-.162h1.17a.162.162,0,0,1,.108.045Zm.09-3.448a1.116,1.116,0,0,1-.792,1.909,1.107,1.107,0,0,1-1.107-1.116,1.089,1.089,0,0,1,.324-.792,1.107,1.107,0,0,1,1.521,0Zm7.418,10.191a2.7,2.7,0,0,1-.828,2.008,2.863,2.863,0,0,1-2.071.819,3.646,3.646,0,0,1-1.566-.351,3.466,3.466,0,0,1-1.242-.99.153.153,0,0,1,0-.2l.729-.837a.171.171,0,0,1,.117-.054h0a.162.162,0,0,1,.126.054,2.422,2.422,0,0,0,1.8.954,1.566,1.566,0,0,0,1.017-.432,1.251,1.251,0,0,0,.405-.9,1.206,1.206,0,0,0-.288-.792,5.4,5.4,0,0,0-1.422-.9,4.906,4.906,0,0,1-1.737-1.3,2.548,2.548,0,0,1-.432-1.512,2.449,2.449,0,0,1,.747-1.8,2.62,2.62,0,0,1,1.891-.729,3.808,3.808,0,0,1,2.647,1.26.171.171,0,0,1,0,.117.162.162,0,0,1,0,.108l-.756.774a.126.126,0,0,1-.108.054h-.108a2.557,2.557,0,0,0-1.728-.9,1.206,1.206,0,0,0-.9.333,1.008,1.008,0,0,0-.351.765,1.179,1.179,0,0,0,.3.738,4.789,4.789,0,0,0,1.35.9,5.231,5.231,0,0,1,1.8,1.341,2.476,2.476,0,0,1,.558,1.467ZM28.4,56.81V56.6a.171.171,0,0,0-.117,0H27.119a.162.162,0,0,0-.171.153v4.672a4.663,4.663,0,0,0-1.359-1.116,4.5,4.5,0,0,0-2.125-.5,4.663,4.663,0,0,0-3.4,1.422,4.762,4.762,0,0,0-1.431,3.457,4.843,4.843,0,0,0,1.4,3.52,4.627,4.627,0,0,0,3.439,1.458h0a4.69,4.69,0,0,0,2.044-.459,5.4,5.4,0,0,0,1.44-1.071v.144c0,.9,1.206,1.161,1.26,1.161a.153.153,0,0,0,.126,0s.081-.072.081-.126Zm-8.264,7.922a3.457,3.457,0,0,1,.468-1.746,3.428,3.428,0,0,1,5.42-.72,3.439,3.439,0,0,1,.972,2.53,3.5,3.5,0,0,1-.441,1.8,3.241,3.241,0,0,1-1.287,1.215,3.439,3.439,0,0,1-1.737.459,3.25,3.25,0,0,1-1.692-.477,3.448,3.448,0,0,1-1.26-1.305,3.5,3.5,0,0,1-.441-1.756ZM23.464,69.53Zm11.514-9.678a4.5,4.5,0,0,0-3.691,1.8,4.978,4.978,0,0,0-1.107,3.169,5.1,5.1,0,0,0,1.269,3.4,4.555,4.555,0,0,0,3.6,1.521h0a5.185,5.185,0,0,0,1.8-.306,4.5,4.5,0,0,0,1.485-.9A5.726,5.726,0,0,0,39.5,66.964a.162.162,0,0,0-.072-.216l-.972-.522a.171.171,0,0,0-.216.063,5.509,5.509,0,0,1-.963,1.242,3.5,3.5,0,0,1-1.071.6,3.6,3.6,0,0,1-1.3.225h0a3.052,3.052,0,0,1-2.3-.972,3.439,3.439,0,0,1-.909-2.359h7.967a.153.153,0,0,0,.108,0,.189.189,0,0,0,.045-.117,5.1,5.1,0,0,0-1.026-3.2A4.645,4.645,0,0,0,34.978,59.852Zm-3.106,3.853a3.727,3.727,0,0,1,.954-1.611,3.178,3.178,0,0,1,2.179-.8h0a3.277,3.277,0,0,1,1.476.333,3.115,3.115,0,0,1,1.125.9,3.6,3.6,0,0,1,.585,1.224ZM35.078,69.53Zm24.577-9.768H59.24a4.672,4.672,0,0,0-3.367,1.413,4.762,4.762,0,0,0-1.413,3.475,4.834,4.834,0,0,0,1.413,3.5,4.762,4.762,0,0,0,5.4.972,4.852,4.852,0,0,0,1.422-1.08v.162c0,.9,1.206,1.134,1.26,1.143a.153.153,0,0,0,.135,0,.135.135,0,0,0,0-.117V60.122a.144.144,0,0,0-.054-.108.126.126,0,0,0-.108-.054H62.859a.153.153,0,0,0-.153.153v.558a15.44,15.44,0,0,0-3.052-.909ZM62.778,64.7a3.511,3.511,0,0,1-.441,1.8,3.214,3.214,0,0,1-1.251,1.224,3.4,3.4,0,0,1-3.412,0,3.577,3.577,0,0,1-1.26-4.807,3.313,3.313,0,0,1,1.26-1.278,3.349,3.349,0,0,1,1.719-.459,3.3,3.3,0,0,1,2.44,1A3.484,3.484,0,0,1,62.778,64.7Z" transform="translate(-16.781 -26.876)" fill="#2659a5"/>
          <path id="Tracé_24" data-name="Tracé 24" d="M68.928,46.062a1.883,1.883,0,0,0,0,.216c0,.99,1.314,1.224,1.377,1.242a.162.162,0,0,0,.126,0,.18.18,0,0,0,.054-.126V37.383a.153.153,0,0,0-.162-.162h-1.26a.162.162,0,0,0-.162.162v1.377a4.979,4.979,0,0,0-1.521-1.242,4.825,4.825,0,0,0-2.3-.54,5.086,5.086,0,0,0-3.745,1.584,5.185,5.185,0,0,0-1.548,3.8,5.3,5.3,0,0,0,1.539,3.844,5.05,5.05,0,0,0,3.736,1.557h0a4.987,4.987,0,0,0,2.26-.513A5.564,5.564,0,0,0,68.928,46.062Zm-7.517-3.7a3.826,3.826,0,0,1,.513-1.936A3.6,3.6,0,0,1,63.31,39a3.745,3.745,0,0,1,1.9-.5,3.6,3.6,0,0,1,2.7,1.116A3.826,3.826,0,0,1,69,42.4a3.943,3.943,0,0,1-.486,1.963,3.52,3.52,0,0,1-1.431,1.4,3.826,3.826,0,0,1-1.918.513,3.6,3.6,0,0,1-1.882-.513A3.781,3.781,0,0,1,61.9,44.333a3.889,3.889,0,0,1-.486-1.972Zm11.532,3.052a8.1,8.1,0,0,1-.459-3.223V37.383a.162.162,0,0,1,.054-.117.153.153,0,0,1,.108-.045h1.287a.162.162,0,0,1,.162.162v4.654a9.9,9.9,0,0,0,.18,2.3,2.377,2.377,0,0,0,.909,1.359,2.908,2.908,0,0,0,1.755.5h0a2.989,2.989,0,0,0,1.737-.486,2.521,2.521,0,0,0,1.008-1.287,9.416,9.416,0,0,0,.18-2.395V37.383a.162.162,0,0,1,.162-.162h1.305a.189.189,0,0,1,.117.045.171.171,0,0,1,.045.117v4.9a7.832,7.832,0,0,1-.5,3.169,3.808,3.808,0,0,1-1.5,1.71,4.7,4.7,0,0,1-2.512.6h0a4.735,4.735,0,0,1-2.521-.621,3.772,3.772,0,0,1-1.521-1.7ZM63.112,57.819C60.781,52.264,54.092,51,49.077,48.744c-3.5-1.584-6.3-2.827-6.3-4.3a1.8,1.8,0,0,1,.468-1.305,2.35,2.35,0,0,1,1.728-.639h.1a4.816,4.816,0,0,1,2.836.783,2.025,2.025,0,0,1,.432.711s0,0,0,.054a5.653,5.653,0,0,0,1.179,2.089,4.906,4.906,0,0,0,4,1.629,5.572,5.572,0,0,0,2-.342,5.069,5.069,0,0,0,1.665-.99,5.852,5.852,0,0,0,1.26-1.737.153.153,0,0,0-.072-.207l-1.08-.567a.153.153,0,0,0-.207.054,5.618,5.618,0,0,1-1.062,1.377,3.7,3.7,0,0,1-1.17.675,3.916,3.916,0,0,1-1.431.261,3.43,3.43,0,0,1-2.539-1.062,3.889,3.889,0,0,1-1.053-2.584h8.814c.09,0,.108,0,.126-.072a.216.216,0,0,0,0-.144,5.573,5.573,0,0,0-1.134-3.457,5.077,5.077,0,0,0-4.222-2.008A4.933,4.933,0,0,0,49.329,38.9a6.232,6.232,0,0,0-.432.648h0a1.323,1.323,0,0,1-.342.351,6.3,6.3,0,0,1-3.835,1.134,7.661,7.661,0,0,1-3.457-.8c-1.35-.612-2-1.134-2.152-1.746s.171-1.458,1.17-2.809h0a4.825,4.825,0,1,0-6.86.216,4.546,4.546,0,0,0,1.044.756c1.314,1.008,2.107,1.945,1.665,3.232-.378,1.08-1.647,1.7-3.484,1.71a10.192,10.192,0,0,1-1.521-.126c-.9-.153-4.06-.837-5.068-3.718a2.394,2.394,0,0,1-.072-.3.45.45,0,0,0,0-.108,1.6,1.6,0,0,0-.477-.9A1.656,1.656,0,0,0,24.374,36a1.629,1.629,0,0,0-1.2.513,1.674,1.674,0,0,0-.468,1.35.576.576,0,0,1,0,.063,3.43,3.43,0,0,0,.27.9c.981,1.927,4.411,2.935,6.671,3.6l.459.144c4.915,1.449,5.735,2.053,5.492,4.024a2.926,2.926,0,0,1-2.935,2.3h-.243a7.409,7.409,0,0,0-1.206-.054,2.566,2.566,0,1,0,1.828,4.348,4.05,4.05,0,0,0,.27-.342h0V52.8a1.152,1.152,0,0,0,.126-.225c.1-.189.207-.369.3-.558a5.1,5.1,0,0,1,2.017-2.539c1.638-1.242,3.133-1.485,5.4-1.485a23.749,23.749,0,0,1,7.508,1.5c4.5,1.521,10.3,4.024,11.424,7.409ZM49.978,41.209a3.9,3.9,0,0,1,1.053-1.8,3.484,3.484,0,0,1,2.422-.9,3.826,3.826,0,0,1,1.629.351,3.448,3.448,0,0,1,1.2.972,3.934,3.934,0,0,1,.666,1.377Z" transform="translate(-17.187 -24.014)" fill="url(#linear-gradient)"/>
          <path id="Tracé_25" data-name="Tracé 25" d="M48.471,35.447c-.783-.747-.144-4.24.792-5.348a2.8,2.8,0,1,1,4.285,3.6A7.859,7.859,0,0,1,49.1,35.636h0A.9.9,0,0,1,48.471,35.447Z" transform="translate(-19.723 -24.167)" fill="#2659a5"/>
          <path id="Tracé_26" data-name="Tracé 26" d="M17.7,29.526a3.331,3.331,0,0,1-1.116-2.332,3.453,3.453,0,0,1,3.412-3.574,3.358,3.358,0,0,1,2.269.9,9.617,9.617,0,0,1,2.17,5.33,1.224,1.224,0,0,1-.234.9,2.035,2.035,0,0,1-1.413.36h0A9.2,9.2,0,0,1,17.7,29.526Z" transform="translate(-16.577 -23.62)" fill="#2659a5"/>
          <path id="Tracé_27" data-name="Tracé 27" d="M19,52.831a2.432,2.432,0,0,1-.648-4.771,2.773,2.773,0,0,1,.729-.09c1.305,0,3.6.621,3.745,1.332.2.9-1.981,3.088-3.187,3.421a2.2,2.2,0,0,1-.639.09Z" transform="translate(-16.577 -26.049)" fill="#2659a5"/>
        </g>
      </g>
    </g>
  </g>
</svg>
